<svg xmlns="http://www.w3.org/2000/svg" width="645.362" height="504.289" viewBox="0 0 645.362 504.289"><defs><style>.a{fill:#aea511;}.b{fill:#cec41d;}.c{fill:#f7b09e;}.d{fill:#cd5016;}.e{fill:#ff855f;}.f{fill:#6b5343;}.g{fill:#0c060e;}.h,.l{fill:none;}.h{stroke:#db8572;}.h,.k,.l{stroke-linecap:round;stroke-linejoin:round;}.i{fill:#db8572;}.j,.k{fill:#8cc63f;}.k,.l{stroke:#fff;stroke-width:0.25px;}.m{fill:#ffbbb0;}.n{fill:#a1d8d8;}.o{fill:#f1f2f2;}.p{fill:#f98658;}</style></defs><path class="a" d="M4215.1,5952.813l115.739,88.479a12.513,12.513,0,0,0,16.338-.815l190.436-181.841,139.052-5.507,125.973-129.414,27.757,23.791c2.629,2.254,4.289.066,4.869-3.348l23.111-132.727L4728.6,5654.7l27.23,24.271-103.945,94.308-171.433-2.731a4.451,4.451,0,0,0-2.485.709Z" transform="translate(-4215.104 -5539.651)"/><path class="a" d="M12900.078,3139.081l-.053,19.148,10.667-6.958Z" transform="translate(-12900.016 -2745.061)"/><path class="a" d="M5433.282,5679.452l.012,14.6,9.528-3.177Z" transform="translate(-4919.795 -5578.999)"/><path class="b" d="M4218.936,5925.47l111.907,87.3a12.514,12.514,0,0,0,16.338-.816L4536.4,5831.276a4.455,4.455,0,0,1,2.9-1.229l135.593-5.37a4.454,4.454,0,0,0,3.016-1.344l121.816-125.145a4.456,4.456,0,0,1,6.092-.274l24.582,21.07a4.455,4.455,0,0,0,7.292-2.637l22.775-134.049-128.9,37.759a4.276,4.276,0,0,0-1.643,7.3l22.212,19.8a4.454,4.454,0,0,1,.029,6.625l-98.972,89.8a4.455,4.455,0,0,1-3.064,1.155l-169.672-2.7a4.448,4.448,0,0,0-2.485.71l-258.305,166.521A9.955,9.955,0,0,0,4218.936,5925.47Z" transform="translate(-4215.104 -5522.797)"/><g transform="translate(222.357 73.985)"><path class="c" d="M4804.479,5619.586c-2.558,16.209-11.476,29.154-11.476,29.154-3.834,7.821-15.028,17.652-15.028,17.652L4766,5676.271a11.692,11.692,0,0,1-8.153,4.573l-8.438-2.963c-2.873-.516-2.521-.677-5.51-4.412s-.3-5.455,3.6-4.558,8.827-.693,10.933-1.9,1.431-4-.977-2.934c-1.077.478-4.9,1.369-6.469.9-3.639-1.088-.033-2.828-.033-2.828,6.066-5.137,17.49-3.665,17.49-3.665,8.771-21.267,18.869-41.829,18.869-41.829" transform="translate(-4742.617 -5616.661)"/><path class="c" d="M4772.908,5816.174" transform="translate(-4760.14 -5732.075)"/></g><path class="c" d="M5165.166,5870.46l7.534.3s7.566,3.443,4.326,13.848c0,0-7.9-2.985-8.249,1.874l-4.213-.8Z" transform="translate(-4764.348 -5689.494)"/><path class="d" d="M5181.342,5877.211s-10.526-3.482-7.522,2.061c0,0,8.549,1.91,11.761,12.1s5.812,12.02,7.539,12.089c0,0,2.175-35.126-.717-45.459,0,0-18.75,3.537-13.5,7C5181.5,5866.717,5183.757,5868.9,5181.342,5877.211Z" transform="translate(-4769.391 -5682.285)"/><path class="e" d="M5215.163,5901.274s2.173,1.922,3.693.063l.774-45.231s-1.614-2.227-3.066-.052A226.838,226.838,0,0,1,5215.163,5901.274Z" transform="translate(-4793.617 -5680.608)"/><path class="c" d="M4921.2,5903.474l-.679,7.509s-3.821,7.383-14.049,3.619c0,0,3.381-7.737-1.454-8.333l1.008-4.167Z" transform="translate(-4614.203 -5707.798)"/><path class="d" d="M4872.2,5918.981s4.01-10.336-1.677-7.618c0,0-2.34,8.442-12.678,11.134s-12.3,5.2-12.454,6.917c0,0,34.971,3.951,45.437,1.585,0,0-2.583-18.906-6.311-13.842C4882.674,5919.665,4880.383,5921.813,4872.2,5918.981Z" transform="translate(-4579.713 -5712.892)"/><path class="e" d="M4844.089,5954.24s-1.922,2.173-.063,3.693l45.231.774s2.227-1.615.052-3.066A226.838,226.838,0,0,1,4844.089,5954.24Z" transform="translate(-4578.453 -5737.958)"/><path class="f" d="M4963.348,5655.343s-8.9,16.38-36.762,20.922c-27.908,4.551-46.455,9.021-46.455,41.426s1.89,46.47,1.89,46.47h31.822l-1.149-30.684V5719.53c23.177-2.961,27.853-10.5,27.853-10.5s-16.682,59.151,19.841,58.285c28.453-.674,40.224.05,40.224.05v-26.85l-27.312-.652s2-29.873,2.531-45.187C4976.4,5678.465,4973.074,5667.587,4963.348,5655.343Z" transform="translate(-4599.809 -5565.053)"/><path class="c" d="M4873.318,5479.175" transform="translate(-4595.867 -5463.144)"/><path class="c" d="M4827.209,5528.333l6.588,4.912a77.481,77.481,0,0,0,18.335,24.345l-6.407-30.625a17.073,17.073,0,0,1,2.741-13.311l1.064-1.514-20.489,8.251S4829.048,5522.007,4827.209,5528.333Z" transform="translate(-4569.193 -5482.212)"/><path class="c" d="M4762.649,5534.233l8.035,9.723s2.182.761,2.653-2.209" transform="translate(-4531.848 -5494.993)"/><path class="c" d="M4777.443,5467.908l21.1,18.219-20.058,8.144-1.893,7.107a20.942,20.942,0,0,1-2.331,3.911l-3.862,5.242a1.008,1.008,0,0,1-1.416.209s-17.508-12.86-22.831-17.754c-1.923-1.769-7.084-7.684-7.084-7.684l14.688-18.129Z" transform="translate(-4518.207 -5456.201)"/><path class="g" d="M4743.717,5461.97s-.716,10.719-4.361,11.449c-2.31.463-4.57-1.709-5.114-5.51-1.166-8.148,7.207-27.466,24.005-26.749,9.266.4,28.041,21.861,28.041,21.861l-1.947,2.758-13.7,2.009s-3.861,4.843-4.048,4.684c-4.543-3.883-6.375-7.8-8.911-6.643A11.125,11.125,0,0,1,4743.717,5461.97Z" transform="translate(-4515.352 -5441.142)"/><path class="g" d="M4772.355,5509.261a18.015,18.015,0,0,0-4.837,4.242s-2.515.741-2.125-2.238c0,0,2.632-3.531,6.281-3.688C4771.674,5507.577,4773.6,5508.438,4772.355,5509.261Z" transform="translate(-4533.41 -5479.573)"/><circle class="g" cx="1.282" cy="1.282" r="1.282" transform="translate(237.664 34.086)"/><path class="h" d="M4799.818,5555.779a2.419,2.419,0,0,1-2.166,1.4" transform="translate(-4552.096 -5507.457)"/><path class="i" d="M4788,5496.812s.15-3.359,5.928,2.048,3.824,5.222,3.824,5.222Z" transform="translate(-4546.512 -5472.749)"/><path class="i" d="M4833.8,5544.42l-6.588-4.911,2.263-8.051S4834.11,5535.491,4833.8,5544.42Z" transform="translate(-4569.193 -5493.388)"/><path class="j" d="M4880.155,5604.7l65.469-26.592a4.234,4.234,0,0,0,1.284-.785c3.4-3.132-1.161-9.3-4.117-12.708l-30.426-35.391c-24.927-26.295-45.469-29.26-55.889-20.541h0c-17.321,14.492-21.315,38.246-8.923,53.058l19.8,33.682a61.566,61.566,0,0,1,5.021,7.306C4873.825,5605.126,4877.009,5605.93,4880.155,5604.7Z" transform="translate(-4576.795 -5477.667)"/><path class="h" d="M4763.165,5533.541l8,9.753a1.725,1.725,0,0,0,2.1-1.389" transform="translate(-4532.146 -5494.593)"/><g transform="translate(261.316 64.525)"><path class="c" d="M4883.046,5594.219c1.367,16.352-4.22,31.046-4.22,31.046-1.866,8.507-10.4,20.717-10.4,20.717l-9.288,12.443a11.7,11.7,0,0,1-6.833,6.379l-8.9-.873c-2.913.181-2.61-.06-6.4-2.977s-1.587-5.227,2.412-5.283,8.409-2.771,10.169-4.439.438-4.228-1.646-2.618c-.933.721-4.439,2.495-6.069,2.412-3.794-.192-.7-2.738-.7-2.738,4.67-6.431,16.117-7.716,16.117-7.716,3.467-22.742,8.389-45.115,8.389-45.115" transform="translate(-4835.042 -5594.219)"/><path class="c" d="M4881.554,5808.951" transform="translate(-4861.948 -5718.437)"/></g><path class="j" d="M4889.651,5587.591s17.577,22.234,36.193,2.333Z" transform="translate(-4605.316 -5525.86)"/><path class="j" d="M4842.864,5600.178s-1.065,39.04,20.577,27.937Z" transform="translate(-4578.246 -5533.141)"/><path class="k" d="M4917.432,5602.1s4.464,4.521,12.457,1.5" transform="translate(-4621.387 -5534.254)"/><path class="l" d="M4981.694,5768s18.483-1.557,31.7-25.691" transform="translate(-4658.561 -5615.359)"/><path class="c" d="M4845.651,5552.2l1.224,22.305-4.035-18.085Z" transform="translate(-4578.236 -5505.385)"/><g transform="translate(120.664 56.172)"><path d="M4503.228,5614.069s-11.177-38.6,21.225-39.625c0,0,15.267-1.759,19.271,17.345,0,0,13.124,11.458,1.867,23.287,0,0-1.208,8.227-20.307,11.976s-23.135-5.076-21.287-11.655" transform="translate(-4501.365 -5574.402)"/><circle cx="10.254" cy="10.254" r="10.254" transform="translate(25.95 39.235)"/><circle cx="9.076" cy="9.076" r="9.076" transform="translate(33.496 51.905)"/><circle cx="8.108" cy="8.108" r="8.108" transform="translate(42.685 61.896)"/><circle cx="8.108" cy="8.108" r="8.108" transform="translate(49.528 69.392)"/><circle cx="6.99" cy="6.99" r="6.99" transform="translate(64.471 82.099)"/><circle cx="6.99" cy="6.99" r="6.99" transform="translate(57.14 76.094)"/><circle cx="6.442" cy="6.442" r="6.442" transform="translate(72.946 87.175)"/><path d="M4698.184,5791.77l13.525,8.724a5.468,5.468,0,0,1,.538,8.794l-5.609,4.676a5.468,5.468,0,0,1-8.208-1.419l-7.916-13.4a5.469,5.469,0,0,1,.516-6.292h0A5.468,5.468,0,0,1,4698.184,5791.77Z" transform="translate(-4610.344 -5699.639)"/></g><path class="m" d="M4534.45,5834.309l31.206-2.158,9.449.568s4.115.733,9.09-3.5c0,0,1.746-1.332-5.406-.252,0,0,10.553-3.49,9.871-5.246,0,0,1.625-2.137-9.2,2.26,0,0,8.17-4.745,7-6.467s-.112-.153-.112-.153.066-1.507-9.239,4.827c0,0-4,1.207-3.216-1.112s6.024-2.037,6.024-2.037,2.826-.952.468-2.367l-6.579-.376-7.979,6.346-30.929-8.472Z" transform="translate(-4399.84 -5658.09)"/><path class="c" d="M4680.181,5761.848l27.146-16.462,8.762-3.879s4.031-1.25,6.634-7.387c0,0,.98-2.017-4.981,2.286,0,0,7.953-8.062,6.558-9.332,0,0,.514-2.687-7.282,6.321,0,0,5.249-8.089,3.426-9.1s-.169-.086-.169-.086-.609-1.393-6.175,8.66c0,0-3.068,2.952-3.391.49s4.521-4.643,4.521-4.643,2.122-2.174-.631-2.358l-6.092,2.72-4.366,9.446-31.62,6.723Z" transform="translate(-4479.711 -5604.667)"/><path class="n" d="M4489.992,5901.644s60.868,9.892,51.9,26.2l-37.156,43.934a23.213,23.213,0,0,1-11.388-1.31l21.836-35.516s-68.094,10.269-65.843-23.785C4449.344,5911.166,4478.138,5915.323,4489.992,5901.644Z" transform="translate(-4350.574 -5707.533)"/><path class="n" d="M4400.423,5886.724s-15.934,3.654-13.773,24.512c0,0-.272,30.982,3.715,54.273,0,0-13.406,11.865-18.634,16.938s-12.908,11.865-22.19,25.448c0,0-.552,3.873,8.411,6.14l42.665-32.009s8.838-4.9,10.109-13.809,21.642-73.944,21.642-73.944S4398.765,5902.492,4400.423,5886.724Z" transform="translate(-4292.867 -5698.902)"/><path class="m" d="M4540.535,5670.327l-2.216,8.5s14.948,3.206,15.745,4.558l.029-8.672S4549.92,5676.358,4540.535,5670.327Z" transform="translate(-4402.078 -5573.721)"/><path class="m" d="M4530.716,5619.313c-9.208-12.527,9.7-28.452,19.856-15.876,1.668,2.064,3.9,8.761,5.787,11.53.811,1.19,1.013,2.863-1.868,3.137,0,0,3.628,8.74-3.457,13.183-6.646,4.167-9.156,3.727-17.618-1.666,0,0,.825-2.308-1.684-5.017,0,0-6.367-1.232-5.314-5.314S4530.716,5619.313,4530.716,5619.313Z" transform="translate(-4395.125 -5532.371)"/><path class="i" d="M4541.183,5671.855s4.207,4.144,13.091,4.335c0,0-8.563,3.079-14.548,1.247Z" transform="translate(-4402.891 -5574.604)"/><path class="o" d="M4480.979,5690.495s-12.413,1.783-17.068,29.761c0,0-7.347,38.639-24.26,64.793,0,0-2.255,5.437,3.281,6.914,0,0,27.584,2.892,41.3-11.205a157.228,157.228,0,0,0,7.968-23.607s2.421-14.562,8.243-18.06c0,0,11.415,7.318,44.762,3.478,0,0-4.577-10.936-7.661-16.6a58.905,58.905,0,0,1-8.062,1.472l-26.857-15.823s-2.208-12.309-5.9-16.564C4496.723,5695.052,4492.2,5692.455,4480.979,5690.495Z" transform="translate(-4344.736 -5585.387)"/><path class="h" d="M4584.5,5654.986s1.687,3,4.362.294" transform="translate(-4428.793 -5564.847)"/><circle class="g" cx="1.322" cy="1.322" r="1.322" transform="translate(151.246 79.348)"/><path class="g" d="M4571.39,5622.324a5.789,5.789,0,0,1,2.038-.364s.692-.482-.136-.984a3.087,3.087,0,0,0-2.189.838S4570.933,5622.471,4571.39,5622.324Z" transform="translate(-4421.023 -5545.171)"/><path d="M4537.487,5585.291s-8.188,37.062-17.336,40.492c-7.239,2.714-7.277-24.546-7.329-26.1-.033-.968,7.568,5.83,7.568,5.83s-10.784-9.873.454-21S4537.487,5585.291,4537.487,5585.291Z" transform="translate(-4387.328 -5521.331)"/><g transform="translate(130.891 257.196)"><rect class="c" width="6.903" height="10.439" transform="translate(11.836 5.899) rotate(-58.702)"/><path class="d" d="M4553.222,6094.167l-24.17-14.694s5.564-13.366,10.392-14.175l8.92,5.423s.369,11.062-.332,12.213C4548.032,6082.933,4555.264,6090.483,4553.222,6094.167Z" transform="translate(-4527.607 -6059.399)"/><path class="p" d="M4551.288,6113.889s1.638,2.712-1.316,2.163c-4.768-.886-24.07-14.315-24.07-14.315s-1.145-2.166,1.215-2.542Z" transform="translate(-4525.625 -6079.007)"/></g><g transform="translate(36.219 306.737)"><rect class="c" width="7.837" height="11.851" transform="matrix(0.675, -0.738, 0.738, 0.675, 16.681, 5.782)"/><path class="d" d="M4329.447,6217.731l-23.692-21.677s9.134-13.665,14.688-13.505l8.743,8s-2.02,12.4-3.052,13.529C4326.135,6204.078,4332.531,6214.077,4329.447,6217.731Z" transform="translate(-4303.762 -6176.767)"/><path class="p" d="M4326.741,6236.587s1.229,3.381-1.94,2.121c-5.116-2.034-23.665-21.233-23.665-21.233s-.8-2.664,1.913-2.565Z" transform="translate(-4301.026 -6195.486)"/></g></svg>