<svg xmlns="http://www.w3.org/2000/svg" width="381" height="381" viewBox="0 0 381 381"><defs><style>.a{fill:#4fb9b9;}.b{fill:#a1d8d8;}.c,.e,.g{fill:none;}.c{stroke:#fff;stroke-linecap:round;stroke-linejoin:round;}.d{fill:#8cc63f;}.e{stroke:#8cc63f;}.e,.g{stroke-miterlimit:10;}.f{fill:#eaa89b;}.g{stroke:#eaa89b;}.h{fill:#5dbc58;}.i{fill:#f58f70;}.j{fill:#ede139;}.k,.n{fill:#fff;}.l{fill:#f1f2f2;}.m{fill:#adcb4f;}.n{font-size:24px;font-family:Poppins-Light, Poppins;font-weight:300;}</style></defs><rect class="a" width="381" height="381" rx="60"/><g transform="translate(42 42.612)"><path class="b" d="M2866.714,2720.96l-10.626,6.261-5.315-17.064a64.844,64.844,0,0,0-20.095-7.554s-19.586-3.419-27.107,10.33c0,0-10.152,13.291-.017,27.712,0,0,24.34,45.217,120.649,57.81l4.1-6.214S2900.192,2747.443,2866.714,2720.96Z" transform="translate(-2785.266 -2641.128)"/><path class="c" d="M2814.473,2721.871s34.363,40.9,110.517,71.553" transform="translate(-2787.192 -2643.581)"/><path class="c" d="M2809.721,2740.02a48.144,48.144,0,0,0,24.148,3.018" transform="translate(-2786.598 -2645.848)"/><path class="c" d="M2836.91,2759.85a48.147,48.147,0,0,0,24.147,3.019" transform="translate(-2789.995 -2648.324)"/><path class="c" d="M2867.055,2778.448a48.143,48.143,0,0,0,24.147,3.018" transform="translate(-2793.759 -2650.647)"/><g transform="translate(68.256)"><path class="d" d="M2878.587,2681.313a42.411,42.411,0,0,1,9.191,18.446A39.124,39.124,0,0,1,2861.3,2670.1,42.413,42.413,0,0,1,2878.587,2681.313Z" transform="translate(-2861.296 -2637.115)"/><path class="d" d="M2886.734,2651.25a42.408,42.408,0,0,1-2.38,20.471,39.118,39.118,0,0,1-5.972-39.312A42.4,42.4,0,0,1,2886.734,2651.25Z" transform="translate(-2863.083 -2632.409)"/><path class="d" d="M2887.2,2715.674a42.412,42.412,0,0,1,12.829,16.13,39.122,39.122,0,0,1-32.075-23.5A42.4,42.4,0,0,1,2887.2,2715.674Z" transform="translate(-2862.127 -2641.887)"/><path class="d" d="M2895.646,2747.84a42.409,42.409,0,0,1,16.7,12.081,39.126,39.126,0,0,1-37.218-14A42.405,42.405,0,0,1,2895.646,2747.84Z" transform="translate(-2863.023 -2646.523)"/><path class="d" d="M2895.733,2686.677a42.4,42.4,0,0,0-1.247,20.572,39.125,39.125,0,0,0,12.775-37.656A42.4,42.4,0,0,0,2895.733,2686.677Z" transform="translate(-2865.35 -2637.052)"/><path class="d" d="M2906.809,2715.765a42.412,42.412,0,0,0-.444,20.6,39.123,39.123,0,0,0,11.3-38.124A42.407,42.407,0,0,0,2906.809,2715.765Z" transform="translate(-2866.791 -2640.631)"/><path class="d" d="M2921.048,2745.1a42.405,42.405,0,0,0,1.827,20.528,39.126,39.126,0,0,0,7.032-39.138A42.408,42.408,0,0,0,2921.048,2745.1Z" transform="translate(-2868.688 -2644.159)"/><path class="e" d="M2884.959,2674.91s6.146,43.115,39.839,94.906" transform="translate(-2864.251 -2637.717)"/></g><g transform="translate(0 119.453)"><path class="f" d="M2829.7,2793.489a42.651,42.651,0,0,0,20.559,2.649,39.347,39.347,0,0,0-36.92-15.379A42.646,42.646,0,0,0,2829.7,2793.489Z" transform="translate(-2787.051 -2770.352)"/><path class="f" d="M2803.958,2810.193a42.651,42.651,0,0,0,18.667-9.014,39.35,39.35,0,0,0-39.325,7.292A42.657,42.657,0,0,0,2803.958,2810.193Z" transform="translate(-2783.299 -2772.649)"/><path class="f" d="M2865.195,2790.378a42.653,42.653,0,0,0,19.558,6.869,39.353,39.353,0,0,0-32.911-22.725A42.641,42.641,0,0,0,2865.195,2790.378Z" transform="translate(-2791.859 -2769.61)"/><path class="f" d="M2898.611,2787.774a42.659,42.659,0,0,0,16.987,11.881,39.353,39.353,0,0,0-25.579-30.746A42.661,42.661,0,0,0,2898.611,2787.774Z" transform="translate(-2796.626 -2768.909)"/><path class="f" d="M2841.093,2806.379a42.647,42.647,0,0,1,19.136-7.969,39.353,39.353,0,0,1-31.567,24.559A42.658,42.658,0,0,1,2841.093,2806.379Z" transform="translate(-2788.964 -2772.593)"/><path class="f" d="M2872.331,2807.335a42.657,42.657,0,0,1,19.433-7.219,39.355,39.355,0,0,1-32.5,23.312A42.663,42.663,0,0,1,2872.331,2807.335Z" transform="translate(-2792.786 -2772.806)"/><path class="f" d="M2904.768,2811.318a42.655,42.655,0,0,1,20.109-5.035,39.351,39.351,0,0,1-34.869,19.591A42.648,42.648,0,0,1,2904.768,2811.318Z" transform="translate(-2796.625 -2773.576)"/><path class="g" d="M2825.723,2801.362s42.994-8.38,103.32,6.553" transform="translate(-2788.597 -2772.669)"/></g><path class="h" d="M3044.138,2658.721c-3.607-2.639-10.721-9.34-17.458,3.837-2.961,5.791-4.4,14.692-7.651,24.863-4.306,13.457-10.19,32.743-32.549,46.2,0,0-10.311,6.591-36.137,15.6l19.37,52.448s19.028-4.979,35.5-7.8c12.346-2.117,27.281-3.555,48.342,13.166,17.549,13.933,31.959,27.444,43.169,14.609C3109.115,2807.445,3066.755,2675.267,3044.138,2658.721Z" transform="translate(-2804.16 -2635.188)"/><path class="i" d="M2976.329,2829.138l19.717,59.432a18.739,18.739,0,0,1-4.94,3.287c-2.72,1.155-9.81,3.731-13.489,4.258,0,0-6.232,2.447-7.565-3.268l-20.27-55.746Z" transform="translate(-2804.09 -2656.978)"/><rect class="j" width="35.638" height="15.529" rx="7.764" transform="matrix(0.954, -0.301, 0.301, 0.954, 139.54, 171.631)"/><path class="h" d="M2923.922,2770.95a27.514,27.514,0,1,0,16.469,52.506Z" transform="translate(-2798.452 -2649.71)"/><path class="j" d="M2982.648,2810.449l-39.569,11.081-16.509-52.493,38.377-13.275Z" transform="translate(-2801.192 -2647.814)"/><path class="k" d="M2998.387,2807.341l-14.37,3.324-16.916-55.118,13.871-6.336Z" transform="translate(-2806.253 -2646.996)"/><ellipse class="l" cx="15.64" cy="83.117" rx="15.64" ry="83.117" transform="translate(216.174 31.389) rotate(-18.043)"/><path class="i" d="M3062.776,2738.938a16.377,16.377,0,0,0-7.286,4.81l8.757,26.883a16.453,16.453,0,1,0-1.47-31.692Z" transform="translate(-2817.291 -2645.611)"/><path class="m" d="M3026.589,2677.937s2.587,93.135,52.917,148.238c0,0-1.628.5-22.082-15.854-6.849-5.475-17.523-13.438-31.841-14.648,0,0-7.521-.771-25.216,2.766l-17.415-58.13s15.94-6.33,26.288-20.763C3016.842,2708.945,3016.454,2708.046,3026.589,2677.937Z" transform="translate(-2808.232 -2638.095)"/></g><text class="n" transform="translate(128 342)"><tspan x="0" y="0">Audacious</tspan></text></svg>