<svg id="Group_7726" data-name="Group 7726" xmlns="http://www.w3.org/2000/svg" width="226" height="182.118" viewBox="0 0 226 182.118">
  <path id="Path_7574" data-name="Path 7574" d="M2850.469,2716.462l-8.075,4.758-4.039-12.967a49.271,49.271,0,0,0-15.27-5.74s-14.884-2.6-20.6,7.85c0,0-7.715,10.1-.013,21.058,0,0,18.5,34.361,91.682,43.93l3.113-4.722S2875.909,2736.587,2850.469,2716.462Z" transform="translate(-2788.576 -2655.798)" fill="#a1d8d8"/>
  <path id="Path_7575" data-name="Path 7575" d="M2814.473,2721.871s26.113,31.082,83.983,54.373" transform="translate(-2793.742 -2662.378)" fill="none" stroke="#fff" stroke-linecap="round" stroke-linejoin="round" stroke-width="1"/>
  <path id="Path_7576" data-name="Path 7576" d="M2809.721,2740.02a36.586,36.586,0,0,0,18.351,2.293" transform="translate(-2792.15 -2668.458)" fill="none" stroke="#fff" stroke-linecap="round" stroke-linejoin="round" stroke-width="1"/>
  <path id="Path_7577" data-name="Path 7577" d="M2836.91,2759.85a36.586,36.586,0,0,0,18.35,2.294" transform="translate(-2801.259 -2675.1)" fill="none" stroke="#fff" stroke-linecap="round" stroke-linejoin="round" stroke-width="1"/>
  <path id="Path_7578" data-name="Path 7578" d="M2867.054,2778.448a36.586,36.586,0,0,0,18.35,2.293" transform="translate(-2811.356 -2681.331)" fill="none" stroke="#fff" stroke-linecap="round" stroke-linejoin="round" stroke-width="1"/>
  <g id="Group_7724" data-name="Group 7724" transform="translate(51.869)">
    <path id="Path_7579" data-name="Path 7579" d="M2874.435,2678.619a32.227,32.227,0,0,1,6.985,14.018A29.73,29.73,0,0,1,2861.3,2670.1,32.232,32.232,0,0,1,2874.435,2678.619Z" transform="translate(-2861.296 -2645.033)" fill="#8cc63f"/>
    <path id="Path_7580" data-name="Path 7580" d="M2884.062,2646.726a32.22,32.22,0,0,1-1.809,15.556,29.727,29.727,0,0,1-4.538-29.874A32.22,32.22,0,0,1,2884.062,2646.726Z" transform="translate(-2866.089 -2632.409)" fill="#8cc63f"/>
    <path id="Path_7581" data-name="Path 7581" d="M2882.576,2713.9a32.23,32.23,0,0,1,9.749,12.257,29.727,29.727,0,0,1-24.374-17.86A32.225,32.225,0,0,1,2882.576,2713.9Z" transform="translate(-2863.526 -2657.832)" fill="#8cc63f"/>
    <path id="Path_7582" data-name="Path 7582" d="M2890.719,2747.261a32.221,32.221,0,0,1,12.688,9.181,29.732,29.732,0,0,1-28.282-10.639A32.222,32.222,0,0,1,2890.719,2747.261Z" transform="translate(-2865.929 -2670.27)" fill="#8cc63f"/>
    <path id="Path_7583" data-name="Path 7583" d="M2895.26,2682.575a32.217,32.217,0,0,0-.948,15.633,29.733,29.733,0,0,0,9.708-28.615A32.218,32.218,0,0,0,2895.26,2682.575Z" transform="translate(-2872.171 -2644.865)" fill="#8cc63f"/>
    <path id="Path_7584" data-name="Path 7584" d="M2906.446,2711.558a32.229,32.229,0,0,0-.338,15.657,29.73,29.73,0,0,0,8.586-28.971A32.222,32.222,0,0,0,2906.446,2711.558Z" transform="translate(-2876.036 -2654.463)" fill="#8cc63f"/>
    <path id="Path_7585" data-name="Path 7585" d="M2920.915,2740.637a32.228,32.228,0,0,0,1.388,15.6,29.733,29.733,0,0,0,5.344-29.741A32.226,32.226,0,0,0,2920.915,2740.637Z" transform="translate(-2881.126 -2663.927)" fill="#8cc63f"/>
    <path id="Path_7586" data-name="Path 7586" d="M2884.959,2674.91s4.67,32.763,30.274,72.12" transform="translate(-2869.223 -2646.646)" fill="none" stroke="#8cc63f" stroke-miterlimit="10" stroke-width="1"/>
  </g>
  <g id="Group_7725" data-name="Group 7725" transform="translate(0 90.774)">
    <path id="Path_7587" data-name="Path 7587" d="M2825.776,2790.363a32.417,32.417,0,0,0,15.623,2.012,29.9,29.9,0,0,0-28.056-11.687A32.4,32.4,0,0,0,2825.776,2790.363Z" transform="translate(-2793.364 -2772.78)" fill="#eaa89b"/>
    <path id="Path_7588" data-name="Path 7588" d="M2799,2807.472a32.408,32.408,0,0,0,14.185-6.85,29.9,29.9,0,0,0-29.883,5.541A32.409,32.409,0,0,0,2799,2807.472Z" transform="translate(-2783.299 -2778.942)" fill="#eaa89b"/>
    <path id="Path_7589" data-name="Path 7589" d="M2861.989,2786.572a32.414,32.414,0,0,0,14.862,5.22,29.905,29.905,0,0,0-25.01-17.269A32.406,32.406,0,0,0,2861.989,2786.572Z" transform="translate(-2806.26 -2770.789)" fill="#eaa89b"/>
    <path id="Path_7590" data-name="Path 7590" d="M2896.548,2783.244a32.424,32.424,0,0,0,12.909,9.029,29.906,29.906,0,0,0-19.438-23.364A32.421,32.421,0,0,0,2896.548,2783.244Z" transform="translate(-2819.049 -2768.909)" fill="#eaa89b"/>
    <path id="Path_7591" data-name="Path 7591" d="M2838.109,2804.466a32.406,32.406,0,0,1,14.542-6.056,29.9,29.9,0,0,1-23.988,18.663A32.419,32.419,0,0,1,2838.109,2804.466Z" transform="translate(-2798.495 -2778.792)" fill="#eaa89b"/>
    <path id="Path_7592" data-name="Path 7592" d="M2869.194,2805.6a32.407,32.407,0,0,1,14.767-5.486,29.906,29.906,0,0,1-24.7,17.715A32.418,32.418,0,0,1,2869.194,2805.6Z" transform="translate(-2808.746 -2779.363)" fill="#eaa89b"/>
    <path id="Path_7593" data-name="Path 7593" d="M2901.224,2810.108a32.414,32.414,0,0,1,15.281-3.826,29.9,29.9,0,0,1-26.5,14.887A32.409,32.409,0,0,1,2901.224,2810.108Z" transform="translate(-2819.045 -2781.427)" fill="#eaa89b"/>
    <path id="Path_7594" data-name="Path 7594" d="M2825.723,2800.8s32.671-6.367,78.514,4.979" transform="translate(-2797.511 -2778.995)" fill="none" stroke="#eaa89b" stroke-miterlimit="10" stroke-width="1"/>
  </g>
  <path id="Path_7595" data-name="Path 7595" d="M3021.618,2657.747c-2.741-2.005-8.147-7.1-13.267,2.916-2.25,4.4-3.341,11.165-5.814,18.893-3.272,10.226-7.743,24.881-24.734,35.105,0,0-7.835,5.009-27.46,11.853l14.719,39.855s14.459-3.783,26.975-5.929c9.382-1.609,20.731-2.7,36.736,10.005,13.335,10.587,24.286,20.855,32.8,11.1C3071,2770.764,3038.805,2670.32,3021.618,2657.747Z" transform="translate(-2839.257 -2639.864)" fill="#5dbc58"/>
  <path id="Path_7596" data-name="Path 7596" d="M2969.955,2829.138l14.983,45.163a14.235,14.235,0,0,1-3.754,2.5,57.144,57.144,0,0,1-10.25,3.235s-4.736,1.859-5.749-2.484l-15.4-42.362Z" transform="translate(-2839.069 -2698.311)" fill="#f58f70"/>
  <rect id="Rectangle_434" data-name="Rectangle 434" width="27.081" height="11.8" rx="5.9" transform="matrix(0.954, -0.301, 0.301, 0.954, 106.038, 130.424)" fill="#ede139"/>
  <path id="Path_7597" data-name="Path 7597" d="M2919.291,2770.95a20.908,20.908,0,1,0,12.514,39.9Z" transform="translate(-2823.945 -2678.819)" fill="#5dbc58"/>
  <path id="Path_7598" data-name="Path 7598" d="M2969.185,2797.32l-30.069,8.42-12.545-39.89,29.164-10.088Z" transform="translate(-2831.294 -2673.731)" fill="#ede139"/>
  <path id="Path_7599" data-name="Path 7599" d="M2990.876,2793.385l-10.92,2.526-12.854-41.885,10.541-4.815Z" transform="translate(-2844.871 -2671.536)" fill="#fff"/>
  <ellipse id="Ellipse_103" data-name="Ellipse 103" cx="11.885" cy="63.162" rx="11.885" ry="63.162" transform="translate(164.273 23.853) rotate(-18.043)" fill="#f1f2f2"/>
  <path id="Path_7600" data-name="Path 7600" d="M3061.027,2738.743a12.441,12.441,0,0,0-5.537,3.655l6.654,20.429a12.5,12.5,0,1,0-1.117-24.084Z" transform="translate(-2874.48 -2667.823)" fill="#f58f70"/>
  <path id="Path_7601" data-name="Path 7601" d="M3016.112,2677.937s1.966,70.774,40.213,112.647c0,0-1.238.378-16.781-12.047-5.2-4.16-13.316-10.212-24.2-11.131,0,0-5.715-.586-19.162,2.1l-13.233-44.175s12.113-4.81,19.977-15.777C3008.705,2701.5,3008.41,2700.817,3016.112,2677.937Z" transform="translate(-2850.181 -2647.66)" fill="#adcb4f"/>
</svg>
