<svg xmlns="http://www.w3.org/2000/svg" width="343.86" height="347.19" viewBox="0 0 343.86 347.19"><defs><style>.a{fill:#ede139;}.b{fill:#fff;}</style></defs><path class="a" d="M3272.886,6934.263v347.19a173.595,173.595,0,0,0,0-347.19Z" transform="translate(-3102.621 -6934.263)"/><path class="b" d="M3439.026,7105.749c-13.146-57.694-51.121-92.018-51.121-92.018-17.893-16.067-27.387-8.033-27.387-8.033-7.668,5.842-17.594,5.111-17.594,5.111-8.83,6.573,10.656,9.494,10.656,9.494,14.241,10.955,13.51-2.556,13.51-2.556,4.748.73,6.938-2.191,6.938-2.191-1.46,4.747,4.382,10.086,4.382,10.086,2.556,10.816-16.8,1.623-16.8,1.623-10.59-4.357-10.224,1.436-10.224,1.436-6.938-5.842-33.047,8.033-33.047,8.033l11.137,12.78-22.274-1.826c-2.92,24.465,9.494,18.988,9.494,18.988l-1.1,5.478c-9.129,2.556-10.224,15.336-10.224,15.336-16.432,6.938-25.926,30.308-15.7,55.5s40.532,16.8,40.532,16.8c18.258-8.033,16.8.73,16.8.73,14.607-2.921,13.876,6.573,13.876,6.573s-6.572,1.825.365,14.971,6.208,23.37,6.208,23.37c-12.416,10.955,3.651,51.852,3.651,51.852,10.955,2.556,36.515-30.308,36.515-30.308,2.191-12.78,7.3-16.431,7.3-16.431,9.859-6.208,5.477-17.162,5.477-17.162-2.921-16.8,8.764-30.308,8.764-30.308,11.685-7.668,6.572-23.735,6.572-23.735-8.4,13.145-27.021-43.454-27.021-43.454,11.32,9.129,20.449,37.611,20.449,37.611l8.4-2.191C3444.5,7125.833,3439.026,7105.749,3439.026,7105.749Zm-21.544-34.324c-3.651,2.009-10.041-4.017-17.527-3.651s1.46,8.033,1.46,8.033c10.407-1.1,11.685,4.838,11.685,4.838v9.951c-5.112,6.39-11.137-3.1-21.362-7.486s-7.668,4.929-7.668,4.929c-5.112,2.557-21.909-6.755-21.909-6.755-.73-14.972-16.615-12.6-16.615-12.6l-22.274,2.008c-9.312-1.644,14.788-16.067,14.788-16.067,10.955-8.581,21.728,2.921,29.4,6.938s6.938.548,6.938.548c-17.528-11.5-13.511-14.241-13.511-14.241,9.312-2.739,25.013,22.64,25.013,22.64,6.39,4.929-.73-8.581-.73-8.581,13.328,4.382,16.067-10.042,16.067-10.042C3410.727,7050.793,3421.133,7069.416,3417.481,7071.424Z" transform="translate(-3106.199 -6954.043)"/><g transform="translate(0 65.199)"><path class="a" d="M3034.786,7275.651c6.757,22.8,32.217,39.747,62.6,39.747s55.84-16.951,62.6-39.747Z" transform="translate(-3034.786 -7096.726)"/><rect class="a" width="125.196" height="8.399" transform="translate(0 167.241)"/><rect class="a" width="7.668" height="119.771" transform="translate(58.672 47.47)"/><path class="a" d="M3186.98,7210.493l-8.508.451-48.923-120.086,7.1-2.893Z" transform="translate(-3061.784 -7043.253)"/><path class="a" d="M3034.786,7210.493l8.508.451,48.923-120.086-7.1-2.893Z" transform="translate(-3034.786 -7043.253)"/><circle class="a" cx="25.743" cy="25.743" r="25.743" transform="translate(36.763)"/><rect class="a" width="91.912" height="30.125" transform="translate(78.352 10.681)"/></g></svg>