<svg xmlns="http://www.w3.org/2000/svg" width="290.121" height="306.974" viewBox="0 0 290.121 306.974"><defs><style>.a{fill:#c5ad31;}.b{fill:none;stroke:#6b5343;stroke-miterlimit:10;stroke-width:4px;}.c{fill:#fff;}</style></defs><g transform="translate(2.07 2.074)"><path class="a" d="M-906.394,2354.3s-4.887-26.393,23.46-15.641l21.5,6.532s10.264,5.2,16.617-3.6l18.573-22.97s10.728-17.106,24.425,0l16.142,21.993s9.286,10.264,19.061,3.91l26.881-7.331s13.685-3.91,15.64,12.219v27.37s-1.466,15.151,10.264,16.617l29.814,11.242s12.707,6.353,7.82,17.105l-18.084,25.416s-7.332,10.752-.488,19.55l15.64,23.46s10.263,11.73-4.4,20.528l-23.949,8.8s-18.083,2.932-14.662,19.55l-1.466,24.926s0,18.084-20.039,13.686l-22.971-6.842s-13.376-9.374-24.283,7.532l-15.794,19.348s-8.8,12.708-19.55,0l-18.084-21.016s-3.91-11.241-17.595-6.842l-26.881,7.82s-17.26,4.887-17.916-10.753v-27.858s.321-14.662-10.92-17.106l-25.9-9.775s-18.083-3.421-9.286-21.5l16.128-22.971s12.219-7.82-2.443-26.392l-12.707-19.062s-10.264-12.707,6.353-18.084l24.926-9.286s15.64-.978,13.2-17.6Z" transform="translate(963.126 -2298.44)"/><path class="b" d="M-917.684,2336.3s-4.888-26.393,23.46-15.64l21.5,6.532s10.264,5.2,16.617-3.6l18.573-22.971s10.728-17.106,24.425,0l16.141,21.994s9.286,10.263,19.061,3.91l26.881-7.332s13.685-3.91,15.64,12.219v27.37s-1.466,15.152,10.264,16.618l29.814,11.241s12.707,6.354,7.82,17.106l-18.084,25.415s-7.331,10.753-.488,19.55l15.64,23.46s10.263,11.73-4.4,20.528l-23.948,8.8s-18.084,2.932-14.663,19.55l-1.466,24.926s0,18.083-20.039,13.685l-22.971-6.842s-13.376-9.373-24.283,7.532l-15.794,19.349s-8.8,12.708-19.55,0l-18.084-21.016s-3.91-11.242-17.595-6.843l-26.881,7.82s-17.26,4.887-17.916-10.752v-27.859s.321-14.662-10.92-17.106l-25.9-9.775s-18.083-3.422-9.286-21.5l16.128-22.971s12.219-7.82-2.443-26.392l-12.707-19.061s-10.264-12.708,6.353-18.084l24.926-9.286s15.64-.978,13.2-17.595Z" transform="translate(966.528 -2293.018)"/><path class="c" d="M-868.793,2494.06h0a15.693,15.693,0,0,0,0,22.193l41.934,41.933a17.625,17.625,0,0,0,24.926,0l76.734-76.734a17.626,17.626,0,0,0,0-24.926h0a17.625,17.625,0,0,0-24.926,0L-816.6,2523l-30.206-29.134A15.693,15.693,0,0,0-868.793,2494.06Z" transform="translate(938.466 -2340.726)"/><path class="b" d="M-873.575,2482.765h0a15.692,15.692,0,0,0,0,22.192l41.933,41.932a17.625,17.625,0,0,0,24.926,0l76.733-76.732a17.627,17.627,0,0,0,0-24.927h0a17.626,17.626,0,0,0-24.926,0l-66.469,66.47-30.207-29.135A15.692,15.692,0,0,0-873.575,2482.765Z" transform="translate(939.907 -2337.323)"/></g></svg>