<svg xmlns="http://www.w3.org/2000/svg" width="213.222" height="247.006" viewBox="0 0 213.222 247.006"><defs><style>.a{fill:#a1d8d8;stroke:#231f20;stroke-linecap:round;stroke-linejoin:round;}.b{fill:#ffe815;}</style></defs><g transform="translate(24256.741 -20781.839)"><g transform="translate(-24255.787 20919.721)"><path class="a" d="M1707.776,3996.581l-26.419-12.474-26.419,13.859,26.679,13.456Z" transform="translate(-1654.937 -3984.108)"/><path class="a" d="M1681.811,4017.989l-26.874-13.456V4034.5l26.874,15.072Z" transform="translate(-1654.937 -3990.674)"/><path class="a" d="M1720.293,4034.541l-25.965,14.379-.454-31.587,26.419-14.842Z" transform="translate(-1667.454 -3990.017)"/></g><rect class="b" width="5.728" height="47.122" rx="2.864" transform="translate(-24232.23 20886.805)"/><path class="a" d="M1824.3,3922.794l-26.419-12.473-26.419,13.859,26.679,13.456Z" transform="translate(-25948.182 16959.334)"/><path class="a" d="M1798.333,3944.2l-26.874-13.456v29.971l26.874,15.072Z" transform="translate(-25948.182 16952.766)"/><path class="a" d="M1836.814,3960.753l-25.965,14.379-.454-31.587,26.419-14.842Z" transform="translate(-25960.697 16953.424)"/><rect class="b" width="5.728" height="59.942" rx="2.864" transform="translate(-24152.713 20827.902)"/><rect class="b" width="5.728" height="62.332" rx="2.864" transform="translate(-24162.867 20903.023) rotate(60)"/><rect class="b" width="5.728" height="62.332" rx="2.864" transform="translate(-24220.059 20958.943) rotate(-55.073)"/><rect class="b" width="5.728" height="62.332" rx="2.864" transform="translate(-24139.771 20907.986) rotate(-60)"/><g transform="translate(-24096.857 20919.721)"><path class="a" d="M1942,3996.581l-26.419-12.474-26.419,13.859,26.679,13.456Z" transform="translate(-1889.161 -3984.108)"/><path class="a" d="M1916.035,4017.989l-26.874-13.456V4034.5l26.874,15.072Z" transform="translate(-1889.161 -3990.674)"/><path class="a" d="M1954.516,4034.541l-25.965,14.379-.455-31.587,26.419-14.842Z" transform="translate(-1901.677 -3990.017)"/></g><rect class="b" width="5.728" height="51.799" rx="2.864" transform="translate(-24072.846 20882.127)"/><path class="a" d="M1824.3,3794.113l-26.419-12.474-26.419,13.859,26.679,13.456Z" transform="translate(-25948.182 17000.699)"/><path class="a" d="M1798.333,3815.521l-26.874-13.456v29.971l26.874,15.072Z" transform="translate(-25948.182 16994.135)"/><path class="a" d="M1836.814,3832.073l-25.965,14.379-.454-31.587,26.419-14.842Z" transform="translate(-25960.697 16994.789)"/><rect class="b" width="5.728" height="62.332" rx="2.864" transform="translate(-24162.373 20816.979) rotate(60)"/><rect class="b" width="5.728" height="62.332" rx="2.864" transform="translate(-24139.277 20821.939) rotate(-60)"/><path class="a" d="M1942,3861.262l-26.419-12.474-26.419,13.86,26.679,13.456Z" transform="translate(-25986.02 16979.113)"/><path class="a" d="M1916.035,3882.67l-26.874-13.456v29.971l26.874,15.072Z" transform="translate(-25986.02 16972.547)"/><path class="a" d="M1954.516,3899.221l-25.965,14.379-.455-31.587,26.419-14.842Z" transform="translate(-25998.535 16973.203)"/><rect class="b" width="5.728" height="62.332" rx="2.864" transform="translate(-24084.16 20951.377) rotate(60)"/><path class="a" d="M1824.968,4069.858l-26.419-12.473-26.419,13.859,26.678,13.456Z" transform="translate(-25948.396 16912.057)"/><path class="a" d="M1799,4091.266l-26.874-13.456v29.971L1799,4122.853Z" transform="translate(-25948.396 16905.49)"/><path class="a" d="M1837.484,4107.817l-25.965,14.379-.454-31.587,26.419-14.842Z" transform="translate(-25960.912 16906.148)"/><path class="a" d="M1707.106,3861.262l-26.419-12.474-26.419,13.86,26.679,13.456Z" transform="translate(-25910.508 16979.113)"/><path class="a" d="M1681.141,3882.67l-26.874-13.456v29.971l26.874,15.072Z" transform="translate(-25910.508 16972.547)"/><path class="a" d="M1719.623,3899.221l-25.965,14.379-.454-31.587,26.419-14.842Z" transform="translate(-25923.025 16973.203)"/></g></svg>