<svg xmlns="http://www.w3.org/2000/svg" width="533.525" height="312.596" viewBox="0 0 533.525 312.596"><defs><style>.a{fill:#bdc0c7;}.b{fill:#f3f3f4;}.c{fill:#6b6e82;}.d{fill:#577885;}.e{fill:#fff;}.f{fill:#eaa89b;}.g{fill:none;stroke:#fb9fa4;stroke-miterlimit:10;}.h{fill:#8cc63f;}.i{fill:#ad9d86;}.j{fill:#c5ad31;}.k{fill:#f4ceb9;}.l{fill:#eff3f6;}.m{fill:#6b5343;}.n{fill:#1e0900;}.o{fill:#d8a132;}.p{fill:#d1c0a1;}</style></defs><g transform="translate(-11075.806 -6650.279)"><path class="a" d="M-1601.178,2846.865s5.352-23.637,36.125-9.366c0,0,15.61-9.04,24.083,2.393,0,0,11.6-6.853,18.286,6.973Z" transform="translate(13082.646 3893.319)"/><path class="b" d="M-1628,2849.714s4.248-18.763,28.676-7.434c0,0,12.391-7.176,19.117,1.9,0,0,9.2-5.44,14.515,5.535Z" transform="translate(13095.993 3890.47)"/><path class="b" d="M-2102.411,2705.1s8.974-39.636,60.577-15.705c0,0,26.175-15.158,40.384,4.012,0,0,19.444-11.491,30.662,11.693Z" transform="translate(13332.084 3968.569)"/><path class="c" d="M-2123.091,2717.3s4.249-18.763,28.676-7.435c0,0,12.391-7.176,19.117,1.9,0,0,9.2-5.439,14.515,5.535Z" transform="translate(13342.376 3956.369)"/><rect class="d" width="151.074" height="205.525" rx="23.005" transform="translate(11285.761 6692.059)"/><rect class="e" width="127.65" height="178.22" transform="translate(11297.471 6703.431)"/><rect class="f" width="62.554" height="21.835" rx="2.301" transform="translate(11330.021 6688.677)"/><path class="f" d="M-1849.311,2729.05a9,9,0,0,0-9,9,9,9,0,0,0,9,9,9,9,0,0,0,9-9A9,9,0,0,0-1849.311,2729.05Zm0,12.859a3.86,3.86,0,0,1-3.86-3.86,3.86,3.86,0,0,1,3.86-3.86,3.86,3.86,0,0,1,3.86,3.86A3.86,3.86,0,0,1-1849.311,2741.909Z" transform="translate(13210.608 3945.01)"/><line class="g" x2="99.732" transform="translate(11311.43 6754.772)"/><line class="g" x2="99.732" transform="translate(11311.43 6765.984)"/><line class="g" x2="99.732" transform="translate(11311.43 6771.591)"/><line class="g" x2="62.182" transform="translate(11348.979 6782.803)"/><line class="g" x2="99.732" transform="translate(11311.43 6794.016)"/><line class="g" x2="99.732" transform="translate(11311.43 6799.622)"/><line class="g" x2="84.017" transform="translate(11327.146 6808.031)"/><line class="g" x2="99.732" transform="translate(11311.43 6813.638)"/><g transform="translate(11236.647 6853.226)"><path class="d" d="M-2007.88,3092.748l12.983,49.177-12.983-5.9-7.475,11.8L-2029.1,3095.5Z" transform="translate(2058.954 -3089.211)"/><path class="d" d="M-2037.455,3089.244l-27.264,69.251-9.244-13.663-14.565,7.7,19.762-66.823Z" transform="translate(2088.528 -3085.707)"/></g><path class="f" d="M-2056.646,2967.74l6.911-3.583a7.853,7.853,0,0,1,10.819,10.1l-3.1,7.142a7.852,7.852,0,0,0,4.83,10.61l7.42,2.354a7.853,7.853,0,0,1,.51,14.789l-7.24,2.86a7.852,7.852,0,0,0-4.087,10.917l3.583,6.911a7.853,7.853,0,0,1-10.1,10.818l-7.142-3.1a7.853,7.853,0,0,0-10.61,4.83l-2.353,7.42a7.853,7.853,0,0,1-14.789.511l-2.86-7.241a7.853,7.853,0,0,0-10.917-4.087l-6.911,3.583a7.853,7.853,0,0,1-10.818-10.1l3.1-7.142a7.852,7.852,0,0,0-4.83-10.61l-7.42-2.354a7.853,7.853,0,0,1-.51-14.789l7.24-2.86a7.852,7.852,0,0,0,4.087-10.917l-3.583-6.912a7.852,7.852,0,0,1,10.1-10.818l7.142,3.1a7.853,7.853,0,0,0,10.61-4.83l2.354-7.421a7.853,7.853,0,0,1,14.789-.51l2.86,7.24A7.853,7.853,0,0,0-2056.646,2967.74Z" transform="translate(13344.883 3834.335)"/><path class="e" d="M-2075.141,3093.32l1.837,1-1.837,1-1,1.836-1-1.836-1.837-1,1.837-1,1-1.837Z" transform="translate(13320.429 3764.645)"/><path class="e" d="M-2000.478,3004.495l1.441.788-1.441.788-.789,1.441-.788-1.441-1.441-.788,1.441-.788.788-1.441Z" transform="translate(13282.859 3808.652)"/><g transform="translate(11248.31 6822.827)"><path class="e" d="M2.392,0h0A2.392,2.392,0,0,1,4.783,2.392V33.9A4.783,4.783,0,0,1,0,38.684H0a0,0,0,0,1,0,0V2.392A2.392,2.392,0,0,1,2.392,0Z" transform="matrix(0.707, 0.707, -0.707, 0.707, 37.352, 0)"/><path class="e" d="M2.392,0h0A2.392,2.392,0,0,1,4.783,2.392v12.65a0,0,0,0,1,0,0H0a0,0,0,0,1,0,0V2.392A2.392,2.392,0,0,1,2.392,0Z" transform="translate(0 17.25) rotate(-45)"/></g><g transform="translate(11118.188 6885.128)"><path class="h" d="M-2262.422,3205.262s-10.8-29.461-35.286-41.632l-.738,1.033s20.062,8.987,35.3,41.033Z" transform="translate(2311.453 -3156.388)"/><path class="h" d="M-2310.594,3156.456s-4.5-9-13.745-6.934c0,0,1.23,8.262,13.008,7.967Z" transform="translate(2324.339 -3149.214)"/><path class="h" d="M-2279.894,3162.081s-3.17-9.143,2.829-12.867c0,0,6.708,7.064-1.367,14.013Z" transform="translate(2302.637 -3149.214)"/><path class="h" d="M-2254.267,3189.144s-1.191-9.6,5.453-11.993c0,0,5.085,8.309-4.263,13.419Z" transform="translate(2289.509 -3163.117)"/><path class="h" d="M-2293.223,3177.945s-10.294-2.034-13.674,4.384c0,0,8.43,5.8,15.084-3.071Z" transform="translate(2315.659 -3163.36)"/><path class="h" d="M-2269.248,3204.148s-10.837-1.972-14.437,4.47c0,0,8.849,5.755,15.915-3.164Z" transform="translate(2304.108 -3176.411)"/></g><g transform="translate(11158.055 6839.992)"><path class="h" d="M-2211.379,3172.986s12.341-41.771-4.888-75.6l-1.677.541s14.928,26.615,5.4,74.94Z" transform="translate(2231.524 -3078.285)"/><path class="h" d="M-2225.2,3078.463s2.43-13.754-9.585-19.1c0,0-5.465,10.226,7.908,19.642Z" transform="translate(2240.454 -3059.362)"/><path class="h" d="M-2203.905,3112.761s4.031-12.814,13.8-12c0,0,1.633,13.425-13.118,14.49Z" transform="translate(2224.538 -3079.945)"/><path class="h" d="M-2197.845,3165.26s6.617-11.69,16-8.857c0,0-1.206,13.47-15.854,11.432Z" transform="translate(2221.522 -3107.434)"/><path class="h" d="M-2226.108,3120.6s-9.793-10.784-18.869-6.427c0,0,4.6,13.443,19.354,9.057Z" transform="translate(2244.978 -3086.123)"/><path class="h" d="M-2221.116,3169.806s-10.448-11.165-19.791-6.962c0,0,5.1,13.737,20.357,9.64Z" transform="translate(2242.952 -3110.389)"/></g><rect class="i" width="533.525" height="19.994" rx="9.997" transform="translate(11075.806 6941.836)"/><g transform="translate(11299.947 6895.315)"><path class="h" d="M-1962.521,3247.122s4.555-14.5,14.192-6.636c0,0,6.482-12.3,18.221-2.338,0,0,8.059-9.629,18.922-3.891,0,0,8.235,4.754,8.936,12.865Z" transform="translate(1962.521 -3200.814)"/><g transform="translate(6.724)"><path class="j" d="M-1922.808,3213.641s-6.166-20.47-13.564-27.621" transform="translate(1942.784 -3177.717)"/><circle class="j" cx="3.206" cy="3.206" r="3.206" transform="translate(1.726 3.206)"/><circle class="j" cx="3.206" cy="3.206" r="3.206" transform="translate(9.988)"/><circle class="j" cx="3.206" cy="3.206" r="3.206" transform="translate(0 17.921)"/><path class="j" d="M-1942.754,3211.276s7.966-1.55,12.368,2.719" transform="translate(1945.96 -3190.149)"/><path class="j" d="M-1923.623,3178.165s-1.455,7.316-.337,13.564" transform="translate(1936.817 -3173.808)"/></g><g transform="translate(23.874 4.387)"><path class="j" d="M-1915,3222.374s6.165-20.469,13.564-27.621" transform="translate(1914.997 -3186.45)"/><circle class="j" cx="3.206" cy="3.206" r="3.206" transform="translate(11.838 3.206)"/><circle class="j" cx="3.206" cy="3.206" r="3.206" transform="translate(3.576)"/><circle class="j" cx="3.206" cy="3.206" r="3.206" transform="translate(13.564 17.921)"/><path class="j" d="M-1893.866,3220.009s-7.965-1.55-12.368,2.719" transform="translate(1910.636 -3198.883)"/><path class="j" d="M-1901.5,3186.9s1.455,7.316.337,13.564" transform="translate(1908.278 -3182.541)"/></g></g><path class="k" d="M-1637.592,3007.513l-6.146-12.677s2.689-14.213-6.915-43.792l10.756-48.787s.384-9.219-6.915-4.226l-9.988,38.415s.384-47.25-3.841-57.238c0,0-8.452-4.61-8.452,5.378,0,0,4.226,36.11,0,40.335,0,0-5.762-37.646-15.75-49.555,0,0-6.531-3.842-5.762,5.378l9.6,30.347,2.3,24.2-21.9-15.366s-4.609-5.378-9.6,0-13.061,13.061-13.061,13.061-4.994,3.624-4.417,8.054l-.047,4.431,8.834,2.3-.288-4.034s-.144-3.169,2.016-4.034l9.076-8.787s3.745-3.169,5.618.432l11.956,9.687s3.169,1.838,3.025,5.007c0,0,7.059,19.736-8.355,22.761,0,0-17-17.575-29.531-9.652,0,0-5.762,6.483.288,7.2a17.675,17.675,0,0,1,13.109,7.49l23.337,25.93s5.618,9.8,13.829,11.092l5.186,10.516Z" transform="translate(13145.684 3872.59)"/><path class="l" d="M-1579.91,3139.209l10.756,18.919-34.285,16.134-8.5-21.176Z" transform="translate(13088.001 3740.894)"/><path class="m" d="M-1563.588,3175.492l3.169-1.393,33.709,64.2h-50.419l-23.625-45.521Z" transform="translate(13082.435 3723.531)"/><g transform="translate(11349.722 6802.556)"><path class="n" d="M-1860.089,2986.082l-.376,1.058-1.585-1.158-1.314-.96c-.121-.088-.085-.189.064-.181l1.625.083,1.96.1Z" transform="translate(1863.437 -2984.84)"/><path class="n" d="M-1569.058,3039.279l1.379-7.586a2.123,2.123,0,0,0-1.536-2.429l-56.916-15.313a1.759,1.759,0,0,0-2.156,1.244l-1.436,5.361a.933.933,0,0,0,.759,1.163h0a.933.933,0,0,0,1.048-.7l1.08-4.417a1.231,1.231,0,0,1,1.527-.893l54.09,15.123a2.137,2.137,0,0,1,1.527,2.44l-1.093,6.008Z" transform="translate(1747.145 -2999.296)"/><ellipse class="n" cx="8.409" cy="5.954" rx="8.409" ry="5.954" transform="translate(168.064 54.768) rotate(-77.247)"/><path class="o" d="M-1575.391,3048.66l-63-15.78-4.073,15.033,62.175,16.881Z" transform="translate(1753.469 -3008.747)"/><path class="o" d="M-1812.5,2989.285l-4.134,13.177,86.557,23.5,4.068-15.014Z" transform="translate(1840.147 -2987.052)"/><path class="p" d="M-1834.623,2986.722l-23.086-1.882-.565,2.173,19.837,12.917,4.12-13.132Z" transform="translate(1860.868 -2984.84)"/><path class="n" d="M-1814.667,2988.74l-4.12,13.131.069.045,1.011.274,4.134-13.177Z" transform="translate(1841.217 -2986.781)"/><path class="n" d="M-1640.263,3032.41l-4.068,15.014.939.255,4.073-15.033Z" transform="translate(1754.399 -3008.514)"/></g><path class="h" d="M-2156.838,3286.834s8.009-15.746,24.953-7.206c0,0,11.4-13.351,32.038-2.538a38.671,38.671,0,0,1,33.269-4.225s14.479,5.163,15.711,13.97Z" transform="translate(13359.17 3675.366)"/><path class="j" d="M-1818.395,3286.841s5.161-17.078,16.079-7.815c0,0,7.345-14.48,20.645-2.754,0,0,9.131-11.339,21.439-4.582,0,0,9.33,5.6,10.124,15.151Z" transform="translate(13190.743 3676.034)"/><path class="m" d="M-2359.75,3238.109s10.229-23.212,31.867-10.622c0,0,14.557-19.68,40.916-3.742,0,0,18.1-15.412,42.49-6.229,0,0,18.491,7.611,20.064,20.593Z" transform="translate(13460.149 3703.377)"/></g></svg>