<svg xmlns="http://www.w3.org/2000/svg" width="104.355" height="102.508" viewBox="0 0 104.355 102.508"><defs><style>.a{fill:#5dbc58;}.b{fill:#5faf42;}.c{fill:#dad800;}</style></defs><g transform="translate(20970.409 -21654.871)"><path class="a" d="M11296.152,6491.951l6.549,6.807-6.549,7.706s-17.723,3.468-24.656,21.705a36.384,36.384,0,0,0,0,28.255l-9.891-2.183-2.312,9.247s-12.328-22.989,2.57-47.134C11261.863,6516.353,11272.266,6496.575,11296.152,6491.951Z" transform="translate(-32224.912 15163.742)"/><path class="b" d="M11452.179,6557.564l-9.175,2.248-3.377-9.533s5.9-17.069-6.392-32.223a36.387,36.387,0,0,0-24.437-14.184l6.853-7.457-6.837-6.642s26.071.878,39.475,25.884C11448.289,6515.657,11460.173,6534.583,11452.179,6557.564Z" transform="translate(-32320.998 15165.098)"/><path class="c" d="M11288.262,6697.114l2.653-9.065,9.942,1.856s11.814,13.658,31.086,10.618a36.384,36.384,0,0,0,24.521-14.038l3.02,9.667,9.173-2.587s-13.825,22.122-42.182,21.188C11326.475,6714.751,11304.143,6715.549,11288.262,6697.114Z" transform="translate(-32245.936 15042.6)"/></g></svg>