<svg xmlns="http://www.w3.org/2000/svg" width="381" height="381" viewBox="0 0 381 381"><defs><style>.a{fill:#145629;}.b{fill:#5dbc58;opacity:0.69;}.c{fill:#eaa89b;opacity:0.74;}.d{opacity:0.75;}.e{fill:#f58f70;}.f{fill:#ffe815;opacity:0.65;}.g{opacity:0.81;}.h{fill:#a1d8d8;}.i{fill:#adcb4f;opacity:0.8;}.j{fill:#6cdaff;}.k{fill:#fff;font-size:24px;font-family:Poppins-Light, Poppins;font-weight:300;}</style></defs><g transform="translate(0.405 -0.271)"><rect class="a" width="381" height="381" rx="60" transform="translate(-0.405 0.271)"/><g transform="translate(49.998 55.809)"><path class="b" d="M2465.8,2702.726s-.93-65.211-5.223-100.34c-1-8.2-17.646-16.321-22.408-18.541,0,0-5.969-2.311-1.253-5.705,0,0,7.253-3.778,21.3,5.649,0,0,3.795,4.354,4.786-1.727s-.855-37.026-3.933-44.354c0,0-.853-6.066,3.82-6.474s5.186,7.393,5.186,7.393l3.241,27.018s-.023,2.6,2.078,2.377,1.843-4.757,1.843-4.757l3.626-33.332s.961-8.51,5.784-7.517,4.148,9.2,4.148,9.2L2484,2567.5s-.786,2.565,1.3,3.011,2.464-3.309,2.464-3.309l7.485-24.023s1.342-10.813,6.334-10.058,1.542,12.662,1.542,12.662l-6.645,23.6s-1.417,3.049.379,3.5,3.471-2.807,3.471-2.807l7.158-12.321s2.646-5.479,6.171-3.723-.817,9.619-.817,9.619l-9.294,17.085s-4.509,26.256-5.3,31.791c-1.666,11.6-2.226,82.134-1.43,91.036Z" transform="translate(-2280.788 -2522.336)"/><path class="c" d="M2544.051,2748.073s8.9-20.346,40.693-24.8c0,0,7.312-.53,3.285-5.828,0,0-6.676-6.57-25.221-.954,0,0-5.616,3.5-4.663-3.5s13.352-40.269,19.18-47.262c0,0,2.967-6.359-2.013-8.372s-8.159,6.358-8.159,6.358l-12.61,28.506s-.848,2.861-3.073,1.907-.424-5.829-.424-5.829l7.206-37.726s1.8-9.643-3.815-10.173-7.63,8.689-7.63,8.689L2540.024,2690s0,3.073-2.437,2.861-1.59-4.451-1.59-4.451l-.142-28.824s2.156-12.292-3.567-13.14-5.934,13.353-5.934,13.353l-.635,28.082s.53,3.815-1.589,3.709-2.861-4.24-2.861-4.24l-3.71-15.9s-1.06-6.888-5.511-6.146-2.33,10.81-2.33,10.81l4.451,21.829s2.013,7.842.636,14.412-.212,25.963-6.783,35.712Z" transform="translate(-2308.456 -2566.892)"/><g class="d" transform="translate(109.944 42.778)"><path class="e" d="M2394.305,2683.655s-2.231-19.259-27.631-31.1c0,0-5.968-2.311-1.252-5.7,0,0,7.252-3.779,21.3,5.649,0,0,3.795,4.354,4.786-1.728s-.855-37.026-3.933-44.353c0,0-.852-6.066,3.82-6.474s5.186,7.392,5.186,7.392l3.241,27.018s-.023,2.6,2.079,2.378,1.843-4.757,1.843-4.757l3.625-33.332s.961-8.51,5.784-7.518,4.148,9.2,4.148,9.2l-4.792,35.877s-.785,2.565,1.3,3.012,2.464-3.309,2.464-3.309l7.485-24.024s1.341-10.812,6.335-10.057,1.542,12.662,1.542,12.662l-6.646,23.6s-1.417,3.049.379,3.5,3.471-2.807,3.471-2.807l7.158-12.321s2.645-5.479,6.17-3.722-.816,9.619-.816,9.619l-9.294,17.084s-2.317,6.322-4.213,11.868c-3.793,11.091-9.039,13.317-8.244,22.219Z" transform="translate(-2363.608 -2591.048)"/><rect class="e" width="25.351" height="45.826" transform="translate(30.697 92.607)"/></g><path class="f" d="M2425.2,2757.215s-2.23-19.258-27.63-31.1c0,0-5.968-2.311-1.253-5.705,0,0,7.252-3.778,21.3,5.649,0,0,3.795,4.354,4.786-1.727s-.855-37.026-3.933-44.353c0,0-.853-6.066,3.82-6.475s5.186,7.393,5.186,7.393l3.242,27.017s-.023,2.6,2.078,2.377,1.843-4.756,1.843-4.756l3.626-33.333s.96-8.51,5.784-7.517,4.148,9.2,4.148,9.2l-4.792,35.877s-.786,2.565,1.3,3.011,2.464-3.31,2.464-3.31l7.485-24.023s1.342-10.812,6.335-10.057,1.542,12.662,1.542,12.662l-6.646,23.6s-1.417,3.049.379,3.5,3.471-2.807,3.471-2.807l7.158-12.321s2.645-5.479,6.171-3.723-.816,9.618-.816,9.618l-9.294,17.085s-2.318,6.323-4.214,11.868c-3.793,11.091-9.039,13.317-8.243,22.218Z" transform="translate(-2265.387 -2576.034)"/><g class="g" transform="translate(89.262 14.023)"><path class="h" d="M2376.572,2657.937s6.6-22.269,39.007-31.015c0,0,7.52-1.5,2.653-6.475,0,0-7.781-5.951-26.3,2.284,0,0-5.375,4.358-5.293-3.023s8.629-43.521,13.768-51.535c0,0,2.254-6.983-3.177-8.426s-7.641,7.658-7.641,7.658l-9.385,31.218s-.508,3.079-2.941,2.378-1.2-5.993-1.2-5.993l2.58-40.083s.618-10.241-5.279-10.062-6.79,10.007-6.79,10.007l-1.728,43.328s.4,3.189-2.158,3.286-2.227-4.412-2.227-4.412l-3.89-29.892s.642-13.036-5.407-13.173-4.424,14.626-4.424,14.626l2.986,29.224s1.045,3.89-1.168,4.055-3.52-4.027-3.52-4.027l-5.912-16.014s-1.995-7.01-6.517-5.663-1.016,11.52-1.016,11.52l7.453,22.075s1.434,7.938,2.531,14.873c2.194,13.871,7.927,17.576,5.157,27.917Z" transform="translate(-2330.305 -2544.86)"/><path class="h" d="M2341.148,2775.8l30.086-.029,9.43-54.083-29.481-7.92Z" transform="translate(-2334.397 -2608.61)"/></g><path class="i" d="M2315.347,2703.936s-3.4-48.626-.416-84.562c.457-5.5,5.069-11.116,5.639-15.778,1-8.2,17.646-16.321,22.408-18.541,0,0,5.968-2.31,1.253-5.7,0,0-7.252-3.778-21.3,5.649,0,0-3.794,4.354-4.785-1.728s.855-37.026,3.933-44.354c0,0,.852-6.066-3.82-6.474s-5.187,7.393-5.187,7.393l-3.242,27.018s.024,2.6-2.078,2.377-1.843-4.757-1.843-4.757l-3.625-33.333s-.96-8.51-5.784-7.517-4.148,9.2-4.148,9.2l4.792,35.877s.786,2.566-1.3,3.011-2.464-3.309-2.464-3.309l-7.485-24.024s-1.341-10.812-6.335-10.057-1.541,12.662-1.541,12.662l6.645,23.6s1.417,3.049-.379,3.5-3.471-2.808-3.471-2.808l-7.158-12.321s-2.645-5.479-6.17-3.721.816,9.618.816,9.618l9.294,17.085s.142,15.012,2.966,22.386c1.18,3.08,5.78,11.692,5.919,13.767,1.313,19.674-1.431,78.622-2.15,86.674Z" transform="translate(-2216.672 -2522.793)"/><path class="j" d="M2231.641,2749.073s-8.9-20.347-40.692-24.8c0,0-7.312-.53-3.285-5.828,0,0,6.676-6.57,25.221-.954,0,0,5.616,3.5,4.663-3.5s-13.352-40.269-19.181-47.262c0,0-2.967-6.359,2.014-8.372s8.159,6.358,8.159,6.358l12.611,28.506s.847,2.861,3.073,1.907.424-5.828.424-5.828l-7.207-37.726s-1.8-9.643,3.815-10.173,7.63,8.689,7.63,8.689l6.782,40.905s0,3.073,2.437,2.86,1.589-4.45,1.589-4.45l.143-28.824s-2.156-12.292,3.566-13.14,5.935,13.352,5.935,13.352l.636,28.082s-.53,3.815,1.589,3.709,2.861-4.239,2.861-4.239l3.709-15.9s1.06-6.888,5.51-6.146,2.332,10.809,2.332,10.809l-4.451,21.829s-2.013,7.842-.635,14.412.211,25.963,6.781,35.712Z" transform="translate(-2186.453 -2567.269)"/></g></g><text class="k" transform="translate(120.999 342.542)"><tspan x="0" y="0">Community</tspan></text></svg>