<svg xmlns="http://www.w3.org/2000/svg" width="96.563" height="102.508" viewBox="0 0 96.563 102.508"><defs><style>.a{fill:#95bf4b;}.b,.c{fill:#dad800;}.c{isolation:isolate;}</style></defs><g transform="translate(20498.904 -21619.48)"><g transform="translate(-20473.607 21655.459)"><rect class="a" width="5.048" height="25.885" rx="2.524" transform="translate(22.491 0)"/><rect class="a" width="5.048" height="31.378" rx="2.524" transform="matrix(-0.526, 0.851, -0.851, -0.526, 51.014, 38.144)"/><rect class="a" width="5.048" height="30.313" rx="2.524" transform="translate(2.68 42.509) rotate(-122.067)"/></g><path class="b" d="M13126.807,7290.277c-14.076-2.75-15.264,7.339-15.348,9.75a2.29,2.29,0,0,1-.27,1.006l-1.172,2.2-2.006-3.748a2.214,2.214,0,0,1-.258-1.093c.338-20.966-19.625-15.548-19.625-15.548-2.707,17.377,13.594,17.356,16.793,17.188a1.168,1.168,0,0,1,1,.469c1.949,2.618,2.055,9.805,1.99,13.149a1.723,1.723,0,0,0,1.727,1.756h0a1.725,1.725,0,0,0,1.725-1.756,22.874,22.874,0,0,1,2.223-10.546,1.04,1.04,0,0,1,.969-.562C13130.545,7303.071,13126.807,7290.277,13126.807,7290.277Zm-30.15-1.473a1.124,1.124,0,0,0-1.473,1.417.57.57,0,0,0,.281.38,24.161,24.161,0,0,1,7.117,5.674s-11.215.9-12.055-10.793c0,0,13.252-2.039,13.492,9.173A22.29,22.29,0,0,0,13096.656,7288.8Zm18.4,10.289s-.479-6.177,8.277-6.417C13123.33,7292.677,13124.348,7299.453,13115.053,7299.093Z" transform="translate(-33558.438 14337.267)"/><path class="b" d="M13043.158,7443.958a13.421,13.421,0,1,0,13.422,13.421A13.423,13.423,0,0,0,13043.158,7443.958Zm0,23.336a9.915,9.915,0,1,1,9.916-9.915A9.914,9.914,0,0,1,13043.158,7467.294Z" transform="translate(-33528.641 14251.188)"/><g transform="translate(-20489.188 21700.434)"><path class="b" d="M13051.186,7470.247v-2a5.757,5.757,0,0,1-3.031-.872l.475-1.328a5.278,5.278,0,0,0,2.854.853c1.407,0,2.358-.812,2.358-1.942,0-1.09-.772-1.764-2.238-2.358-2.022-.792-3.271-1.7-3.271-3.428a3.25,3.25,0,0,1,2.992-3.19v-2h1.229v1.922a5.287,5.287,0,0,1,2.575.693l-.494,1.308a4.8,4.8,0,0,0-2.5-.673c-1.527,0-2.1.911-2.1,1.7,0,1.031.735,1.545,2.458,2.258,2.041.833,3.072,1.863,3.072,3.626a3.448,3.448,0,0,1-3.132,3.369v2.06Z" transform="translate(-13048.154 -7453.979)"/></g><ellipse class="c" cx="7.326" cy="7.326" rx="7.326" ry="7.326" transform="translate(-20419.795 21695.146)"/><path class="b" d="M10971.3,6578.518a10.126,10.126,0,0,0-10.126,10.126h20.251A10.125,10.125,0,0,0,10971.3,6578.518Z" transform="translate(-31383.766 15133.345)"/></g></svg>