<svg xmlns="http://www.w3.org/2000/svg" width="541.52" height="417.648" viewBox="0 0 541.52 417.648"><defs><style>.a{fill:#d5cac9;}.b{fill:#9a673d;}.c{fill:#604021;}.d{fill:#a56931;}.e{fill:#545e28;}.aa,.f,.h,.q,.r,.w,.z{fill:none;}.f{stroke:#545e28;}.f,.r{stroke-linecap:round;stroke-linejoin:round;}.f,.w{stroke-width:0.5px;}.g{fill:#e8ac5d;}.ah,.h,.w{stroke:#39431a;}.aa,.ah,.h,.q,.w,.z{stroke-miterlimit:10;}.aa,.ah,.h,.z{stroke-width:0.25px;}.i{fill:#39431a;}.j{fill:#ca362d;}.k{fill:#a72d27;}.l{fill:#f7b09e;}.m{fill:#cd5016;}.n{fill:#ea916e;}.o{fill:#db8572;}.p{fill:#2b1100;}.q,.r{stroke:#db8572;}.s{fill:#8cc63f;}.t{fill:#fff;}.u{fill:#3a321d;}.ah,.v{fill:#145629;}.x{fill:#e26928;}.y{fill:#cec41d;}.z{stroke:#b69f89;}.aa{stroke:#775029;}.ab{fill:#3b345b;}.ac{fill:#689325;}.ad{fill:#494027;}.ae{fill:#775029;}.af{fill:#493d75;}.ag{fill:#ffe815;}.ai{fill:#8e5b2b;}</style></defs><g transform="translate(-1074.24 -2157.278)"><path class="a" d="M4587.3,27.577C4588.464,278.1,4396.684,279.9,4307,268.695c-259.218-32.4-297.066-98.28-235.457-241.118,44.368-102.865,120.172-97.865,257.879-143.767C4385.476-134.874,4586.148-220.247,4587.3,27.577Z" transform="translate(-2971.547 2302.8)"/><path class="b" d="M4232.088-74.136c-1.148,3.509-8.584,13.331-21.593,12.1-15.371-1.464-15-13.187-15-13.187s4.272.585,4.076.487c5.247-.974,9.088-2.34,17.555-2.067C4221.255-76.69,4228.01-74.793,4232.088-74.136Z" transform="translate(-2821.092 2371.828)"/><path class="c" d="M4087.552,25.342c19.751-5.776,40.585-6.416,61.154-7.013l82.22-2.392c4.6-.132,9.3-.255,13.716,1.077a21.791,21.791,0,0,1,14.047,13.5,1066.653,1066.653,0,0,1-131.8,10c-15.974.221-32.449-.016-47.151-6.26a6.279,6.279,0,0,1-2.917-2c-1.416-2.087.1-5.133,2.368-6.227s4.938-.8,7.44-.493" transform="translate(-2940.913 2464.984)"/><g transform="translate(1220.738 2285.654)"><path class="d" d="M4129.068-70.064s24.313,14.183,23.2,56.993c-.953,36.765-4.209,127.763-4.209,127.763h2.025L4154.4-16.625S4157.433-56.641,4129.068-70.064Z" transform="translate(-4108.59 92.979)"/><g transform="translate(22.763)"><path class="e" d="M4137.417-74c1.328-2.981,3.115-5.083,3.988-4.692s.505,3.122-.825,6.1a11.972,11.972,0,0,1-3.988,4.692A11.991,11.991,0,0,1,4137.417-74Z" transform="translate(-4123.884 84.261)"/><path class="e" d="M4139.114-69.051c1.66-2.809,3.672-4.692,4.5-4.2s.146,3.158-1.514,5.969a11.983,11.983,0,0,1-4.5,4.2A12.008,12.008,0,0,1,4139.114-69.051Z" transform="translate(-4122.783 89.695)"/><path class="e" d="M4139.687-62.825c1.66-2.809,3.673-4.694,4.5-4.206s.146,3.16-1.514,5.969a12,12,0,0,1-4.5,4.206A11.987,11.987,0,0,1,4139.687-62.825Z" transform="translate(-4122.205 95.95)"/><path class="e" d="M4136.2-69.316c-2.516-2.079-4.06-4.363-3.45-5.1s3.142.351,5.658,2.43a11.994,11.994,0,0,1,3.451,5.1A12,12,0,0,1,4136.2-69.316Z" transform="translate(-4127.785 88.373)"/><path class="e" d="M4137.011-64.439c-2.516-2.079-4.06-4.363-3.45-5.1s3.144.351,5.658,2.43a11.994,11.994,0,0,1,3.451,5.1A11.994,11.994,0,0,1,4137.011-64.439Z" transform="translate(-4126.97 93.274)"/><path class="e" d="M4133.79-76.162c-2.514-2.079-4.061-4.363-3.452-5.1s3.144.351,5.659,2.43a11.981,11.981,0,0,1,3.45,5.1A12,12,0,0,1,4133.79-76.162Z" transform="translate(-4130.206 81.493)"/><path class="f" d="M4141.534-42.64s1.522-21.419-7.079-35.418" transform="translate(-4125.94 84.945)"/></g><g transform="translate(44.375 46.651)"><path class="e" d="M4152.677-49.358c2.928-1.444,5.643-1.919,6.067-1.061s-1.606,2.725-4.534,4.168a11.979,11.979,0,0,1-6.064,1.063A12.006,12.006,0,0,1,4152.677-49.358Z" transform="translate(-4133.791 65.642)"/><path class="e" d="M4153.755-53.829c2.928-1.446,5.643-1.921,6.068-1.063s-1.607,2.725-4.534,4.17a11.992,11.992,0,0,1-6.065,1.061A11.988,11.988,0,0,1,4153.755-53.829Z" transform="translate(-4132.708 61.147)"/><path class="e" d="M4150.666-44.755c3.074-1.1,5.825-1.263,6.147-.361s-1.9,2.522-4.979,3.623a12,12,0,0,1-6.147.363A12,12,0,0,1,4150.666-44.755Z" transform="translate(-4136.262 70.814)"/><path class="e" d="M4147.132-39.6c3.07-1.1,5.824-1.263,6.147-.363s-1.905,2.524-4.979,3.625a11.987,11.987,0,0,1-6.147.361A12,12,0,0,1,4147.132-39.6Z" transform="translate(-4139.815 75.996)"/><path class="e" d="M4145.8-45.281c-.606-3.208-.334-5.951.6-6.129s2.194,2.278,2.8,5.484a12,12,0,0,1-.605,6.129A12,12,0,0,1,4145.8-45.281Z" transform="translate(-4136.472 65.065)"/><path class="e" d="M4143.31-41.013c-.606-3.206-.336-5.951.6-6.127s2.2,2.278,2.8,5.484a11.962,11.962,0,0,1-.606,6.127A12,12,0,0,1,4143.31-41.013Z" transform="translate(-4138.977 69.357)"/><path class="e" d="M4148.321-52.089c-.6-3.206-.334-5.951.605-6.127s2.194,2.276,2.8,5.484a11.97,11.97,0,0,1-.6,6.127A11.98,11.98,0,0,1,4148.321-52.089Z" transform="translate(-4133.939 58.226)"/><path class="f" d="M4140.986-21.226S4155.841-36.733,4158.167-53" transform="translate(-4140.986 63.48)"/></g><g transform="translate(42.496 103.024)"><path class="e" d="M4150.611-21.218c2.813-1.654,5.488-2.326,5.974-1.5s-1.4,2.835-4.214,4.489a11.989,11.989,0,0,1-5.974,1.5A12.008,12.008,0,0,1,4150.611-21.218Z" transform="translate(-4133.671 37.181)"/><path class="e" d="M4151.359-25.757c2.812-1.654,5.487-2.326,5.973-1.5s-1.4,2.835-4.215,4.489a12,12,0,0,1-5.973,1.5A11.993,11.993,0,0,1,4151.359-25.757Z" transform="translate(-4132.919 32.619)"/><path class="e" d="M4148.982-16.475c2.983-1.323,5.717-1.686,6.1-.81s-1.716,2.655-4.7,3.978a12.01,12.01,0,0,1-6.106.81A11.992,11.992,0,0,1,4148.982-16.475Z" transform="translate(-4135.798 42.517)"/><path class="e" d="M4145.833-11.075c2.982-1.323,5.716-1.686,6.1-.81s-1.716,2.657-4.7,3.978a11.974,11.974,0,0,1-6.1.81A11.977,11.977,0,0,1,4145.833-11.075Z" transform="translate(-4138.961 47.944)"/><path class="e" d="M4144.167-16.962c-.84-3.154-.771-5.911.154-6.157s2.354,2.111,3.193,5.265a11.991,11.991,0,0,1-.154,6.155A11.964,11.964,0,0,1,4144.167-16.962Z" transform="translate(-4136.501 37.116)"/><path class="e" d="M4141.992-12.523c-.84-3.154-.771-5.911.154-6.155s2.355,2.111,3.195,5.263a12.012,12.012,0,0,1-.155,6.157A11.987,11.987,0,0,1,4141.992-12.523Z" transform="translate(-4138.685 41.579)"/><path class="e" d="M4146.182-23.936c-.84-3.154-.77-5.911.153-6.155s2.357,2.111,3.195,5.263a11.991,11.991,0,0,1-.154,6.157A11.989,11.989,0,0,1,4146.182-23.936Z" transform="translate(-4134.476 30.109)"/><path class="f" d="M4140.049,7.973s13.684-16.551,14.815-32.942" transform="translate(-4140.049 35.274)"/></g><g transform="translate(5.07 74.221)"><path class="e" d="M4130.009-36.13c-3.246-.337-5.957.162-6.055,1.115s2.451,2,5.7,2.332a12,12,0,0,0,6.057-1.117A11.991,11.991,0,0,0,4130.009-36.13Z" transform="translate(-4118.801 52.755)"/><path class="e" d="M4127.442-39.949c-3.246-.335-5.957.164-6.057,1.117s2.455,1.995,5.7,2.33a11.968,11.968,0,0,0,6.056-1.117A11.985,11.985,0,0,0,4127.442-39.949Z" transform="translate(-4121.382 48.918)"/><path class="e" d="M4133.719-32.391c-3.265.038-5.9.844-5.889,1.8s2.665,1.7,5.926,1.664a11.974,11.974,0,0,0,5.89-1.8A11.988,11.988,0,0,0,4133.719-32.391Z" transform="translate(-4114.904 56.618)"/><path class="e" d="M4138.826-28.789c-3.262.038-5.9.844-5.888,1.8s2.667,1.7,5.928,1.664a11.994,11.994,0,0,0,5.889-1.8A12,12,0,0,0,4138.826-28.789Z" transform="translate(-4109.771 60.238)"/><path class="e" d="M4133.894-33.43c-.547-3.216-1.756-5.694-2.7-5.534s-1.265,2.9-.715,6.115a11.994,11.994,0,0,0,2.7,5.536A11.967,11.967,0,0,0,4133.894-33.43Z" transform="translate(-4112.511 50.006)"/><path class="e" d="M4137.719-30.295c-.549-3.218-1.758-5.694-2.7-5.534s-1.264,2.9-.716,6.115a11.973,11.973,0,0,0,2.7,5.534A11.985,11.985,0,0,0,4137.719-30.295Z" transform="translate(-4108.668 53.157)"/><path class="e" d="M4129.164-38.934c-.547-3.216-1.755-5.694-2.7-5.534s-1.263,2.9-.716,6.117a11.99,11.99,0,0,0,2.7,5.534A12.006,12.006,0,0,0,4129.164-38.934Z" transform="translate(-4117.266 44.475)"/><path class="f" d="M4153.93-15.389s-19.326-9.365-27.167-23.8" transform="translate(-4115.975 49.784)"/></g><g transform="translate(11.88 126.222)"><path class="e" d="M4132.368-9.733c-3.029-1.213-5.773-1.478-6.128-.587s1.813,2.59,4.843,3.8a11.981,11.981,0,0,0,6.127.587A12,12,0,0,0,4132.368-9.733Z" transform="translate(-4123.349 26.267)"/><path class="e" d="M4130.946-14.11c-3.029-1.213-5.772-1.476-6.129-.587s1.814,2.592,4.842,3.805a11.99,11.99,0,0,0,6.13.587A11.972,11.972,0,0,0,4130.946-14.11Z" transform="translate(-4124.779 21.87)"/><path class="e" d="M4134.982-5.3c-3.148-.858-5.906-.806-6.158.116s2.1,2.368,5.245,3.228a12,12,0,0,0,6.157-.116A12,12,0,0,0,4134.982-5.3Z" transform="translate(-4120.734 31.23)"/><path class="e" d="M4138.906-.432c-3.149-.86-5.9-.808-6.158.116s2.1,2.368,5.245,3.226a11.971,11.971,0,0,0,6.155-.116A11.976,11.976,0,0,0,4138.906-.432Z" transform="translate(-4116.788 36.12)"/><path class="e" d="M4135.92-5.881c.357-3.244-.126-5.959-1.08-6.063s-2.007,2.44-2.364,5.684A12,12,0,0,0,4133.554-.2,11.988,11.988,0,0,0,4135.92-5.881Z" transform="translate(-4117.102 25.162)"/><path class="e" d="M4138.736-1.818c.355-3.244-.128-5.959-1.079-6.063s-2.01,2.442-2.364,5.684a11.969,11.969,0,0,0,1.079,6.063A11.981,11.981,0,0,0,4138.736-1.818Z" transform="translate(-4114.27 29.246)"/><path class="e" d="M4132.88-12.472c.355-3.244-.129-5.959-1.079-6.063s-2.011,2.442-2.365,5.686a11.957,11.957,0,0,0,1.078,6.061A11.97,11.97,0,0,0,4132.88-12.472Z" transform="translate(-4120.156 18.539)"/><path class="f" d="M4149.5,17.1s-16.014-14.305-19.6-30.341" transform="translate(-4119.631 23.86)"/></g><g transform="translate(5.756 161.954)"><path class="e" d="M4129.917,7.884c-3.172-.774-5.925-.648-6.152.283s2.16,2.31,5.329,3.084a11.991,11.991,0,0,0,6.152-.283A11.971,11.971,0,0,0,4129.917,7.884Z" transform="translate(-4119.689 8.852)"/><path class="e" d="M4127.89,3.753c-3.169-.774-5.924-.648-6.151.283s2.16,2.31,5.33,3.084a11.989,11.989,0,0,0,6.151-.283A11.981,11.981,0,0,0,4127.89,3.753Z" transform="translate(-4121.725 4.7)"/><path class="e" d="M4133.118,11.978c-3.238-.405-5.96.034-6.079.984s2.409,2.049,5.647,2.454a11.979,11.979,0,0,0,6.078-.982A11.988,11.988,0,0,0,4133.118,11.978Z" transform="translate(-4116.39 13.323)"/><path class="e" d="M4137.69,16.242c-3.238-.407-5.961.034-6.08.982s2.409,2.049,5.646,2.456a12,12,0,0,0,6.079-.984A11.964,11.964,0,0,0,4137.69,16.242Z" transform="translate(-4111.793 17.608)"/><path class="e" d="M4133.6,11.228c-.1-3.26-.966-5.881-1.923-5.849s-1.646,2.7-1.54,5.961a11.983,11.983,0,0,0,1.924,5.851A11.99,11.99,0,0,0,4133.6,11.228Z" transform="translate(-4113.284 6.843)"/><path class="e" d="M4136.961,14.855c-.106-3.262-.967-5.883-1.923-5.851s-1.646,2.7-1.542,5.961a12,12,0,0,0,1.923,5.851A11.981,11.981,0,0,0,4136.961,14.855Z" transform="translate(-4109.905 10.486)"/><path class="e" d="M4129.658,5.134c-.1-3.262-.966-5.881-1.921-5.851s-1.646,2.7-1.541,5.963a11.973,11.973,0,0,0,1.922,5.849A11.973,11.973,0,0,0,4129.658,5.134Z" transform="translate(-4117.243 0.717)"/><path class="f" d="M4150.707,31.895s-17.873-11.906-23.681-27.274" transform="translate(-4116.397 6.082)"/></g><g transform="translate(41.203 126.774)"><g transform="translate(0 37.824)"><path class="e" d="M4152.742,9.363c3.071-1.1,5.824-1.263,6.147-.361s-1.907,2.522-4.98,3.623a11.985,11.985,0,0,1-6.147.361A11.975,11.975,0,0,1,4152.742,9.363Z" transform="translate(-4131.005 7.255)"/><path class="e" d="M4154.324,5.043c3.071-1.1,5.823-1.263,6.146-.361s-1.907,2.522-4.978,3.623a11.986,11.986,0,0,1-6.147.361A11.977,11.977,0,0,1,4154.324,5.043Z" transform="translate(-4129.415 2.914)"/><path class="e" d="M4150.153,13.714c3.179-.744,5.93-.589,6.148.343s-2.182,2.29-5.36,3.032a11.991,11.991,0,0,1-6.149-.345A12,12,0,0,1,4150.153,13.714Z" transform="translate(-4133.989 12.103)"/><path class="e" d="M4146.051,18.43c3.178-.742,5.931-.587,6.147.343s-2.182,2.29-5.359,3.032a12,12,0,0,1-6.147-.343A11.983,11.983,0,0,1,4146.051,18.43Z" transform="translate(-4138.11 16.844)"/><path class="e" d="M4145.335,13.1c-.234-3.254.347-5.949,1.3-6.019s1.921,2.514,2.156,5.768a11.973,11.973,0,0,1-1.3,6.019A12,12,0,0,1,4145.335,13.1Z" transform="translate(-4133.495 5.905)"/><path class="e" d="M4142.373,17.053c-.236-3.256.347-5.951,1.3-6.019s1.919,2.512,2.155,5.768a12,12,0,0,1-1.3,6.019A11.986,11.986,0,0,1,4142.373,17.053Z" transform="translate(-4136.475 9.881)"/><path class="e" d="M4148.617,6.622c-.236-3.254.348-5.949,1.3-6.019s1.919,2.514,2.155,5.77a11.989,11.989,0,0,1-1.3,6.017A11.975,11.975,0,0,1,4148.617,6.622Z" transform="translate(-4130.197 -0.601)"/><path class="f" d="M4139.4,35.515s16.533-13.706,20.7-29.6" transform="translate(-4139.404 4.742)"/></g><g transform="translate(19.037 0)"><path class="e" d="M4157.9-9.5c2.434-2.171,4.927-3.354,5.563-2.641s-.82,3.054-3.254,5.227a11.987,11.987,0,0,1-5.564,2.641A11.993,11.993,0,0,1,4157.9-9.5Z" transform="translate(-4143.124 24.205)"/><path class="e" d="M4157.749-14.1c2.434-2.171,4.926-3.354,5.563-2.641s-.821,3.054-3.255,5.227a11.982,11.982,0,0,1-5.563,2.641A11.987,11.987,0,0,1,4157.749-14.1Z" transform="translate(-4143.278 19.584)"/><path class="e" d="M4157.336-4.5c2.668-1.881,5.277-2.771,5.829-1.989s-1.163,2.941-3.832,4.822A12,12,0,0,1,4153.5.324,12.01,12.01,0,0,1,4157.336-4.5Z" transform="translate(-4144.272 29.816)"/><path class="e" d="M4155.3,1.414c2.669-1.879,5.279-2.769,5.829-1.987s-1.165,2.939-3.832,4.82a11.991,11.991,0,0,1-5.828,1.989A12.009,12.009,0,0,1,4155.3,1.414Z" transform="translate(-4146.314 35.757)"/><path class="e" d="M4152.883-4.908c-1.44-2.929-1.911-5.646-1.051-6.067s2.721,1.61,4.159,4.537a12,12,0,0,1,1.053,6.067A11.991,11.991,0,0,1,4152.883-4.908Z" transform="translate(-4146.382 25.532)"/><path class="e" d="M4151.618-.129c-1.439-2.927-1.91-5.644-1.051-6.067s2.723,1.61,4.164,4.539a11.981,11.981,0,0,1,1.05,6.067A11.994,11.994,0,0,1,4151.618-.129Z" transform="translate(-4147.651 30.335)"/><path class="e" d="M4153.5-12.139c-1.439-2.929-1.912-5.646-1.052-6.069s2.722,1.61,4.162,4.539a12.013,12.013,0,0,1,1.053,6.067A11.989,11.989,0,0,1,4153.5-12.139Z" transform="translate(-4145.766 18.264)"/><path class="f" d="M4148.9,30.277s13.682-27.472,11.587-43.769" transform="translate(-4148.899 23.059)"/></g></g><g transform="translate(0 44.19)"><path class="e" d="M4127.718-53.546c-1.917-2.641-2.844-5.237-2.069-5.8s2.957,1.123,4.874,3.763a12,12,0,0,1,2.07,5.8A11.987,11.987,0,0,1,4127.718-53.546Z" transform="translate(-4112.297 59.453)"/><path class="e" d="M4132.611-52.084c-1.6-2.841-2.227-5.528-1.393-6s2.809,1.454,4.413,4.295a12,12,0,0,1,1.393,6A11.985,11.985,0,0,1,4132.611-52.084Z" transform="translate(-4106.801 60.761)"/><path class="e" d="M4138.289-49.467c-1.6-2.843-2.227-5.53-1.393-6s2.808,1.454,4.411,4.3a11.981,11.981,0,0,1,1.394,6A11.994,11.994,0,0,1,4138.289-49.467Z" transform="translate(-4101.094 63.39)"/><path class="e" d="M4132.164-50.148c-3.058,1.139-5.809,1.333-6.142.437s1.875-2.546,4.933-3.685a11.985,11.985,0,0,1,6.143-.437A12,12,0,0,1,4132.164-50.148Z" transform="translate(-4111.683 64.886)"/><path class="e" d="M4136.793-48.411c-3.06,1.139-5.809,1.333-6.143.437s1.875-2.546,4.935-3.685a11.978,11.978,0,0,1,6.141-.437A11.985,11.985,0,0,1,4136.793-48.411Z" transform="translate(-4107.033 66.632)"/><path class="e" d="M4125.03-51.484c-3.057,1.137-5.808,1.333-6.143.437s1.876-2.546,4.934-3.685a11.99,11.99,0,0,1,6.144-.437A12.007,12.007,0,0,1,4125.03-51.484Z" transform="translate(-4118.854 63.544)"/><path class="f" d="M4158.049-43.6s-17.79-12.028-34.212-11.579" transform="translate(-4113.848 63.741)"/></g><g transform="translate(42.544 88.061)"><ellipse class="g" cx="4.801" cy="5.836" rx="4.801" ry="5.836" transform="translate(0 12.355) rotate(-20.645)"/><path class="h" d="M4140.92-37.572a26.522,26.522,0,0,1,2.123,10.1" transform="translate(-4139.223 37.572)"/><path class="i" d="M4142.7-32.161c.771-.359,2.506-1.267,4.1-.032s2.138,1.624,2.138,1.624l-3.308-.632.318,3.89-2.1-3.032s-.733-.223-1.286,1.217a3.541,3.541,0,0,1-1.913,2.067c-.333.148.9-.64.958-2.121S4141.147-31.437,4142.7-32.161Z" transform="translate(-4139.548 42.348)"/></g><g transform="translate(44.403 85.497)"><ellipse class="g" cx="4.801" cy="5.836" rx="4.801" ry="5.836" transform="matrix(0.415, -0.91, 0.91, 0.415, 4.15, 8.734)"/><path class="h" d="M4141-37.576a7.631,7.631,0,0,1,5.267,1.881" transform="translate(-4141.001 40.132)"/><path class="i" d="M4143.52-34.732c.292-.8.887-2.667,2.89-2.915s2.658-.355,2.658-.355l-2.792,1.885,2.967,2.534-3.628-.666s-.676.357-.054,1.768a3.546,3.546,0,0,1,.1,2.815c-.133.339.187-1.091-.817-2.179S4142.924-33.12,4143.52-34.732Z" transform="translate(-4138.66 39.704)"/></g><g transform="translate(32.428 87.66)"><ellipse class="j" cx="4.909" cy="4.038" rx="4.909" ry="4.038" transform="matrix(0.548, -0.837, 0.837, 0.548, 0, 10.048)"/><path class="h" d="M4139.721-34.069a6.417,6.417,0,0,1,2.9-3.7" transform="translate(-4130.31 37.772)"/><path class="i" d="M4143.051-32.667a3.59,3.59,0,0,0,.4,1.919,2.986,2.986,0,0,1-1.19-2.049c-.191-1.283-.833-1.233-.833-1.233l-2.283,2.1.975-3.136-2.832-.088s.514-.219,2.052-.94,2.8.341,3.361.776C4143.846-34.435,4143.276-33.894,4143.051-32.667Z" transform="translate(-4132.758 39.215)"/></g><g transform="translate(41.056 108.784)"><ellipse class="j" cx="4.801" cy="5.836" rx="4.801" ry="5.836" transform="translate(0 12.356) rotate(-20.645)"/><path class="h" d="M4140.178-27.236a26.52,26.52,0,0,1,2.122,10.1" transform="translate(-4138.48 27.236)"/><path class="i" d="M4141.962-21.825c.769-.357,2.507-1.267,4.1-.03s2.137,1.622,2.137,1.622l-3.309-.632.319,3.89-2.1-3.03s-.732-.223-1.285,1.217a3.549,3.549,0,0,1-1.913,2.067c-.333.146.9-.642.957-2.123S4140.4-21.1,4141.962-21.825Z" transform="translate(-4138.806 32.012)"/></g><g transform="translate(42.915 106.221)"><ellipse class="g" cx="4.801" cy="5.836" rx="4.801" ry="5.836" transform="matrix(0.415, -0.91, 0.91, 0.415, 4.15, 8.734)"/><path class="h" d="M4140.259-27.24a7.624,7.624,0,0,1,5.268,1.883" transform="translate(-4140.259 29.795)"/><path class="i" d="M4142.777-24.4c.293-.8.886-2.665,2.889-2.913s2.659-.355,2.659-.355l-2.793,1.885,2.969,2.534-3.631-.666s-.673.355-.052,1.766a3.549,3.549,0,0,1,.1,2.817c-.133.339.187-1.091-.816-2.181S4142.182-22.785,4142.777-24.4Z" transform="translate(-4137.917 29.368)"/></g><g transform="translate(30.94 108.385)"><ellipse class="g" cx="4.909" cy="4.038" rx="4.909" ry="4.038" transform="matrix(0.548, -0.837, 0.837, 0.548, 0, 10.047)"/><path class="h" d="M4138.979-23.734a6.417,6.417,0,0,1,2.9-3.7" transform="translate(-4129.568 27.435)"/><path class="i" d="M4142.311-22.329a3.57,3.57,0,0,0,.4,1.917,2.99,2.99,0,0,1-1.191-2.047c-.19-1.283-.832-1.235-.832-1.235l-2.284,2.1.974-3.136-2.833-.086s.516-.221,2.053-.942,2.8.343,3.363.778C4143.1-24.1,4142.537-23.556,4142.311-22.329Z" transform="translate(-4132.018 28.877)"/></g><g transform="translate(41.056 146.247)"><ellipse class="k" cx="4.801" cy="5.836" rx="4.801" ry="5.836" transform="translate(0 12.355) rotate(-20.645)"/><path class="h" d="M4140.178-8.551A26.51,26.51,0,0,1,4142.3,1.542" transform="translate(-4138.48 8.551)"/><path class="i" d="M4141.962-3.14c.769-.359,2.507-1.267,4.1-.032s2.137,1.624,2.137,1.624l-3.309-.632.319,3.89-2.1-3.032s-.732-.223-1.285,1.217a3.544,3.544,0,0,1-1.913,2.067c-.333.148.9-.642.957-2.121S4140.4-2.416,4141.962-3.14Z" transform="translate(-4138.806 13.327)"/></g><g transform="translate(42.915 143.683)"><ellipse class="g" cx="4.801" cy="5.836" rx="4.801" ry="5.836" transform="matrix(0.415, -0.91, 0.91, 0.415, 4.15, 8.734)"/><path class="h" d="M4140.259-8.555a7.632,7.632,0,0,1,5.268,1.881" transform="translate(-4140.259 11.111)"/><path class="i" d="M4142.777-5.713c.293-.8.886-2.665,2.889-2.913s2.659-.355,2.659-.355L4145.532-7.1l2.969,2.534-3.631-.666s-.673.357-.052,1.768a3.544,3.544,0,0,1,.1,2.815c-.133.339.187-1.091-.816-2.181S4142.182-4.1,4142.777-5.713Z" transform="translate(-4137.917 10.683)"/></g><g transform="translate(30.94 145.846)"><ellipse class="j" cx="4.909" cy="4.038" rx="4.909" ry="4.038" transform="matrix(0.548, -0.837, 0.837, 0.548, 0, 10.048)"/><path class="h" d="M4138.979-5.05a6.423,6.423,0,0,1,2.9-3.7" transform="translate(-4129.568 8.751)"/><path class="i" d="M4142.311-3.645a3.584,3.584,0,0,0,.4,1.919,3,3,0,0,1-1.191-2.049c-.19-1.283-.832-1.233-.832-1.233l-2.284,2.1.974-3.134-2.833-.088s.516-.219,2.053-.94,2.8.341,3.363.776C4143.1-5.414,4142.537-4.872,4142.311-3.645Z" transform="translate(-4132.018 10.194)"/></g><g transform="translate(42.279 64.178)"><ellipse class="k" cx="4.801" cy="5.836" rx="4.801" ry="5.836" transform="translate(0 12.355) rotate(-20.645)"/><path class="h" d="M4140.787-49.484a26.587,26.587,0,0,1,2.125,10.093" transform="translate(-4139.091 49.484)"/><path class="i" d="M4142.573-44.073c.768-.359,2.506-1.267,4.1-.032s2.137,1.624,2.137,1.624l-3.31-.632.321,3.89-2.108-3.032s-.729-.223-1.283,1.217a3.537,3.537,0,0,1-1.912,2.067c-.333.148.9-.642.956-2.121S4141.012-43.349,4142.573-44.073Z" transform="translate(-4139.416 54.26)"/></g><g transform="translate(44.137 61.613)"><ellipse class="j" cx="4.801" cy="5.836" rx="4.801" ry="5.836" transform="matrix(0.415, -0.91, 0.91, 0.415, 4.151, 8.734)"/><path class="h" d="M4140.868-49.488a7.625,7.625,0,0,1,5.267,1.881" transform="translate(-4140.868 52.044)"/><path class="i" d="M4143.387-46.646c.293-.8.883-2.665,2.887-2.913s2.661-.355,2.661-.355l-2.793,1.885,2.97,2.534-3.632-.666s-.675.357-.051,1.768a3.55,3.55,0,0,1,.1,2.815,4.229,4.229,0,0,0-.818-2.181C4143.706-44.849,4142.792-45.032,4143.387-46.646Z" transform="translate(-4138.525 51.616)"/></g><g transform="translate(32.163 63.777)"><ellipse class="g" cx="4.909" cy="4.038" rx="4.909" ry="4.038" transform="matrix(0.548, -0.837, 0.837, 0.548, 0, 10.047)"/><path class="h" d="M4139.59-45.983a6.415,6.415,0,0,1,2.9-3.7" transform="translate(-4130.179 49.684)"/><path class="i" d="M4142.92-44.578a3.567,3.567,0,0,0,.4,1.917,2.97,2.97,0,0,1-1.191-2.047c-.193-1.283-.832-1.233-.832-1.233l-2.284,2.1.975-3.134-2.833-.088s.516-.219,2.051-.94,2.8.341,3.363.776C4143.714-46.347,4143.146-45.805,4142.92-44.578Z" transform="translate(-4132.628 51.127)"/></g></g><g transform="translate(1404.358 2469.807)"><path class="l" d="M4224.457,10.355l7.369,6.937s4.629,10.153-7.82,17.834c0,0-5.37-9.981-10-5.367l-3.565-4.517Z" transform="translate(-4210.436 -10.355)"/><path class="m" d="M4223.193,30.919s-7.593-12.8-9.433-4.539c0,0,6.976,9.465,1.255,22.612s-4.7,17.293-3.016,18.883c0,0,33.149-33.655,39.322-46.668,0,0-22.105-12.936-19.846-4.806C4232.593,20.427,4232.964,24.628,4223.193,30.919Z" transform="translate(-4210.196 -6.976)"/><path class="n" d="M4211.19,64.107s.7,3.832,3.849,3.128l38.294-47.123s.14-3.689-3.194-2.6C4250.139,17.515,4235.81,39.831,4211.19,64.107Z" transform="translate(-4209.679 -3.362)"/></g><path class="o" d="M4211.267-95.944s4.846-2.127,3.308,6.735-3.308,6.971-3.308,6.971Z" transform="translate(-2805.242 2352.4)"/><path class="l" d="M4229.941-50.42l-.416-25.816-.59-14.3s-1.931-2.492-1.46-10.29c0,0-13.438,7.779-20.41-.846,0,0-5.305,4.99-11.924,12.435l1.526,39.34s13.539,23.24,17.5,31.424C4214.163-18.471,4224.986-37.955,4229.941-50.42Z" transform="translate(-2821.449 2346.871)"/><path class="p" d="M4200.432-92.482A20.288,20.288,0,0,1,4207.521-94s2.364-1.772-.591-3.426c0,0-4.962,0-7.561,3.19C4199.369-94.232,4198.852-91.914,4200.432-92.482Z" transform="translate(-2817.282 2351.139)"/><path class="p" d="M4215.164-92.482A20.291,20.291,0,0,0,4208.075-94s-2.364-1.772.592-3.426c0,0,4.962,0,7.561,3.19C4216.227-94.232,4216.745-91.914,4215.164-92.482Z" transform="translate(-2809.35 2351.139)"/><path class="q" d="M4207.967-95.773v14.129s-.592,2.412-3.191.239" transform="translate(-2811.765 2352.797)"/><path class="r" d="M4202.528-86.592s3.952,6.538,9.835,1.961" transform="translate(-2814.025 2362.023)"/><ellipse class="p" cx="1.444" cy="1.444" rx="1.444" ry="1.444" transform="translate(1385.615 2260.963)"/><ellipse class="p" cx="1.444" cy="1.444" rx="1.444" ry="1.444" transform="translate(1400.95 2260.963)"/><path class="p" d="M4230.327-84.124s5.177-6.31.345-15.238c0,0-2.372-8.686-14.819-8.686-10.85,0-13.668,1.217-16.565,3.619-3.788,3.144-6.185,12.4-5.377,19.488,4.351,38.185,3.222,6.715,5.377,1.5,0,0,6.516-4.441,8.5-10.231,0,0,11.425,7.262,21.006,0C4228.8-93.669,4227.747-84.42,4230.327-84.124Z" transform="translate(-2822.843 2340.462)"/><path class="o" d="M4198.611-95.944s-4.844-2.127-3.309,6.735,3.309,6.971,3.309,6.971Z" transform="translate(-2821.59 2352.4)"/><path class="o" d="M4226.256-86l-4.853,8.026a3.624,3.624,0,0,1-2.637,1.137H4206.9a3.85,3.85,0,0,1-1.949-.529l-6.465-3.791s3.943,14.125,28.085,15Z" transform="translate(-2818.085 2362.615)"/><g transform="translate(1331.708 2296.608)"><path class="s" d="M4195.088,68.611l.268-44.821V-19.588s-6.2-5.343-21.154-4.7c0,0,5.768-27.139,10.256-36.541,0,0,2.136-6.2,11.967-8.974L4216.9-76.03s3.592,10.255,18.335,10.524c4.789.086,11.832-3.312,16.407-9.909l21.714,5.5a16.342,16.342,0,0,1,11.966,12.074s6.074,13.161,10.878,25.12l-23.059,12.062,13.879,28.418s21.362,42,21.362,51.768l-47.636,2.083-2.991,4.914s-8.7-7.88-31.384-7.763c-22.846.114-13.9,17.082-18.626,15.426" transform="translate(-4174.202 76.03)"/><g transform="translate(43.839 58.805)"><path class="t" d="M4214.639-25.541h-2.248v-6.951h.233V-32.5h16.95a16.857,16.857,0,0,0-19.306-13.987,16.859,16.859,0,0,0-13.988,19.308,16.859,16.859,0,0,0,19.308,13.987,16.862,16.862,0,0,0,14.2-16.643c0-.13-.008-.261-.01-.391h-15.136Z" transform="translate(-4196.066 46.701)"/></g></g><path class="c" d="M4237.914,26.914c13.033-5.778,26.779-6.416,40.35-7.013l54.25-2.392c3.037-.134,6.14-.257,9.05,1.077,4.319,2.039,7.751,7.041,9.268,13.5a470.288,470.288,0,0,1-86.964,10c-10.539.219-21.408-.016-31.111-6.26a4.618,4.618,0,0,1-1.925-2A5.761,5.761,0,0,1,4232.4,27.6c1.5-1.095,3.256-.806,4.907-.493" transform="translate(-2785.946 2466.562)"/><path class="l" d="M4223.548-44.481s13.08,13.977,30.882,21.09,57.918,12.85,57.96,12.441,6.462-4.573,6.462-4.573-45.985-28.358-69.1-34.9S4223.548-44.481,4223.548-44.481Z" transform="translate(-2792.902 2396.463)"/><path class="u" d="M4257.759-26.33c-33.222,3.264-101.165,3.589-101.425,31.4-1.041,12.495,17.827,19.829,28.518,23.811s21.98,6.149,32.756,9.9c15.671,5.458,29.965,14.157,44.6,21.985,1.645.88,3.5,1.776,5.3,1.3a7.54,7.54,0,0,0,2.785-1.72l12.123-10.189A287.384,287.384,0,0,0,4240.2,19.1s42.2,8.868,50.324,1.714S4257.759-26.33,4257.759-26.33Z" transform="translate(-2860.492 2422.585)"/><path class="b" d="M4274.974-32.181s.66,1.883,4.116,2.582a4.588,4.588,0,0,0,4.969-2.358s-5.65-.662-6.933-2.534-3.815-3.344-7.213-.634-2.082,6.474.427,6.809S4274.974-32.181,4274.974-32.181Z" transform="translate(-2748.365 2412.251)"/><path class="b" d="M4267.061-30.776c2.606,3.164,3.978,7.581,6.544,10.791.527.662,1.413,1.279,1.942.666.494-.575.135-1.606-.244-2.334q-1.433-2.761-2.861-5.522a26.377,26.377,0,0,0,9.263,6.644,5.17,5.17,0,0,0-1.95-3.96,9.882,9.882,0,0,1-2.854-3.288l6.7,3.741c.587.329,1.485.507,1.664-.233a1.576,1.576,0,0,0-.507-1.3,17.9,17.9,0,0,0-5.2-4.174,33.876,33.876,0,0,0,7.621-.128c-.146-.916-1.029-1.319-1.771-1.538a68.213,68.213,0,0,0-16.649-2.743" transform="translate(-2749.173 2414.726)"/><g transform="translate(1480.628 2243.731)"><path class="d" d="M4277.317,153.66c-.126-1.379-5.546-256.063-5.546-256.063H4275l8.321,256.526S4277.779,158.745,4277.317,153.66Z" transform="translate(-4225.067 102.403)"/><g transform="translate(0 10.173)"><path class="e" d="M4249.349-76.154c.03-.038.084-.08.116-.116a2.243,2.243,0,0,1,.173-.17l.027-.018a20.168,20.168,0,0,1,4.316-2.314,15.968,15.968,0,0,1,11.54.431c-.773-.814.16-2.274,1.279-2.386a4.586,4.586,0,0,1,3.027,1.261l2.876,2.147c.731.545,1.71,1.113,2.495.638.584-.351.755-1.137,1.262-1.594.965-.868,2.51-.148,3.447.756A11.268,11.268,0,0,1,4282.684-66l-.143-.062.17.738a29.718,29.718,0,0,1-12.236,4.395c-1.761.219-4.148-.211-4.311-1.975-.149-1.652,1.838-2.558,3.446-2.965a26.358,26.358,0,0,1-8.09-.479,3.128,3.128,0,0,1-1.308-.513,1.723,1.723,0,0,1-.3-2.294,1.624,1.624,0,0,1,.942-.573c-3.35-.5-6.685-1.123-9.97-1.927a3.948,3.948,0,0,1-1.749-.75C4248.09-73.347,4248.384-75.113,4249.349-76.154Z" transform="translate(-4248.477 114.001)"/><path class="e" d="M4280.627-82.94a5,5,0,0,1,2.82-2.3c1.219-.247,2.7.8,2.4,2a12.973,12.973,0,0,1,13.42-3.054c.367.134.785.361.808.752a1.072,1.072,0,0,1-.406.744l-2.425,2.458,14.688,1.813c-2.263,3.97-7.429,4.988-11.959,5.6l4.083.884a18.179,18.179,0,0,1-5.554,2.526,7.038,7.038,0,0,1-5.83-1.083c-.641-.509-1.621-1.159-2.122-.511a3.428,3.428,0,0,1-.7,4.517,5.593,5.593,0,0,1-4.781.938,16.581,16.581,0,0,1-4.6-2.039l-4.079-2.336-.079-1.927A29.943,29.943,0,0,1,4280.627-82.94Z" transform="translate(-4220.504 107.699)"/><path class="e" d="M4273.483-82.248a39.058,39.058,0,0,1-9.018-5.135c-.595-.453-1.226-1.277-.742-1.849a1.437,1.437,0,0,1,.942-.367l2.517-.323-5.489-5.243c-.494-.471-1.009-1.249-.548-1.752a1.282,1.282,0,0,1,.829-.313,16.4,16.4,0,0,1,12.364,3.751,9.1,9.1,0,0,1-.582-3.35,6.986,6.986,0,0,1,5.58,2.961,16.356,16.356,0,0,1,2.489,5.512,1.473,1.473,0,0,1,1.662-1.257,1.46,1.46,0,0,1,.242.056,3.256,3.256,0,0,1,1.626,2.639,13.524,13.524,0,0,1-.809,7.5c-.794,1.919-2.058,3.761-2.008,5.838l-1.635,4.407a3.205,3.205,0,0,0-.341-1.488,7.829,7.829,0,0,0-2.124-2.32q-2.829-2.355-5.659-4.708a3.2,3.2,0,0,1-1.1-1.325C4271.253-80.265,4272.43-81.444,4273.483-82.248Z" transform="translate(-4235.926 97.329)"/><path class="e" d="M4271.185-83.285a2.2,2.2,0,0,1-.548,1.48Z" transform="translate(-4226.205 111.443)"/><path class="v" d="M4265.6-50.676c-.827-2.23-4.74.776-6.348,2.526a21.218,21.218,0,0,0-3.517,6.167c-1.277,2.975-2.581,6.205-1.855,9.361s4.361,5.472,7.267,4.046C4265.463-30.7,4271.217-35.5,4265.6-50.676Z" transform="translate(-4243.256 143.418)"/><path class="h" d="M4263.94-1.48a9.9,9.9,0,0,1,.846-4.609c.758-1.381,2.458-2.39,3.932-1.823a6.857,6.857,0,0,0-9.369,2.709" transform="translate(-4237.55 186.298)"/><path class="w" d="M4267.756-36.554c-3.622,13.04-1.663,26.873-1.782,40.406-.07,7.711-.823,15.4-1.575,23.073" transform="translate(-4232.476 158.406)"/><path class="w" d="M4265.428,3.433A355.4,355.4,0,0,1,4263.186,51" transform="translate(-4233.694 198.592)"/><path class="k" d="M4261.086-16.214c.3,2.931,2.347,5.893,5.271,6.272a6.57,6.57,0,0,0,5.722-2.641,14.948,14.948,0,0,0,2.578-6,39.889,39.889,0,0,0,.777-14.72,6.538,6.538,0,0,0-1.2-3.354,2.838,2.838,0,0,0-3.213-.686c-1.949.756-1.361-.281-3.68.335S4259.362-27.526,4261.086-16.214Z" transform="translate(-4236.126 157.378)"/><path class="x" d="M4267.36-33.484a89.653,89.653,0,0,0,2.5,11.35c.978,3.753,2.732,7.521,5.927,9.716s8.087,2.228,10.568-.756a8.276,8.276,0,0,0,1.394-6.939,20.891,20.891,0,0,0-3.01-6.632,39.767,39.767,0,0,0-7.078-8.036c-2.27-2.1-5.518-3.761-8.334-2.683S4267.288-34.061,4267.36-33.484Z" transform="translate(-4229.65 157.152)"/><path class="x" d="M4279.051-21.775c-2.823-.425-4.542-3.28-4.869-6.113a17.675,17.675,0,0,1,1.994-10.346c1.143-2.115,2.971-4.126,5.362-4.379,2.425-.253,4.712,1.454,5.9,3.579S4288.8-34.4,4289.234-32C4290.526-24.852,4286.507-20.65,4279.051-21.775Z" transform="translate(-4222.755 152.292)"/><path class="v" d="M4267.864-34.491c-1.066-1.614-.219-3.733.733-5.417,1.98-3.5,4.68-7.454,8.7-7.509a2.725,2.725,0,0,1,2.028.674,3.2,3.2,0,0,1,.608,2.468c-.3,4.672-2.5,9.836-6.775,11.739C4269.971-31.115,4268.825-33.04,4267.864-34.491Z" transform="translate(-4229.491 147.479)"/><path class="h" d="M4268.629-38.572q.7.562,1.394,1.125" transform="translate(-4228.223 156.378)"/><path class="w" d="M4265.173,11.211c3.287-17.042,6.581-34.151,7.519-51.482.292-5.444.359-10.927,1.361-16.282.821-4.385,2.267-8.676,2.506-13.131.278-5.163-1.036-10.628,1.1-15.336" transform="translate(-4231.696 109.699)"/><path class="h" d="M4268.95-56.187c-.479-1.524,1.425-2.939,2.989-2.606s2.661,1.712,3.508,3.066a20.461,20.461,0,0,1,3.2,8.379c.573,4.834-1.158,9.612-2.862,14.173" transform="translate(-4227.979 136.007)"/><path class="h" d="M4274.478-52.234a24.292,24.292,0,0,1,4.031,12.258" transform="translate(-4222.346 142.648)"/><path class="h" d="M4275.1-51.325a19.05,19.05,0,0,1,7.274,18.474" transform="translate(-4221.716 143.562)"/><path class="h" d="M4270.594-35.177a4.3,4.3,0,0,0-3.322-5.095c-.054-.012-.1-.022-.158-.03" transform="translate(-4229.746 154.639)"/><path class="h" d="M4274.081-49.051a6.916,6.916,0,0,0-7.467-6.256,6.915,6.915,0,0,0-5.665,7.924" transform="translate(-4236.062 139.515)"/><path class="x" d="M4261.367-50.922a2.19,2.19,0,0,1,2.883-.319,6.392,6.392,0,0,1,1.978,2.476c1.909,3.455,3.859,7.035,4.225,10.967s-1.27,8.333-4.859,9.979a4.754,4.754,0,0,1-2.823.449c-2.035-.381-3.3-2.414-3.991-4.363a19.276,19.276,0,0,1,3.652-18.795" transform="translate(-4239.155 143.257)"/><path class="j" d="M4259.124-36.448c-3.109,1.275-7.57.636-9.074-2.372-1.516-3.034,1.221-6.456,4-8.4a35.906,35.906,0,0,1,11.594-5.351c1.251-.325,2.884-.549,3.628.509C4272.3-47.748,4268.253-40.189,4259.124-36.448Z" transform="translate(-4247.33 142.033)"/><path class="j" d="M4284.977-61.159a4.785,4.785,0,0,0-4.069-3.054c-1.872.016-3.406,1.578-4.262,3.282-1.714,3.41-1.778,13.8.937,15.5s5.752,1.716,8.666-1.095C4289.871-50.012,4285.722-59.5,4284.977-61.159Z" transform="translate(-4221.383 130.609)"/><path class="v" d="M4281.585-59.712c-.083-1.53-.015-3.178,1.381-3.807a4.55,4.55,0,0,1,4.344.65,13.377,13.377,0,0,1,3.073,3.386c1.49,2.073,3.013,4.228,3.529,6.727s-.252,5.486-2.49,6.709C4287.322-43.807,4282.355-45.042,4281.585-59.712Z" transform="translate(-4215.229 130.999)"/><path class="h" d="M4287.3-56.805a25.562,25.562,0,0,0-4.122-10.911c-.587-.872-1.453-1.8-2.488-1.628-1.281.217-1.646,1.859-1.724,3.156l-.417,7.029" transform="translate(-4218.251 125.431)"/><path class="h" d="M4279.318-69.219a40.272,40.272,0,0,1,3.224,15.318" transform="translate(-4217.482 125.579)"/><path class="h" d="M4288.8-63.825c-1.392-3.645-3.581-7.142-6.894-9.2s-7.9-2.368-11.005-.006" transform="translate(-4225.937 120.082)"/><path class="h" d="M4282.466-49.392a28.143,28.143,0,0,0-7.326-19.585,25.361,25.361,0,0,0-19.155-8.08" transform="translate(-4240.931 117.695)"/><path class="h" d="M4270.977-64.4c1.91-6.6,7.443-11.7,13.7-14.554s13.21-3.737,20.067-4.243" transform="translate(-4225.863 111.527)"/><path class="h" d="M4275.457-72.48a20.484,20.484,0,0,0-8.922-22.071" transform="translate(-4230.327 100.121)"/><path class="y" d="M4279.364-48.729c.491,2.6,2.026,5.363,4.617,5.921,2.77.6,5.483-1.8,6.226-4.533s.026-5.634-.8-8.341a11.91,11.91,0,0,0-1.927-4.14,4.368,4.368,0,0,0-4.027-1.716c-2.283.449-3.146,3.108-4.035,5.257C4278.857-54.943,4278.975-50.792,4279.364-48.729Z" transform="translate(-4217.767 133.237)"/><path class="v" d="M4250.76,10.543c-.542,2.9.581,6.316,3.281,7.5a6.559,6.559,0,0,0,6.235-.914,14.987,14.987,0,0,0,4.17-5.028,39.818,39.818,0,0,0,4.9-13.9,6.479,6.479,0,0,0-.2-3.555,2.839,2.839,0,0,0-2.888-1.568c-2.082.17-1.228-.654-3.625-.72S4252.3-.793,4250.76,10.543Z" transform="translate(-4246.314 187.466)"/><path class="v" d="M4271.77-29.416a6.473,6.473,0,0,0,3.254,1.893,8.764,8.764,0,0,0,8.527-3.749,13.588,13.588,0,0,0,2.051-9.411c-.291-2.46-1.487-5.257-3.922-5.7s-4.519,1.72-5.967,3.741c-1.714,2.4-3.146,4.978-4.7,7.479A4.311,4.311,0,0,0,4271.77-29.416Z" transform="translate(-4226.615 148.465)"/><path class="x" d="M4254.9,15.605c.262,2.935,2.267,5.923,5.186,6.34a6.558,6.558,0,0,0,5.755-2.566,15.006,15.006,0,0,0,2.657-5.969,39.905,39.905,0,0,0,.964-14.708,6.515,6.515,0,0,0-1.152-3.37,2.842,2.842,0,0,0-3.206-.728c-1.958.728-1.356-.3-3.685.287S4253.327,4.273,4254.9,15.605Z" transform="translate(-4242.286 189.499)"/><path class="j" d="M4259.875-2.14a89.679,89.679,0,0,0,2.5,11.352c.98,3.751,2.731,7.521,5.93,9.714s8.087,2.228,10.566-.754a8.285,8.285,0,0,0,1.4-6.939,20.938,20.938,0,0,0-3.012-6.634,39.8,39.8,0,0,0-7.076-8.036c-2.27-2.1-5.518-3.761-8.336-2.683A3.055,3.055,0,0,0,4259.875-2.14Z" transform="translate(-4237.174 188.652)"/><path class="i" d="M4262.108-5.872c1.167-.541,3.8-1.923,6.228-.046s3.243,2.462,3.243,2.462l-5.022-.956.486,5.9-3.2-4.6s-1.109-.339-1.949,1.847a5.371,5.371,0,0,1-2.9,3.138c-.5.225,1.368-.972,1.451-3.22S4259.748-4.772,4262.108-5.872Z" transform="translate(-4237.992 188.236)"/><path class="i" d="M4264.925-7.128s3.574.451,3.284,3.2-.092,5.552.851,6.284-2.624-1.371-2.688-3.547-.818-2.665-.818-2.665-3.936.872-5.49,3.735-3.181,2.215-3.181,2.215,1.884-4.447,4.1-5.849-2.474-1.017-4.893.89-4.016.245-4.016.245a6.3,6.3,0,0,0,4.591-2.821C4258.407-8.11,4262.591-9.973,4264.925-7.128Z" transform="translate(-4244.859 186.547)"/><path class="i" d="M4269.585-37.074s2.553-1.71,4.371-.824,3.033,2.065,4.08,1.931.441.531-1.086.672a9.88,9.88,0,0,1-3.975-1.093l1.247,6.446-3.392-5.319s.224,3.86-2.18,4.644-2.594.116-2.594.116a3.3,3.3,0,0,0,2.462-2.631C4268.9-35.336,4267.21-35.228,4269.585-37.074Z" transform="translate(-4230.81 156.799)"/><path class="i" d="M4263.958-51.776s-.692-1.67-3.188-1.193a4.283,4.283,0,0,1-3.776-.8s-1.649,2.127.5,2.653,3.951.934,3.951.934l-5.772,3.611,5.544-.385a7.452,7.452,0,0,0-2.548,3.84c-.5,2.3.754,2.141.754,2.141s1.19-3.19,2.7-3.862-.129,4.01-.129,4.01a34.644,34.644,0,0,1,2.544-5.113C4266.127-48.538,4266.477-50.82,4263.958-51.776Z" transform="translate(-4241.247 141.109)"/><path class="i" d="M4282.03-61.008c1.164-.543,3.8-1.921,6.225-.046s3.242,2.462,3.242,2.462l-5.022-.958.487,5.9-3.2-4.6s-1.109-.339-1.949,1.847a5.381,5.381,0,0,1-2.9,3.138c-.5.223,1.367-.974,1.454-3.222S4279.662-59.908,4282.03-61.008Z" transform="translate(-4217.977 132.826)"/></g><path class="z" d="M4268.782-83.079l10.959-1.173-9.914-.371,9.565-.513" transform="translate(-4228.07 119.756)"/><path class="z" d="M4268.853-70.291l12.256,6" transform="translate(-4228 134.675)"/><path class="z" d="M4273.182-66.664l4.852-.014a18.036,18.036,0,0,0-5.83,1.6,15.513,15.513,0,0,0,4.453.273l-4.268.934,2.18-.02" transform="translate(-4224.632 138.306)"/><path class="z" d="M4263.471-10.213a64.244,64.244,0,0,0,23.157-4.068" transform="translate(-4233.408 190.963)"/><path class="z" d="M4273.407-12.588a7.127,7.127,0,0,0,4.636,1.678,42.2,42.2,0,0,0-4.8-2.915l7.147,1.6-6.369-3.727,5.959,2.791" transform="translate(-4223.582 189.28)"/></g><path class="aa" d="M4252.521,21.51v.461" transform="translate(-2763.785 2470.663)"/><path class="aa" d="M4254.827,23.814" transform="translate(-2761.468 2472.978)"/><path class="aa" d="M4255.52,20.586h-.464" transform="translate(-2761.238 2469.734)"/><path class="aa" d="M4256.383,22.252v.465" transform="translate(-2759.904 2471.408)"/><path class="aa" d="M4258.919,20.408" transform="translate(-2757.355 2469.555)"/><path class="aa" d="M4259.38,23.635" transform="translate(-2756.892 2472.798)"/><path class="aa" d="M4278.975,22.252h.464" transform="translate(-2737.199 2471.408)"/><path class="aa" d="M4282.433,19.947v.465" transform="translate(-2733.725 2469.092)"/><path class="aa" d="M4284.738,22.022" transform="translate(-2731.408 2471.177)"/><path class="i" d="M4251.652,29.465q-2.495-7.119-4.989-14.239c-.389-1.111-.743-2.458,0-3.37,1.977.18,2.812,2.562,3.2,4.511q1.1,5.624,2.2,11.25a75.772,75.772,0,0,1,3.43-12.327c.642-1.73,1.7-3.707,3.539-3.85.861,2.224-.408,4.65-1.637,6.695q-2.774,4.613-5.547,9.225" transform="translate(-2770.108 2460.543)"/><path class="i" d="M4125.166,38.088l-12.005-21.337c-.87-1.544-1.7-3.607-.525-4.94a3.349,3.349,0,0,1,3.572-.567c3.1,1.053,4.988,4.158,6.288,7.166a46.97,46.97,0,0,1,3.834,19.47" transform="translate(-2904.947 2460.09)"/><path class="i" d="M4120,38.062a55.88,55.88,0,0,1,6.076-24.814,6.019,6.019,0,0,1,1.948-2.506,2.224,2.224,0,0,1,2.907.319,2.5,2.5,0,0,1,.394,1.416,10.674,10.674,0,0,1-1.375,4.672q-4.926,10.448-9.855,20.9" transform="translate(-2896.96 2459.452)"/><path class="i" d="M4283.593,32.6a19.618,19.618,0,0,1,10.973-19.8,9.085,9.085,0,0,1,5.283-.964,4.5,4.5,0,0,1,3.757,3.463c-2.291.872-4.5,1.957-6.7,3.04a26.214,26.214,0,0,0-5.579,3.338c-2.741,2.336-4.387,5.674-5.961,8.914" transform="translate(-2732.703 2460.852)"/><g transform="translate(1136.21 2257.073)"><path class="d" d="M4088.174-82.9s27.328,15.944,26.082,64.063c-1.072,41.326-4.732,143.61-4.732,143.61h2.277l4.84-147.606S4120.058-67.813,4088.174-82.9Z" transform="translate(-4065.158 108.659)"/><g transform="translate(25.585)"><path class="e" d="M4097.559-87.328c1.494-3.35,3.5-5.712,4.482-5.273s.568,3.509-.923,6.859a13.477,13.477,0,0,1-4.484,5.273A13.466,13.466,0,0,1,4097.559-87.328Z" transform="translate(-4082.348 98.86)"/><path class="e" d="M4099.466-81.762c1.867-3.158,4.13-5.275,5.057-4.728s.162,3.551-1.7,6.709a13.474,13.474,0,0,1-5.057,4.728A13.476,13.476,0,0,1,4099.466-81.762Z" transform="translate(-4081.11 104.967)"/><path class="e" d="M4100.111-74.765c1.865-3.158,4.128-5.275,5.055-4.728s.165,3.551-1.7,6.709a13.471,13.471,0,0,1-5.054,4.728A13.476,13.476,0,0,1,4100.111-74.765Z" transform="translate(-4080.461 111.999)"/><path class="e" d="M4096.192-82.06c-2.828-2.338-4.564-4.9-3.878-5.734s3.533.395,6.36,2.731a13.5,13.5,0,0,1,3.879,5.734A13.5,13.5,0,0,1,4096.192-82.06Z" transform="translate(-4086.733 103.482)"/><path class="e" d="M4097.1-76.578c-2.827-2.338-4.563-4.9-3.878-5.734s3.534.395,6.361,2.731a13.488,13.488,0,0,1,3.876,5.734A13.494,13.494,0,0,1,4097.1-76.578Z" transform="translate(-4085.817 108.992)"/><path class="e" d="M4093.483-89.756c-2.828-2.336-4.563-4.9-3.877-5.732s3.533.393,6.359,2.731a13.484,13.484,0,0,1,3.879,5.732A13.475,13.475,0,0,1,4093.483-89.756Z" transform="translate(-4089.456 95.749)"/><path class="f" d="M4102.188-52.076s1.709-24.078-7.958-39.811" transform="translate(-4084.658 99.63)"/></g><g transform="translate(49.877 52.437)"><path class="e" d="M4114.713-59.627c3.29-1.624,6.342-2.157,6.817-1.193s-1.8,3.064-5.093,4.686a13.484,13.484,0,0,1-6.817,1.195A13.47,13.47,0,0,1,4114.713-59.627Z" transform="translate(-4093.481 77.931)"/><path class="e" d="M4115.925-64.654c3.289-1.624,6.342-2.157,6.818-1.193s-1.8,3.062-5.093,4.686a13.472,13.472,0,0,1-6.818,1.193A13.477,13.477,0,0,1,4115.925-64.654Z" transform="translate(-4092.266 72.879)"/><path class="e" d="M4112.452-54.453c3.453-1.237,6.546-1.42,6.91-.407s-2.144,2.837-5.6,4.074a13.485,13.485,0,0,1-6.91.407A13.464,13.464,0,0,1,4112.452-54.453Z" transform="translate(-4096.26 83.746)"/><path class="e" d="M4108.478-48.658c3.453-1.237,6.546-1.42,6.91-.407s-2.142,2.837-5.6,4.074a13.481,13.481,0,0,1-6.909.407A13.485,13.485,0,0,1,4108.478-48.658Z" transform="translate(-4100.254 89.57)"/><path class="e" d="M4106.984-55.047c-.681-3.6-.376-6.689.68-6.887s2.466,2.558,3.147,6.163a13.487,13.487,0,0,1-.679,6.889A13.483,13.483,0,0,1,4106.984-55.047Z" transform="translate(-4096.497 77.284)"/><path class="e" d="M4104.182-50.248c-.681-3.6-.376-6.689.681-6.887s2.466,2.558,3.147,6.163a13.476,13.476,0,0,1-.681,6.889A13.494,13.494,0,0,1,4104.182-50.248Z" transform="translate(-4099.312 82.107)"/><path class="e" d="M4109.817-62.7c-.682-3.6-.377-6.689.68-6.887s2.465,2.558,3.147,6.163a13.493,13.493,0,0,1-.679,6.889A13.485,13.485,0,0,1,4109.817-62.7Z" transform="translate(-4093.65 69.595)"/><path class="f" d="M4101.571-28.006s16.7-17.429,19.313-35.711" transform="translate(-4101.571 75.502)"/></g><g transform="translate(47.766 115.803)"><path class="e" d="M4112.391-28c3.161-1.859,6.167-2.614,6.712-1.688s-1.576,3.186-4.738,5.047a13.492,13.492,0,0,1-6.712,1.688A13.483,13.483,0,0,1,4112.391-28Z" transform="translate(-4093.349 45.941)"/><path class="e" d="M4113.23-33.1c3.162-1.861,6.168-2.616,6.713-1.688s-1.577,3.186-4.739,5.045a13.462,13.462,0,0,1-6.712,1.688A13.467,13.467,0,0,1,4113.23-33.1Z" transform="translate(-4092.503 40.813)"/><path class="e" d="M4110.558-22.665c3.354-1.488,6.426-1.895,6.861-.912s-1.929,2.987-5.284,4.473a13.484,13.484,0,0,1-6.861.91A13.462,13.462,0,0,1,4110.558-22.665Z" transform="translate(-4095.739 51.938)"/><path class="e" d="M4107.019-16.6c3.353-1.488,6.425-1.895,6.861-.912s-1.929,2.987-5.283,4.473a13.488,13.488,0,0,1-6.862.91A13.475,13.475,0,0,1,4107.019-16.6Z" transform="translate(-4099.295 58.038)"/><path class="e" d="M4105.146-23.215c-.944-3.545-.866-6.642.174-6.919s2.647,2.374,3.589,5.919a13.458,13.458,0,0,1-.173,6.919A13.483,13.483,0,0,1,4105.146-23.215Z" transform="translate(-4096.531 45.867)"/><path class="e" d="M4102.7-18.224c-.943-3.545-.866-6.642.174-6.919s2.646,2.374,3.591,5.919a13.485,13.485,0,0,1-.174,6.919A13.464,13.464,0,0,1,4102.7-18.224Z" transform="translate(-4098.986 50.883)"/><path class="e" d="M4107.412-31.052c-.944-3.545-.866-6.642.175-6.919s2.646,2.372,3.589,5.917a13.464,13.464,0,0,1-.174,6.919A13.465,13.465,0,0,1,4107.412-31.052Z" transform="translate(-4094.256 37.991)"/><path class="f" d="M4100.518,4.814s15.38-18.6,16.652-37.028" transform="translate(-4100.518 43.797)"/></g><g transform="translate(5.699 83.428)"><path class="e" d="M4089.232-44.76c-3.649-.377-6.7.184-6.807,1.255s2.759,2.244,6.406,2.62a13.476,13.476,0,0,0,6.807-1.255A13.473,13.473,0,0,0,4089.232-44.76Z" transform="translate(-4076.636 63.445)"/><path class="e" d="M4086.347-49.051c-3.65-.377-6.7.184-6.808,1.255s2.759,2.244,6.409,2.621a13.48,13.48,0,0,0,6.806-1.255A13.482,13.482,0,0,0,4086.347-49.051Z" transform="translate(-4079.536 59.132)"/><path class="e" d="M4093.4-40.556c-3.667.042-6.63.948-6.618,2.023s3,1.915,6.662,1.873a13.475,13.475,0,0,0,6.621-2.025A13.482,13.482,0,0,0,4093.4-40.556Z" transform="translate(-4072.256 67.787)"/><path class="e" d="M4099.144-36.507c-3.667.042-6.631.948-6.619,2.025s3,1.913,6.665,1.871a13.478,13.478,0,0,0,6.618-2.023A13.472,13.472,0,0,0,4099.144-36.507Z" transform="translate(-4066.486 71.857)"/><path class="e" d="M4093.6-41.722c-.616-3.617-1.975-6.4-3.036-6.221s-1.42,3.26-.8,6.875a13.469,13.469,0,0,0,3.035,6.221A13.488,13.488,0,0,0,4093.6-41.722Z" transform="translate(-4069.564 60.355)"/><path class="e" d="M4097.9-38.2c-.615-3.615-1.972-6.4-3.033-6.219s-1.421,3.258-.807,6.875a13.482,13.482,0,0,0,3.037,6.219A13.484,13.484,0,0,0,4097.9-38.2Z" transform="translate(-4065.245 63.896)"/><path class="e" d="M4088.283-47.91c-.616-3.615-1.976-6.4-3.035-6.219s-1.422,3.258-.806,6.875a13.493,13.493,0,0,0,3.035,6.219A13.48,13.48,0,0,0,4088.283-47.91Z" transform="translate(-4074.909 54.138)"/><path class="f" d="M4116.12-21.446S4094.4-31.974,4085.584-48.2" transform="translate(-4073.46 60.106)"/></g><g transform="translate(13.353 141.88)"><path class="e" d="M4091.885-15.088c-3.4-1.363-6.49-1.66-6.889-.662s2.037,2.913,5.441,4.277a13.484,13.484,0,0,0,6.889.662A13.445,13.445,0,0,0,4091.885-15.088Z" transform="translate(-4081.749 33.672)"/><path class="e" d="M4090.287-20.008c-3.4-1.363-6.49-1.658-6.89-.66s2.036,2.913,5.441,4.277a13.485,13.485,0,0,0,6.89.662A13.458,13.458,0,0,0,4090.287-20.008Z" transform="translate(-4083.355 28.729)"/><path class="e" d="M4094.82-10.1c-3.539-.964-6.637-.906-6.919.132s2.355,2.661,5.895,3.627a13.5,13.5,0,0,0,6.921-.13A13.487,13.487,0,0,0,4094.82-10.1Z" transform="translate(-4078.807 39.25)"/><path class="e" d="M4099.233-4.635c-3.539-.964-6.636-.906-6.921.132s2.355,2.661,5.894,3.627a13.5,13.5,0,0,0,6.921-.13A13.481,13.481,0,0,0,4099.233-4.635Z" transform="translate(-4074.375 44.746)"/><path class="e" d="M4095.879-10.758c.4-3.647-.145-6.7-1.213-6.815s-2.26,2.743-2.661,6.39a13.486,13.486,0,0,0,1.214,6.815A13.5,13.5,0,0,0,4095.879-10.758Z" transform="translate(-4074.725 32.43)"/><path class="e" d="M4099.045-6.191c.4-3.647-.145-6.7-1.213-6.815s-2.259,2.743-2.661,6.39A13.492,13.492,0,0,0,4096.385.2,13.5,13.5,0,0,0,4099.045-6.191Z" transform="translate(-4071.544 37.019)"/><path class="e" d="M4092.461-18.168c.4-3.645-.142-6.7-1.213-6.813s-2.259,2.743-2.659,6.39a13.467,13.467,0,0,0,1.211,6.813A13.459,13.459,0,0,0,4092.461-18.168Z" transform="translate(-4078.16 24.985)"/><path class="f" d="M4111.14,15.072s-18-16.08-22.028-34.1" transform="translate(-4077.57 30.966)"/></g><g transform="translate(6.469 182.04)"><path class="e" d="M4089.127,4.713c-3.563-.868-6.658-.726-6.913.319s2.429,2.6,5.992,3.467a13.485,13.485,0,0,0,6.913-.319A13.474,13.474,0,0,0,4089.127,4.713Z" transform="translate(-4077.633 14.098)"/><path class="e" d="M4086.851.071c-3.563-.87-6.659-.728-6.914.319s2.429,2.6,5.992,3.465a13.481,13.481,0,0,0,6.915-.317A13.471,13.471,0,0,0,4086.851.071Z" transform="translate(-4079.921 9.431)"/><path class="e" d="M4092.727,9.316c-3.642-.457-6.7.038-6.833,1.107s2.709,2.3,6.348,2.759a13.469,13.469,0,0,0,6.833-1.107A13.489,13.489,0,0,0,4092.727,9.316Z" transform="translate(-4073.923 19.124)"/><path class="e" d="M4097.866,14.108c-3.64-.457-6.7.038-6.833,1.107s2.707,2.3,6.348,2.759a13.47,13.47,0,0,0,6.833-1.107A13.489,13.489,0,0,0,4097.866,14.108Z" transform="translate(-4068.758 23.94)"/><path class="e" d="M4093.269,8.474c-.119-3.667-1.087-6.61-2.162-6.576s-1.851,3.036-1.732,6.7a13.472,13.472,0,0,0,2.162,6.574A13.48,13.48,0,0,0,4093.269,8.474Z" transform="translate(-4070.433 11.84)"/><path class="e" d="M4097.047,12.549c-.119-3.667-1.088-6.61-2.162-6.576s-1.849,3.036-1.732,6.7a13.474,13.474,0,0,0,2.162,6.576A13.493,13.493,0,0,0,4097.047,12.549Z" transform="translate(-4066.635 15.935)"/><path class="e" d="M4088.84,1.622c-.118-3.667-1.086-6.61-2.162-6.576s-1.85,3.036-1.732,6.7a13.475,13.475,0,0,0,2.162,6.574A13.482,13.482,0,0,0,4088.84,1.622Z" transform="translate(-4074.883 4.954)"/><path class="f" d="M4112.5,31.7s-20.09-13.381-26.618-30.656" transform="translate(-4073.932 10.984)"/></g><g transform="translate(46.312 142.498)"><g transform="translate(0 42.516)"><path class="e" d="M4114.783,6.375c3.455-1.235,6.549-1.418,6.91-.405s-2.142,2.837-5.6,4.074a13.49,13.49,0,0,1-6.908.405A13.482,13.482,0,0,1,4114.783,6.375Z" transform="translate(-4090.353 12.301)"/><path class="e" d="M4116.563,1.521c3.452-1.237,6.545-1.42,6.909-.407s-2.144,2.837-5.6,4.074a13.47,13.47,0,0,1-6.91.405A13.477,13.477,0,0,1,4116.563,1.521Z" transform="translate(-4088.565 7.421)"/><path class="e" d="M4111.874,11.267c3.574-.834,6.667-.662,6.911.385s-2.451,2.574-6.024,3.408a13.48,13.48,0,0,1-6.911-.387A13.492,13.492,0,0,1,4111.874,11.267Z" transform="translate(-4093.708 17.751)"/><path class="e" d="M4107.265,16.569c3.572-.834,6.667-.662,6.91.387s-2.45,2.572-6.023,3.406a13.472,13.472,0,0,1-6.911-.387A13.482,13.482,0,0,1,4107.265,16.569Z" transform="translate(-4098.34 23.079)"/><path class="e" d="M4106.461,10.574c-.266-3.659.388-6.689,1.461-6.767s2.157,2.827,2.424,6.484a13.484,13.484,0,0,1-1.463,6.765A13.467,13.467,0,0,1,4106.461,10.574Z" transform="translate(-4093.152 10.783)"/><path class="e" d="M4103.128,15.02c-.265-3.659.391-6.689,1.464-6.765s2.156,2.825,2.422,6.482a13.5,13.5,0,0,1-1.463,6.767A13.478,13.478,0,0,1,4103.128,15.02Z" transform="translate(-4096.501 15.253)"/><path class="e" d="M4110.148,3.3c-.264-3.659.392-6.689,1.465-6.765s2.156,2.825,2.421,6.482a13.487,13.487,0,0,1-1.463,6.767A13.472,13.472,0,0,1,4110.148,3.3Z" transform="translate(-4089.445 3.471)"/><path class="f" d="M4099.794,35.771s18.582-15.4,23.271-33.266" transform="translate(-4099.794 9.476)"/></g><g transform="translate(21.397)"><path class="e" d="M4120.585-14.829c2.738-2.442,5.537-3.771,6.252-2.969s-.922,3.435-3.66,5.877a13.461,13.461,0,0,1-6.251,2.967A13.491,13.491,0,0,1,4120.585-14.829Z" transform="translate(-4103.972 31.354)"/><path class="e" d="M4120.413-20c2.736-2.442,5.535-3.771,6.25-2.969s-.922,3.433-3.659,5.875a13.483,13.483,0,0,1-6.251,2.969A13.479,13.479,0,0,1,4120.413-20Z" transform="translate(-4104.146 26.16)"/><path class="e" d="M4119.949-9.2c3-2.113,5.93-3.114,6.551-2.234s-1.309,3.3-4.3,5.417a13.5,13.5,0,0,1-6.553,2.236A13.484,13.484,0,0,1,4119.949-9.2Z" transform="translate(-4105.262 37.661)"/><path class="e" d="M4117.665-2.557c3-2.113,5.931-3.114,6.551-2.236s-1.308,3.306-4.305,5.419a13.494,13.494,0,0,1-6.552,2.236A13.491,13.491,0,0,1,4117.665-2.557Z" transform="translate(-4107.558 44.339)"/><path class="e" d="M4114.945-9.664c-1.617-3.292-2.146-6.346-1.183-6.821s3.059,1.81,4.681,5.1a13.462,13.462,0,0,1,1.179,6.819A13.472,13.472,0,0,1,4114.945-9.664Z" transform="translate(-4107.637 32.846)"/><path class="e" d="M4113.523-4.293c-1.619-3.292-2.147-6.346-1.181-6.819s3.059,1.808,4.677,5.1A13.49,13.49,0,0,1,4118.2.81,13.479,13.479,0,0,1,4113.523-4.293Z" transform="translate(-4109.063 38.245)"/><path class="e" d="M4115.634-17.793c-1.618-3.292-2.147-6.346-1.183-6.821s3.059,1.81,4.677,5.1a13.462,13.462,0,0,1,1.183,6.821A13.5,13.5,0,0,1,4115.634-17.793Z" transform="translate(-4106.944 24.676)"/><path class="f" d="M4110.466,29.883s15.381-30.879,13.026-49.2" transform="translate(-4110.466 30.066)"/></g></g><g transform="translate(0 49.671)"><path class="e" d="M4086.659-64.335c-2.156-2.967-3.2-5.887-2.326-6.518s3.322,1.261,5.477,4.23a13.472,13.472,0,0,1,2.326,6.518A13.463,13.463,0,0,1,4086.659-64.335Z" transform="translate(-4069.329 70.975)"/><path class="e" d="M4092.158-62.689c-1.8-3.2-2.5-6.215-1.566-6.743s3.158,1.634,4.958,4.828a13.473,13.473,0,0,1,1.565,6.743A13.472,13.472,0,0,1,4092.158-62.689Z" transform="translate(-4063.147 72.445)"/><path class="e" d="M4098.54-59.751c-1.8-3.194-2.5-6.213-1.566-6.741s3.155,1.632,4.958,4.828a13.465,13.465,0,0,1,1.567,6.743A13.47,13.47,0,0,1,4098.54-59.751Z" transform="translate(-4056.732 75.4)"/><path class="e" d="M4091.655-60.515c-3.439,1.279-6.528,1.5-6.9.491s2.107-2.863,5.544-4.142a13.482,13.482,0,0,1,6.9-.491A13.465,13.465,0,0,1,4091.655-60.515Z" transform="translate(-4068.636 77.082)"/><path class="e" d="M4096.858-58.562c-3.438,1.279-6.529,1.5-6.9.491s2.107-2.863,5.545-4.142a13.487,13.487,0,0,1,6.906-.491A13.513,13.513,0,0,1,4096.858-58.562Z" transform="translate(-4063.408 79.045)"/><path class="e" d="M4083.635-62.017c-3.438,1.279-6.527,1.5-6.9.491s2.107-2.863,5.543-4.142a13.486,13.486,0,0,1,6.905-.491A13.473,13.473,0,0,1,4083.635-62.017Z" transform="translate(-4076.695 75.573)"/><path class="f" d="M4120.75-53.149s-20-13.52-38.455-13.016" transform="translate(-4071.067 75.795)"/></g><g transform="translate(47.819 98.983)"><ellipse class="g" cx="5.396" cy="6.56" rx="5.396" ry="6.56" transform="translate(0 13.889) rotate(-20.645)"/><path class="h" d="M4101.5-46.38a29.9,29.9,0,0,1,2.387,11.346" transform="translate(-4099.588 46.38)"/><path class="i" d="M4103.5-40.3c.865-.4,2.82-1.424,4.613-.034s2.4,1.825,2.4,1.825l-3.719-.71.358,4.373-2.365-3.408s-.822-.251-1.445,1.367a3.981,3.981,0,0,1-2.15,2.326c-.374.164,1.015-.722,1.076-2.386S4101.75-39.482,4103.5-40.3Z" transform="translate(-4099.956 51.749)"/></g><g transform="translate(49.909 96.102)"><ellipse class="g" cx="5.396" cy="6.56" rx="5.396" ry="6.56" transform="matrix(0.415, -0.91, 0.91, 0.415, 4.664, 9.817)"/><path class="h" d="M4101.587-46.384a8.575,8.575,0,0,1,5.919,2.113" transform="translate(-4101.587 49.256)"/><path class="i" d="M4104.418-43.188c.33-.894,1-3,3.247-3.276s2.988-.4,2.988-.4l-3.137,2.119,3.336,2.847-4.081-.748s-.76.4-.06,1.989a3.988,3.988,0,0,1,.113,3.164c-.149.381.21-1.225-.918-2.452S4103.749-41.375,4104.418-43.188Z" transform="translate(-4098.955 48.775)"/></g><g transform="translate(36.448 98.534)"><ellipse class="g" cx="5.518" cy="4.539" rx="5.518" ry="4.539" transform="matrix(0.548, -0.837, 0.837, 0.548, 0, 11.294)"/><path class="h" d="M4100.151-42.444a7.2,7.2,0,0,1,3.262-4.16" transform="translate(-4089.571 46.604)"/><path class="i" d="M4103.892-40.865a3.986,3.986,0,0,0,.448,2.155,3.34,3.34,0,0,1-1.339-2.3c-.215-1.444-.936-1.387-.936-1.387l-2.568,2.364,1.1-3.525-3.184-.1s.578-.247,2.305-1.057,3.144.383,3.779.872C4104.785-42.852,4104.146-42.245,4103.892-40.865Z" transform="translate(-4092.322 48.226)"/></g><g transform="translate(46.147 122.279)"><ellipse class="g" cx="5.396" cy="6.56" rx="5.396" ry="6.56" transform="translate(0 13.887) rotate(-20.645)"/><path class="h" d="M4100.662-34.761a29.845,29.845,0,0,1,2.39,11.346" transform="translate(-4098.756 34.761)"/><path class="i" d="M4102.668-28.679c.865-.4,2.818-1.424,4.611-.036s2.4,1.825,2.4,1.825l-3.719-.71.359,4.373-2.366-3.406s-.822-.251-1.444,1.367a3.98,3.98,0,0,1-2.151,2.324c-.373.166,1.013-.72,1.077-2.386S4100.917-27.865,4102.668-28.679Z" transform="translate(-4099.121 40.129)"/></g><g transform="translate(48.235 119.397)"><ellipse class="x" cx="5.396" cy="6.56" rx="5.396" ry="6.56" transform="matrix(0.415, -0.91, 0.91, 0.415, 4.666, 9.817)"/><path class="h" d="M4100.752-34.766a8.564,8.564,0,0,1,5.921,2.115" transform="translate(-4100.752 37.638)"/><path class="i" d="M4103.584-31.571c.329-.894.995-3,3.246-3.274s2.989-.4,2.989-.4l-3.139,2.117,3.337,2.849-4.08-.748s-.76.4-.06,1.987a3.988,3.988,0,0,1,.113,3.164c-.149.381.21-1.225-.918-2.45S4102.916-29.758,4103.584-31.571Z" transform="translate(-4098.12 37.157)"/></g><g transform="translate(34.776 121.827)"><ellipse class="g" cx="5.518" cy="4.539" rx="5.518" ry="4.539" transform="matrix(0.548, -0.837, 0.837, 0.548, 0, 11.295)"/><path class="h" d="M4099.316-30.824a7.21,7.21,0,0,1,3.262-4.162" transform="translate(-4088.736 34.986)"/><path class="i" d="M4103.06-29.248a3.979,3.979,0,0,0,.447,2.155,3.341,3.341,0,0,1-1.34-2.3c-.215-1.442-.934-1.385-.934-1.385l-2.568,2.362,1.1-3.523-3.184-.1s.578-.247,2.306-1.059,3.143.385,3.778.874C4103.951-31.234,4103.312-30.625,4103.06-29.248Z" transform="translate(-4091.489 36.608)"/></g><g transform="translate(46.147 164.387)"><ellipse class="g" cx="5.396" cy="6.56" rx="5.396" ry="6.56" transform="translate(0 13.887) rotate(-20.645)"/><path class="h" d="M4100.662-13.759a29.845,29.845,0,0,1,2.39,11.346" transform="translate(-4098.756 13.759)"/><path class="i" d="M4102.668-7.676c.865-.4,2.818-1.426,4.611-.036s2.4,1.825,2.4,1.825l-3.719-.71.359,4.373-2.366-3.406s-.822-.251-1.444,1.367a3.98,3.98,0,0,1-2.151,2.324c-.373.166,1.013-.722,1.077-2.386S4100.917-6.862,4102.668-7.676Z" transform="translate(-4099.121 19.127)"/></g><g transform="translate(48.235 161.505)"><ellipse class="x" cx="5.396" cy="6.56" rx="5.396" ry="6.56" transform="matrix(0.415, -0.91, 0.91, 0.415, 4.666, 9.817)"/><path class="h" d="M4100.752-13.764a8.564,8.564,0,0,1,5.921,2.115" transform="translate(-4100.752 16.636)"/><path class="i" d="M4103.584-10.569c.329-.894.995-3,3.246-3.276s2.989-.4,2.989-.4l-3.139,2.117,3.337,2.849-4.08-.748s-.76.4-.06,1.987a3.988,3.988,0,0,1,.113,3.164c-.149.381.21-1.225-.918-2.45S4102.916-8.756,4103.584-10.569Z" transform="translate(-4098.12 16.156)"/></g><g transform="translate(34.776 163.936)"><ellipse class="g" cx="5.518" cy="4.539" rx="5.518" ry="4.539" transform="matrix(0.548, -0.837, 0.837, 0.548, 0, 11.294)"/><path class="h" d="M4099.316-9.822a7.2,7.2,0,0,1,3.262-4.162" transform="translate(-4088.736 13.984)"/><path class="i" d="M4103.06-8.246a3.979,3.979,0,0,0,.447,2.155,3.341,3.341,0,0,1-1.34-2.3c-.215-1.442-.934-1.387-.934-1.387l-2.568,2.364,1.1-3.523-3.184-.1s.578-.247,2.306-1.059,3.143.385,3.778.872C4103.951-10.232,4103.312-9.625,4103.06-8.246Z" transform="translate(-4091.489 15.606)"/></g><g transform="translate(47.52 72.138)"><ellipse class="k" cx="5.396" cy="6.56" rx="5.396" ry="6.56" transform="translate(0 13.887) rotate(-20.645)"/><path class="h" d="M4101.348-59.769a29.843,29.843,0,0,1,2.388,11.346" transform="translate(-4099.44 59.769)"/><path class="i" d="M4103.355-53.686c.865-.4,2.816-1.426,4.611-.036s2.4,1.825,2.4,1.825l-3.722-.71.36,4.373-2.367-3.406s-.822-.251-1.444,1.367a3.984,3.984,0,0,1-2.148,2.324c-.375.166,1.012-.722,1.073-2.386S4101.6-52.872,4103.355-53.686Z" transform="translate(-4099.806 65.137)"/></g><g transform="translate(49.61 69.256)"><ellipse class="g" cx="5.396" cy="6.56" rx="5.396" ry="6.56" transform="matrix(0.415, -0.91, 0.91, 0.415, 4.665, 9.817)"/><path class="h" d="M4101.438-59.774a8.569,8.569,0,0,1,5.921,2.115" transform="translate(-4101.438 62.646)"/><path class="i" d="M4104.27-56.579c.329-.894.995-3,3.246-3.276s2.989-.4,2.989-.4l-3.137,2.117,3.336,2.849-4.081-.748s-.759.4-.059,1.987a3.986,3.986,0,0,1,.111,3.164,4.725,4.725,0,0,0-.919-2.45C4104.628-54.56,4103.6-54.766,4104.27-56.579Z" transform="translate(-4098.806 62.166)"/></g><g transform="translate(36.15 71.687)"><ellipse class="x" cx="5.518" cy="4.539" rx="5.518" ry="4.539" transform="matrix(0.548, -0.837, 0.837, 0.548, 0, 11.294)"/><path class="h" d="M4100-55.832a7.215,7.215,0,0,1,3.262-4.162" transform="translate(-4089.422 59.994)"/><path class="i" d="M4103.745-54.256a3.985,3.985,0,0,0,.447,2.155,3.354,3.354,0,0,1-1.34-2.3c-.214-1.442-.934-1.387-.934-1.387l-2.568,2.364,1.1-3.523-3.184-.1s.579-.247,2.306-1.059,3.144.385,3.778.872C4104.636-56.242,4104-55.635,4103.745-54.256Z" transform="translate(-4092.174 61.616)"/></g></g><path class="l" d="M4198.562-49.3s-11.515,19.071-16.482,24.968A93.29,93.29,0,0,0,4168.15-2.818C4163.563,7.069,4150.826,29,4150.826,29l6.275,2.141s19.145-15.831,25.751-26.107c4.312-6.861,16.684-15.075,20.93-21.977,4.976-8.084,15.065-17.421,15.065-27.931C4218.848-54.919,4198.562-49.3,4198.562-49.3Z" transform="translate(-2865.985 2397.928)"/><path class="l" d="M4165.479-10.281c-.017.188-.034.377-.051.565a122.338,122.338,0,0,1-3.488,19.669,3.477,3.477,0,0,1-.646,1.464,1.278,1.278,0,0,1-1.48.371c-.87-.461-.517-1.718-.231-2.635a6.682,6.682,0,0,0-.083-4.158l-3.319,8.331a4.663,4.663,0,0,1-1.143,1.9,1.7,1.7,0,0,1-2.1.174c-.83-.68-.443-1.963-.021-2.921a31.448,31.448,0,0,0,2.456-8.319c-3.021,2.123-4.3,5.885-6.753,8.615a1.161,1.161,0,0,1-.982.513,2.838,2.838,0,0,1-2.378-2.228l5.683-7.112a3.106,3.106,0,0,0,.768-1.409,1.116,1.116,0,0,0-.771-1.275,1.647,1.647,0,0,0-1.261.525L4145.99,4.83a2.093,2.093,0,0,1-1.191.606,1.464,1.464,0,0,1-1.291-1.706,3.827,3.827,0,0,1,1.255-2,49.667,49.667,0,0,1,5.347-4.7,1.4,1.4,0,0,0,.636-.79c.116-.684-.756-1.1-1.457-1.235a16.958,16.958,0,0,0-5.034-.18,4.09,4.09,0,0,1,3.118-3.09,12.975,12.975,0,0,1,4.7-.108,12.209,12.209,0,0,0,4.693-.162l5.638-4.533" transform="translate(-2873.352 2435.911)"/><g transform="translate(1270.505 2419.115)"><path class="ab" d="M4151.082-11.828a90.057,90.057,0,0,1,8.494,7.936c2.729,2.753,5.082,6.181,5.347,10.049s-2.2,8.094-6.032,8.71a8.293,8.293,0,0,1-6.684-2.332,20.9,20.9,0,0,1-4.175-5.971,39.79,39.79,0,0,1-3.311-10.181c-.65-3.021-.426-6.665,1.937-8.543S4150.621-12.187,4151.082-11.828Z" transform="translate(-4142.942 16.875)"/><path class="h" d="M4146.594-9.322a4.306,4.306,0,0,1-2.69-5.456c.018-.05.036-.1.056-.15" transform="translate(-4143.675 14.928)"/><path class="i" d="M4147.563-12.75s-2.773,1.325-2.934,3.34.233,3.661-.417,4.5.231.65,1.131-.593a9.9,9.9,0,0,0,1.084-3.976l4.911,4.357-2.847-5.632s3.206,2.159,5.108.491,1.42-2.173,1.42-2.173a3.294,3.294,0,0,1-3.517.78C4149.4-12.453,4150.361-13.853,4147.563-12.75Z" transform="translate(-4143.36 16.708)"/></g><path class="ac" d="M4174.2-46.665l21.154,8.386,2.5-5.971-22.082-9.516Z" transform="translate(-2842.494 2395.013)"/><path class="ac" d="M4198.491-76.03s4.576,10.759,18.335,10.524a23.681,23.681,0,0,0,16.406-9.909l6.522,1.652a26.289,26.289,0,0,1-22.968,12.24c-15.895-.381-24.269-12.691-24.269-12.691Z" transform="translate(-2824.086 2372.637)"/><path class="ac" d="M4226.157-42.367l26.209-5.944-3.148-6.117-28.268,5.613Z" transform="translate(-2795.512 2394.347)"/><g transform="translate(1344.241 2476.414)"><path class="l" d="M4215.126,13.65l.611,9.7s-3.417,10.155-17.18,7.372c0,0,2.783-10.52-3.493-10.328l.465-5.506Z" transform="translate(-4165.767 -13.65)"/><path class="m" d="M4212.968,26.849s3.074-13.955-3.635-9.373c0,0-1.322,11.212-13.956,16.673s-14.646,9.038-14.5,11.26c0,0,45.318-1.845,58.184-6.915,0,0-7.007-23.572-10.759-16.389C4226.44,25.66,4223.946,28.848,4212.968,26.849Z" transform="translate(-4180.036 -10.733)"/><path class="n" d="M4181.187,34.357s-2.023,3.146.646,4.718l57.761-7.908s2.518-2.494-.535-3.916A292.268,292.268,0,0,1,4181.187,34.357Z" transform="translate(-4180.452 0.019)"/></g><path class="ad" d="M4245.993-27.842c-12.646-8.068-27.206-13.778-42.207-13.764-4.267,0-8.708.527-12.312,2.815-5.041,3.2-7.559,9.371-7.85,15.334s1.322,11.833,2.917,17.586q10.79,38.9,21.582,77.8l19.382-1.1q-2.311-26.748-4.616-53.5c8.7,19.49,30.7,32.14,51.924,29.85,8.368-.9,16.167-5.289,20.524-12.487C4301.131,25.119,4307.956,8.863,4245.993-27.842Z" transform="translate(-2833.059 2407.233)"/><g transform="translate(1324.015 2474.927)"><path class="ae" d="M4296.454,31.007l-91.676-9.752s-38.034,7.8-34.132,8.776,32.183,24.382,32.183,24.382h74.121Z" transform="translate(-4170.365 -4.52)"/><path class="af" d="M4203.041,46.513c2.822-.425,4.542-3.278,4.869-6.113a17.667,17.667,0,0,0-1.992-10.346c-1.142-2.113-2.974-4.126-5.361-4.377-2.424-.253-4.714,1.452-5.9,3.579s-1.363,4.637-1.8,7.035C4191.565,43.438,4195.586,47.636,4203.041,46.513Z" transform="translate(-4147.999 -0.101)"/><path class="j" d="M4212.814,33.8c1.065-1.614.219-3.733-.734-5.415-1.979-3.5-4.682-7.456-8.7-7.511a2.737,2.737,0,0,0-2.027.674,3.212,3.212,0,0,0-.606,2.468c.3,4.674,2.5,9.838,6.775,11.743C4210.708,37.176,4211.854,35.249,4212.814,33.8Z" transform="translate(-4139.849 -4.915)"/><path class="ag" d="M4210.366,38.872a6.485,6.485,0,0,1-3.253,1.893,8.757,8.757,0,0,1-8.527-3.749,13.6,13.6,0,0,1-2.054-9.411c.289-2.458,1.488-5.255,3.924-5.7s4.519,1.72,5.966,3.739c1.716,2.4,3.145,4.978,4.7,7.481A4.31,4.31,0,0,1,4210.366,38.872Z" transform="translate(-4144.18 -3.928)"/><g transform="translate(77.537 18.299)"><path class="h" d="M4219.874,29.355a9.963,9.963,0,0,0-.846-4.607c-.758-1.383-2.458-2.39-3.935-1.825a6.858,6.858,0,0,1,9.371,2.709" transform="translate(-4202.952 -22.035)"/><path class="x" d="M4237.82,41.38c.54,2.9-.583,6.314-3.28,7.5a6.558,6.558,0,0,1-6.236-.914,14.956,14.956,0,0,1-4.172-5.028,39.87,39.87,0,0,1-4.9-13.9,6.455,6.455,0,0,1,.2-3.555,2.833,2.833,0,0,1,2.887-1.57c2.081.172,1.224-.654,3.625-.72S4236.276,30.042,4237.82,41.38Z" transform="translate(-4198.953 -20.867)"/><path class="j" d="M4231.79,46.441c-.263,2.935-2.267,5.923-5.187,6.34a6.567,6.567,0,0,1-5.756-2.566,14.922,14.922,0,0,1-2.657-5.969,39.853,39.853,0,0,1-.964-14.708,6.5,6.5,0,0,1,1.15-3.37,2.837,2.837,0,0,1,3.2-.726c1.959.726,1.359-.3,3.685.285S4233.367,35.109,4231.79,46.441Z" transform="translate(-4201.098 -18.832)"/><path class="k" d="M4229.645,28.7a89.311,89.311,0,0,1-2.5,11.35c-.978,3.751-2.73,7.521-5.929,9.716s-8.088,2.226-10.568-.756a8.276,8.276,0,0,1-1.394-6.939,20.884,20.884,0,0,1,3.012-6.632,39.713,39.713,0,0,1,7.076-8.036c2.27-2.1,5.52-3.761,8.336-2.685A3.058,3.058,0,0,1,4229.645,28.7Z" transform="translate(-4209.037 -19.681)"/><path class="i" d="M4223.355,24.964c-1.167-.543-3.8-1.923-6.224-.046s-3.245,2.462-3.245,2.462l5.024-.958-.485,5.9,3.2-4.6s1.108-.337,1.948,1.847a5.375,5.375,0,0,0,2.9,3.138c.5.225-1.367-.972-1.454-3.22S4225.72,26.065,4223.355,24.964Z" transform="translate(-4204.163 -20.096)"/><path class="i" d="M4222.783,23.707s-3.572.451-3.284,3.2.093,5.552-.853,6.284,2.625-1.371,2.689-3.545.817-2.667.817-2.667,3.938.872,5.491,3.735,3.179,2.218,3.179,2.218-1.883-4.449-4.1-5.849,2.473-1.019,4.894.888,4.018.245,4.018.245a6.3,6.3,0,0,1-4.6-2.821C4229.3,22.726,4225.117,20.862,4222.783,23.707Z" transform="translate(-4199.54 -21.786)"/></g><g transform="translate(67.649 9.022)"><path class="v" d="M4224.715,24.226a89.679,89.679,0,0,1-2.506,11.352c-.977,3.751-2.73,7.519-5.925,9.714s-8.089,2.228-10.568-.754a8.281,8.281,0,0,1-1.4-6.941,20.925,20.925,0,0,1,3.011-6.632,39.814,39.814,0,0,1,7.077-8.036c2.269-2.1,5.518-3.761,8.336-2.683A3.053,3.053,0,0,1,4224.715,24.226Z" transform="translate(-4204.105 -14.895)"/><path class="ah" d="M4213.739,19.138l-1.4,1.127" transform="translate(-4195.825 -15.669)"/><path class="ah" d="M4212.865,22.531a4.305,4.305,0,0,1,3.33-5.095c.05-.01.1-.02.152-.028" transform="translate(-4195.395 -17.408)"/><path class="v" d="M4218.351,20.636s-2.553-1.71-4.372-.824-3.031,2.065-4.079,1.931-.439.531,1.086.672a9.89,9.89,0,0,0,3.973-1.093l-1.247,6.446,3.4-5.321s-.227,3.862,2.176,4.646,2.6.116,2.6.116a3.3,3.3,0,0,1-2.465-2.631C4219.033,22.374,4220.727,22.482,4218.351,20.636Z" transform="translate(-4198.809 -15.248)"/></g><g transform="translate(9.734 14.943)"><path class="x" d="M4176.9,28.08c-1.279-2,3.477-3.312,5.845-3.537a21.225,21.225,0,0,1,7.039.92c3.144.776,6.505,1.684,8.583,4.17s1.736,6.777-1.159,8.232C4192.911,40.027,4185.608,41.716,4176.9,28.08Z" transform="translate(-4173.743 -16.209)"/><path class="x" d="M4177.671,26.107a2.194,2.194,0,0,0-2,2.107,6.387,6.387,0,0,0,.783,3.068c1.6,3.607,3.282,7.322,6.19,9.991s7.413,4.016,10.893,2.151a4.748,4.748,0,0,0,2.063-1.981c.922-1.849.068-4.09-1.069-5.816a19.287,19.287,0,0,0-17.191-8.433" transform="translate(-4174.759 -14.588)"/><path class="x" d="M4194.428,31.572c2.892-1.71,5.076-5.652,3.586-8.665-1.5-3.04-5.887-2.921-9.118-1.883a35.885,35.885,0,0,0-11.265,6.015c-1.015.8-2.18,1.969-1.783,3.2C4177.465,35.259,4185.938,36.593,4194.428,31.572Z" transform="translate(-4174.665 -20.361)"/><path class="x" d="M4175.441,28.786s-.915-1.56.974-3.26a4.277,4.277,0,0,0,1.641-3.493s2.692-.03,1.817,2-1.642,3.717-1.642,3.717l6.363-2.422-3.655,4.184a7.461,7.461,0,0,1,4.6.285c2.142.988,1.252,1.893,1.252,1.893s-3.26-.972-4.708-.174,3.276,2.32,3.276,2.32a34.681,34.681,0,0,0-5.616-1.061C4176.711,32.471,4174.681,31.37,4175.441,28.786Z" transform="translate(-4175.22 -18.682)"/></g><g transform="translate(31.526 0)"><path class="v" d="M4195.063,21.114a4.782,4.782,0,0,1,4.069-3.052c1.872.016,3.405,1.576,4.262,3.28,1.714,3.41,1.778,13.8-.937,15.5s-5.752,1.714-8.666-1.095C4190.169,32.261,4194.316,22.77,4195.063,21.114Z" transform="translate(-4179.819 -7.729)"/><path class="v" d="M4198.569,22.562c.082-1.53.013-3.178-1.381-3.807a4.558,4.558,0,0,0-4.346.648,13.464,13.464,0,0,0-3.075,3.388c-1.486,2.071-3.013,4.226-3.526,6.727s.251,5.484,2.492,6.709C4192.832,38.469,4197.8,37.234,4198.569,22.562Z" transform="translate(-4186.087 -7.341)"/><path class="h" d="M4190.969,25.469a25.593,25.593,0,0,1,4.122-10.911c.587-.872,1.453-1.8,2.487-1.628,1.281.219,1.647,1.861,1.725,3.158q.208,3.513.417,7.027" transform="translate(-4181.182 -12.908)"/><path class="h" d="M4196.185,13.055a40.275,40.275,0,0,0-3.224,15.32" transform="translate(-4179.183 -12.761)"/><path class="x" d="M4200.278,33.545c-.492,2.6-2.026,5.363-4.618,5.921-2.769.6-5.482-1.8-6.226-4.533s-.025-5.634.808-8.343a11.812,11.812,0,0,1,1.926-4.138,4.365,4.365,0,0,1,4.026-1.716c2.283.449,3.143,3.108,4.034,5.257C4200.782,27.331,4200.668,31.484,4200.278,33.545Z" transform="translate(-4183.039 -5.103)"/><path class="i" d="M4198.208,21.266c-1.167-.543-3.8-1.923-6.225-.048s-3.243,2.464-3.243,2.464l5.021-.958-.485,5.9,3.2-4.6s1.109-.337,1.949,1.847a5.375,5.375,0,0,0,2.905,3.138c.5.225-1.368-.972-1.451-3.222S4200.575,22.367,4198.208,21.266Z" transform="translate(-4183.424 -5.514)"/></g><path class="d" d="M4251.449,38.312c-3.9,0-80.945-12.679-80.945-12.679s3.9,37.06,6.826,37.06,71.2,9.752,71.2,9.752Z" transform="translate(-4170.224 -0.121)"/><path class="ai" d="M4252.33,56.352c-2.927,1.951-42.912,15.6-42.912,15.6l2.927-34.135,44.861-11.7Z" transform="translate(-4131.117 0.368)"/><path class="aa" d="M4171.493,30.393a154.633,154.633,0,0,0,19.578,4.864c8.095,1.277,16.4,1.265,24.352,3.238,3.271.814,6.463,1.955,9.777,2.574,1.643.309,3.306.485,4.965.662l18.147,1.937" transform="translate(-4169.228 4.663)"/><path class="aa" d="M4172.157,37.6c9.863,2.37,19.742,4.74,29.773,6.239,2.909.435,5.831.8,8.75,1.159l36.334,4.5" transform="translate(-4168.563 11.906)"/><path class="aa" d="M4211.033,42.214q20.358-4.61,40.306-10.839" transform="translate(-4129.491 5.65)"/><path class="aa" d="M4210.356,50.19q20.56-6.183,40.962-12.866" transform="translate(-4130.171 11.629)"/><path class="aa" d="M4212.154,32.215a215.054,215.054,0,0,1-2.949,32.463" transform="translate(-4131.329 6.494)"/><path class="aa" d="M4208.723,33.13a.366.366,0,0,0-.131.465" transform="translate(-4131.983 7.414)"/><path class="aa" d="M4208.1,35.057v.154" transform="translate(-4132.437 9.35)"/><path class="aa" d="M4207.878,38.816a.369.369,0,0,0-.132.465" transform="translate(-4132.832 13.128)"/><path class="aa" d="M4207.491,41.127" transform="translate(-4133.054 15.451)"/><path class="aa" d="M4207.417,45.5a.365.365,0,0,0-.132.465" transform="translate(-4133.295 19.847)"/><path class="aa" d="M4207.414,46.814h-.153" transform="translate(-4133.284 21.166)"/><path class="aa" d="M4174.881,42.824c.014.074-.144.068-.125-.006" transform="translate(-4165.952 17.15)"/><path class="aa" d="M4174.294,40.82" transform="translate(-4166.416 15.142)"/><path class="aa" d="M4173.219,35.6" transform="translate(-4167.496 9.891)"/><path class="aa" d="M4172.912,33.519l-.155-.152" transform="translate(-4167.958 7.652)"/><path class="aa" d="M4172.374,28.449V28.6" transform="translate(-4168.346 2.709)"/><path class="aa" d="M4172.3,27.065h-.154" transform="translate(-4168.578 1.319)"/><path class="aa" d="M4212.794,32.9v.154" transform="translate(-4127.724 7.188)"/><path class="aa" d="M4212.871,34.365h-.154" transform="translate(-4127.802 8.655)"/><path class="aa" d="M4212.64,38.438l-.155.154" transform="translate(-4128.033 12.748)"/><path class="aa" d="M4212.025,40.513" transform="translate(-4128.498 14.833)"/><path class="aa" d="M4211.41,45.508" transform="translate(-4129.116 19.853)"/><path class="aa" d="M4211.1,46.584h.154" transform="translate(-4129.423 20.935)"/><path class="aa" d="M4229.93,40.59v.154" transform="translate(-4110.503 14.911)"/><path class="aa" d="M4229.851,39.282l.155-.152" transform="translate(-4110.581 13.444)"/><path class="aa" d="M4230.237,35.518v-.154" transform="translate(-4110.195 9.659)"/><path class="aa" d="M4230.314,33.6" transform="translate(-4110.117 7.883)"/><path class="aa" d="M4230.924,29.766l-.306-.158" transform="translate(-4109.812 3.874)"/><path class="aa" d="M4230.93,28.141l-.156.154" transform="translate(-4109.653 2.4)"/></g></g></svg>