<svg xmlns="http://www.w3.org/2000/svg" width="931.746" height="718.611" viewBox="0 0 931.746 718.611">
  <g id="Direct_From_Farm_" data-name="Direct From Farm &amp;" transform="translate(-848.729 -2038.511)">
    <path id="Path_6516" data-name="Path 6516" d="M5977.235,3232.226c2,431.055-327.978,434.159-482.286,414.871-446.017-55.752-511.136-169.1-405.132-414.871,76.341-176.993,206.768-168.387,443.709-247.367C5629.969,2952.711,5975.251,2805.817,5977.235,3232.226Z" transform="translate(-4196.769 -895.878)" fill="#d5cac9"/>
    <g id="Group_4059" data-name="Group 4059" transform="translate(917.731 2174.461)">
      <path id="Path_6517" data-name="Path 6517" d="M5495.085,3432.2c33.984-9.94,69.831-11.038,105.223-12.067l141.467-4.115c7.923-.23,16.009-.44,23.6,1.853a37.488,37.488,0,0,1,24.17,23.229,1835.34,1835.34,0,0,1-226.78,17.215c-27.484.378-55.828-.027-81.128-10.771-1.9-.8-3.864-1.744-5.02-3.449-2.435-3.59.167-8.832,4.077-10.714s8.494-1.386,12.8-.85" transform="translate(-5046.661 -2991.748)" fill="#38250f"/>
      <g id="Group_4053" data-name="Group 4053" transform="translate(0 21.506)">
        <g id="Group_4050" data-name="Group 4050" transform="translate(0 317.076)">
          <path id="Path_6518" data-name="Path 6518" d="M5313.78,3382.544l-157.736-16.78s-65.443,13.425-58.731,15.1,55.375,41.951,55.375,41.951h127.532Z" transform="translate(-5096.83 -3336.968)" fill="#775029"/>
          <path id="Path_6519" data-name="Path 6519" d="M5182.56,3415.054c4.854-.731,7.813-5.642,8.375-10.519a30.4,30.4,0,0,0-3.428-17.8c-1.964-3.637-5.115-7.1-9.227-7.533-4.171-.435-8.109,2.5-10.153,6.158s-2.344,7.98-3.09,12.106C5162.813,3409.76,5169.731,3416.986,5182.56,3415.054Z" transform="translate(-5087.851 -3335.194)" fill="#a72d27"/>
          <path id="Path_6520" data-name="Path 6520" d="M5210.124,3386.822c1.834-2.776.377-6.422-1.26-9.319-3.407-6.026-8.055-12.828-14.975-12.921a4.7,4.7,0,0,0-3.489,1.16c-1.042,1.08-1.137,2.747-1.042,4.245.513,8.04,4.3,16.928,11.656,20.205C5206.5,3392.634,5208.474,3389.32,5210.124,3386.822Z" transform="translate(-5084.58 -3337.125)" fill="#a72d27"/>
          <path id="Path_6521" data-name="Path 6521" d="M5200.2,3396.856a11.159,11.159,0,0,1-5.6,3.258c-5.541,1.108-11.405-1.842-14.671-6.453s-4.188-10.58-3.531-16.192c.495-4.231,2.56-9.044,6.75-9.809s7.776,2.959,10.263,6.435c2.951,4.124,5.414,8.565,8.094,12.871C5204.16,3391.231,5202.407,3394.642,5200.2,3396.856Z" transform="translate(-5086.319 -3336.73)" fill="#ca362d"/>
          <g id="Group_4046" data-name="Group 4046" transform="translate(133.416 31.485)">
            <path id="Path_6522" data-name="Path 6522" d="M5241.314,3380.735c-.062-2.714-.153-5.549-1.457-7.93s-4.231-4.111-6.767-3.138c5.36-3.315,13.359-1,16.12,4.662" transform="translate(-5212.201 -3368.138)" fill="none" stroke="#39431a" stroke-miterlimit="10" stroke-width="0.25"/>
            <path id="Path_6523" data-name="Path 6523" d="M5277.463,3402.963c.931,4.985-1.005,10.865-5.644,12.914-3.457,1.527-7.629.585-10.729-1.575s-5.3-5.373-7.177-8.652a68.6,68.6,0,0,1-8.437-23.918,11.17,11.17,0,0,1,.341-6.115,4.88,4.88,0,0,1,4.968-2.7c3.584.295,2.111-1.126,6.238-1.239S5274.807,3383.456,5277.463,3402.963Z" transform="translate(-5210.594 -3367.668)" fill="#a72d27"/>
            <path id="Path_6524" data-name="Path 6524" d="M5264.263,3414.354c-.451,5.051-3.9,10.189-8.924,10.908-3.741.535-7.5-1.5-9.905-4.416s-3.65-6.605-4.571-10.269a68.559,68.559,0,0,1-1.659-25.307,11.178,11.178,0,0,1,1.979-5.8,4.883,4.883,0,0,1,5.513-1.251c3.371,1.251,2.338-.513,6.34.493S5266.977,3394.855,5264.263,3414.354Z" transform="translate(-5211.458 -3366.849)" fill="#ca362d"/>
            <path id="Path_6525" data-name="Path 6525" d="M5250.1,3382.706c-.832,6.618-2.626,13.076-4.31,19.531s-4.7,12.94-10.2,16.717-13.918,3.831-18.184-1.3c-2.687-3.228-3.254-7.827-2.4-11.939s2.964-7.846,5.182-11.414c3.269-5.258,7.626-9.624,12.174-13.827,3.906-3.609,9.5-6.472,14.345-4.617S5250.224,3381.712,5250.1,3382.706Z" transform="translate(-5214.643 -3367.193)" fill="#e26928"/>
            <path id="Path_6526" data-name="Path 6526" d="M5245.707,3375.735c-2.007-.933-6.543-3.307-10.711-.08s-5.581,4.239-5.581,4.239l8.642-1.65-.834,10.159,5.5-7.916s1.907-.581,3.353,3.177a9.254,9.254,0,0,0,4.994,5.4c.867.386-2.352-1.674-2.5-5.542S5249.774,3377.629,5245.707,3375.735Z" transform="translate(-5212.687 -3367.359)" fill="#39431a"/>
            <path id="Path_6527" data-name="Path 6527" d="M5250.822,3371.345s-6.148.774-5.651,5.511.159,9.552-1.468,10.812,4.516-2.358,4.625-6.1,1.409-4.586,1.409-4.586,6.774,1.5,9.447,6.427,5.471,3.813,5.471,3.813-3.241-7.653-7.058-10.063,4.255-1.75,8.42,1.53,6.912.421,6.912.421a10.84,10.84,0,0,1-7.905-4.854C5262.034,3369.656,5254.836,3366.448,5250.822,3371.345Z" transform="translate(-5210.832 -3368.038)" fill="#39431a"/>
          </g>
          <g id="Group_4047" data-name="Group 4047" transform="translate(116.403 15.522)">
            <path id="Path_6528" data-name="Path 6528" d="M5235.076,3369.09c-.832,6.618-2.626,13.076-4.309,19.531s-4.7,12.939-10.2,16.717-13.917,3.83-18.183-1.3c-2.687-3.229-3.254-7.827-2.4-11.94s2.964-7.845,5.181-11.413c3.268-5.259,7.626-9.625,12.175-13.827,3.906-3.609,9.493-6.472,14.344-4.617S5235.2,3368.1,5235.076,3369.09Z" transform="translate(-5199.62 -3353.033)" fill="#a72d27"/>
            <path id="Path_6529" data-name="Path 6529" d="M5227.114,3359.315l-2.4,1.936" transform="translate(-5196.297 -3353.344)" fill="none" stroke="#39431a" stroke-miterlimit="10" stroke-width="0.25"/>
            <path id="Path_6530" data-name="Path 6530" d="M5226.183,3362.859a7.406,7.406,0,0,1,5.991-8.817" transform="translate(-5196.128 -3354.042)" fill="none" stroke="#39431a" stroke-miterlimit="10" stroke-width="0.25"/>
            <path id="Path_6531" data-name="Path 6531" d="M5231.113,3362.445s-4.391-2.942-7.518-1.416-5.218,3.551-7.022,3.321-.757.913,1.87,1.155,6.837-1.879,6.837-1.879l-2.144,11.091,5.839-9.155s-.388,6.642,3.748,7.993,4.466.2,4.466.2a5.676,5.676,0,0,1-4.238-4.527C5232.29,3365.436,5235.2,3365.624,5231.113,3362.445Z" transform="translate(-5197.495 -3353.175)" fill="#39431a"/>
          </g>
          <g id="Group_4048" data-name="Group 4048" transform="translate(16.744 25.712)">
            <path id="Path_6532" data-name="Path 6532" d="M5116.462,3381.8c-2.2-3.449,5.982-5.7,10.056-6.087s8.14.6,12.113,1.583c5.408,1.336,11.194,2.9,14.767,7.175s2.985,11.661-1.992,14.166C5144.009,3402.357,5131.44,3405.262,5116.462,3381.8Z" transform="translate(-5111.023 -3361.374)" fill="#a72d27"/>
            <path id="Path_6533" data-name="Path 6533" d="M5116.448,3380.545c-1.836-.061-3.273,1.8-3.433,3.626a10.96,10.96,0,0,0,1.347,5.277c2.755,6.208,5.644,12.6,10.652,17.191s12.755,6.909,18.74,3.7a8.186,8.186,0,0,0,3.55-3.407c1.587-3.182.117-7.039-1.842-10.008a33.169,33.169,0,0,0-29.576-14.508" transform="translate(-5111.433 -3360.723)" fill="#ca362d"/>
            <path id="Path_6534" data-name="Path 6534" d="M5145.4,3382.331c4.977-2.942,8.734-9.727,6.172-14.91-2.588-5.231-10.13-5.027-15.687-3.24a61.794,61.794,0,0,0-19.383,10.348c-1.745,1.381-3.75,3.389-3.069,5.508C5116.216,3388.675,5130.793,3390.97,5145.4,3382.331Z" transform="translate(-5111.393 -3363.04)" fill="#e26928"/>
            <path id="Path_6535" data-name="Path 6535" d="M5112,3379.753s-1.572-2.685,1.676-5.612,2.828-6.009,2.828-6.009,4.627-.05,3.123,3.438-2.824,6.395-2.824,6.395l10.948-4.168-6.287,7.2a12.835,12.835,0,0,1,7.913.492c3.683,1.7,2.157,3.256,2.157,3.256s-5.611-1.675-8.1-.3,5.636,3.99,5.636,3.99a59.888,59.888,0,0,0-9.663-1.825C5114.186,3386.093,5110.693,3384.2,5112,3379.753Z" transform="translate(-5111.615 -3362.366)" fill="#39431a"/>
          </g>
          <g id="Group_4049" data-name="Group 4049" transform="translate(54.244)">
            <path id="Path_6536" data-name="Path 6536" d="M5168.442,3361.286c1.281-2.848,3.955-5.277,7-5.251,3.222.028,5.86,2.714,7.334,5.646,2.948,5.867,3.06,23.741-1.611,26.669s-9.9,2.95-14.91-1.883C5160.021,3380.468,5167.159,3364.135,5168.442,3361.286Z" transform="translate(-5142.211 -3338.256)" fill="#a72d27"/>
            <path id="Path_6537" data-name="Path 6537" d="M5166.206,3364.291c.14-2.633.023-5.467-2.377-6.553s-5.312-.382-7.48,1.117a23.158,23.158,0,0,0-5.289,5.828c-2.559,3.566-5.183,7.273-6.067,11.574s.432,9.437,4.284,11.543C5156.333,3391.661,5164.879,3389.535,5166.206,3364.291Z" transform="translate(-5144.729 -3338.1)" fill="#a72d27"/>
            <path id="Path_6538" data-name="Path 6538" d="M5159.6,3361.949a44.014,44.014,0,0,1,7.094-18.776c1.009-1.5,2.5-3.1,4.28-2.8,2.206.375,2.834,3.2,2.967,5.432q.36,6.045.719,12.092" transform="translate(-5142.761 -3340.335)" fill="none" stroke="#39431a" stroke-miterlimit="10" stroke-width="0.25"/>
            <path id="Path_6539" data-name="Path 6539" d="M5171.213,3340.782a69.321,69.321,0,0,0-5.547,26.361" transform="translate(-5141.958 -3340.276)" fill="none" stroke="#39431a" stroke-miterlimit="10" stroke-width="0.25"/>
            <path id="Path_6540" data-name="Path 6540" d="M5173.169,3386.14c-.846,4.48-3.487,9.229-7.945,10.188-4.766,1.025-9.433-3.1-10.712-7.8s-.046-9.695,1.385-14.354a20.368,20.368,0,0,1,3.316-7.121c1.673-2.036,4.34-3.46,6.926-2.953,3.929.771,5.411,5.347,6.944,9.045C5174.038,3375.448,5173.839,3382.594,5173.169,3386.14Z" transform="translate(-5143.505 -3337.202)" fill="#e26928"/>
            <path id="Path_6541" data-name="Path 6541" d="M5169.1,3364.472c-2.007-.934-6.545-3.308-10.713-.082s-5.579,4.239-5.579,4.239l8.641-1.649-.835,10.157,5.5-7.914s1.907-.582,3.352,3.176a9.255,9.255,0,0,0,5,5.4c.867.385-2.354-1.675-2.5-5.543S5173.171,3366.365,5169.1,3364.472Z" transform="translate(-5143.66 -3337.367)" fill="#39431a"/>
          </g>
          <path id="Path_6542" data-name="Path 6542" d="M5236.533,3400.915c-6.712,0-139.277-21.814-139.277-21.814s6.712,63.765,11.745,63.765,122.5,16.781,122.5,16.781Z" transform="translate(-5096.773 -3335.202)" fill="#a56931"/>
          <path id="Path_6543" data-name="Path 6543" d="M5289.634,3432.6c-5.034,3.355-73.833,26.849-73.833,26.849l5.034-58.732,77.19-20.137Z" transform="translate(-5081.074 -3335.005)" fill="#8e5b2b"/>
          <path id="Path_6544" data-name="Path 6544" d="M5100.27,3393.6c11.1,3.278,22.248,6.567,33.686,8.369,13.927,2.2,28.209,2.179,41.9,5.573,5.628,1.4,11.121,3.363,16.823,4.43,2.824.529,5.686.834,8.543,1.139l31.222,3.331" transform="translate(-5096.374 -3333.282)" fill="none" stroke="#775029" stroke-miterlimit="10" stroke-width="0.25"/>
          <path id="Path_6545" data-name="Path 6545" d="M5102.288,3415.556c16.971,4.076,33.969,8.156,51.23,10.737,5.007.748,10.031,1.37,15.055,1.992l62.516,7.734" transform="translate(-5096.106 -3330.374)" fill="none" stroke="#775029" stroke-miterlimit="10" stroke-width="0.25"/>
          <path id="Path_6546" data-name="Path 6546" d="M5220.723,3415.243q35.029-7.934,69.352-18.651" transform="translate(-5080.423 -3332.885)" fill="none" stroke="#775029" stroke-miterlimit="10" stroke-width="0.25"/>
          <path id="Path_6547" data-name="Path 6547" d="M5218.664,3436.852q35.371-10.64,70.477-22.138" transform="translate(-5080.695 -3330.485)" fill="none" stroke="#775029" stroke-miterlimit="10" stroke-width="0.25"/>
          <path id="Path_6548" data-name="Path 6548" d="M5220.228,3399.152a370.011,370.011,0,0,1-5.073,55.855" transform="translate(-5081.16 -3332.547)" fill="none" stroke="#775029" stroke-miterlimit="10" stroke-width="0.25"/>
          <path id="Path_6549" data-name="Path 6549" d="M5213.465,3401.939a.627.627,0,0,0-.228.8" transform="translate(-5081.422 -3332.177)" fill="none" stroke="#775029" stroke-miterlimit="10" stroke-width="0.25"/>
          <path id="Path_6550" data-name="Path 6550" d="M5211.8,3407.809v.265" transform="translate(-5081.604 -3331.4)" fill="none" stroke="#775029" stroke-miterlimit="10" stroke-width="0.25"/>
          <path id="Path_6551" data-name="Path 6551" d="M5210.889,3419.261a.635.635,0,0,0-.227.8" transform="translate(-5081.763 -3329.883)" fill="none" stroke="#775029" stroke-miterlimit="10" stroke-width="0.25"/>
          <path id="Path_6552" data-name="Path 6552" d="M5209.93,3426.3" transform="translate(-5081.852 -3328.951)" fill="none" stroke="#775029" stroke-miterlimit="10" stroke-width="0.25"/>
          <path id="Path_6553" data-name="Path 6553" d="M5209.485,3439.627a.632.632,0,0,0-.227.8" transform="translate(-5081.949 -3327.186)" fill="none" stroke="#775029" stroke-miterlimit="10" stroke-width="0.25"/>
          <path id="Path_6554" data-name="Path 6554" d="M5209.493,3443.625h-.265" transform="translate(-5081.944 -3326.657)" fill="none" stroke="#775029" stroke-miterlimit="10" stroke-width="0.25"/>
          <path id="Path_6555" data-name="Path 6555" d="M5110.425,3431.461c.022.129-.248.119-.216-.008" transform="translate(-5095.058 -3328.269)" fill="none" stroke="#775029" stroke-miterlimit="10" stroke-width="0.25"/>
          <path id="Path_6556" data-name="Path 6556" d="M5108.8,3425.366" transform="translate(-5095.244 -3329.075)" fill="none" stroke="#775029" stroke-miterlimit="10" stroke-width="0.25"/>
          <path id="Path_6557" data-name="Path 6557" d="M5105.524,3409.448" transform="translate(-5095.678 -3331.183)" fill="none" stroke="#775029" stroke-miterlimit="10" stroke-width="0.25"/>
          <path id="Path_6558" data-name="Path 6558" d="M5104.386,3402.924l-.265-.265" transform="translate(-5095.864 -3332.082)" fill="none" stroke="#775029" stroke-miterlimit="10" stroke-width="0.25"/>
          <path id="Path_6559" data-name="Path 6559" d="M5102.949,3387.677v.265" transform="translate(-5096.019 -3334.066)" fill="none" stroke="#775029" stroke-miterlimit="10" stroke-width="0.25"/>
          <path id="Path_6560" data-name="Path 6560" d="M5102.512,3383.463h-.265" transform="translate(-5096.112 -3334.624)" fill="none" stroke="#775029" stroke-miterlimit="10" stroke-width="0.25"/>
          <path id="Path_6561" data-name="Path 6561" d="M5226.083,3401.254v.265" transform="translate(-5079.712 -3332.268)" fill="none" stroke="#775029" stroke-miterlimit="10" stroke-width="0.25"/>
          <path id="Path_6562" data-name="Path 6562" d="M5226.114,3405.7h-.265" transform="translate(-5079.743 -3331.679)" fill="none" stroke="#775029" stroke-miterlimit="10" stroke-width="0.25"/>
          <path id="Path_6563" data-name="Path 6563" d="M5225.411,3418.109l-.265.265" transform="translate(-5079.836 -3330.036)" fill="none" stroke="#775029" stroke-miterlimit="10" stroke-width="0.25"/>
          <path id="Path_6564" data-name="Path 6564" d="M5223.742,3424.429" transform="translate(-5080.022 -3329.199)" fill="none" stroke="#775029" stroke-miterlimit="10" stroke-width="0.25"/>
          <path id="Path_6565" data-name="Path 6565" d="M5221.869,3439.646" transform="translate(-5080.271 -3327.184)" fill="none" stroke="#775029" stroke-miterlimit="10" stroke-width="0.25"/>
          <path id="Path_6566" data-name="Path 6566" d="M5220.933,3442.923h.265" transform="translate(-5080.394 -3326.75)" fill="none" stroke="#775029" stroke-miterlimit="10" stroke-width="0.25"/>
          <path id="Path_6567" data-name="Path 6567" d="M5278.285,3424.664v.266" transform="translate(-5072.799 -3329.168)" fill="none" stroke="#775029" stroke-miterlimit="10" stroke-width="0.25"/>
          <path id="Path_6568" data-name="Path 6568" d="M5278.051,3420.481l.265-.265" transform="translate(-5072.831 -3329.757)" fill="none" stroke="#775029" stroke-miterlimit="10" stroke-width="0.25"/>
          <path id="Path_6569" data-name="Path 6569" d="M5279.222,3409.01v-.265" transform="translate(-5072.675 -3331.276)" fill="none" stroke="#775029" stroke-miterlimit="10" stroke-width="0.25"/>
          <path id="Path_6570" data-name="Path 6570" d="M5279.456,3403.361" transform="translate(-5072.645 -3331.989)" fill="none" stroke="#775029" stroke-miterlimit="10" stroke-width="0.25"/>
          <path id="Path_6571" data-name="Path 6571" d="M5280.909,3391.48c-.176-.09-.351-.18-.528-.27" transform="translate(-5072.522 -3333.598)" fill="none" stroke="#775029" stroke-miterlimit="10" stroke-width="0.25"/>
          <path id="Path_6572" data-name="Path 6572" d="M5281.126,3386.74c-.087.088-.176.177-.266.266" transform="translate(-5072.458 -3334.19)" fill="none" stroke="#775029" stroke-miterlimit="10" stroke-width="0.25"/>
        </g>
        <path id="Path_6573" data-name="Path 6573" d="M5286.063,3196.724l-23.234,47.707s-21.2,15.25-29.093,32.262-29.809,54.737-29.809,54.737l10.8,3.684s32.941-27.239,44.308-44.919a282.941,282.941,0,0,0,19.552-36.91l19.78-30.108Z" transform="translate(-5082.646 -3042.277)" fill="#9a673d"/>
        <path id="Path_6574" data-name="Path 6574" d="M5457.142,3234.771s1.961,12.441,32.591,24.681,67.425,23.146,67.5,22.441,11.117-7.867,11.117-7.867-43.465-37.9-83.227-49.16S5457.142,3234.771,5457.142,3234.771Z" transform="translate(-5049.33 -3038.987)" fill="#9a673d"/>
        <path id="Path_6575" data-name="Path 6575" d="M5336.5,3408.835l3.355,26.01s-36.917,5.873-38.594,9.229,57.892-.839,57.892-.839L5353.275,3408" transform="translate(-5069.762 -3014.299)" fill="#512018"/>
        <path id="Path_6576" data-name="Path 6576" d="M5348.657,3429.239a82.527,82.527,0,0,1-9.306-.953l.5,3.872s-36.917,5.873-38.594,9.229,57.892-.839,57.892-.839l-1.831-10.988C5353.974,3429.568,5350.8,3429.319,5348.657,3429.239Z" transform="translate(-5069.762 -3011.612)" fill="#220c11"/>
        <path id="Path_6577" data-name="Path 6577" d="M5414.337,3434.155c1.5.024,3.036-.034,4.581-.113-6.69-5.568-28.747-23.914-31.59-26.046l-20.136,7.551,31.814,19.088C5404.132,3434.287,5409.169,3434.07,5414.337,3434.155Z" transform="translate(-5061.026 -3014.299)" fill="#512018"/>
        <path id="Path_6578" data-name="Path 6578" d="M5411.265,3429.239c-4.531-.17-19.375-.953-19.375-.953l7.211,3.872s-33.561,5.873-35.239,9.229,57.893-.839,57.893-.839l-1.833-10.988C5416.582,3429.568,5413.407,3429.319,5411.265,3429.239Z" transform="translate(-5061.472 -3011.612)" fill="#220c11"/>
        <path id="Path_6579" data-name="Path 6579" d="M5380.049,3291.162c-57.163,5.614-174.066,6.173-174.514,54.034-1.791,21.5,30.674,34.117,49.071,40.968s37.819,10.581,56.359,17.038c26.964,9.391,51.561,24.361,76.737,37.827,2.832,1.515,6.024,3.059,9.128,2.233a13,13,0,0,0,4.794-2.959q10.43-8.767,20.857-17.534a494.433,494.433,0,0,0-72.64-53.432s72.608,15.257,86.592,2.951S5380.049,3291.162,5380.049,3291.162Z" transform="translate(-5082.444 -3029.771)" fill="#3a321d"/>
        <path id="Path_6580" data-name="Path 6580" d="M5378.28,3120.245l-2.073,5.427-14.86,49.15-30.257-12.778,19.175-57.226Z" transform="translate(-5065.807 -3054.448)" fill="#9a673d"/>
        <g id="Group_4051" data-name="Group 4051" transform="translate(268.781)">
          <path id="Path_6581" data-name="Path 6581" d="M5407.3,3114.939s-10.641-21.552-11.077-22.38l-2.587-10.276c-1.36-4.869-3.874-17.686-20.434-17.565s-33.345-.567-37.234,16.219c-1.125,4.85.984,9.739,4.538,14.242l-.4.191c8.16,14.444,17.712,30.064,33.51,35.13,4.966,1.593,10.514,1.966,15.311-.082,5.438-2.322,8.648-7.958,9.187-13.793Z" transform="translate(-5333.981 -3059.758)" fill="#9a673d"/>
          <path id="Path_6582" data-name="Path 6582" d="M5409.392,3069.711a14.809,14.809,0,0,0-4.681-.367,5.022,5.022,0,0,0,2.314-1.215,1.726,1.726,0,0,0,.063-2.372,2.413,2.413,0,0,0-1.722-.368,27.255,27.255,0,0,0-6.71,1.21,8.392,8.392,0,0,0,1.164-3.184,2.859,2.859,0,0,0-1.442-2.862,3.816,3.816,0,0,0-1.981-.161c-2.414.271-4.757.969-7.149,1.4-6.862,1.222-13.9.178-20.869.164a70.579,70.579,0,0,0-25.895,4.881,10.628,10.628,0,0,0-4.073,2.422,11.472,11.472,0,0,0-2.256,5.2c-1.646,6.7-3.209,13.961-.529,20.318,1.692,4.013,4.887,7.163,7.471,10.667s4.654,7.9,3.563,12.117l1.752-1.077c1.619-2.083,8.838-10.925,8.838-10.925a7.824,7.824,0,0,1-1-1.045c-2.115-2.488-4.7-7.6.079-10.741,3.879-2.531,5.3,1.163,6.132,4.675.594,2.588.881,5.061,1.557,4.949,1.615-.255,7.846-.04,5.656-10.843a5.247,5.247,0,0,0-.254-.881l1.409-1.372a18.384,18.384,0,0,0,4.609-.819,2.144,2.144,0,0,0,1.054-.616,2.431,2.431,0,0,0,.32-1.552,26.762,26.762,0,0,1,1.454-8.963,3.074,3.074,0,0,1,.742-1.329,3.021,3.021,0,0,1,1.789-.6c5.657-.533,11.406,1.382,17,.364a32.976,32.976,0,0,0,7.655-2.754C5407.342,3073.165,5409.56,3071.792,5409.392,3069.711Z" transform="translate(-5334.179 -3060.338)" fill="#1a1818"/>
          <path id="Path_6583" data-name="Path 6583" d="M5373.022,3124.987l-2.494,6.487c-15.6-11.576-17.543-28.211-13.689-18.632,4.218,10.471,15.6,10.565,15.815,11.779C5372.654,3124.622,5372.8,3124.756,5373.022,3124.987Z" transform="translate(-5331.403 -3053.764)" fill="#481b15"/>
        </g>
        <path id="Path_6584" data-name="Path 6584" d="M5482.25,3362.809c-27.385-21.311-98.523-68-132.821-73.2a13.655,13.655,0,0,1-5.639-1.711c-3.524-2.249-4.263-6.947-4.732-11.075-2.483-22.487-5.84-45.777-18.325-64.6-1.006-1.477-1.979-2.987-2.986-4.464-9.3-13.659-18.761-27.083-19.231-43.562a17.219,17.219,0,0,1,4.4-11.612c.4-.469.806-.906,1.276-1.376.269-.3.537-.57.805-.839a37.427,37.427,0,0,1,11.914-7.148,75.1,75.1,0,0,1,13.625-3.792c9.027-1.678,20.506-2.517,35.071-2.048a160.387,160.387,0,0,1,21.21,1.981c10.74,1.778,21.144,4.967,30.541,10.5,3.456,2.013,6.846,4.363,8.96,7.752,2.316,3.658,2.415,8.23,3.355,12.451C5442.933,3229.51,5439.751,3287.3,5482.25,3362.809Z" transform="translate(-5070.122 -3050.154)" fill="#b8a588"/>
        <path id="Path_6585" data-name="Path 6585" d="M5395.472,3150.391c8.308-2.083,16.418,3.526,23.04,8.961a563.928,563.928,0,0,1,66.526,64.448,73.4,73.4,0,0,0-15.809,25.358c-1.251,3.41-3.375,7.683-6.975,7.2a7.714,7.714,0,0,1-3.792-2.172l-49.914-43.168,3.4-.843" transform="translate(-5057.281 -3048.472)" fill="#b8a588"/>
        <path id="Path_6586" data-name="Path 6586" d="M5395.994,3268.308c-21.759-13.882-46.81-23.708-72.62-23.682-7.344.007-14.984.908-21.186,4.841-8.674,5.5-13.008,16.127-13.505,26.385s2.272,20.362,5.017,30.26q18.568,66.935,37.133,133.871l33.349-1.9q-3.97-46.023-7.939-92.047c14.973,33.536,52.827,55.3,89.342,51.358,14.394-1.553,27.815-9.1,35.311-21.484C5490.865,3359.433,5502.611,3331.465,5395.994,3268.308Z" transform="translate(-5071.431 -3035.934)" fill="#494027"/>
        <path id="Path_6587" data-name="Path 6587" d="M5557.586,3267.463s1.133,3.24,7.081,4.442a7.892,7.892,0,0,0,8.552-4.055s-9.719-1.138-11.928-4.36-6.564-5.754-12.413-1.093-3.583,11.14.737,11.718S5557.586,3267.463,5557.586,3267.463Z" transform="translate(-5037.433 -3033.919)" fill="#9a673d"/>
        <path id="Path_6588" data-name="Path 6588" d="M5325.816,3142.3c-8.561-.223-15.254,7.019-20.533,13.764a564,564,0,0,0-50.886,77.395,73.418,73.418,0,0,1,20.953,21.3c1.965,3.055,4.968,6.763,8.376,5.509a7.706,7.706,0,0,0,3.229-2.945c13.1-17.669,49.9-76.148,65.134-72.1S5325.816,3142.3,5325.816,3142.3Z" transform="translate(-5075.963 -3049.486)" fill="#b8a588"/>
        <path id="Path_6589" data-name="Path 6589" d="M5219.422,3314.274q-.045.488-.09.973a210.18,210.18,0,0,1-6,33.844,5.979,5.979,0,0,1-1.111,2.518,2.2,2.2,0,0,1-2.544.637c-1.5-.792-.892-2.955-.4-4.534a11.505,11.505,0,0,0-.143-7.152l-5.712,14.332a8.018,8.018,0,0,1-1.968,3.279,2.928,2.928,0,0,1-3.612.3c-1.426-1.17-.76-3.379-.035-5.028a54.183,54.183,0,0,0,4.229-14.311c-5.2,3.652-7.4,10.124-11.622,14.822a1.994,1.994,0,0,1-1.688.882c-.435-.078-3.651-.737-4.091-3.832l9.774-12.236a5.342,5.342,0,0,0,1.322-2.426,1.922,1.922,0,0,0-1.329-2.194,2.823,2.823,0,0,0-2.167.905l-6.344,5.224a3.618,3.618,0,0,1-2.049,1.042c-1.41.052-2.418-1.573-2.222-2.937a6.569,6.569,0,0,1,2.159-3.446,85.643,85.643,0,0,1,9.2-8.084,2.411,2.411,0,0,0,1.092-1.358c.2-1.177-1.3-1.9-2.507-2.127a29.12,29.12,0,0,0-8.662-.308c.354-2.627,2.765-4.594,5.364-5.317s5.383-.449,8.089-.187,5.5.5,8.079-.28l9.7-7.8" transform="translate(-5085.603 -3027.346)" fill="#9a673d"/>
        <path id="Path_6590" data-name="Path 6590" d="M5542.905,3273.145c4.484,5.443,6.843,13.042,11.26,18.567.909,1.138,2.432,2.2,3.342,1.145.85-.989.232-2.762-.418-4.016q-2.464-4.748-4.925-9.5a45.393,45.393,0,0,0,15.937,11.432c.216-2.713-1.541-5.129-3.351-6.813s-3.893-3.182-4.913-5.659l11.522,6.439c1.011.566,2.557.874,2.863-.4a2.714,2.714,0,0,0-.873-2.234,30.813,30.813,0,0,0-8.952-7.181,58.237,58.237,0,0,0,13.114-.222c-.253-1.574-1.77-2.269-3.045-2.644a117.484,117.484,0,0,0-28.648-4.721" transform="translate(-5037.756 -3032.926)" fill="#9a673d"/>
        <g id="Group_4052" data-name="Group 4052" transform="translate(96.587 275.72)">
          <path id="Path_6591" data-name="Path 6591" d="M5195.86,3311.717c5.271,4.086,9.916,8.919,14.613,13.655s8.745,10.633,9.2,17.288-3.791,13.928-10.377,14.988c-4.147.667-8.392-1.187-11.5-4.015s-5.242-6.546-7.183-10.271c-2.862-5.491-4.4-11.463-5.7-17.519-1.117-5.2-.735-11.466,3.332-14.7S5195.068,3311.1,5195.86,3311.717Z" transform="translate(-5181.824 -3303.033)" fill="#a72d27"/>
          <path id="Path_6592" data-name="Path 6592" d="M5187.176,3313.46a7.4,7.4,0,0,1-4.536-9.645" transform="translate(-5182.122 -3303.815)" fill="none" stroke="#39431a" stroke-miterlimit="10" stroke-width="0.25"/>
          <path id="Path_6593" data-name="Path 6593" d="M5189.252,3309.911s-4.769,2.28-5.047,5.748.4,6.3-.717,7.735.4,1.116,1.946-1.021,1.865-6.841,1.865-6.841l8.452,7.494-4.9-9.688s5.519,3.715,8.787.845,2.448-3.739,2.448-3.739a5.674,5.674,0,0,1-6.053,1.341C5192.424,3310.421,5194.068,3308.013,5189.252,3309.911Z" transform="translate(-5181.992 -3303.101)" fill="#39431a"/>
        </g>
        <path id="Path_6594" data-name="Path 6594" d="M5383.069,3139.354c-1.979,6.04-10.235,25.54-32.62,23.425-26.447-2.517-23.09-23.09-23.09-23.09s-.234-.1-.571-.269c9.027-1.678,20.506-2.517,35.071-2.048A160.387,160.387,0,0,1,5383.069,3139.354Z" transform="translate(-5066.376 -3050.154)" fill="#9a673d"/>
      </g>
      <g id="Group_4056" data-name="Group 4056" transform="translate(472.114 0.173)">
        <path id="Path_6595" data-name="Path 6595" d="M5594.238,3482.087c-.216-2.376-9.543-440.587-9.543-440.587h5.567l14.315,441.382S5595.034,3490.835,5594.238,3482.087Z" transform="translate(-5504.337 -3041.5)" fill="#a56931"/>
        <g id="Group_4055" data-name="Group 4055" transform="translate(0 17.496)">
          <g id="Group_4054" data-name="Group 4054">
            <path id="Path_6596" data-name="Path 6596" d="M5515.235,3115.386c.05-.066.144-.136.2-.2.1-.1.187-.207.294-.293.015-.012.033-.018.049-.03,2.049-1.832,7.429-3.981,7.429-3.981a27.468,27.468,0,0,1,19.852.742c-1.326-1.4.277-3.912,2.2-4.107s3.666,1.019,5.212,2.172l4.945,3.692c1.261.941,2.945,1.915,4.292,1.1,1.007-.607,1.3-1.958,2.173-2.745,1.66-1.494,4.32-.253,5.93,1.3a19.39,19.39,0,0,1,4.781,19.814l-.246-.109.291,1.271a51.116,51.116,0,0,1-21.053,7.563c-3.027.376-7.138-.364-7.416-3.4-.259-2.84,3.163-4.4,5.927-5.1a45.476,45.476,0,0,1-13.918-.825,5.4,5.4,0,0,1-2.251-.883,2.959,2.959,0,0,1-.513-3.948,2.785,2.785,0,0,1,1.62-.986c-5.765-.856-11.5-1.932-17.157-3.316a6.8,6.8,0,0,1-3.007-1.29C5513.067,3120.215,5513.576,3117.178,5515.235,3115.386Z" transform="translate(-5513.734 -3050.257)" fill="#545e28"/>
            <path id="Path_6597" data-name="Path 6597" d="M5605.955,3095.4c1.235-1.746,2.755-3.527,4.85-3.951s4.649,1.372,4.127,3.445a22.325,22.325,0,0,1,23.092-5.253c.63.23,1.351.622,1.389,1.292a1.837,1.837,0,0,1-.7,1.281l-4.17,4.231,25.27,3.116c-3.893,6.833-12.781,8.583-20.575,9.63l7.022,1.522a31.311,31.311,0,0,1-9.553,4.347c-3.437.74-7.282.325-10.033-1.864-1.1-.876-2.788-1.993-3.65-.88,1.788,2.28,1,5.895-1.2,7.772a9.623,9.623,0,0,1-8.229,1.616,28.491,28.491,0,0,1-7.911-3.509l-7.021-4.018-.136-3.317A51.572,51.572,0,0,1,5605.955,3095.4Z" transform="translate(-5502.506 -3052.789)" fill="#545e28"/>
            <path id="Path_6598" data-name="Path 6598" d="M5573.317,3082.906a67.3,67.3,0,0,1-15.515-8.832c-1.024-.781-2.11-2.2-1.276-3.181a2.459,2.459,0,0,1,1.621-.633l4.331-.554-9.446-9.022c-.848-.81-1.735-2.148-.943-3.015a2.212,2.212,0,0,1,1.427-.54,28.223,28.223,0,0,1,21.273,6.455,15.68,15.68,0,0,1-1-5.762c3.762-.148,7.31,2.1,9.6,5.093a28.122,28.122,0,0,1,4.281,9.483,2.536,2.536,0,0,1,3.278-2.067c1.728.69,2.476,2.711,2.8,4.543a23.273,23.273,0,0,1-1.395,12.905c-1.365,3.3-3.54,6.472-3.453,10.045l-2.816,7.584a5.477,5.477,0,0,0-.584-2.561,13.462,13.462,0,0,0-3.654-3.991q-4.871-4.05-9.738-8.1a5.514,5.514,0,0,1-1.9-2.28C5569.479,3086.319,5571.506,3084.29,5573.317,3082.906Z" transform="translate(-5508.696 -3056.95)" fill="#545e28"/>
            <path id="Path_6599" data-name="Path 6599" d="M5582.187,3099.742a3.778,3.778,0,0,1-.944,2.544Z" transform="translate(-5504.794 -3051.284)" fill="#545e28"/>
          </g>
          <path id="Path_6600" data-name="Path 6600" d="M5550.083,3198.031c-1.42-3.838-8.154,1.332-10.922,4.345s-4.435,6.851-6.05,10.611c-2.2,5.12-4.443,10.678-3.192,16.107s7.5,9.417,12.5,6.961C5549.848,3232.4,5559.75,3224.135,5550.083,3198.031Z" transform="translate(-5511.639 -3038.448)" fill="#a72d27"/>
          <path id="Path_6601" data-name="Path 6601" d="M5554.752,3339.245c.06-2.714.151-5.55,1.456-7.93s4.232-4.112,6.766-3.139c-5.359-3.315-13.358-1-16.12,4.662" transform="translate(-5509.348 -3021.235)" fill="none" stroke="#39431a" stroke-miterlimit="10" stroke-width="0.25"/>
          <path id="Path_6602" data-name="Path 6602" d="M5568.012,3242.1c-6.228,22.436-2.86,46.238-3.067,69.522-.117,13.27-1.412,26.5-2.707,39.7" transform="translate(-5507.311 -3032.431)" fill="none" stroke="#39431a" stroke-miterlimit="10" stroke-width="0.5"/>
          <path id="Path_6603" data-name="Path 6603" d="M5562.4,3363.914a611.049,611.049,0,0,1-3.857,81.853" transform="translate(-5507.8 -3016.3)" fill="none" stroke="#39431a" stroke-miterlimit="10" stroke-width="0.5"/>
          <path id="Path_6604" data-name="Path 6604" d="M5551.724,3275.738c.515,5.045,4.035,10.139,9.064,10.792,3.747.487,7.483-1.6,9.846-4.543s3.564-6.652,4.438-10.327a68.575,68.575,0,0,0,1.332-25.327,11.191,11.191,0,0,0-2.055-5.77,4.884,4.884,0,0,0-5.529-1.181c-3.354,1.3-2.343-.482-6.332.575S5548.756,3256.276,5551.724,3275.738Z" transform="translate(-5508.777 -3032.842)" fill="#ca362d"/>
          <path id="Path_6605" data-name="Path 6605" d="M5571.061,3245.729c.831,6.618,2.626,13.076,4.309,19.531s4.7,12.94,10.195,16.717,13.918,3.831,18.184-1.3c2.687-3.23,3.253-7.828,2.4-11.942s-2.964-7.844-5.181-11.412c-3.27-5.259-7.625-9.624-12.175-13.826-3.906-3.609-9.494-6.472-14.343-4.617S5570.935,3244.737,5571.061,3245.729Z" transform="translate(-5506.177 -3032.935)" fill="#a72d27"/>
          <path id="Path_6606" data-name="Path 6606" d="M5600.271,3259.464c-4.855-.73-7.812-5.642-8.375-10.519a30.408,30.408,0,0,1,3.429-17.8c1.965-3.638,5.114-7.1,9.227-7.533,4.17-.435,8.108,2.5,10.153,6.158s2.343,7.98,3.089,12.106C5620.019,3254.169,5613.1,3261.4,5600.271,3259.464Z" transform="translate(-5503.409 -3034.886)" fill="#a72d27"/>
          <path id="Path_6607" data-name="Path 6607" d="M5572.139,3231.232c-1.833-2.776-.376-6.423,1.261-9.319,3.407-6.026,8.054-12.828,14.974-12.921a4.7,4.7,0,0,1,3.488,1.16c1.043,1.08,1.138,2.747,1.043,4.245-.514,8.039-4.3,16.927-11.656,20.2C5575.764,3237.043,5573.79,3233.73,5572.139,3231.232Z" transform="translate(-5506.114 -3036.816)" fill="#a72d27"/>
          <path id="Path_6608" data-name="Path 6608" d="M5575.126,3235.954q1.2.968,2.4,1.935" transform="translate(-5505.604 -3033.246)" fill="none" stroke="#39431a" stroke-miterlimit="10" stroke-width="0.25"/>
          <path id="Path_6609" data-name="Path 6609" d="M5564.6,3260.033c5.654-29.326,11.321-58.761,12.935-88.582.506-9.365.617-18.8,2.343-28.015,1.412-7.545,3.9-14.928,4.313-22.593.477-8.882-1.782-18.288,1.9-26.387" transform="translate(-5506.999 -3051.984)" fill="none" stroke="#39431a" stroke-miterlimit="10" stroke-width="0.5"/>
          <path id="Path_6610" data-name="Path 6610" d="M5576,3178.771c-.824-2.622,2.455-5.056,5.144-4.484s4.577,2.946,6.039,5.273a35.249,35.249,0,0,1,5.5,14.418c.988,8.317-1.991,16.539-4.921,24.386" transform="translate(-5505.505 -3041.424)" fill="none" stroke="#39431a" stroke-miterlimit="10" stroke-width="0.25"/>
          <path id="Path_6611" data-name="Path 6611" d="M5592.941,3194.332a41.815,41.815,0,0,1,6.94,21.093" transform="translate(-5503.245 -3038.757)" fill="none" stroke="#39431a" stroke-miterlimit="10" stroke-width="0.25"/>
          <path id="Path_6612" data-name="Path 6612" d="M5594.852,3197.105a32.767,32.767,0,0,1,12.515,31.784" transform="translate(-5502.992 -3038.391)" fill="none" stroke="#39431a" stroke-miterlimit="10" stroke-width="0.25"/>
          <path id="Path_6613" data-name="Path 6613" d="M5576.5,3239.5a7.4,7.4,0,0,0-5.989-8.817" transform="translate(-5506.215 -3033.944)" fill="none" stroke="#39431a" stroke-miterlimit="10" stroke-width="0.25"/>
          <path id="Path_6614" data-name="Path 6614" d="M5574.164,3195.676c-.312-6.263-6.625-11.552-12.848-10.761s-11.012,7.49-9.748,13.633" transform="translate(-5508.75 -3040.015)" fill="none" stroke="#39431a" stroke-miterlimit="10" stroke-width="0.25"/>
          <path id="Path_6615" data-name="Path 6615" d="M5548.213,3197.395c1.059-1.5,3.407-1.525,4.962-.549a10.976,10.976,0,0,1,3.4,4.259c3.287,5.945,6.641,12.107,7.275,18.871s-2.189,14.339-8.363,17.171a8.2,8.2,0,0,1-4.86.773c-3.5-.655-5.682-4.156-6.868-7.509a33.175,33.175,0,0,1,6.285-32.337" transform="translate(-5509.994 -3038.513)" fill="#ca362d"/>
          <path id="Path_6616" data-name="Path 6616" d="M5533.567,3220.684c-5.349,2.193-13.027,1.093-15.612-4.08-2.61-5.22,2.1-11.109,6.884-14.461a61.775,61.775,0,0,1,19.95-9.21c2.155-.557,4.966-.945,6.245.878C5556.243,3201.241,5549.276,3214.248,5533.567,3220.684Z" transform="translate(-5513.273 -3039.004)" fill="#e26928"/>
          <path id="Path_6617" data-name="Path 6617" d="M5612.278,3163.094c-1.281-2.848-3.955-5.277-7-5.251-3.222.027-5.86,2.714-7.334,5.646-2.948,5.867-3.059,23.74,1.611,26.668s9.9,2.95,14.91-1.884C5620.7,3182.275,5613.561,3165.944,5612.278,3163.094Z" transform="translate(-5502.859 -3043.59)" fill="#a72d27"/>
          <path id="Path_6618" data-name="Path 6618" d="M5614.56,3166.1c-.14-2.633-.024-5.467,2.377-6.553s5.312-.381,7.479,1.118a23.091,23.091,0,0,1,5.288,5.828c2.562,3.566,5.184,7.274,6.069,11.574s-.432,9.437-4.283,11.543C5624.433,3193.468,5615.888,3191.343,5614.56,3166.1Z" transform="translate(-5500.388 -3043.434)" fill="#a72d27"/>
          <path id="Path_6619" data-name="Path 6619" d="M5620.416,3163.757a44.016,44.016,0,0,0-7.094-18.776c-1.009-1.5-2.5-3.1-4.28-2.8-2.206.374-2.834,3.2-2.967,5.432l-.719,12.092" transform="translate(-5501.602 -3045.669)" fill="none" stroke="#39431a" stroke-miterlimit="10" stroke-width="0.25"/>
          <path id="Path_6620" data-name="Path 6620" d="M5607.686,3142.59a69.356,69.356,0,0,1,5.548,26.359" transform="translate(-5501.292 -3045.61)" fill="none" stroke="#39431a" stroke-miterlimit="10" stroke-width="0.25"/>
          <path id="Path_6621" data-name="Path 6621" d="M5612.853,3144.622c-2.394-6.271-6.159-12.287-11.86-15.83s-13.592-4.074-18.934-.011" transform="translate(-5504.687 -3047.816)" fill="none" stroke="#39431a" stroke-miterlimit="10" stroke-width="0.25"/>
          <path id="Path_6622" data-name="Path 6622" d="M5582.171,3166.308a48.428,48.428,0,0,0-12.606-33.7,43.632,43.632,0,0,0-32.96-13.9" transform="translate(-5510.706 -3048.775)" fill="none" stroke="#39431a" stroke-miterlimit="10" stroke-width="0.25"/>
          <path id="Path_6623" data-name="Path 6623" d="M5582.279,3132.339c3.285-11.363,12.806-20.138,23.569-25.043s22.734-6.43,34.531-7.3" transform="translate(-5504.657 -3051.25)" fill="none" stroke="#39431a" stroke-miterlimit="10" stroke-width="0.25"/>
          <path id="Path_6624" data-name="Path 6624" d="M5584.1,3103.395c3.712-14.154-2.845-30.374-15.352-37.973" transform="translate(-5506.448 -3055.829)" fill="none" stroke="#39431a" stroke-miterlimit="10" stroke-width="0.25"/>
          <path id="Path_6625" data-name="Path 6625" d="M5607.392,3187.949c.846,4.48,3.487,9.229,7.945,10.188,4.765,1.025,9.433-3.1,10.711-7.8s.046-9.695-1.385-14.354a20.365,20.365,0,0,0-3.316-7.122c-1.673-2.036-4.34-3.459-6.926-2.952-3.93.771-5.411,5.345-6.944,9.045C5606.523,3177.256,5606.721,3184.4,5607.392,3187.949Z" transform="translate(-5501.407 -3042.535)" fill="#e26928"/>
          <path id="Path_6626" data-name="Path 6626" d="M5520.515,3361.472c-.932,4.985,1,10.866,5.643,12.914,3.457,1.526,7.629.585,10.729-1.576s5.3-5.372,7.177-8.651a68.543,68.543,0,0,0,8.436-23.917,11.18,11.18,0,0,0-.339-6.116,4.884,4.884,0,0,0-4.969-2.7c-3.584.295-2.112-1.125-6.237-1.237S5523.169,3341.966,5520.515,3361.472Z" transform="translate(-5512.867 -3020.766)" fill="#a72d27"/>
          <path id="Path_6627" data-name="Path 6627" d="M5582.652,3241.267a11.166,11.166,0,0,0,5.6,3.258c5.542,1.107,11.406-1.841,14.673-6.453s4.187-10.581,3.53-16.193c-.5-4.23-2.56-9.044-6.75-9.809s-7.776,2.959-10.264,6.435c-2.95,4.125-5.414,8.566-8.094,12.87C5578.689,3235.64,5580.44,3239.052,5582.652,3241.267Z" transform="translate(-5504.958 -3036.422)" fill="#ca362d"/>
          <path id="Path_6628" data-name="Path 6628" d="M5532.962,3372.862c.451,5.05,3.9,10.191,8.924,10.909,3.74.534,7.5-1.5,9.9-4.417s3.649-6.6,4.571-10.269a68.582,68.582,0,0,0,1.659-25.308,11.2,11.2,0,0,0-1.98-5.8,4.884,4.884,0,0,0-5.513-1.252c-3.372,1.252-2.337-.513-6.341.492S5530.247,3353.364,5532.962,3372.862Z" transform="translate(-5511.249 -3019.947)" fill="#ca362d"/>
          <path id="Path_6629" data-name="Path 6629" d="M5548.258,3341.215c.831,6.619,2.626,13.076,4.309,19.531s4.7,12.94,10.2,16.717,13.917,3.831,18.182-1.3c2.687-3.23,3.253-7.829,2.4-11.94s-2.963-7.845-5.181-11.414c-3.268-5.259-7.626-9.623-12.173-13.826-3.906-3.609-9.495-6.472-14.344-4.617S5548.133,3340.223,5548.258,3341.215Z" transform="translate(-5509.197 -3020.29)" fill="#e26928"/>
          <path id="Path_6630" data-name="Path 6630" d="M5551.021,3334.245c2.007-.934,6.544-3.308,10.712-.082s5.581,4.239,5.581,4.239l-8.642-1.648.836,10.158-5.5-7.915s-1.907-.582-3.353,3.177a9.251,9.251,0,0,1-4.994,5.4c-.868.386,2.353-1.674,2.5-5.542S5546.955,3336.138,5551.021,3334.245Z" transform="translate(-5509.526 -3020.457)" fill="#39431a"/>
          <path id="Path_6631" data-name="Path 6631" d="M5546.808,3329.854s6.147.776,5.651,5.513-.159,9.551,1.468,10.81-4.516-2.358-4.626-6.1-1.409-4.586-1.409-4.586-6.773,1.5-9.446,6.427-5.472,3.812-5.472,3.812,3.242-7.652,7.06-10.062-4.256-1.75-8.42,1.53-6.911.423-6.911.423a10.845,10.845,0,0,0,7.9-4.856C5535.595,3328.165,5542.793,3324.958,5546.808,3329.854Z" transform="translate(-5512.281 -3021.135)" fill="#39431a"/>
          <path id="Path_6632" data-name="Path 6632" d="M5573.362,3239.085s4.391-2.942,7.518-1.417,5.219,3.552,7.021,3.323.759.912-1.869,1.154-6.837-1.879-6.837-1.879l2.144,11.091-5.838-9.153s.387,6.64-3.749,7.991-4.465.2-4.465.2a5.672,5.672,0,0,0,4.237-4.526C5572.186,3242.076,5569.277,3242.263,5573.362,3239.085Z" transform="translate(-5506.642 -3033.077)" fill="#39431a"/>
          <path id="Path_6633" data-name="Path 6633" d="M5549.908,3193.092s-1.19-2.873-5.486-2.052-6.5-1.371-6.5-1.371-2.834,3.66.855,4.565,6.8,1.608,6.8,1.608l-9.931,6.214,9.538-.665a12.838,12.838,0,0,0-4.383,6.606c-.87,3.96,1.294,3.685,1.294,3.685s2.051-5.486,4.653-6.642-.221,6.9-.221,6.9a59.839,59.839,0,0,1,4.377-8.8C5553.641,3198.664,5554.241,3194.738,5549.908,3193.092Z" transform="translate(-5510.832 -3039.375)" fill="#39431a"/>
          <path id="Path_6634" data-name="Path 6634" d="M5611.7,3166.281c2.007-.935,6.545-3.308,10.713-.082s5.58,4.239,5.58,4.239l-8.642-1.649.836,10.158-5.5-7.915s-1.907-.582-3.353,3.177a9.261,9.261,0,0,1-4.995,5.4c-.868.385,2.353-1.675,2.5-5.543S5607.629,3168.173,5611.7,3166.281Z" transform="translate(-5501.492 -3042.7)" fill="#39431a"/>
        </g>
        <path id="Path_6635" data-name="Path 6635" d="M5575.591,3097.641l18.856-2.019-17.058-.636,16.459-.885" transform="translate(-5505.543 -3034.534)" fill="none" stroke="#b69f89" stroke-miterlimit="10" stroke-width="0.25"/>
        <path id="Path_6636" data-name="Path 6636" d="M5575.808,3139.325l21.088,10.33" transform="translate(-5505.514 -3028.546)" fill="none" stroke="#b69f89" stroke-miterlimit="10" stroke-width="0.25"/>
        <path id="Path_6637" data-name="Path 6637" d="M5587.7,3150.357l8.346-.027a31.021,31.021,0,0,0-10.032,2.759,26.668,26.668,0,0,0,7.664.468l-7.343,1.607,3.751-.035" transform="translate(-5504.163 -3027.088)" fill="none" stroke="#b69f89" stroke-miterlimit="10" stroke-width="0.25"/>
        <path id="Path_6638" data-name="Path 6638" d="M5559.412,3316.951a110.584,110.584,0,0,0,39.843-7" transform="translate(-5507.685 -3005.949)" fill="none" stroke="#b69f89" stroke-miterlimit="10" stroke-width="0.25"/>
        <path id="Path_6639" data-name="Path 6639" d="M5589.47,3310.644a12.262,12.262,0,0,0,7.978,2.889,72.706,72.706,0,0,0-8.253-5.016l12.3,2.745-10.96-6.412,10.254,4.8" transform="translate(-5503.741 -3006.625)" fill="none" stroke="#b69f89" stroke-miterlimit="10" stroke-width="0.25"/>
      </g>
      <g id="Group_4058" data-name="Group 4058" transform="translate(598.939 0)">
        <path id="Path_6640" data-name="Path 6640" d="M5675.61,3482.035c-.16-2.382.969-440.688.969-440.688l5.566.133,3.781,441.6S5676.2,3490.8,5675.61,3482.035Z" transform="translate(-5619.125 -3041.347)" fill="#a56931"/>
        <g id="Group_4057" data-name="Group 4057" transform="translate(0 14.124)">
          <path id="Path_6641" data-name="Path 6641" d="M5684.867,3114.7a99.9,99.9,0,0,1-17.206,1.165,7.025,7.025,0,0,1-3.137-.564,2.516,2.516,0,0,1-1.444-2.615,11.212,11.212,0,0,1,6.625-1.434,41.867,41.867,0,0,1-15.97-5.112,17.66,17.66,0,0,1,7.675-1.032,21.477,21.477,0,0,1-14.267-10.986,13.461,13.461,0,0,1,10.628,1.786,8.1,8.1,0,0,1-1.884-6.521,2.376,2.376,0,0,1,.768-1.583,2.627,2.627,0,0,1,1.78-.324,23.65,23.65,0,0,1,15.153,7.049c1.069-.767-.376-2.967.762-3.63.692-.4,1.486.322,1.942.982a39.156,39.156,0,0,1,5.345,11.206,9.285,9.285,0,0,1,1.757-5.581,32.529,32.529,0,0,1,2.906,17.173" transform="translate(-5622.893 -3049.364)" fill="#545e28"/>
          <path id="Path_6642" data-name="Path 6642" d="M5762.752,3265.874c-.047-.067-.138-.141-.2-.209-.1-.1-.18-.212-.283-.3-.015-.013-.033-.019-.048-.031-1.986-1.9-7.288-4.232-7.288-4.232a27.46,27.46,0,0,0-19.865.061c1.372-1.356-.145-3.918-2.056-4.18s-3.7.893-5.284,1.993q-2.533,1.76-5.069,3.521c-1.292.9-3.008,1.812-4.327.955-.986-.642-1.229-2-2.077-2.819-1.609-1.549-4.309-.4-5.971,1.094a19.39,19.39,0,0,0-5.457,19.64l.249-.1-.333,1.259a51.092,51.092,0,0,0,20.782,8.278c3.012.479,7.146-.119,7.527-3.145.357-2.83-3.01-4.506-5.75-5.3a45.5,45.5,0,0,0,13.94-.348,5.4,5.4,0,0,0,2.28-.806,2.96,2.96,0,0,0,.647-3.93,2.788,2.788,0,0,0-1.584-1.041c5.79-.658,11.556-1.538,17.26-2.727a6.8,6.8,0,0,0,3.049-1.187C5764.753,3270.774,5764.35,3267.723,5762.752,3265.874Z" transform="translate(-5615.357 -3026.921)" fill="#545e28"/>
          <path id="Path_6643" data-name="Path 6643" d="M5705.361,3089.245c1.029-1.873,2.339-3.815,4.372-4.474s4.774.837,4.49,2.957a22.327,22.327,0,0,1,22.349-7.835c.653.159,1.413.466,1.526,1.127a1.827,1.827,0,0,1-.552,1.352l-3.666,4.676,25.46.237c-3.095,7.229-11.726,9.974-19.352,11.9l7.148.718a31.313,31.313,0,0,1-9,5.4c-3.331,1.125-7.2,1.147-10.18-.716-1.193-.746-2.995-1.665-3.725-.461,2.035,2.062,1.665,5.743-.315,7.858a9.619,9.619,0,0,1-7.993,2.537,28.459,28.459,0,0,1-8.257-2.591l-7.431-3.2-.512-3.281A51.6,51.6,0,0,1,5705.361,3089.245Z" transform="translate(-5615.929 -3050.442)" fill="#545e28"/>
          <path id="Path_6644" data-name="Path 6644" d="M5699.622,3079.206a67.332,67.332,0,0,0,15.808-8.3c1.05-.744,2.183-2.129,1.383-3.135a2.451,2.451,0,0,0-1.6-.687l-4.309-.7,9.748-8.694c.876-.781,1.808-2.087,1.046-2.98a2.221,2.221,0,0,0-1.408-.589,28.227,28.227,0,0,0-21.481,5.725,15.7,15.7,0,0,0,1.193-5.726c-3.754-.276-7.378,1.851-9.767,4.762a28.123,28.123,0,0,0-4.6,9.332,2.535,2.535,0,0,0-3.205-2.179c-1.751.631-2.567,2.625-2.957,4.445a23.274,23.274,0,0,0,.953,12.946c1.252,3.347,3.317,6.59,3.108,10.157l2.556,7.676a5.463,5.463,0,0,1,.671-2.539,13.439,13.439,0,0,1,3.788-3.864l10.011-7.765a5.526,5.526,0,0,0,1.974-2.213C5703.341,3082.748,5701.384,3080.651,5699.622,3079.206Z" transform="translate(-5618.678 -3053.82)" fill="#545e28"/>
          <path id="Path_6645" data-name="Path 6645" d="M5685.255,3095.711a3.781,3.781,0,0,0,.858,2.577Z" transform="translate(-5617.845 -3048.272)" fill="#545e28"/>
          <path id="Path_6646" data-name="Path 6646" d="M5716.82,3195.11c1.552-3.787,8.1,1.609,10.769,4.715s4.2,7,5.682,10.812c2.023,5.191,4.076,10.823,2.64,16.205s-7.812,9.156-12.727,6.531C5715.881,3229.471,5706.268,3220.869,5716.82,3195.11Z" transform="translate(-5614.284 -3035.281)" fill="#a72d27"/>
          <path id="Path_6647" data-name="Path 6647" d="M5712.665,3272.72c-.687,5.025-4.379,9.995-9.428,10.476-3.761.359-7.424-1.849-9.684-4.877s-3.335-6.77-4.084-10.473a68.574,68.574,0,0,1-.464-25.358,11.182,11.182,0,0,1,2.251-5.7,4.883,4.883,0,0,1,5.565-.991c3.309,1.41,2.359-.4,6.31.791S5716.3,3253.371,5712.665,3272.72Z" transform="translate(-5617.476 -3029.78)" fill="#ca362d"/>
          <path id="Path_6648" data-name="Path 6648" d="M5695.586,3242.018c-1.058,6.586-3.072,12.979-4.975,19.372s-5.138,12.771-10.762,16.359-14.039,3.352-18.127-1.918c-2.574-3.319-2.984-7.935-1.99-12.016s3.23-7.739,5.568-11.229c3.446-5.145,7.95-9.357,12.639-13.4,4.027-3.473,9.711-6.143,14.494-4.123S5695.745,3241.029,5695.586,3242.018Z" transform="translate(-5621.291 -3029.911)" fill="#a72d27"/>
          <path id="Path_6649" data-name="Path 6649" d="M5664.8,3254.773c4.876-.565,8-5.372,8.728-10.227a30.4,30.4,0,0,0-2.817-17.908c-1.84-3.7-4.87-7.274-8.965-7.843-4.152-.578-8.188,2.219-10.355,5.807s-2.615,7.9-3.5,11.992C5645.246,3248.807,5651.913,3256.265,5664.8,3254.773Z" transform="translate(-5622.869 -3031.982)" fill="#e26928"/>
          <path id="Path_6650" data-name="Path 6650" d="M5693.24,3227.533c1.928-2.712.6-6.406-.941-9.357-3.2-6.138-7.61-13.1-14.523-13.425a4.7,4.7,0,0,0-3.525,1.041c-1.079,1.044-1.231,2.706-1.187,4.207.237,8.051,3.715,17.063,10.958,20.59C5689.42,3233.218,5691.506,3229.974,5693.24,3227.533Z" transform="translate(-5619.461 -3033.833)" fill="#a72d27"/>
          <path id="Path_6651" data-name="Path 6651" d="M5687.833,3232.081l-2.467,1.852" transform="translate(-5617.831 -3030.213)" fill="none" stroke="#39431a" stroke-miterlimit="10" stroke-width="0.25"/>
          <path id="Path_6652" data-name="Path 6652" d="M5701.939,3478.649a393.544,393.544,0,0,0-3.416-55.748c-1.786-13.419-4.267-26.78-4.828-40.3-.656-15.8,1.317-31.582,2.039-47.381.7-15.376.215-30.777-.271-46.161q-1.255-39.732-2.511-79.465c-.737-23.335-.981-47.012-4.483-70.05-1.153-7.589-3.39-15.052-3.539-22.727-.173-8.893,2.406-18.217-.992-26.436" transform="translate(-5618.02 -3048.978)" fill="none" stroke="#39431a" stroke-miterlimit="10" stroke-width="0.5"/>
          <path id="Path_6653" data-name="Path 6653" d="M5690.708,3174.92c.913-2.592-2.282-5.137-4.989-4.658s-4.674,2.789-6.215,5.064a35.261,35.261,0,0,0-5.985,14.222c-1.271,8.279,1.425,16.6,4.084,24.541" transform="translate(-5619.441 -3038.407)" fill="none" stroke="#39431a" stroke-miterlimit="10" stroke-width="0.25"/>
          <path id="Path_6654" data-name="Path 6654" d="M5672.059,3189.874a41.823,41.823,0,0,0-7.658,20.844" transform="translate(-5620.606 -3035.802)" fill="none" stroke="#39431a" stroke-miterlimit="10" stroke-width="0.25"/>
          <path id="Path_6655" data-name="Path 6655" d="M5670.79,3192.58a32.772,32.772,0,0,0-13.6,31.338" transform="translate(-5621.607 -3035.444)" fill="none" stroke="#39431a" stroke-miterlimit="10" stroke-width="0.25"/>
          <path id="Path_6656" data-name="Path 6656" d="M5686.8,3235.577a7.4,7.4,0,0,1,6.288-8.606" transform="translate(-5617.66 -3030.89)" fill="none" stroke="#39431a" stroke-miterlimit="10" stroke-width="0.25"/>
          <path id="Path_6657" data-name="Path 6657" d="M5692.591,3191.905c.527-6.251,7.017-11.32,13.209-10.316s10.749,7.862,9.275,13.958" transform="translate(-5616.874 -3036.916)" fill="none" stroke="#39431a" stroke-miterlimit="10" stroke-width="0.25"/>
          <path id="Path_6658" data-name="Path 6658" d="M5718.431,3194.5c-1.007-1.536-3.353-1.641-4.942-.718a10.988,10.988,0,0,0-3.539,4.14c-3.487,5.83-7.051,11.874-7.917,18.611s1.7,14.406,7.772,17.446a8.193,8.193,0,0,0,4.831.94c3.516-.535,5.822-3.959,7.121-7.27a33.174,33.174,0,0,0-5.175-32.535" transform="translate(-5615.645 -3035.363)" fill="#ca362d"/>
          <path id="Path_6659" data-name="Path 6659" d="M5733.782,3218.363c5.272,2.375,12.982,1.538,15.744-3.544,2.787-5.127-1.725-11.175-6.386-14.687a61.793,61.793,0,0,0-19.623-9.887c-2.135-.631-4.932-1.113-6.27.663C5711.786,3198.156,5718.3,3211.394,5733.782,3218.363Z" transform="translate(-5613.862 -3035.829)" fill="#e26928"/>
          <path id="Path_6660" data-name="Path 6660" d="M5676.142,3143.713c1.535-3.121,4.6-5.721,7.992-5.575,3.583.153,6.415,3.241,7.943,6.559,3.058,6.638,2.5,26.525-2.8,29.6s-11.122,2.906-16.514-2.662C5666.046,3164.727,5674.608,3146.833,5676.142,3143.713Z" transform="translate(-5619.836 -3042.655)" fill="#a72d27"/>
          <path id="Path_6661" data-name="Path 6661" d="M5673.535,3146.948c.255-2.924.234-6.081-2.4-7.381s-5.895-.627-8.363.959a25.722,25.722,0,0,0-6.1,6.28c-2.985,3.871-6.043,7.895-7.19,12.645s.12,10.513,4.325,13C5661.511,3177.018,5671.1,3174.977,5673.535,3146.948Z" transform="translate(-5622.636 -3042.555)" fill="#a72d27"/>
          <path id="Path_6662" data-name="Path 6662" d="M5680.019,3121.036a77.2,77.2,0,0,0-7.176,29.111" transform="translate(-5619.489 -3044.919)" fill="none" stroke="#39431a" stroke-miterlimit="10" stroke-width="0.25"/>
          <path id="Path_6663" data-name="Path 6663" d="M5692.558,3314.36a48.433,48.433,0,0,1,13.75-33.253,43.641,43.641,0,0,1,33.417-12.761" transform="translate(-5616.878 -3025.424)" fill="none" stroke="#39431a" stroke-miterlimit="10" stroke-width="0.25"/>
          <path id="Path_6664" data-name="Path 6664" d="M5626.829,3299.856c.041-.07.127-.151.18-.224.087-.107.162-.226.258-.324.014-.015.032-.021.045-.035,1.83-2.052,6.93-4.8,6.93-4.8a27.464,27.464,0,0,1,19.808-1.51c-1.477-1.242-.167-3.918,1.718-4.33s3.759.6,5.424,1.569l5.333,3.107c1.359.793,3.143,1.569,4.389.609.933-.718,1.067-2.093,1.847-2.974,1.482-1.672,4.265-.739,6.04.617a19.39,19.39,0,0,1,6.994,19.146l-.256-.08.433,1.229a51.137,51.137,0,0,1-20.061,9.9c-2.965.714-7.133.446-7.754-2.54-.579-2.792,2.645-4.73,5.313-5.736a45.432,45.432,0,0,1-13.923.757,5.417,5.417,0,0,1-2.338-.623,2.96,2.96,0,0,1-.955-3.865,2.773,2.773,0,0,1,1.5-1.163c-5.825-.2-11.641-.618-17.423-1.353a6.793,6.793,0,0,1-3.132-.941C5625.221,3304.9,5625.382,3301.825,5626.829,3299.856Z" transform="translate(-5625.728 -3022.736)" fill="#545e28"/>
          <path id="Path_6665" data-name="Path 6665" d="M5699.25,3342.5a48.435,48.435,0,0,0-16.341-32.059,43.634,43.634,0,0,0-34.32-10.075" transform="translate(-5622.702 -3021.23)" fill="none" stroke="#39431a" stroke-miterlimit="10" stroke-width="0.25"/>
          <path id="Path_6666" data-name="Path 6666" d="M5685.891,3128.957c1.976-11.662,10.444-21.458,20.582-27.551s21.86-8.961,33.482-11.162" transform="translate(-5617.761 -3048.996)" fill="none" stroke="#39431a" stroke-miterlimit="10" stroke-width="0.25"/>
          <path id="Path_6667" data-name="Path 6667" d="M5685.144,3099.293c-3.227-14.273,3.88-30.26,16.64-37.427" transform="translate(-5617.962 -3052.754)" fill="none" stroke="#39431a" stroke-miterlimit="10" stroke-width="0.25"/>
          <path id="Path_6668" data-name="Path 6668" d="M5680.443,3171.542c-1.111,4.951-4.231,10.134-9.226,11.031-5.339.958-10.375-3.8-11.619-9.085s.319-10.786,2.087-15.914a22.648,22.648,0,0,1,3.96-7.8c1.938-2.2,4.959-3.683,7.817-3.02,4.342,1.008,5.816,6.153,7.38,10.326C5681.817,3159.681,5681.323,3167.622,5680.443,3171.542Z" transform="translate(-5621.303 -3041.533)" fill="#ca362d"/>
          <path id="Path_6669" data-name="Path 6669" d="M5683.012,3237.207a11.175,11.175,0,0,1-5.707,3.066c-5.576.917-11.336-2.231-14.444-6.951s-3.823-10.718-2.975-16.3c.64-4.21,2.868-8.951,7.082-9.573s7.671,3.224,10.036,6.782c2.809,4.222,5.12,8.746,7.65,13.14C5687.164,3231.721,5685.3,3235.071,5683.012,3237.207Z" transform="translate(-5621.249 -3033.484)" fill="#ca362d"/>
          <path id="Path_6670" data-name="Path 6670" d="M5691.731,3235.316s-4.288-3.091-7.466-1.671-5.336,3.371-7.131,3.08-.787.885,1.83,1.217,6.9-1.644,6.9-1.644l-2.523,11.012,6.149-8.95s-.613,6.624,3.473,8.116,4.455.355,4.455.355a5.675,5.675,0,0,1-4.079-4.669C5692.8,3238.346,5695.707,3238.632,5691.731,3235.316Z" transform="translate(-5619.041 -3030.055)" fill="#39431a"/>
          <path id="Path_6671" data-name="Path 6671" d="M5716.28,3190.114s1.288-2.831,5.552-1.863,6.541-1.149,6.541-1.149,2.706,3.755-1.012,4.533-6.854,1.375-6.854,1.375l9.713,6.55-9.51-.991a12.841,12.841,0,0,1,4.154,6.752c.735,3.987-1.419,3.639-1.419,3.639s-1.863-5.552-4.423-6.8-.015,6.905-.015,6.905a59.957,59.957,0,0,0-4.075-8.95C5712.358,3195.557,5711.893,3191.612,5716.28,3190.114Z" transform="translate(-5614.173 -3036.169)" fill="#39431a"/>
          <path id="Path_6672" data-name="Path 6672" d="M5676.68,3147.287c-2.2-1.115-7.154-3.928-11.913-.5s-6.369,4.5-6.369,4.5l9.675-1.506-1.315,11.268,6.417-8.594s2.144-.575,3.609,3.66a10.3,10.3,0,0,0,5.351,6.2c.951.462-2.554-1.952-2.573-6.26S5681.132,3149.547,5676.68,3147.287Z" transform="translate(-5621.402 -3041.726)" fill="#39431a"/>
          <path id="Path_6673" data-name="Path 6673" d="M5698.733,3157.83c.032-2.715.037-5.55-1.185-7.976s-4.089-4.253-6.655-3.367c5.468-3.131,13.383-.546,15.951,5.21" transform="translate(-5617.099 -3041.726)" fill="none" stroke="#39431a" stroke-miterlimit="10" stroke-width="0.25"/>
          <path id="Path_6674" data-name="Path 6674" d="M5734.125,3181.254c.76,5.014-1.376,10.825-6.082,12.714-3.507,1.407-7.645.324-10.669-1.941s-5.112-5.551-6.876-8.892a68.579,68.579,0,0,1-7.614-24.192,11.177,11.177,0,0,1,.549-6.1,4.883,4.883,0,0,1,5.059-2.524c3.572.417,2.148-1.052,6.275-1.025S5732.137,3161.668,5734.125,3181.254Z" transform="translate(-5615.533 -3041.176)" fill="#a72d27"/>
          <path id="Path_6675" data-name="Path 6675" d="M5720.579,3192.21c-.623,5.032-4.25,10.05-9.292,10.6-3.756.406-7.447-1.754-9.747-4.753s-3.422-6.726-4.218-10.42a68.574,68.574,0,0,1-.792-25.349,11.169,11.169,0,0,1,2.177-5.724,4.883,4.883,0,0,1,5.552-1.063c3.327,1.367,2.354-.433,6.32.71S5723.959,3172.816,5720.579,3192.21Z" transform="translate(-5616.461 -3040.41)" fill="#ca362d"/>
          <path id="Path_6676" data-name="Path 6676" d="M5707.576,3160.007c-1.057,6.586-3.071,12.979-4.974,19.371s-5.138,12.773-10.761,16.36-14.04,3.352-18.128-1.919c-2.574-3.318-2.984-7.934-1.989-12.015s3.23-7.739,5.567-11.229c3.447-5.145,7.951-9.358,12.64-13.4,4.026-3.473,9.709-6.143,14.493-4.123S5707.736,3159.018,5707.576,3160.007Z" transform="translate(-5619.703 -3040.771)" fill="#e26928"/>
          <path id="Path_6677" data-name="Path 6677" d="M5703.313,3152.965c-1.974-1-6.426-3.53-10.7-.448s-5.722,4.045-5.722,4.045l8.692-1.353-1.182,10.124,5.767-7.722s1.925-.516,3.242,3.29a9.258,9.258,0,0,0,4.807,5.568c.854.416-2.294-1.753-2.312-5.625S5707.313,3155,5703.313,3152.965Z" transform="translate(-5617.629 -3040.946)" fill="#39431a"/>
          <path id="Path_6678" data-name="Path 6678" d="M5708.626,3148.742s-6.17.564-5.836,5.315-.167,9.551-1.837,10.755,4.595-2.2,4.833-5.94,1.565-4.535,1.565-4.535,6.718,1.735,9.22,6.746,5.338,4,5.338,4-2.978-7.759-6.709-10.3,4.313-1.6,8.362,1.818,6.894.657,6.894.657a10.842,10.842,0,0,1-7.734-5.123C5719.889,3147.437,5712.805,3143.985,5708.626,3148.742Z" transform="translate(-5615.803 -3041.551)" fill="#39431a"/>
          <path id="Path_6679" data-name="Path 6679" d="M5665.016,3144.672c1.995-6,4.062-12.136,7.995-17.086s10.176-8.557,16.426-7.6" transform="translate(-5620.526 -3045.078)" fill="none" stroke="#39431a" stroke-miterlimit="10" stroke-width="0.25"/>
          <path id="Path_6680" data-name="Path 6680" d="M5683.189,3119.9q.152,12.991.3,25.982" transform="translate(-5618.119 -3045.069)" fill="none" stroke="#39431a" stroke-miterlimit="10" stroke-width="0.25"/>
          <path id="Path_6681" data-name="Path 6681" d="M5664.126,3099.335a36.6,36.6,0,0,1,26.229,29.507" transform="translate(-5620.643 -3047.792)" fill="none" stroke="#39431a" stroke-miterlimit="10" stroke-width="0.25"/>
        </g>
        <path id="Path_6682" data-name="Path 6682" d="M5689.877,3097.9a64.614,64.614,0,0,0-13.984-10.385,126.938,126.938,0,0,1,15.017,8.418,102.839,102.839,0,0,1-14.868-7.306" transform="translate(-5619.085 -3035.232)" fill="none" stroke="#b69f89" stroke-miterlimit="10" stroke-width="0.25"/>
        <path id="Path_6683" data-name="Path 6683" d="M5673.825,3358.467l12.641,3.477-10.2.415a8.347,8.347,0,0,0,3.627,3.228,15.834,15.834,0,0,1-5.646.761,28.253,28.253,0,0,0,9.189,1.415" transform="translate(-5619.358 -2999.352)" fill="none" stroke="#b69f89" stroke-miterlimit="10" stroke-width="0.25"/>
        <path id="Path_6684" data-name="Path 6684" d="M5679.5,3366.151a53.066,53.066,0,0,0,15.887-1.664" transform="translate(-5618.607 -2998.555)" fill="none" stroke="#b69f89" stroke-miterlimit="10" stroke-width="0.25"/>
        <path id="Path_6685" data-name="Path 6685" d="M5674.542,3283.511a46.746,46.746,0,0,0,11.6,2.656,52.786,52.786,0,0,0-11.323-5.029l8.524-.2" transform="translate(-5619.264 -3009.619)" fill="none" stroke="#b69f89" stroke-miterlimit="10" stroke-width="0.25"/>
        <path id="Path_6686" data-name="Path 6686" d="M5685.173,3284.061a18.817,18.817,0,0,1,11.322.722" transform="translate(-5617.856 -3009.278)" fill="none" stroke="#b69f89" stroke-miterlimit="10" stroke-width="0.25"/>
      </g>
      <path id="Path_6687" data-name="Path 6687" d="M5302.043,3164.411a61.513,61.513,0,0,0,9.018,33.146" transform="translate(-5069.655 -3025.05)" fill="none" stroke="#5f5346" stroke-miterlimit="10" stroke-width="0.25"/>
      <path id="Path_6688" data-name="Path 6688" d="M5419.712,3216.443c-4.87-11.41-9.769-22.915-12.276-35.064a93.177,93.177,0,0,1-1.55-10.535c-.272-3.054-.312-6.4,1.518-8.856" transform="translate(-5055.92 -3025.371)" fill="none" stroke="#5f5346" stroke-miterlimit="10" stroke-width="0.25"/>
      <path id="Path_6689" data-name="Path 6689" d="M5322.959,3143.782c.654,13.147,11.3,25.121,24.28,27.309a43.805,43.805,0,0,0,10.217.312,38.29,38.29,0,0,0,11.438-2.213c10.231-4,16.517-14.256,21-24.285" transform="translate(-5066.884 -3027.782)" fill="none" stroke="#5f5346" stroke-miterlimit="10" stroke-width="0.25"/>
      <path id="Path_6690" data-name="Path 6690" d="M5344.3,3168.2q5.287,27.924,10.572,55.847c1.885,9.963,3.782,19.969,7.122,29.543" transform="translate(-5064.057 -3024.549)" fill="none" stroke="#5f5346" stroke-miterlimit="10" stroke-width="0.25"/>
      <path id="Path_6691" data-name="Path 6691" d="M5468.358,3212.11c.479-.121.9.442.849.933a2.4,2.4,0,0,1-.74,1.256,55.8,55.8,0,0,0-13.578,28.086" transform="translate(-5049.413 -3018.736)" fill="none" stroke="#5f5346" stroke-miterlimit="10" stroke-width="0.25"/>
      <path id="Path_6692" data-name="Path 6692" d="M5261.243,3219.734c-.583.846.386,1.882,1.23,2.468a60.721,60.721,0,0,1,17.555,18.864" transform="translate(-5075.08 -3017.724)" fill="none" stroke="#5f5346" stroke-miterlimit="10" stroke-width="0.25"/>
      <path id="Path_6693" data-name="Path 6693" d="M5473.571,3375.794c-2.348.751-4.715-.925-6.612-2.5q-17.224-14.281-34.447-28.56c-3.909-3.241-7.824-6.489-11.425-10.07-4.566-4.54-8.59-9.585-12.757-14.493-21.3-25.089-48.283-47.674-80.711-53.293a10.064,10.064,0,0,0-4.029-.118,5.3,5.3,0,0,0-.1,10.293c-1.958-.92-3.94,1.777-3.484,3.89s2.191,3.671,3.388,5.473a23.567,23.567,0,0,1,2.543,6q4.3,13.5,8.6,27c1.806,5.668,3.622,11.38,4.284,17.292a103.3,103.3,0,0,1,.06,15.622A373.821,373.821,0,0,0,5344.44,3433" transform="translate(-5067.34 -3011.518)" fill="none" stroke="#554929" stroke-miterlimit="10" stroke-width="0.25"/>
      <path id="Path_6694" data-name="Path 6694" d="M5498.612,3436.9v.795" transform="translate(-5043.623 -2988.966)" fill="none" stroke="#775029" stroke-miterlimit="10" stroke-width="0.25"/>
      <path id="Path_6695" data-name="Path 6695" d="M5505.635,3443.918" transform="translate(-5042.692 -2988.036)" fill="none" stroke="#775029" stroke-miterlimit="10" stroke-width="0.25"/>
      <path id="Path_6696" data-name="Path 6696" d="M5507.132,3434.086h-.8" transform="translate(-5042.6 -2989.338)" fill="none" stroke="#775029" stroke-miterlimit="10" stroke-width="0.25"/>
      <path id="Path_6697" data-name="Path 6697" d="M5648.9,3430.574v.8" transform="translate(-5023.72 -2989.803)" fill="none" stroke="#775029" stroke-miterlimit="10" stroke-width="0.25"/>
      <path id="Path_6698" data-name="Path 6698" d="M5656.625,3424.956" transform="translate(-5022.697 -2990.547)" fill="none" stroke="#775029" stroke-miterlimit="10" stroke-width="0.25"/>
      <path id="Path_6699" data-name="Path 6699" d="M5658.029,3434.788" transform="translate(-5022.511 -2989.245)" fill="none" stroke="#775029" stroke-miterlimit="10" stroke-width="0.25"/>
      <path id="Path_6700" data-name="Path 6700" d="M5717.723,3430.574h.8" transform="translate(-5014.606 -2989.803)" fill="none" stroke="#775029" stroke-miterlimit="10" stroke-width="0.25"/>
      <path id="Path_6701" data-name="Path 6701" d="M5728.258,3423.552v.8" transform="translate(-5013.211 -2990.733)" fill="none" stroke="#775029" stroke-miterlimit="10" stroke-width="0.25"/>
      <path id="Path_6702" data-name="Path 6702" d="M5735.28,3429.872" transform="translate(-5012.281 -2989.896)" fill="none" stroke="#775029" stroke-miterlimit="10" stroke-width="0.25"/>
      <path id="Path_6703" data-name="Path 6703" d="M5627.3,3428.651q-4.292-12.249-8.584-24.5c-.67-1.913-1.28-4.23-.005-5.8,3.4.309,4.839,4.409,5.5,7.76q1.9,9.679,3.793,19.358a130,130,0,0,1,5.9-21.207c1.107-2.978,2.924-6.38,6.091-6.625,1.48,3.825-.706,8-2.819,11.517q-4.772,7.938-9.544,15.874" transform="translate(-5027.817 -2994.165)" fill="#39431a"/>
      <path id="Path_6704" data-name="Path 6704" d="M5521.379,3442.656l-20.654-36.713c-1.5-2.659-2.924-6.208-.909-8.5,1.454-1.653,4.062-1.686,6.147-.978,5.339,1.811,8.584,7.156,10.821,12.33a80.866,80.866,0,0,1,6.6,33.5" transform="translate(-5043.595 -2994.377)" fill="#39431a"/>
      <path id="Path_6705" data-name="Path 6705" d="M5523.035,3441.77a96.166,96.166,0,0,1,10.453-42.694,10.324,10.324,0,0,1,3.354-4.314c1.563-.979,3.914-.947,5,.549a4.31,4.31,0,0,1,.677,2.437c.066,2.819-1.162,5.485-2.365,8.036q-8.48,17.978-16.958,35.957" transform="translate(-5040.388 -2994.634)" fill="#39431a"/>
      <path id="Path_6706" data-name="Path 6706" d="M5731.6,3434.456c-1.783-13.781,6.248-28.271,18.88-34.061,2.845-1.3,6.012-2.208,9.093-1.659s6,2.862,6.463,5.958c-3.944,1.5-7.741,3.368-11.532,5.229a45.079,45.079,0,0,0-9.6,5.747c-4.716,4.019-7.55,9.761-10.256,15.337" transform="translate(-5012.801 -2994.041)" fill="#39431a"/>
    </g>
  </g>
</svg>
