<svg xmlns="http://www.w3.org/2000/svg" width="518.302" height="335.95" viewBox="0 0 518.302 335.95"><defs><style>.a{fill:#006d1f;}.b{fill:#ede139;}.ab,.c,.n{fill:none;}.c{stroke:#7c4135;}.ab,.c{stroke-miterlimit:10;}.c,.n{stroke-width:0.25px;}.d{fill:#e26928;}.e{fill:#e0e1e3;}.f{fill:#5dbc58;}.g{fill:#8cc63f;}.h{fill:#db8572;}.i{fill:#f7b09e;}.j{fill:#2b1100;}.k{fill:#670d15;}.l{fill:#fff;}.m{fill:#e87270;}.n{stroke:#db8572;stroke-linecap:round;stroke-linejoin:round;}.o{fill:#cd5016;}.p{fill:#f98658;}.q{fill:#cec41d;}.r{fill:#fb8124;}.s{fill:#fe933f;}.t{fill:#afa612;}.u{fill:#edbf99;}.v{fill:#494027;}.w{fill:#645838;}.x{fill:#5faf42;}.y{fill:#f8cea2;}.z{fill:#ca362d;}.aa{fill:#3c403e;}.ab{stroke:#006d1f;}</style></defs><g transform="translate(-12545 -7154.809)"><g transform="translate(12545 7154.809)"><g transform="translate(63.374 66.031)"><path class="a" d="M2802.732-1206.428s-2.514-12.509.287-20.964" transform="translate(-2792.728 1249.16)"/><ellipse class="b" cx="8.602" cy="8.433" rx="8.602" ry="8.433" transform="translate(0.911 1.87) rotate(-6.239)"/><path class="a" d="M2793.846-1241.665s-.323-5.022,2.039-5.7,1.3,5.337,1.3,5.337,3.393-6.974,7.505-4.754c0,0,2.59,1.4-2.195,6.141,0,0,5.313-2.266,3.536,1.018s-11.673,4.507-13.853,2.919-8.082-4.455-6.515-7.155S2793.846-1241.665,2793.846-1241.665Z" transform="translate(-2785.403 1258.164)"/></g><g transform="translate(420.91 295.906)"><path class="c" d="M3440.944-847.792a6.705,6.705,0,0,1-2.808-1.493" transform="translate(-3436.413 849.285)"/><path class="c" d="M3442.513-844.461" transform="translate(-3438.381 847.116)"/><path class="c" d="M3438.327-844.28a7.884,7.884,0,0,1-3.322-1.739" transform="translate(-3435.005 847.817)"/></g><g transform="translate(13.518 27.933)"><path class="d" d="M2726.187-1298.24c-7.535-8.031-11.605-16.453-9.092-18.811s10.66,2.24,18.194,10.271,9.092,18.812,9.092,18.812S2733.721-1290.208,2726.187-1298.24Z" transform="translate(-2704.502 1327.847)"/><path class="d" d="M2741.633-1311.131c-3.861-10.313-4.375-19.653-1.146-20.862s8.975,6.173,12.836,16.486,1.146,20.861,1.146,20.861S2745.495-1300.818,2741.633-1311.131Z" transform="translate(-2714.399 1334.345)"/><path class="d" d="M2756.111-1316.251c.052-11.012,2.889-19.926,6.335-19.91s6.2,8.957,6.146,19.969-6.336,19.91-6.336,19.91S2756.058-1305.239,2756.111-1316.251Z" transform="translate(-2722.377 1336.161)"/><path class="d" d="M2721.99-1292.57c-10.046-4.51-19.335-5.617-20.747-2.474s5.588,9.349,15.635,13.86,20.746,2.474,20.746,2.474S2732.036-1288.06,2721.99-1292.57Z" transform="translate(-2697.627 1318.479)"/><path class="d" d="M2714.752-1275c-11.012.014-19.936,2.82-19.931,6.267s8.936,6.229,19.948,6.215,19.931-6.267,19.931-6.267S2725.765-1275.011,2714.752-1275Z" transform="translate(-2694.821 1308.661)"/></g><path class="a" d="M2734.1-1282.529s-6.046-6.838-3.475-10.376,7.772,6.227,7.772,6.227-2.984-13.666,5.279-14.954c0,0,5.209-.8,3.744,11.172,0,0,4.959-9.012,6.114-2.382s-11.424,19.127-16.262,19.221-16.343,2.4-17.141-3.167S2734.1-1282.529,2734.1-1282.529Z" transform="translate(-2692.669 1348.575)"/><circle class="e" cx="167.975" cy="167.975" r="167.975" transform="translate(86.799 0)"/><path class="f" d="M2959.306-1365.83s4.517,3.343-3.727,7.277c0,0,6.183,1.124,4.122,7.307,0,0,.773-2.272,5.481-3.115,0,0,1.51-1.16-.352-1.651s-1.124-1.9-1.124-1.9,3.583-.106,5.3-1.125,3.97-2.283,3.724.106-.667,3.267.878,3.338,3.127-.211,1.862,1.9l-2.319,2.214s-1.581,1.756,1.476,1.3,1.9-1.827,8.01-3.759c0,0,4.778.07,2.81,1.3a4.91,4.91,0,0,0-3.9,2.073c-1.721,2.213-2.846,2.178-1.44,4.181s3.408.035,3.267-1.194-.527-4.5,4.181-5.164,6.218.246,6.218.246a7.106,7.106,0,0,1,2.845,3.443c1.125,2.564,5.235,2.6,5.235,2.6s1.967.352.386,1.37-2.53,1.967-.351,2.67,3.583.737,3.3,3.3-1.335,2.494-1.862,2.67-2.389-1.054-2.389-1.054-.738-.281-.562.738,1.757,1.722,1.265,4.673-5.375,2.073-6.289,1.475-5.129-3.161-4.813-5.937a3.238,3.238,0,0,1,2.53-3.092s1.651-1.335.035-3.935-3.759-3.127-5.129-1.792-6.053,5.41-7.576,5.832,2.518,3.338-.363,4.286-4.146-.211-4.146-.211-1.405,1.194-.562-1.405-1.053-1.194-1.053-1.194-10.5,1.862-14.65,7.061,5.34,10.961,5.34,10.961,5.165,1.792,3.232,3.584-1.125,6.569.808,6.71,3.338-1.194,2.987-3.654,1.23-3.373,2.951-3.618,4.848-2.108,4.637-5.27.527-7.729,3.021-9.134a5.8,5.8,0,0,1,7.307.7c2.213,2.073,3.127,2.389,1.967,4.462,0,0,1.019,4.04,4.778,2.389,0,0,2.179-5.2,4.567-1.932a10.041,10.041,0,0,1,1.757,6.991,1.932,1.932,0,0,0,1.44,2.319c1.862.527,7.553,1.511,7.413,5.27a31.124,31.124,0,0,1-.457,5.094s-.738,2.53,1.651,2.389,3.864,3.408,3.864,3.408.878,3.9-1.862,3.724c0,0-.843-1.968-4.04-1.651s-6.148-.808-5.621-3.232a6.573,6.573,0,0,1,2.881-3.794s.984-1.686-.14-1.9-4.848,2.319-4.848,2.319-1.335,1.089-13,.457c0,0-4.461,3.407-.351,2.494s6.324-.562,4.708,1.827-2.459,6.569,1.335,6.394a9.934,9.934,0,0,0,3.407-2.53s1.722-1.125,4.005.878c0,0,1.159.808-3.549,2.459s-7.448,2.635-8.818,4.146-2.389-1.195-2.389-1.195-.035-2.74-2.073-1.405-6.569,6.6-13.561,9.7l-5.375,3.689-2.319-.316s.527,8.467-2.564,10.68a19.679,19.679,0,0,1-6.359,2.951s-6.781,2.143-7.448,6.78,2.494,10.575.6,13.525-2,3.092-3.759,1.16-1.476-5.446-.352-6.991-1.37-4.638-1.37-4.638-6.359-5.094-12.085-3.724a19.045,19.045,0,0,1-10.364-.422s-7.378-1.265-10.961,7.378a37.847,37.847,0,0,1-3.689,10.188s-1.37,7.272,2.6,11.629,7.834,5.516,9.626,2.319,2.354-6.781,7.061-6.253c0,0,4.5-.984,3.97,1.686,0,0-1.862,1.616-3.161,6.851s-3.373,5.972-3.373,5.972-.984,1.827,2.353,2,9.029-.106,10.013,4.567-2.7,6.991-2.389,8.993c0,0-.422,2.776,1.23,3.9a7.344,7.344,0,0,0,7.131,3.443s3.407-.808,4.813,1.3l1.9,2.319s.914,1.968,1.651,0,5.164-6.183,11.8-7.1c0,0,4.6-3.126,7.167-1.159s9.661,5.3,11.488,5.34,3.584.6,6.359-1.265c0,0,1.476-1.054,3.478.878s10.013,8.783,10.47,8.572c0,0,2.283,6.359,10.012,5.234s11.84,4.321,13.315,7.448,3.583,7.518,3.583,7.518.632,5.41,4.11,4.707,7.694-1.265,12.507,4.672c0,0,2.459,1.651,7.448.281s24.451-.316,20.165,11.066-11.172,15.879-11.172,15.879-1.757.422-1.546,3.794-3.021,15.528-8.782,19.463a3.189,3.189,0,0,0-1.195,1.827c-.141,1.054-1.686,1.827-4.778,1.545s-10.047,3.584-10.047,3.584-3.373,2.178-3.092,5.2-.632,3.794-4.356,6.253a23.474,23.474,0,0,0-6.113,6.254s-3.021,6.183-10.4,2.53-5.41-3.232-5.41-3.232-.351,2.24,3.794,4.387,2.881,5.239-.21,5.52-8.924.421-10.118,4.5-1.265,4.918-3.795,5.831c0,0-1.124,1.406,2.108,3.092,0,0-3.794,1.019-2.565,4.672s5.656,3.689,5.656,3.689-2.565,1.9-12.542-.878-11.945-19.322-11.945-19.322-1.862-3.9.984-9.2a28.493,28.493,0,0,1-1.651-14.193c1.265-7.272.491-15.915-1.968-19.673s-9.661-6.254-9.661-6.254a73.892,73.892,0,0,1-20.2-27.227c-7.588-17.566,3.232-24.452,3.232-24.452s8.853-10.68,2.108-17.566-.094,0-.094,0-3.162-1.288-3.724-2.506-1.733-1.03-2.084.235-.632,5.738-3.911,2.834a28.46,28.46,0,0,1-5.129-6.02,12.7,12.7,0,0,0-5.223-4.051s-2.3-2.717-3.771-9.72c0,0-6.651,1.288-10.446-5.832s-5.9-6.557-5.9-6.557-6.042.749-14.006-8.151c0,0-3.888-5.2-2.155-9.134s.8-11.944-.445-13.725-2.038-9.93-.82-13.537a9.889,9.889,0,0,0-.094-6.6s-.843-2.342-1.405-.094-4.309,14.943,0,24.4a9.766,9.766,0,0,1-4.778-7.682l2.763-19.626s2.717-11.477,2.81-19.674c0,0,.469-7.167,8.948-11.57s12.881-15.973,12.881-15.973,8.338-11.991,15.926-18.83a1.509,1.509,0,0,0,1.218-2.155l2.81-3.841s1.315-2.565-2.294-2.454C2929.676-1350.7,2950.76-1362.146,2959.306-1365.83Z" transform="translate(-2766.635 1377.433)"/><path class="g" d="M3108.92-1357.023s-2.248,2.717.937,3.092c0,0,6-1.968,7.4,2.435,0,0-.375,4.778,1.874,4.31s3.185,3.373,3.185,3.373,2.249,2.248-2.342,2.717c0,0-3.653.843-.937,4.122l4.965,5.621s4.4,4.778,9.743,4.778c0,0-.469-11.617,6.839-11.8,0,0,2.81-.281,1.686-2.717s3.185-2.248,3.185-2.248,3.092-1.593,0-3.56,1.874-1.5,1.874-1.5,2.717-.094-.468-1.592-1.406-1.312-1.125-2.623,1.218-2.717-2.717-3.466-5.059-5.433-5.059-5.433-2.342-3.092-10.774-1.874S3108.92-1357.023,3108.92-1357.023Z" transform="translate(-2867.139 1376.466)"/><path class="g" d="M3183.838-1369.664l4.684,3.088s.843,2.813-2.342,1.127c0,0-4.492.281-4.916-2.81S3183.838-1369.664,3183.838-1369.664Z" transform="translate(-2899.993 1379.364)"/><path class="g" d="M3192.4-1322.651h8.338s4.5,1.593.562,5.059c0,0-6.09,1.593-9.743-2.529C3191.555-1320.121,3189.588-1322.089,3192.4-1322.651Z" transform="translate(-2904.338 1358.02)"/><path class="f" d="M3237.252-1365.865l-7.079.206a6.363,6.363,0,0,0,3.54,3.248s3.018,2.248-.635,2.717c0,0-4.21-3.466-3.932,0s-1.689,4.309,3.276,6.651l7.682,6.371s1.5.75,1.312,3.185,1.5,4.591,7.963,8.057c0,0,2.623-4.59,5.152,0s4.871,4.684,5.527,3.279-4.5-9.275-4.5-9.275a9.61,9.61,0,0,0-5.34-1.968c-2.9,0-10.024-8.9-10.024-8.9s-2.717-3,1.218-.75,8.057,7.495,12.46,7.495c0,0,1.967,1.125.281-2.623,0,0,.094-2.623,2.154.281s2.53,7.495,8.432,10.211c0,0,3.466,3.372,0,6.323s-4.123,2.483-3.467,7.354a2.512,2.512,0,0,1-.562,3.654s3.373,5.808-6.839,7.495a54.839,54.839,0,0,0,11.242,7.026c6.09,2.717.469,6.37.469,6.37s-10.024-2.623-6.464,3.841,6.37,11.429,12.085,13.4c0,0,2.623.188,1.968-2.623a3.714,3.714,0,0,1,3.935-1.312s2.717-.468,1.03-4.122-3.373-9.087,0-13.959,2.061-3.935,4.216-3.279,6.745,2.81,6.745,2.81a10.511,10.511,0,0,1,4.684,3.935c1.592,2.717,3.934.375,2.623-1.218a4.05,4.05,0,0,1-.469-3.747s-8.712-.188-11.9-5.34c0,0,9.649.094,10.961,3.654s4.4,4.872,5.715,3-3.091-6.09-3.091-6.09-1.593-3.841-1.406-6.464-2.9-3.372-2.9-3.372-3.309-3.811,1.952-7.76c0,0-14.7-14.342-25.922-21.161S3251.517-1361.075,3237.252-1365.865Z" transform="translate(-2921.468 1377.449)"/><path class="f" d="M3346.253-1244.747s-1.24,3.4,0,5.931-5.5,3.935-5.5,3.935,3.373,7.869-6.183,5.34c0,0-4.384-3.213-5.845.5,0,0-.9-11.833-10.456-7.854,0,0-3.748.607-3.748,6.977,0,0-.093,5.246-8.525,5.246,0,0-7.4-1.592-5.714,5.9s4.871,7.214,4.871,7.214,3.56,2.061-.469,5.153-12.741,7.307-12.928,19.111a20.212,20.212,0,0,0,5.434,11.711s2.9,1.5,1.873,5.9-.281.375-.281.375-.656,11.148,1.592,13.491c0,0-1.124,2.9,2.53,5.9l12.928,9.65,2.155.843s4.31,3.279,8.526,0,3.747-4.216,3.747-4.216.656-2.529,4.123-.281c0,0,1.873.937,3.56-2.9s3.935-5.34,7.682-2.623c0,0,.469,4.591,3.56,3.279s4.778-3,3.654,3.185-.937,10.211,1.124,14.615,3.373,18.362,1.405,25.482-8.431,24.358-8.431,24.358-3.116,16.835.409,12.165,14.05-25.44,17.5-38.319,6.54-19.937,7.57-40.267-3.317-43.124-3.317-43.124S3363.375-1220.325,3346.253-1244.747Z" transform="translate(-2949.688 1322.994)"/><path class="a" d="M2789.072-1183.259s-54.481-12.888-66,8.191,50.308,44.968,50.308,44.968,96.682,43.282,213.037,32.321c0,0-6.464,16.582,25.576,17.706,0,0-3.092-14.9-12.647-18.83l1.874-.188s7.869,12.929,33.351-12.553c0,0-34.382-6.371-34.569,8.431l-3.653-.188s8.337-3.466,4.684-25.294c0,0-24.358,13.678-14.615,26.606,0,0-51.151,2.9-71.012,0,0,0-69.42-3.747-134.062-29.229s-55.085-41.6-55.085-41.6,6.184-17.173,61.27-5.556Z" transform="translate(-2693.359 1297.102)"/><path class="a" d="M3229.319-1093.041s53.681,12.647,65.2-8.431-50.308-44.968-50.308-44.968-96.682-43.282-213.037-32.321c0,0,6.464-16.582-25.576-17.706,0,0,3.092,14.9,12.647,18.83l-1.874.188s-7.869-12.929-33.352,12.553c0,0,34.382,6.371,34.57-8.431l3.654.187s-8.338,3.466-4.684,25.295c0,0,24.358-13.678,14.615-26.606,0,0,51.151-2.9,71.012,0,0,0,69.42,3.747,134.062,29.229s55.086,41.6,55.086,41.6-6,17.987-61.082,6.371Z" transform="translate(-2810.881 1301.286)"/><g transform="translate(147.231 63.319)"><path class="h" d="M2940.156-1246.32s-2.846-1.249-1.944,3.956,1.944,4.094,1.944,4.094Z" transform="translate(-2937.885 1260.441)"/><path class="i" d="M2939.257-1228.12l.243-15.163.347-8.4s1.135-1.464.857-6.044c0,0,7.893,4.57,11.988-.5,0,0,3.117,2.931,7,7.3l-.9,23.106s-7.953,13.65-10.277,18.456C2948.523-1209.355,2942.166-1220.8,2939.257-1228.12Z" transform="translate(-2938.434 1265.733)"/><path class="j" d="M2939.175-1257.818s-3.041-3.706-.2-8.949c0,0,1.393-5.1,8.7-5.1,6.374,0,8.028.715,9.729,2.126,2.226,1.847,3.634,7.282,3.16,11.446-2.556,22.428-1.894,3.945-3.16.882,0,0-3.826-2.609-4.994-6.01,0,0-6.71,4.267-12.338,0C2940.074-1263.425,2940.691-1257.992,2939.175-1257.818Z" transform="translate(-2937.762 1271.869)"/><path class="h" d="M2972.839-1246.32s2.846-1.249,1.944,3.956-1.944,4.094-1.944,4.094Z" transform="translate(-2953.532 1260.441)"/><path class="h" d="M2939.444-1224.7l2.85,4.714a2.133,2.133,0,0,0,1.55.668h6.966a2.262,2.262,0,0,0,1.145-.311l3.8-2.228s-2.316,8.3-16.5,8.809Z" transform="translate(-2938.434 1250.662)"/><path class="h" d="M2952.214-1220.371l2.855-.342S2953.788-1218.551,2952.214-1220.371Z" transform="translate(-2944.26 1248.869)"/><path class="h" d="M2952.661-1232.313s1.99-.381,2.237.436c0,0,.079.339-.482.75-.682.5-.918.453-.918.453A2.459,2.459,0,0,1,2952.661-1232.313Z" transform="translate(-2944.46 1254.124)"/><g transform="translate(6.738 25.447)"><path class="k" d="M2950.089-1225.634c-.306-.03.161,1.788,2.414,1.789a2.2,2.2,0,0,0,2.414-1.708A20.653,20.653,0,0,1,2950.089-1225.634Z" transform="translate(-2950.004 1225.635)"/><path class="l" d="M2950.542-1225.591s-.253.924,2.235.893a4.789,4.789,0,0,0,1.749-.194.468.468,0,0,0,.324-.6A22.944,22.944,0,0,1,2950.542-1225.591Z" transform="translate(-2950.243 1225.615)"/><path class="m" d="M2951.856-1223.232a3.859,3.859,0,0,1,2.956,0A3.18,3.18,0,0,1,2951.856-1223.232Z" transform="translate(-2950.837 1224.682)"/></g><path class="n" d="M2952.566-1242.809s.963,1.45.049,5.3a1.83,1.83,0,0,0,.147,1.334,3.248,3.248,0,0,0,.647.818s1.522-.465,1.4-1.2-2.185-.443-2.185-.443" transform="translate(-2944.411 1258.803)"/><ellipse class="j" cx="0.78" cy="1.148" rx="0.78" ry="1.148" transform="translate(12.844 16.564)"/><path class="j" d="M2958.93-1245.334a8.456,8.456,0,0,1,3.947.1,2.3,2.3,0,0,0-2.119-1.252A1.891,1.891,0,0,0,2958.93-1245.334Z" transform="translate(-2947.279 1260.459)"/><ellipse class="j" cx="0.78" cy="1.148" rx="0.78" ry="1.148" transform="translate(4.233 16.564)"/><path class="j" d="M2943.284-1245.334a8.455,8.455,0,0,1,3.947.1,2.3,2.3,0,0,0-2.118-1.252A1.892,1.892,0,0,0,2943.284-1245.334Z" transform="translate(-2940.244 1260.459)"/></g><g transform="translate(312.751 55.883)"><circle class="j" cx="5.375" cy="5.375" r="5.375" transform="translate(7.654)"/><g transform="translate(0 5.497)"><circle class="j" cx="5.375" cy="5.375" r="5.375" transform="translate(4.166)"/><circle class="j" cx="4.309" cy="4.309" r="4.309" transform="translate(1.866 33.341)"/><circle class="j" cx="4.309" cy="4.309" r="4.309" transform="translate(2.895 18.954)"/><circle class="j" cx="4.309" cy="4.309" r="4.309" transform="translate(2.353 26.53)"/><circle class="j" cx="4.309" cy="4.309" r="4.309" transform="translate(3.451 6.345)"/><circle class="j" cx="4.309" cy="4.309" r="4.309" transform="translate(3.015 12.425)"/><circle class="j" cx="3.971" cy="3.971" r="3.971" transform="translate(1.708 40.612)"/><path class="j" d="M3247.038-1187.627l2.579,9.581a3.37,3.37,0,0,1-3.389,4.243l-4.5-.18a3.37,3.37,0,0,1-3.167-4.042l1.919-9.4a3.371,3.371,0,0,1,2.837-2.664h0A3.37,3.37,0,0,1,3247.038-1187.627Z" transform="translate(-3238.493 1237.053)"/></g></g><g transform="translate(315.629 13.086)"><path class="j" d="M3256.354-1346.25s8.1,1.743,12.053-3.282a6.376,6.376,0,0,0,3.67,2.405c.236.062.841-.089.746.159-5.739,15.048-10.053,19.764-15.411,24.12a18.364,18.364,0,0,0,18.766-8.839c9.481-15.323-.829-28.61-5.981-30.251s-19.089-3.285-23.6,7.381-2.76,19.794-1.2,22.87,6.9,7.691,10.4,8.2l6.02,2.375C3260.534-1327.26,3256.354-1346.25,3256.354-1346.25Z" transform="translate(-3243.722 1363.137)"/><path class="i" d="M3270.948-1342.94s7.161-4.022,7.263,9.576a32.485,32.485,0,0,1-.406,4.766c-.829,3.99-5.608,12.468-10.844,12.188-1.691-.09-9.2-1.38-9.814-11.5,0,0-6.281.9-4.3-6.067.2-.711,3.684-2.9,3.454.93,0,0,1.457-9.508,5.6-11.041C3261.9-1344.09,3266.118-1346.774,3270.948-1342.94Z" transform="translate(-3247.651 1354.984)"/><circle class="j" cx="5.581" cy="5.581" r="5.581" transform="translate(7.116 36.293)"/><path class="j" d="M3260.939-1319.12s-10.808-6.6-5.579-18.812c0,0,8.534-3.2,13.23-7.536,0,0,4.7,5.779,5.925,5.792l2.379-4.508-15.128-5.575-7.678,1.926-9.139,14.492,8.508,12.571Z" transform="translate(-3244.273 1357.122)"/><path class="i" d="M3274.908-1294.235s-.427,7.555.289,8.373l3.482-.828s3.624,10.3-7.135,10.745c-2.954.123-9.4-1.069-7.248-9.656l4.307-.035.842-8.521A9.966,9.966,0,0,0,3274.908-1294.235Z" transform="translate(-3252.779 1332.158)"/><path class="h" d="M3280.009-1294.372a10.1,10.1,0,0,1-4.8-.167,7.21,7.21,0,0,0,4.727,1.756Z" transform="translate(-3257.88 1332.295)"/><path class="i" d="M3255.359-1325.456s-3.556,3.928,0,7.374Z" transform="translate(-3248.243 1346.195)"/><path class="h" d="M3280.4-1301.9l1.7.143S3281.094-1300.653,3280.4-1301.9Z" transform="translate(-3260.211 1335.605)"/><g transform="translate(19.731 32.248)"><path class="k" d="M3279.622-1304.545c-.185-.018.1,1.079,1.457,1.079a1.325,1.325,0,0,0,1.457-1.031A12.426,12.426,0,0,1,3279.622-1304.545Z" transform="translate(-3279.571 1304.545)"/><path class="l" d="M3279.894-1304.519s-.152.558,1.349.539a2.9,2.9,0,0,0,1.056-.118.282.282,0,0,0,.2-.36A13.863,13.863,0,0,1,3279.894-1304.519Z" transform="translate(-3279.714 1304.534)"/><path class="m" d="M3280.687-1303.1a2.33,2.33,0,0,1,1.784,0A1.92,1.92,0,0,1,3280.687-1303.1Z" transform="translate(-3280.073 1303.971)"/></g><g transform="translate(19.951 23.277)"><path class="h" d="M3282.19-1310.708s-1.908-.526-2.211.25c0,0-.1.324.411.767.625.538.858.512.858.512A2.4,2.4,0,0,0,3282.19-1310.708Z" transform="translate(-3279.97 1316.366)"/><path class="n" d="M3282.715-1320.846s-1.05,1.336-.46,5.155a1.785,1.785,0,0,1-.247,1.287,3.156,3.156,0,0,1-.693.746s-1.445-.571-1.269-1.28,2.162-.261,2.162-.261" transform="translate(-3279.998 1320.846)"/></g><ellipse class="j" cx="0.687" cy="1.011" rx="0.687" ry="1.011" transform="translate(16.365 22.043)"/><path class="j" d="M3275.021-1326.223a7.456,7.456,0,0,0-3.477.085,2.027,2.027,0,0,1,1.865-1.1A1.665,1.665,0,0,1,3275.021-1326.223Z" transform="translate(-3256.231 1346.999)"/><ellipse class="j" cx="0.687" cy="1.011" rx="0.687" ry="1.011" transform="translate(24.974 22.176)"/><path class="j" d="M3290.664-1325.982a7.451,7.451,0,0,0-3.477.085,2.029,2.029,0,0,1,1.865-1.1A1.667,1.667,0,0,1,3290.664-1325.982Z" transform="translate(-3263.264 1346.891)"/></g><path class="a" d="M3246.866-1157.787s-.154.1-.418.272c-1.374.919-5.729,4.021-6.7,7.015-1.153,3.568-5.706,8.96-5.706,8.96,7.041-1.511,5.228,4.821,5.228,4.821-1.2,4.128-8.427,9.432-8.427,9.432a16.218,16.218,0,0,1,.262-11.261c-.692,1.492-3.8,1.581-3.8,1.581,1.371,8.59-14.835,3.588-14.835,3.588,10.312-11.667,13.574-5.322,13.574-5.322,6.729-2.807,8.654-7.155,8.654-7.155-7.625,1.743-12.065-.754-12.065-.754,1.488-2.552,5.709-5.716,5.709-5.716,8.146-4.519,9.121,2.194,9.121,2.194,1.8-6.192,4.921-8.04,4.921-8.04" transform="translate(-2914.042 1284.069)"/><path class="a" d="M3081.557-1029.388s-.154.1-.417.272c-1.375.92-5.729,4.021-6.7,7.015-1.153,3.568-5.707,8.959-5.707,8.959,7.041-1.511,5.228,4.822,5.228,4.822-1.2,4.128-8.426,9.431-8.426,9.431a16.216,16.216,0,0,1,.262-11.261c-.692,1.492-3.8,1.582-3.8,1.582,1.37,8.589-14.836,3.587-14.836,3.587,10.311-11.667,13.574-5.322,13.574-5.322,6.729-2.807,8.654-7.155,8.654-7.155-7.625,1.743-12.065-.754-12.065-.754,1.488-2.552,5.709-5.715,5.709-5.715,8.146-4.519,9.12,2.194,9.12,2.194,1.8-6.193,4.922-8.04,4.922-8.04" transform="translate(-2839.718 1226.339)"/><path class="a" d="M2797.33-1093.094s.111.144.3.4c.969,1.341,3.972,5.763,3.837,8.907-.161,3.747,2.232,10.386,2.232,10.386-6.075-3.867-6.579,2.7-6.579,2.7-.31,4.288,4.618,11.774,4.618,11.774a16.215,16.215,0,0,0,3.673-10.649c.13,1.64,3.015,2.807,3.015,2.807-4.274,7.575,12.659,8.526,12.659,8.526-5.606-14.526-10.873-9.713-10.873-9.713-5.332-4.973-5.624-9.719-5.624-9.719,6.542,4.287,11.573,3.491,11.573,3.491-.507-2.911-3.363-7.345-3.363-7.345-6.064-7.071-9.314-1.117-9.314-1.117.466-6.432-1.817-9.25-1.817-9.25" transform="translate(-2727.289 1254.809)"/><path class="a" d="M2699.065-1159.586s-.08.162-.23.441c-.782,1.458-3.447,6.092-6.334,7.344-3.44,1.493-8.365,6.547-8.365,6.547.823-7.154-5.3-4.737-5.3-4.737-3.993,1.595-8.571,9.3-8.571,9.3a16.214,16.214,0,0,0,11.182-1.351c-1.418.833-1.206,3.938-1.206,3.938-8.682-.533-2.134,15.113-2.134,15.113,10.614-11.392,3.983-14.026,3.983-14.026,2.142-6.969,6.283-9.306,6.283-9.306-1,7.758,1.919,11.935,1.919,11.935,2.4-1.729,5.136-6.236,5.136-6.236,3.709-8.545-3.067-8.865-3.067-8.865,5.989-2.392,7.526-5.677,7.526-5.677" transform="translate(-2670.26 1284.704)"/><path class="a" d="M3375.2-1168.518s-.208-.23-.557-.643c-1.821-2.156-7.5-9.294-7.678-14.661-.209-6.4-5.137-17.384-5.137-17.384,10.836,5.8,10.846-5.444,10.846-5.444-.024-7.337-9.376-19.44-9.376-19.44-6.274,8.3-4.876,18.593-4.876,18.593-.433-2.773-5.492-4.386-5.492-4.386,6.3-13.442-22.643-12.875-22.643-12.875,11.414,24,19.756,15.125,19.756,15.125,9.714,7.775,10.822,15.813,10.822,15.813-11.685-6.452-20.144-4.448-20.144-4.448,1.239,4.887,6.671,12.065,6.671,12.065,11.231,11.25,15.993.7,15.993.7.036,11.005,4.284,15.506,4.284,15.506" transform="translate(-2967.014 1314.605)"/><path class="a" d="M3145.749-1226.412s.749,14.053,5.433,15.364c0,0-1.124-6.558,3.185-11.617,0,0,9.743,9.93,1.873,15.364,0,0,12.367-.188,19.487,7.495,0,0-2.061-5.434,8.431-12.179,0,0,4.122,14.989-5.621,14.24,0,0,2.623,3,3.185,4.684h-2.435s-5.059-7.12-11.617-9.556c0,0,6.183,8.806-13.865,5.621,0,0,1.5-4.122,8.244-7.495,0,0-17.425,3.185-18.549-21.922C3143.5-1226.412,3144.625-1228.473,3145.749-1226.412Z" transform="translate(-2883.033 1315.162)"/><path class="a" d="M3569.246-1097.129s-7.857,11.675-12.551,10.4c0,0,4.332-5.05,3.23-11.6,0,0-13.459,3.52-9.5,12.223,0,0-10.516-6.509-20.57-3.572,0,0,4.558-3.6-.984-14.78,0,0-11.232,10.748-2.486,15.106,0,0-3.79,1.226-5.138,2.385l2.09,1.251s8-3.513,14.874-2.237c0,0-9.827,4.383,9.013,11.942,0,0,.83-4.307-3.228-10.664,0,0,13.319,11.679,27.172-9.291C3571.175-1095.974,3571.268-1098.321,3569.246-1097.129Z" transform="translate(-3052.873 1259.922)"/><path class="a" d="M2949.238-1112.161s-.75,14.052-5.433,15.364c0,0,1.124-6.558-3.186-11.617,0,0-9.743,9.931-1.874,15.364,0,0-12.366-.187-19.486,7.495,0,0,2.061-5.433-8.432-12.179,0,0-4.123,14.989,5.621,14.24,0,0-2.623,3-3.186,4.684h2.436s5.059-7.12,11.617-9.556c0,0-6.183,8.806,13.865,5.621,0,0-1.5-4.122-8.244-7.495,0,0,17.425,3.185,18.549-21.922C2951.486-1112.161,2950.362-1114.223,2949.238-1112.161Z" transform="translate(-2778.032 1263.794)"/><path class="a" d="M2760.622-1261.631s-3.326,13.674.782,16.278c0,0,.811-6.6,6.393-10.209,0,0,6.474,12.314-2.626,15.254,0,0,11.9,3.378,16.506,12.785,0,0-.41-5.8,11.579-9.238,0,0-.365,15.541-9.48,12.02,0,0,1.649,3.626,1.7,5.4l-2.333-.7s-2.8-8.275-8.376-12.495c0,0,3.388,10.213-14.9,1.394,0,0,2.622-3.516,10.052-4.805,0,0-17.6-1.964-11.458-26.333C2758.468-1262.278,2760.138-1263.928,2760.622-1261.631Z" transform="translate(-2709.333 1331.134)"/><path class="a" d="M3498.211-963.368s2.163-13.906-2.15-16.155c0,0-.251,6.649-5.511,10.711,0,0-7.487-11.726,1.333-15.42,0,0-12.14-2.366-17.523-11.35,0,0,.9,5.742-10.76,10.18,0,0-.944-15.517,8.435-12.776,0,0-1.949-3.475-2.152-5.24l2.384.5s3.483,8.01,9.4,11.745c0,0-4.236-9.892,14.726-2.643,0,0-2.316,3.725-9.611,5.635,0,0,17.707.474,13.633,25.274C3500.411-962.905,3498.886-961.12,3498.211-963.368Z" transform="translate(-3026.939 1214.49)"/><g transform="translate(76.414 219.481)"><path class="i" d="M2832.15-987.655l-.158,2.707v4.893l5.06-.245,3.685-.412.211-7.428Z" transform="translate(-2819.391 988.14)"/><g transform="translate(0 3.192)"><path class="o" d="M2822.312-978.252s1.558-5.418-1.2-3.781a8.892,8.892,0,0,1-5.91,6.219c-5.111,1.837-5.99,3.194-5.99,4.073,0,0,17.89.4,23.082-1.278,0,0-2.174-9.455-3.83-6.72C2827.646-978.385,2826.585-977.193,2822.312-978.252Z" transform="translate(-2809.149 982.341)"/><path class="p" d="M2809.442-964.184s-.864,1.216.141,1.921l22.758-1.666s1.043-.941-.117-1.595A110.73,110.73,0,0,1,2809.442-964.184Z" transform="translate(-2809.096 974.78)"/></g></g><g transform="translate(113.259 216.697)"><path class="i" d="M2895.918-991.617l.182,2.705.612,4.855,4.99-.876,3.6-.87-.72-7.4Z" transform="translate(-2884.977 993.199)"/><g transform="translate(0 4.251)"><path class="o" d="M2888.23-981.452s.867-5.57-1.661-3.6a8.893,8.893,0,0,1-5.086,6.909c-4.841,2.462-5.543,3.919-5.433,4.791,0,0,17.8-1.842,22.74-4.155,0,0-3.339-9.109-4.64-6.189C2893.506-982.252,2892.6-980.935,2888.23-981.452Z" transform="translate(-2876.04 985.475)"/><path class="p" d="M2876.379-966.937s-.7,1.315.38,1.888l22.371-4.5s.917-1.063-.315-1.567A110.762,110.762,0,0,1,2876.379-966.937Z" transform="translate(-2876.091 979.019)"/></g></g><path class="q" d="M2914.711-1203.83s15.032,11.83,25.337.213c0,0,18.745,1.949,21.7,34.013l-15.3,1,.114,21.751a2.569,2.569,0,0,1-2.569,2.569H2910a1.717,1.717,0,0,1-1.714-1.833l2.407-35.716-8.016,3.8-6.751-15.61S2901.313-1202.259,2914.711-1203.83Z" transform="translate(-2771.723 1304.597)"/><path class="r" d="M2881.194-1095.644h-26.65s-15.61-.844-17.3,13.923l-9.282,45.565h12.657l12.235-36.283Z" transform="translate(-2741.165 1255.96)"/><path class="s" d="M2896.187-1095.637H2935s6.421,18.564-16.454,24.048c-6.324,1.516-16.54,3.573-22.024.62l-.758,32.288-13.5,2.532-9.281-36.283s-3.024-12.094,11.813-17.72C2884.8-1090.152,2887.608-1090.926,2896.187-1095.637Z" transform="translate(-2761.292 1255.952)"/><path class="t" d="M2933.917-1203.823s9.062,11.666,20.156-.357l4.227,1.514s-15.934,21.75-30.919-1.346Z" transform="translate(-2785.864 1304.754)"/><path class="t" d="M3002.068-1138.225l-16.605.723,1.235-3.141,15.3-1Z" transform="translate(-2811.978 1276.638)"/><path class="t" d="M2902.68-1172.309l4.017-1.446-7.964-17.344-2.8,3.179Z" transform="translate(-2771.723 1298.872)"/><path class="t" d="M2980.351-1143.857c-8.424-3.449-9.26-14.125-9.26-14.125a21.112,21.112,0,0,1,9.392.7c.362,1.45-.345,3.678-.132,5.157" transform="translate(-2805.516 1284.09)"/><path class="i" d="M3003.091-1135.432l3.155,46.571s12.1,1.664,14.2,8.763l-21.1-2.692-11.61-51.92Z" transform="translate(-2813 1273.845)"/><path class="u" d="M2887.706-1169.712l-12.979,11.849,7,27.667-7.408,2.921s-7.982-14.5-11.16-27.662c-1.285-5.322-.1-11.738,2.066-14.775,3.635-5.1,15.734-15.61,15.734-15.61Z" transform="translate(-2756.749 1296.276)"/><path class="u" d="M2891.273-1085.164s10.281.023,10,2.921-4.6,7-17.407,0Z" transform="translate(-2766.299 1251.244)"/><g transform="translate(313.602 58.553)"><path class="v" d="M3328.451-1133.066h7.587v-36.422s.885-16.483-12.646-18.685c-10.678-1.738-15.1-2.087-42.771,2.229l1.543,11.524,35.41,2.15s5.691-.379,5.691,7.588C3323.265-1152.3,3328.451-1133.066,3328.451-1133.066Z" transform="translate(-3258.285 1239.549)"/><path class="w" d="M3250.964-1181.494s-10.437,23.217,38.942,17.7c2.55-.284,4.142,2.61,4.358,10.962.226,8.7-.809,5.481,9.814,22.553h6.071l-4.174-36.8s.38-14.417-15.176-14.417C3290.8-1181.494,3268.416-1185.288,3250.964-1181.494Z" transform="translate(-3244.537 1236.759)"/><path class="x" d="M3267.965-1280.527s1.138,8.094-4.806,8.094c0,0-5.438.127-9.865-7.082,0,0-15.808,1.771-12.9,23.9h12.267l.126,16.567s-1.012,5.438,3.667,5.69,20.993,2.993,20.993,2.993l-.759-29.551h8.094S3284.026-1277.113,3267.965-1280.527Z" transform="translate(-3240.039 1280.527)"/><path class="y" d="M3240.688-1235.262l.759,20.993s.506,8.853,5.312,9.358a83.329,83.329,0,0,1,15.909-1.66s22.507-3.378,27.714-3.383c0,0-6.481-1.255-27.678-2.381-2.346-.125-9.875-.417-9.708-5.479.176-5.305-.041-17.448-.041-17.448Z" transform="translate(-3240.331 1260.175)"/><path class="y" d="M3314.725-1243.075s5.434,23.932,19.473,30.62a46.407,46.407,0,0,0-14.169-1.011s-9.865-7.607-13.087-17.469l-.312-12.139Z" transform="translate(-3269.979 1263.688)"/></g><g transform="translate(383.538 164.822)"><rect class="i" width="7.352" height="4.862" transform="matrix(0.999, -0.043, 0.043, 0.999, 1.06, 0.319)"/><path class="o" d="M3387.747-1066.8l-19.9.864s-1.977-10,.531-12.367l7.345-.319s4.548,6.33,4.589,7.278C3380.31-1071.346,3387.5-1069.759,3387.747-1066.8Z" transform="translate(-3367.104 1083.481)"/><path class="p" d="M3388.089-1057.06s2.021.946.077,1.782c-3.137,1.349-19.7,1.047-19.7,1.047s-1.518-.82-.284-1.964Z" transform="translate(-3367.373 1073.786)"/></g><g transform="translate(371.655 164.822)"><rect class="i" width="7.352" height="4.862" transform="matrix(0.999, -0.043, 0.043, 0.999, 1.06, 0.319)"/><path class="o" d="M3366.159-1066.8l-19.9.864s-1.978-10,.531-12.367l7.345-.319s4.548,6.33,4.589,7.278C3358.721-1071.346,3365.912-1069.759,3366.159-1066.8Z" transform="translate(-3345.516 1083.481)"/><path class="p" d="M3366.5-1057.06s2.021.946.077,1.782c-3.138,1.349-19.7,1.047-19.7,1.047s-1.519-.82-.284-1.964Z" transform="translate(-3345.785 1073.786)"/></g><g transform="translate(234.015 67.421)"><path class="z" d="M3118.419-1241.572c-4.525-5.837-6.713-11.717-4.885-13.133s6.976,2.167,11.5,8a26,26,0,0,1,4.886,13.133A25.993,25.993,0,0,1,3118.419-1241.572Z" transform="translate(-3103.284 1260.189)"/><path class="z" d="M3129.339-1249.187c-1.928-7.13-1.683-13.4.549-14s5.6,4.687,7.532,11.816a26,26,0,0,1-.549,14A26,26,0,0,1,3129.339-1249.187Z" transform="translate(-3110.096 1263.886)"/><path class="z" d="M3138.583-1251.515c.729-7.349,3.184-13.123,5.485-12.895s3.574,6.371,2.845,13.72a26,26,0,0,1-5.484,12.9A26,26,0,0,1,3138.583-1251.515Z" transform="translate(-3114.792 1264.416)"/><path class="z" d="M3115.27-1237.955c-6.424-3.644-12.556-4.969-13.7-2.958s3.143,6.595,9.566,10.239a25.993,25.993,0,0,0,13.7,2.958A26,26,0,0,0,3115.27-1237.955Z" transform="translate(-3098.114 1254.271)"/><path class="z" d="M3109.147-1226.017c-7.354-.684-13.489.627-13.7,2.929s5.574,4.722,12.928,5.406a26,26,0,0,0,13.7-2.929A25.991,25.991,0,0,0,3109.147-1226.017Z" transform="translate(-3095.438 1247.233)"/></g><path class="aa" d="M3122.759-1229.5s-4.676-4.793-3.057-7.32,5.865,4.346,5.865,4.346-2.9-9.655,2.886-10.636c0,0,3.646-.613,3.293,7.882,0,0,3-6.424,4.2-1.738s-7,13.643-10.428,13.749-11.447,1.836-12.331-2.1S3122.759-1229.5,3122.759-1229.5Z" transform="translate(-2869.379 1322.263)"/><g transform="translate(453.969 122.086)"><path class="ab" d="M3521.261-1093.035s-4.825-14.922-2.7-25.623" transform="translate(-3505.39 1144.217)"/><circle class="d" cx="10.365" cy="10.365" r="10.365" transform="translate(1.22)"/><path class="a" d="M3505.38-1136.444s-1.114-6.085,1.616-7.238,2.33,6.334,2.33,6.334,3.052-8.975,8.3-6.83c0,0,3.3,1.357-1.738,7.794,0,0,6.032-3.494,4.382.758s-13.326,7.1-16.167,5.462-10.324-4.329-8.838-7.839S3505.38-1136.444,3505.38-1136.444Z" transform="translate(-3495.071 1155.84)"/><path class="ab" d="M3523.451-1083.607s5.735-10.76,12.65-15.521" transform="translate(-3507.831 1135.436)"/><ellipse class="b" cx="9.915" cy="6.387" rx="9.915" ry="6.387" transform="translate(24.302 33.244) rotate(-57.251)"/><path class="a" d="M3544.53-1113.628s2.609-3.713,4.494-2.95-2.163,4.449-2.163,4.449,6.07-3.135,7.445.595c0,0,.863,2.352-4.839,3.177,0,0,4.654,1.2,1.682,2.58s-9.962-2.963-10.46-5.23-2.651-7.4-.14-8.477S3544.53-1113.628,3544.53-1113.628Z" transform="translate(-3514.981 1144.639)"/></g></g><g transform="translate(12690.148 7288.271)"><path class="l" d="M2942.653-1134.541h-1.05v-3.247h.109v0h7.918a7.875,7.875,0,0,0-9.019-6.534,7.876,7.876,0,0,0-6.534,9.02,7.875,7.875,0,0,0,9.019,6.534,7.876,7.876,0,0,0,6.633-7.774c0-.062,0-.122,0-.183h-7.072Z" transform="translate(-2933.978 1144.426)"/></g><g transform="translate(12875.93 7238.406)"><path class="l" d="M3280.2-1225.139h-1.05v-3.247h.108v0h7.919a7.875,7.875,0,0,0-9.019-6.534,7.876,7.876,0,0,0-6.534,9.02,7.876,7.876,0,0,0,9.02,6.534,7.875,7.875,0,0,0,6.632-7.774c0-.061,0-.122,0-.183H3280.2Z" transform="translate(-3271.521 1235.024)"/></g></g></svg>