<svg id="Earth_Illustration" data-name="Earth Illustration" xmlns="http://www.w3.org/2000/svg" width="643.613" height="580.867" viewBox="0 0 643.613 580.867">
  <g id="Group_4060" data-name="Group 4060" transform="translate(29.249)">
    <path id="Path_6707" data-name="Path 6707" d="M4793.591,3922.667c-1.594-32.18,12.722-71.762,49.713-73.036,67.061-2.306,103.806,77.119,164.135,91.828,41.4,10.1,67.027-19.137,97.558-40.689,32.975-23.276,68.127-54.934,112.3-45,28.533,6.414,44.694,35.481,47.15,62.256,2.63,28.688-11.172,51.745-8.809,79.279,2.509,29.2,33.39,41.789,48.65,65.875,18.851,29.757,25.229,64.1,16.084,98.22-8.819,32.906-33.7,65.452-65.794,78.27-43.485,17.367-75.894-8.8-116.31-20.506-57.715-16.722-85.154,14.019-125.394,48.617-24.9,21.4-56.386,40.348-90.978,35.121-48.5-7.328-63.578-73.108-63.975-113.783-.252-25.931,11.4-55.983-7.716-75.89-18.286-19.042-36.143-16.429-61.007-17.957-19.772-1.214-43.026-8.673-49.672-29.206-3.091-9.546-2.81-22.064,3.252-30.413,15.069-20.738,50.457-21.207,55.643-47.042C4802.8,3966.82,4794.664,3944.341,4793.591,3922.667Z" transform="translate(-4737.595 -3806.495)" fill="#9ed9e5"/>
    <path id="Path_6708" data-name="Path 6708" d="M4934.027,3867.026c9.262-37.611-75.918-68.347-78.484-31.4-1.365,19.707,27.621,43.814,45.179,47.078C4916.883,3885.7,4929.942,3883.62,4934.027,3867.026Z" transform="translate(-4689.629 -3818.955)" fill="#9ed9e5"/>
  </g>
  <g id="Group_4127" data-name="Group 4127" transform="translate(0 3.6)">
    <g id="Group_4082" data-name="Group 4082">
      <g id="Group_4062" data-name="Group 4062" transform="translate(24.61 322.081)">
        <g id="Group_4061" data-name="Group 4061">
          <path id="Path_6709" data-name="Path 6709" d="M4919.21,4158.469c-6.629-15.309-9.477-31.776-18.507-45.855-3.452-5.387-6.93-10.212-12.2-14.272-6.483-4.993-13.655-4.184-20.789-7.183-13.093-5.5-20.415-20.495-32.9-27.907a58.375,58.375,0,0,0-41.465-6.794c-13.1,2.7-22.09,4.253-34.709-1.209-9.646-4.177-29.781-11.037-22.958,7.307,4.021,10.811,17.395,16.034,23.931,26.014,7,10.692,8.753,26.354,18.223,35.41,8.976,8.587,21.131-.917,30.78,7.052,10,8.267,13.042,19.593,25.469,26.387,13.418,7.335,29.284,9.61,44.284,10.468,10.655.608,31.195,1.71,43.322-2.992C4920.937,4162.746,4920.138,4160.6,4919.21,4158.469Z" transform="translate(-4734.298 -4050.455)" fill="#3b7d4d"/>
        </g>
      </g>
      <path id="Path_6710" data-name="Path 6710" d="M4793.7,4093.42c32.293,34.268,70.771,57.744,113.442,65.6-.258-.645-.5-1.288-.785-1.93-6.629-15.31-9.477-31.776-18.507-45.855-3.452-5.387-6.93-10.213-12.2-14.272-6.483-4.993-13.655-4.184-20.789-7.183-13.093-5.5-20.415-20.495-32.9-27.907a58.375,58.375,0,0,0-41.465-6.794,111.574,111.574,0,0,1-14.595,2.331C4774.747,4070.405,4783.755,4082.867,4793.7,4093.42Z" transform="translate(-4696.832 -3726.991)" fill="#2c613c"/>
      <g id="Group_4064" data-name="Group 4064" transform="translate(475.063)">
        <g id="Group_4063" data-name="Group 4063">
          <path id="Path_6711" data-name="Path 6711" d="M5122.28,3973.12c-10.424-2.109,10.527-19.673,13.524-22.594,7.7-7.507,22.365-20.378,20.579-32.695-1.769-12.185-14.792-3.264-22.027-5.162,1.409-8.552,13.314-16.851,18.586-23.229,4.046-4.893,8.056-10.17,9.385-16.624,2.79-13.533-6.052-16.072-16.255-10.03-1.491-2.166-1-5.308-.735-8.008.7-7.054,6.385-31.27-5.605-33.208-6.331-1.024-11.653,12.081-13.642,16.363-2.226,4.784-5.135,17.492-9.517,20.447-4.756,3.206-4.833-4.93-10.026-4.328-5.622.648-6.973,12.24-7.7,16.625-1.3,7.8-.356,15.845.486,23.6.475,4.4,2.362,10.237-.246,14.215-2.906-2.259-5.859-5.943-9.069-7.952-7.83-4.9-9.435,3.653-11.021,10.352-2.678,11.311-.853,23.589-.806,35.146.017,4.182,1.734,14.81-1.184,17.616-6.824-5.165-17.631-15.823-21.142-.978-2.3,9.734-1.434,21.3.542,30.987,1.295,6.353,6.81,28.519,12.509,44.121q1.463-1.025,2.883-2.054c8.256-5.993,17.23-10.466,25.708-16.2,11.7-7.907,24.706-18.451,31.917-30.677,1.813-3.077,6.881-12.928,4.792-16.332C5131.372,3967.9,5125.442,3973.76,5122.28,3973.12Z" transform="translate(-5054.488 -3821.513)" fill="#3b7d4d"/>
        </g>
      </g>
      <path id="Path_6712" data-name="Path 6712" d="M5130.618,3929.373c-2.843-4.622-8.772,1.235-11.935.6a5.659,5.659,0,0,1-1.162-.369c-17.559,14.165-33.963,29.791-46.908,48.208q-3.848,5.476-7.284,11.107c.657,1.973,1.322,3.893,1.989,5.72q1.463-1.025,2.882-2.054c8.256-5.993,17.231-10.466,25.708-16.2,11.7-7.907,24.706-18.451,31.917-30.677C5127.64,3942.628,5132.707,3932.777,5130.618,3929.373Z" transform="translate(-4575.828 -3778.362)" fill="#2c613c"/>
      <g id="Group_4067" data-name="Group 4067" transform="translate(60.137 19.71)">
        <g id="Group_4066" data-name="Group 4066">
          <g id="Group_4065" data-name="Group 4065">
            <path id="Path_6713" data-name="Path 6713" d="M4885.184,4090.518c4.762-17.143,10.789-34.9,13.619-52.319,2.3-14.185-3.313-29.366-10.35-41.376-5.789-9.878-17.975-16.557-23.449-26.578-7-12.822-3.051-30.4-7.3-44.377-4.632-15.232-13.751-25.326-25.9-34.967-10.692-8.483-18.6-11.535-25.159-23.919-5.937-11.2-12.3-24.836-24.983-29.939-29.457-11.848-7.656,49.142-6.519,60.4,1.3,12.885-3.888,20.9-9.632,31.7-8.444,15.867-8.545,31.1,3.807,45.627,10.785,12.683,21.689,16.239,19.014,34.8-1.933,13.417-4.007,28.249.061,41.714,4.721,15.63,13.577,30.268,27.5,38.343a184.47,184.47,0,0,0,19.264,9.536c5.337,2.3,26.285,5.772,43.156,8.271A85.2,85.2,0,0,0,4885.184,4090.518Z" transform="translate(-4759.55 -3835.524)" fill="#54a158"/>
          </g>
        </g>
      </g>
      <path id="Path_6714" data-name="Path 6714" d="M4827.489,4049.243c5.337,2.3,26.285,5.772,43.156,8.271a92.181,92.181,0,0,0,5.583-12.756c-11.071-20.718-26.573-39.853-48.611-57.245a234.846,234.846,0,0,0-46.771-29.294c-.051.469-.108.941-.179,1.432-1.933,13.417-4.007,28.249.061,41.714,4.721,15.63,13.577,30.268,27.5,38.343A184.47,184.47,0,0,0,4827.489,4049.243Z" transform="translate(-4691.751 -3765.898)" fill="#3b7d4d"/>
      <g id="Group_4069" data-name="Group 4069" transform="translate(495.463 89.289)">
        <g id="Group_4068" data-name="Group 4068">
          <path id="Path_6715" data-name="Path 6715" d="M5167.467,4018.244c8.7-30.116,12.677-63.817,10.37-95.156a181.092,181.092,0,0,1,1.317-38.106c-4.213,4.232-9.012,8.175-11.527,10.879-8.654,9.3-17.971,18.183-26.466,27.807-23.146,26.215-46.263,54.237-59.517,87.022-8.7,21.513-13.619,43.506-12.5,66.407a141.39,141.39,0,0,0,5.311,31.393c.945,3.376,2.092,8.1,3.549,12.9C5122.847,4101.486,5153.878,4065.276,5167.467,4018.244Z" transform="translate(-5068.988 -3884.982)" fill="#54a158"/>
        </g>
      </g>
      <path id="Path_6716" data-name="Path 6716" d="M5085.808,3967.641c-1.467,3.1-2.875,6.232-4.165,9.421-8.7,21.513-13.619,43.506-12.5,66.407a141.39,141.39,0,0,0,5.311,31.393c.945,3.376,2.092,8.1,3.549,12.9a164,164,0,0,0,37.014-22.574A199.847,199.847,0,0,0,5085.808,3967.641Z" transform="translate(-4573.526 -3762.065)" fill="#3b7d4d"/>
      <path id="Path_6717" data-name="Path 6717" d="M5162.06,3990.595c-28.357,6.532-53,19.569-76.062,36.7a189.682,189.682,0,0,0-16.512,13.766,146.974,146.974,0,0,0,4.768,24.464c.945,3.376,2.092,8.1,3.549,12.9C5117.643,4060.74,5146.569,4030.176,5162.06,3990.595Z" transform="translate(-4573.323 -3752.726)" fill="#3b7d4d"/>
      <g id="Group_4071" data-name="Group 4071" transform="translate(0 188.348)">
        <g id="Group_4070" data-name="Group 4070">
          <path id="Path_6718" data-name="Path 6718" d="M4842.141,4001.373c-25.094-19.807-51.965-34.727-83.132-41.714-9.081-2.037-26.74-1.65-42.2-4.264,31.107,33.43,45.678,86.412,71.478,122.75,32.868,46.289,76.792,78.306,129.512,87.116C4912.082,4101.016,4898.164,4045.581,4842.141,4001.373Z" transform="translate(-4716.804 -3955.395)" fill="#68b66e"/>
        </g>
      </g>
      <g id="Group_4073" data-name="Group 4073" transform="translate(440.567 247.234)">
        <g id="Group_4072" data-name="Group 4072">
          <path id="Path_6719" data-name="Path 6719" d="M5102.076,4038.5c23.919-17.769,49.53-31.154,79.237-37.423,8.657-1.826,25.486-1.481,40.226-3.825-29.649,29.993-43.536,77.525-68.127,110.125-31.329,41.526-73.194,70.25-123.444,78.155C5035.412,4127.895,5048.677,4078.162,5102.076,4038.5Z" transform="translate(-5029.967 -3997.252)" fill="#68b66e"/>
        </g>
      </g>
      <path id="Path_6720" data-name="Path 6720" d="M5029.967,4178.4a178.032,178.032,0,0,0,78.866-33.447,200.074,200.074,0,0,0,22.2-91.885,202.1,202.1,0,0,0-3.659-38.3,249.2,249.2,0,0,0-25.295,16.6C5048.677,4071.033,5035.412,4120.767,5029.967,4178.4Z" transform="translate(-4589.4 -3742.89)" fill="#54a158"/>
      <g id="Group_4075" data-name="Group 4075" transform="translate(37.567 208.93)">
        <g id="Group_4074" data-name="Group 4074">
          <path id="Path_6721" data-name="Path 6721" d="M4938.132,4165.977c-12.424-5.951-25.376-16.388-34.039-23.72-30.885-26.145-55.612-58.681-79.522-90.148q-4.427-5.826-8.868-11.645c-12.646-16.53-23.321-28.655-34.616-39.316-1.172-1.106-2.394-2.272-3.658-3.479-9.921-9.474-22.269-21.264-33.92-26.332l.569-1.312c11.886,5.17,24.336,17.058,34.339,26.61,1.262,1.206,2.482,2.369,3.651,3.472,11.354,10.715,22.077,22.895,34.771,39.488q4.449,5.813,8.872,11.648c23.865,31.4,48.542,63.879,79.309,89.92,8.6,7.282,21.457,17.643,33.733,23.521Z" transform="translate(-4743.508 -3970.025)" fill="#54a158"/>
        </g>
      </g>
      <g id="Group_4077" data-name="Group 4077" transform="translate(90.887 60.264)">
        <g id="Group_4076" data-name="Group 4076">
          <path id="Path_6722" data-name="Path 6722" d="M4866.361,4082.32c-1.665-13.833-4.669-25.24-9.458-35.9-8.338-18.562-17.791-33.068-29.753-45.649-10.444-10.989-19.092-21.454-19.11-38.281,0-3.724.086-7.476.172-11.1.275-11.568.533-22.494-1.9-33.688-4.262-19.578-14.287-35.573-24.9-52.507l.554-.464.6-.38-.6.38.657-.3c10.682,17.044,20.771,33.141,25.087,52.962,2.473,11.363,2.2,22.883,1.936,34.025-.087,3.62-.176,7.362-.172,11.069.018,16.3,8.488,26.534,18.717,37.3,12.076,12.7,21.616,27.336,30.021,46.048,4.849,10.794,7.891,22.333,9.573,36.314Z" transform="translate(-4781.408 -3864.35)" fill="#3b7d4d"/>
        </g>
      </g>
      <g id="Group_4078" data-name="Group 4078" transform="translate(480.826 33.666)">
        <path id="Path_6723" data-name="Path 6723" d="M5059.984,4072.734l-1.4-.292c1.252-6.031,1.922-12.045,2.569-17.862.9-8.125,1.835-16.525,4.383-24.759,1.359-4.395,2.612-8.38,4.15-12.64,1.771-4.91,3.438-10.007,5.049-14.937,2.479-7.584,5.043-15.426,8.141-23.087,2.811-6.95,6.314-14.029,9.7-20.874,3.589-7.25,7.3-14.747,10.19-22.1,2.643-6.722,4.663-13.759,6.614-20.565,2.577-8.982,5.243-18.269,9.379-26.994,4.784-10.085,6.934-19.771,9.211-30.026.948-4.274,1.93-8.693,3.122-13.155l1.381.37c-1.183,4.431-2.16,8.836-3.106,13.095-2.3,10.336-4.463,20.1-9.314,30.33-4.087,8.618-6.735,17.849-9.3,26.775-1.963,6.839-3.991,13.909-6.66,20.694-2.912,7.409-6.637,14.932-10.238,22.21-3.379,6.821-6.87,13.875-9.661,20.777-3.078,7.614-5.635,15.435-8.106,22.995-1.613,4.939-3.283,10.046-5.064,14.979-1.526,4.23-2.772,8.2-4.126,12.577-2.509,8.1-3.393,16.066-4.33,24.493C5061.924,4060.589,5061.25,4066.639,5059.984,4072.734Z" transform="translate(-5058.584 -3845.444)" fill="#2c613c"/>
      </g>
      <g id="Group_4079" data-name="Group 4079" transform="translate(482.378 140.475)">
        <path id="Path_6724" data-name="Path 6724" d="M5060.6,4125.328l-.912-1.1c4.35-3.6,6.9-8.871,9.36-13.97a59.614,59.614,0,0,1,6.023-10.562c1.267-1.645,2.5-3.1,3.689-4.512a52.994,52.994,0,0,0,7.468-10.565c4.88-9.519,7.774-19.521,10.174-28.912.8-3.136,1.579-6.319,2.359-9.52,3.018-12.375,6.139-25.172,11.028-36.337l2.009-4.606c6.723-15.456,13.678-31.438,24.069-44.682,10.895-13.886,16.958-24.886,23.752-39.2l1.291.614c-6.836,14.4-12.941,25.475-23.917,39.464-10.28,13.1-17.194,29-23.883,44.372l-2.011,4.608c-4.841,11.051-7.946,23.785-10.95,36.1-.781,3.205-1.559,6.394-2.36,9.536-2.423,9.471-5.345,19.566-10.288,29.21a54.244,54.244,0,0,1-7.649,10.837c-1.18,1.4-2.4,2.84-3.649,4.461a58.662,58.662,0,0,0-5.868,10.312C5067.806,4116.116,5065.189,4121.531,5060.6,4125.328Z" transform="translate(-5059.688 -3921.366)" fill="#3b7d4d"/>
      </g>
      <g id="Group_4080" data-name="Group 4080" transform="translate(417.622 286.178)">
        <path id="Path_6725" data-name="Path 6725" d="M5014.4,4203.4l-.746-1.221c2.7-1.653,3.947-3.666,5.394-6a38.7,38.7,0,0,1,2.273-3.388c7.524-9.762,14.792-19.736,21.82-29.383,10.587-14.531,21.537-29.558,33.479-44.014,6.484-7.849,14.393-14.191,22.043-20.325,7.555-6.058,15.368-12.322,21.606-19.935l3.358-4.1c14.338-17.515,27.879-34.06,43.4-50.1l1.028.995c-15.482,16-29.006,32.521-43.323,50.014l-3.361,4.1c-6.332,7.728-14.205,14.041-21.815,20.142s-15.446,12.386-21.837,20.122c-11.915,14.422-22.851,29.431-33.427,43.945-7.035,9.654-14.307,19.635-21.842,29.414a36.925,36.925,0,0,0-2.192,3.267C5018.788,4199.32,5017.4,4201.57,5014.4,4203.4Z" transform="translate(-5013.657 -4024.934)" fill="#54a158"/>
      </g>
      <g id="Group_4081" data-name="Group 4081" transform="translate(60.139 340.872)">
        <path id="Path_6726" data-name="Path 6726" d="M4948.135,4174.14c-2.054-1.961-4.01-3.858-5.9-5.69-15.388-14.93-26.5-25.718-49.312-30.1-2.707-.522-5.588-.952-8.375-1.372-6.152-.923-12.514-1.875-18.17-3.9-7.508-2.681-13.091-8.047-18.49-13.236-5.054-4.859-9.827-9.447-16.09-12.1a93.074,93.074,0,0,0-12.8-4.156c-8.557-2.3-15.945-4.285-24.2-13.594-1.6-1.8-3.291-4.039-5.084-6.405-7.534-9.948-16.908-22.331-29.623-17.058l-.548-1.321c13.732-5.7,23.479,7.175,31.313,17.515,1.774,2.345,3.452,4.56,5.014,6.319,7.969,8.988,15.164,10.924,23.5,13.163a94.183,94.183,0,0,1,12.982,4.22c6.506,2.755,11.6,7.65,16.524,12.385,5.291,5.085,10.762,10.342,17.979,12.922,5.525,1.975,11.817,2.916,17.9,3.829,2.8.42,5.7.855,8.433,1.38,23.229,4.466,34.473,15.377,50.038,30.48,1.887,1.829,3.838,3.724,5.888,5.682Z" transform="translate(-4759.552 -4063.812)" fill="#2c613c"/>
      </g>
    </g>
    <g id="Group_4090" data-name="Group 4090" transform="translate(70.036 51.268)">
      <g id="Group_4089" data-name="Group 4089">
        <g id="Group_4085" data-name="Group 4085" transform="translate(28.049)">
          <circle id="Ellipse_26" data-name="Ellipse 26" cx="200.938" cy="200.938" r="200.938" transform="translate(0 398.623) rotate(-82.705)" fill="#2b6ab0"/>
          <g id="Group_4084" data-name="Group 4084" transform="translate(23.889 25.614)">
            <g id="Group_4083" data-name="Group 4083">
              <path id="Path_6727" data-name="Path 6727" d="M4986.869,3903.927c-1.585,3.332-6.277,2.188-7.594,4.848-2.145,4.377.229,8.468,1.016,12.629,1.76,9.4,4.433,13.145-5.106,18.737-9.055,5.307-11.672,1.588-11.242,14.29.144,4.406,4.2,4.605,1.616,9.4-.816,1.5-7.181,2.188-8.911,4.634-5.106,7.265,2.762,16.778.787,24.731-2.345,9.41-9.14,7.909-15.332,12.757-11.93,9.328-8.354,32.3-22.386,39.092-5.549,2.688-19.052-.373-22.928-4.75-5.936-6.694-1.645-14.5,1.3-21.083,3.89-8.711,4.776-10.512.228-18.965-1.661-3.075-4.249-4.02-5.464-8.1-1.288-4.333,1.173-9.268-.758-13.559-1.545-3.4-5.978-3.662-7.309-6.436-1.96-4.047-.471-8.468-2.316-12.288-.873-1.8-3.777-7.107-6.194-7.566-6.979-1.3-2.8,3.961-5.235,7.566-10.17,15.062-20.668-1.559-35.429,3.892-3.591,1.33-7.123,3.6-10.656,5.649a200.977,200.977,0,0,1,144.261-93.243C4976.886,3884.774,4993.664,3889.652,4986.869,3903.927Z" transform="translate(-4794.778 -3876.163)" fill="#5eb3b4"/>
              <path id="Path_6728" data-name="Path 6728" d="M5004.131,4059.425c-8.457-22.207-21.459-3.58-35.172-14.7-3.912-3.168-3.394-9.246-9.067-11.077-6.1-1.974-14.188,3.338-21.357,2.636-18.136-1.777-26.158,6.979-31.233,25.478-2.592,9.45-3.845,13.775,3.937,20.331,3.064,2.585,7.992,3.293,10.662,6.223,3.185,3.488,2.442,8.4,4.958,11.758,4.021,5.384,12.055,6.193,16.907,12.191,2.161,2.667,2.008,7.081,4.668,9.909,2.843,3.022,7.547,2.6,10.952,5.962,8.858,8.732,10.343,21.2,9.9,32.3-.6,15.047,9.159,19.9,23.993,18.561,3.325-11.7,8.407-6.023,16.9-10.234,7.084-3.514,10.961-13.682,12.437-20.824,1.837-8.88.7-10.046,7.291-17.929,5.184-6.2,9.859-12.314,10.412-20.593.856-12.874-4.234-11.042-11.45-16.609-4.994-3.848-8.816-9.68-13.542-13.585-4-3.308-4.922-2.3-7.516-7.286C5005.965,4068.406,5005.637,4063.378,5004.131,4059.425Z" transform="translate(-4762.087 -3812.272)" fill="#5eb3b4"/>
              <path id="Path_6729" data-name="Path 6729" d="M5156.181,4063.549a200.425,200.425,0,0,1-17.464,82.07c-2.732-.028-5.179-.071-6.937,0-8.523.329-17.179-2.946-21.927-10.355-2.532-3.935-.559-8.638-5.206-12.343-3.09-2.448-7.78-1.117-11.386-2.29-12.471-4.09-6.507-8.452-8.338-17.706-1.559-7.825-12.059-12.229-19.782-9.6-7.066,2.417-8.64,12.17-16.663,11.743-9.341-.5-10.571-11.4-12.487-17.75-3.318-10.984-2.231-12.429-12.758-8.6-1.145.415-8.711,3.948-9.083,4.406-2.662,3.289.128,8.267-2.089,11.5-4.92,7.179-13.258-3.118-15.4-9.455-1.331-3.89-.014-8.5-1.259-12.458-1.071-3.447-5.034-4.805-6.049-8.31-3.848-13.2,6.222-10.527,12.014-16.892,9.855-10.829-3.863-10.557-11.215-6.279-3.961,2.317-4.8,5.393-9.354,6.506-3.86.946-8.309-1.515-12.515-1.058-4.147.443-5.664,3.3-10.385,3.147-6.164-.2-4.591-2.674-9.082-4.42-9.9-3.847-14.375,1.73-24.071.1-2.089-8.48,7.293-14.6,13.6-17.292,4.191-1.788,8.31-1.53,12-3.648,3.932-2.259,4.434-6.123,9.64-7.825,8.411-2.76,17.236-3.289,24.99-7.522,6.091-3.333,11.671-13.246-.86-14.762,2.259-14.646-15.6-3.675-20.969-3.933-16.177-.788-3.4-12.415,4.077-16.965,4.163-2.546,8.725-4.676,12.774-6.793,5.219-2.746,6.649-4.562,10.955-7.781,14.246-10.627,8.525,4.077,20.925,4.563-1.746,15.375,8.312,10.526,15.82,4.02,1.874-1.632,2.948-6.051,5.378-7.081,2.575-1.087,4.205,1.888,5.205,1.673a104.187,104.187,0,0,1,13.188-2.032c-.657-5.005-4.677-13.788-1.73-18.407,1.244-1.974,7.081-1.259,9.156-3.291,3.875-3.79,3.2-4.662,4.16-9.382,1.717-8.34-1.344-10.256,5.178-16.4a56.714,56.714,0,0,1,10.77-7.41A200.56,200.56,0,0,1,5156.181,4063.549Z" transform="translate(-4754.304 -3864.333)" fill="#5eb3b4"/>
              <path id="Path_6730" data-name="Path 6730" d="M4930,4164.056c1.072,16.577-8.468,7.536-18.838,11.872a41.846,41.846,0,0,1-1.4,13.172c-11.186,5.519-9.925,14.733-8.767,24.557a201.032,201.032,0,0,1-37.348-28.949c-.186-1.958-.386-3.933-.644-5.892-.213-1.645,2.86-2.118,2-4.951-.286-.927-3.547-2.472-4.262-4.162-1.9-4.534-3.6-5.149-3.935-10.641-.486-8.354,6.38-15.248,7.367-22.885.514-4.061-2.39-7.207-2.131-11.456.228-3.678,2.416-6.41,2.96-10.228-6.564-2.389-11.714-3.76-16.291-8.354-5.092,4.735-16.792-2.259-22.127-3.288-8.082-1.531-14.86-2.519-16.776-13.359-.2-.115-.4-.215-.589-.3v-.014a202.412,202.412,0,0,1,3.763-109.006c8.653,1.089,5.979-.242,10.471-5.435,3.117-3.6,20.4-25.716,23.142-8.453,6.994-.33,20.711.786,17.55,11.628-1.945,6.624-14.461,5.993-19.052,13.559-5.206,8.583-.844,11.587,5.493,17.68,9.367,9.011,9.282,9.168,13.3-1.846,1.674-4.59-3.146-5.349,3.36-7.524,4.363-1.458,7.266.674,10.156,3.334,3.989,3.69,2.36,7.566,7.595,10.969,3.433,2.247,7.6,1.2,11.4,2.3,6.306,1.83,21.325,10.8,15.4,19.623-4.934,7.338-18.779-3.29-22.769,1.173-.272.086-.545.158-.8.229.588,8.61,12.1,9.025,11.128,17.393-7.322.372-18.793-2.389-23.556,3.261-4,4.75-.3,20.869-3.562,23.757-5.235,4.634-16.078-1.546-20.884-3.706-3.49-1.573-5.764-4.546-10.141-4.433-.8.014-9.568,4.662-9.684,4.919-2.818,7.023,7.853,15.334,14.075,16.7,6.909,1.519,11.972-4.776,20.368-.557,7.766,3.906,6.563,10.529,16.89,12.273,5.98,1,19.311-1.73,23.946,2.289,4.706,4.076,1.5,8.88,4.947,13.6,2.7,3.69,8.152,3.807,11.771,4.879,8.854,2.6,17.192,4.791,17.45,16.536C4925.683,4146.865,4929.218,4151.741,4930,4164.056Z" transform="translate(-4803.506 -3842.148)" fill="#5eb3b4"/>
            </g>
          </g>
          <path id="Path_6731" data-name="Path 6731" d="M5145.656,3918.993a200.422,200.422,0,0,1,13.579,72.732c0,110.979-89.965,200.938-200.939,200.938a200.354,200.354,0,0,1-145.141-61.979,201,201,0,0,0,187.362,128.206c110.977,0,200.942-89.96,200.942-200.938A200.254,200.254,0,0,0,5145.656,3918.993Z" transform="translate(-4775.691 -3833.124)" fill="#00aae6" opacity="0.5" style="mix-blend-mode: multiply;isolation: isolate"/>
        </g>
        <g id="Group_4086" data-name="Group 4086" transform="translate(341.109 113.498)">
          <path id="Path_6732" data-name="Path 6732" d="M5160.237,3977.459c-7.857-42.755-38.307-23.544-38.307-23.544-42.724-40.271-50.093,11.788-50.093,11.788-19.646-7.368-25.046,11.786-25.046,11.786-27.114-6.565-35.483,7.6-37.738,20.626h181.215C5185.216,3966.969,5160.237,3977.459,5160.237,3977.459Z" transform="translate(-5009.053 -3938.633)" fill="#fff"/>
        </g>
        <g id="Group_4087" data-name="Group 4087" transform="translate(0 158.601)">
          <path id="Path_6733" data-name="Path 6733" d="M4861.615,3995.1c-4.937-26.874-24.078-14.8-24.078-14.8-26.856-25.312-31.486,7.408-31.486,7.408-12.348-4.629-15.744,7.408-15.744,7.408-17.043-4.126-22.3,4.781-23.721,12.966h113.9C4877.316,3988.5,4861.615,3995.1,4861.615,3995.1Z" transform="translate(-4766.587 -3970.693)" fill="#fff"/>
        </g>
        <g id="Group_4088" data-name="Group 4088" transform="translate(40.709 37.113)">
          <path id="Path_6734" data-name="Path 6734" d="M4916.5,3915.406c-6.288-34.212-30.652-18.841-30.652-18.841-34.189-32.224-40.086,9.433-40.086,9.433-15.72-5.895-20.042,9.431-20.042,9.431-21.7-5.253-28.392,6.086-30.2,16.506h145.009C4936.49,3907.013,4916.5,3915.406,4916.5,3915.406Z" transform="translate(-4795.524 -3884.337)" fill="#fff"/>
        </g>
      </g>
      <path id="Path_6735" data-name="Path 6735" d="M4920.552,4003.024c-27.558,35.334-64.219,52.814-81.882,39.038s-9.637-53.588,17.925-88.924,64.22-52.812,81.883-39.037S4948.113,3967.688,4920.552,4003.024Z" transform="translate(-4741.075 -3837.03)" fill="#fff" opacity="0.3"/>
    </g>
    <g id="Group_4126" data-name="Group 4126" transform="translate(90.913 246.77)">
      <g id="Group_4095" data-name="Group 4095" transform="translate(374.044 49.93)">
        <path id="Path_6736" data-name="Path 6736" d="M5204.892,4176.776c0,5.761-23.684,10.433-52.9,10.433s-52.9-4.672-52.9-10.433,23.685-10.435,52.9-10.435S5204.892,4171.014,5204.892,4176.776Z" transform="translate(-5026.236 -3977.927)" fill="#9ed9e5"/>
        <g id="Group_4094" data-name="Group 4094">
          <g id="Group_4091" data-name="Group 4091" transform="translate(72.852 108.859)">
            <path id="Path_6737" data-name="Path 6737" d="M5115.728,4149.355l11.961-27.069-15.493-12.494-12.753,34.943s-3.1,6.673,9.057,15.256l24,23.346,7.462-3.571S5123.754,4157.225,5115.728,4149.355Z" transform="translate(-5099.088 -4109.792)" fill="#003250"/>
            <path id="Path_6738" data-name="Path 6738" d="M5127.634,4163.1l1.977,2.441-18.034,10.316-.523,2.228,31.684-4.454-4.529-10.531-3.112-3.57Z" transform="translate(-5094.22 -4089.557)" fill="#f89876"/>
            <path id="Path_6739" data-name="Path 6739" d="M5123.34,4163.624l1.271,1.57,8.6-2.441-2.06-2.364Z" transform="translate(-5089.222 -4089.208)" fill="#fff"/>
            <path id="Path_6740" data-name="Path 6740" d="M5111.576,4174.827l-.523,2.227,31.684-4.454-4.529-10.531-8.6,2.441Z" transform="translate(-5094.22 -4088.524)" fill="#0d193c"/>
            <path id="Path_6741" data-name="Path 6741" d="M5142.736,4170.306l-1.117-2.6-30.043,4.824-.523,2.227Z" transform="translate(-5094.22 -4086.23)" fill="#4bbab8"/>
          </g>
          <path id="Path_6742" data-name="Path 6742" d="M5108.142,4111.914l9.2,25.342,6.662-15.075-15.042-12.13Z" transform="translate(-5022.553 -4000.828)" fill="#0d193c"/>
          <path id="Path_6743" data-name="Path 6743" d="M5055.389,4057.7s-.78-1.912,0-6.771c0,0-1.3-10.414,1.477-6.941v-2.171s-2.257-3.818-.912-5.9l.912.954a4.317,4.317,0,0,1,0-2.952,18.828,18.828,0,0,1,1.648,3.3l.606,3.992.262,4.6s.609,8.417,1.218,9.72c0,0,15.881,9.025,20.479,10.153l.87,7.639Z" transform="translate(-5044.156 -4031.801)" fill="#ed7d60"/>
          <path id="Path_6744" data-name="Path 6744" d="M5081.031,4067.071l-.87-7.639c-4.6-1.128-20.48-10.153-20.48-10.153l-2.382,3.832Z" transform="translate(-5043.237 -4025.551)" fill="#fff"/>
          <path id="Path_6745" data-name="Path 6745" d="M5058.8,4054.08l22.172,13.057-.446-7.576c-3.682-.9-15.556-7.262-19.767-9.607Z" transform="translate(-5042.626 -4025.277)" fill="#fc9018"/>
          <g id="Group_4093" data-name="Group 4093" transform="translate(37.221 22.244)">
            <path id="Path_6746" data-name="Path 6746" d="M5085.212,4069.128a19.983,19.983,0,0,1,9.065,2.688l4.325-4.858-5.769-5.935-7.164,2.1Z" transform="translate(-5069.103 -4043.018)" fill="#ed7d60"/>
            <path id="Path_6747" data-name="Path 6747" d="M5095.175,4063.988l-1.443-1.815-6.079,6.378,1.251,2.026,5.8-3.4Z" transform="translate(-5068.109 -4042.55)" fill="#fff"/>
            <g id="Group_4092" data-name="Group 4092">
              <path id="Path_6748" data-name="Path 6748" d="M5098.976,4061.988s-2.636-18.226-17.6-12.732c0,0-14.333,3.976-3.677,25.786l2.634-1.3s3.545,5.741,6.574,4.085l11.249-10.9Z" transform="translate(-5073.761 -4048.224)" fill="#f89876"/>
              <path id="Path_6749" data-name="Path 6749" d="M5094.119,4057.324l-7.723-6.3-11.725,3.6c-1.287,3.313-1.49,8.2,1.3,15.353Z" transform="translate(-5073.761 -4047.085)" fill="#ed7d60"/>
              <path id="Path_6750" data-name="Path 6750" d="M5098.975,4061.988s-2.636-18.226-17.6-12.732c0,0-9.772,2.711-7.177,15.941.011.005,1.636,1.058,6.693-1.047,0,0,3,.616,4.986,4.454l1.805-1.09s-2.3-5.571.032-7.365l3.012.646s1.98,4.7,5.458,4.854l2.282-.6Z" transform="translate(-5073.761 -4048.224)" fill="#003250"/>
              <path id="Path_6751" data-name="Path 6751" d="M5085.85,4068.2l1.805-1.09s-2.3-5.571.032-7.365l3.012.646s1.98,4.7,5.458,4.854l2.282-.6.5-3.062s-1.294-8.887-7.171-12.375c-4.828,9.952-14.127,12.636-17.936,13.33.072.715.177,1.465.333,2.254.011.005,1.636,1.058,6.693-1.047C5080.864,4063.749,5083.869,4064.365,5085.85,4068.2Z" transform="translate(-5073.73 -4047.823)" fill="#0d193c"/>
              <path id="Path_6752" data-name="Path 6752" d="M5087.5,4058.406c.841,2.058.479,4.155-.811,4.68s-3.017-.713-3.855-2.77-.481-4.157.807-4.684S5086.654,4056.344,5087.5,4058.406Z" transform="translate(-5070.256 -4045.26)" fill="#f89876"/>
            </g>
          </g>
          <path id="Path_6753" data-name="Path 6753" d="M5084.064,4078.5l64.616,99.9,35.757,27.416,7.866-4.768-29.559-29.561-24.561-57.452-32.772-45.531-8.776-5.039Z" transform="translate(-5032.348 -4019.781)" fill="#003250"/>
          <path id="Path_6754" data-name="Path 6754" d="M5096.636,4063.463l-12.572,15.035,33.873,52.369h0a35.957,35.957,0,0,0,20.249-16.835l-32.772-45.531Z" transform="translate(-5032.349 -4019.781)" fill="#ffc33b"/>
          <path id="Path_6755" data-name="Path 6755" d="M5095.21,4078.448a11.456,11.456,0,0,0-6.373-8.356l-4.773,5.709,2.777,4.295A21.491,21.491,0,0,0,5095.21,4078.448Z" transform="translate(-5032.349 -4017.084)" fill="#fc9018"/>
          <path id="Path_6756" data-name="Path 6756" d="M5053.862,4055.025s25.515,10.053,27.576,15.723c0,0,16.753,7.215,26.032,7.215,0,0,10.05,1.031,6.7,12.886,0,0-2.578,7.734-18.042-1.287L5075,4078.221s-20.618-14.946-25.516-21.132c0,0-3.612-3.291-1.53-12.4,0,0,0-9.113,1.563-7.985,0,0-.693-4.288,1.128-4.288a42.54,42.54,0,0,1,2.343,5.243l.173,3.385a18.736,18.736,0,0,1,1.13,4.947S5054.479,4052.176,5053.862,4055.025Z" transform="translate(-5047.304 -4032.413)" fill="#f89876"/>
          <path id="Path_6757" data-name="Path 6757" d="M5113.095,4084.311c3.35-11.855-6.7-12.886-6.7-12.886-9.278,0-26.031-7.215-26.031-7.215-2.062-5.67-27.576-15.723-27.576-15.723l-2.838,3.787c6.662,6.858,23.972,19.409,23.972,19.409l21.134,11.341C5110.518,4092.044,5113.095,4084.311,5113.095,4084.311Z" transform="translate(-5046.228 -4025.874)" fill="#fff"/>
          <path id="Path_6758" data-name="Path 6758" d="M5051.143,4053.732c7.5,7.037,22.291,17.766,22.291,17.766l21.133,11.341c15.464,9.021,18.042,1.287,18.042,1.287,3.349-11.855-6.7-12.886-6.7-12.886-9.279,0-26.032-7.215-26.032-7.215-1.752-4.817-20.43-12.8-26.005-15.086Z" transform="translate(-5045.742 -4025.69)" fill="#ffc33b"/>
          <path id="Path_6759" data-name="Path 6759" d="M5160.03,4166.026l2.13,2.068-17.783,9.549-.317,2.068,30.624-2.068,1.561-8.034-8.348-8.35Z" transform="translate(-5007.94 -3979.995)" fill="#f89876"/>
          <path id="Path_6760" data-name="Path 6760" d="M5156.006,4166.582l1.294,1.258,10.5-2.068-3.888-3.888Z" transform="translate(-5003.081 -3979.74)" fill="#fff"/>
          <path id="Path_6761" data-name="Path 6761" d="M5172.663,4164.647l-10.5,2.068-17.783,9.549-.317,2.068,30.624-2.068,1.561-8.034Z" transform="translate(-5007.94 -3978.616)" fill="#0d193c"/>
          <path id="Path_6762" data-name="Path 6762" d="M5174.684,4173.653l.5-2.586v0l-30.808,2.589-.317,2.068Z" transform="translate(-5007.94 -3976.006)" fill="#4bbab8"/>
        </g>
      </g>
      <g id="Group_4103" data-name="Group 4103" transform="translate(104.107)">
        <path id="Path_6763" data-name="Path 6763" d="M5020.355,4212.859c0,5.763-36.922,10.434-82.466,10.434s-82.461-4.671-82.461-10.434,36.919-10.433,82.461-10.433S5020.355,4207.1,5020.355,4212.859Z" transform="translate(-4855.429 -3913.317)" fill="#9ed9e5"/>
        <g id="Group_4102" data-name="Group 4102" transform="translate(18.183)">
          <rect id="Rectangle_161" data-name="Rectangle 161" width="79.356" height="4.207" transform="translate(20.545 246.676)" fill="#fc9018"/>
          <path id="Path_6764" data-name="Path 6764" d="M4940.228,4172.264h-6.3l1.96,4.208h5.688v-1.315Z" transform="translate(-4841.675 -3925.588)" fill="#0d193c"/>
          <rect id="Rectangle_162" data-name="Rectangle 162" width="39.067" height="4.207" transform="translate(25.761 169.936)" fill="#0d193c"/>
          <g id="Group_4096" data-name="Group 4096" transform="translate(4.058 135.526)">
            <path id="Path_6765" data-name="Path 6765" d="M4918.768,4096.835l-1.988,7.694-39.622,152.745h-5.92l41.736-160.882.258-.986a2.878,2.878,0,0,1,3.489-2.061,2.926,2.926,0,0,1,1.79,1.387c.071.144.142.3.2.459A2.925,2.925,0,0,1,4918.768,4096.835Z" transform="translate(-4871.238 -4093.257)" fill="#ffc33b"/>
          </g>
          <path id="Path_6766" data-name="Path 6766" d="M4904.019,4095.134c-.058-.156-.129-.315-.2-.459l-.6-1.279a2.864,2.864,0,0,0-1.757,1.953l-.258.986-1.043,4.019,1.926,4.118,1.876,4.032,1.046-4.032,1.2-4.64Z" transform="translate(-4855.412 -3957.674)" fill="#fc9018"/>
          <rect id="Rectangle_163" data-name="Rectangle 163" width="25.351" height="2.812" transform="translate(59.155 182.398)" fill="#0d193c"/>
          <rect id="Rectangle_164" data-name="Rectangle 164" width="25.351" height="2.812" transform="translate(67.485 200.724)" fill="#0d193c"/>
          <rect id="Rectangle_165" data-name="Rectangle 165" width="25.351" height="2.812" transform="translate(75.816 219.05)" fill="#0d193c"/>
          <rect id="Rectangle_166" data-name="Rectangle 166" width="25.351" height="2.812" transform="translate(84.147 237.375)" fill="#0d193c"/>
          <rect id="Rectangle_167" data-name="Rectangle 167" width="25.353" height="2.814" transform="translate(92.476 255.701)" fill="#0d193c"/>
          <rect id="Rectangle_168" data-name="Rectangle 168" width="25.353" height="2.814" transform="translate(100.806 274.027)" fill="#0d193c"/>
          <path id="Path_6767" data-name="Path 6767" d="M4932.6,4023.817c.233-1.553-1.162-5.79-3.381-4.958-.647.243-.761.841-.749,1.474a6.183,6.183,0,0,0,1.725,4.029C4931.154,4025.191,4932.4,4025.2,4932.6,4023.817Z" transform="translate(-4843.895 -3988.042)" fill="#ed7d60"/>
          <path id="Path_6768" data-name="Path 6768" d="M4941.54,4023.817c-.234-1.553,1.164-5.79,3.381-4.958.647.243.762.841.751,1.474a6.212,6.212,0,0,1-1.724,4.029C4942.989,4025.191,4941.749,4025.2,4941.54,4023.817Z" transform="translate(-4838.589 -3988.042)" fill="#ed7d60"/>
          <path id="Path_6769" data-name="Path 6769" d="M4950.955,4019.214a11.214,11.214,0,1,0-20.765,5.854h-.008a28.722,28.722,0,0,1,3.433,11.146h11.316a82.448,82.448,0,0,1,4.37-11.146h-.009A11.132,11.132,0,0,0,4950.955,4019.214Z" transform="translate(-4843.873 -3992.415)" fill="#f89876"/>
          <path id="Path_6770" data-name="Path 6770" d="M4972.661,4034.88s.924-4.33,1.378-5.6a13.415,13.415,0,0,1,4.339-4.208l1.135,4.056S4975.841,4035.256,4972.661,4034.88Z" transform="translate(-4825.917 -3985.469)" fill="#f89876"/>
          <g id="Group_4098" data-name="Group 4098" transform="translate(151.746 5.185)">
            <g id="Group_4097" data-name="Group 4097">
              <path id="Path_6771" data-name="Path 6771" d="M4977.648,4050.283h-1.431V4023.8l24.818-14.875v-6.889h-24.1v-1.431h25.535v9.13l-24.818,14.875Z" transform="translate(-4976.217 -4000.608)" fill="#ffc33b"/>
            </g>
          </g>
          <g id="Group_4099" data-name="Group 4099" transform="translate(150.317 33.833)">
            <path id="Path_6772" data-name="Path 6772" d="M4977.345,4042a2.143,2.143,0,0,1-2.144-2.146v-16.741a2.145,2.145,0,1,1,4.289,0v16.741A2.146,2.146,0,0,1,4977.345,4042Z" transform="translate(-4975.201 -4020.971)" fill="#fc9018"/>
          </g>
          <path id="Path_6773" data-name="Path 6773" d="M4911.565,4049.057s2.953,7.573,13.427,9.2C4924.992,4058.26,4924.025,4043.549,4911.565,4049.057Z" transform="translate(-4850.773 -3976.214)" fill="#003250"/>
          <path id="Path_6774" data-name="Path 6774" d="M4955.649,4072.085s-4.53,92.182-6.2,108.5h-9.291l-9.772-110.007S4944.206,4060.168,4955.649,4072.085Z" transform="translate(-4843.116 -3968.669)" fill="#003250"/>
          <path id="Path_6775" data-name="Path 6775" d="M4931.445,4081.763l1.517,17.256a65.5,65.5,0,0,0,14.813-18.431Z" transform="translate(-4842.686 -3962.884)" fill="#0d193c"/>
          <path id="Path_6776" data-name="Path 6776" d="M4923.817,4030.03l10.488-3.575s11.408-1.92,16.688,0l14.3,6.913s.714,11.919,3.1,19.786l-9.3,35.517-31.943-1.9-5.245-36.952Z" transform="translate(-4846.564 -3985.255)" fill="#ffc33b"/>
          <path id="Path_6777" data-name="Path 6777" d="M4929.08,4039.617l-7.01,2.828-.16,1.668,3.035,21.388C4930.854,4053.991,4929.08,4039.617,4929.08,4039.617Z" transform="translate(-4846.564 -3979.553)" fill="#fc9018"/>
          <path id="Path_6778" data-name="Path 6778" d="M4966.407,4070.982s2.938,20.761-41.654,27.753l8.011,44.1h-9.407l-19.411-52.615,30.3-14.9.214-6.235Z" transform="translate(-4853.873 -3967.566)" fill="#003250"/>
          <path id="Path_6779" data-name="Path 6779" d="M4922.395,4121.5l-16.087,4.581v2.552h26.042l-.547-7.132Z" transform="translate(-4852.912 -3946.238)" fill="#0d193c"/>
          <path id="Path_6780" data-name="Path 6780" d="M4932.349,4127.312l-.2-2.552h-25.846v2.552Z" transform="translate(-4852.912 -3944.914)" fill="#fff"/>
          <path id="Path_6781" data-name="Path 6781" d="M4942.02,4147.557l-16.2,4.582v2.551h26.044l-.549-7.132Z" transform="translate(-4844.976 -3935.639)" fill="#0d193c"/>
          <path id="Path_6782" data-name="Path 6782" d="M4951.859,4153.365l-.2-2.551h-25.848v2.551Z" transform="translate(-4844.976 -3934.314)" fill="#fff"/>
          <path id="Path_6783" data-name="Path 6783" d="M4936.889,4028.749s6.028,6.1,2.185,21.129l-10.4,23.118-20.507,30.295H4889.78s6.1-7.176,15.768-6.443C4905.547,4096.848,4929.412,4034.145,4936.889,4028.749Z" transform="translate(-4859.636 -3983.974)" fill="#f89876"/>
          <path id="Path_6784" data-name="Path 6784" d="M4911.565,4056.817s9.969-.961,13.427,9.2c0,0,16.889-26.9,3.035-37.271C4928.026,4028.749,4920.742,4030.835,4911.565,4056.817Z" transform="translate(-4850.773 -3983.974)" fill="#ffc33b"/>
          <path id="Path_6785" data-name="Path 6785" d="M4960.929,4039.807l8.335,1.376,8.891-6.124s3.021-7.164,7.862-10.423c0,0,4.147,2.323,1.727,10.609l-6.053,3.725-9.952,11.916s-12.671.466-12.578.744S4960.929,4039.807,4960.929,4039.807Z" transform="translate(-4831.41 -3985.647)" fill="#f89876"/>
          <path id="Path_6786" data-name="Path 6786" d="M4953.366,4031.122l13.111,5.722s3.8,9.124-.731,13.891l-9.282.173S4947.168,4040.656,4953.366,4031.122Z" transform="translate(-4834.634 -3983.008)" fill="#ffc33b"/>
          <path id="Path_6787" data-name="Path 6787" d="M4962.982,4056.211c-11.26,11.073-30.638,13.579-37.746,14.132l.565,3.972,31.943,1.9Z" transform="translate(-4845.211 -3972.802)" fill="#fc9018"/>
          <path id="Path_6788" data-name="Path 6788" d="M4966.265,4042.573a35.667,35.667,0,0,1-10.034-1.768c-.529,1.943-1.278,6.162-1.278,6.162l9.282-.173A8.066,8.066,0,0,0,4966.265,4042.573Z" transform="translate(-4833.122 -3979.069)" fill="#fc9018"/>
          <path id="Path_6789" data-name="Path 6789" d="M5001.384,4005.475a2.928,2.928,0,0,1-2.927,2.928h-32.4a2.927,2.927,0,0,1-2.927-2.928v-5.307a4.285,4.285,0,0,1,1.849-3.247h32.4c2.693.319,4,1.63,4,3.247Z" transform="translate(-4829.795 -3996.922)" fill="#dbf0ef"/>
          <path id="Path_6790" data-name="Path 6790" d="M4998.457,4003.088h-32.4a2.927,2.927,0,0,1-2.927-2.928v4a2.927,2.927,0,0,0,2.927,2.928h32.4a2.928,2.928,0,0,0,2.927-2.928v-4A2.928,2.928,0,0,1,4998.457,4003.088Z" transform="translate(-4829.795 -3995.604)" fill="#92bcba"/>
          <path id="Path_6791" data-name="Path 6791" d="M4949.293,4025.068a11.214,11.214,0,1,0-19.1,0h-.008s.327.536.778,1.5a26.344,26.344,0,0,1,3.331,3.864h10.677c1.04-.907,3.528-3.738,3.531-3.742.266-.579.534-1.125.8-1.618Z" transform="translate(-4843.873 -3992.415)" fill="#003250"/>
          <path id="Path_6792" data-name="Path 6792" d="M4948.5,4011.008a39.365,39.365,0,0,1-.987,4.018,10.644,10.644,0,0,1-3.321,3.973,13.914,13.914,0,0,1-9.391,2.134,12.4,12.4,0,0,1-6.244-2.656,11.1,11.1,0,0,0,1.626,5.367h-.008s.327.536.778,1.5a26.344,26.344,0,0,1,3.331,3.864h10.677c1.04-.907,3.528-3.738,3.531-3.742.266-.579.534-1.125.8-1.618h-.009a11.164,11.164,0,0,0-.785-12.836Z" transform="translate(-4843.862 -3991.191)" fill="#0d193c"/>
          <g id="Group_4100" data-name="Group 4100" transform="translate(24.355 124.057)">
            <path id="Path_6793" data-name="Path 6793" d="M4988.4,4260.59H4982.1l-71.186-152.744-3.806-8.138-4.133-8.884h-14.446a2.86,2.86,0,1,1,0-5.72h16.263a2.835,2.835,0,0,1,2.589,1.658l5.264,11.285a5.008,5.008,0,0,1,.2.459Z" transform="translate(-4885.665 -4085.104)" fill="#ffc33b"/>
          </g>
          <g id="Group_4101" data-name="Group 4101" transform="translate(19.228 119.318)">
            <path id="Path_6794" data-name="Path 6794" d="M4887.957,4081.735l-5.937,5.937v4.526h28.743l-4.877-10.463Z" transform="translate(-4882.021 -4081.735)" fill="#003250"/>
          </g>
          <path id="Path_6795" data-name="Path 6795" d="M4910.763,4090.481l-2.11-4.526h-26.633v4.526Z" transform="translate(-4862.792 -3960.701)" fill="#0d193c"/>
          <path id="Path_6796" data-name="Path 6796" d="M4904.268,4089.173h-6.3l2.1,4.527h6.3Z" transform="translate(-4856.305 -3959.392)" fill="#fc9018"/>
          <rect id="Rectangle_169" data-name="Rectangle 169" width="14.528" height="2.812" transform="translate(0 296.731)" fill="#003250"/>
          <rect id="Rectangle_170" data-name="Rectangle 170" width="14.526" height="2.812" transform="translate(115.978 296.731)" fill="#003250"/>
          <path id="Path_6797" data-name="Path 6797" d="M4960.516,4209.838l-3.214-6.895h-6.308l3.213,6.895Z" transform="translate(-4834.731 -3913.107)" fill="#4bbab8"/>
          <path id="Path_6798" data-name="Path 6798" d="M4877.678,4209.838l1.788-6.895h-5.92l-1.789,6.895Z" transform="translate(-4866.968 -3913.107)" fill="#4bbab8"/>
        </g>
      </g>
      <g id="Group_4109" data-name="Group 4109" transform="translate(0 76.826)">
        <path id="Path_6799" data-name="Path 6799" d="M4866.5,4174.387c0,5.761-19.045,10.433-42.538,10.433s-42.539-4.672-42.539-10.433,19.044-10.434,42.539-10.434S4866.5,4168.625,4866.5,4174.387Z" transform="translate(-4781.427 -4005.795)" fill="#9ed9e5"/>
        <g id="Group_4108" data-name="Group 4108" transform="translate(2.745)">
          <rect id="Rectangle_171" data-name="Rectangle 171" width="13.545" height="8.845" transform="translate(89.591 27.13)" fill="#0d193c"/>
          <path id="Path_6800" data-name="Path 6800" d="M4848.269,4093.119s.405-4.412.71-5.724a13.389,13.389,0,0,1,3.81-4.689l1.608,3.892S4851.474,4093.115,4848.269,4093.119Z" transform="translate(-4756.978 -4038.849)" fill="#f89876"/>
          <g id="Group_4104" data-name="Group 4104" transform="translate(94.666 39.123)">
            <path id="Path_6801" data-name="Path 6801" d="M4852.393,4095.774a1.674,1.674,0,0,1-1.682-1.671l-.043-13.081a1.677,1.677,0,0,1,3.354-.01l.043,13.078A1.678,1.678,0,0,1,4852.393,4095.774Z" transform="translate(-4850.668 -4079.341)" fill="#fc9018"/>
          </g>
          <path id="Path_6802" data-name="Path 6802" d="M4854.021,4081.012a1.677,1.677,0,0,0-3.354.01l.007,1.919h3.353Z" transform="translate(-4756.002 -4040.218)" fill="#a76519"/>
          <path id="Path_6803" data-name="Path 6803" d="M4855.715,4081.953c-4.424,3.81-6.734,11.473-6.734,11.473l-2.461,2.165c3.026.049,4.363,2.687,4.007,5.028l2.429-3.729,5.569-4.415C4859.951,4083.962,4855.715,4081.953,4855.715,4081.953Z" transform="translate(-4757.689 -4039.156)" fill="#f89876"/>
          <path id="Path_6804" data-name="Path 6804" d="M4846.876,4091.5l1.325-1.654s2.638.369,5.007,4.581l-1.982,1.858Z" transform="translate(-4757.545 -4035.944)" fill="#fff"/>
          <path id="Path_6805" data-name="Path 6805" d="M4783.378,4095.669a221.347,221.347,0,0,0,20.752,44.751l4.575,53.7,24.424-.7v-3.293l-18.027-3.976,3.027-49.983-19.008-37.375Z" transform="translate(-4783.378 -4033.575)" fill="#005ba8"/>
          <path id="Path_6806" data-name="Path 6806" d="M4826,4163.963l-18.028-3.975H4800.9l.681,7.969,24.424-.7Z" transform="translate(-4776.25 -4007.408)" fill="#0d193c"/>
          <path id="Path_6807" data-name="Path 6807" d="M4825.847,4163.953l-24.568.7.144,1.687,24.424-.7Z" transform="translate(-4776.095 -4005.795)" fill="#ffc33b"/>
          <path id="Path_6808" data-name="Path 6808" d="M4795.721,4108.739a250.919,250.919,0,0,0,16.829,31.332l.559-9.216-5.909-11.619Z" transform="translate(-4778.357 -4028.258)" fill="#0d193c"/>
          <g id="Group_4107" data-name="Group 4107" transform="translate(52.999)">
            <path id="Path_6809" data-name="Path 6809" d="M4834.713,4072.861a20.376,20.376,0,0,0-9.249,2.744l-4.414-4.958,5.883-6.056,7.312,2.141Z" transform="translate(-4821.051 -4046.219)" fill="#ed7d60"/>
            <g id="Group_4106" data-name="Group 4106" transform="translate(4.374)">
              <path id="Path_6810" data-name="Path 6810" d="M4824.16,4065.577s2.688-18.6,17.952-12.992c0,0,14.625,4.056,3.752,26.31l-2.686-1.326s-3.62,5.859-6.709,4.169l-11.477-11.117Z" transform="translate(-4824.16 -4051.532)" fill="#f89876"/>
              <path id="Path_6811" data-name="Path 6811" d="M4827.679,4060.817l7.883-6.428,11.961,3.673c1.313,3.38,1.522,8.368-1.326,15.665Z" transform="translate(-4822.728 -4050.369)" fill="#ed7d60"/>
              <path id="Path_6812" data-name="Path 6812" d="M4824.16,4065.577s2.688-18.6,17.952-12.992c0,0,9.973,2.767,7.324,16.264-.013.007-1.672,1.08-6.832-1.066,0,0-3.065.629-5.086,4.544l-1.839-1.111s2.339-5.685-.035-7.517l-3.073.66s-2.021,4.8-5.569,4.952l-2.327-.61Z" transform="translate(-4824.16 -4051.532)" fill="#003250"/>
              <g id="Group_4105" data-name="Group 4105" transform="translate(0 5.757)">
                <path id="Path_6813" data-name="Path 6813" d="M4832.783,4061.358c1.541,2.195-.435,7.009-.435,7.009l1.839,1.111c2.021-3.915,5.086-4.544,5.086-4.544,5.16,2.146,6.819,1.073,6.832,1.066a18.938,18.938,0,0,0,.121-7.469c-1.772.726-3.475,1.553-5.294,2.1A22.635,22.635,0,0,1,4832.783,4061.358Z" transform="translate(-4820.83 -4054.441)" fill="#0d193c"/>
                <path id="Path_6814" data-name="Path 6814" d="M4832.571,4062.693l1.819-.39a10.683,10.683,0,0,1-4.426-1.751,7.929,7.929,0,0,1-2.744-4.928,24.3,24.3,0,0,0-3.061,8.288l.515,3.124,2.327.61C4830.55,4067.489,4832.571,4062.693,4832.571,4062.693Z" transform="translate(-4824.16 -4055.624)" fill="#0d193c"/>
              </g>
              <path id="Path_6815" data-name="Path 6815" d="M4830.077,4061.92c-.859,2.1-.491,4.237.826,4.776s3.077-.73,3.935-2.829.489-4.24-.826-4.778S4830.936,4059.819,4830.077,4061.92Z" transform="translate(-4821.942 -4048.507)" fill="#f89876"/>
            </g>
          </g>
          <path id="Path_6816" data-name="Path 6816" d="M4819.464,4068.379l4.429-2.4,8.792,9.062-2.1,1.627Z" transform="translate(-4768.697 -4045.655)" fill="#fff"/>
          <path id="Path_6817" data-name="Path 6817" d="M4790.088,4097.63s5.684,17.339,30.987,46.907l1.68,61.061h27.139v-2.97l-19.495-5.021,8.019-57.332-21.039-41.047Z" transform="translate(-4780.648 -4032.777)" fill="#005ba8"/>
          <path id="Path_6818" data-name="Path 6818" d="M4783.378,4107.054s9.44-29.326,50.767-39.369c0,0,10.39,3.481,15.895,11.308,0,0-6.251,10.479-24.555,24.669l-3.672,11.07S4790.885,4122.258,4783.378,4107.054Z" transform="translate(-4783.378 -4044.96)" fill="#29328a"/>
          <path id="Path_6819" data-name="Path 6819" d="M4821.813,4109.381l3.672-11.07a144.059,144.059,0,0,0,16.876-15.168l-2.117-2.309-17.525,13.994a13.784,13.784,0,0,1-6.013-4.526,14.722,14.722,0,0,0,4.763,8.009l-3.34,8.477s-24.213,4.316-34.752-5.083C4790.885,4116.908,4821.813,4109.381,4821.813,4109.381Z" transform="translate(-4783.378 -4039.61)" fill="#1f2374"/>
          <path id="Path_6820" data-name="Path 6820" d="M4833.648,4075.768s11.715,17.162,16.91,26.152l5.895-5.6s3.5.8,5.094,5.6l-10.389,10.091s-3.892,3.722-13.937-8.181l-13.434-16.291S4821.834,4073.993,4833.648,4075.768Z" transform="translate(-4766.988 -4041.736)" fill="#29328a"/>
          <path id="Path_6821" data-name="Path 6821" d="M4840.511,4173.716l-19.494-5.021h-7.865l.221,7.991h27.139Z" transform="translate(-4771.265 -4003.865)" fill="#0d193c"/>
          <path id="Path_6822" data-name="Path 6822" d="M4813.333,4175.233h27.139v-2.97H4813.25Z" transform="translate(-4771.225 -4002.414)" fill="#ffc33b"/>
          <rect id="Rectangle_172" data-name="Rectangle 172" width="14.042" height="6.748" transform="translate(89.343 34.476)" fill="#fc9018"/>
          <path id="Path_6823" data-name="Path 6823" d="M4860.926,4078.355l-14.042.954V4077.4h14.042Z" transform="translate(-4757.542 -4041.009)" fill="#a76519"/>
          <path id="Path_6824" data-name="Path 6824" d="M4847.061,4073.562a3.347,3.347,0,0,0,.647.173,2.009,2.009,0,0,1,1.318.547c.319.386.266.9.512,1.313.844,1.441,1.371-.315,1.753-.954a2.121,2.121,0,0,1,2.512-.71c.8.452.1,1.828.844,2.358,1.048.747,1.339-1.473,1.453-2.071.145-.75.607-1.936,1.648-1.692.98.229.755,1.705,1.013,2.431.126.358.37.968.817.607.292-.235.18-1.061.226-1.405a1.971,1.971,0,0,1,.468-1.224,1.214,1.214,0,0,1,.334-.242v-1.876h-13.545Z" transform="translate(-4757.47 -4043.686)" fill="#dbf0ef"/>
        </g>
      </g>
      <g id="Group_4125" data-name="Group 4125" transform="translate(270.03 133.04)">
        <path id="Path_6825" data-name="Path 6825" d="M5058.447,4227.448c0,5.763-19.044,10.432-42.54,10.432s-42.538-4.669-42.538-10.432,19.046-10.434,42.538-10.434S5058.447,4221.686,5058.447,4227.448Z" transform="translate(-4973.369 -4040.422)" fill="#9ed9e5"/>
        <g id="Group_4114" data-name="Group 4114" transform="translate(13.579)">
          <g id="Group_4111" data-name="Group 4111" transform="translate(0 16.992)">
            <path id="Path_6826" data-name="Path 6826" d="M5018.125,4150.936s4.226,13.493-4.776,50.837l1.207,43.068h-5.229s-9.748-21.32-8.608-41.158c0,0-7.418-30.987-3.884-49.684C4996.834,4154,5006.506,4144.913,5018.125,4150.936Z" transform="translate(-4977.791 -4085.136)" fill="#005ba8"/>
            <path id="Path_6827" data-name="Path 6827" d="M4995.881,4164.969c.2,8.518,2.5,15.893,6.024,21.142,1.808-8.371.461-19.541,1.673-35.477l-.53-.789a21.387,21.387,0,0,0-6.214,3.759c-.117.618-.214,1.227-.308,1.839A68.943,68.943,0,0,0,4995.881,4164.969Z" transform="translate(-4977.79 -4084.74)" fill="#0d193c"/>
            <path id="Path_6828" data-name="Path 6828" d="M4986.681,4142.934s-9.773,20.057,2.622,57.723c0,0-5.482,8.346,0,49.584h4.768l6.674-48.867s6.709-29.286,8.241-49.447Z" transform="translate(-4983.021 -4087.552)" fill="#005ba8"/>
            <path id="Path_6829" data-name="Path 6829" d="M5029.92,4113.7s4.708,4.257-4.946,31.255l-1.609,28.8,1.609,5.565-1.609,6.381a5.25,5.25,0,0,1-1-5.7s-4.917,2.75-6.39-.523l2.127-6.707-2.867-26.179,5.485-27.162S5022.1,4113.7,5029.92,4113.7Z" transform="translate(-4969.916 -4099.443)" fill="#ed7d60"/>
            <g id="Group_4110" data-name="Group 4110" transform="translate(14.033 73.157)">
              <path id="Path_6830" data-name="Path 6830" d="M5032.788,4186.374l-2.769-.72c2.642-10.146,2-17.611-1.906-22.19-4.918-5.761-13.5-5-13.59-4.99-17.383.608-18.657,24.9-18.67,25.146l-2.857-.126c.013-.27,1.433-27.177,21.34-27.871.324-.039,10.079-.9,15.953,5.983C5034.839,4166.938,5035.679,4175.269,5032.788,4186.374Z" transform="translate(-4992.996 -4155.569)" fill="#ffc33b"/>
            </g>
            <path id="Path_6831" data-name="Path 6831" d="M5010.05,4155.923l-2.562.765-3.5-.765a6.78,6.78,0,0,1,0,3.463l.019.009a2.127,2.127,0,0,0,.059.765c.353,1.334,1.528,1.36,2.7,1.357a11.2,11.2,0,0,1,3.552.447,3.227,3.227,0,0,0,3.122-.483,4.829,4.829,0,0,0,.912-1.1l1.765-2.5Z" transform="translate(-4974.492 -4082.268)" fill="#ed7d60"/>
            <path id="Path_6832" data-name="Path 6832" d="M4983.59,4142.934" transform="translate(-4982.79 -4087.552)" fill="#fff"/>
            <path id="Path_6833" data-name="Path 6833" d="M5007.742,4109.03s14.432-16.92,35.053,8.8c0,0-1.031,6.871-7.324,17.015,0,0-3.475,7.36-10.2,7.69,0,0-4.271,18.162-2.144,26.834,0,0-22.782,13.527-39.535-10.417,0,0,8.938-13.546,12.209-24.715C4995.8,4134.235,4998.583,4118.56,5007.742,4109.03Z" transform="translate(-4982.79 -4103.567)" fill="#f89876"/>
            <path id="Path_6834" data-name="Path 6834" d="M5021.809,4162.314c-.467-.265-.907.159-1.286.318.451-1.136-.238-3.276-1.763-2.883l-.17.056a.962.962,0,0,0-1.131-1.359c-.678.2-1.078.87-1.434,1.416a2.621,2.621,0,0,0-.679,2.1,1.66,1.66,0,0,0,1.647,1.254,1.909,1.909,0,0,0,.59,1.621c.4.331.884.511,1.282.078a2.242,2.242,0,0,0,.278,2.611c.856.749,1.361.029,1.872-.649a6.143,6.143,0,0,0,1.159-2.027C5022.353,4164.208,5022.562,4162.737,5021.809,4162.314Z" transform="translate(-4969.894 -4081.259)" fill="#ed7d60"/>
            <path id="Path_6835" data-name="Path 6835" d="M5023.036,4161.019l-1.6,6.393a5.238,5.238,0,0,1-1-5.707s.188-3.073-.356-2.857c.229-.843.14,1.613.855,1.17a5.024,5.024,0,0,1,1.588-.757h.015Z" transform="translate(-4967.979 -4081.149)" fill="#ed7d60"/>
            <path id="Path_6836" data-name="Path 6836" d="M5035.471,4134.841a70.451,70.451,0,0,0,3.592-6.516c.025-.2.039-.391.069-.588a57.871,57.871,0,0,0,.386-7.926c.015-1.8.243-3.561.393-5.335-.562-.609-1.116-1.193-1.666-1.741,0,.456.013.91.013,1.366,0,4.01.419,8.562-1.165,12.3-1.133,2.676-2.76,5.907-6,6.1-1.583.094-3.4.091-4.572-1.059a5.918,5.918,0,0,1-1.607-5.141,103.642,103.642,0,0,0,1.314-10.872c.153-3.207.8-8.369-1.53-10.805a7.792,7.792,0,0,0-.731-.649,17.3,17.3,0,0,0-5.445-.321c.091.023.188.051.268.074,3.014.791,5.081,3.584,4.161,6.678a32,32,0,0,1-4.841,9.189c-2.272,3.135-5.225,6.422-9.395,5.369-3.783-.952-4.66-4.759-5.132-8.086a14.676,14.676,0,0,1-.123-2.322,61.715,61.715,0,0,0-7.655,19.672c-3.271,11.168-12.209,24.715-12.209,24.715,16.753,23.944,39.535,10.417,39.535,10.417-2.127-8.672,2.144-26.834,2.144-26.834C5032,4142.2,5035.471,4134.841,5035.471,4134.841Z" transform="translate(-4982.79 -4103.565)" fill="#29328a"/>
            <path id="Path_6837" data-name="Path 6837" d="M5023.125,4160.132c-2.122-8.655,2.124-26.752,2.144-26.83-1.37-1.035-3.02-1.721-4.418-2.794a20.735,20.735,0,0,1-2.748-2.143,9.493,9.493,0,0,0-2.308-2.1c-.419,1.631.051,3.465-.176,5.177-.209,1.6-1.379,2.8-2.341,4.035-2.044,2.628-2.386,5.556-3.487,8.724-1.478,4.251-5.688,11.057-10.938,10.831-4.834-.211-10.105-4.489-13.409-8.277-1.113,1.833-1.854,2.958-1.854,2.958C5000.343,4173.659,5023.125,4160.132,5023.125,4160.132Z" transform="translate(-4982.79 -4094.333)" fill="#1f2374"/>
            <path id="Path_6838" data-name="Path 6838" d="M5033.349,4108.825c-2.141,1.653-.227,7.34.368,9.313.866,2.866,2.335,6.663,1.537,9.851-1,3.987-5.728,3.967-8.6,2.053-2.941-1.957-3.677-4.9-3.832-8.161-.1-2.03.106-4.079,0-6.105-.113-2.115-1.285-3.466-1.528-5.43-.584-4.736,8.48-5.846,11.213-3.206" transform="translate(-4967.463 -4102.684)" fill="#0d193c"/>
            <path id="Path_6839" data-name="Path 6839" d="M5007.016,4111.563s5.248-11,12.445-3.868c0,0,3.68,4.967-4.1,16.631,0,0-10.145,14.389-11.455,20.284,0,0,7.036,18.987,10.145,24.385,0,0,5.2,5.892,6.688,9.49,0,0-15.87,5.067-11.449-6.568l-16.673-27.189S4996.216,4131.194,5007.016,4111.563Z" transform="translate(-4979.118 -4102.867)" fill="#f89876"/>
            <path id="Path_6840" data-name="Path 6840" d="M4990.111,4176.148s.068,13.091,15.991,24.566l4.638-13.037-7.037-8.927Z" transform="translate(-4980.136 -4074.039)" fill="#fc9018"/>
            <path id="Path_6841" data-name="Path 6841" d="M5035.638,4186.943l-18.223,11.957-.186.114-4.592,3.005-2.345,1.544-4.191,2.745c-4.764-16.934-15.992-24.558-15.992-24.558l29.537-19.367S5030.889,4170,5035.638,4186.943Z" transform="translate(-4980.138 -4079.639)" fill="#ffc33b"/>
            <path id="Path_6842" data-name="Path 6842" d="M4988.3,4219.21s-.522,4.364-1.979,6.129c0,0-3.223,4.218,3.069,4.218h6.827s4.3-2.137-.536-5.174a6.522,6.522,0,0,1-2.612-5.173Z" transform="translate(-4982.017 -4056.521)" fill="#f89876"/>
            <path id="Path_6843" data-name="Path 6843" d="M5010.667,4217.089l.5,4.171s16.146,3.3,16.87,5.58h-21.4l.6-4.876-1.8-4.875Z" transform="translate(-4973.902 -4057.383)" fill="#f89876"/>
            <path id="Path_6844" data-name="Path 6844" d="M4986.3,4208.469c.383,4.472.92,9.474,1.67,15.11h4.768l2.063-15.11Z" transform="translate(-4981.688 -4060.89)" fill="#f89876"/>
            <path id="Path_6845" data-name="Path 6845" d="M5006.718,4220.6h5.229l-.34-12.126h-9.316A106.884,106.884,0,0,0,5006.718,4220.6Z" transform="translate(-4975.182 -4060.89)" fill="#f89876"/>
            <path id="Path_6846" data-name="Path 6846" d="M4996.03,4223.374a1.789,1.789,0,0,1-.615.685c-1.631,1.057-4.279.534-6,.058a3.212,3.212,0,0,1-2.143-1.82,6.471,6.471,0,0,1-.954,1.788s-3.223,4.218,3.069,4.218h6.827S5000.255,4226.277,4996.03,4223.374Z" transform="translate(-4982.017 -4055.265)" fill="#4bbab8"/>
            <path id="Path_6847" data-name="Path 6847" d="M5018.068,4221.259c-.048.385-.005.7-.4,1a2.124,2.124,0,0,1-1.466.259c-1.133-.047-2.2-.247-3.352-.247-2.083,0-4.143,0-6.207,0l-.352,2.867h21.4C5027.3,4223.922,5022.464,4222.4,5018.068,4221.259Z" transform="translate(-4973.554 -4055.687)" fill="#4bbab8"/>
          </g>
          <path id="Path_6848" data-name="Path 6848" d="M5056.676,4196.883l-13.4-3.719-30.68,1.588-8.137.43,2.344-1.544,4.592-3,.186-.114,6.107-.5,23.287-1.917,3-5.121Z" transform="translate(-4974.301 -4054.267)" fill="#ffc33b"/>
          <path id="Path_6849" data-name="Path 6849" d="M5017.686,4187.984l-5.092,4.733-8.137.43,2.344-1.544,4.592-3,.186-.114Z" transform="translate(-4974.301 -4052.232)" fill="#fc9018"/>
          <path id="Path_6850" data-name="Path 6850" d="M5023.439,4100.195l5.7,9.938,3.2,6.489s-3.721-5.456-11.592.782l-7.58-11.736S5020.414,4108.11,5023.439,4100.195Z" transform="translate(-4970.758 -4087.948)" fill="#f89876"/>
          <g id="Group_4113" data-name="Group 4113" transform="translate(52.681)">
            <g id="Group_4112" data-name="Group 4112">
              <path id="Path_6851" data-name="Path 6851" d="M5020.468,4103.736s5.28-18.033,19.6-10.336c0,0,11.014,3.723,1.538,20.934-.716,1.3-.55,4.2-1.526,5.641l-2.474-1.687s-4.406,5.288-7.228,3.18l-9.8-12.62Z" transform="translate(-5020.468 -4091.489)" fill="#f89876"/>
            </g>
          </g>
          <path id="Path_6852" data-name="Path 6852" d="M5048.412,4102.516a13.8,13.8,0,0,1-14.06,3.033,17.235,17.235,0,0,1-6.808,5.363,12.638,12.638,0,0,1-1.888.643c-3.348.9-7.567.674-12.487-2.347,0,0,7.237,2.447,10.269-5.478,0,0,5.28-18.021,19.612-10.325C5043.049,4093.405,5048.583,4095.281,5048.412,4102.516Z" transform="translate(-4970.756 -4091.489)" fill="#003250"/>
          <path id="Path_6853" data-name="Path 6853" d="M5046.09,4094.393a11.916,11.916,0,0,1-.3,2.309c-1.067,4.311-4.617,5.755-8.63,5.751-3.585-.005-7.74,0-9.35-3.833a9.375,9.375,0,0,1-.7-3.191,24.685,24.685,0,0,0-3.678,7.122c-3.032,7.925-10.269,5.478-10.269,5.478,4.92,3.021,9.139,3.25,12.487,2.347a12.638,12.638,0,0,0,1.888-.643,17.235,17.235,0,0,0,6.808-5.363,13.8,13.8,0,0,0,14.06-3.033A9.639,9.639,0,0,0,5046.09,4094.393Z" transform="translate(-4970.756 -4090.308)" fill="#0d193c"/>
          <path id="Path_6854" data-name="Path 6854" d="M5026.494,4101.282c-1.146,1.958-1.083,4.129.145,4.843s3.15-.286,4.294-2.245,1.083-4.128-.145-4.849S5027.639,4099.32,5026.494,4101.282Z" transform="translate(-4965.668 -4088.515)" fill="#f89876"/>
        </g>
        <g id="Group_4124" data-name="Group 4124" transform="translate(92.354 89.378)">
          <path id="Path_6855" data-name="Path 6855" d="M5076.138,4192.487c4.631-15.639-11.007-25.763-17.093-37.466.1,6-1.487,11.54.12,17.5,1.674,6.213,4.187,10.5,3.531,17.066-.575,5.758-1.858,12.905.29,18.6,1.459,3.875,4.235,7.919,6.771,11.556,1.286-3.236,3.639-6.125,4.281-10.1.436-2.71-.55-6.217-.373-9.13C5073.862,4197.258,5075.248,4195.491,5076.138,4192.487Z" transform="translate(-5031.113 -4155.021)" fill="#3a7b4f"/>
          <g id="Group_4115" data-name="Group 4115" transform="translate(57.265 52.131)">
            <path id="Path_6856" data-name="Path 6856" d="M5111.58,4194.4c-2.946-2.209-6.53-2.113-10.106-2.3-4.509-.229-7.1,1.3-10.117,4.543-1.056,1.138-1.9,2.833-3.207,3.727-1.47,1-3.744,1.038-5.23,2.348-2.3,2.023-2.562,5.218-3.2,8,2.558-.283,5.865-.055,7.056-.245,3.859-.607,5.962-3.434,8.209-6.468,1.377-1.863,1.846-2.674,4.189-2.941a21.975,21.975,0,0,1,5.515.219,23.655,23.655,0,0,0,10.744-.683,6.013,6.013,0,0,1,4.444,1.063C5118.459,4198.655,5113.99,4196.205,5111.58,4194.4Z" transform="translate(-5079.721 -4192.077)" fill="#68b66c"/>
          </g>
          <g id="Group_4116" data-name="Group 4116" transform="translate(53.565 28.527)">
            <path id="Path_6857" data-name="Path 6857" d="M5099.563,4179.632a31.267,31.267,0,0,0-4.432,7.8c-1.028,2.609-2.43,5.628-4.811,7.354-1.885,1.368-4.558,1.557-6.612,2.541-5.489,2.626-7.7,10.138-6.117,16.1,2.905-1.933,5-5.4,7.905-7.438,3.5-2.452,5.434-6.488,8.767-8.964,3.645-2.708,7.391-3.385,9.837-7.747a20.6,20.6,0,0,0,2.35-11.025c-.028-.538-.252-1.757-.374-2.955-.251.132-.514.255-.77.422C5103.078,4177.177,5101.272,4177.382,5099.563,4179.632Z" transform="translate(-5077.091 -4175.299)" fill="#3a7b4f"/>
          </g>
          <g id="Group_4117" data-name="Group 4117" transform="translate(0 33.173)">
            <path id="Path_6858" data-name="Path 6858" d="M5061.94,4192.837a23.187,23.187,0,0,0-8.488-11.024c-4.5-3.176-9.023-3.211-14.437-3.211.693,3.444,1.114,7.068,3.215,9.417,3.11,3.478,7.386,3.527,9.865,8.37,2.517,4.918,2.9,10.189,7.929,13.687,4.328,3.009,9.9,2.762,14.17,6.076-1.223-4.419-1.312-9.132-4.608-13.113C5066.422,4199.219,5063.857,4197.8,5061.94,4192.837Z" transform="translate(-5039.016 -4178.601)" fill="#68b66c"/>
          </g>
          <g id="Group_4118" data-name="Group 4118" transform="translate(8.66 39.495)">
            <path id="Path_6859" data-name="Path 6859" d="M5061.4,4203.649c2.281,2.265,4.878,4.121,7.113,6.084a22.723,22.723,0,0,1,5.222,6.255l-.041-.066a36.961,36.961,0,0,1,1.721,3.9c.459,1.141.812,2.132,1.1,2.945a8.412,8.412,0,0,1,.761,2.6c-.1.059-.619-.774-1.4-2.324-.382-.789-.841-1.734-1.372-2.825-.522-1.109-1.129-2.355-1.822-3.578l-.017-.027-.025-.043a23.138,23.138,0,0,0-5.115-5.7c-2.208-1.858-4.84-3.686-7.276-6.1a26.873,26.873,0,0,1-1.882-2.21c-.5-.827-1.06-1.6-1.474-2.444a24.95,24.95,0,0,1-1.57-5.029,14.466,14.466,0,0,0-1.519-4.153,15.474,15.474,0,0,0-2.337-3.092,22.8,22.8,0,0,0-4.531-3.482c-1.167-.73-1.82-1.141-1.769-1.247s.787.127,2.063.7a18.35,18.35,0,0,1,5.023,3.221,15.527,15.527,0,0,1,2.685,3.215,15.122,15.122,0,0,1,1.812,4.47,25.185,25.185,0,0,0,1.556,4.716c.38.75.9,1.442,1.346,2.187C5060.147,4202.34,5060.82,4202.958,5061.4,4203.649Z" transform="translate(-5045.171 -4183.095)" fill="#fc9018"/>
          </g>
          <g id="Group_4119" data-name="Group 4119" transform="translate(30.744 10.744)">
            <path id="Path_6860" data-name="Path 6860" d="M5069.722,4198.453c-2.513,10.022-.5,19.314.655,25.917,1.287,6.63,1.953,10.786,1.726,10.827a10.629,10.629,0,0,1-.9-2.813c-.461-1.832-1.18-4.474-1.933-7.783a92.786,92.786,0,0,1-2.061-11.776c-.079-1.13-.164-2.288-.246-3.474q.035-1.787.074-3.65a28.615,28.615,0,0,1,.439-3.765c.167-1.291.427-2.52.674-3.773a51.408,51.408,0,0,0,.863-7.343,29.94,29.94,0,0,0-.567-6.787,55.077,55.077,0,0,0-4.041-10.969,59.339,59.339,0,0,1-2.957-7.492,9.552,9.552,0,0,1-.55-2.913,11.861,11.861,0,0,1,1.141,2.712c.7,1.742,1.849,4.2,3.387,7.206a50.379,50.379,0,0,1,4.458,11.144,30.07,30.07,0,0,1,.7,7.14A49.749,49.749,0,0,1,5069.722,4198.453Z" transform="translate(-5060.87 -4162.658)" fill="#fc9018"/>
            <path id="Path_6861" data-name="Path 6861" d="M5071.183,4189.7a11.352,11.352,0,0,1,.307-2.019c-.286-.309-.568-.615-.889-.934-1.712-1.714-1.91-3.126-2.748-5.146-2.193,4.09-4.288,9.4-2.82,13.777.82,2.449,2.627,4.412,3.872,6.63a10.8,10.8,0,0,1,.844,1.961,17.476,17.476,0,0,0,1.807-5.14C5071.992,4196.123,5071.006,4192.616,5071.183,4189.7Z" transform="translate(-5059.375 -4154.95)" fill="#0d193c"/>
          </g>
          <g id="Group_4120" data-name="Group 4120" transform="translate(47.508 41.024)">
            <path id="Path_6862" data-name="Path 6862" d="M5082.071,4204.14c-1.636,3.285-2.064,6.969-3.1,10.192a30.117,30.117,0,0,1-1.792,4.494c-.688,1.313-1.358,2.511-1.9,3.621-2.306,4.412-1.932,7.65-2.273,7.628a4.917,4.917,0,0,1-.217-2.21,15.8,15.8,0,0,1,1.461-5.886c.5-1.182,1.108-2.418,1.741-3.748a31.12,31.12,0,0,0,1.563-4.313c.932-3.1,1.292-6.842,3.078-10.48a18.712,18.712,0,0,1,1.544-2.534,23.927,23.927,0,0,1,1.862-2.183c1.318-1.3,2.668-2.437,3.972-3.492,2.639-2.059,5.034-3.81,6.936-5.411,3.8-3.195,5.533-5.8,5.775-5.627.091.059-.287.741-1.063,1.938a27.783,27.783,0,0,1-3.959,4.532c-1.848,1.747-4.212,3.625-6.757,5.71C5086.434,4198.5,5083.659,4200.85,5082.071,4204.14Z" transform="translate(-5072.785 -4184.181)" fill="#fc9018"/>
          </g>
          <g id="Group_4121" data-name="Group 4121" transform="translate(49.119 55.22)">
            <path id="Path_6863" data-name="Path 6863" d="M5088.656,4207.053a16.1,16.1,0,0,0-4.522,2.394,22.62,22.62,0,0,0-3.439,3.325,44.223,44.223,0,0,0-4.451,6.94c-1.914,4.275-1.851,7.362-2.188,7.316-.111,0-.146-.75-.111-2.114a18.592,18.592,0,0,1,1.264-5.656,38.405,38.405,0,0,1,4.339-7.412,22.753,22.753,0,0,1,3.638-3.646,17,17,0,0,1,4.863-2.623,14.008,14.008,0,0,0,4.4-2.441,25.657,25.657,0,0,0,3.087-3.7c1.815-2.608,4.467-4.758,7.063-5.008a14.208,14.208,0,0,1,5.809.41c1.313.333,2.013.588,1.994.694s-.771.063-2.1-.081a16.409,16.409,0,0,0-5.479.086c-2.274.391-4.353,2.19-6.1,4.772a25.366,25.366,0,0,1-3.213,3.981A15,15,0,0,1,5088.656,4207.053Z" transform="translate(-5073.93 -4194.272)" fill="#fc9018"/>
          </g>
          <g id="Group_4122" data-name="Group 4122" transform="translate(37.225 7.224)">
            <path id="Path_6864" data-name="Path 6864" d="M5081.594,4180.282c1.746-4.664,2.891-9.19,1.162-14.075-.728-2.061-1.808-3.979-2.476-6.051a15.257,15.257,0,0,0-1.492,2.142c-.693,1.592-.747,3.434-1.142,5.114a33.546,33.546,0,0,1-3.051,8.723c-2.909,5.2-7.755,8.938-8.854,15.172-1.064,6.053,1.186,12.621,4.61,17.4,1.3,1.811,2.732,3.637,3.153,5.844.2,1.067.192,2.128.309,3.132,1.224-2.56,3.323-4.881,4.923-7.087,3.609-4.983,3.987-9.488,2.628-15.154C5080.176,4190.49,5079.771,4185.156,5081.594,4180.282Z" transform="translate(-5065.476 -4160.156)" fill="#68b66c"/>
          </g>
          <g id="Group_4123" data-name="Group 4123" transform="translate(43.784 16.346)">
            <path id="Path_6865" data-name="Path 6865" d="M5072.739,4199.893c.9,4.858.435,9.624,0,13.77-.471,4.177-.993,7.888-1.064,11.016-.263,6.271,1.075,10.02.745,10.11a9.16,9.16,0,0,1-.957-2.606,14.985,14.985,0,0,1-.628-3.2c-.074-.633-.194-1.31-.243-2.032-.017-.723-.029-1.483-.047-2.284a104.536,104.536,0,0,1,.728-11.147c.348-4.159.749-8.687-.117-13.384-.776-4.66-1.654-9.515-.356-13.8.372-1.028.82-2.03,1.261-2.947.5-.858.982-1.694,1.452-2.5.929-1.6,1.784-3.091,2.426-4.506a21.278,21.278,0,0,0,2.042-7,11.634,11.634,0,0,1,.194-2.734,7.675,7.675,0,0,1,.427,2.757,19.023,19.023,0,0,1-1.628,7.434,47.075,47.075,0,0,1-2.3,4.7c-.443.817-.9,1.657-1.376,2.528-.388.872-.755,1.754-1.08,2.688C5071.121,4190.615,5071.934,4195.111,5072.739,4199.893Z" transform="translate(-5070.139 -4166.641)" fill="#fc9018"/>
          </g>
          <path id="Path_6866" data-name="Path 6866" d="M5126.349,4231.1h-84.9c2.832-4.913,5.972-9.406,11.217-12.094,3.36-1.719,6.813-2.245,10.283-3.161,3.837-1,6.376-3.066,9.882-4.582,8.385-3.6,14.834,2.666,22.834,3.158,3.637.221,6.96-2.044,10.76-1.716,4.109.349,7.945,2.9,10.74,5.846C5121.4,4222.986,5123.079,4227.315,5126.349,4231.1Z" transform="translate(-5038.028 -4132.592)" fill="#44b6ac"/>
        </g>
      </g>
    </g>
  </g>
</svg>
