<svg id="Component_16_1" data-name="Component 16 – 1" xmlns="http://www.w3.org/2000/svg" width="24.509" height="16.308" viewBox="0 0 24.509 16.308">
  <path id="Path_6868" data-name="Path 6868" d="M4860.854,4709.478l10.732-6.328-10.78-6.355v12.3A1.673,1.673,0,0,0,4860.854,4709.478Z" transform="translate(-4860.806 -4694.486)" fill="#1a1818"/>
  <path id="Path_6869" data-name="Path 6869" d="M4871.975,4700.948l-11.024,6.5a1.691,1.691,0,0,0,1.469.864h21.11a1.7,1.7,0,0,0,1.543-1l-10.8-6.367-1.15.677Z" transform="translate(-4860.72 -4692.004)" fill="#1a1818"/>
  <path id="Path_6870" data-name="Path 6870" d="M4880.069,4709.028V4696.9l-10.481,6.18,10.457,6.169A1.437,1.437,0,0,0,4880.069,4709.028Z" transform="translate(-4855.561 -4694.42)" fill="#1a1818"/>
  <path id="Path_6871" data-name="Path 6871" d="M4862.5,4695.349a1.7,1.7,0,0,0-1.7,1.7v.052l12.4,7.311,12.106-7.136v-.227a1.7,1.7,0,0,0-1.7-1.7Z" transform="translate(-4860.806 -4695.349)" fill="#1a1818"/>
</svg>
