<svg xmlns="http://www.w3.org/2000/svg" width="108.453" height="102.508" viewBox="0 0 108.453 102.508"><defs><style>.a{fill:#5faf42;}.b{fill:#dad800;isolation:isolate;}</style></defs><g transform="translate(20004.293 -21415.254)"><path class="a" d="M11686.262,6500.6s19.351,4.139,18.68,29.084C11704.941,6529.681,11683.465,6525.317,11686.262,6500.6Z" transform="translate(-31672.881 14927.228)"/><path class="a" d="M11771.078,6502.047s5.408,19.037-16.947,30.128C11754.131,6532.175,11747.926,6511.155,11771.078,6502.047Z" transform="translate(-31718.109 14926.254)"/><path class="a" d="M11884.553,6560.41s-4.084,19.364-29.031,18.764C11855.521,6579.174,11859.822,6557.685,11884.553,6560.41Z" transform="translate(-31786.689 14887.229)"/><path class="a" d="M11875.19,6501.541s4.863,12.23-9.18,21.077C11866.011,6522.618,11860.487,6509.129,11875.19,6501.541Z" transform="translate(-31793.051 14926.593)"/><path class="a" d="M11920.133,6633.922s-12.27,4.759-21-9.357C11899.135,6624.564,11912.669,6619.155,11920.133,6633.922Z" transform="translate(-31815.973 14844.645)"/><path class="a" d="M11869.409,6640.729s-12.271,4.759-21-9.356C11848.412,6631.373,11861.945,6625.963,11869.409,6640.729Z" transform="translate(-31781.916 14840.073)"/><path class="a" d="M11840.355,6542.917s8.664,9.909-1.625,22.932C11838.73,6565.849,11829.023,6554.974,11840.355,6542.917Z" transform="translate(-31772.818 14898.813)"/><path class="a" d="M11795.4,6565.618s7.994,12.422-5.562,25.194C11789.841,6590.813,11780.846,6577.149,11795.4,6565.618Z" transform="translate(-31740.746 14883.571)"/><path class="a" d="M11735.091,6462.344s10.463,8.434,2.418,23.348C11737.509,6485.692,11725.827,6476.471,11735.091,6462.344Z" transform="translate(-31703.434 14952.91)"/><path class="a" d="M11668.762,6586.494s9.782-9.214,23.46.789C11692.222,6587.283,11681.5,6597.6,11668.762,6586.494Z" transform="translate(-31661.301 14872.155)"/><path class="a" d="M11647.4,6551.98s9.217-4.1,16.426,6.378C11663.822,6558.359,11653.663,6563.006,11647.4,6551.98Z" transform="translate(-31646.953 14893.259)"/><path class="b" d="M11693.9,6639.756a43.191,43.191,0,0,1-3.072-20.136c.9-11.8,11.965-18.849,11.965-18.849-6.32-.615-15.325,9.452-15.325,9.452-3.579,2.8-6.152-2.156-6.152-2.156-6.656-15.748-11.953-16.749-11.953-16.749,9.917,15.437,9.771,28.189,9.771,28.189.5,9.564-10.18,19.408-10.18,19.408-15.939.391-35.964,11.8-35.964,11.8,22.261-8.949,48.548-7.215,48.548-7.215,18.01-.056,39.713,7.942,39.713,7.942C11711.852,6643.447,11693.9,6639.756,11693.9,6639.756Zm-5.874-.784s-7.643-.648-13.2-.5c0,0,4.642-5.314,6.6-9.117,0,0,1.121-2.013,2.573,0l4.867,9.117S11689.03,6639.085,11688.023,6638.973Z" transform="translate(-31637.281 14866.315)"/></g></svg>