<svg xmlns="http://www.w3.org/2000/svg" width="226.644" height="259.667" viewBox="0 0 226.644 259.667"><defs><style>.a{fill:#f7b09e;}.b{fill:#eaa89b;}.c,.f,.g,.l,.n,.p{fill:none;}.d{fill:#db8572;}.e{fill:#2b1100;}.f,.g{stroke:#db8572;}.f,.l,.n,.p{stroke-miterlimit:10;}.g,.n{stroke-linecap:round;}.g{stroke-linejoin:round;}.h{fill:#fff;}.i{fill:#5faf42;}.j{fill:#4b7241;}.k{fill:#65925b;}.l{stroke:#4b7241;}.m{fill:#f77831;}.n{stroke:#d65b1d;}.o{fill:#dad800;}.p{stroke:#000;}.q{fill:#6bc458;}.r{fill:#f5792f;}.s{fill:#cec41d;}.t{fill:#5dbc58;}.u{fill:#ffe815;}</style></defs><g transform="translate(-1342.883 -1260.334)"><g transform="translate(1389.777 1377.334)"><path class="a" d="M-307.308,3870.6s.282,31.179-.486,59.294c0,0,13.493,4.033,17.718,12.782,0,0,3.166,3.735-1.442,3.145a17.549,17.549,0,0,1-6.779-4.222c-2.156-2.39-4.305.4-2.556,2.788a21.485,21.485,0,0,0,11.271,7.551c4.8.936,6.95,4.192,1.757,6.879s-4.88,3.041-8.345,2.186l-10.9-.885a14.311,14.311,0,0,1-6.844-9.158l-8.473-16.99s-4.164-18.317-4.562-28.96c.188-9.195-1.168-10.915,1.924-23.435" transform="translate(327.085 -3870.601)"/><path class="a" d="M-139.653,4018.108" transform="translate(235.809 -3942.435)"/></g><g transform="translate(1387.9 1260.334)"><path class="b" d="M-327.8,3814.086c10.321-34.266,35.79-35.339,35.822-35.322h0c-.072.258-.143.5-.223.756h.223l17.856,34.21h0l21.139-34.209h.642l-.223-.756h0c.048-.014,34.437-1.564,40.88,38.678,2.281,12.4,6.632,54.848-7.617,49.852h0s-.989-.729-2-1.32h0v18.293a25.229,25.229,0,0,1-25.229,25.229h-52.2c-14.314,0-17.959-8.316-17.959-22.633l-.656-30.529h0c-1.094.942-11.5-5.334-11.513-5.341h0C-331.68,3839.83-331.326,3825.043-327.8,3814.086Z" transform="translate(330.74 -3708.873)"/><path class="c" d="M-215.9,3793.763l-23.839,37.814-21.611-37.814" transform="translate(296.949 -3716.182)"/><path class="d" d="M-250.948,3693.684s-5.309-2.333-3.625,7.381,3.625,7.642,3.625,7.642Z" transform="translate(293.809 -3667.326)"/><path class="a" d="M-256.221,3726.808l2.388-29.06.646-15.669s2.119-2.731,1.6-11.278c0,0,14.73,8.529,22.372-.926,0,0,5.815,5.472,13.069,13.63l.934,43.348s-17.174,31.9-21.509,40.866C-236.722,3767.717-250.79,3740.469-256.221,3726.808Z" transform="translate(294.45 -3655.851)"/><path class="e" d="M-206.628,3693.476a22.268,22.268,0,0,0-7.77-1.66s-2.591-1.943.646-3.756a11.846,11.846,0,0,1,8.29,3.5S-204.9,3694.1-206.628,3693.476Z" transform="translate(274.561 -3664.707)"/><path class="e" d="M-247.926,3693.476a22.246,22.246,0,0,1,7.77-1.66s2.587-1.943-.65-3.756a11.841,11.841,0,0,0-8.29,3.5S-249.662,3694.1-247.926,3693.476Z" transform="translate(291.024 -3664.707)"/><path class="f" d="M-226.2,3695.132v15.484s.651,2.646,3.5.263" transform="translate(279.828 -3668.151)"/><path class="g" d="M-223.782,3740.152a4.9,4.9,0,0,1-6.82-1.24c-.062-.089-.121-.18-.176-.273" transform="translate(282.06 -3689.338)"/><circle class="e" cx="1.584" cy="1.584" r="1.584" transform="translate(62.066 31.297)"/><circle class="e" cx="1.584" cy="1.584" r="1.584" transform="translate(45.261 31.297)"/><path class="e" d="M-252.811,3668.768s-5.672-6.906-.377-16.709c0,0,2.6-9.52,16.246-9.52,11.892,0,14.983,1.337,18.153,3.968,4.15,3.444,6.518,13.563,5.9,21.359-3.342,41.826-2.479,7.352-5.9,1.644,0,0-7.141-4.868-9.319-11.215,0,0-12.521,7.96-23.023,0C-251.134,3658.3-249.98,3668.442-252.811,3668.768Z" transform="translate(294.074 -3642.539)"/><path class="d" d="M-185.222,3693.684s5.311-2.333,3.627,7.381-3.627,7.642-3.627,7.642Z" transform="translate(259.875 -3667.326)"/><path class="d" d="M-253.952,3735.745l5.7,9.424a3.984,3.984,0,0,0,2.9,1.248h13a4.205,4.205,0,0,0,2.134-.579l7.091-4.158s-8.283,15.974-32.32,13.432Z" transform="translate(294.078 -3687.929)"/><path class="c" d="M-304.886,3887.615s5.986-20.2,4.732-31.311" transform="translate(318.15 -3746.639)"/><path class="c" d="M-115.745,3931.51s-10.774,5-19.4,0" transform="translate(235.488 -3783.263)"/><g transform="translate(78.432 165.785) rotate(180)"><path class="h" d="M15.748,17.962H0v-.408a17.537,17.537,0,1,1,.223,2.772H18.084V13.1H15.748Z"/></g></g><path class="i" d="M-402.433,3977.452s4.5-16.045,21.6-12.9c0,0,13.434-19.91,39.106-8.383s34.58-5.239,42.963-.524,36.676-10.849,48.2-3.067,20.965-2.219,28.165,11.328c0,0,16.369,2.348,7.2,13.547Z" transform="translate(1753.555 -2532.107)"/><g transform="translate(1464.85 1420.313)"><path class="j" d="M-92.135,3960.878s3.254-1.654,8.539.054c0,0-2.462-2.565-9.013-.913" transform="translate(137.825 -3956.855)"/><path class="j" d="M-91.666,3961.648a6.95,6.95,0,0,0,4.81,1.388s-1.81,1.033-5.218-.983" transform="translate(137.565 -3957.918)"/><path class="j" d="M-91.979,3959.327s1.824-1.932,6.433-1.6c0,0-2.811-1.554-7.111,1.007" transform="translate(137.848 -3955.784)"/><path class="k" d="M-135.475,3956.868s4.045,4.351-4.308,10.9c-8.287,6.5-38.247,18.255-40.857,10.27,0,0-.891-2.223,2.472-5.552C-172.361,3966.743-139.836,3947.606-135.475,3956.868Z" transform="translate(180.746 -3954.377)"/><path class="l" d="M-105.7,3972.315a23.678,23.678,0,0,0-3.18-9.392" transform="translate(145.751 -3958.539)"/><path class="l" d="M-118.1,3980.609a19.277,19.277,0,0,0-2.681-8.488" transform="translate(151.542 -3963.018)"/><path class="l" d="M-130.723,3987.542a15.138,15.138,0,0,0-2.151-7.527" transform="translate(157.433 -3966.862)"/><path class="l" d="M-147.766,3981.713a19.276,19.276,0,0,0-2.681-8.489" transform="translate(165.991 -3963.555)"/><path class="l" d="M-158.422,3995.2a19.281,19.281,0,0,0-2.681-8.488" transform="translate(171.18 -3970.123)"/><path class="l" d="M-170.076,3997.884a15.39,15.39,0,0,0-2.185-7.59" transform="translate(176.614 -3971.868)"/></g><g transform="translate(1351.705 1428.807)"><path class="m" d="M-387.564,3978.771s-1.441-5.763,9.038-7.466c10.4-1.689,42.307,2.489,40.736,10.741,0,0-.293,2.378-4.846,3.667C-350.5,3987.94-388.218,3988.988-387.564,3978.771Z" transform="translate(394.641 -3970.935)"/><path class="n" d="M-369.642,3971.867a23.674,23.674,0,0,0-1.752,9.76" transform="translate(386.745 -3971.389)"/><path class="n" d="M-354.786,3971.57a19.274,19.274,0,0,0-1.753,8.727" transform="translate(379.511 -3971.244)"/><path class="n" d="M-340.381,3972.638a15.138,15.138,0,0,0-1.752,7.63" transform="translate(372.496 -3971.764)"/><path class="n" d="M-328.273,3984.933a19.285,19.285,0,0,0-1.752,8.728" transform="translate(366.599 -3977.752)"/><path class="n" d="M-312.429,3978.272a19.283,19.283,0,0,0-1.752,8.727" transform="translate(358.883 -3974.508)"/><path class="n" d="M-300.928,3982.523a15.389,15.389,0,0,0-1.752,7.7" transform="translate(353.283 -3976.578)"/><path class="m" d="M-393.844,3979.24s-3.648-.122-7.451-4.17c0,0,.918,3.435,7.451,5.152" transform="translate(401.295 -3972.948)"/><path class="m" d="M-390.766,3980.146a6.948,6.948,0,0,0-3.541-3.538s2.084-.03,4.095,3.381" transform="translate(397.892 -3973.698)"/><path class="m" d="M-393.609,3982.226s-2.53.811-6.4-1.71c0,0,1.71,2.718,6.713,2.552" transform="translate(400.67 -3975.601)"/></g><g transform="translate(1401.457 1428.625)"><circle class="o" cx="6.746" cy="6.746" r="6.746" transform="translate(0 3.231)"/><path class="p" d="M-288.913,3973.814a7.3,7.3,0,0,1,3.318-3.231" transform="translate(296.816 -3970.583)"/></g><g transform="translate(1389.145 1428.625)"><circle class="q" cx="6.746" cy="6.746" r="6.746" transform="translate(0 3.231)"/><path class="p" d="M-315.777,3973.814a7.3,7.3,0,0,0-3.318-3.231" transform="translate(323.826 -3970.583)"/></g><g transform="translate(1498.061 1424.793)"><circle class="r" cx="6.746" cy="6.746" r="6.746" transform="translate(0 3.231)"/><path class="p" d="M-100.606,3966.341a7.305,7.305,0,0,1,3.318-3.23" transform="translate(108.509 -3963.111)"/></g><g transform="translate(1415.822 1437.039)"><path class="p" d="M-208.913,3993.239a13.773,13.773,0,0,0,5.763-3.209" transform="translate(243.492 -3988.467)"/><path class="q" d="M-243.6,3994.449h-28.987a3.733,3.733,0,0,1-3.733-3.733h0a3.733,3.733,0,0,1,3.945-3.727l28.94,1.65a2.907,2.907,0,0,1,2.742,2.9h0A2.908,2.908,0,0,1-243.6,3994.449Z" transform="translate(276.316 -3986.983)"/></g><rect class="s" width="193" height="41" transform="translate(1345 1452)"/><rect class="s" width="115" height="22" transform="translate(1345 1495)"/><g transform="translate(1489.689 1429.334)"><path class="t" d="M-85.555,3976.839s2.5,5.37-6.867,9.037c-9.29,3.638-39.7,5.633-39.905-2.749,0,0-.207-2.385,3.75-4.517C-121.746,3974.93-87.008,3966.708-85.555,3976.839Z" transform="translate(132.33 -3971.964)"/></g><g transform="translate(1345.031 1445.346)"><path class="u" d="M-414.3,4003.172v51.476h193.331v-51.476Zm187.24,38.116H-408.214v-5.895h181.149Zm0-18.273H-408.214v-5.894h181.149Z" transform="translate(414.305 -4003.172)"/><rect class="u" width="3.929" height="24.756" transform="translate(94.701 13.36)"/><rect class="u" width="3.929" height="24.756" transform="translate(154.036 13.36)"/><rect class="u" width="3.929" height="24.756" transform="translate(30.257 13.36)"/></g><path class="i" d="M-418.492,4062.245s2.782-16.045,13.347-12.9c0,0,8.3-19.909,24.16-8.383s21.364-5.24,26.542-.524,22.658-10.85,29.78-3.067,12.953-2.219,17.4,11.329c0,0,10.113,2.349,4.448,13.547Z" transform="translate(1761.375 -2573.4)"/><g transform="translate(1345.943 1472.242)"><path class="m" d="M-398.793,4063.439s-1.441-5.763,9.038-7.466c10.4-1.689,42.307,2.489,40.736,10.741,0,0-.294,2.378-4.846,3.667C-361.724,4072.608-399.447,4073.656-398.793,4063.439Z" transform="translate(405.87 -4055.603)"/><path class="n" d="M-380.871,4056.535a23.674,23.674,0,0,0-1.753,9.76" transform="translate(397.974 -4056.057)"/><path class="n" d="M-366.015,4056.238a19.282,19.282,0,0,0-1.753,8.727" transform="translate(390.74 -4055.912)"/><path class="n" d="M-351.61,4057.306a15.145,15.145,0,0,0-1.752,7.631" transform="translate(383.725 -4056.432)"/><path class="n" d="M-339.5,4069.6a19.273,19.273,0,0,0-1.752,8.727" transform="translate(377.828 -4062.42)"/><path class="n" d="M-323.657,4062.94a19.275,19.275,0,0,0-1.752,8.728" transform="translate(370.112 -4059.176)"/><path class="n" d="M-312.157,4067.191a15.4,15.4,0,0,0-1.752,7.7" transform="translate(364.512 -4061.246)"/><path class="m" d="M-405.073,4063.908s-3.648-.123-7.451-4.171c0,0,.918,3.435,7.451,5.152" transform="translate(412.524 -4057.616)"/><path class="m" d="M-401.995,4064.813a6.948,6.948,0,0,0-3.541-3.538s2.084-.03,4.095,3.381" transform="translate(409.121 -4058.365)"/><path class="m" d="M-404.838,4066.894s-2.53.811-6.4-1.71c0,0,1.71,2.718,6.713,2.553" transform="translate(411.899 -4060.269)"/></g><g transform="translate(1395.695 1472.063)"><circle class="r" cx="6.746" cy="6.746" r="6.746" transform="translate(0 3.231)"/><path class="p" d="M-300.142,4058.481a7.305,7.305,0,0,1,3.318-3.23" transform="translate(308.045 -4055.251)"/></g><g transform="translate(1410.061 1480.475)"><path class="p" d="M-220.142,4077.906a13.771,13.771,0,0,0,5.763-3.209" transform="translate(254.721 -4073.134)"/><path class="o" d="M-254.825,4079.116h-28.987a3.733,3.733,0,0,1-3.733-3.733h0a3.733,3.733,0,0,1,3.945-3.727l28.94,1.649a2.907,2.907,0,0,1,2.742,2.9h0A2.907,2.907,0,0,1-254.825,4079.116Z" transform="translate(287.545 -4071.651)"/></g><g transform="translate(1342.883 1488.369)"><path class="u" d="M-418.492,4087.038v31.632h118.8v-31.632Zm115.06,23.422H-414.75v-3.622h111.317Zm0-11.228H-414.75v-3.622h111.317Z" transform="translate(418.492 -4087.038)"/><rect class="u" width="2.415" height="15.213" transform="translate(58.194 8.21)"/><rect class="u" width="2.415" height="15.213" transform="translate(94.656 8.21)"/><rect class="u" width="2.415" height="15.213" transform="translate(18.593 8.21)"/></g><g transform="translate(1475.307 1385.271) rotate(8)"><path class="a" d="M-137.208,3849.6s-4.225,7.851-17.967.378c0,0,2.393,27.9,6.6,55.718,0,0-12.9,5.661-16.013,14.865,0,0-2.681,4.1,1.817,2.942a17.516,17.516,0,0,0,6.211-5.023c1.845-2.636,4.33-.133,2.871,2.459a21.5,21.5,0,0,1-10.259,8.88c-4.647,1.516-6.38,5.012-.9,7.04s5.219,2.42,8.557,1.151l10.7-2.219a14.291,14.291,0,0,0,5.652-9.931l6.314-17.9s5.53-17.356,4.615-27.966a89.14,89.14,0,0,0-6.065-36.193" transform="translate(168.259 -3843.8)"/><path class="a" d="M30.068,3935.321" transform="translate(71.677 -3888.369)"/></g><g transform="translate(1383.383 1472.063)"><circle class="q" cx="6.746" cy="6.746" r="6.746" transform="translate(0 3.231)"/><path class="p" d="M-327.006,4058.481a7.305,7.305,0,0,0-3.318-3.23" transform="translate(335.055 -4055.251)"/></g><path class="b" d="M-136.012,3834.166s21.236,19.9-25.06,36.5l-6.5-35.092a82.887,82.887,0,0,1,23.663.67A9.508,9.508,0,0,0-136.012,3834.166Z" transform="translate(2175.898 -2393.105) rotate(8)"/></g></svg>