<svg xmlns="http://www.w3.org/2000/svg" width="239" height="267.08" viewBox="0 0 239 267.08"><defs><style>.a,.r,.t,.v{fill:#ede139;}.b{fill:#39431a;}.c{fill:#2d3612;}.d{fill:#e26928;}.e{fill:#fbc646;}.f{fill:#ffae39;}.g{fill:#fffffb;}.h{fill:#babade;}.i{fill:#f39d2c;}.j{fill:#ffcc48;}.k{fill:#fcb036;}.l,.m,.n,.o{fill:#fbd046;}.l{font-size:17px;}.l,.m,.n,.o,.r,.t,.v{font-family:MyriadPro-Regular, Myriad Pro;}.m{font-size:8px;}.n{font-size:4px;}.o{font-size:3px;}.p{fill:#145629;}.q{fill:#5faf42;}.r{font-size:10px;}.s{fill:#8cc63f;}.t{font-size:9px;}.u{fill:#5dbc58;}.v{font-size:5px;}</style></defs><g transform="translate(-1681.001 -812.92)"><g transform="translate(1681 858.897)"><path class="a" d="M3558,1795.036s-28.1,27.634-53.294,16.79-53.657-28.106-75.924-15.331c-26.476,15.192-23.451,32.476-22.266,44.168.839,8.276,1.7,19.39-20.931,21.621s-36.741,9.011-41.487,22.545,2.956,28.723,8.4,35.407c5.873,7.215,15.9,25.764-12.776,41.612s-25.676,36.5-2.679,51.229h220.107Z" transform="translate(-3318.998 -1791.977)"/><path class="b" d="M3557.463,1805.184s-27.657,24.406-52.1,13.9-52.292-24.283-72.439-16.5c-21.058,8.137-22.753,31.472-21.6,42.8.813,8.021,1.649,18.791-20.309,20.954s-35.649,8.732-40.253,21.849,4.518,25.464,9.8,31.94c5.7,6.992,13.774,27.341-14.045,42.7s-24.913,35.376-2.6,49.647h213.559Z" transform="translate(-3318.463 -1791.376)"/></g><g transform="translate(1746.797 812.92)"><ellipse class="c" cx="46.501" cy="26.375" rx="46.501" ry="26.375" transform="translate(30.227 189.167)"/><g transform="translate(1.808 140.005)"><path class="a" d="M3494.336,1729.224s-6.284-39.636-37.708-63.188c0,0-7.411-.11-7.45-7.153,0,0,6.739-1.024,7.77,6.535,0,0,27.839,16.623,38.215,63.554Z" transform="translate(-3449.178 -1658.836)"/><path class="a" d="M3464.512,1669.636s-7.679-7.333-13.83,1.784C3450.682,1671.42,3459.139,1678,3464.512,1669.636Z" transform="translate(-3448.648 -1656.012)"/><path class="a" d="M3463.733,1675.174s8.463-6.412.444-13.937C3464.177,1661.237,3456.334,1668.536,3463.733,1675.174Z" transform="translate(-3445.167 -1657.989)"/><path class="a" d="M3473.161,1686.537s8.462-6.41.443-13.937C3473.6,1672.6,3465.763,1679.9,3473.161,1686.537Z" transform="translate(-3441.845 -1653.985)"/><path class="a" d="M3479.168,1698.672s9.061-5.533,1.836-13.823C3481,1684.849,3472.473,1691.327,3479.168,1698.672Z" transform="translate(-3439.513 -1649.668)"/><path class="a" d="M3482.271,1709.55s10.3-2.566,5.892-12.639C3488.163,1696.911,3478.081,1700.536,3482.271,1709.55Z" transform="translate(-3437.875 -1645.416)"/><path class="a" d="M3472.757,1679.071s-7.919-7.072-13.762,2.245C3458.994,1681.316,3467.667,1687.607,3472.757,1679.071Z" transform="translate(-3445.717 -1652.61)"/><path class="a" d="M3478.338,1688.623s-8.136-6.822-13.686,2.672C3464.652,1691.3,3473.516,1697.314,3478.338,1688.623Z" transform="translate(-3443.724 -1649.173)"/><path class="a" d="M3483.35,1699.054s-8.017-6.962-13.731,2.433C3469.618,1701.487,3478.377,1707.66,3483.35,1699.054Z" transform="translate(-3441.974 -1645.536)"/></g><g transform="translate(97.531 185.034)"><path class="a" d="M3524.559,1754.563s3.478-25.671,23.415-41.327c0,0,4.782-.178,4.705-4.724,0,0-4.365-.563-4.919,4.33,0,0-17.725,11.132-23.739,41.568Z" transform="translate(-3520.332 -1708.492)"/><path class="a" d="M3537.787,1715.65s4.85-4.843,8.95.95C3546.737,1716.6,3541.376,1720.968,3537.787,1715.65Z" transform="translate(-3515.48 -1706.638)"/><path class="a" d="M3537.219,1719.226s-5.555-4.014-.49-8.987C3536.729,1710.239,3541.9,1714.834,3537.219,1719.226Z" transform="translate(-3516.604 -1707.876)"/><path class="a" d="M3531.3,1726.7s-5.554-4.014-.489-8.987C3530.812,1717.709,3535.978,1722.3,3531.3,1726.7Z" transform="translate(-3518.689 -1705.244)"/><path class="a" d="M3527.621,1734.612s-5.927-3.439-1.386-8.893C3526.235,1725.718,3531.837,1729.774,3527.621,1734.612Z" transform="translate(-3520.155 -1702.422)"/><path class="a" d="M3525.921,1741.667s-6.687-1.505-3.986-8.071C3521.935,1733.6,3528.493,1735.79,3525.921,1741.667Z" transform="translate(-3521.293 -1699.645)"/><path class="a" d="M3532.592,1721.858s5.01-4.678,8.914,1.25C3541.506,1723.108,3536,1727.293,3532.592,1721.858Z" transform="translate(-3517.311 -1704.4)"/><path class="a" d="M3529.118,1728.1s5.151-4.521,8.871,1.526C3537.989,1729.63,3532.355,1733.642,3529.118,1728.1Z" transform="translate(-3518.535 -1702.153)"/><path class="a" d="M3526.043,1734.908s5.071-4.609,8.9,1.371C3534.939,1736.279,3529.376,1740.389,3526.043,1734.908Z" transform="translate(-3519.619 -1699.78)"/></g><path class="d" d="M3559.694,1684.859l-8.214,43.528a30.693,30.693,0,0,1-30.162,25h-10.583a25.323,25.323,0,0,1-24.7-19.738L3475,1684.859Z" transform="translate(-3440.075 -1531.788)"/><ellipse class="e" cx="42.422" cy="24.114" rx="42.422" ry="24.114" transform="translate(34.93 126.972)"/><ellipse class="f" cx="38.156" cy="21.668" rx="38.156" ry="21.668" transform="translate(39.374 129.85)"/><ellipse class="g" cx="20.281" cy="11.625" rx="20.281" ry="11.625" transform="translate(57.07 146.885)"/><ellipse class="h" cx="11.03" cy="6.27" rx="11.03" ry="6.27" transform="translate(66.321 148.908)"/><g transform="translate(44.067 11.878)"><path class="i" d="M3492.4,1589.332c26.572-24.5,63.347,37.741,29.7,50.333Z" transform="translate(-3478.012 -1579.328)"/><ellipse class="j" cx="17.611" cy="29.696" rx="17.611" ry="29.696" transform="translate(0 17.611) rotate(-30)"/><ellipse class="k" cx="13.719" cy="23.135" rx="13.719" ry="23.135" transform="translate(6.651 21.347) rotate(-30)"/><text class="l" transform="translate(25.086 38.491) rotate(6.295)"><tspan x="0" y="0">$</tspan></text></g><g transform="translate(32.779 54.77)"><path class="i" d="M3478.266,1616.22c12.119-11.175,28.891,17.213,13.543,22.955Z" transform="translate(-3471.705 -1611.658)"/><ellipse class="j" cx="8.032" cy="13.543" rx="8.032" ry="13.543" transform="translate(0 8.032) rotate(-30)"/><ellipse class="k" cx="6.257" cy="10.551" rx="6.257" ry="10.551" transform="translate(3.033 9.736) rotate(-30)"/><text class="m" transform="translate(11.04 17.674) rotate(6.295)"><tspan x="0" y="0">$</tspan></text></g><g transform="translate(98.1 14.098)"><path class="i" d="M3525.4,1585.175c9.207-8.491,21.949,13.077,10.289,17.44Z" transform="translate(-3520.414 -1581.709)"/><ellipse class="j" cx="6.102" cy="10.289" rx="6.102" ry="10.289" transform="translate(0 6.102) rotate(-30)"/><ellipse class="k" cx="4.754" cy="8.016" rx="4.754" ry="8.016" transform="translate(2.304 7.396) rotate(-30)"/><text class="n" transform="translate(8.779 11.364) rotate(6.295)"><tspan x="0" y="0">$</tspan></text></g><g transform="translate(37.974 0)"><path class="i" d="M3479.946,1573.92c6.718-6.194,16.015,9.543,7.507,12.726Z" transform="translate(-3476.308 -1571.391)"/><ellipse class="j" cx="4.452" cy="7.508" rx="4.452" ry="7.508" transform="translate(0 4.452) rotate(-30)"/><ellipse class="k" cx="3.469" cy="5.849" rx="3.469" ry="5.849" transform="translate(1.681 5.397) rotate(-30)"/><text class="o" transform="translate(6.537 8.456) rotate(6.295)"><tspan x="0" y="0">$</tspan></text></g><g transform="translate(29.529 118.288)"><path class="i" d="M3473.7,1661.383c6.718-6.194,16.015,9.542,7.507,12.725Z" transform="translate(-3470.063 -1658.854)"/><ellipse class="j" cx="4.452" cy="7.508" rx="4.452" ry="7.508" transform="translate(0 4.452) rotate(-30)"/><ellipse class="k" cx="3.469" cy="5.849" rx="3.469" ry="5.849" transform="translate(1.682 5.397) rotate(-30)"/><text class="n" transform="translate(6.433 8.601) rotate(6.295)"><tspan x="0" y="0">$</tspan></text></g><g transform="translate(92.135 104.988)"><path class="i" d="M3519.992,1651.549c6.718-6.194,16.015,9.541,7.507,12.726Z" transform="translate(-3516.354 -1649.02)"/><ellipse class="j" cx="4.452" cy="7.508" rx="4.452" ry="7.508" transform="translate(0 4.452) rotate(-30)"/><ellipse class="k" cx="3.469" cy="5.849" rx="3.469" ry="5.849" transform="translate(1.681 5.397) rotate(-30)"/><text class="o" transform="translate(6.133 8.456) rotate(6.295)"><tspan x="0" y="0">$</tspan></text></g><path class="i" d="M3507.8,1625.777v83.768H3504.8V1624.56Z" transform="translate(-3429.572 -1553.039)"/><path class="i" d="M3507.018,1661.729s14.9-24.6,18-31.478h2.179l-7.544,14.184s7.742-1.995,18.676-11.745l2.474,1.04s-13.467,12.258-22.617,13.381l-11.164,17.638Z" transform="translate(-3428.792 -1551.034)"/><path class="i" d="M3498.987,1637.42a59.929,59.929,0,0,0,15.02,38.1v3.937s-7.683-9.755-8.805-13.9c0,0-23.755,1.427-26.509-7.617l1.734-1.266s5.531,7.35,23.136,6.378c0,0-5.36-8.459-7.213-24.429Z" transform="translate(-3438.776 -1548.506)"/><path class="i" d="M3507.018,1684.283s4.629-.581,10.733-6.474l2.33,1.381s19.51-3.625,31.251-21.408l2.84,1.888s-16.395,20.125-34.953,21.507l-12.2,5.87Z" transform="translate(-3428.792 -1541.331)"/><g transform="translate(105.214 96.467)"><g transform="translate(0 0)"><path class="p" d="M3572.752,1658.269l-16.068,12.99-29.711-17.154,14.93-11.1Z" transform="translate(-3526.973 -1643.006)"/><path class="q" d="M3570.787,1658.034l-14.279,11.942-28.368-16.378,13.391-9.927Z" transform="translate(-3526.562 -1642.771)"/></g><text class="r" transform="translate(18.614 12.885) rotate(44.348)"><tspan x="0" y="0">$</tspan></text></g><g transform="translate(17.43 91.748)"><g transform="translate(0 0)"><path class="p" d="M3498.8,1639.516l-3.194,20.414-33.537,7.225,3.617-18.248Z" transform="translate(-3462.067 -1639.516)"/><path class="s" d="M3497.387,1640.287l-2.57,18.437-32.022,6.9,3.264-16.346Z" transform="translate(-3461.809 -1639.244)"/></g><text class="t" transform="translate(14.185 16.676) rotate(2.19)"><tspan x="0" y="0">$</tspan></text></g><g transform="translate(105.214 72.216)"><path class="p" d="M3555.782,1634.616l-10.083,8.2-18.726-10.733,9.371-7.013Z" transform="translate(-3526.973 -1625.074)"/><path class="u" d="M3554.546,1634.471l-8.959,7.541-17.879-10.248,8.4-6.271Z" transform="translate(-3526.715 -1624.926)"/><text class="v" transform="matrix(0.717, 0.697, -0.697, 0.717, 11.34, 6.46)"><tspan x="0" y="0">$</tspan></text></g><g transform="translate(129.787 151.661)"><path class="q" d="M3553.268,1764.272s-5.553-39.744,17.634-71.441c0,0,7.056-2.266,5.039-9.014,0,0-6.745.986-5.524,8.518,0,0-21.78,24.021-18.013,71.938Z" transform="translate(-3542.74 -1683.817)"/><path class="q" d="M3561.4,1698.117s5.207-9.252,13.749-2.328C3575.15,1695.789,3568.979,1704.548,3561.4,1698.117Z" transform="translate(-3539.414 -1680.504)"/><path class="q" d="M3561.857,1703.382s-9.965-3.664-4.492-13.2C3557.365,1690.181,3567,1694.875,3561.857,1703.382Z" transform="translate(-3541.415 -1681.574)"/><path class="q" d="M3556.155,1717s-9.967-3.664-4.491-13.2C3551.664,1703.8,3561.295,1708.494,3556.155,1717Z" transform="translate(-3543.424 -1676.774)"/><path class="q" d="M3554.011,1730.3s-10.281-2.648-5.79-12.686C3548.221,1717.616,3558.273,1721.323,3554.011,1730.3Z" transform="translate(-3544.459 -1671.905)"/><path class="q" d="M3554.574,1741.419s-10.6.553-9.324-10.369C3545.25,1731.05,3555.953,1731.576,3554.574,1741.419Z" transform="translate(-3545.144 -1667.17)"/><path class="q" d="M3556.266,1709.541s5.514-9.074,13.819-1.866C3570.085,1707.675,3563.626,1716.222,3556.266,1709.541Z" transform="translate(-3541.223 -1676.389)"/><path class="q" d="M3553.711,1720.3s5.792-8.9,13.87-1.437C3567.582,1718.865,3560.86,1727.208,3553.711,1720.3Z" transform="translate(-3542.125 -1672.515)"/><path class="q" d="M3551.964,1731.743s5.637-9,13.843-1.677C3565.807,1730.066,3559.231,1738.524,3551.964,1731.743Z" transform="translate(-3542.74 -1668.529)"/></g><g transform="translate(6.884 181.415)"><path class="q" d="M3470.174,1757.751s3.585-25.656-11.382-46.116c0,0-4.555-1.462-3.253-5.818,0,0,4.355.636,3.566,5.5,0,0,14.06,15.506,11.628,46.436Z" transform="translate(-3453.902 -1705.817)"/><path class="q" d="M3463.143,1715.047s-3.361-5.972-8.875-1.5C3454.268,1713.545,3458.251,1719.2,3463.143,1715.047Z" transform="translate(-3454.268 -1703.679)"/><path class="q" d="M3461.822,1718.446s6.432-2.364,2.9-8.52C3464.72,1709.925,3458.5,1712.955,3461.822,1718.446Z" transform="translate(-3451.949 -1704.369)"/><path class="q" d="M3465.5,1727.238s6.433-2.366,2.9-8.522C3468.4,1718.716,3462.184,1721.746,3465.5,1727.238Z" transform="translate(-3450.652 -1701.271)"/><path class="q" d="M3466.943,1735.823s6.636-1.709,3.736-8.189C3470.68,1727.634,3464.191,1730.026,3466.943,1735.823Z" transform="translate(-3450.04 -1698.128)"/><path class="q" d="M3466.844,1743s6.844.357,6.018-6.693C3472.862,1736.306,3465.955,1736.645,3466.844,1743Z" transform="translate(-3449.864 -1695.072)"/><path class="q" d="M3466.47,1722.422s-3.56-5.858-8.921-1.2C3457.549,1721.217,3461.719,1726.735,3466.47,1722.422Z" transform="translate(-3453.112 -1701.023)"/><path class="q" d="M3468.127,1729.368s-3.738-5.743-8.953-.928C3459.174,1728.44,3463.512,1733.826,3468.127,1729.368Z" transform="translate(-3452.539 -1698.522)"/><path class="q" d="M3469.25,1736.752s-3.639-5.807-8.936-1.082C3460.315,1735.671,3464.559,1741.13,3469.25,1736.752Z" transform="translate(-3452.136 -1695.948)"/></g></g></g></svg>