<svg xmlns="http://www.w3.org/2000/svg" viewBox="0 0 177.5 66.43"><defs><style>.cls-1{fill:#fff;}</style></defs><g id="Layer_2" data-name="Layer 2"><g id="Layer_1-2" data-name="Layer 1"><path class="cls-1" d="M102.06,33.76l0-.21h-.24l-.52,0H91.5v3.66h6.78a8.42,8.42,0,0,1-1.94,4A8.62,8.62,0,0,1,91.45,44a9.92,9.92,0,0,1-1.78.17h0a8.86,8.86,0,0,1-8.83-8.85,8.86,8.86,0,0,1,3.54-7,8.75,8.75,0,0,1,5.3-1.77A9,9,0,0,1,95.89,29l0,0,.15.14.3-.18h0l0,0-.06-.06.06,0,1.65-1.62a3.33,3.33,0,0,0,.27-.29h0l.1-.15a.5.5,0,0,0,0-.21v0l0-.13v0l0,0a.62.62,0,0,0-.17-.22l-.22-.2L98,26h0a12.46,12.46,0,0,0-8.09-3.16h0a13.2,13.2,0,0,0-4.16.7,12.38,12.38,0,0,0-8.5,11.79A12.69,12.69,0,0,0,78.07,40a12.53,12.53,0,0,0,11.67,7.88,12,12,0,0,0,5.86-1.51,12.29,12.29,0,0,0,6.43-9,10.69,10.69,0,0,0,.17-1.88,10.43,10.43,0,0,0-.14-1.66Z"/><path class="cls-1" d="M112.89,30.44a8.66,8.66,0,0,0-6.19,2.5,8.27,8.27,0,0,0-2.44,5.87h0a8.26,8.26,0,0,0,2.37,5.87,9.22,9.22,0,0,0,12.52,0,8.26,8.26,0,0,0,2.37-5.81v-.06h0a8.27,8.27,0,0,0-2.44-5.87A8.66,8.66,0,0,0,112.89,30.44Zm3.67,11.91h0l-.08.07a4.91,4.91,0,0,1-7.18,0,5.12,5.12,0,1,1,7.26-.08Z"/><path class="cls-1" d="M127.91,43.64a1.19,1.19,0,0,1-.91-.39h0a2.32,2.32,0,0,1-.45-1.58V23.77h-3.32v18.1h0a5.22,5.22,0,0,0,1.2,3.72,4.22,4.22,0,0,0,3.17,1.2h1.45V43.64h-1.14Z"/><path class="cls-1" d="M155.48,30.32h0a4.28,4.28,0,0,0-3.1,1.13v.15h-.14a3.79,3.79,0,0,0-.49.72l-.16.28-.25-.2a8.9,8.9,0,0,0-11.76.54,8.27,8.27,0,0,0-2.44,5.87h0a8.3,8.3,0,0,0,2.37,5.87,8.7,8.7,0,0,0,6.26,2.45,9,9,0,0,0,4.92-1.38l.41-.27v1.63h3.33V35.45a2.32,2.32,0,0,1,.45-1.58h0a1.17,1.17,0,0,1,.91-.4h1.14V30.32h-1.44Zm-6,12h0l-.08.07a4.91,4.91,0,0,1-7.18,0,5.13,5.13,0,1,1,7.26-.08Z"/><path class="cls-1" d="M176.08,30.32h0a4.19,4.19,0,0,0-3.17,1.2,3.36,3.36,0,0,0-.56.8l-.16.28-.25-.2a8.9,8.9,0,0,0-11.76.54,8.27,8.27,0,0,0-2.44,5.87h0a8.28,8.28,0,0,0,2.37,5.87,8.7,8.7,0,0,0,6.26,2.45,9,9,0,0,0,4.92-1.38l.41-.27v1.63H175V35.45a2.38,2.38,0,0,1,.44-1.58h0a1.17,1.17,0,0,1,.91-.4h1.13V30.32Zm-6.06,12h0l-.08.07a4.91,4.91,0,0,1-7.18,0,5.14,5.14,0,1,1,8.72-3.62A5.28,5.28,0,0,1,170,42.35Z"/><path class="cls-1" d="M135,43.64a1.19,1.19,0,0,1-.91-.39h0a2.32,2.32,0,0,1-.45-1.58V23.77h-3.32v18.1h0a5.22,5.22,0,0,0,1.2,3.72,4.23,4.23,0,0,0,3.18,1.2h1.44V43.64H135Z"/><path class="cls-1" d="M36.58,41.68H32.15V28h.46v0H66a33.21,33.21,0,1,0,.42,5.26c0-.26,0-.52,0-.78H36.58Z"/></g></g></svg>