<svg xmlns="http://www.w3.org/2000/svg" width="159.696" height="41.908" viewBox="0 0 159.696 41.908">
  <g id="Group_562" data-name="Group 562" transform="translate(0)">
    <path id="Path_613" data-name="Path 613" d="M3701.029,2067.9l-.057-.358-.344-.017-.048,0c-.291-.014-.546-.037-.825-.037l-6.012,0c-1.9,0-7.2,0-9.1.013h-.424v6.123l.421.005c.946.012,5.292.016,6.234.016l3.035,0h.139c.213,0,.425,0,.636,0,.105,0,.214.011.326.02h0a14.265,14.265,0,0,1-3.085,6.62,13.616,13.616,0,0,1-7.789,4.76,14.2,14.2,0,0,1-2.83.289h0a13.915,13.915,0,0,1-12.8-8.7,15.569,15.569,0,0,1-1.256-6.1,15.094,15.094,0,0,1,5.642-11.775,13.45,13.45,0,0,1,8.435-2.972,13.993,13.993,0,0,1,9.891,4.221l.031.031.234.229.478-.294.007-.007.011-.006.033-.022.037-.035-.094-.107.1.1c.877-.908,1.75-1.82,2.626-2.725.176-.184.31-.321.429-.472l.006-.009.155-.247a.88.88,0,0,0,.081-.347l0-.066-.052-.219-.014-.059-.029-.052a1.557,1.557,0,0,0-.274-.362c-.1-.1-.211-.2-.358-.333l-.121-.11h-.011c-3.922-3.459-8.252-5.3-12.889-5.3h-.021a20.005,20.005,0,0,0-6.625,1.181,20.628,20.628,0,0,0-13.535,19.726,22.46,22.46,0,0,0,1.414,7.825,19.976,19.976,0,0,0,18.582,13.176,18.562,18.562,0,0,0,9.334-2.514,20.6,20.6,0,0,0,10.228-15.115,18.758,18.758,0,0,0,.267-3.139,18.119,18.119,0,0,0-.214-2.782Z" transform="translate(-3661.427 -2049.596)" fill="#161615"/>
    <path id="Path_614" data-name="Path 614" d="M3702.244,2057.224a13.46,13.46,0,0,0-9.857,4.167,14.212,14.212,0,0,0-3.877,9.823v.021a14.175,14.175,0,0,0,3.772,9.82,14.136,14.136,0,0,0,19.926,0,14.173,14.173,0,0,0,3.768-9.725v-.087l0-.013v-.014a14.213,14.213,0,0,0-3.88-9.825A13.458,13.458,0,0,0,3702.244,2057.224Zm5.839,19.914v.012l-.122.13a7.566,7.566,0,0,1-11.432,0,8.924,8.924,0,0,1-2.44-6.064,8.175,8.175,0,1,1,16.313,0A8.931,8.931,0,0,1,3708.083,2077.137Z" transform="translate(-3645.401 -2044.464)" fill="#161615"/>
    <path id="Path_615" data-name="Path 615" d="M3714.937,2083.787a1.837,1.837,0,0,1-1.449-.656l0,0a4.055,4.055,0,0,1-.713-2.652v-29.922h-5.3v30.28c0,2.765.667,4.839,1.922,6.225a6.552,6.552,0,0,0,5.048,2h2.3v-5.273h-1.81Z" transform="translate(-3634.178 -2048.954)" fill="#161615"/>
    <path id="Path_616" data-name="Path 616" d="M3750.582,2057.1h-.017a6.6,6.6,0,0,0-4.928,1.887v.256h-.225a6.513,6.513,0,0,0-.783,1.2l-.246.474-.4-.341a13.705,13.705,0,0,0-18.725.9,14.219,14.219,0,0,0-3.877,9.824v.013h0a14.187,14.187,0,0,0,3.772,9.825,13.474,13.474,0,0,0,9.963,4.107,13.779,13.779,0,0,0,7.823-2.32l.656-.446v2.733h5.3v-19.524a4.064,4.064,0,0,1,.711-2.653l.006,0a1.83,1.83,0,0,1,1.447-.654h1.813V2057.1h-2.291Zm-9.624,20.119v.012l-.123.13a7.566,7.566,0,0,1-11.431,0,8.925,8.925,0,0,1-2.441-6.064,8.175,8.175,0,1,1,16.313,0A8.935,8.935,0,0,1,3740.958,2077.22Z" transform="translate(-3625.949 -2044.545)" fill="#161615"/>
    <path id="Path_617" data-name="Path 617" d="M3771.191,2057.1h-.039a6.555,6.555,0,0,0-5.045,2,6.35,6.35,0,0,0-.891,1.338l-.247.474-.4-.344a13.7,13.7,0,0,0-18.722.9,14.217,14.217,0,0,0-3.879,9.824v.024h0a14.183,14.183,0,0,0,3.773,9.815,13.471,13.471,0,0,0,9.965,4.107,13.777,13.777,0,0,0,7.82-2.32l.657-.444v2.731h5.3v-19.524a4.064,4.064,0,0,1,.714-2.653l0,0a1.832,1.832,0,0,1,1.447-.654h1.812V2057.1Zm-9.644,20.119v.012l-.122.13a7.569,7.569,0,0,1-11.434,0,8.947,8.947,0,0,1-2.44-6.064,8.174,8.174,0,1,1,16.312,0A8.936,8.936,0,0,1,3761.547,2077.22Z" transform="translate(-3613.764 -2044.545)" fill="#161615"/>
    <path id="Path_618" data-name="Path 618" d="M3721.987,2083.787a1.837,1.837,0,0,1-1.449-.656l0,0a4.061,4.061,0,0,1-.711-2.652l0-29.922h-5.3v30.279c0,2.767.671,4.84,1.922,6.226a6.558,6.558,0,0,0,5.05,2h2.3v-5.273h-1.812Z" transform="translate(-3630.006 -2048.954)" fill="#161615"/>
  </g>
</svg>
