<svg xmlns="http://www.w3.org/2000/svg" width="340.669" height="232.489" viewBox="0 0 340.669 232.489"><defs><style>.a,.f{fill:#007b40;}.a,.d{opacity:0.7;}.b{fill:#145629;}.c{fill:#5faf42;}.d,.e{fill:#5dbc58;}.f{opacity:0.5;}</style></defs><g transform="translate(20654.146 -21863.58)"><path class="a" d="M20.481,23.235C14.2,33.173.816,35.987.816,35.987s-3.2-13.3,3.08-23.235S23.141.664,23.561,0C23.561,0,26.762,13.3,20.481,23.235Z" transform="translate(-20349.287 21960.938) rotate(79)"/><path class="b" d="M172.227,3885.432h46.566s-28.781-43.261-16.665-91.171c3.655-14.454,14.793-46.565,64.7-47.546,0,0,44.115-1.96,63.231,42.645,0,0,17.156,43.135-13.724,96.072h45.1s-33.822-55.388-11.274-101.955c0,0,11.764-33.444,57.84-36.819v-8.767s-45.1.98-64.7,41.174c0,0-6.372-47.546,52.448-67.643l-3.431-8.333s-37.742,11.764-50,40.193c0,0,0-36.763,31.861-58.82l-7.353-5.882s-26.469,20.1-27.939,38.232c0,0-19.116-50.486-72.054-50.486,0,0-51.467-2.451-70.094,51.467,0,0-15.195-33.332-32.351-39.213l-5.391,5.882s33.821,19.117,31.86,58.33c0,0-18.136-34.311-50.487-39.213l-3.921,7.842s54.408,10.784,54.9,67.153c0,0-21.077-39.213-63.721-40.684v10.294s50-1.961,61.76,53.918C189.382,3802.1,197.715,3837.4,172.227,3885.432Z" transform="translate(-20752.633 18210.637)"/><g transform="translate(-20507.338 21986.488)"><path class="c" d="M421.545,3907.346h18.515c-.456-10.708-8.28-20.5-18.515-22.558Z" transform="translate(-395.076 -3884.724)"/><path class="c" d="M386.691,3907.281v-22.622c-10.414,1.893-18.422,11.787-18.883,22.622Z" transform="translate(-367.759 -3884.658)"/><rect class="c" width="18.565" height="17.83" transform="translate(26.469 30.158)"/><rect class="c" width="18.933" height="17.83" transform="translate(0 30.158)"/></g><path class="a" d="M20.481,23.235C14.2,33.173.816,35.987.816,35.987s-3.2-13.3,3.08-23.235S23.141.664,23.561,0C23.561,0,26.762,13.3,20.481,23.235Z" transform="translate(-20353.455 21923.574) rotate(-4)"/><path class="d" d="M20.481,23.235C14.2,33.173.816,35.987.816,35.987s-3.2-13.3,3.08-23.235S23.141.664,23.561,0C23.561,0,26.762,13.3,20.481,23.235Z" transform="translate(-20318.129 21944.078) rotate(79)"/><path class="a" d="M12.444,14.117C8.628,20.154.5,21.864.5,21.864S-1.449,13.786,2.367,7.747,14.06.4,14.315,0C14.315,0,16.26,8.079,12.444,14.117Z" transform="translate(-20371.066 21929.059) rotate(62)"/><path class="a" d="M12.444,14.117C8.628,20.154.5,21.864.5,21.864S-1.449,13.786,2.367,7.747,14.06.4,14.315,0C14.315,0,16.26,8.079,12.444,14.117Z" transform="translate(-20412.488 21894.289) rotate(-34)"/><path class="a" d="M12.444,14.117C8.628,20.154.5,21.864.5,21.864S-1.449,13.786,2.367,7.747,14.06.4,14.315,0C14.315,0,16.26,8.079,12.444,14.117Z" transform="translate(-20577.684 21895.969) rotate(-34)"/><path class="d" d="M12.444,14.117C8.628,20.154.5,21.864.5,21.864S-1.449,13.786,2.367,7.747,14.06.4,14.315,0C14.315,0,16.26,8.079,12.444,14.117Z" transform="translate(-20351.59 21907.748) rotate(62)"/><path class="a" d="M16.791,19.048C11.642,27.2.669,29.5.669,29.5S-1.956,18.6,3.194,10.454,18.971.544,19.315,0C19.315,0,21.94,10.9,16.791,19.048Z" transform="translate(-20400.236 21875.043) rotate(-35)"/><path class="a" d="M16.791,19.048C11.642,27.2.669,29.5.669,29.5S-1.956,18.6,3.194,10.454,18.971.544,19.315,0C19.315,0,21.94,10.9,16.791,19.048Z" transform="matrix(0.559, -0.829, 0.829, 0.559, -20610.359, 21881.432)"/><path class="e" d="M26.17,28.392c0,15.68-13.085,28.392-13.085,28.392S0,44.072,0,28.392,13.085,1.048,13.085,0C13.085,0,26.17,12.711,26.17,28.392Z" transform="matrix(0.719, -0.695, 0.695, 0.719, -20654.146, 21893.971)"/><path class="e" d="M17.294,18.762c0,10.362-8.647,18.762-8.647,18.762S0,29.124,0,18.762,8.647.692,8.647,0C8.647,0,17.294,8.4,17.294,18.762Z" transform="translate(-20600.975 21908.818) rotate(-20)"/><path class="f" d="M12.794,3.908C2.824,10.21,0,23.638,0,23.638s13.341,3.211,23.311-3.09S35.439,1.239,36.1.819C36.1.819,22.764-2.394,12.794,3.908Z" transform="matrix(0.883, 0.469, -0.469, 0.883, -20597.313, 21963.256)"/><path class="f" d="M12.794,3.908C2.824,10.21,0,23.638,0,23.638s13.341,3.211,23.311-3.09S35.439,1.239,36.1.819C36.1.819,22.764-2.394,12.794,3.908Z" transform="matrix(0.883, 0.469, -0.469, 0.883, -20632.855, 21938.424)"/></g></svg>