<svg id="Gollaa_logo" data-name="Gollaa logo" xmlns="http://www.w3.org/2000/svg" width="262.534" height="98.252" viewBox="0 0 262.534 98.252">
  <g id="Group_4141" data-name="Group 4141" transform="translate(114.149 33.746)">
    <path id="Path_6876" data-name="Path 6876" d="M5783.8,4546.354l-.052-.316-.32-.015h-.044c-.271-.012-.508-.031-.769-.032l-5.585,0c-1.761,0-6.688,0-8.451.011h-.395v5.415l.392,0c.879.01,4.917.014,5.793.014l2.82,0h.721c.1,0,.2.012.3.018h0a12.3,12.3,0,0,1-2.866,5.852,12.757,12.757,0,0,1-7.238,4.209,13.684,13.684,0,0,1-2.629.256h0a12.941,12.941,0,0,1-11.891-7.693,12.976,12.976,0,0,1,4.074-15.8,12.905,12.905,0,0,1,7.836-2.628,13.341,13.341,0,0,1,9.191,3.731l.03.027.216.2.442-.26.009,0,.011-.007.029-.02.034-.031-.088-.093.1.088q1.222-1.206,2.439-2.41c.163-.161.288-.283.4-.417l0-.007.144-.22a.776.776,0,0,0,.075-.306l0-.06-.05-.194-.015-.051-.024-.045a1.385,1.385,0,0,0-.256-.32c-.095-.092-.2-.176-.332-.294l-.112-.1h-.011a18.414,18.414,0,0,0-11.977-4.686h-.018a19.443,19.443,0,0,0-6.156,1.044,18.284,18.284,0,0,0-12.576,17.44,19.022,19.022,0,0,0,1.313,6.917,18.539,18.539,0,0,0,17.267,11.649,17.906,17.906,0,0,0,8.672-2.224,18.211,18.211,0,0,0,9.5-13.362,15.745,15.745,0,0,0,.248-2.775,15.289,15.289,0,0,0-.2-2.458Z" transform="translate(-5747.008 -4530.169)" fill="#1a1818"/>
    <path id="Path_6877" data-name="Path 6877" d="M5788.074,4538.14a12.814,12.814,0,0,0-9.16,3.685,12.245,12.245,0,0,0-3.6,8.684v.019a12.209,12.209,0,0,0,3.505,8.682,13.614,13.614,0,0,0,18.516,0,12.189,12.189,0,0,0,3.5-8.6v-.078l0-.011v-.012a12.248,12.248,0,0,0-3.6-8.687A12.822,12.822,0,0,0,5788.074,4538.14Zm5.424,17.605v.012l-.113.116a7.274,7.274,0,0,1-10.624,0,7.708,7.708,0,0,1-2.267-5.36,7.579,7.579,0,1,1,13,5.234Z" transform="translate(-5735.255 -4526.858)" fill="#1a1818"/>
    <path id="Path_6878" data-name="Path 6878" d="M5802.064,4560.55a1.733,1.733,0,0,1-1.345-.581l0,0a3.463,3.463,0,0,1-.662-2.344v-26.455h-4.923v26.771a7.738,7.738,0,0,0,1.787,5.5,6.264,6.264,0,0,0,4.691,1.771h2.14v-4.663h-1.684Z" transform="translate(-5727.025 -4529.754)" fill="#1a1818"/>
    <path id="Path_6879" data-name="Path 6879" d="M5836.8,4538.012h-.015a6.306,6.306,0,0,0-4.58,1.669v.225h-.208a5.7,5.7,0,0,0-.728,1.059l-.229.419-.369-.3a13.21,13.21,0,0,0-17.4.8,12.244,12.244,0,0,0-3.6,8.684v.013h0a12.2,12.2,0,0,0,3.506,8.686,12.833,12.833,0,0,0,9.259,3.631,13.285,13.285,0,0,0,7.266-2.052l.609-.393v2.415h4.924V4545.6a3.461,3.461,0,0,1,.662-2.343l0,0a1.742,1.742,0,0,1,1.345-.578h1.683v-4.663H5836.8Zm-8.941,17.786v.011l-.114.116a7.274,7.274,0,0,1-10.623,0,7.585,7.585,0,1,1,10.737-.126Z" transform="translate(-5720.99 -4526.912)" fill="#1a1818"/>
    <path id="Path_6880" data-name="Path 6880" d="M5858.332,4538.012h-.036a6.254,6.254,0,0,0-4.688,1.771,5.6,5.6,0,0,0-.826,1.182l-.228.419-.371-.3a13.21,13.21,0,0,0-17.4.8,12.252,12.252,0,0,0-3.6,8.684v.023h0a12.216,12.216,0,0,0,3.506,8.678,12.837,12.837,0,0,0,9.259,3.631,13.288,13.288,0,0,0,7.267-2.052l.61-.392v2.414h4.922V4545.6a3.472,3.472,0,0,1,.662-2.343l0,0a1.742,1.742,0,0,1,1.345-.578h1.684v-4.663Zm-8.961,17.786v.011l-.113.116a7.276,7.276,0,0,1-10.625,0,7.708,7.708,0,0,1-2.267-5.361,7.579,7.579,0,1,1,13,5.235Z" transform="translate(-5712.055 -4526.912)" fill="#1a1818"/>
    <path id="Path_6881" data-name="Path 6881" d="M5809.432,4560.55a1.738,1.738,0,0,1-1.346-.581l0,0a3.469,3.469,0,0,1-.661-2.344v-26.455H5802.5v26.77a7.743,7.743,0,0,0,1.786,5.505,6.269,6.269,0,0,0,4.692,1.771h2.139v-4.663h-1.683Z" transform="translate(-5723.965 -4529.754)" fill="#1a1818"/>
  </g>
  <g id="Group_4142" data-name="Group 4142">
    <path id="Path_6882" data-name="Path 6882" d="M5720.45,4567.966H5713.9V4547.7h.676v-.026h49.409a49.128,49.128,0,1,0,.618,7.771c0-.383-.019-.761-.03-1.142H5720.45Z" transform="translate(-5666.351 -4506.324)" fill="#1a1818"/>
  </g>
</svg>
