<svg xmlns="http://www.w3.org/2000/svg" width="350.708" height="361.166" viewBox="0 0 350.708 361.166"><defs><style>.a{fill:rgba(124,178,53,0.65);}.b,.n,.s,.u{fill:none;}.b{stroke:#feae24;}.b,.s,.u{stroke-linecap:round;stroke-linejoin:round;}.c{fill:#05acb2;}.d{fill:#fa4985;}.e{fill:#1f3da4;}.f{fill:#87cd92;}.g{fill:#f7d16e;}.h{fill:#41b4ba;}.i{fill:#8cc63f;}.j{fill:#faa778;}.k{fill:#e26928;}.l{fill:#6b3232;}.m{fill:#b28716;}.o{fill:#fbd063;}.p{fill:#145e59;}.q{fill:#1b746e;}.r{fill:#f6c957;}.s{stroke:#ea8c5e;}.s,.u{stroke-width:0.5px;}.t{fill:#2b1100;}.u{stroke:#db8572;}.v{fill:#fff;}</style></defs><g transform="translate(-1454.698 -165.884)"><ellipse class="a" cx="42.894" cy="2.983" rx="42.894" ry="2.983" transform="translate(1454.698 521.084)"/><g transform="translate(1474.095 165.884)"><g transform="translate(0 0)"><path class="b" d="M2694.39,174.1c3.385,0,4.415,13.444-.909,11.321,0,0-8.178-3.008-5.566-5.354,2.942-2.644,7.284,5.74,5,9.819a5.07,5.07,0,0,1-9.345-1.737" transform="translate(-2455.197 -79.108)"/><path class="c" d="M2594.681,44.363c-.343-.751-1.285-.679-3.865.844-3.336,1.97-4.048,3.083-4.048,3.083S2595.806,46.818,2594.681,44.363Z" transform="translate(-2410.731 -19.302)"/><path class="d" d="M2419.25,47.055l-4.418,1.2.643-3.865A9.6,9.6,0,0,1,2419.25,47.055Z" transform="translate(-2331.753 -19.527)"/><path class="e" d="M2361.972,206.709l2.9,5.154-6.548,2.469S2357.678,208,2361.972,206.709Z" transform="translate(-2305.78 -94.089)"/><ellipse class="f" cx="1.892" cy="4.388" rx="1.892" ry="4.388" transform="translate(21.136 86.607) rotate(-60)"/><path class="g" d="M2320.058,79.39s.4,3.221-3.221,2.576l-7.174-6.6s-.637-4.509,3.631-4.187Z" transform="translate(-2283.429 -31.826)"/><path class="e" d="M2754.348,148.623l-4.658-3.64,5.093-4.8S2757.816,145.78,2754.348,148.623Z" transform="translate(-2485.568 -63.531)"/><ellipse class="f" cx="1.892" cy="4.388" rx="1.892" ry="4.388" transform="matrix(0.128, -0.992, 0.992, 0.128, 220.839, 53.5)"/><path class="g" d="M2779.058,236.943s-1.613-2.817,1.979-3.618l9.163,3.331s2.323,3.917-1.739,5.262Z" transform="translate(-2498.893 -106.315)"/><g transform="translate(123.533)"><path class="g" d="M2501.056-1.3s-3.819-1.535-2.74,2.448,1.12,9.42-4.025,9.67c0,0,6.765,2.615,8.508-4.814C2502.8,6,2503.877,2.64,2501.056-1.3Z" transform="translate(-2491.784 1.593)"/><path class="h" d="M2492.162,12.04c-.626-.63-2.24-1.287-2.488,1.2s2.488,3.569,2.488,3.569a3.859,3.859,0,0,0,4.143-2.8A5.662,5.662,0,0,1,2492.162,12.04Z" transform="translate(-2489.657 -4.404)"/></g><g transform="translate(23.613 135.603)"><path class="g" d="M2316.243,249.51s-3.818-1.536-2.739,2.449,1.12,9.42-4.025,9.669c0,0,6.764,2.615,8.507-4.813C2317.986,256.814,2319.065,253.452,2316.243,249.51Z" transform="translate(-2306.973 -249.219)"/><path class="h" d="M2307.35,262.853c-.627-.63-2.241-1.286-2.489,1.2s2.489,3.569,2.489,3.569a3.858,3.858,0,0,0,4.142-2.8A5.66,5.66,0,0,1,2307.35,262.853Z" transform="translate(-2304.845 -255.216)"/></g><path class="i" d="M2268.484,242.609l4.563-2.794s6.054,3.539,6.519,9.5l-3.073,3.956A24.58,24.58,0,0,0,2268.484,242.609Z" transform="translate(-2264.53 -109.296)"/><g transform="translate(0 94.855)"><g transform="translate(0 225.638)"><rect class="j" width="6.826" height="10.322" transform="translate(25.882 4.659) rotate(-43.041)"/><path class="k" d="M2265.247,599.192l19.09,20.442s11.82-8.077,11.632-12.913l-7.045-7.544s-10.784,1.869-11.757,2.778C2277.167,601.955,2268.4,596.472,2265.247,599.192Z" transform="translate(-2263.043 -594.518)"/><path class="l" d="M2263.256,599.626s-2.957-1.04-1.831,1.709c1.817,4.437,18.7,20.422,18.7,20.422s2.327.673,2.216-1.688Z" transform="translate(-2261.169 -594.977)"/></g><g transform="translate(236.385 157.489)"><rect class="k" width="6.826" height="10.322" transform="matrix(0.735, -0.678, 0.678, 0.735, 0, 19.214)"/><path class="k" d="M2738.342,488.923l-18.967-20.557s-11.868,8-11.71,12.842l7,7.586s10.794-1.8,11.774-2.707C2726.438,486.088,2735.17,491.623,2738.342,488.923Z" transform="translate(-2702.648 -466.623)"/><path class="k" d="M2748.508,487.467s2.95,1.058,1.842-1.7c-1.79-4.448-18.58-20.535-18.58-20.535s-2.323-.686-2.227,1.675Z" transform="translate(-2712.697 -465.142)"/></g><path class="k" d="M2515.174,178.839l-9.387-3.174-8.333,19.482a55.75,55.75,0,0,1-7.017,9.111,63.528,63.528,0,0,1-10.4,9.092,32.841,32.841,0,0,0-10.732,10.486c-3.931,6.635-9.666,7.045-6.8,1.8,0,0-19.692-36.223-23.461-51.787l-8.8,3.539,11.124,41.531s8.192,16.3,13.516,20.479c0,0-10.4,14.171,1.8,24.247a194.289,194.289,0,0,0,5.53,34.043s32.315-9.058,37.885-10.2c0,0-10.483-27.687-10.648-32.275s.246-18.185,4.014-22.609,6.552-12.779,13.025-20.642a17.056,17.056,0,0,0,3.521-9.5S2514.765,185.368,2515.174,178.839Z" transform="translate(-2338.833 -173.85)"/><path class="m" d="M2636.276,338.952l-.562-15.2s-47.219,1.871-32.11,4.15c.67.1,6.244.746,11.863,1.092,12.276.756,12.484,4.243,5.831,4.15-26.28-.363-30.458-1.093-79.825-4.806,0,0,1.807,6.352,3.495,10.823C2544.967,339.166,2560.259,335.476,2636.276,338.952Z" transform="translate(-2389.924 -242.708)"/><path class="n" d="M2648.8,326.014v6.372s36.89,3.207,20.5-2.842C2669.3,329.544,2652.339,330.28,2648.8,326.014Z" transform="translate(-2439.224 -243.746)"/><path class="o" d="M2650.626,329.851a8.477,8.477,0,0,0,.055,5.461s25.5,2.239,24.91-.513c0,0,.975-2.382-11.538-3.092C2664.054,331.708,2653.249,331.107,2650.626,329.851Z" transform="translate(-2439.882 -245.508)"/><path class="p" d="M2532.348,457.334l-49.8,27.742A11.374,11.374,0,0,1,2469,486.387s-25.122-11.578-48.277-50.242L2398.88,448.6s-13.543,8.738-22.28,17.912c0,0-.656,9.83-13.981,17.913l-39.974,22.718-7.427-7.645L2360,454.931s32.548-41.941,48.276-51.552l38.01-14.417s3.712,11.8.873,19.66c0,0,6.335,25.557,30.363,49.8a133.863,133.863,0,0,1,44.344-10.376Z" transform="translate(-2285.996 -272.66)"/><path class="q" d="M2446.282,388.962s13.434,29.283-25.559,47.183c0,0-29.761,15.3-44.124,30.363,0,0-1,11.627-16.609,19.406l-37.346,21.224-7.427-7.645L2360,454.931s36.645-46.189,48.276-51.552Z" transform="translate(-2285.996 -272.66)"/><path class="r" d="M2694.053,374.3s-32.109-34.514-36.479-56.576c0,0-3.24,21.336-48.478,18.46-.353-.022-10.923-.457-11.278-.482-46.091-3.277-91.186-3.124-115.434,11.949,0,0-1.092,16.383,4.587,21.189,0,0,44.563-6.335,72.3-2.4S2671.773,393.519,2694.053,374.3Z" transform="translate(-2362.744 -239.936)"/></g><path class="j" d="M2424.262,136.817l-2-14.667s-.345-1.38-1.174-.414l.137,4.417s-.242.483-.378,0-.726-6.73-.726-6.73-.587-1.346-1.69,0l.414,6.522s-.38.38-.414-.1-1.449-7.765-1.449-7.765-1-.828-1.313.31,1.035,7.523,1.035,7.523-.206.587-.551.172-2.313-6.971-2.313-6.971-1.242-.759-1.552.483,3.141,10.319,1.242,10.526-5.418.345-5.418.345-1.518.621.276,1.657,6.281.587,8.11,8.282Z" transform="translate(-2328.39 -53.243)"/><path class="j" d="M2570.091,152.513l5.718-15.436a19.248,19.248,0,0,1,7.094,3.071s2.894-6.779,8.055-9.3a1.062,1.062,0,0,0-.769-1.94s-2.224.14-5.53,4.174c-.186.227-1.142.735-.021-1.172,1.069-1.818,4.651-3.959,5.766-4.439.872-.376,2.762-2.707-.429-3.774s-8.11,1.476-10.892,5.062a18.422,18.422,0,0,0-3.274,8.321s5.164,1.26,7.094,3.071l-3.424,15.539Z" transform="translate(-2403.071 -55.844)"/><path class="s" d="M2601.124,124.277s-3.239-.185-6.948,2.8" transform="translate(-2414.134 -56.223)"/><path class="s" d="M2604.536,126.474a9.974,9.974,0,0,0-6.051,2.136" transform="translate(-2416.114 -57.232)"/><path class="j" d="M2581.291,145.58l-1.888,5.568,6.856,2.025,1.933-7.592Z" transform="translate(-2407.348 -66.01)"/><path class="j" d="M2424.132,156.574l3.3,11.231,8.8-3.539-4.338-11.281Z" transform="translate(-2336.026 -69.411)"/><path class="j" d="M2484.677,227.544s-3.345-4.265-3.159-6.78c0,0-1.118-21.234-20.583-27.1,0,0-4.378.935-3.445,12.3l-2.667,7.119s-1.637,2.316,1.623,3.154l1.044,5.587s.838,3.7,4.376,3.788a52.764,52.764,0,0,0,6.705-.279l3.818,10.244-.092,5.122s4.809-.356,8.754-6.519S2484.677,227.544,2484.677,227.544Z" transform="translate(-2349.934 -88.096)"/><circle class="t" cx="1.229" cy="1.229" r="1.229" transform="translate(110.982 119.732)"/><path class="t" d="M2468.9,213.485a5.389,5.389,0,0,0-1.892.358s-.76-.191-.207-.9a2.868,2.868,0,0,1,2.179,0S2469.344,213.462,2468.9,213.485Z" transform="translate(-2355.938 -96.309)"/><path class="u" d="M2463.48,242.142s2.03,2.309,4.059-.87" transform="translate(-2356.262 -109.965)"/><path class="t" d="M2468.63,185.218c-3.921-1.762-7.749.811-10-4.415s11.174-16.941,21.445-13.967,14.847,8.315,27.663,12.752,14.8,5.99,25.592,6.8,6.259-.013,17.578-3.557c0,0,11.783-2.608,16.032,9.684,0,0-.264,6.964-4.053,8.38s-5.322,6.523-3.825,9.257.94,10.131-5.26,12.5-11.788-1.522-11.788-1.522-8.446-6.728-11.116-.41c0,0-7.423,10.5-15.99,7.588s-4.337-.75-11.8-7.049c0,0-6.782-4.972-11.791-3.364l-5.384-1.23s-7.231-2.613-10.093-7.749-.27-6.33-2.072-12.255S2470.867,186.223,2468.63,185.218Z" transform="translate(-2351.756 -75.555)"/><path class="k" d="M2508.787,222.118a29.488,29.488,0,0,1,6.438-7.486c3.675-2.769,17.066-13.84,19.816-21.474,1.472-4.087,6.891-15.951,6.891-15.951s8.17,1.016,9.387,3.174c2.971,5.267-5.229,23.616-5.229,23.616s-.363,7.483-5.468,12.027l-6.785,11.308-5.554,8.864Z" transform="translate(-2374.911 -80.537)"/></g><g transform="translate(119.773 185.34)"><path class="v" d="M3995.712,7.484h-.533V4.98h.056v0h4.012c-.346-3.312-2.393-5.567-4.57-5.038s-3.659,3.643-3.31,6.954,2.394,5.567,4.571,5.038c1.936-.471,3.36-3.011,3.361-5.994,0-.047,0-.094,0-.141h-3.584Z" transform="translate(-3991.316 0.138)"/></g></g></g></svg>