<svg xmlns="http://www.w3.org/2000/svg" width="104.121" height="102.508" viewBox="0 0 104.121 102.508"><defs><style>.a,.b{fill:#5faf42;}.a,.c{isolation:isolate;}.c,.d{fill:#dad800;}</style></defs><g transform="translate(21535.342 -21848.492)"><ellipse class="a" cx="9.046" cy="9.046" rx="9.046" ry="9.046" transform="translate(-21492.236 21848.492)"/><ellipse class="a" cx="8.511" cy="8.51" rx="8.511" ry="8.51" transform="translate(-21451.494 21913.492)"/><ellipse class="a" cx="8.511" cy="8.51" rx="8.511" ry="8.51" transform="translate(-21532.092 21913.492)"/><path class="b" d="M10973.676,6578.519a12.5,12.5,0,0,0-12.5,12.5h25A12.5,12.5,0,0,0,10973.676,6578.519Z" transform="translate(-32456.867 15290.613)"/><path class="b" d="M10898.045,6696.647a11.761,11.761,0,0,0-11.763,11.762h23.525A11.762,11.762,0,0,0,10898.045,6696.647Z" transform="translate(-32421.625 15236.005)"/><path class="b" d="M11047.492,6696.647a11.763,11.763,0,0,0-11.764,11.762h23.525A11.763,11.763,0,0,0,11047.492,6696.647Z" transform="translate(-32490.477 15236.006)"/><path class="c" d="M11021.769,6559.014h0a1.764,1.764,0,0,0,.858,2.416c5.681,2.52,23.431,12.038,24.487,32.942a.3.3,0,0,1-.528.217l-1.52-1.673a1.926,1.926,0,0,0-2.913.072h0a1.926,1.926,0,0,0,.152,2.612l6.657,6.4a1.329,1.329,0,0,0,1.86-.019l6.239-6.24a2.239,2.239,0,0,0,0-3.166h0a2.238,2.238,0,0,0-3.232.069l-1.8,1.963a.3.3,0,0,1-.524-.175c-.391-4.207-3.568-26.546-27.494-36.246A1.772,1.772,0,0,0,11021.769,6559.014Z" transform="translate(-32488.939 15301.422)"/><path class="c" d="M10909.3,6600.522h0a1.763,1.763,0,0,0,1.866-1.757c.021-6.214,1.594-26.294,20.3-35.672a.3.3,0,0,1,.413.4l-.92,2.065a1.926,1.926,0,0,0,1.238,2.638h0a1.925,1.925,0,0,0,2.328-1.191l3.182-8.67a1.33,1.33,0,0,0-.766-1.7l-8.223-3.2a2.238,2.238,0,0,0-2.9,1.274h0a2.239,2.239,0,0,0,1.363,2.933l2.522.859a.3.3,0,0,1,.05.55c-3.693,2.049-22.866,13.947-22.119,39.754A1.77,1.77,0,0,0,10909.3,6600.522Z" transform="translate(-32436.439 15303.621)"/><path class="d" d="M10956.342,6706.324l9.111-3.333a1.82,1.82,0,0,1,2.245.877l.118.23a1.82,1.82,0,0,1-.721,2.416l-2.428,1.377s17.185,3.114,26.6-2.321a1.782,1.782,0,0,1,2.629.855l0,.012a1.82,1.82,0,0,1-.81,2.3c-3.818,2.08-15.056,6.93-29.979,2.054l.838,2.872a1.822,1.822,0,0,1-1.016,2.177l-.691.3a1.821,1.821,0,0,1-2.372-.876l-3.884-8.057A.645.645,0,0,1,10956.342,6706.324Z" transform="translate(-32458.691 15234.702)"/></g></svg>