<svg xmlns="http://www.w3.org/2000/svg" xmlns:xlink="http://www.w3.org/1999/xlink" width="263.999" height="263.998" viewBox="0 0 263.999 263.998"><defs><style>.a{fill:none;}.b{fill:#b7ee6f;}.c{fill:#cec41d;}.d{fill:#7f4700;}.e{fill:#5dbc58;}.f{clip-path:url(#a);}.g{fill:#5faf42;}.h{fill:#e3bd8c;}.i{fill:#deb783;}.j{fill:#f5792f;}.k{fill:#11494c;}.l{fill:#eec693;}.m{fill:#ffe815;}</style><clipPath id="a"><circle class="a" cx="131.999" cy="131.999" r="131.999"/></clipPath></defs><g transform="translate(19106 -20937.809)"><circle class="b" cx="131.999" cy="131.999" r="131.999" transform="translate(-19106 20937.809)"/><path class="c" d="M1129.2,5577.35a19.461,19.461,0,0,1-16.247-12.666c-.841-2.275-2.038-5.193,3.407-9.084,1.979-1.415,6.066-4.269,6.289-7.425.259-3.651,2.672-10.376,10.57-10.133,4.217.13,8.381-.318,13.015,10.744.515,1.229.853,2.6,0,5.329a6.807,6.807,0,0,0,.5,5.416C1149.74,5565.013,1145.971,5579.271,1129.2,5577.35Z" transform="translate(-20095.822 15466.609)"/><path class="d" d="M1150.1,5629.246h4.083l-.766-23.061,3.956-6.114h-1.531l-2.106,2.795v-6.289l2.616-7.512h-1.787l-1.659,5.939-2.807-7.337h-1.276l3.318,9.259-.766,8.56-3.318-5.066v-9.259l-1.914,1.4.893,6.813-3.445-3.843-.893,1.048,8.422,13.1Z" transform="translate(-20115.91 15433.898)"/><path class="e" d="M1244.129,5564.875a16.788,16.788,0,0,1-14.015-10.926c-.726-1.963-1.757-4.48,2.939-7.836,1.707-1.221,5.232-3.683,5.425-6.405.223-3.149,2.305-8.951,9.117-8.74,3.638.112,7.23-.275,11.227,9.268a5.944,5.944,0,0,1,0,4.6,5.871,5.871,0,0,0,.435,4.672C1261.847,5554.232,1258.6,5566.532,1244.129,5564.875Z" transform="translate(-20173.107 15471.271)"/><path class="d" d="M1262.158,5609.639h3.522l-.661-19.893,3.412-5.274h-1.321l-1.816,2.411v-5.425l2.256-6.48h-1.541l-1.431,5.124-2.422-6.33h-1.1l2.862,7.987-.66,7.384-2.862-4.37v-7.987l-1.651,1.206.771,5.877-2.972-3.315-.771.9,7.265,11.3Z" transform="translate(-20190.436 15443.056)"/><path class="e" d="M888.026,5491.692a21.555,21.555,0,0,1-18-14.029c-.932-2.52-2.257-5.752,3.773-10.062,2.192-1.567,6.719-4.728,6.966-8.224.286-4.044,2.96-11.494,11.707-11.223,4.671.144,9.283-.353,14.416,11.9.57,1.36.945,2.883,0,5.9a7.536,7.536,0,0,0,.559,6C910.778,5478.027,906.6,5493.821,888.026,5491.692Z" transform="translate(-19935.664 15525.854)"/><path class="d" d="M911.178,5549.173H915.7l-.848-25.542,4.382-6.773h-1.7l-2.332,3.1v-6.966l2.9-8.321h-1.979l-1.838,6.579-3.109-8.127h-1.413l3.675,10.256-.848,9.482-3.675-5.612v-10.256l-2.12,1.548.99,7.547-3.816-4.257-.989,1.161,9.329,14.513Z" transform="translate(-19957.914 15489.622)"/><g transform="translate(-19106 20937.809)"><g class="f" transform="translate(0 0)"><path class="g" d="M1182.412,5616.17s2.967-5.673,15.146-6.051c0,0,5.777.252,9.056-4.034s12.491-7.564,27.012-5.547c0,0,11.555,1.891,16.239-4.413,0,0,9.368-9.455,29.823-4.917,0,0,8.119,2.9,13.584-2.269s20.611-7.2,20.611-7.2v34.434Z" transform="translate(-1036.085 -5500.002)"/><path class="g" d="M841.3,5576.45s-3.149-9.059-16.076-9.662c0,0-6.132.4-9.612-6.441s-13.258-12.077-28.671-8.857c0,0-12.264,3.02-17.236-7.045,0,0-9.943-15.1-31.654-7.85,0,0-8.618,4.63-14.419-3.624s-21.876-11.5-21.876-11.5v54.979Z" transform="translate(-719.29 -5460.282)"/><g transform="translate(-4.888 99.987)"><path class="h" d="M738.855,5655.221s16.381-.117,21.84,0c3.574.076,6.862.293,13.19-5.521,2.833-2.6,7.975-4.6,14.11-6.134l31.9-8.282s4.669-.341,5.215,3.885a6.264,6.264,0,0,1-2.727,6.151l-13.36,4.62s-4.635,1.5-5.862,4.635c0,0-5.453,12.678-18.813,13.905,0,0-1.909.272.136,1.909,0,0,9.2,1.8,20.04-13.087.926-1.271,2.275-4.408,6-4.463,2.454-.036,8.452,0,8.452,0s-9,5.145-13.224,19.05l-20.449,5.18a28.29,28.29,0,0,0-12.542,6.817c-2.655,2.5-7.089,4.148-14.042,3.954-4.964-.14-19.863.188-19.863.188Z" transform="translate(-738.855 -5635.276)"/><path class="i" d="M1309.909,5665.416h-23.953a13.391,13.391,0,0,1-9.952-4.226c-4.362-4.636-13.633-8.18-23.448-9.816l-21.949-5.6s-4.771-2.17-6.68,2.875,3.954,6.719,3.954,6.719l11.724,4.459s2.863,2.454-.954,2.454h-39.944s-4.772,1.364-3.953,5.59c0,0-1.091,4.363,5.317,5.044h32.855s3.272.545,0,1.5h-44.307s-5.181.136-5.044,5.453,4.635,4.908,4.635,4.908l44.443.008s2.863.947,0,1.765h-38.99a5.606,5.606,0,0,0-4.226,6c.409,4.908,5.726,4.5,5.726,4.5l38.036.008s2.181,1.082,0,1.627h-26.175s-4.09,1.772-4.09,5.453,5.453,5.044,5.453,5.044H1260.6a35.728,35.728,0,0,0,17.041-5.317s1.772-2.044,8.179-1.772l24.089-.136Z" transform="translate(-1031.961 -5641.889)"/><g transform="translate(63.169 4.006)"><path class="j" d="M956.573,5668.08s15.746-1.943,25.255,7.771c0,0,7.055,4.089,9.816,8.384a54.835,54.835,0,0,1,4.7,9.815s5.01,14.928-3.169,29.243c0,0-6.953,11.553-14.314,14.109,0,0-20.858,11.758-43.966-5.317,0,0-19.733-19.733-5.726-46.419C929.171,5685.667,937.044,5671.147,956.573,5668.08Z" transform="translate(-924.148 -5660.798)"/><path class="k" d="M1089.441,5663.817s3.476-2.556,4.7-16.155a2.2,2.2,0,0,1,3.068,0,26.124,26.124,0,0,1-6.339,17.075A.989.989,0,0,1,1089.441,5663.817Z" transform="translate(-1033.09 -5647.026)"/></g><path class="l" d="M738.855,5749.283h23.953a13.389,13.389,0,0,0,9.952-4.226c4.363-4.635,13.633-8.179,23.448-9.815l21.949-5.6s4.771-2.17,6.68,2.874-3.954,6.72-3.954,6.72l-11.724,4.459s-2.863,2.454.954,2.454h39.944s4.771,1.364,3.954,5.59c0,0,1.091,4.362-5.317,5.044H815.839s-3.272.545,0,1.5h44.307s5.18.137,5.044,5.454-4.635,4.908-4.635,4.908l-44.443.007s-2.863.947,0,1.766H855.1a5.606,5.606,0,0,1,4.226,6c-.409,4.908-5.726,4.5-5.726,4.5l-38.035.008s-2.181,1.082,0,1.628h26.175s4.09,1.772,4.09,5.453-5.453,5.044-5.453,5.044H788.165a35.727,35.727,0,0,1-17.041-5.317s-1.772-2.045-8.18-1.772l-24.089-.136Z" transform="translate(-738.855 -5697.165)"/><path class="l" d="M1309.909,5767.463h-23.953a13.386,13.386,0,0,1-9.952-4.227c-4.362-4.635-13.633-8.179-23.448-9.815l-21.949-5.6s-4.771-2.17-6.68,2.875,3.954,6.72,3.954,6.72l11.724,4.459s2.863,2.454-.954,2.454h-39.944s-4.772,1.363-3.953,5.589c0,0-1.091,4.362,5.317,5.044h32.855s3.272.545,0,1.5h-44.307s-5.181.136-5.044,5.453,4.635,4.908,4.635,4.908l44.443.008s2.863.947,0,1.765h-38.99a5.606,5.606,0,0,0-4.226,6c.409,4.908,5.726,4.5,5.726,4.5l38.036.009s2.181,1.083,0,1.627h-26.175s-4.09,1.772-4.09,5.453,5.453,5.044,5.453,5.044H1260.6a35.728,35.728,0,0,0,17.041-5.317s1.772-2.045,8.179-1.772l24.089-.137Z" transform="translate(-1031.961 -5709.146)"/></g></g></g><path class="m" d="M1442.691,5553.449a21.556,21.556,0,0,1-18-14.029c-.932-2.52-2.257-5.752,3.773-10.062,2.192-1.567,6.719-4.729,6.966-8.224.286-4.044,2.96-11.493,11.707-11.224,4.671.145,9.283-.352,14.416,11.9.57,1.361.945,2.883,0,5.9a7.538,7.538,0,0,0,.559,6C1465.443,5539.784,1461.268,5555.577,1442.691,5553.449Z" transform="translate(-20305.158 15485.969)"/><path class="d" d="M1465.843,5610.93h4.523l-.848-25.542,4.382-6.773h-1.7l-2.332,3.1v-6.966l2.9-8.321h-1.979l-1.837,6.579-3.11-8.127h-1.414l3.675,10.256-.848,9.481-3.675-5.611v-10.256l-2.12,1.548.99,7.547-3.816-4.257-.99,1.161,9.329,14.513Z" transform="translate(-20327.41 15449.736)"/></g></svg>