<svg xmlns="http://www.w3.org/2000/svg" width="231.353" height="224" viewBox="0 0 231.353 224"><defs><style>.a{fill:#cb4f4f;}.b{fill:#f7b09e;}.c{fill:#cd5016;}.d,.l{fill:#fff;}.e{fill:#95765f;}.f,.j,.k{fill:none;}.f{stroke:#fff;stroke-width:0.25px;}.f,.k{stroke-linecap:round;stroke-linejoin:round;}.g{fill:#5faf42;}.h{fill:#db8572;}.i{fill:#0c060e;}.j,.k{stroke:#db8572;}.j{stroke-miterlimit:10;}.l{font-size:8px;font-family:Montserrat-Medium, Montserrat;font-weight:500;}</style></defs><g transform="translate(18676 -20377)"><g transform="translate(-18676 20377)"><path class="a" d="M12335.664,13722.688s17.027-9.595,61.363,5.858c12.895,4.494,28.043,9.88,54.548,2.748s64.221-13.018,64.221-13.018-28.581,25.046-12.257,37.3c10.812,8.117,18.8,23.719,4.086,37.171-4.672,4.271-15.375,7.5-28.158,7.962-11.727.424-36.532-3.752-25.873,39.164,0,0,2.076,3.1-11.116.52-13.915-2.719-42.165-8.242-56.543,4.352s-18.917,18.748-18.917,18.748-75.269-85.893-68.915-135.88c0,0,6.162-9.324,12.527-4.236C12310.63,13723.38,12332.618,13718.709,12335.664,13722.688Z" transform="translate(-12284.443 -13680.011)"/><path class="b" d="M12610.955,14917.434v5.723s2.385,5.842,10.371,3.7c0,0-2.025-6.079,1.67-6.2l-.477-3.22Z" transform="translate(-12554.698 -14714.631)"/><path class="c" d="M12591.974,14943.643s-2.324-8.086,1.788-5.643a13.274,13.274,0,0,0,8.821,9.283c7.63,2.741,8.941,4.768,8.941,6.08,0,0-26.7.6-34.452-1.908,0,0,3.245-14.113,5.717-10.031C12584.012,14943.445,12585.6,14945.226,12591.974,14943.643Z" transform="translate(-12525.465 -14731.979)"/><path class="d" d="M12607.828,15038.77s1.3,1.773-.205,2.8l-34.24-2.506s-1.572-1.373.17-2.321A172.131,172.131,0,0,0,12607.828,15038.77Z" transform="translate(-12521.719 -14817.565)"/><path class="b" d="M12359.324,14917.43l-.515,5.7s-2.9,5.6-10.662,2.746c0,0,2.566-5.872-1.1-6.323l.766-3.163Z" transform="translate(-12326.997 -14713.729)"/><path class="c" d="M12228.382,14943.046s3.042-7.845-1.272-5.78a13.276,13.276,0,0,1-9.623,8.45c-7.845,2.044-9.332,3.943-9.451,5.25,0,0,26.541,3,34.483,1.2,0,0-1.96-14.348-4.788-10.5C12236.329,14943.566,12234.592,14945.2,12228.382,14943.046Z" transform="translate(-12207.063 -14731.443)"/><path class="d" d="M12203.623,15037.945s-1.458,1.65-.047,2.8l34.327.587s1.69-1.226.04-2.327A172.135,172.135,0,0,1,12203.623,15037.945Z" transform="translate(-12202.685 -14818.606)"/><path class="e" d="M12331.561,14297.719,12329.6,14386h16.094l10.844-52.016,9.207,52.016h16.428l-.537-87.967Z" transform="translate(-12311.945 -14179.947)"/><line class="f" y1="20.693" x2="0.711" transform="translate(44.589 134.299)"/><path class="f" d="M12528.51,14428.519a11.569,11.569,0,0,0,5.283-10.347" transform="translate(-12483.565 -14283.873)"/><path class="b" d="M12726.662,14110.531s.791,4.951-2,14.814a48.1,48.1,0,0,1-15.262,23.9l.034-16.731,6.5-17.747Z" transform="translate(-12639.634 -14018.443)"/><path class="b" d="M12214.943,14104.383s-.79,4.953,2,14.818a48.1,48.1,0,0,0,15.264,23.9l-.035-16.73-6.5-17.748Z" transform="translate(-12212.935 -14013.139)"/><path class="g" d="M12287.582,13779.375c-7.335-29.494-30.376-23.658-30.376-23.658.044.157.088.309.132.465h-.132l-10.957,21-12.974-21h-.393c.043-.156.087-.308.131-.465,0,0-23.041-5.836-30.375,23.658,0,0-7.574,34.52,9.354,29.386,0,0,.575.106,1.837-1.432v13.128a15.481,15.481,0,0,0,15.481,15.482h32.033a15.9,15.9,0,0,0,15.9-15.9v-11.8c.668.582.979.526.979.526C12295.155,13813.895,12287.582,13779.375,12287.582,13779.375Z" transform="translate(-12200.949 -13711.909)"/><path class="f" d="M12215.592,14104.383s4.578,6.422,9.942,2.846" transform="translate(-12213.582 -14013.139)"/><path class="h" d="M12603.3,13561.457s3.258-1.431,2.226,4.529-2.226,4.689-2.226,4.689Z" transform="translate(-12548.093 -13544.578)"/><path class="h" d="M12425.014,13561.457s-3.259-1.431-2.226,4.529,2.226,4.689,2.226,4.689Z" transform="translate(-12392.175 -13544.578)"/><path class="i" d="M12451.517,13456.188s3.179-8.187-.874-10.174c0,0-.795-7.152-10.57-6.6s-10.49,5.484-10.49,5.484-4.45,4.053-.795,12.159Z" transform="translate(-12396.281 -13439.387)"/><path class="b" d="M12458.137,13529.83l-.756-17.857-.4-9.617a8.834,8.834,0,0,1-3.734-7.788s-11.286,4.134-15.975-1.669a11.832,11.832,0,0,1-3.02,10.332l-.573,26.6s10.548,15.809,13.21,21.313C12446.891,13551.143,12454.8,13538.214,12458.137,13529.83Z" transform="translate(-12401.748 -13485.557)"/><path class="h" d="M12469.975,13656.234l-6.105,6.459a2.475,2.475,0,0,1-1.8.773H12454a2.628,2.628,0,0,1-1.326-.36l-4.4-2.581s6.257,10.238,22.483,8.648Z" transform="translate(-12414.344 -13626.48)"/><path class="i" d="M12454.531,13548.82a13.657,13.657,0,0,1,4.768-1.018s1.59-1.192-.4-2.3c0,0-3.337,0-5.086,2.146C12453.815,13547.645,12453.468,13549.2,12454.531,13548.82Z" transform="translate(-12419.072 -13530.938)"/><path class="i" d="M12542.74,13548.82a13.666,13.666,0,0,0-4.77-1.018s-1.589-1.192.4-2.3c0,0,3.338,0,5.086,2.146C12543.455,13547.645,12543.8,13549.2,12542.74,13548.82Z" transform="translate(-12491.209 -13530.938)"/><path class="j" d="M12516.453,13565.186v9.5s-.4,1.623-2.146.16" transform="translate(-12471.311 -13547.925)"/><path class="k" d="M12511.7,13660.638s2.226,1.677,4.291-.929" transform="translate(-12469.063 -13629.479)"/><circle class="i" cx="0.971" cy="0.971" r="0.971" transform="translate(37.152 19.484)"/><circle class="i" cx="0.971" cy="0.971" r="0.971" transform="translate(48.438 19.484)"/></g><g transform="translate(-18641.605 20449.4)"><path class="d" d="M3596.288,2040.5h-1.458v-4.509h.15v-.006h10.994a10.935,10.935,0,1,0,.137,1.729c0-.085,0-.169-.006-.254h-9.818Z" transform="translate(-3584.25 -2026.78)"/></g><text class="l" transform="translate(-18631 20483)"><tspan x="-12.196" y="0">HERO</tspan></text></g></svg>