<svg xmlns="http://www.w3.org/2000/svg" width="381" height="381" viewBox="0 0 381 381"><defs><style>.a{fill:#f1f2f2;}.b{fill:#5dbc58;}.c{fill:#8cc63f;}.d{fill:#ede139;}.e{fill:#5faf42;}.f{fill:#dad800;}.g{fill:#cec41d;}.h{fill:#a1d8d8;}.i{fill:#adcb4f;}.j{fill:#145629;}.k{fill:#1a1818;font-size:24px;font-family:Poppins-Light, Poppins;font-weight:300;}</style></defs><g transform="translate(-0.229)"><rect class="a" width="381" height="381" rx="60" transform="translate(0.229)"/><g transform="translate(83.492 38.419)"><rect class="b" width="63.991" height="4.612" rx="1.095" transform="translate(41.394 206.145)"/><rect class="c" width="76.53" height="4.612" rx="1.197" transform="translate(34.405 210.757)"/><rect class="b" width="63.991" height="4.612" rx="1.095" transform="translate(41.394 215.37)"/><rect class="c" width="76.53" height="4.612" rx="1.197" transform="translate(34.405 219.981)"/><rect class="b" width="63.991" height="4.612" rx="1.095" transform="translate(41.394 224.593)"/><rect class="c" width="76.53" height="4.612" rx="1.197" transform="translate(34.405 229.205)"/><rect class="b" width="63.991" height="4.612" rx="1.095" transform="translate(41.394 233.817)"/><rect class="c" width="76.53" height="4.612" rx="1.197" transform="translate(34.405 238.429)"/><ellipse class="d" cx="75.763" cy="75.763" rx="75.763" ry="75.763"/><path class="d" d="M1677.934,2821.735c0-38.418-35.7-76.347-35.7-76.347h123.45s-31.64,39.95-31.64,76.347" transform="translate(-1628.399 -2625.704)"/><rect class="c" width="80.54" height="4.854" rx="1.197" transform="translate(36.208 191.89)"/><rect class="b" width="67.345" height="4.854" rx="1.095" transform="translate(43.564 196.744)"/><rect class="c" width="80.54" height="4.854" rx="1.197" transform="translate(36.208 201.598)"/><g transform="translate(22.299 23.157)"><path class="e" d="M1712.26,2694.1v7.053l5.46,2.275,6.143-6.6,12.513,8.646-4.323,7.053,5.688,5.005,6.826-1.82,6.371,13.2-5.233,2.73,1.365,7.509,7.508,1.592v14.789H1747.3l-3.868,8.418,7.053,4.1-9.328,13.651-5.233-3.72-5.916,3.72,1.365,8.191-13.424,6.825-3.64-7.28-7.053,2.5v7.052h-17.746l1.137-9.328-5.46-2.275-6.6,5.688-13.2-7.508,4.323-6.143-4.323-5.916-7.736,2.5-7.053-13.424,7.508-5.46-.91-5.006-9.328-.455v-16.836l9.783-.227,2.275-5-6.826-5.688,9.328-13.878,7.053,5.005,4.1-4.1-2.958-9.328,13.879-7.508,4.55,7.963h5.915l2.048-7.963Z" transform="translate(-1647.872 -2694.1)"/><ellipse class="c" cx="32.45" cy="32.45" rx="32.45" ry="32.45" transform="translate(20.903 19.993)"/><ellipse class="f" cx="27.247" cy="27.247" rx="27.247" ry="27.247" transform="translate(26.106 25.196)"/><ellipse class="c" cx="23.548" cy="23.548" rx="23.548" ry="23.548" transform="translate(29.805 28.895)"/><ellipse class="f" cx="19.772" cy="19.772" rx="19.772" ry="19.772" transform="translate(33.58 32.67)"/><ellipse class="g" cx="16.671" cy="16.671" rx="16.671" ry="16.671" transform="translate(36.682 35.772)"/></g><g transform="translate(89.099 120.129)"><path class="h" d="M1762.982,2732.427v8.253l6.389,2.662,7.188-7.72,14.642,10.115-5.058,8.253,6.655,5.857,7.987-2.13,7.454,15.44-6.123,3.195,1.6,8.785L1812.5,2787v17.3h-8.519l-4.526,9.85,8.252,4.792-10.915,15.973-6.123-4.353-6.922,4.353,1.6,9.584-15.707,7.987-4.259-8.519-8.253,2.928v8.253H1736.36l1.332-10.915-6.39-2.662-7.72,6.655-15.44-8.785,5.058-7.188-5.058-6.921-9.051,2.928-8.253-15.707,8.785-6.389-1.065-5.857-10.915-.533v-19.7l11.447-.267,2.662-5.856-7.987-6.655,10.915-16.239,8.252,5.857,4.792-4.792-3.461-10.915,16.239-8.785,5.324,9.318h6.922l2.4-9.318Z" transform="translate(-1687.644 -2732.427)"/><ellipse class="h" cx="37.969" cy="37.969" rx="37.969" ry="37.969" transform="translate(24.458 23.394)"/><ellipse class="h" cx="31.881" cy="31.881" rx="31.881" ry="31.881" transform="translate(30.546 29.481)"/><ellipse class="h" cx="27.553" cy="27.553" rx="27.553" ry="27.553" transform="translate(34.874 33.809)"/><ellipse class="h" cx="23.135" cy="23.135" rx="23.135" ry="23.135" transform="translate(39.292 38.227)"/><ellipse class="h" cx="20.51" cy="20.51" rx="20.51" ry="20.51" transform="translate(41.917 40.852)"/></g><path class="i" d="M1793.808,2790.368a47.494,47.494,0,0,1-37.776,46.479h0a47.581,47.581,0,0,1-39.814-9.792l0,0a47.785,47.785,0,0,1-7.923-8.3,47.526,47.526,0,0,1-5.133-48.119q.305-.669.63-1.325l0-.008.02-.037c.012-.026.025-.052.039-.079l.005-.012.009-.018.02-.039.007-.015a47.687,47.687,0,0,1,15.469-17.792h0a47.489,47.489,0,0,1,69.911,18.785q.936,1.979,1.69,4.052A47.352,47.352,0,0,1,1793.808,2790.368Z" transform="translate(-1594.84 -2608.844)"/><path class="j" d="M1789.042,2790.318s-2.043-3.219-8-1.164c-.136.047-.267.091-.4.132-3.161,1.01-4.625.476-6.107-.8-1.129-.972-2.268-2.376-4.181-3.854-4.521-3.493-7.191-5.958-14.385-2.671s-9.246-.205-12.329-3.7-4.726,3.7-12.946,3.7-1.85-9.042-7.193-8.014-5.137-4.11-8.014-5.548,3.9-4.932,0-8.836a6.562,6.562,0,0,1-.9-8.3h0a47.491,47.491,0,0,1,69.913,18.785q.936,1.976,1.69,4.05A47.372,47.372,0,0,1,1789.042,2790.318Z" transform="translate(-1590.021 -2608.86)"/><path class="j" d="M1722.406,2788.494c.611-1.787-.185-9.241,4.746-7.6s8.2-1.856,11.282-1.468,5.9,2.4,8.708,3.9c4.47,2.39,1.73,8.571,3.931,10.711,4.037,3.93.718,10.867-4.83,10.867s-3.717-2-8.425-1.081c-7.86,1.542-7.6.36-11.1-4.16s-5.141-3.37-6.58-6.55S1721.829,2790.188,1722.406,2788.494Z" transform="translate(-1587.949 -2596.807)"/><path class="j" d="M1776.664,2785.744a47.38,47.38,0,0,1-14.75,27.073c-.537-.12-1.939,1.85-4.713,1.663-5.753-.388-7.615-3.96-8.246-8.785a6.757,6.757,0,0,1,.242-3.5,2.6,2.6,0,0,1,1.928-1.556c2.411-.568,5.862.944,5.767-1.42-.064-1.594-.206-2.8-.32-3.77-.366-3.074-.467-3.726,3.017-6.551a4.151,4.151,0,0,1,2.969-.931c2.616.11,5.1,1.738,6.894-3C1771.919,2778.449,1776.664,2785.744,1776.664,2785.744Z" transform="translate(-1578.357 -2595.862)"/><path class="j" d="M1756.04,2829.934h0a47.714,47.714,0,0,1-39.823-9.746l.007-.048a45.558,45.558,0,0,1-7.95-7.915,48.382,48.382,0,0,1-9.392-28.77,47.283,47.283,0,0,1,4.285-19.734c-.459,1.1-.833,2.472-.059,3,4.62,3.18,3.148,7.441,3.7,8.785,1.746,4.265,2.106,2.6,4.161,7.945s-6.354,8.041.463,11.628c5.856,3.083,7.49,5.062,7.849,9.994s4.1,1.717,8.209,5.415c.762.686,1.431,1.272,2.024,1.8,2.609,2.309,3.76,3.449,4.934,6.793a5.416,5.416,0,0,0,.574,1.18c1.854,2.844,5.806,2.618,7.666,4.106,3.664,2.929,3.073.959,8.66,2S1756.04,2829.934,1756.04,2829.934Z" transform="translate(-1594.838 -2601.977)"/></g></g><text class="k" transform="translate(126.001 342.178)"><tspan x="0" y="0">Innovation</tspan></text></svg>