<svg id="Group_7621" data-name="Group 7621" xmlns="http://www.w3.org/2000/svg" width="149.689" height="170.041" viewBox="0 0 149.689 170.041">
  <rect id="Rectangle_365" data-name="Rectangle 365" width="44.771" height="3.227" rx="1.095" transform="translate(28.961 144.228)" fill="#5dbc58"/>
  <rect id="Rectangle_367" data-name="Rectangle 367" width="53.543" height="3.227" rx="1.197" transform="translate(24.071 147.455)" fill="#8cc63f"/>
  <rect id="Rectangle_368" data-name="Rectangle 368" width="44.771" height="3.227" rx="1.095" transform="translate(28.961 150.682)" fill="#5dbc58"/>
  <rect id="Rectangle_369" data-name="Rectangle 369" width="53.543" height="3.227" rx="1.197" transform="translate(24.071 153.908)" fill="#8cc63f"/>
  <rect id="Rectangle_370" data-name="Rectangle 370" width="44.771" height="3.227" rx="1.095" transform="translate(28.961 157.135)" fill="#5dbc58"/>
  <rect id="Rectangle_371" data-name="Rectangle 371" width="53.543" height="3.227" rx="1.197" transform="translate(24.071 160.362)" fill="#8cc63f"/>
  <rect id="Rectangle_372" data-name="Rectangle 372" width="44.771" height="3.227" rx="1.095" transform="translate(28.961 163.588)" fill="#5dbc58"/>
  <rect id="Rectangle_373" data-name="Rectangle 373" width="53.543" height="3.227" rx="1.197" transform="translate(24.071 166.815)" fill="#8cc63f"/>
  <g id="Group_7620" data-name="Group 7620">
    <ellipse id="Ellipse_68" data-name="Ellipse 68" cx="53.007" cy="53.007" rx="53.007" ry="53.007" fill="#ede139"/>
    <path id="Path_7278" data-name="Path 7278" d="M1667.211,2798.8c0-26.879-24.977-53.416-24.977-53.416H1728.6s-22.136,27.951-22.136,53.416" transform="translate(-1632.554 -2661.652)" fill="#ede139"/>
    <rect id="Rectangle_363" data-name="Rectangle 363" width="56.349" height="3.396" rx="1.197" transform="translate(25.333 134.254)" fill="#8cc63f"/>
    <rect id="Rectangle_364" data-name="Rectangle 364" width="47.117" height="3.396" rx="1.095" transform="translate(30.479 137.65)" fill="#5dbc58"/>
    <rect id="Rectangle_366" data-name="Rectangle 366" width="56.349" height="3.396" rx="1.197" transform="translate(25.333 141.046)" fill="#8cc63f"/>
    <g id="Group_7617" data-name="Group 7617" transform="translate(15.601 16.202)">
      <path id="Path_7279" data-name="Path 7279" d="M1692.92,2694.1v4.935l3.82,1.592,4.3-4.616,8.755,6.049-3.024,4.935,3.979,3.5,4.776-1.273,4.457,9.232-3.661,1.91.955,5.253,5.253,1.114v10.347h-5.094l-2.706,5.89,4.935,2.865-6.526,9.551-3.661-2.6-4.139,2.6.955,5.731-9.392,4.775-2.547-5.093-4.935,1.751v4.934H1677l.8-6.526-3.82-1.592-4.616,3.979-9.233-5.253,3.024-4.3-3.024-4.139-5.412,1.751-4.935-9.392,5.253-3.82-.637-3.5-6.526-.319v-11.78l6.845-.159,1.592-3.5-4.776-3.979,6.527-9.71,4.934,3.5,2.866-2.866-2.07-6.526,9.71-5.253,3.184,5.572h4.139l1.433-5.572Z" transform="translate(-1647.872 -2694.1)" fill="#5faf42"/>
      <ellipse id="Ellipse_69" data-name="Ellipse 69" cx="22.703" cy="22.703" rx="22.703" ry="22.703" transform="translate(14.625 13.988)" fill="#8cc63f"/>
      <ellipse id="Ellipse_70" data-name="Ellipse 70" cx="19.063" cy="19.063" rx="19.063" ry="19.063" transform="translate(18.265 17.628)" fill="#dad800"/>
      <ellipse id="Ellipse_71" data-name="Ellipse 71" cx="16.475" cy="16.475" rx="16.475" ry="16.475" transform="translate(20.853 20.216)" fill="#8cc63f"/>
      <ellipse id="Ellipse_72" data-name="Ellipse 72" cx="13.834" cy="13.834" rx="13.834" ry="13.834" transform="translate(23.494 22.858)" fill="#dad800"/>
      <ellipse id="Ellipse_73" data-name="Ellipse 73" cx="11.664" cy="11.664" rx="11.664" ry="11.664" transform="translate(25.664 25.027)" fill="#cec41d"/>
    </g>
    <g id="Group_7615" data-name="Group 7615" transform="translate(62.338 84.047)">
      <path id="Path_7280" data-name="Path 7280" d="M1740.353,2732.427v5.774l4.47,1.862,5.029-5.4,10.244,7.077-3.539,5.774,4.656,4.1,5.588-1.49,5.215,10.8-4.284,2.235,1.117,6.146,6.146,1.3v12.106h-5.96l-3.167,6.891,5.774,3.353-7.636,11.175-4.284-3.045-4.843,3.045,1.117,6.705-10.989,5.588-2.98-5.96-5.774,2.049v5.774h-14.528l.932-7.637-4.47-1.862-5.4,4.656-10.8-6.146,3.539-5.029-3.539-4.842-6.332,2.049-5.774-10.989,6.146-4.47-.745-4.1-7.636-.373v-13.782l8.009-.187,1.863-4.1-5.588-4.656,7.636-11.362,5.774,4.1,3.353-3.353-2.421-7.636,11.362-6.147,3.725,6.519h4.843l1.677-6.519Z" transform="translate(-1687.644 -2732.427)" fill="#a1d8d8"/>
      <ellipse id="Ellipse_74" data-name="Ellipse 74" cx="26.564" cy="26.564" rx="26.564" ry="26.564" transform="translate(17.112 16.367)" fill="#a1d8d8"/>
      <ellipse id="Ellipse_75" data-name="Ellipse 75" cx="22.305" cy="22.305" rx="22.305" ry="22.305" transform="translate(21.371 20.626)" fill="#a1d8d8"/>
      <ellipse id="Ellipse_76" data-name="Ellipse 76" cx="19.277" cy="19.277" rx="19.277" ry="19.277" transform="translate(24.399 23.654)" fill="#a1d8d8"/>
      <ellipse id="Ellipse_77" data-name="Ellipse 77" cx="16.186" cy="16.186" rx="16.186" ry="16.186" transform="translate(27.49 26.745)" fill="#a1d8d8"/>
      <ellipse id="Ellipse_78" data-name="Ellipse 78" cx="14.35" cy="14.35" rx="14.35" ry="14.35" transform="translate(29.327 28.582)" fill="#a1d8d8"/>
    </g>
    <path id="Path_7281" data-name="Path 7281" d="M1765.294,2776.111a33.229,33.229,0,0,1-26.43,32.519h0a33.289,33.289,0,0,1-27.855-6.851l0,0a33.432,33.432,0,0,1-5.543-5.806,33.252,33.252,0,0,1-3.591-33.667q.214-.468.441-.927l0-.006.014-.026c.008-.019.018-.037.027-.055l0-.009.006-.013.014-.027,0-.01a33.364,33.364,0,0,1,10.823-12.448h0a33.225,33.225,0,0,1,48.913,13.143q.655,1.384,1.183,2.835A33.127,33.127,0,0,1,1765.294,2776.111Z" transform="translate(-1626.087 -2649.109)" fill="#adcb4f"/>
    <path id="Path_7282" data-name="Path 7282" d="M1766.348,2776.061s-1.429-2.253-5.6-.814c-.1.033-.187.064-.278.093-2.212.707-3.236.333-4.273-.559-.79-.68-1.587-1.662-2.925-2.7-3.163-2.444-5.031-4.169-10.064-1.869s-6.469-.144-8.626-2.587-3.307,2.587-9.057,2.587-1.294-6.326-5.033-5.607-3.594-2.876-5.607-3.882,2.732-3.451,0-6.182a4.591,4.591,0,0,1-.627-5.81h0a33.226,33.226,0,0,1,48.914,13.143q.655,1.383,1.183,2.834A33.144,33.144,0,0,1,1766.348,2776.061Z" transform="translate(-1627.105 -2649.105)" fill="#145629"/>
    <path id="Path_7283" data-name="Path 7283" d="M1721.613,2785.762c.427-1.25-.129-6.466,3.321-5.316s5.737-1.3,7.893-1.027,4.125,1.679,6.092,2.731c3.127,1.672,1.21,6,2.75,7.494,2.825,2.75.5,7.6-3.379,7.6s-2.6-1.4-5.894-.756c-5.5,1.078-5.32.252-7.764-2.911s-3.6-2.358-4.6-4.583S1721.21,2786.947,1721.613,2785.762Z" transform="translate(-1627.542 -2651.649)" fill="#145629"/>
    <path id="Path_7284" data-name="Path 7284" d="M1768.31,2784.7a33.147,33.147,0,0,1-10.32,18.941c-.376-.084-1.356,1.294-3.3,1.163-4.025-.272-5.328-2.771-5.77-6.146a4.727,4.727,0,0,1,.169-2.449,1.82,1.82,0,0,1,1.349-1.089c1.687-.4,4.1.661,4.035-.994-.044-1.115-.144-1.96-.224-2.638-.256-2.151-.326-2.607,2.111-4.583a2.9,2.9,0,0,1,2.078-.651c1.83.077,3.569,1.216,4.823-2.1C1764.99,2779.593,1768.31,2784.7,1768.31,2784.7Z" transform="translate(-1629.565 -2651.847)" fill="#145629"/>
    <path id="Path_7285" data-name="Path 7285" d="M1738.871,2810.046h0a33.383,33.383,0,0,1-27.862-6.819l0-.034a31.876,31.876,0,0,1-5.562-5.538,33.85,33.85,0,0,1-6.571-20.128,33.081,33.081,0,0,1,3-13.807c-.321.766-.583,1.73-.041,2.1,3.232,2.225,2.2,5.206,2.587,6.146,1.222,2.984,1.474,1.821,2.911,5.559s-4.445,5.625.324,8.135c4.1,2.157,5.24,3.541,5.491,6.992s2.869,1.2,5.743,3.788c.533.48,1,.89,1.416,1.256,1.825,1.615,2.631,2.413,3.452,4.753a3.792,3.792,0,0,0,.4.825c1.3,1.99,4.062,1.832,5.364,2.873,2.563,2.049,2.15.671,6.059,1.4S1738.871,2810.046,1738.871,2810.046Z" transform="translate(-1626.088 -2650.558)" fill="#145629"/>
  </g>
</svg>
