<svg xmlns="http://www.w3.org/2000/svg" width="174.969" height="263.848" viewBox="0 0 174.969 263.848"><defs><style>.a{fill:#efc243;}.b{fill:#d3a535;}.c{fill:#007b40;}.d{fill:none;stroke:#007b40;stroke-miterlimit:10;}.e{fill:#17c967;}.f{fill:#fff;}.g{fill:#0bb95d;}.h{fill:#fcfefd;}</style></defs><g transform="translate(-1799.562 -5030.331)"><g transform="translate(1898.044 5171.897)"><rect class="a" width="1.254" height="9.831" transform="translate(24.851 0.001)"/><rect class="a" width="1.254" height="9.831" transform="translate(37.129 0.001)"/><rect class="a" width="1.254" height="9.831" transform="translate(22.805 0.001)"/><rect class="a" width="1.254" height="9.831" transform="translate(18.713 0.001)"/><rect class="a" width="1.254" height="9.831" transform="translate(20.759 0.001)"/><rect class="a" width="1.254" height="9.831" transform="translate(35.083 0.001)"/><rect class="a" width="1.254" height="9.831" transform="translate(33.036 0.001)"/><rect class="a" width="1.254" height="9.831" transform="translate(30.99 0.001)"/><rect class="a" width="1.254" height="9.831" transform="translate(26.898 0.001)"/><rect class="a" width="1.254" height="9.831" transform="translate(2.343 0.001)"/><rect class="a" width="1.254" height="9.831" transform="translate(4.389 0.001)"/><rect class="a" width="1.254" height="9.831" transform="translate(6.436 0.001)"/><path class="a" d="M1891.634,5164.755v5.678a2.074,2.074,0,0,0,1.551,2v-9.669A2.076,2.076,0,0,0,1891.634,5164.755Z" transform="translate(-1891.634 -5162.678)"/><rect class="a" width="1.254" height="9.831" transform="translate(8.482 0.001)"/><rect class="a" width="1.254" height="9.831" transform="translate(12.574 0.001)"/><rect class="a" width="1.254" height="9.831" transform="translate(14.62 0.001)"/><rect class="a" width="1.254" height="9.831" transform="translate(10.528 0.001)"/><rect class="a" width="1.254" height="9.831" transform="translate(16.667 0.001)"/><rect class="a" width="1.254" height="9.831" transform="translate(28.944 0.001)"/><rect class="a" width="1.254" height="9.831" transform="translate(43.267 0.001)"/><rect class="a" width="1.254" height="9.831" transform="translate(39.175 0.001)"/><rect class="a" width="1.254" height="9.831" transform="translate(41.221 0.001)"/><path class="a" d="M1937.142,5162.683h-1.231v9.832h1.231l.023,0v-9.828Z" transform="translate(-1888.551 -5162.683)"/><rect class="a" width="1.254" height="9.831" transform="translate(45.314 0.001)"/><path class="a" d="M1937.824,5162.835v9.507a2.078,2.078,0,0,0,1.288-1.915v-5.678A2.077,2.077,0,0,0,1937.824,5162.835Z" transform="translate(-1888.418 -5162.672)"/><path class="b" d="M1893.636,5162.683a2.12,2.12,0,0,0-.552.082v9.669a2.14,2.14,0,0,0,.552.081h.24v-9.832Z" transform="translate(-1891.533 -5162.683)"/><rect class="b" width="0.792" height="9.831" transform="translate(3.597 0.001)"/><rect class="b" width="0.792" height="9.831" transform="translate(5.643 0.001)"/><rect class="b" width="0.792" height="9.831" transform="translate(7.69 0.001)"/><rect class="b" width="0.792" height="9.831" transform="translate(9.736 0.001)"/><rect class="b" width="0.792" height="9.831" transform="translate(11.782 0.001)"/><rect class="b" width="0.792" height="9.831" transform="translate(13.828 0.001)"/><rect class="b" width="0.792" height="9.831" transform="translate(15.874 0.001)"/><rect class="b" width="0.792" height="9.831" transform="translate(17.921 0.001)"/><rect class="b" width="0.792" height="9.831" transform="translate(19.967 0.001)"/><rect class="b" width="0.792" height="9.831" transform="translate(22.013 0.001)"/><rect class="b" width="0.792" height="9.831" transform="translate(24.059 0.001)"/><rect class="b" width="0.792" height="9.831" transform="translate(26.106 0.001)"/><rect class="b" width="0.792" height="9.831" transform="translate(28.152 0.001)"/><rect class="b" width="0.792" height="9.831" transform="translate(30.198 0.001)"/><rect class="b" width="0.792" height="9.831" transform="translate(32.244 0.001)"/><rect class="b" width="0.792" height="9.831" transform="translate(34.29 0.001)"/><rect class="b" width="0.792" height="9.831" transform="translate(36.337 0.001)"/><rect class="b" width="0.792" height="9.831" transform="translate(38.383 0.001)"/><rect class="b" width="0.792" height="9.831" transform="translate(40.429 0.001)"/><rect class="b" width="0.792" height="9.831" transform="translate(42.475 0.001)"/><rect class="b" width="0.792" height="9.831" transform="translate(44.521 0.001)"/><rect class="b" width="0.792" height="9.831" transform="translate(46.568 0.001)"/><path class="b" d="M1937.084,5162.685v9.828a2.112,2.112,0,0,0,.792-.161v-9.507A2.131,2.131,0,0,0,1937.084,5162.685Z" transform="translate(-1888.47 -5162.683)"/></g><g transform="translate(1902.268 5181.729)"><rect class="a" width="1.254" height="9.831" transform="translate(24.852)"/><rect class="a" width="1.254" height="9.831" transform="translate(37.129)"/><rect class="a" width="1.254" height="9.831" transform="translate(22.806)"/><rect class="a" width="1.254" height="9.831" transform="translate(18.713)"/><rect class="a" width="1.254" height="9.831" transform="translate(20.76)"/><rect class="a" width="1.254" height="9.831" transform="translate(35.083)"/><rect class="a" width="1.254" height="9.831" transform="translate(33.037)"/><rect class="a" width="1.254" height="9.831" transform="translate(30.991)"/><rect class="a" width="1.254" height="9.831" transform="translate(26.898)"/><rect class="a" width="1.254" height="9.831" transform="translate(2.344)"/><rect class="a" width="1.254" height="9.831" transform="translate(4.39)"/><rect class="a" width="1.254" height="9.831" transform="translate(6.436)"/><path class="a" d="M1895.583,5173.945v5.679a2.076,2.076,0,0,0,1.552,2v-9.668A2.074,2.074,0,0,0,1895.583,5173.945Z" transform="translate(-1895.583 -5171.869)"/><rect class="a" width="1.254" height="9.831" transform="translate(8.482)"/><rect class="a" width="1.254" height="9.831" transform="translate(12.575)"/><rect class="a" width="1.254" height="9.831" transform="translate(14.621)"/><rect class="a" width="1.254" height="9.831" transform="translate(10.528)"/><rect class="a" width="1.254" height="9.831" transform="translate(16.667)"/><rect class="a" width="1.254" height="9.831" transform="translate(28.944)"/><rect class="a" width="1.254" height="9.831" transform="translate(43.268)"/><rect class="a" width="1.254" height="9.831" transform="translate(39.175)"/><rect class="a" width="1.254" height="9.831" transform="translate(41.221)"/><path class="a" d="M1941.091,5171.875h-1.23v9.831h1.23l.023,0v-9.827Z" transform="translate(-1892.5 -5171.875)"/><rect class="a" width="1.254" height="9.831" transform="translate(45.314)"/><path class="a" d="M1941.773,5172.026v9.507a2.076,2.076,0,0,0,1.288-1.914v-5.679A2.078,2.078,0,0,0,1941.773,5172.026Z" transform="translate(-1892.367 -5171.864)"/><path class="b" d="M1897.585,5171.875a2.067,2.067,0,0,0-.551.081v9.669a2.086,2.086,0,0,0,.551.081h.241v-9.831Z" transform="translate(-1895.482 -5171.875)"/><rect class="b" width="0.792" height="9.831" transform="translate(3.598)"/><rect class="b" width="0.792" height="9.831" transform="translate(5.644)"/><rect class="b" width="0.792" height="9.831" transform="translate(7.69)"/><rect class="b" width="0.792" height="9.831" transform="translate(9.736)"/><rect class="b" width="0.792" height="9.831" transform="translate(11.783)"/><rect class="b" width="0.792" height="9.831" transform="translate(13.829)"/><rect class="b" width="0.792" height="9.831" transform="translate(15.875)"/><rect class="b" width="0.792" height="9.831" transform="translate(17.921)"/><rect class="b" width="0.792" height="9.831" transform="translate(19.967)"/><rect class="b" width="0.792" height="9.831" transform="translate(22.014)"/><rect class="b" width="0.792" height="9.831" transform="translate(24.06)"/><rect class="b" width="0.792" height="9.831" transform="translate(26.106)"/><rect class="b" width="0.792" height="9.831" transform="translate(28.152)"/><rect class="b" width="0.792" height="9.831" transform="translate(30.198)"/><rect class="b" width="0.792" height="9.831" transform="translate(32.245)"/><rect class="b" width="0.792" height="9.831" transform="translate(34.291)"/><rect class="b" width="0.792" height="9.831" transform="translate(36.337)"/><rect class="b" width="0.792" height="9.831" transform="translate(38.383)"/><rect class="b" width="0.792" height="9.831" transform="translate(40.429)"/><rect class="b" width="0.792" height="9.831" transform="translate(42.476)"/><rect class="b" width="0.792" height="9.831" transform="translate(44.522)"/><rect class="b" width="0.792" height="9.831" transform="translate(46.568)"/><path class="b" d="M1941.033,5171.877v9.827a2.115,2.115,0,0,0,.792-.161v-9.507A2.134,2.134,0,0,0,1941.033,5171.877Z" transform="translate(-1892.419 -5171.874)"/></g><g transform="translate(1902.401 5191.397)"><rect class="a" width="1.254" height="9.831" transform="translate(24.851 0.001)"/><rect class="a" width="1.254" height="9.831" transform="translate(37.128 0.001)"/><rect class="a" width="1.254" height="9.831" transform="translate(22.805 0.001)"/><rect class="a" width="1.254" height="9.831" transform="translate(18.713 0.001)"/><rect class="a" width="1.254" height="9.831" transform="translate(20.759 0.001)"/><rect class="a" width="1.254" height="9.831" transform="translate(35.082 0.001)"/><rect class="a" width="1.254" height="9.831" transform="translate(33.036 0.001)"/><rect class="a" width="1.254" height="9.831" transform="translate(30.99 0.001)"/><rect class="a" width="1.254" height="9.831" transform="translate(26.897 0.001)"/><rect class="a" width="1.254" height="9.831" transform="translate(2.343 0.001)"/><rect class="a" width="1.254" height="9.831" transform="translate(4.389 0.001)"/><rect class="a" width="1.254" height="9.831" transform="translate(6.435 0.001)"/><path class="a" d="M1895.707,5182.986v5.677a2.075,2.075,0,0,0,1.551,2v-9.668A2.075,2.075,0,0,0,1895.707,5182.986Z" transform="translate(-1895.707 -5180.909)"/><rect class="a" width="1.254" height="9.831" transform="translate(8.481 0.001)"/><rect class="a" width="1.254" height="9.831" transform="translate(12.574 0.001)"/><rect class="a" width="1.254" height="9.831" transform="translate(14.62 0.001)"/><rect class="a" width="1.254" height="9.831" transform="translate(10.528 0.001)"/><rect class="a" width="1.254" height="9.831" transform="translate(16.666 0.001)"/><rect class="a" width="1.254" height="9.831" transform="translate(28.944 0.001)"/><rect class="a" width="1.254" height="9.831" transform="translate(43.267 0.001)"/><rect class="a" width="1.254" height="9.831" transform="translate(39.174 0.001)"/><rect class="a" width="1.254" height="9.831" transform="translate(41.221 0.001)"/><path class="a" d="M1941.215,5180.914h-1.231v9.832h1.231l.022,0v-9.828Z" transform="translate(-1892.624 -5180.914)"/><rect class="a" width="1.254" height="9.831" transform="translate(45.313 0.001)"/><path class="a" d="M1941.9,5181.066v9.507a2.077,2.077,0,0,0,1.287-1.915v-5.678A2.076,2.076,0,0,0,1941.9,5181.066Z" transform="translate(-1892.491 -5180.903)"/><path class="b" d="M1897.708,5180.914a2.12,2.12,0,0,0-.551.082v9.668a2.1,2.1,0,0,0,.551.082h.24v-9.832Z" transform="translate(-1895.606 -5180.914)"/><rect class="b" width="0.792" height="9.831" transform="translate(3.597 0.001)"/><rect class="b" width="0.792" height="9.831" transform="translate(5.643 0.001)"/><rect class="b" width="0.792" height="9.831" transform="translate(7.689 0.001)"/><rect class="b" width="0.792" height="9.831" transform="translate(9.736 0.001)"/><rect class="b" width="0.792" height="9.831" transform="translate(11.782 0.001)"/><rect class="b" width="0.792" height="9.831" transform="translate(13.828 0.001)"/><rect class="b" width="0.792" height="9.831" transform="translate(15.874 0.001)"/><rect class="b" width="0.792" height="9.831" transform="translate(17.92 0.001)"/><rect class="b" width="0.792" height="9.831" transform="translate(19.967 0.001)"/><rect class="b" width="0.792" height="9.831" transform="translate(22.013 0.001)"/><rect class="b" width="0.792" height="9.831" transform="translate(24.059 0.001)"/><rect class="b" width="0.792" height="9.831" transform="translate(26.105 0.001)"/><rect class="b" width="0.792" height="9.831" transform="translate(28.152 0.001)"/><rect class="b" width="0.792" height="9.831" transform="translate(30.198 0.001)"/><rect class="b" width="0.792" height="9.831" transform="translate(32.244 0.001)"/><rect class="b" width="0.792" height="9.831" transform="translate(34.29 0.001)"/><rect class="b" width="0.792" height="9.831" transform="translate(36.336 0.001)"/><rect class="b" width="0.792" height="9.831" transform="translate(38.383 0.001)"/><rect class="b" width="0.792" height="9.831" transform="translate(40.429 0.001)"/><rect class="b" width="0.792" height="9.831" transform="translate(42.475 0.001)"/><rect class="b" width="0.792" height="9.831" transform="translate(44.521 0.001)"/><rect class="b" width="0.792" height="9.831" transform="translate(46.567 0.001)"/><path class="b" d="M1941.156,5180.916v9.827a2.1,2.1,0,0,0,.792-.16v-9.507A2.142,2.142,0,0,0,1941.156,5180.916Z" transform="translate(-1892.543 -5180.914)"/></g><g transform="translate(1896.757 5201.067)"><rect class="a" width="1.254" height="9.831" transform="translate(24.851)"/><rect class="a" width="1.254" height="9.831" transform="translate(37.128)"/><rect class="a" width="1.254" height="9.831" transform="translate(22.805)"/><rect class="a" width="1.254" height="9.831" transform="translate(18.712)"/><rect class="a" width="1.254" height="9.831" transform="translate(20.759)"/><rect class="a" width="1.254" height="9.831" transform="translate(35.082)"/><rect class="a" width="1.254" height="9.831" transform="translate(33.036)"/><rect class="a" width="1.254" height="9.831" transform="translate(30.99)"/><rect class="a" width="1.254" height="9.831" transform="translate(26.897)"/><rect class="a" width="1.254" height="9.831" transform="translate(2.343)"/><rect class="a" width="1.254" height="9.831" transform="translate(4.389)"/><rect class="a" width="1.254" height="9.831" transform="translate(6.435)"/><path class="a" d="M1890.431,5192.025v5.679a2.073,2.073,0,0,0,1.551,1.995v-9.668A2.075,2.075,0,0,0,1890.431,5192.025Z" transform="translate(-1890.431 -5189.949)"/><rect class="a" width="1.254" height="9.831" transform="translate(8.481)"/><rect class="a" width="1.254" height="9.831" transform="translate(12.574)"/><rect class="a" width="1.254" height="9.831" transform="translate(14.62)"/><rect class="a" width="1.254" height="9.831" transform="translate(10.528)"/><rect class="a" width="1.254" height="9.831" transform="translate(16.666)"/><rect class="a" width="1.254" height="9.831" transform="translate(28.943)"/><rect class="a" width="1.254" height="9.831" transform="translate(43.267)"/><rect class="a" width="1.254" height="9.831" transform="translate(39.174)"/><rect class="a" width="1.254" height="9.831" transform="translate(41.221)"/><path class="a" d="M1935.938,5189.954h-1.23v9.831h1.254v-9.828Z" transform="translate(-1887.349 -5189.954)"/><rect class="a" width="1.254" height="9.831" transform="translate(45.313)"/><path class="a" d="M1936.621,5190.105v9.507a2.076,2.076,0,0,0,1.287-1.914v-5.679A2.076,2.076,0,0,0,1936.621,5190.105Z" transform="translate(-1887.215 -5189.943)"/><path class="b" d="M1892.432,5189.954a2.076,2.076,0,0,0-.551.081v9.668a2.076,2.076,0,0,0,.551.082h.241v-9.831Z" transform="translate(-1890.33 -5189.954)"/><rect class="b" width="0.792" height="9.831" transform="translate(3.597)"/><rect class="b" width="0.792" height="9.831" transform="translate(5.643)"/><rect class="b" width="0.792" height="9.831" transform="translate(7.689)"/><rect class="b" width="0.792" height="9.831" transform="translate(9.735)"/><rect class="b" width="0.792" height="9.831" transform="translate(11.782)"/><rect class="b" width="0.792" height="9.831" transform="translate(13.828)"/><rect class="b" width="0.792" height="9.831" transform="translate(15.874)"/><rect class="b" width="0.792" height="9.831" transform="translate(17.92)"/><rect class="b" width="0.792" height="9.831" transform="translate(19.966)"/><rect class="b" width="0.792" height="9.831" transform="translate(22.013)"/><rect class="b" width="0.792" height="9.831" transform="translate(24.059)"/><rect class="b" width="0.792" height="9.831" transform="translate(26.105)"/><rect class="b" width="0.792" height="9.831" transform="translate(28.151)"/><rect class="b" width="0.792" height="9.831" transform="translate(30.197)"/><rect class="b" width="0.792" height="9.831" transform="translate(32.244)"/><rect class="b" width="0.792" height="9.831" transform="translate(34.29)"/><rect class="b" width="0.792" height="9.831" transform="translate(36.336)"/><rect class="b" width="0.792" height="9.831" transform="translate(38.382)"/><rect class="b" width="0.792" height="9.831" transform="translate(40.429)"/><rect class="b" width="0.792" height="9.831" transform="translate(42.475)"/><rect class="b" width="0.792" height="9.831" transform="translate(44.521)"/><rect class="b" width="0.792" height="9.831" transform="translate(46.567)"/><path class="b" d="M1935.88,5189.956v9.828a2.157,2.157,0,0,0,.792-.161v-9.507A2.136,2.136,0,0,0,1935.88,5189.956Z" transform="translate(-1887.267 -5189.954)"/></g><g transform="translate(1915.173 5210.898)"><rect class="a" width="1.254" height="9.831" transform="translate(24.851 0.001)"/><rect class="a" width="1.254" height="9.831" transform="translate(37.129 0.001)"/><rect class="a" width="1.254" height="9.831" transform="translate(22.805 0.001)"/><rect class="a" width="1.254" height="9.831" transform="translate(18.713 0.001)"/><rect class="a" width="1.254" height="9.831" transform="translate(20.759 0.001)"/><rect class="a" width="1.254" height="9.831" transform="translate(35.082 0.001)"/><rect class="a" width="1.254" height="9.831" transform="translate(33.036 0.001)"/><rect class="a" width="1.254" height="9.831" transform="translate(30.99 0.001)"/><rect class="a" width="1.254" height="9.831" transform="translate(26.897 0.001)"/><rect class="a" width="1.254" height="9.831" transform="translate(2.343 0.001)"/><rect class="a" width="1.254" height="9.831" transform="translate(4.389 0.001)"/><rect class="a" width="1.254" height="9.831" transform="translate(6.435 0.001)"/><path class="a" d="M1907.648,5201.217v5.677a2.077,2.077,0,0,0,1.551,2v-9.669A2.075,2.075,0,0,0,1907.648,5201.217Z" transform="translate(-1907.648 -5199.14)"/><rect class="a" width="1.254" height="9.831" transform="translate(8.482 0.001)"/><rect class="a" width="1.254" height="9.831" transform="translate(12.574 0.001)"/><rect class="a" width="1.254" height="9.831" transform="translate(14.62 0.001)"/><rect class="a" width="1.254" height="9.831" transform="translate(10.528 0.001)"/><rect class="a" width="1.254" height="9.831" transform="translate(16.666 0.001)"/><rect class="a" width="1.254" height="9.831" transform="translate(28.944 0.001)"/><rect class="a" width="1.254" height="9.831" transform="translate(43.267 0.001)"/><rect class="a" width="1.254" height="9.831" transform="translate(39.175 0.001)"/><rect class="a" width="1.254" height="9.831" transform="translate(41.221 0.001)"/><path class="a" d="M1953.156,5199.146h-1.231v9.832h1.231l.022,0v-9.827Z" transform="translate(-1904.565 -5199.146)"/><rect class="a" width="1.254" height="9.831" transform="translate(45.313 0.001)"/><path class="a" d="M1953.838,5199.3v9.507a2.077,2.077,0,0,0,1.287-1.915v-5.678A2.076,2.076,0,0,0,1953.838,5199.3Z" transform="translate(-1904.432 -5199.134)"/><path class="b" d="M1909.65,5199.146a2.1,2.1,0,0,0-.552.081v9.669a2.139,2.139,0,0,0,.552.081h.24v-9.832Z" transform="translate(-1907.547 -5199.146)"/><rect class="b" width="0.792" height="9.831" transform="translate(3.597 0.001)"/><rect class="b" width="0.792" height="9.831" transform="translate(5.643 0.001)"/><rect class="b" width="0.792" height="9.831" transform="translate(7.69 0.001)"/><rect class="b" width="0.792" height="9.831" transform="translate(9.736 0.001)"/><rect class="b" width="0.792" height="9.831" transform="translate(11.782 0.001)"/><rect class="b" width="0.792" height="9.831" transform="translate(13.828 0.001)"/><rect class="b" width="0.792" height="9.831" transform="translate(15.874 0.001)"/><rect class="b" width="0.792" height="9.831" transform="translate(17.921 0.001)"/><rect class="b" width="0.792" height="9.831" transform="translate(19.967 0.001)"/><rect class="b" width="0.792" height="9.831" transform="translate(22.013 0.001)"/><rect class="b" width="0.792" height="9.831" transform="translate(24.059 0.001)"/><rect class="b" width="0.792" height="9.831" transform="translate(26.105 0.001)"/><rect class="b" width="0.792" height="9.831" transform="translate(28.152 0.001)"/><rect class="b" width="0.792" height="9.831" transform="translate(30.198 0.001)"/><rect class="b" width="0.792" height="9.831" transform="translate(32.244 0.001)"/><rect class="b" width="0.792" height="9.831" transform="translate(34.29 0.001)"/><rect class="b" width="0.792" height="9.831" transform="translate(36.336 0.001)"/><rect class="b" width="0.792" height="9.831" transform="translate(38.383 0.001)"/><rect class="b" width="0.792" height="9.831" transform="translate(40.429 0.001)"/><rect class="b" width="0.792" height="9.831" transform="translate(42.475 0.001)"/><rect class="b" width="0.792" height="9.831" transform="translate(44.521 0.001)"/><rect class="b" width="0.792" height="9.831" transform="translate(46.568 0.001)"/><path class="b" d="M1953.1,5199.147v9.827a2.123,2.123,0,0,0,.793-.16v-9.507A2.133,2.133,0,0,0,1953.1,5199.147Z" transform="translate(-1904.484 -5199.146)"/></g><g transform="translate(1910.717 5220.405)"><rect class="a" width="1.254" height="9.831" transform="translate(24.852)"/><rect class="a" width="1.254" height="9.831" transform="translate(37.129)"/><rect class="a" width="1.254" height="9.831" transform="translate(22.805)"/><rect class="a" width="1.254" height="9.831" transform="translate(18.713)"/><rect class="a" width="1.254" height="9.831" transform="translate(20.759)"/><rect class="a" width="1.254" height="9.831" transform="translate(35.083)"/><rect class="a" width="1.254" height="9.831" transform="translate(33.036)"/><rect class="a" width="1.254" height="9.831" transform="translate(30.99)"/><rect class="a" width="1.254" height="9.831" transform="translate(26.898)"/><rect class="a" width="1.254" height="9.831" transform="translate(2.343)"/><rect class="a" width="1.254" height="9.831" transform="translate(4.39)"/><rect class="a" width="1.254" height="9.831" transform="translate(6.436)"/><path class="a" d="M1903.482,5210.105v5.677a2.076,2.076,0,0,0,1.551,2v-9.668A2.075,2.075,0,0,0,1903.482,5210.105Z" transform="translate(-1903.482 -5208.029)"/><rect class="a" width="1.254" height="9.831" transform="translate(8.482)"/><rect class="a" width="1.254" height="9.831" transform="translate(12.574)"/><rect class="a" width="1.254" height="9.831" transform="translate(14.621)"/><rect class="a" width="1.254" height="9.831" transform="translate(10.528)"/><rect class="a" width="1.254" height="9.831" transform="translate(16.667)"/><rect class="a" width="1.254" height="9.831" transform="translate(28.944)"/><rect class="a" width="1.254" height="9.831" transform="translate(43.267)"/><rect class="a" width="1.254" height="9.831" transform="translate(39.175)"/><rect class="a" width="1.254" height="9.831" transform="translate(41.221)"/><path class="a" d="M1948.99,5208.034h-1.231v9.831h1.231l.024,0v-9.828Z" transform="translate(-1900.4 -5208.034)"/><rect class="a" width="1.254" height="9.831" transform="translate(45.314)"/><path class="a" d="M1949.672,5208.185v9.507a2.077,2.077,0,0,0,1.288-1.915V5210.1A2.077,2.077,0,0,0,1949.672,5208.185Z" transform="translate(-1900.266 -5208.023)"/><path class="b" d="M1905.484,5208.034a2.084,2.084,0,0,0-.552.081v9.668a2.084,2.084,0,0,0,.552.082h.241v-9.831Z" transform="translate(-1903.381 -5208.034)"/><rect class="b" width="0.792" height="9.831" transform="translate(3.597)"/><rect class="b" width="0.792" height="9.831" transform="translate(5.644)"/><rect class="b" width="0.792" height="9.831" transform="translate(7.69)"/><rect class="b" width="0.792" height="9.831" transform="translate(9.736)"/><rect class="b" width="0.792" height="9.831" transform="translate(11.782)"/><rect class="b" width="0.792" height="9.831" transform="translate(13.829)"/><rect class="b" width="0.792" height="9.831" transform="translate(15.875)"/><rect class="b" width="0.792" height="9.831" transform="translate(17.921)"/><rect class="b" width="0.792" height="9.831" transform="translate(19.967)"/><rect class="b" width="0.792" height="9.831" transform="translate(22.013)"/><rect class="b" width="0.792" height="9.831" transform="translate(24.06)"/><rect class="b" width="0.792" height="9.831" transform="translate(26.106)"/><rect class="b" width="0.792" height="9.831" transform="translate(28.152)"/><rect class="b" width="0.792" height="9.831" transform="translate(30.198)"/><rect class="b" width="0.792" height="9.831" transform="translate(32.244)"/><rect class="b" width="0.792" height="9.831" transform="translate(34.291)"/><rect class="b" width="0.792" height="9.831" transform="translate(36.337)"/><rect class="b" width="0.792" height="9.831" transform="translate(38.383)"/><rect class="b" width="0.792" height="9.831" transform="translate(40.429)"/><rect class="b" width="0.792" height="9.831" transform="translate(42.475)"/><rect class="b" width="0.792" height="9.831" transform="translate(44.522)"/><rect class="b" width="0.792" height="9.831" transform="translate(46.568)"/><path class="b" d="M1948.932,5208.035v9.828a2.122,2.122,0,0,0,.792-.161V5208.2A2.131,2.131,0,0,0,1948.932,5208.035Z" transform="translate(-1900.318 -5208.034)"/></g><g transform="translate(1918.011 5230.236)"><rect class="a" width="1.254" height="9.831" transform="translate(24.852)"/><rect class="a" width="1.254" height="9.831" transform="translate(37.129)"/><rect class="a" width="1.254" height="9.831" transform="translate(22.806)"/><rect class="a" width="1.254" height="9.831" transform="translate(18.713)"/><rect class="a" width="1.254" height="9.831" transform="translate(20.759)"/><rect class="a" width="1.254" height="9.831" transform="translate(35.083)"/><rect class="a" width="1.254" height="9.831" transform="translate(33.037)"/><rect class="a" width="1.254" height="9.831" transform="translate(30.99)"/><rect class="a" width="1.254" height="9.831" transform="translate(26.898)"/><rect class="a" width="1.254" height="9.831" transform="translate(2.343)"/><rect class="a" width="1.254" height="9.831" transform="translate(4.39)"/><rect class="a" width="1.254" height="9.831" transform="translate(6.436)"/><path class="a" d="M1910.3,5219.3v5.679a2.077,2.077,0,0,0,1.552,2V5217.3A2.076,2.076,0,0,0,1910.3,5219.3Z" transform="translate(-1910.301 -5217.219)"/><rect class="a" width="1.254" height="9.831" transform="translate(8.482)"/><rect class="a" width="1.254" height="9.831" transform="translate(12.574)"/><rect class="a" width="1.254" height="9.831" transform="translate(14.621)"/><rect class="a" width="1.254" height="9.831" transform="translate(10.528)"/><rect class="a" width="1.254" height="9.831" transform="translate(16.667)"/><rect class="a" width="1.254" height="9.831" transform="translate(28.944)"/><rect class="a" width="1.254" height="9.831" transform="translate(43.268)"/><rect class="a" width="1.254" height="9.831" transform="translate(39.175)"/><rect class="a" width="1.254" height="9.831" transform="translate(41.221)"/><path class="a" d="M1955.809,5217.225h-1.231v9.831h1.231l.024,0v-9.827Z" transform="translate(-1907.218 -5217.225)"/><rect class="a" width="1.254" height="9.831" transform="translate(45.314)"/><path class="a" d="M1956.491,5217.376v9.508a2.079,2.079,0,0,0,1.288-1.915v-5.679A2.078,2.078,0,0,0,1956.491,5217.376Z" transform="translate(-1907.085 -5217.214)"/><path class="b" d="M1912.3,5217.225a2.07,2.07,0,0,0-.551.081v9.668a2.09,2.09,0,0,0,.551.081h.241v-9.831Z" transform="translate(-1910.2 -5217.225)"/><rect class="b" width="0.792" height="9.831" transform="translate(3.598)"/><rect class="b" width="0.792" height="9.831" transform="translate(5.644)"/><rect class="b" width="0.792" height="9.831" transform="translate(7.69)"/><rect class="b" width="0.792" height="9.831" transform="translate(9.736)"/><rect class="b" width="0.792" height="9.831" transform="translate(11.783)"/><rect class="b" width="0.792" height="9.831" transform="translate(13.829)"/><rect class="b" width="0.792" height="9.831" transform="translate(15.875)"/><rect class="b" width="0.792" height="9.831" transform="translate(17.921)"/><rect class="b" width="0.792" height="9.831" transform="translate(19.967)"/><rect class="b" width="0.792" height="9.831" transform="translate(22.013)"/><rect class="b" width="0.792" height="9.831" transform="translate(24.06)"/><rect class="b" width="0.792" height="9.831" transform="translate(26.106)"/><rect class="b" width="0.792" height="9.831" transform="translate(28.152)"/><rect class="b" width="0.792" height="9.831" transform="translate(30.198)"/><rect class="b" width="0.792" height="9.831" transform="translate(32.245)"/><rect class="b" width="0.792" height="9.831" transform="translate(34.291)"/><rect class="b" width="0.792" height="9.831" transform="translate(36.337)"/><rect class="b" width="0.792" height="9.831" transform="translate(38.383)"/><rect class="b" width="0.792" height="9.831" transform="translate(40.429)"/><rect class="b" width="0.792" height="9.831" transform="translate(42.476)"/><rect class="b" width="0.792" height="9.831" transform="translate(44.522)"/><rect class="b" width="0.792" height="9.831" transform="translate(46.568)"/><path class="b" d="M1955.751,5217.227v9.827a2.125,2.125,0,0,0,.792-.16v-9.508A2.135,2.135,0,0,0,1955.751,5217.227Z" transform="translate(-1907.137 -5217.224)"/></g><g transform="translate(1909.694 5240.067)"><rect class="a" width="1.254" height="9.831" transform="translate(24.851)"/><rect class="a" width="1.254" height="9.831" transform="translate(37.128)"/><rect class="a" width="1.254" height="9.831" transform="translate(22.805)"/><rect class="a" width="1.254" height="9.831" transform="translate(18.713)"/><rect class="a" width="1.254" height="9.831" transform="translate(20.759)"/><rect class="a" width="1.254" height="9.831" transform="translate(35.082)"/><rect class="a" width="1.254" height="9.831" transform="translate(33.036)"/><rect class="a" width="1.254" height="9.831" transform="translate(30.99)"/><rect class="a" width="1.254" height="9.831" transform="translate(26.897)"/><rect class="a" width="1.254" height="9.831" transform="translate(2.343)"/><rect class="a" width="1.254" height="9.831" transform="translate(4.389)"/><rect class="a" width="1.254" height="9.831" transform="translate(6.435)"/><path class="a" d="M1902.526,5228.487v5.679a2.073,2.073,0,0,0,1.551,1.995v-9.668A2.074,2.074,0,0,0,1902.526,5228.487Z" transform="translate(-1902.526 -5226.411)"/><rect class="a" width="1.254" height="9.831" transform="translate(8.481)"/><rect class="a" width="1.254" height="9.831" transform="translate(12.574)"/><rect class="a" width="1.254" height="9.831" transform="translate(14.62)"/><rect class="a" width="1.254" height="9.831" transform="translate(10.528)"/><rect class="a" width="1.254" height="9.831" transform="translate(16.666)"/><rect class="a" width="1.254" height="9.831" transform="translate(28.943)"/><rect class="a" width="1.254" height="9.831" transform="translate(43.267)"/><rect class="a" width="1.254" height="9.831" transform="translate(39.174)"/><rect class="a" width="1.254" height="9.831" transform="translate(41.221)"/><path class="a" d="M1948.034,5226.416H1946.8v9.831h1.254v-9.828Z" transform="translate(-1899.443 -5226.416)"/><rect class="a" width="1.254" height="9.831" transform="translate(45.313)"/><path class="a" d="M1948.716,5226.568v9.507a2.077,2.077,0,0,0,1.287-1.915v-5.679A2.075,2.075,0,0,0,1948.716,5226.568Z" transform="translate(-1899.31 -5226.405)"/><path class="b" d="M1904.527,5226.416a2.058,2.058,0,0,0-.551.082v9.668a2.077,2.077,0,0,0,.551.081h.24v-9.831Z" transform="translate(-1902.425 -5226.416)"/><rect class="b" width="0.792" height="9.831" transform="translate(3.597)"/><rect class="b" width="0.792" height="9.831" transform="translate(5.643)"/><rect class="b" width="0.792" height="9.831" transform="translate(7.689)"/><rect class="b" width="0.792" height="9.831" transform="translate(9.736)"/><rect class="b" width="0.792" height="9.831" transform="translate(11.782)"/><rect class="b" width="0.792" height="9.831" transform="translate(13.828)"/><rect class="b" width="0.792" height="9.831" transform="translate(15.874)"/><rect class="b" width="0.792" height="9.831" transform="translate(17.92)"/><rect class="b" width="0.792" height="9.831" transform="translate(19.967)"/><rect class="b" width="0.792" height="9.831" transform="translate(22.013)"/><rect class="b" width="0.792" height="9.831" transform="translate(24.059)"/><rect class="b" width="0.792" height="9.831" transform="translate(26.105)"/><rect class="b" width="0.792" height="9.831" transform="translate(28.152)"/><rect class="b" width="0.792" height="9.831" transform="translate(30.198)"/><rect class="b" width="0.792" height="9.831" transform="translate(32.244)"/><rect class="b" width="0.792" height="9.831" transform="translate(34.29)"/><rect class="b" width="0.792" height="9.831" transform="translate(36.336)"/><rect class="b" width="0.792" height="9.831" transform="translate(38.383)"/><rect class="b" width="0.792" height="9.831" transform="translate(40.429)"/><rect class="b" width="0.792" height="9.831" transform="translate(42.475)"/><rect class="b" width="0.792" height="9.831" transform="translate(44.521)"/><rect class="b" width="0.792" height="9.831" transform="translate(46.567)"/><path class="b" d="M1947.975,5226.418v9.828a2.131,2.131,0,0,0,.792-.161v-9.507A2.121,2.121,0,0,0,1947.975,5226.418Z" transform="translate(-1899.362 -5226.416)"/></g><g transform="translate(1915.569 5249.898)"><rect class="a" width="1.254" height="9.831" transform="translate(24.851 0.001)"/><rect class="a" width="1.254" height="9.831" transform="translate(37.129 0.001)"/><rect class="a" width="1.254" height="9.831" transform="translate(22.805 0.001)"/><rect class="a" width="1.254" height="9.831" transform="translate(18.713 0.001)"/><rect class="a" width="1.254" height="9.831" transform="translate(20.759 0.001)"/><rect class="a" width="1.254" height="9.831" transform="translate(35.082 0.001)"/><rect class="a" width="1.254" height="9.831" transform="translate(33.036 0.001)"/><rect class="a" width="1.254" height="9.831" transform="translate(30.99 0.001)"/><rect class="a" width="1.254" height="9.831" transform="translate(26.897 0.001)"/><rect class="a" width="1.254" height="9.831" transform="translate(2.343 0.001)"/><rect class="a" width="1.254" height="9.831" transform="translate(4.389 0.001)"/><rect class="a" width="1.254" height="9.831" transform="translate(6.435 0.001)"/><path class="a" d="M1908.018,5237.679v5.678a2.076,2.076,0,0,0,1.551,2v-9.67A2.076,2.076,0,0,0,1908.018,5237.679Z" transform="translate(-1908.018 -5235.601)"/><rect class="a" width="1.254" height="9.831" transform="translate(8.482 0.001)"/><rect class="a" width="1.254" height="9.831" transform="translate(12.574 0.001)"/><rect class="a" width="1.254" height="9.831" transform="translate(14.62 0.001)"/><rect class="a" width="1.254" height="9.831" transform="translate(10.528 0.001)"/><rect class="a" width="1.254" height="9.831" transform="translate(16.666 0.001)"/><rect class="a" width="1.254" height="9.831" transform="translate(28.944 0.001)"/><rect class="a" width="1.254" height="9.831" transform="translate(43.267 0.001)"/><rect class="a" width="1.254" height="9.831" transform="translate(39.175 0.001)"/><rect class="a" width="1.254" height="9.831" transform="translate(41.221 0.001)"/><rect class="a" width="1.254" height="9.831" transform="translate(47.36 0.001)"/><rect class="a" width="1.254" height="9.831" transform="translate(45.313 0.001)"/><path class="a" d="M1954.208,5235.759v9.507a2.077,2.077,0,0,0,1.287-1.915v-5.678A2.077,2.077,0,0,0,1954.208,5235.759Z" transform="translate(-1904.802 -5235.596)"/><path class="b" d="M1910.02,5235.607a2.136,2.136,0,0,0-.552.082v9.669a2.115,2.115,0,0,0,.552.081h.24v-9.832Z" transform="translate(-1907.917 -5235.607)"/><rect class="b" width="0.792" height="9.831" transform="translate(3.597 0.001)"/><rect class="b" width="0.792" height="9.831" transform="translate(5.643 0.001)"/><rect class="b" width="0.792" height="9.831" transform="translate(7.69 0.001)"/><rect class="b" width="0.792" height="9.831" transform="translate(9.736 0.001)"/><rect class="b" width="0.792" height="9.831" transform="translate(11.782 0.001)"/><rect class="b" width="0.792" height="9.831" transform="translate(13.828 0.001)"/><rect class="b" width="0.792" height="9.831" transform="translate(15.874 0.001)"/><rect class="b" width="0.792" height="9.831" transform="translate(17.921 0.001)"/><rect class="b" width="0.792" height="9.831" transform="translate(19.967 0.001)"/><rect class="b" width="0.792" height="9.831" transform="translate(22.013 0.001)"/><rect class="b" width="0.792" height="9.831" transform="translate(24.059 0.001)"/><rect class="b" width="0.792" height="9.831" transform="translate(26.105 0.001)"/><rect class="b" width="0.792" height="9.831" transform="translate(28.152 0.001)"/><rect class="b" width="0.792" height="9.831" transform="translate(30.198 0.001)"/><rect class="b" width="0.792" height="9.831" transform="translate(32.244 0.001)"/><rect class="b" width="0.792" height="9.831" transform="translate(34.29 0.001)"/><rect class="b" width="0.792" height="9.831" transform="translate(36.336 0.001)"/><rect class="b" width="0.792" height="9.831" transform="translate(38.383 0.001)"/><rect class="b" width="0.792" height="9.831" transform="translate(40.429 0.001)"/><rect class="b" width="0.792" height="9.831" transform="translate(42.475 0.001)"/><rect class="b" width="0.792" height="9.831" transform="translate(44.521 0.001)"/><rect class="b" width="0.792" height="9.831" transform="translate(46.568 0.001)"/><path class="b" d="M1953.467,5235.609v9.828a2.1,2.1,0,0,0,.793-.161v-9.506A2.113,2.113,0,0,0,1953.467,5235.609Z" transform="translate(-1904.854 -5235.607)"/></g><g transform="translate(1911.608 5259.73)"><rect class="a" width="1.254" height="9.831" transform="translate(24.852)"/><rect class="a" width="1.254" height="9.831" transform="translate(37.129)"/><rect class="a" width="1.254" height="9.831" transform="translate(22.806)"/><rect class="a" width="1.254" height="9.831" transform="translate(18.713)"/><rect class="a" width="1.254" height="9.831" transform="translate(20.76)"/><rect class="a" width="1.254" height="9.831" transform="translate(35.083)"/><rect class="a" width="1.254" height="9.831" transform="translate(33.037)"/><rect class="a" width="1.254" height="9.831" transform="translate(30.991)"/><rect class="a" width="1.254" height="9.831" transform="translate(26.898)"/><rect class="a" width="1.254" height="9.831" transform="translate(2.344)"/><rect class="a" width="1.254" height="9.831" transform="translate(4.39)"/><rect class="a" width="1.254" height="9.831" transform="translate(6.436)"/><path class="a" d="M1904.315,5246.87v5.678a2.077,2.077,0,0,0,1.552,2v-9.669A2.075,2.075,0,0,0,1904.315,5246.87Z" transform="translate(-1904.315 -5244.793)"/><rect class="a" width="1.254" height="9.831" transform="translate(8.482)"/><rect class="a" width="1.254" height="9.831" transform="translate(12.575)"/><rect class="a" width="1.254" height="9.831" transform="translate(14.621)"/><rect class="a" width="1.254" height="9.831" transform="translate(10.528)"/><rect class="a" width="1.254" height="9.831" transform="translate(16.667)"/><rect class="a" width="1.254" height="9.831" transform="translate(28.944)"/><rect class="a" width="1.254" height="9.831" transform="translate(43.268)"/><rect class="a" width="1.254" height="9.831" transform="translate(39.175)"/><rect class="a" width="1.254" height="9.831" transform="translate(41.222)"/><path class="a" d="M1949.823,5244.8h-1.23v9.832h1.23l.024,0V5244.8Z" transform="translate(-1901.232 -5244.799)"/><rect class="a" width="1.254" height="9.831" transform="translate(45.314)"/><path class="a" d="M1950.505,5244.95v9.506a2.076,2.076,0,0,0,1.288-1.914v-5.678A2.077,2.077,0,0,0,1950.505,5244.95Z" transform="translate(-1901.099 -5244.789)"/><path class="b" d="M1906.317,5244.8a2.07,2.07,0,0,0-.551.082v9.668a2.09,2.09,0,0,0,.551.082h.241V5244.8Z" transform="translate(-1904.214 -5244.799)"/><rect class="b" width="0.792" height="9.831" transform="translate(3.598)"/><rect class="b" width="0.792" height="9.831" transform="translate(5.644)"/><rect class="b" width="0.792" height="9.831" transform="translate(7.69)"/><rect class="b" width="0.792" height="9.831" transform="translate(9.736)"/><rect class="b" width="0.792" height="9.831" transform="translate(11.783)"/><rect class="b" width="0.792" height="9.831" transform="translate(13.829)"/><rect class="b" width="0.792" height="9.831" transform="translate(15.875)"/><rect class="b" width="0.792" height="9.831" transform="translate(17.921)"/><rect class="b" width="0.792" height="9.831" transform="translate(19.967)"/><rect class="b" width="0.792" height="9.831" transform="translate(22.014)"/><rect class="b" width="0.792" height="9.831" transform="translate(24.06)"/><rect class="b" width="0.792" height="9.831" transform="translate(26.106)"/><rect class="b" width="0.792" height="9.831" transform="translate(28.152)"/><rect class="b" width="0.792" height="9.831" transform="translate(30.198)"/><rect class="b" width="0.792" height="9.831" transform="translate(32.245)"/><rect class="b" width="0.792" height="9.831" transform="translate(34.291)"/><rect class="b" width="0.792" height="9.831" transform="translate(36.337)"/><rect class="b" width="0.792" height="9.831" transform="translate(38.383)"/><rect class="b" width="0.792" height="9.831" transform="translate(40.429)"/><rect class="b" width="0.792" height="9.831" transform="translate(42.476)"/><rect class="b" width="0.792" height="9.831" transform="translate(44.522)"/><rect class="b" width="0.792" height="9.831" transform="translate(46.568)"/><path class="b" d="M1949.765,5244.8v9.828a2.1,2.1,0,0,0,.792-.161v-9.506A2.157,2.157,0,0,0,1949.765,5244.8Z" transform="translate(-1901.151 -5244.799)"/></g><g transform="translate(1916.46 5269.561)"><rect class="a" width="1.254" height="9.831" transform="translate(24.851)"/><rect class="a" width="1.254" height="9.831" transform="translate(37.129)"/><rect class="a" width="1.254" height="9.831" transform="translate(22.805)"/><rect class="a" width="1.254" height="9.831" transform="translate(18.713)"/><rect class="a" width="1.254" height="9.831" transform="translate(20.759)"/><rect class="a" width="1.254" height="9.831" transform="translate(35.083)"/><rect class="a" width="1.254" height="9.831" transform="translate(33.036)"/><rect class="a" width="1.254" height="9.831" transform="translate(30.99)"/><rect class="a" width="1.254" height="9.831" transform="translate(26.898)"/><rect class="a" width="1.254" height="9.831" transform="translate(2.343)"/><rect class="a" width="1.254" height="9.831" transform="translate(4.389)"/><rect class="a" width="1.254" height="9.831" transform="translate(6.436)"/><path class="a" d="M1908.851,5256.061v5.679a2.074,2.074,0,0,0,1.551,1.994v-9.668A2.076,2.076,0,0,0,1908.851,5256.061Z" transform="translate(-1908.851 -5253.984)"/><rect class="a" width="1.254" height="9.831" transform="translate(8.482)"/><rect class="a" width="1.254" height="9.831" transform="translate(12.574)"/><rect class="a" width="1.254" height="9.831" transform="translate(14.62)"/><rect class="a" width="1.254" height="9.831" transform="translate(10.528)"/><rect class="a" width="1.254" height="9.831" transform="translate(16.667)"/><rect class="a" width="1.254" height="9.831" transform="translate(28.944)"/><rect class="a" width="1.254" height="9.831" transform="translate(43.267)"/><rect class="a" width="1.254" height="9.831" transform="translate(39.175)"/><rect class="a" width="1.254" height="9.831" transform="translate(41.221)"/><path class="a" d="M1954.359,5253.99h-1.231v9.831h1.231l.023,0v-9.827Z" transform="translate(-1905.768 -5253.99)"/><rect class="a" width="1.254" height="9.831" transform="translate(45.314)"/><path class="a" d="M1955.041,5254.141v9.508a2.078,2.078,0,0,0,1.287-1.914v-5.679A2.078,2.078,0,0,0,1955.041,5254.141Z" transform="translate(-1905.635 -5253.979)"/><path class="b" d="M1910.853,5253.99a2.076,2.076,0,0,0-.552.081v9.668a2.1,2.1,0,0,0,.552.081h.241v-9.831Z" transform="translate(-1908.75 -5253.99)"/><rect class="b" width="0.792" height="9.831" transform="translate(3.597)"/><rect class="b" width="0.792" height="9.831" transform="translate(5.643)"/><rect class="b" width="0.792" height="9.831" transform="translate(7.69)"/><rect class="b" width="0.792" height="9.831" transform="translate(9.736)"/><rect class="b" width="0.792" height="9.831" transform="translate(11.782)"/><rect class="b" width="0.792" height="9.831" transform="translate(13.828)"/><rect class="b" width="0.792" height="9.831" transform="translate(15.875)"/><rect class="b" width="0.792" height="9.831" transform="translate(17.921)"/><rect class="b" width="0.792" height="9.831" transform="translate(19.967)"/><rect class="b" width="0.792" height="9.831" transform="translate(22.013)"/><rect class="b" width="0.792" height="9.831" transform="translate(24.059)"/><rect class="b" width="0.792" height="9.831" transform="translate(26.106)"/><rect class="b" width="0.792" height="9.831" transform="translate(28.152)"/><rect class="b" width="0.792" height="9.831" transform="translate(30.198)"/><rect class="b" width="0.792" height="9.831" transform="translate(32.244)"/><rect class="b" width="0.792" height="9.831" transform="translate(34.29)"/><rect class="b" width="0.792" height="9.831" transform="translate(36.337)"/><rect class="b" width="0.792" height="9.831" transform="translate(38.383)"/><rect class="b" width="0.792" height="9.831" transform="translate(40.429)"/><rect class="b" width="0.792" height="9.831" transform="translate(42.475)"/><rect class="b" width="0.792" height="9.831" transform="translate(44.521)"/><rect class="b" width="0.792" height="9.831" transform="translate(46.568)"/><path class="b" d="M1954.3,5253.992v9.827a2.131,2.131,0,0,0,.792-.16v-9.507A2.13,2.13,0,0,0,1954.3,5253.992Z" transform="translate(-1905.687 -5253.989)"/></g><g transform="translate(1813.918 5130.284)"><rect class="a" width="1.254" height="9.831" transform="translate(24.851 0.001)"/><rect class="a" width="1.254" height="9.831" transform="translate(37.128 0.001)"/><rect class="a" width="1.254" height="9.831" transform="translate(22.805 0.001)"/><rect class="a" width="1.254" height="9.831" transform="translate(18.713 0.001)"/><rect class="a" width="1.254" height="9.831" transform="translate(20.759 0.001)"/><rect class="a" width="1.254" height="9.831" transform="translate(35.082 0.001)"/><rect class="a" width="1.254" height="9.831" transform="translate(33.036 0.001)"/><rect class="a" width="1.254" height="9.831" transform="translate(30.99 0.001)"/><rect class="a" width="1.254" height="9.831" transform="translate(26.897 0.001)"/><rect class="a" width="1.254" height="9.831" transform="translate(2.343 0.001)"/><rect class="a" width="1.254" height="9.831" transform="translate(4.389 0.001)"/><rect class="a" width="1.254" height="9.831" transform="translate(6.435 0.001)"/><path class="a" d="M1812.984,5125.85v5.677a2.075,2.075,0,0,0,1.551,2v-9.668A2.075,2.075,0,0,0,1812.984,5125.85Z" transform="translate(-1812.984 -5123.772)"/><rect class="a" width="1.254" height="9.831" transform="translate(8.481 0.001)"/><rect class="a" width="1.254" height="9.831" transform="translate(12.574 0.001)"/><rect class="a" width="1.254" height="9.831" transform="translate(14.62 0.001)"/><rect class="a" width="1.254" height="9.831" transform="translate(10.528 0.001)"/><rect class="a" width="1.254" height="9.831" transform="translate(16.666 0.001)"/><rect class="a" width="1.254" height="9.831" transform="translate(28.944 0.001)"/><rect class="a" width="1.254" height="9.831" transform="translate(43.267 0.001)"/><rect class="a" width="1.254" height="9.831" transform="translate(39.175 0.001)"/><rect class="a" width="1.254" height="9.831" transform="translate(41.221 0.001)"/><path class="a" d="M1858.492,5123.778h-1.231v9.831h1.254v-9.827Z" transform="translate(-1809.901 -5123.778)"/><rect class="a" width="1.254" height="9.831" transform="translate(45.313 0.001)"/><path class="a" d="M1859.174,5123.93v9.507a2.076,2.076,0,0,0,1.287-1.915v-5.677A2.076,2.076,0,0,0,1859.174,5123.93Z" transform="translate(-1809.768 -5123.767)"/><path class="b" d="M1814.986,5123.778a2.1,2.1,0,0,0-.552.081v9.668a2.1,2.1,0,0,0,.552.081h.24v-9.831Z" transform="translate(-1812.883 -5123.778)"/><rect class="b" width="0.792" height="9.831" transform="translate(3.597 0.001)"/><rect class="b" width="0.792" height="9.831" transform="translate(5.643 0.001)"/><rect class="b" width="0.792" height="9.831" transform="translate(7.689 0.001)"/><rect class="b" width="0.792" height="9.831" transform="translate(9.736 0.001)"/><rect class="b" width="0.792" height="9.831" transform="translate(11.782 0.001)"/><rect class="b" width="0.792" height="9.831" transform="translate(13.828 0.001)"/><rect class="b" width="0.792" height="9.831" transform="translate(15.874 0.001)"/><rect class="b" width="0.792" height="9.831" transform="translate(17.921 0.001)"/><rect class="b" width="0.792" height="9.831" transform="translate(19.967 0.001)"/><rect class="b" width="0.792" height="9.831" transform="translate(22.013 0.001)"/><rect class="b" width="0.792" height="9.831" transform="translate(24.059 0.001)"/><rect class="b" width="0.792" height="9.831" transform="translate(26.105 0.001)"/><rect class="b" width="0.792" height="9.831" transform="translate(28.152 0.001)"/><rect class="b" width="0.792" height="9.831" transform="translate(30.198 0.001)"/><rect class="b" width="0.792" height="9.831" transform="translate(32.244 0.001)"/><rect class="b" width="0.792" height="9.831" transform="translate(34.29 0.001)"/><rect class="b" width="0.792" height="9.831" transform="translate(36.336 0.001)"/><rect class="b" width="0.792" height="9.831" transform="translate(38.383 0.001)"/><rect class="b" width="0.792" height="9.831" transform="translate(40.429 0.001)"/><rect class="b" width="0.792" height="9.831" transform="translate(42.475 0.001)"/><rect class="b" width="0.792" height="9.831" transform="translate(44.521 0.001)"/><rect class="b" width="0.792" height="9.831" transform="translate(46.567 0.001)"/><path class="b" d="M1858.433,5123.78v9.828a2.112,2.112,0,0,0,.792-.16v-9.507A2.121,2.121,0,0,0,1858.433,5123.78Z" transform="translate(-1809.82 -5123.778)"/></g><g transform="translate(1818.142 5140.115)"><rect class="a" width="1.254" height="9.831" transform="translate(24.852)"/><rect class="a" width="1.254" height="9.831" transform="translate(37.129)"/><rect class="a" width="1.254" height="9.831" transform="translate(22.805)"/><rect class="a" width="1.254" height="9.831" transform="translate(18.713)"/><rect class="a" width="1.254" height="9.831" transform="translate(20.759)"/><rect class="a" width="1.254" height="9.831" transform="translate(35.083)"/><rect class="a" width="1.254" height="9.831" transform="translate(33.037)"/><rect class="a" width="1.254" height="9.831" transform="translate(30.99)"/><rect class="a" width="1.254" height="9.831" transform="translate(26.898)"/><rect class="a" width="1.254" height="9.831" transform="translate(2.343)"/><rect class="a" width="1.254" height="9.831" transform="translate(4.39)"/><rect class="a" width="1.254" height="9.831" transform="translate(6.436)"/><path class="a" d="M1816.933,5135.041v5.678a2.076,2.076,0,0,0,1.551,2v-9.669A2.076,2.076,0,0,0,1816.933,5135.041Z" transform="translate(-1816.933 -5132.964)"/><rect class="a" width="1.254" height="9.831" transform="translate(8.482)"/><rect class="a" width="1.254" height="9.831" transform="translate(12.574)"/><rect class="a" width="1.254" height="9.831" transform="translate(14.621)"/><rect class="a" width="1.254" height="9.831" transform="translate(10.528)"/><rect class="a" width="1.254" height="9.831" transform="translate(16.667)"/><rect class="a" width="1.254" height="9.831" transform="translate(28.944)"/><rect class="a" width="1.254" height="9.831" transform="translate(43.268)"/><rect class="a" width="1.254" height="9.831" transform="translate(39.175)"/><rect class="a" width="1.254" height="9.831" transform="translate(41.221)"/><path class="a" d="M1862.441,5132.969h-1.231v9.832h1.231l.023,0v-9.828Z" transform="translate(-1813.85 -5132.969)"/><rect class="a" width="1.254" height="9.831" transform="translate(45.314)"/><path class="a" d="M1863.123,5133.121v9.506a2.077,2.077,0,0,0,1.288-1.914v-5.678A2.078,2.078,0,0,0,1863.123,5133.121Z" transform="translate(-1813.717 -5132.958)"/><path class="b" d="M1818.935,5132.969a2.142,2.142,0,0,0-.552.081v9.669a2.142,2.142,0,0,0,.552.081h.241v-9.832Z" transform="translate(-1816.832 -5132.969)"/><rect class="b" width="0.792" height="9.831" transform="translate(3.598)"/><rect class="b" width="0.792" height="9.831" transform="translate(5.644)"/><rect class="b" width="0.792" height="9.831" transform="translate(7.69)"/><rect class="b" width="0.792" height="9.831" transform="translate(9.736)"/><rect class="b" width="0.792" height="9.831" transform="translate(11.782)"/><rect class="b" width="0.792" height="9.831" transform="translate(13.829)"/><rect class="b" width="0.792" height="9.831" transform="translate(15.875)"/><rect class="b" width="0.792" height="9.831" transform="translate(17.921)"/><rect class="b" width="0.792" height="9.831" transform="translate(19.967)"/><rect class="b" width="0.792" height="9.831" transform="translate(22.013)"/><rect class="b" width="0.792" height="9.831" transform="translate(24.06)"/><rect class="b" width="0.792" height="9.831" transform="translate(26.106)"/><rect class="b" width="0.792" height="9.831" transform="translate(28.152)"/><rect class="b" width="0.792" height="9.831" transform="translate(30.198)"/><rect class="b" width="0.792" height="9.831" transform="translate(32.244)"/><rect class="b" width="0.792" height="9.831" transform="translate(34.291)"/><rect class="b" width="0.792" height="9.831" transform="translate(36.337)"/><rect class="b" width="0.792" height="9.831" transform="translate(38.383)"/><rect class="b" width="0.792" height="9.831" transform="translate(40.429)"/><rect class="b" width="0.792" height="9.831" transform="translate(42.475)"/><rect class="b" width="0.792" height="9.831" transform="translate(44.522)"/><rect class="b" width="0.792" height="9.831" transform="translate(46.568)"/><path class="b" d="M1862.383,5132.971v9.828a2.123,2.123,0,0,0,.792-.161v-9.506A2.142,2.142,0,0,0,1862.383,5132.971Z" transform="translate(-1813.769 -5132.969)"/></g><g transform="translate(1818.275 5149.784)"><rect class="a" width="1.254" height="9.831" transform="translate(24.851 0.001)"/><rect class="a" width="1.254" height="9.831" transform="translate(37.128 0.001)"/><rect class="a" width="1.254" height="9.831" transform="translate(22.805 0.001)"/><rect class="a" width="1.254" height="9.831" transform="translate(18.712 0.001)"/><rect class="a" width="1.254" height="9.831" transform="translate(20.759 0.001)"/><rect class="a" width="1.254" height="9.831" transform="translate(35.082 0.001)"/><rect class="a" width="1.254" height="9.831" transform="translate(33.036 0.001)"/><rect class="a" width="1.254" height="9.831" transform="translate(30.99 0.001)"/><rect class="a" width="1.254" height="9.831" transform="translate(26.897 0.001)"/><rect class="a" width="1.254" height="9.831" transform="translate(2.343 0.001)"/><rect class="a" width="1.254" height="9.831" transform="translate(4.389 0.001)"/><rect class="a" width="1.254" height="9.831" transform="translate(6.435 0.001)"/><path class="a" d="M1817.057,5144.081v5.677a2.073,2.073,0,0,0,1.551,1.995v-9.668A2.076,2.076,0,0,0,1817.057,5144.081Z" transform="translate(-1817.057 -5142.003)"/><rect class="a" width="1.254" height="9.831" transform="translate(8.481 0.001)"/><rect class="a" width="1.254" height="9.831" transform="translate(12.574 0.001)"/><rect class="a" width="1.254" height="9.831" transform="translate(14.62 0.001)"/><rect class="a" width="1.254" height="9.831" transform="translate(10.528 0.001)"/><rect class="a" width="1.254" height="9.831" transform="translate(16.666 0.001)"/><rect class="a" width="1.254" height="9.831" transform="translate(28.943 0.001)"/><rect class="a" width="1.254" height="9.831" transform="translate(43.267 0.001)"/><rect class="a" width="1.254" height="9.831" transform="translate(39.174 0.001)"/><rect class="a" width="1.254" height="9.831" transform="translate(41.221 0.001)"/><path class="a" d="M1862.564,5142.009h-1.23v9.832h1.253v-9.828Z" transform="translate(-1813.975 -5142.009)"/><rect class="a" width="1.254" height="9.831" transform="translate(45.313 0.001)"/><path class="a" d="M1863.247,5142.161v9.506a2.077,2.077,0,0,0,1.287-1.915v-5.678A2.075,2.075,0,0,0,1863.247,5142.161Z" transform="translate(-1813.841 -5141.999)"/><path class="b" d="M1819.058,5142.009a2.075,2.075,0,0,0-.551.082v9.668a2.075,2.075,0,0,0,.551.082h.241v-9.832Z" transform="translate(-1816.956 -5142.009)"/><rect class="b" width="0.792" height="9.831" transform="translate(3.597 0.001)"/><rect class="b" width="0.792" height="9.831" transform="translate(5.643 0.001)"/><rect class="b" width="0.792" height="9.831" transform="translate(7.689 0.001)"/><rect class="b" width="0.792" height="9.831" transform="translate(9.735 0.001)"/><rect class="b" width="0.792" height="9.831" transform="translate(11.782 0.001)"/><rect class="b" width="0.792" height="9.831" transform="translate(13.828 0.001)"/><rect class="b" width="0.792" height="9.831" transform="translate(15.874 0.001)"/><rect class="b" width="0.792" height="9.831" transform="translate(17.92 0.001)"/><rect class="b" width="0.792" height="9.831" transform="translate(19.966 0.001)"/><rect class="b" width="0.792" height="9.831" transform="translate(22.013 0.001)"/><rect class="b" width="0.792" height="9.831" transform="translate(24.059 0.001)"/><rect class="b" width="0.792" height="9.831" transform="translate(26.105 0.001)"/><rect class="b" width="0.792" height="9.831" transform="translate(28.151 0.001)"/><rect class="b" width="0.792" height="9.831" transform="translate(30.197 0.001)"/><rect class="b" width="0.792" height="9.831" transform="translate(32.244 0.001)"/><rect class="b" width="0.792" height="9.831" transform="translate(34.29 0.001)"/><rect class="b" width="0.792" height="9.831" transform="translate(36.336 0.001)"/><rect class="b" width="0.792" height="9.831" transform="translate(38.382 0.001)"/><rect class="b" width="0.792" height="9.831" transform="translate(40.429 0.001)"/><rect class="b" width="0.792" height="9.831" transform="translate(42.475 0.001)"/><rect class="b" width="0.792" height="9.831" transform="translate(44.521 0.001)"/><rect class="b" width="0.792" height="9.831" transform="translate(46.567 0.001)"/><path class="b" d="M1862.506,5142.012v9.827a2.126,2.126,0,0,0,.792-.161v-9.506A2.1,2.1,0,0,0,1862.506,5142.012Z" transform="translate(-1813.893 -5142.009)"/></g><g transform="translate(1799.562 5159.453)"><rect class="a" width="1.254" height="9.831" transform="translate(24.851)"/><rect class="a" width="1.254" height="9.831" transform="translate(37.128)"/><rect class="a" width="1.254" height="9.831" transform="translate(22.805)"/><rect class="a" width="1.254" height="9.831" transform="translate(18.713)"/><rect class="a" width="1.254" height="9.831" transform="translate(20.759)"/><rect class="a" width="1.254" height="9.831" transform="translate(35.082)"/><rect class="a" width="1.254" height="9.831" transform="translate(33.036)"/><rect class="a" width="1.254" height="9.831" transform="translate(30.99)"/><rect class="a" width="1.254" height="9.831" transform="translate(26.897)"/><rect class="a" width="1.254" height="9.831" transform="translate(2.343)"/><rect class="a" width="1.254" height="9.831" transform="translate(4.389)"/><rect class="a" width="1.254" height="9.831" transform="translate(6.435)"/><path class="a" d="M1799.562,5153.12v5.678a2.076,2.076,0,0,0,1.551,2v-9.668A2.074,2.074,0,0,0,1799.562,5153.12Z" transform="translate(-1799.562 -5151.043)"/><rect class="a" width="1.254" height="9.831" transform="translate(8.481)"/><rect class="a" width="1.254" height="9.831" transform="translate(12.574)"/><rect class="a" width="1.254" height="9.831" transform="translate(14.62)"/><rect class="a" width="1.254" height="9.831" transform="translate(10.528)"/><rect class="a" width="1.254" height="9.831" transform="translate(16.666)"/><rect class="a" width="1.254" height="9.831" transform="translate(28.943)"/><rect class="a" width="1.254" height="9.831" transform="translate(43.267)"/><rect class="a" width="1.254" height="9.831" transform="translate(39.174)"/><rect class="a" width="1.254" height="9.831" transform="translate(41.221)"/><path class="a" d="M1845.07,5151.049h-1.231v9.831h1.231l.022,0v-9.827Z" transform="translate(-1796.48 -5151.049)"/><rect class="a" width="1.254" height="9.831" transform="translate(45.313)"/><path class="a" d="M1845.752,5151.2v9.508a2.079,2.079,0,0,0,1.287-1.915v-5.678A2.077,2.077,0,0,0,1845.752,5151.2Z" transform="translate(-1796.346 -5151.039)"/><path class="b" d="M1801.563,5151.049a2.1,2.1,0,0,0-.551.081v9.669a2.1,2.1,0,0,0,.551.081h.241v-9.831Z" transform="translate(-1799.461 -5151.049)"/><rect class="b" width="0.792" height="9.831" transform="translate(3.597)"/><rect class="b" width="0.792" height="9.831" transform="translate(5.643)"/><rect class="b" width="0.792" height="9.831" transform="translate(7.689)"/><rect class="b" width="0.792" height="9.831" transform="translate(9.736)"/><rect class="b" width="0.792" height="9.831" transform="translate(11.782)"/><rect class="b" width="0.792" height="9.831" transform="translate(13.828)"/><rect class="b" width="0.792" height="9.831" transform="translate(15.874)"/><rect class="b" width="0.792" height="9.831" transform="translate(17.92)"/><rect class="b" width="0.792" height="9.831" transform="translate(19.967)"/><rect class="b" width="0.792" height="9.831" transform="translate(22.013)"/><rect class="b" width="0.792" height="9.831" transform="translate(24.059)"/><rect class="b" width="0.792" height="9.831" transform="translate(26.105)"/><rect class="b" width="0.792" height="9.831" transform="translate(28.152)"/><rect class="b" width="0.792" height="9.831" transform="translate(30.198)"/><rect class="b" width="0.792" height="9.831" transform="translate(32.244)"/><rect class="b" width="0.792" height="9.831" transform="translate(34.29)"/><rect class="b" width="0.792" height="9.831" transform="translate(36.336)"/><rect class="b" width="0.792" height="9.831" transform="translate(38.383)"/><rect class="b" width="0.792" height="9.831" transform="translate(40.429)"/><rect class="b" width="0.792" height="9.831" transform="translate(42.475)"/><rect class="b" width="0.792" height="9.831" transform="translate(44.521)"/><rect class="b" width="0.792" height="9.831" transform="translate(46.567)"/><path class="b" d="M1845.011,5151.051v9.827a2.13,2.13,0,0,0,.792-.16v-9.507A2.13,2.13,0,0,0,1845.011,5151.051Z" transform="translate(-1796.398 -5151.049)"/></g><g transform="translate(1817.978 5169.285)"><rect class="a" width="1.254" height="9.831" transform="translate(24.851)"/><rect class="a" width="1.254" height="9.831" transform="translate(37.129)"/><rect class="a" width="1.254" height="9.831" transform="translate(22.805)"/><rect class="a" width="1.254" height="9.831" transform="translate(18.713)"/><rect class="a" width="1.254" height="9.831" transform="translate(20.759)"/><rect class="a" width="1.254" height="9.831" transform="translate(35.083)"/><rect class="a" width="1.254" height="9.831" transform="translate(33.036)"/><rect class="a" width="1.254" height="9.831" transform="translate(30.99)"/><rect class="a" width="1.254" height="9.831" transform="translate(26.898)"/><rect class="a" width="1.254" height="9.831" transform="translate(2.343)"/><rect class="a" width="1.254" height="9.831" transform="translate(4.389)"/><rect class="a" width="1.254" height="9.831" transform="translate(6.436)"/><path class="a" d="M1816.779,5162.312v5.678a2.074,2.074,0,0,0,1.551,1.994v-9.668A2.076,2.076,0,0,0,1816.779,5162.312Z" transform="translate(-1816.779 -5160.234)"/><rect class="a" width="1.254" height="9.831" transform="translate(8.482)"/><rect class="a" width="1.254" height="9.831" transform="translate(12.574)"/><rect class="a" width="1.254" height="9.831" transform="translate(14.62)"/><rect class="a" width="1.254" height="9.831" transform="translate(10.528)"/><rect class="a" width="1.254" height="9.831" transform="translate(16.667)"/><rect class="a" width="1.254" height="9.831" transform="translate(28.944)"/><rect class="a" width="1.254" height="9.831" transform="translate(43.267)"/><rect class="a" width="1.254" height="9.831" transform="translate(39.175)"/><rect class="a" width="1.254" height="9.831" transform="translate(41.221)"/><rect class="a" width="1.254" height="9.831" transform="translate(47.36)"/><rect class="a" width="1.254" height="9.831" transform="translate(45.313)"/><path class="a" d="M1862.969,5160.393v9.506a2.079,2.079,0,0,0,1.288-1.915v-5.677A2.075,2.075,0,0,0,1862.969,5160.393Z" transform="translate(-1813.563 -5160.23)"/><path class="b" d="M1818.781,5160.24a2.078,2.078,0,0,0-.552.081v9.668a2.1,2.1,0,0,0,.552.081h.241v-9.831Z" transform="translate(-1816.678 -5160.24)"/><rect class="b" width="0.792" height="9.831" transform="translate(3.597)"/><rect class="b" width="0.792" height="9.831" transform="translate(5.643)"/><rect class="b" width="0.792" height="9.831" transform="translate(7.69)"/><rect class="b" width="0.792" height="9.831" transform="translate(9.736)"/><rect class="b" width="0.792" height="9.831" transform="translate(11.782)"/><rect class="b" width="0.792" height="9.831" transform="translate(13.828)"/><rect class="b" width="0.792" height="9.831" transform="translate(15.874)"/><rect class="b" width="0.792" height="9.831" transform="translate(17.921)"/><rect class="b" width="0.792" height="9.831" transform="translate(19.967)"/><rect class="b" width="0.792" height="9.831" transform="translate(22.013)"/><rect class="b" width="0.792" height="9.831" transform="translate(24.059)"/><rect class="b" width="0.792" height="9.831" transform="translate(26.106)"/><rect class="b" width="0.792" height="9.831" transform="translate(28.152)"/><rect class="b" width="0.792" height="9.831" transform="translate(30.198)"/><rect class="b" width="0.792" height="9.831" transform="translate(32.244)"/><rect class="b" width="0.792" height="9.831" transform="translate(34.29)"/><rect class="b" width="0.792" height="9.831" transform="translate(36.337)"/><rect class="b" width="0.792" height="9.831" transform="translate(38.383)"/><rect class="b" width="0.792" height="9.831" transform="translate(40.429)"/><rect class="b" width="0.792" height="9.831" transform="translate(42.475)"/><rect class="b" width="0.792" height="9.831" transform="translate(44.521)"/><rect class="b" width="0.792" height="9.831" transform="translate(46.568)"/><path class="b" d="M1862.229,5160.242v9.828a2.132,2.132,0,0,0,.792-.161V5160.4A2.112,2.112,0,0,0,1862.229,5160.242Z" transform="translate(-1813.615 -5160.24)"/></g><g transform="translate(1813.522 5178.791)"><rect class="a" width="1.254" height="9.831" transform="translate(24.852 0.001)"/><rect class="a" width="1.254" height="9.831" transform="translate(37.129 0.001)"/><rect class="a" width="1.254" height="9.831" transform="translate(22.806 0.001)"/><rect class="a" width="1.254" height="9.831" transform="translate(18.713 0.001)"/><rect class="a" width="1.254" height="9.831" transform="translate(20.759 0.001)"/><rect class="a" width="1.254" height="9.831" transform="translate(35.083 0.001)"/><rect class="a" width="1.254" height="9.831" transform="translate(33.037 0.001)"/><rect class="a" width="1.254" height="9.831" transform="translate(30.99 0.001)"/><rect class="a" width="1.254" height="9.831" transform="translate(26.898 0.001)"/><rect class="a" width="1.254" height="9.831" transform="translate(2.343 0.001)"/><rect class="a" width="1.254" height="9.831" transform="translate(4.39 0.001)"/><rect class="a" width="1.254" height="9.831" transform="translate(6.436 0.001)"/><path class="a" d="M1812.613,5171.2v5.678a2.078,2.078,0,0,0,1.552,2V5169.2A2.076,2.076,0,0,0,1812.613,5171.2Z" transform="translate(-1812.613 -5169.123)"/><rect class="a" width="1.254" height="9.831" transform="translate(8.482 0.001)"/><rect class="a" width="1.254" height="9.831" transform="translate(12.574 0.001)"/><rect class="a" width="1.254" height="9.831" transform="translate(14.621 0.001)"/><rect class="a" width="1.254" height="9.831" transform="translate(10.528 0.001)"/><rect class="a" width="1.254" height="9.831" transform="translate(16.667 0.001)"/><rect class="a" width="1.254" height="9.831" transform="translate(28.944 0.001)"/><rect class="a" width="1.254" height="9.831" transform="translate(43.268 0.001)"/><rect class="a" width="1.254" height="9.831" transform="translate(39.175 0.001)"/><rect class="a" width="1.254" height="9.831" transform="translate(41.221 0.001)"/><path class="a" d="M1858.121,5169.128h-1.23v9.832h1.23l.024,0v-9.828Z" transform="translate(-1809.53 -5169.128)"/><rect class="a" width="1.254" height="9.831" transform="translate(45.314 0.001)"/><path class="a" d="M1858.8,5169.28v9.506a2.077,2.077,0,0,0,1.288-1.915v-5.677A2.077,2.077,0,0,0,1858.8,5169.28Z" transform="translate(-1809.397 -5169.118)"/><path class="b" d="M1814.615,5169.128a2.11,2.11,0,0,0-.551.082v9.669a2.131,2.131,0,0,0,.551.081h.241v-9.832Z" transform="translate(-1812.512 -5169.128)"/><rect class="b" width="0.792" height="9.831" transform="translate(3.598 0.001)"/><rect class="b" width="0.792" height="9.831" transform="translate(5.644 0.001)"/><rect class="b" width="0.792" height="9.831" transform="translate(7.69 0.001)"/><rect class="b" width="0.792" height="9.831" transform="translate(9.736 0.001)"/><rect class="b" width="0.792" height="9.831" transform="translate(11.783 0.001)"/><rect class="b" width="0.792" height="9.831" transform="translate(13.829 0.001)"/><rect class="b" width="0.792" height="9.831" transform="translate(15.875 0.001)"/><rect class="b" width="0.792" height="9.831" transform="translate(17.921 0.001)"/><rect class="b" width="0.792" height="9.831" transform="translate(19.967 0.001)"/><rect class="b" width="0.792" height="9.831" transform="translate(22.013 0.001)"/><rect class="b" width="0.792" height="9.831" transform="translate(24.06 0.001)"/><rect class="b" width="0.792" height="9.831" transform="translate(26.106 0.001)"/><rect class="b" width="0.792" height="9.831" transform="translate(28.152 0.001)"/><rect class="b" width="0.792" height="9.831" transform="translate(30.198 0.001)"/><rect class="b" width="0.792" height="9.831" transform="translate(32.245 0.001)"/><rect class="b" width="0.792" height="9.831" transform="translate(34.291 0.001)"/><rect class="b" width="0.792" height="9.831" transform="translate(36.337 0.001)"/><rect class="b" width="0.792" height="9.831" transform="translate(38.383 0.001)"/><rect class="b" width="0.792" height="9.831" transform="translate(40.429 0.001)"/><rect class="b" width="0.792" height="9.831" transform="translate(42.476 0.001)"/><rect class="b" width="0.792" height="9.831" transform="translate(44.522 0.001)"/><rect class="b" width="0.792" height="9.831" transform="translate(46.568 0.001)"/><path class="b" d="M1858.063,5169.13v9.828a2.1,2.1,0,0,0,.792-.161v-9.507A2.116,2.116,0,0,0,1858.063,5169.13Z" transform="translate(-1809.449 -5169.128)"/></g><g transform="translate(1820.816 5188.623)"><rect class="a" width="1.254" height="9.831" transform="translate(24.851)"/><rect class="a" width="1.254" height="9.831" transform="translate(37.128)"/><rect class="a" width="1.254" height="9.831" transform="translate(22.805)"/><rect class="a" width="1.254" height="9.831" transform="translate(18.712)"/><rect class="a" width="1.254" height="9.831" transform="translate(20.759)"/><rect class="a" width="1.254" height="9.831" transform="translate(35.082)"/><rect class="a" width="1.254" height="9.831" transform="translate(33.036)"/><rect class="a" width="1.254" height="9.831" transform="translate(30.989)"/><rect class="a" width="1.254" height="9.831" transform="translate(26.897)"/><rect class="a" width="1.254" height="9.831" transform="translate(2.343)"/><rect class="a" width="1.254" height="9.831" transform="translate(4.389)"/><rect class="a" width="1.254" height="9.831" transform="translate(6.435)"/><path class="a" d="M1819.433,5180.391v5.677a2.076,2.076,0,0,0,1.551,2V5178.4A2.074,2.074,0,0,0,1819.433,5180.391Z" transform="translate(-1819.433 -5178.314)"/><rect class="a" width="1.254" height="9.831" transform="translate(8.481)"/><rect class="a" width="1.254" height="9.831" transform="translate(12.574)"/><rect class="a" width="1.254" height="9.831" transform="translate(14.62)"/><rect class="a" width="1.254" height="9.831" transform="translate(10.528)"/><rect class="a" width="1.254" height="9.831" transform="translate(16.666)"/><rect class="a" width="1.254" height="9.831" transform="translate(28.943)"/><rect class="a" width="1.254" height="9.831" transform="translate(43.267)"/><rect class="a" width="1.254" height="9.831" transform="translate(39.174)"/><rect class="a" width="1.254" height="9.831" transform="translate(41.22)"/><path class="a" d="M1864.94,5178.32h-1.23v9.831h1.23l.023,0v-9.828Z" transform="translate(-1816.35 -5178.32)"/><rect class="a" width="1.254" height="9.831" transform="translate(45.313)"/><path class="a" d="M1865.623,5178.471v9.506a2.076,2.076,0,0,0,1.287-1.915v-5.677A2.077,2.077,0,0,0,1865.623,5178.471Z" transform="translate(-1816.217 -5178.31)"/><path class="b" d="M1821.434,5178.32a2.093,2.093,0,0,0-.551.081v9.668a2.093,2.093,0,0,0,.551.081h.241v-9.831Z" transform="translate(-1819.332 -5178.32)"/><rect class="b" width="0.792" height="9.831" transform="translate(3.597)"/><rect class="b" width="0.792" height="9.831" transform="translate(5.643)"/><rect class="b" width="0.792" height="9.831" transform="translate(7.689)"/><rect class="b" width="0.792" height="9.831" transform="translate(9.735)"/><rect class="b" width="0.792" height="9.831" transform="translate(11.782)"/><rect class="b" width="0.792" height="9.831" transform="translate(13.828)"/><rect class="b" width="0.792" height="9.831" transform="translate(15.874)"/><rect class="b" width="0.792" height="9.831" transform="translate(17.92)"/><rect class="b" width="0.792" height="9.831" transform="translate(19.966)"/><rect class="b" width="0.792" height="9.831" transform="translate(22.013)"/><rect class="b" width="0.792" height="9.831" transform="translate(24.059)"/><rect class="b" width="0.792" height="9.831" transform="translate(26.105)"/><rect class="b" width="0.792" height="9.831" transform="translate(28.151)"/><rect class="b" width="0.792" height="9.831" transform="translate(30.197)"/><rect class="b" width="0.792" height="9.831" transform="translate(32.244)"/><rect class="b" width="0.792" height="9.831" transform="translate(34.29)"/><rect class="b" width="0.792" height="9.831" transform="translate(36.336)"/><rect class="b" width="0.792" height="9.831" transform="translate(38.382)"/><rect class="b" width="0.792" height="9.831" transform="translate(40.429)"/><rect class="b" width="0.792" height="9.831" transform="translate(42.475)"/><rect class="b" width="0.792" height="9.831" transform="translate(44.521)"/><rect class="b" width="0.792" height="9.831" transform="translate(46.567)"/><path class="b" d="M1864.882,5178.321v9.828a2.117,2.117,0,0,0,.793-.16v-9.507A2.147,2.147,0,0,0,1864.882,5178.321Z" transform="translate(-1816.269 -5178.32)"/></g><g transform="translate(1812.499 5198.454)"><rect class="a" width="1.254" height="9.831" transform="translate(24.851)"/><rect class="a" width="1.254" height="9.831" transform="translate(37.129)"/><rect class="a" width="1.254" height="9.831" transform="translate(22.805)"/><rect class="a" width="1.254" height="9.831" transform="translate(18.713)"/><rect class="a" width="1.254" height="9.831" transform="translate(20.759)"/><rect class="a" width="1.254" height="9.831" transform="translate(35.082)"/><rect class="a" width="1.254" height="9.831" transform="translate(33.036)"/><rect class="a" width="1.254" height="9.831" transform="translate(30.99)"/><rect class="a" width="1.254" height="9.831" transform="translate(26.897)"/><rect class="a" width="1.254" height="9.831" transform="translate(2.343)"/><rect class="a" width="1.254" height="9.831" transform="translate(4.389)"/><rect class="a" width="1.254" height="9.831" transform="translate(6.436)"/><path class="a" d="M1811.657,5189.582v5.679a2.075,2.075,0,0,0,1.551,1.995v-9.668A2.075,2.075,0,0,0,1811.657,5189.582Z" transform="translate(-1811.657 -5187.505)"/><rect class="a" width="1.254" height="9.831" transform="translate(8.482)"/><rect class="a" width="1.254" height="9.831" transform="translate(12.574)"/><rect class="a" width="1.254" height="9.831" transform="translate(14.62)"/><rect class="a" width="1.254" height="9.831" transform="translate(10.528)"/><rect class="a" width="1.254" height="9.831" transform="translate(16.666)"/><rect class="a" width="1.254" height="9.831" transform="translate(28.944)"/><rect class="a" width="1.254" height="9.831" transform="translate(43.267)"/><rect class="a" width="1.254" height="9.831" transform="translate(39.175)"/><rect class="a" width="1.254" height="9.831" transform="translate(41.221)"/><path class="a" d="M1857.165,5187.511h-1.231v9.831h1.231l.022,0v-9.826Z" transform="translate(-1808.574 -5187.51)"/><rect class="a" width="1.254" height="9.831" transform="translate(45.313)"/><path class="a" d="M1857.847,5187.662v9.507a2.077,2.077,0,0,0,1.287-1.914v-5.679A2.078,2.078,0,0,0,1857.847,5187.662Z" transform="translate(-1808.441 -5187.5)"/><path class="b" d="M1813.659,5187.511a2.1,2.1,0,0,0-.552.081v9.669a2.117,2.117,0,0,0,.552.081h.241v-9.831Z" transform="translate(-1811.556 -5187.51)"/><rect class="b" width="0.792" height="9.831" transform="translate(3.597)"/><rect class="b" width="0.792" height="9.831" transform="translate(5.643)"/><rect class="b" width="0.792" height="9.831" transform="translate(7.69)"/><rect class="b" width="0.792" height="9.831" transform="translate(9.736)"/><rect class="b" width="0.792" height="9.831" transform="translate(11.782)"/><rect class="b" width="0.792" height="9.831" transform="translate(13.828)"/><rect class="b" width="0.792" height="9.831" transform="translate(15.874)"/><rect class="b" width="0.792" height="9.831" transform="translate(17.921)"/><rect class="b" width="0.792" height="9.831" transform="translate(19.967)"/><rect class="b" width="0.792" height="9.831" transform="translate(22.013)"/><rect class="b" width="0.792" height="9.831" transform="translate(24.059)"/><rect class="b" width="0.792" height="9.831" transform="translate(26.105)"/><rect class="b" width="0.792" height="9.831" transform="translate(28.152)"/><rect class="b" width="0.792" height="9.831" transform="translate(30.198)"/><rect class="b" width="0.792" height="9.831" transform="translate(32.244)"/><rect class="b" width="0.792" height="9.831" transform="translate(34.29)"/><rect class="b" width="0.792" height="9.831" transform="translate(36.336)"/><rect class="b" width="0.792" height="9.831" transform="translate(38.383)"/><rect class="b" width="0.792" height="9.831" transform="translate(40.429)"/><rect class="b" width="0.792" height="9.831" transform="translate(42.475)"/><rect class="b" width="0.792" height="9.831" transform="translate(44.521)"/><rect class="b" width="0.792" height="9.831" transform="translate(46.568)"/><path class="b" d="M1857.106,5187.514v9.826a2.142,2.142,0,0,0,.793-.159v-9.508A2.113,2.113,0,0,0,1857.106,5187.514Z" transform="translate(-1808.493 -5187.511)"/></g><g transform="translate(1818.373 5208.285)"><rect class="a" width="1.254" height="9.831" transform="translate(24.851)"/><rect class="a" width="1.254" height="9.831" transform="translate(37.129)"/><rect class="a" width="1.254" height="9.831" transform="translate(22.805)"/><rect class="a" width="1.254" height="9.831" transform="translate(18.713)"/><rect class="a" width="1.254" height="9.831" transform="translate(20.759)"/><rect class="a" width="1.254" height="9.831" transform="translate(35.082)"/><rect class="a" width="1.254" height="9.831" transform="translate(33.036)"/><rect class="a" width="1.254" height="9.831" transform="translate(30.99)"/><rect class="a" width="1.254" height="9.831" transform="translate(26.897)"/><rect class="a" width="1.254" height="9.831" transform="translate(2.343)"/><rect class="a" width="1.254" height="9.831" transform="translate(4.389)"/><rect class="a" width="1.254" height="9.831" transform="translate(6.436)"/><path class="a" d="M1817.149,5198.774v5.678a2.073,2.073,0,0,0,1.551,1.994v-9.668A2.075,2.075,0,0,0,1817.149,5198.774Z" transform="translate(-1817.149 -5196.697)"/><rect class="a" width="1.254" height="9.831" transform="translate(8.482)"/><rect class="a" width="1.254" height="9.831" transform="translate(12.574)"/><rect class="a" width="1.254" height="9.831" transform="translate(14.62)"/><rect class="a" width="1.254" height="9.831" transform="translate(10.528)"/><rect class="a" width="1.254" height="9.831" transform="translate(16.667)"/><rect class="a" width="1.254" height="9.831" transform="translate(28.944)"/><rect class="a" width="1.254" height="9.831" transform="translate(43.267)"/><rect class="a" width="1.254" height="9.831" transform="translate(39.175)"/><rect class="a" width="1.254" height="9.831" transform="translate(41.221)"/><rect class="a" width="1.254" height="9.831" transform="translate(47.36)"/><rect class="a" width="1.254" height="9.831" transform="translate(45.313)"/><path class="a" d="M1863.339,5196.854v9.507a2.079,2.079,0,0,0,1.288-1.915v-5.678A2.076,2.076,0,0,0,1863.339,5196.854Z" transform="translate(-1813.933 -5196.691)"/><path class="b" d="M1819.151,5196.7a2.076,2.076,0,0,0-.552.081v9.668a2.077,2.077,0,0,0,.552.082h.241V5196.7Z" transform="translate(-1817.048 -5196.702)"/><rect class="b" width="0.792" height="9.831" transform="translate(3.597)"/><rect class="b" width="0.792" height="9.831" transform="translate(5.643)"/><rect class="b" width="0.792" height="9.831" transform="translate(7.69)"/><rect class="b" width="0.792" height="9.831" transform="translate(9.736)"/><rect class="b" width="0.792" height="9.831" transform="translate(11.782)"/><rect class="b" width="0.792" height="9.831" transform="translate(13.828)"/><rect class="b" width="0.792" height="9.831" transform="translate(15.874)"/><rect class="b" width="0.792" height="9.831" transform="translate(17.921)"/><rect class="b" width="0.792" height="9.831" transform="translate(19.967)"/><rect class="b" width="0.792" height="9.831" transform="translate(22.013)"/><rect class="b" width="0.792" height="9.831" transform="translate(24.059)"/><rect class="b" width="0.792" height="9.831" transform="translate(26.106)"/><rect class="b" width="0.792" height="9.831" transform="translate(28.152)"/><rect class="b" width="0.792" height="9.831" transform="translate(30.198)"/><rect class="b" width="0.792" height="9.831" transform="translate(32.244)"/><rect class="b" width="0.792" height="9.831" transform="translate(34.29)"/><rect class="b" width="0.792" height="9.831" transform="translate(36.337)"/><rect class="b" width="0.792" height="9.831" transform="translate(38.383)"/><rect class="b" width="0.792" height="9.831" transform="translate(40.429)"/><rect class="b" width="0.792" height="9.831" transform="translate(42.475)"/><rect class="b" width="0.792" height="9.831" transform="translate(44.521)"/><rect class="b" width="0.792" height="9.831" transform="translate(46.568)"/><path class="b" d="M1862.6,5196.7v9.827a2.1,2.1,0,0,0,.792-.16v-9.507A2.121,2.121,0,0,0,1862.6,5196.7Z" transform="translate(-1813.985 -5196.702)"/></g><g transform="translate(1814.414 5218.116)"><rect class="a" width="1.254" height="9.831" transform="translate(24.851 0.001)"/><rect class="a" width="1.254" height="9.831" transform="translate(37.128 0.001)"/><rect class="a" width="1.254" height="9.831" transform="translate(22.805 0.001)"/><rect class="a" width="1.254" height="9.831" transform="translate(18.712 0.001)"/><rect class="a" width="1.254" height="9.831" transform="translate(20.758 0.001)"/><rect class="a" width="1.254" height="9.831" transform="translate(35.082 0.001)"/><rect class="a" width="1.254" height="9.831" transform="translate(33.036 0.001)"/><rect class="a" width="1.254" height="9.831" transform="translate(30.989 0.001)"/><rect class="a" width="1.254" height="9.831" transform="translate(26.897 0.001)"/><rect class="a" width="1.254" height="9.831" transform="translate(2.343 0.001)"/><rect class="a" width="1.254" height="9.831" transform="translate(4.389 0.001)"/><rect class="a" width="1.254" height="9.831" transform="translate(6.435 0.001)"/><path class="a" d="M1813.447,5207.965v5.677a2.075,2.075,0,0,0,1.551,2v-9.668A2.074,2.074,0,0,0,1813.447,5207.965Z" transform="translate(-1813.447 -5205.888)"/><rect class="a" width="1.254" height="9.831" transform="translate(8.481 0.001)"/><rect class="a" width="1.254" height="9.831" transform="translate(12.574 0.001)"/><rect class="a" width="1.254" height="9.831" transform="translate(14.62 0.001)"/><rect class="a" width="1.254" height="9.831" transform="translate(10.528 0.001)"/><rect class="a" width="1.254" height="9.831" transform="translate(16.666 0.001)"/><rect class="a" width="1.254" height="9.831" transform="translate(28.943 0.001)"/><rect class="a" width="1.254" height="9.831" transform="translate(43.267 0.001)"/><rect class="a" width="1.254" height="9.831" transform="translate(39.174 0.001)"/><rect class="a" width="1.254" height="9.831" transform="translate(41.22 0.001)"/><path class="a" d="M1858.954,5205.893h-1.23v9.832h1.23l.024,0V5205.9Z" transform="translate(-1810.365 -5205.893)"/><rect class="a" width="1.254" height="9.831" transform="translate(45.313 0.001)"/><path class="a" d="M1859.637,5206.045v9.507a2.077,2.077,0,0,0,1.287-1.915v-5.677A2.077,2.077,0,0,0,1859.637,5206.045Z" transform="translate(-1810.231 -5205.882)"/><path class="b" d="M1815.448,5205.893a2.1,2.1,0,0,0-.551.082v9.669a2.117,2.117,0,0,0,.551.082h.241v-9.832Z" transform="translate(-1813.346 -5205.893)"/><rect class="b" width="0.792" height="9.831" transform="translate(3.597 0.001)"/><rect class="b" width="0.792" height="9.831" transform="translate(5.643 0.001)"/><rect class="b" width="0.792" height="9.831" transform="translate(7.689 0.001)"/><rect class="b" width="0.792" height="9.831" transform="translate(9.735 0.001)"/><rect class="b" width="0.792" height="9.831" transform="translate(11.782 0.001)"/><rect class="b" width="0.792" height="9.831" transform="translate(13.828 0.001)"/><rect class="b" width="0.792" height="9.831" transform="translate(15.874 0.001)"/><rect class="b" width="0.792" height="9.831" transform="translate(17.92 0.001)"/><rect class="b" width="0.792" height="9.831" transform="translate(19.966 0.001)"/><rect class="b" width="0.792" height="9.831" transform="translate(22.012 0.001)"/><rect class="b" width="0.792" height="9.831" transform="translate(24.059 0.001)"/><rect class="b" width="0.792" height="9.831" transform="translate(26.105 0.001)"/><rect class="b" width="0.792" height="9.831" transform="translate(28.151 0.001)"/><rect class="b" width="0.792" height="9.831" transform="translate(30.197 0.001)"/><rect class="b" width="0.792" height="9.831" transform="translate(32.244 0.001)"/><rect class="b" width="0.792" height="9.831" transform="translate(34.29 0.001)"/><rect class="b" width="0.792" height="9.831" transform="translate(36.336 0.001)"/><rect class="b" width="0.792" height="9.831" transform="translate(38.382 0.001)"/><rect class="b" width="0.792" height="9.831" transform="translate(40.428 0.001)"/><rect class="b" width="0.792" height="9.831" transform="translate(42.475 0.001)"/><rect class="b" width="0.792" height="9.831" transform="translate(44.521 0.001)"/><rect class="b" width="0.792" height="9.831" transform="translate(46.567 0.001)"/><path class="b" d="M1858.9,5205.9v9.827a2.135,2.135,0,0,0,.792-.16v-9.507A2.135,2.135,0,0,0,1858.9,5205.9Z" transform="translate(-1810.283 -5205.894)"/></g><g transform="translate(1819.265 5227.947)"><rect class="a" width="1.254" height="9.831" transform="translate(24.852)"/><rect class="a" width="1.254" height="9.831" transform="translate(37.129)"/><rect class="a" width="1.254" height="9.831" transform="translate(22.805)"/><rect class="a" width="1.254" height="9.831" transform="translate(18.713)"/><rect class="a" width="1.254" height="9.831" transform="translate(20.759)"/><rect class="a" width="1.254" height="9.831" transform="translate(35.083)"/><rect class="a" width="1.254" height="9.831" transform="translate(33.036)"/><rect class="a" width="1.254" height="9.831" transform="translate(30.99)"/><rect class="a" width="1.254" height="9.831" transform="translate(26.898)"/><rect class="a" width="1.254" height="9.831" transform="translate(2.343)"/><rect class="a" width="1.254" height="9.831" transform="translate(4.389)"/><rect class="a" width="1.254" height="9.831" transform="translate(6.436)"/><path class="a" d="M1817.982,5217.156v5.678a2.075,2.075,0,0,0,1.551,2v-9.668A2.073,2.073,0,0,0,1817.982,5217.156Z" transform="translate(-1817.982 -5215.079)"/><rect class="a" width="1.254" height="9.831" transform="translate(8.482)"/><rect class="a" width="1.254" height="9.831" transform="translate(12.574)"/><rect class="a" width="1.254" height="9.831" transform="translate(14.62)"/><rect class="a" width="1.254" height="9.831" transform="translate(10.528)"/><rect class="a" width="1.254" height="9.831" transform="translate(16.667)"/><rect class="a" width="1.254" height="9.831" transform="translate(28.944)"/><rect class="a" width="1.254" height="9.831" transform="translate(43.267)"/><rect class="a" width="1.254" height="9.831" transform="translate(39.175)"/><rect class="a" width="1.254" height="9.831" transform="translate(41.221)"/><path class="a" d="M1863.49,5215.085h-1.231v9.831h1.231l.023,0v-9.827Z" transform="translate(-1814.9 -5215.084)"/><rect class="a" width="1.254" height="9.831" transform="translate(45.314)"/><path class="a" d="M1864.172,5215.236v9.507a2.077,2.077,0,0,0,1.288-1.914v-5.679A2.078,2.078,0,0,0,1864.172,5215.236Z" transform="translate(-1814.766 -5215.074)"/><path class="b" d="M1819.984,5215.085a2.063,2.063,0,0,0-.552.082v9.668a2.1,2.1,0,0,0,.552.081h.241v-9.831Z" transform="translate(-1817.881 -5215.084)"/><rect class="b" width="0.792" height="9.831" transform="translate(3.597)"/><rect class="b" width="0.792" height="9.831" transform="translate(5.643)"/><rect class="b" width="0.792" height="9.831" transform="translate(7.69)"/><rect class="b" width="0.792" height="9.831" transform="translate(9.736)"/><rect class="b" width="0.792" height="9.831" transform="translate(11.782)"/><rect class="b" width="0.792" height="9.831" transform="translate(13.828)"/><rect class="b" width="0.792" height="9.831" transform="translate(15.875)"/><rect class="b" width="0.792" height="9.831" transform="translate(17.921)"/><rect class="b" width="0.792" height="9.831" transform="translate(19.967)"/><rect class="b" width="0.792" height="9.831" transform="translate(22.013)"/><rect class="b" width="0.792" height="9.831" transform="translate(24.059)"/><rect class="b" width="0.792" height="9.831" transform="translate(26.106)"/><rect class="b" width="0.792" height="9.831" transform="translate(28.152)"/><rect class="b" width="0.792" height="9.831" transform="translate(30.198)"/><rect class="b" width="0.792" height="9.831" transform="translate(32.244)"/><rect class="b" width="0.792" height="9.831" transform="translate(34.29)"/><rect class="b" width="0.792" height="9.831" transform="translate(36.337)"/><rect class="b" width="0.792" height="9.831" transform="translate(38.383)"/><rect class="b" width="0.792" height="9.831" transform="translate(40.429)"/><rect class="b" width="0.792" height="9.831" transform="translate(42.475)"/><rect class="b" width="0.792" height="9.831" transform="translate(44.522)"/><rect class="b" width="0.792" height="9.831" transform="translate(46.568)"/><path class="b" d="M1863.432,5215.087v9.827a2.121,2.121,0,0,0,.792-.16v-9.507A2.15,2.15,0,0,0,1863.432,5215.087Z" transform="translate(-1814.818 -5215.084)"/></g><g transform="translate(1867.548 5030.331)"><path class="c" d="M1936.759,5064.43c0,18.832-15.715,34.1-15.715,34.1s-15.716-15.266-15.716-34.1,15.716-32.84,15.716-34.1C1921.044,5030.331,1936.759,5045.6,1936.759,5064.43Z" transform="translate(-1860.185 -5030.331)"/><path class="c" d="M1958.9,5108.479c-10.44,15.673-31.983,19.668-31.983,19.668s-4.616-21.418,5.823-37.093,31.285-18.62,31.983-19.667C1964.719,5071.388,1969.335,5092.806,1958.9,5108.479Z" transform="translate(-1858.753 -5027.473)"/><path class="c" d="M1900.215,5116.528c15.673,10.439,19.667,31.983,19.667,31.983s-21.418,4.617-37.091-5.824-18.621-31.284-19.668-31.981C1863.123,5110.705,1884.541,5106.087,1900.215,5116.528Z" transform="translate(-1863.123 -5024.806)"/><line class="d" y2="79.574" transform="translate(60.859 61.993)"/><line class="d" x1="11.079" y2="11.248" transform="translate(60.859 96.949)"/><line class="d" x1="9.658" y1="5.327" transform="translate(51.2 120.243)"/></g><g transform="translate(1803.921 5035.06)"><path class="c" d="M1853.337,5057.766c0,12.711-10.608,23.016-10.608,23.016s-10.607-10.3-10.607-23.016,10.607-22.165,10.607-23.014C1842.729,5034.752,1853.337,5045.055,1853.337,5057.766Z" transform="translate(-1801.654 -5034.752)"/><path class="c" d="M1868.278,5087.5c-7.047,10.578-21.587,13.274-21.587,13.274s-3.116-14.456,3.931-25.035,21.115-12.567,21.586-13.274C1872.208,5062.462,1875.323,5076.918,1868.278,5087.5Z" transform="translate(-1800.687 -5032.823)"/><path class="c" d="M1828.671,5092.93c10.579,7.045,13.274,21.586,13.274,21.586s-14.456,3.116-25.034-3.931-12.568-21.115-13.274-21.585C1803.637,5089,1818.093,5085.883,1828.671,5092.93Z" transform="translate(-1803.637 -5031.023)"/><line class="d" y2="53.708" transform="translate(41.076 41.841)"/><line class="d" x1="7.478" y2="7.592" transform="translate(41.076 65.434)"/><line class="d" x1="6.519" y1="3.595" transform="translate(34.557 81.156)"/></g><g transform="translate(1846.632 5137.449)"><path class="e" d="M1862.946,5135.779l14.018,21.3v11.288h28.766v-10.924l13.927-21.666s-7.1-6.372-12.836,0c0,0-6.555,1.867-9.968-2.23s-7.921-4.232-11.88.41-12.016.273-12.016.273S1867,5130.909,1862.946,5135.779Z" transform="translate(-1842.219 -5130.477)"/><rect class="f" width="36.322" height="3.186" rx="1.489" transform="translate(31.51 26.422)"/><rect class="f" width="36.322" height="3.186" rx="1.489" transform="translate(31.51 30.155)"/><rect class="f" width="36.322" height="3.186" rx="1.489" transform="translate(31.51 34.024)"/><g transform="translate(0 37.21)"><path class="e" d="M1903.176,5165.9h-3.55l4.569.477C1903.547,5166.053,1903.176,5165.9,1903.176,5165.9Z" transform="translate(-1839.666 -5165.219)"/><path class="e" d="M1897.639,5165.9h-19.326c-17.842,9.013-28.583,35.776-28.583,35.776-13.382,42.6-2.458,63.084,9.012,71.823a53.514,53.514,0,0,0,41.037,10.64C1955.678,5230.26,1904.171,5172.755,1897.639,5165.9Z" transform="translate(-1843.568 -5165.219)"/><path class="g" d="M1893.5,5165.264s.237.235.664.682h5.889Z" transform="translate(-1840.092 -5165.264)"/><path class="g" d="M1939.076,5222.182c-8.043-40.485-29.33-53.326-34.211-55.781l-4.569-.477-10.289-.341c6.531,6.854,62.438,64.7,6.539,118.58,10.115-1.464,18.4-5.324,22.867-8.454C1934.979,5264.785,1941.854,5236.165,1939.076,5222.182Z" transform="translate(-1840.336 -5165.242)"/></g><g transform="translate(36.983 70.279)"><path class="h" d="M1888.044,5249.3v-6.534a18.839,18.839,0,0,1-9.9-2.849l1.554-4.331a17.289,17.289,0,0,0,9.321,2.781c4.588,0,7.7-2.655,7.7-6.343,0-3.557-2.524-5.758-7.313-7.7-6.6-2.591-10.675-5.568-10.675-11.2,0-5.368,3.814-9.447,9.768-10.416v-6.538h4.015v6.279a17.256,17.256,0,0,1,8.408,2.262l-1.617,4.272a15.641,15.641,0,0,0-8.15-2.2c-4.985,0-6.86,2.977-6.86,5.57,0,3.361,2.392,5.047,8.023,7.376,6.666,2.713,10.026,6.079,10.026,11.838,0,5.11-3.556,9.9-10.221,11v6.728Z" transform="translate(-1878.144 -5196.182)"/></g></g><g transform="translate(1806.279 5180.803)"><path class="e" d="M1819.86,5174.846,1830,5190.254v8.166h20.808v-7.9l10.075-15.672s-5.136-4.61-9.284,0c0,0-4.742,1.35-7.211-1.614s-5.729-3.061-8.593.3-8.692.2-8.692.2S1822.79,5171.322,1819.86,5174.846Z" transform="translate(-1804.866 -5171.009)"/><rect class="f" width="26.274" height="2.305" rx="1.077" transform="translate(22.795 19.113)"/><rect class="f" width="26.274" height="2.305" rx="1.077" transform="translate(22.795 21.813)"/><rect class="f" width="26.274" height="2.305" rx="1.077" transform="translate(22.795 24.612)"/><g transform="translate(0 26.917)"><path class="e" d="M1848.962,5196.636h-2.568l3.305.343C1849.229,5196.743,1848.962,5196.636,1848.962,5196.636Z" transform="translate(-1803.019 -5196.141)"/><path class="e" d="M1844.957,5196.636h-13.98c-12.907,6.52-20.678,25.878-20.678,25.878-9.68,30.819-1.778,45.636,6.52,51.957a38.709,38.709,0,0,0,29.685,7.7C1886.941,5243.191,1849.682,5201.592,1844.957,5196.636Z" transform="translate(-1805.842 -5196.141)"/><path class="g" d="M1841.961,5196.174s.172.17.481.495h4.26Z" transform="translate(-1803.328 -5196.174)"/><path class="g" d="M1874.93,5237.347c-5.818-29.287-21.216-38.575-24.747-40.351l-3.305-.344-7.444-.247c4.725,4.957,45.167,46.8,4.73,85.778a40.3,40.3,0,0,0,16.542-6.116C1871.968,5268.166,1876.94,5247.463,1874.93,5237.347Z" transform="translate(-1803.503 -5196.158)"/></g><g transform="translate(26.753 50.838)"><path class="h" d="M1838.015,5256.967v-4.726a13.632,13.632,0,0,1-7.161-2.062l1.124-3.133a12.509,12.509,0,0,0,6.743,2.013c3.319,0,5.567-1.921,5.567-4.588,0-2.574-1.825-4.167-5.289-5.569-4.771-1.875-7.722-4.029-7.722-8.1,0-3.883,2.759-6.833,7.066-7.536v-4.729h2.9v4.544a12.487,12.487,0,0,1,6.083,1.634l-1.17,3.091a11.314,11.314,0,0,0-5.9-1.593c-3.606,0-4.963,2.154-4.963,4.029,0,2.431,1.731,3.651,5.8,5.336,4.822,1.963,7.253,4.4,7.253,8.563,0,3.7-2.573,7.161-7.394,7.958v4.867Z" transform="translate(-1830.854 -5218.538)"/></g></g></g></svg>