<svg id="Icon_zocial-call" data-name="Icon zocial-call" xmlns="http://www.w3.org/2000/svg" width="24.28" height="24.311" viewBox="0 0 24.28 24.311">
  <path id="Icon_zocial-call-2" data-name="Icon zocial-call" d="M3.318,7.717a1.789,1.789,0,0,1,.455-.971L7.416,3.1q.425-.364.637.121L11,8.749a.8.8,0,0,1-.152.941L9.511,11.025a1.51,1.51,0,0,0-.425.941,4.634,4.634,0,0,0,.941,2.337,19.96,19.96,0,0,0,1.852,2.429l.941.97c.284.284.647.633,1.094,1.047a18.325,18.325,0,0,0,2.2,1.639,4.924,4.924,0,0,0,2.413,1.017,1.321,1.321,0,0,0,.971-.395l1.579-1.578a.667.667,0,0,1,.91-.121L27.3,22.439a.444.444,0,0,1,.243.319.388.388,0,0,1-.121.349l-3.643,3.643a1.784,1.784,0,0,1-.97.454,7.343,7.343,0,0,1-3.355-.41,15.18,15.18,0,0,1-3.459-1.654q-1.594-1.032-2.96-2.094t-2.186-1.821l-.789-.76q-.3-.3-.8-.835T7.507,17.537a30.485,30.485,0,0,1-2.155-3.051A17.8,17.8,0,0,1,3.774,11.1,7.2,7.2,0,0,1,3.318,7.717Z" transform="translate(-3.267 -2.947)"/>
</svg>
