<svg xmlns="http://www.w3.org/2000/svg" width="627.51" height="477.592" viewBox="0 0 627.51 477.592"><defs><style>.a{fill:#e3ce0a;}.b{fill:#f7b09e;}.c{fill:#635433;}.d{fill:#145629;}.e{fill:#c95c45;}.f{fill:#6a7939;}.g{fill:#8a8b4a;}.h{fill:#6e7b37;}.i{fill:#cae9b8;}.j{fill:#5faf42;}.k{fill:#cd5016;}.l{fill:#ff855f;}.m{fill:#733309;}.n{fill:#301004;}.o{fill:#0c060e;}.p{fill:none;stroke:#db8572;stroke-linecap:round;stroke-linejoin:round;stroke-width:0.5px;}.q{fill:#db8572;}.r{fill:#eaa89b;}.s{fill:#548282;}.t{fill:#866a5d;}.u{fill:#a1d8d8;}.v{fill:#6a793c;}.w{fill:#0a4925;}.x{fill:#566f07;}.y{fill:#6e9005;}.z{fill:#6b5343;}.aa{fill:#ffbbb0;}.ab{fill:#8cc63f;}.ac{fill:#f98658;}</style></defs><g transform="translate(-5018.483 1023.333)"><ellipse class="a" cx="313.755" cy="47.743" rx="313.755" ry="47.743" transform="translate(5018.483 -641.228)"/><path class="b" d="M9654.384,11306.633l10.028,10.109a4.338,4.338,0,0,1,.725,2.262c-.269,2.73,2.637,4.693,2.637,4.693s5.909-.547,13.5-6.5-11.091-1.992-11.091-1.992l-8.884-13.992Z" transform="translate(-4442.144 -11959.431)"/><path class="b" d="M9050.721,11283.445l3.17,18.685a5.744,5.744,0,0,1-.944,3.016c-2.384,2.766-.729,7.129-.729,7.129s6.853,3.928,19.679,3.264-10.543-10.664-10.543-10.664l1.047-22.036Z" transform="translate(-3906.384 -11943.126)"/><path class="c" d="M9762.777,10572.382s75.346-15.036,145.363,7.834C9908.141,10580.216,9825.087,10597.614,9762.777,10572.382Z" transform="translate(-4538.345 -11308.278)"/><path class="d" d="M10370.51,9603.1s38.3.173,44.363-42.07,24.645-53.541,24.645-53.541-15.424,5.32-39.8,27.652S10370.51,9603.1,10370.51,9603.1Z" transform="translate(-5077.717 -10367.472)"/><g transform="translate(5299.652 -870.79)"><g transform="translate(3.068 8.811)"><path class="e" d="M10467.12,9491.6s4.666-4.031,11.795-.1,8.114,6.066,8.527,9.758,3.48,10.341-5.49,15.608-17.9-1.575-17.9-1.575S10450.308,9500.848,10467.12,9491.6Z" transform="translate(-10458.761 -9489.778)"/><path class="f" d="M10462.461,9505.751s2.963,6.279,7.834,4.461-.761.955-.761.955-1.462-4.5-.907-7.162c0,0,4,1.44,4.189,4.752,0,0,3.13-5.824,4.839-5.733,0,0,1.351,4.478-2.681,6.584,0,0,4.706,1.231,5.408,4.085,0,0-6.769.735-9.2.361,0,0-.418,5.481-4.073,7.487a24.835,24.835,0,0,1,.992-7.9s-7.8.192-8.481-.7c0,0,1.019-3,6.121-2.362a19.185,19.185,0,0,1-4.2-3.775Z" transform="translate(-10459.527 -9501.533)"/></g><path class="g" d="M10437.483,9424.48s-6.023-1.389-4.825-13.032c0,0-4.426,4.344,3.911,14.083" transform="translate(-10431.484 -9411.448)"/></g><g transform="translate(5308.891 -895.598)"><g transform="translate(2.558 7.345)"><path class="e" d="M10543.337,9257.721s3.888-3.359,9.832-.084,6.766,5.059,7.108,8.137,2.9,8.622-4.577,13.012-14.923-1.314-14.923-1.314S10529.318,9265.429,10543.337,9257.721Z" transform="translate(-10536.366 -9256.202)"/><path class="f" d="M10539.447,9269.519s2.471,5.233,6.531,3.719-.634.8-.634.8-1.219-3.754-.756-5.972c0,0,3.336,1.2,3.5,3.961,0,0,2.606-4.856,4.032-4.782,0,0,1.122,3.734-2.236,5.492,0,0,3.923,1.026,4.51,3.4,0,0-5.644.614-7.665.3,0,0-.35,4.573-3.4,6.243a20.63,20.63,0,0,1,.828-6.584s-6.5.16-7.072-.586c0,0,.849-2.5,5.105-1.97a15.962,15.962,0,0,1-3.5-3.145Z" transform="translate(-10537.002 -9266)"/></g><path class="g" d="M10518.627,9201.763s-5.021-1.156-4.023-10.863c0,0-3.689,3.621,3.262,11.741" transform="translate(-10513.625 -9190.899)"/></g><g transform="translate(5252.686 -860.454)"><g transform="translate(0 0)"><path class="e" d="M10038.906,9516.688s.745,5.2-5.352,8.5-8.081,3.03-10.919,1.627-9.015-2.26-8.667-11.113,9.36-12.108,9.36-12.108S10040.007,9500.379,10038.906,9516.688Z" transform="translate(-10013.955 -9503.338)"/><path class="f" d="M10132.732,9535.5s-5.864-.761-6.8,3.566-.336-.984-.336-.984,3.9,1.022,5.553,2.644c0,0-2.872,2.208-5.336.82,0,0,2.739,4.921,1.889,6.1,0,0-3.83-1.09-3.488-4.948,0,0-3.048,2.808-5.415,2,0,0,2.583-5.192,3.97-6.76,0,0-3.739-2.82-3.5-6.364a21.1,21.1,0,0,1,5.207,4.344s3.449-5.679,4.4-5.76c0,0,1.685,2.112-1.123,5.478a16.317,16.317,0,0,1,4.639-1.278Z" transform="translate(-10107.004 -9527.146)"/></g><path class="g" d="M10240.037,9566.477s3.764-3.681,11.562,2.529c0,0-1.079-5.17-11.9-3.668" transform="translate(-10214.308 -9558.119)"/></g><g transform="translate(5291.888 -790.245)"><g transform="translate(7.13 4.107)"><path class="e" d="M10431.9,10167.382s3.394-4.878,10.988-2.905,9.025,3.729,10.292,7.077,5.716,8.829-1.406,15.885-17.089,2.8-17.089,2.8S10418.4,10180.028,10431.9,10167.382Z" transform="translate(-10426.47 -10164.007)"/><path class="f" d="M10426.785,10176.728s4.266,5.153,8.381,2.3-.483,1.073-.483,1.073-2.437-3.854-2.555-6.474c0,0,4.082.39,5.049,3.439,0,0,1.53-6.187,3.148-6.51,0,0,2.327,3.86-.935,6.788,0,0,4.69.03,6.026,2.524,0,0-6.146,2.3-8.5,2.531,0,0,.917,5.221-2.019,7.963a23.9,23.9,0,0,1-.956-7.613s-7.234,2.04-8.089,1.369c0,0,.235-3.048,5.155-3.666a18.509,18.509,0,0,1-4.824-2.521Z" transform="translate(-10425.853 -10169.817)"/></g><path class="g" d="M10370.526,10138.513s-5.953.142-7.614-11.016c0,0-3.1,5.11,7.014,12.217" transform="translate(-10362.466 -10127.497)"/></g><g transform="translate(5262.741 -852.29)"><g transform="translate(0 9.739)"><path class="e" d="M10125.126,9672.316s5.525,2.186,5.351,10.029-1.559,9.639-4.528,11.64-7.279,7.593-15.783,2.283-6.646-16-6.646-16S10109.721,9662.083,10125.126,9672.316Z" transform="translate(-10103.347 -9668.439)"/><path class="f" d="M10167.186,9662.8s-4.038,5.335-.311,8.683-1.157-.223-1.157-.223,3.192-3.256,5.715-3.974c0,0,.557,4.063-2.19,5.7,0,0,6.375.071,7.058,1.572,0,0-3.221,3.15-6.819.65,0,0,1.046,4.57-1.073,6.441,0,0-3.652-5.45-4.415-7.692,0,0-4.871,2.092-8.216-.137a23.933,23.933,0,0,1,7.192-2.677s-3.645-6.574-3.19-7.56c0,0,3.021-.472,4.752,4.175a18.485,18.485,0,0,1,1.349-5.272Z" transform="translate(-10149.88 -9662.494)"/></g><path class="g" d="M10246.891,9585.962s-1.5-5.763,8.976-9.94c0,0-5.685-1.839-10.281,9.63" transform="translate(-10229.586 -9575.913)"/></g><g transform="translate(5259.175 -776.073)"><g transform="translate(0 0)"><path class="e" d="M10096.6,10266.83s.744,5.2-5.353,8.5-8.083,3.028-10.918,1.628-9.017-2.261-8.668-11.114,9.36-12.11,9.36-12.11S10097.7,10250.521,10096.6,10266.83Z" transform="translate(-10071.646 -10253.478)"/><path class="f" d="M10190.423,10285.645s-5.864-.762-6.8,3.567-.336-.984-.336-.984,3.9,1.021,5.554,2.643c0,0-2.873,2.209-5.337.82,0,0,2.74,4.921,1.889,6.1,0,0-3.83-1.092-3.489-4.949,0,0-3.046,2.8-5.416,2,0,0,2.586-5.191,3.971-6.759,0,0-3.739-2.821-3.5-6.365a21.039,21.039,0,0,1,5.206,4.345s3.45-5.678,4.406-5.76c0,0,1.685,2.111-1.122,5.475a16.353,16.353,0,0,1,4.638-1.276Z" transform="translate(-10164.694 -10277.29)"/></g><path class="g" d="M10297.729,10316.618s3.764-3.68,11.563,2.532c0,0-1.078-5.171-11.9-3.67" transform="translate(-10271.999 -10308.262)"/></g><g transform="translate(5269.231 -767.91)"><g transform="translate(0 9.739)"><path class="e" d="M10182.82,10422.459s5.526,2.185,5.349,10.027-1.558,9.642-4.526,11.643-7.282,7.589-15.785,2.279-6.644-15.993-6.644-15.993S10167.413,10412.227,10182.82,10422.459Z" transform="translate(-10161.042 -10418.582)"/><path class="f" d="M10224.879,10412.945s-4.038,5.336-.312,8.683-1.155-.224-1.155-.224,3.19-3.256,5.713-3.972c0,0,.559,4.063-2.187,5.7,0,0,6.375.072,7.057,1.57,0,0-3.223,3.151-6.82.65,0,0,1.049,4.57-1.075,6.443,0,0-3.651-5.452-4.412-7.691,0,0-4.869,2.089-8.215-.138a23.862,23.862,0,0,1,7.189-2.677s-3.646-6.574-3.187-7.56c0,0,3.021-.473,4.75,4.175a18.514,18.514,0,0,1,1.351-5.275Z" transform="translate(-10207.574 -10412.634)"/></g><path class="g" d="M10304.584,10336.105s-1.5-5.764,8.974-9.94c0,0-5.686-1.841-10.28,9.63" transform="translate(-10287.278 -10326.057)"/></g><g transform="translate(5266.182 -818.452)"><g transform="translate(0 10.145)"><path class="e" d="M9875.548,10028.421s5.547,1.781,5.884,9.468-.9,9.53-3.678,11.681-6.63,7.9-15.293,3.252-7.537-15.216-7.537-15.216S9859.811,10019.406,9875.548,10028.421Z" transform="translate(-9854.876 -10025.003)"/><path class="f" d="M9915.266,10018.023s-3.605,5.479.256,8.514-1.145-.143-1.145-.143,2.912-3.393,5.334-4.256c0,0,.809,3.939-1.771,5.721,0,0,6.24-.345,7,1.079,0,0-2.947,3.292-6.631,1.078,0,0,1.319,4.4-.632,6.373,0,0-3.926-5.1-4.818-7.24,0,0-4.627,2.359-8.045.4a23.37,23.37,0,0,1,6.861-3.085s-3.991-6.2-3.608-7.191c0,0,2.924-.655,4.918,3.778a18.113,18.113,0,0,1,.978-5.247Z" transform="translate(-9899.2 -10017.803)"/></g><path class="g" d="M9987.456,9937.977s-1.844-5.542,8.14-10.306c0,0-5.681-1.434-9.437,10.087" transform="translate(-9971.393 -9927.614)"/></g><path class="d" d="M10268.954,9240.83s-12.159-44.951-6.047-118.886c0,0,5.28-62.86,25.107-75.274l-.716-4.293s-21.455,16.345-25.163,71.959c0,0,1.452-48.877,12.367-71.467,0,0-9.957,9.159-13.865,77.3,0,0-6.156-39.354-12.2-45.592l-2.168,5.084s12.915,23.637,11.773,53.613,1.218,87.1,5.938,104.853l6,2.761" transform="translate(-4967.448 -9954.683)"/><path class="d" d="M10482.81,8509.747s38.3.172,44.366-42.072,24.643-53.54,24.643-53.54-15.423,5.317-39.8,27.655S10482.81,8509.747,10482.81,8509.747Z" transform="translate(-5177.384 -9397.108)"/><path class="h" d="M10186.2,10280.414s8.383-16.473-8.51-28.245-17.734-22.236-17.734-22.236-1.053,7.8,3.287,23.155S10186.2,10280.414,10186.2,10280.414Z" transform="translate(-4890.748 -11008.655)"/><path class="d" d="M10328.937,8181.912s32.726-71.874-8.313-126.589c0,0,7.307,13.636-3.347,35.767,0,0-10.379,22.667,9.352,66.275C10326.628,8157.365,10333.506,8167.348,10328.937,8181.912Z" transform="translate(-5028.049 -9078.656)"/><path class="d" d="M9969.339,8824.5s8.785-75.209-45.238-90.893c0,0,7.563,35.2,15.182,51.795S9956.491,8817.184,9969.339,8824.5Z" transform="translate(-4681.521 -9680.644)"/><path class="i" d="M0,0H145.573a0,0,0,0,1,0,0V22.177A72.787,72.787,0,0,1,72.787,94.964h0A72.787,72.787,0,0,1,0,22.177V0A0,0,0,0,1,0,0Z" transform="matrix(0.999, 0.054, -0.054, 0.999, 5223.53, -719.155)"/><path class="d" d="M9897.839,10618.486l-1.306,24.213s-69.424,22.395-145.361-7.836l1.307-24.215S9801.688,10635.176,9897.839,10618.486Z" transform="translate(-4528.045 -11346.546)"/><path class="c" d="M11049.964,11293.556s47.016-9.382,90.71,4.891C11140.674,11298.446,11088.846,11309.3,11049.964,11293.556Z" transform="translate(-5680.742 -11949.95)"/><g transform="translate(5336.885 -769.406)"><path class="j" d="M11132.217,10907.959s9.639-51.953,56.2-61.141c0,0-48.718-13.818-68.775,60.876Z" transform="translate(-11079.467 -10785.849)"/><path class="j" d="M11244.713,11132.419s12.042-29.705,50.5-29.99c0,0-35.927-20.109-63.07,29.726Z" transform="translate(-11179.31 -11010.042)"/><path class="j" d="M11475,10682.277s3.775-57.114,31.394-87.329a123.178,123.178,0,0,0-12.258,22.124c-4.523,11.288-20.024,50.515-16.56,66.13Z" transform="translate(-11394.855 -10563.205)"/><path class="j" d="M11609.844,10337.667c-1.058,8.557,9.639,13.556,9.639,13.556,2.433-.087.75,2.191.75,2.191.8,18.353,21.711,13.378,21.711,13.378,21.9-6.926,27.9-28.7,27.9-28.7s-16.88,2.582-21.893.489.4-3.794.4-3.794l22.736-2.3a34.623,34.623,0,0,0,.363-10.631c-7.045-8.2-20.646-8.863-20.646-8.863-9.146,4.591-13.462,24.084-16.021,23.451s-1.462-2.351-1.462-2.351c3.945-15.782,13.056-21.348,13.056-21.348l-10.11.593c-8.814,8.747-9.025,16.552-9.033,22.457s-2.106,2.654-2.106,2.654c-5.795-10.346.329-21.5.329-21.5C11612.161,10322.935,11610.9,10329.112,11609.844,10337.667Zm32.868,12.682c-13.826-4.971-6.064-7.851-6.064-7.851l15.926,5.148C11654.832,10348.843,11656.542,10355.32,11642.712,10350.349Zm-11.817.94c6.986,5.684,17.584,8.548,17.584,8.548,1.652,1.283-.728,2.028-.728,2.028-3.887,2.253-15.337-2.246-18.143-7S11630.895,10351.289,11630.895,10351.289Z" transform="translate(-11514.464 -10312.75)"/><path class="j" d="M11172.494,10542.132s11.76-172.563-38.278-69.548c0,0,29.781-86.214,43.757,1.814,1.906,12.01.609,54.338-8.216,67.677Z" transform="translate(-11092.401 -10421.069)"/><path class="j" d="M10770.047,10644.409s12.055-4.605,21.646,2.647c0,0,2.977,2.558-2.958,1.748s-13.8-1.679-23.809,5.964l-2,10.074s6.852-8.382,23.251-10.156c0,0,1.88-.867,2.161,1.792s-19.9,4.295-25.779,12.846c0,0-1.219,13.753,6.045,21.967a35.058,35.058,0,0,0,10.73,1.107l5.46-22.519s2.461-5.205,3.867.119-3.523,21.925-3.523,21.925,22.7-3.013,32.688-24.053c0,0,7.9-20.316-10.43-23.663,0,0-2.521,1.375-2.1-1.057,0,0-3.54-11.437-12.28-11.559S10777.9,10631.882,10770.047,10644.409Zm27.079,31.489-2.966-16.712s3.966-7.4,7.046,7.182S10798.017,10678.335,10797.126,10675.9Zm10.43-22.07c4.39,3.477,7.325,15.6,4.521,19.2,0,0-1.078,2.287-2.137.45,0,0-1.413-11.042-6.152-18.85C10803.787,10654.624,10803.166,10650.351,10807.556,10653.828Z" transform="translate(-10762.484 -10595.717)"/><path class="j" d="M11251.539,10830.084s-1.731-50.551-23.167-72.65c0,0,23.543,6.836,29.223,72.78Z" transform="translate(-11175.967 -10707.413)"/><path class="j" d="M11568.369,10853.642s3.859-50.435,26.208-71.613c0,0-23.812,5.839-32.263,71.486Z" transform="translate(-11472.346 -10729.242)"/><path class="j" d="M11491.432,10924.289s9.637-51.953,56.2-61.141c0,0-48.715-13.818-68.771,60.877Z" transform="translate(-11398.274 -10800.342)"/><path class="j" d="M11584.979,11167.4s12.042-29.705,50.494-29.987c0,0-35.925-20.111-63.07,29.723Z" transform="translate(-11481.299 -11041.092)"/><path class="j" d="M11356.815,10843.825s-1.731-50.551-23.169-72.653c0,0,23.544,6.839,29.225,72.781Z" transform="translate(-11269.4 -10719.606)"/></g><path class="i" d="M0,0H90.843a0,0,0,0,1,0,0V13.839A45.421,45.421,0,0,1,45.421,59.261h0A45.421,45.421,0,0,1,0,13.839V0A0,0,0,0,1,0,0Z" transform="matrix(0.999, 0.054, -0.054, 0.999, 5368.659, -645.946)"/><path class="d" d="M11134.248,11322.329l-.815,15.11s-43.323,13.975-90.71-4.891l.813-15.11S11074.245,11332.744,11134.248,11322.329Z" transform="translate(-5674.315 -11973.833)"/><g transform="translate(5482.956 -701.944)"><path class="b" d="M12090.976,10912.5a63.471,63.471,0,0,1,.57,25.064c-.4,6.958-5.608,17.681-5.608,17.681l-5.775,11a9.361,9.361,0,0,1-4.594,5.9l-7.145.428c-2.28.512-2.072.282-5.433-1.545s-1.912-3.931,1.24-4.478,6.3-3.248,7.479-4.79-.187-3.4-1.631-1.861c-.646.688-3.193,2.53-4.493,2.673-3.021.324-.9-2.078-.9-2.078,2.881-5.668,11.765-8.125,11.765-8.125-.124-18.407.948-36.707.948-36.707" transform="translate(-12061.066 -10912.495)"/><path class="b" d="M12228.75,11580.142" transform="translate(-12209.888 -11505.041)"/></g><path class="b" d="M13015.1,11677.62l6.007.562s5.9,3.078,2.86,11.252c0,0-6.183-2.726-6.673,1.141l-3.331-.815Z" transform="translate(-7423.82 -12293.501)"/><path class="k" d="M13046.839,11663.68s-8.261-3.235-6.1,1.322c0,0,6.747,1.9,8.874,10.175s4.127,9.854,5.5,9.981c0,0,3.252-27.972,1.386-36.352,0,0-15.135,2.019-11.093,5.014C13047.413,11655.3,13049.126,11657.142,13046.839,11663.68Z" transform="translate(-7447.267 -12267.928)"/><path class="l" d="M13156.09,11677.411s1.654,1.629,2.95.208l2.565-36.106s-1.194-1.848-2.447-.174A181.487,181.487,0,0,1,13156.09,11677.411Z" transform="translate(-7549.959 -12260.678)"/><path class="b" d="M12249,11732.376l-.866,5.972s-3.371,5.735-11.382,2.286c0,0,3.037-6.038-.8-6.72l.984-3.288Z" transform="translate(-6733.323 -12340.544)"/><path class="k" d="M12072.391,11763.66s3.65-8.085-1.014-6.158c0,0-2.232,6.644-10.608,8.35s-10.049,3.622-10.248,4.99c0,0,27.771,4.665,36.237,3.225,0,0-1.25-15.217-4.445-11.333C12080.729,11764.657,12078.8,11766.275,12072.391,11763.66Z" transform="translate(-6568.751 -12364.133)"/><path class="l" d="M12044.062,11876.708s-1.628,1.653-.209,2.949l36.105,2.565s1.85-1.194.175-2.447A181.6,181.6,0,0,1,12044.062,11876.708Z" transform="translate(-6562.317 -12470.192)"/><path class="m" d="M12242.021,11019.244s-7.822,12.705-30.275,15.133c-22.494,2.434-37.506,5.207-38.9,31.1s-.492,37.209-.492,37.209l25.428,1.373.4-24.566.6-11.143c18.648-1.367,22.708-7.191,22.708-7.191s-15.878,46.545,13.343,47.426c22.763.688,32.136,1.775,32.136,1.775l1.158-21.453-21.795-1.7s2.884-23.785,3.971-36C12251.449,11038.279,12249.264,11029.447,12242.021,11019.244Z" transform="translate(-6676.622 -11709.181)"/><path class="b" d="M12210.9,10458.8" transform="translate(-6711.092 -11211.779)"/><path class="b" d="M12061.32,10570.58l5.054,4.208a62.01,62.01,0,0,0,13.6,20.242l-3.8-24.747a13.667,13.667,0,0,1,2.763-10.518l.915-1.164-16.725,5.711S12063.063,10565.606,12061.32,10570.58Z" transform="translate(-6578.336 -11300.354)"/><path class="b" d="M11870.651,10605.8l6,8.115s1.708.7,2.215-1.651" transform="translate(-6409.115 -11342.24)"/><path class="b" d="M11835.34,10408.431l16.072,15.469-16.379,5.643-1.816,5.6a16.644,16.644,0,0,1-2.033,3.023l-3.311,4.023a.8.8,0,0,1-1.141.106s-13.436-11.028-17.477-15.169c-1.462-1.5-5.331-6.443-5.331-6.443l12.52-13.853Z" transform="translate(-6349.894 -11165.65)"/><path class="n" d="M11798.394,10347.209s-1.033,8.535-3.978,8.961c-1.866.271-3.578-1.562-3.85-4.623-.58-6.561,6.941-21.635,20.335-20.338,7.384.715,21.462,18.676,21.462,18.676l-1.675,2.121-11.035,1.014a41.865,41.865,0,0,1-3.435,3.568c-3.461-3.3-4.759-6.51-6.836-5.693A8.9,8.9,0,0,1,11798.394,10347.209Z" transform="translate(-6338.01 -11098.469)"/><path class="o" d="M11887.09,10530.208a14.4,14.4,0,0,0-4.047,3.181s-2.041.484-1.6-1.878c0,0,2.252-2.708,5.176-2.679C11886.618,10528.832,11888.119,10529.6,11887.09,10530.208Z" transform="translate(-6418.637 -11273.934)"/><circle class="o" cx="1.026" cy="1.026" r="1.026" transform="translate(5467.185 -740.213)"/><path class="p" d="M11973.24,10676.786a1.936,1.936,0,0,1-1.791,1.028" transform="translate(-6498.575 -11405.244)"/><path class="q" d="M11952.365,10495.924s.264-2.678,4.65,1.894,2.826,4.335,2.826,4.335Z" transform="translate(-6481.637 -11244.033)"/><path class="q" d="M12066.374,10619.316l-5.054-4.211,2.157-6.334S12067.009,10612.193,12066.374,10619.316Z" transform="translate(-6578.336 -11344.881)"/><path class="r" d="M12122.721,10620.27l53.458-18.427a3.445,3.445,0,0,0,1.059-.573c2.853-2.356-.527-7.481-2.743-10.33l-22.784-29.591c-18.787-22.081-35.072-25.336-43.772-18.818h0c-14.464,10.834-18.679,29.641-9.417,42.01l14.369,27.765a49.14,49.14,0,0,1,3.7,6.054C12117.645,10620.338,12120.154,10621.117,12122.721,10620.27Z" transform="translate(-6606.99 -11283.441)"/><path class="p" d="M11872.309,10603.8l5.97,8.14a1.379,1.379,0,0,0,1.733-1.02" transform="translate(-6410.585 -11340.471)"/><path class="r" d="M12099.239,10816.192s-2.532,31.147,15.236,23.209Z" transform="translate(-6611.879 -11528.969)"/><path class="b" d="M12108.672,10673.6l.018,17.873-2.447-14.623Z" transform="translate(-6618.205 -11402.42)"/><path class="d" d="M11872.531,11023.553l17.552,20.15s-2.344,21.812-25.7,22.919l-19.9-20.56S11872.2,11043.908,11872.531,11023.553Z" transform="translate(-6385.888 -11713.006)"/><path class="s" d="M11872.531,11023.174s-26.033-2.163-28.051,22.51C11844.48,11045.684,11874.056,11051.5,11872.531,11023.174Z" transform="translate(-6385.888 -11712.625)"/><path class="d" d="M11655.628,11239.469l-24.328-.4s1.115-7.349-4.346-7.438-6.4,7.32-6.623,10.156c-.22,2.75-.5,10.254,5.459,10.352s5.413-7.112,5.413-7.112l30.78.5Z" transform="translate(-6186.874 -11897.68)"/><path class="d" d="M11795.626,10954.731s-12.536-20.524-1.936-30.945,29.99,8.438,29.99,8.438l-.167,5.872s-16.432-17.236-25.253-10.427,1.536,27.53,1.536,27.53Z" transform="translate(-6337.032 -11621.674)"/><g transform="translate(5452.352 -714.412)"><path class="b" d="M11895.186,10811.338a63.5,63.5,0,0,1-20.741,14.084c-6.063,3.436-17.9,4.879-17.9,4.879l-12.374,1.12a9.353,9.353,0,0,1-7.449-.658l-4.239-5.767c-1.664-1.637-1.359-1.585-1.649-5.4s2.266-3.739,4.437-1.388,6.144,3.527,8.08,3.682,2.752-2,.677-2.378c-.926-.169-3.858-1.311-4.678-2.325-1.915-2.36,1.251-1.882,1.251-1.882,6.328-.656,13.21,5.472,13.21,5.472,15.4-10.092,31.349-19.119,31.349-19.119" transform="translate(-11826.107 -10801.655)"/><path class="b" d="M11789,11167.54" transform="translate(-11788.998 -11126.383)"/></g><path class="r" d="M12290.516,10735.07s-3.844,22.35,17.959,22.8Z" transform="translate(-6781.519 -11456.972)"/><path class="t" d="M11882.991,10920.344s15.88,4.48,23.418,14.184l-2.469,3.229s-12.787-12.359-21.24-11.978l-2.645-5.326A9.345,9.345,0,0,1,11882.991,10920.344Z" transform="translate(-6417.461 -11621.336)"/><path class="u" d="M11563.874,11292.126s-3.786-2.047-4.229-.229S11563.874,11292.126,11563.874,11292.126Z" transform="translate(-6133.066 -11950.497)"/><path class="u" d="M11582.568,11340.216s-3.788-2.048-4.228-.228S11582.568,11340.216,11582.568,11340.216Z" transform="translate(-6149.659 -11993.177)"/><path class="u" d="M11590.763,11250.6s-3.786-2.047-4.229-.228S11590.763,11250.6,11590.763,11250.6Z" transform="translate(-6156.929 -11913.64)"/><path class="u" d="M11498.393,11269.545s-3.787-2.049-4.228-.229S11498.393,11269.545,11498.393,11269.545Z" transform="translate(-6074.951 -11930.455)"/><path class="u" d="M11495.232,11328.225s-3.789-2.047-4.231-.229S11495.232,11328.225,11495.232,11328.225Z" transform="translate(-6072.143 -11982.535)"/><path class="u" d="M11522.418,11358.659s-3.787-2.048-4.23-.228S11522.418,11358.659,11522.418,11358.659Z" transform="translate(-6096.272 -12009.545)"/><path class="u" d="M11537.831,11240.462s-3.787-2.047-4.229-.228S11537.831,11240.462,11537.831,11240.462Z" transform="translate(-6109.953 -11904.644)"/><path class="c" d="M10073.93,11537.977s35.608-7.106,68.7,3.7C10142.631,11541.679,10103.377,11549.9,10073.93,11537.977Z" transform="translate(-4814.498 -12167.528)"/><g transform="translate(5275.135 -864.515)"><path class="v" d="M10229.714,10869.207s-14.107-55.648-15.506-82.079-.209-1.563-.209-1.563,15.465,66.595,23.24,82.974l-9.095.809" transform="translate(-10213.527 -10627.862)"/><path class="v" d="M10357,9994.989s-2.537-122.588,1.479-179.514.113-3.4.113-3.4,1.64,146.349,5.955,183.316l-9.121-.491" transform="translate(-10339.462 -9753.039)"/><path class="w" d="M10270.008,10442.406s-8.961-89.035-5.317-130.164.027-2.459.027-2.459,8.611,106.234,16.646,133.234l-13.721-.74" transform="translate(-10258.164 -10200.383)"/><path class="v" d="M10369.873,10360.014s17.952-84.891,21.153-125.044.316-2.376.316-2.376-20.061,101.542-28.986,126.642l9.084.938" transform="translate(-10345.615 -10132.208)"/><path class="w" d="M10337.027,9708.356s13.032-144.162,24.249-210.556.546-3.975.546-3.975-16.939,171.96-17.34,215.813l-9.008-1.55" transform="translate(-10321.758 -9467.226)"/><path class="w" d="M10373.646,10505.978s25.781-82.85,32.705-122.528.536-2.337.536-2.337-29.428,99.23-40.654,123.393l8.956,1.779" transform="translate(-10349.058 -10264.181)"/></g><path class="i" d="M0,0H68.8a0,0,0,0,1,0,0V10.481a34.4,34.4,0,0,1-34.4,34.4h0A34.4,34.4,0,0,1,0,10.481V0A0,0,0,0,1,0,0Z" transform="matrix(0.999, 0.054, -0.054, 0.999, 5259.005, -621.639)"/><path class="d" d="M10137.764,11559.766l-.618,11.445s-32.812,10.584-68.7-3.705l.616-11.441S10092.318,11567.654,10137.764,11559.766Z" transform="translate(-4809.631 -12185.617)"/><path class="c" d="M8921.651,11395.747s28.359-5.66,54.712,2.949C8976.363,11398.7,8945.1,11405.243,8921.651,11395.747Z" transform="translate(-3791.833 -12041.712)"/><path class="x" d="M9136.729,10844.288s8.057-18.12,6.916-35.194c-.525-7.884-3.955-21.2,13.5-36.462,4.248-3.713,16.533-10.168,21.654-6.373s2.17,15.525-.146,21.807c-2.395,6.483-5.937,25.294-7.837,31.766s-25.423,24.628-25.423,24.628l-1.508,3.2Z" transform="translate(-3982.717 -11483.627)"/><path class="w" d="M9161.852,10920.128s18.31-30.054,21.046-44.652,4.518-18.132,11.36-26.422" transform="translate(-4005.014 -11558.135)"/><path class="w" d="M9313.058,10974.052s-2.464-1.622,1.065-26.206" transform="translate(-4138.469 -11645.814)"/><path class="w" d="M9271.081,11129.686s12.319-6.592,17.587-16.792" transform="translate(-4101.958 -11792.296)"/><path class="w" d="M9215.236,11257.319s-1.83-.612-3.278-8.682" transform="translate(-4049.484 -11912.771)"/><path class="w" d="M9219.77,11348s3.023,1.885,9.435-2.922" transform="translate(-4056.418 -11998.36)"/><path class="x" d="M8881.7,10811.88s-6.061-18.883-3.094-35.734c1.372-7.78,6.214-20.655-9.5-37.7-3.824-4.147-15.345-11.885-20.844-8.662s-3.828,15.2-2.2,21.7c1.684,6.7,3.182,25.783,4.375,32.423s22.627,27.218,22.627,27.218l1.157,3.348Z" transform="translate(-3723.348 -11451.598)"/><path class="w" d="M8955.185,10889.753s-14.973-31.848-16.123-46.654-2.542-18.514-8.453-27.489" transform="translate(-3799.783 -11528.451)"/><path class="w" d="M9024.464,10952.979s2.624-1.348,1.758-26.171" transform="translate(-3883.08 -11627.143)"/><path class="w" d="M8940.312,11098.924s-11.536-7.878-15.678-18.583" transform="translate(-3794.479 -11763.405)"/><path class="w" d="M9087,11246.736s1.884-.412,4.188-8.279" transform="translate(-3938.583 -11903.736)"/><path class="w" d="M9031.787,11328.4s-3.211,1.549-9.067-3.918" transform="translate(-3881.531 -11980.085)"/><path class="y" d="M9056.351,10790.4s2.234-19.7,11.864-33.846c4.448-6.529,14.152-16.276,6.831-38.276-1.781-5.356-9.105-17.143-15.442-16.464s-9.737,12.284-10.921,18.874c-1.218,6.8-7.7,24.813-9.335,31.356s9.441,34.115,9.441,34.115l-.321,3.523Z" transform="translate(-3896.143 -11427.429)"/><path class="w" d="M9164.016,10874.063s-.562-35.188,4.476-49.161,5.29-17.923,3.59-28.534" transform="translate(-4006.917 -11511.374)"/><path class="w" d="M9180.116,10965.876s2.946-.15,12.357-23.135" transform="translate(-4021.223 -11641.283)"/><path class="w" d="M9127.978,11058.64s-7.279-11.925-6.653-23.387" transform="translate(-3969.011 -11723.39)"/><path class="w" d="M9174.408,11267.261s1.889.4,7.227-5.825" transform="translate(-4016.158 -11924.128)"/><path class="w" d="M9117.362,11305.433s-3.562.094-6.653-7.3" transform="translate(-3959.624 -11956.699)"/><path class="i" d="M0,0H54.789a0,0,0,0,1,0,0V8.347A27.395,27.395,0,0,1,27.395,35.741h0A27.395,27.395,0,0,1,0,8.347V0A0,0,0,0,1,0,0Z" transform="matrix(0.999, 0.054, -0.054, 0.999, 5129.478, -639.664)"/><path class="d" d="M8972.485,11413.1l-.489,9.112a88.178,88.178,0,0,1-54.711-2.949l.49-9.114S8936.3,11419.38,8972.485,11413.1Z" transform="translate(-3787.958 -12056.112)"/><path class="z" d="M9175,11318.71s-14.821,23.176,3.944,35.95c0,0,7.723,6.256,14.428,7.749,12.245,2.727-42.366,3.2-42.366,3.2l-.659,12.231s13.637.472,40.855,1.154c19,.475,31.609,1.1,34.365-2.593,5.136-6.884-10.7-34.858-10.7-34.858a34.946,34.946,0,0,0,21.226-17.963l1.776,50.771,11.107-.118,3.479-64.5s3.751-19.251-14.353-10.727a232.847,232.847,0,0,0-31.266,17.768Z" transform="translate(-3994.807 -11955.537)"/><g transform="translate(5231.425 -733.22)"><path class="n" d="M9828.87,10654.247s2.614-27.714,24.961-17.543c0,0,13.2,5.988,6.768,19.147,0,0,5.889,15.452-12.134,19.353,0,0,.193,2.311-13.771-3.479s-10.007-11.083-5.981-14.543" transform="translate(-9824.935 -10634.461)"/><circle class="n" cx="7.965" cy="7.965" r="7.965" transform="translate(11.101 32.538)"/><circle class="n" cx="7.05" cy="7.05" r="7.05" transform="translate(11.193 43.626)"/><circle class="n" cx="6.298" cy="6.298" r="6.298" transform="translate(13.383 53.75)"/><circle class="n" cx="6.298" cy="6.298" r="6.298" transform="translate(14.586 61.541)"/><circle class="n" cx="5.43" cy="5.43" r="5.43" transform="translate(19.415 75.852)"/><circle class="n" cx="5.43" cy="5.43" r="5.43" transform="translate(17.255 68.815)"/><circle class="n" cx="5.004" cy="5.004" r="5.004" transform="translate(23.021 82.615)"/><path class="n" d="M10059.083,11417.049l5,11.461a4.247,4.247,0,0,1-3.433,5.92l-5.641.611a4.244,4.244,0,0,1-4.7-4.447l.64-12.072a4.246,4.246,0,0,1,3.04-3.846h0A4.247,4.247,0,0,1,10059.083,11417.049Z" transform="translate(-10024.953 -11326.759)"/></g><path class="aa" d="M9883.006,10872.076l-5.086,4.548s8.29,8.5,8.225,9.719l3.749-5.6S9886.487,10880.015,9883.006,10872.076Z" transform="translate(-4640.536 -11578.566)"/><path class="aa" d="M9915.07,10725.564c-.569-12.063,18.509-14.236,19.672-1.731.191,2.053-1.243,7.344-1.215,9.947.014,1.118-.575,2.286-2.559,1.226,0,0-1.409,7.214-7.9,7.041-6.092-.162-7.527-1.527-10.683-8.652,0,0,1.526-1.138,1.067-3.97,0,0-3.589-3.535-1.15-5.722S9915.07,10725.564,9915.07,10725.564Z" transform="translate(-4670.295 -11439.539)"/><path class="q" d="M9893.362,10875.148s.941,4.489,6.6,8.435c0,0-6.86-1.691-9.946-5.448Z" transform="translate(-4651.275 -11581.294)"/><path class="ab" d="M9427.966,10908.935s-13.7-1.714-23.559,18.259c0,0-14.333,27.379-33.253,43.281,0,0-2.96,3.585.982,5.913,0,0,19.412,8.206,33.162.647a115.774,115.774,0,0,0,8.316-18.428s2.991-7.161,8.268-8.5c0,0,1.626,18.149,14.09,22.4,0,0,5.743-9.94,10.331-10.508,0,0-.036-2.371-4.111-5.229l-3.089-15.176s-.95-18.6-2.849-22.608C9436.255,10918.983,9434.466,10914.33,9427.966,10908.935Z" transform="translate(-4189.828 -11611.246)"/><path class="p" d="M10047.069,10900.838s-.2,2.672,2.7,2.068" transform="translate(-4790.656 -11604.094)"/><circle class="o" cx="1.027" cy="1.027" r="1.027" transform="translate(5257.426 -711.758)"/><path class="o" d="M10064.825,10801.718a4.526,4.526,0,0,1,1.475.644s.656-.016.335-.7a2.4,2.4,0,0,0-1.776-.4S10064.465,10801.619,10064.825,10801.718Z" transform="translate(-4806.282 -11515.673)"/><path class="b" d="M9928.587,11375.6l18.542,16.261,4.923,5.583s1.868,2.694,7.021,3.188c0,0,1.725.256-2.857-3.156,0,0,7.831,4.008,8.446,2.677,0,0,2.111-.247-6.386-3.915,0,0,7.221,2,7.543.409s.022-.146.022-.146.891-.777-7.857-2.549c0,0-2.9-1.581-1.156-2.4s4.5,2.266,4.5,2.266,2.109,1.063,1.6-1.021l-3.437-3.877-8.019-1.027-12.372-21.85Z" transform="translate(-4685.503 -12016.973)"/><path class="ab" d="M9426.083,10912.459s-13.231-1.684-22.791,18.168c0,0-13.885,27.213-32.19,43.035,0,0-2.863,3.563.939,5.869,0,0,19.943,8.158,33.239.633a83.591,83.591,0,0,0,7.775-16.877s3.707-8.715,8.812-10.057c0,0,1.848,18.529,14.089,22.406,0,0,5.74-9.131,9.221-10.287a17.788,17.788,0,0,0-4.609-4.785l-3.772-15.687s-.889-18.473-2.719-22.451C9434.076,10922.426,9432.354,10917.807,9426.083,10912.459Z" transform="translate(-4189.809 -11614.375)"/><g transform="translate(5241.034 -581.139)"><rect class="b" width="5.976" height="9.036" transform="translate(2.978 5.962) rotate(-86.095)"/><path class="k" d="M9939.253,12056.157l-24.428-1.666s-1.048-12.489,2.339-15.034l9.016.616s4.689,8.355,4.609,9.518C9930.789,12049.591,9939.354,12052.513,9939.253,12056.157Z" transform="translate(-9914.187 -12033.495)"/><path class="ac" d="M9935.509,12175.368s2.341,1.434-.149,2.189c-4.017,1.216-24.2-1.417-24.2-1.417s-1.743-1.209-.077-2.438Z" transform="translate(-9910.361 -12152.639)"/></g><g transform="translate(5117.182 -591.975)"><rect class="b" width="9.036" height="5.976" transform="translate(32.565 11.994) rotate(-86.095)"/><path class="k" d="M8829.913,11918.255l15.829-23.665s12.488-1.046,15.032,2.341l-.614,9.017s-8.354,4.689-9.518,4.606C8850.643,11910.554,8833.559,11918.359,8829.913,11918.255Z" transform="translate(-8827.595 -11893.953)"/><path class="ac" d="M8811.561,11914.513s-1.432,2.34-2.185-.148c-1.22-4.02,15.578-23.439,15.578-23.439s1.208-1.741,2.438-.076Z" transform="translate(-8809.313 -11890.128)"/></g><path class="n" d="M9892.8,10687.257s-17.446,19.973-24.206,19.01c-5.347-.762,3.77-17.488,4.258-18.457.3-.605,2.686,6.112,2.686,6.112s-3.3-9.67,7.32-12.725S9892.8,10687.257,9892.8,10687.257Z" transform="translate(-4630.774 -11408.604)"/><g transform="translate(5288.567 -831.111)"><g transform="translate(0 10.715)"><path class="e" d="M10339.523,9870.691s-5.73,1.576-6.4,9.4.515,9.75,3.252,12.059,6.42,8.326,15.448,3.964,8.326-15.187,8.326-15.187S10355.938,9862.173,10339.523,9870.691Z" transform="translate(-10332.942 -9867.457)"/><path class="f" d="M10352.9,9859.622s3.439,5.737-.624,8.667,1.173-.1,1.173-.1-2.824-3.582-5.254-4.562c0,0-.991,3.977,1.563,5.9,0,0-6.344-.615-7.184.8,0,0,2.863,3.48,6.709,1.379,0,0-1.532,4.431.376,6.521,0,0,4.215-5.028,5.217-7.173,0,0,4.615,2.6,8.182.747a23.983,23.983,0,0,0-6.861-3.436s4.329-6.145,3.981-7.173c0,0-2.952-.793-5.173,3.641a18.413,18.413,0,0,0-.773-5.386Z" transform="translate(-10341.491 -9859.457)"/></g><path class="g" d="M10372.407,9775.078s2.111-5.569-7.856-10.849c0,0,5.85-1.218,9.188,10.681" transform="translate(-10360.995 -9764.194)"/></g></g></svg>