<svg xmlns="http://www.w3.org/2000/svg" width="266.654" height="269.457" viewBox="0 0 266.654 269.457"><defs><style>.a{fill:#5dbc58;}.b,.c,.d{fill:#007b40;}.b{opacity:0.7;}.c{opacity:0.5;}</style></defs><g transform="translate(-827.671 -1250.544)"><path class="a" d="M941.1,3891.1c0,36.512-30.469,66.111-30.469,66.111s-30.469-29.6-30.469-66.111,30.469-63.671,30.469-66.111C910.63,3824.987,941.1,3854.586,941.1,3891.1Z" transform="translate(52.717 -2574.443)"/><path class="b" d="M971.55,3919.195c-19.507,30.864-61.076,39.606-61.076,39.606s-9.943-41.3,9.564-72.163,59.773-37.543,61.076-39.6C981.115,3847.032,991.058,3888.331,971.55,3919.195Z" transform="translate(50.711 -2576.035)"/><path class="c" d="M843.5,3919.195c19.507,30.864,61.076,39.606,61.076,39.606s9.942-41.3-9.564-72.163-59.774-37.543-61.076-39.6C833.934,3847.032,823.991,3888.331,843.5,3919.195Z" transform="translate(56.238 -2576.035)"/><path class="a" d="M977.773,3998.853c-36.512,0-66.11-30.469-66.11-30.469s29.6-30.469,66.11-30.469,63.671,30.469,66.111,30.469C1043.884,3968.384,1014.285,3998.853,977.773,3998.853Z" transform="translate(50.441 -2582.6)"/><path class="b" d="M951.269,4030.642c-30.864-19.507-39.606-61.077-39.606-61.077s41.3-9.942,72.163,9.564,37.543,59.774,39.6,61.078C1023.431,4040.208,982.133,4050.15,951.269,4030.642Z" transform="translate(50.441 -2584.701)"/><path class="c" d="M951.269,3901.252c-30.864,19.507-39.606,61.076-39.606,61.076s41.3,9.942,72.163-9.564,37.543-59.774,39.6-61.077C1023.431,3891.688,982.133,3881.745,951.269,3901.252Z" transform="translate(50.441 -2579.078)"/><path class="a" d="M876.437,4039.018c0-36.512,30.469-66.111,30.469-66.111s30.469,29.6,30.469,66.111-30.469,63.671-30.469,66.11C906.906,4105.127,876.437,4075.529,876.437,4039.018Z" transform="translate(52.986 -2585.127)"/><path class="b" d="M843.5,4012.512c19.507-30.863,61.076-39.6,61.076-39.6s9.942,41.3-9.564,72.163-59.774,37.543-61.076,39.606C833.934,4084.675,823.991,4043.376,843.5,4012.512Z" transform="translate(56.238 -2585.127)"/><path class="c" d="M972.888,4012.512c-19.506-30.863-61.076-39.6-61.076-39.6s-9.942,41.3,9.564,72.163,59.774,37.543,61.077,39.606C982.453,4084.675,992.4,4043.376,972.888,4012.512Z" transform="translate(50.613 -2585.127)"/><path class="a" d="M832.875,3936.811c36.512,0,66.11,30.469,66.11,30.469s-29.6,30.469-66.11,30.469-63.671-30.469-66.11-30.469C766.765,3967.28,796.364,3936.811,832.875,3936.811Z" transform="translate(60.906 -2582.52)"/><path class="b" d="M860.972,3903.871c30.863,19.508,39.6,61.076,39.6,61.076s-41.3,9.943-72.162-9.564-37.543-59.773-39.606-61.077C788.809,3894.307,830.108,3884.365,860.972,3903.871Z" transform="translate(59.314 -2579.268)"/><path class="c" d="M860.972,4033.262c30.863-19.508,39.6-61.077,39.6-61.077s-41.3-9.942-72.162,9.565-37.543,59.773-39.606,61.077C788.809,4042.827,830.108,4052.769,860.972,4033.262Z" transform="translate(59.314 -2584.891)"/><g transform="translate(880.264 1303.689)"><path class="d" d="M929.017,3922.3c0,22.11-18.451,40.033-18.451,40.033s-18.45-17.923-18.45-40.033,18.45-38.555,18.45-40.032C910.567,3882.269,929.017,3900.193,929.017,3922.3Z" transform="translate(-828.409 -3882.269)"/><path class="b" d="M947.456,3939.315c-11.812,18.69-36.984,23.983-36.984,23.983s-6.02-25.008,5.792-43.7,36.194-22.734,36.984-23.983C953.249,3895.618,959.269,3920.626,947.456,3939.315Z" transform="translate(-829.624 -3883.233)"/><path class="c" d="M869.916,3939.315c11.812,18.69,36.985,23.983,36.985,23.983s6.02-25.008-5.792-43.7-36.2-22.734-36.984-23.983C864.125,3895.618,858.1,3920.626,869.916,3939.315Z" transform="translate(-826.277 -3883.233)"/><path class="d" d="M951.226,3987.553c-22.11,0-40.033-18.451-40.033-18.451s17.923-18.45,40.033-18.45,38.556,18.45,40.033,18.45C991.258,3969.1,973.334,3987.553,951.226,3987.553Z" transform="translate(-829.787 -3887.208)"/><path class="b" d="M935.176,4006.8c-18.69-11.812-23.983-36.984-23.983-36.984s25.008-6.02,43.7,5.792,22.734,36.194,23.983,36.984C978.873,4012.594,953.865,4018.614,935.176,4006.8Z" transform="translate(-829.787 -3888.481)"/><path class="c" d="M935.176,3928.451c-18.69,11.813-23.983,36.985-23.983,36.985s25.008,6.02,43.7-5.792,22.734-36.2,23.983-36.985C978.873,3922.659,953.865,3916.638,935.176,3928.451Z" transform="translate(-829.787 -3885.075)"/><path class="d" d="M889.862,4011.873c0-22.109,18.451-40.032,18.451-40.032s18.45,17.923,18.45,40.032-18.45,38.555-18.45,40.033C908.313,4051.906,889.862,4033.983,889.862,4011.873Z" transform="translate(-828.247 -3888.738)"/><path class="b" d="M869.916,3995.823c11.812-18.689,36.985-23.982,36.985-23.982s6.02,25.007-5.792,43.7-36.2,22.734-36.984,23.982C864.125,4039.521,858.1,4014.513,869.916,3995.823Z" transform="translate(-826.277 -3888.738)"/><path class="c" d="M948.267,3995.823c-11.812-18.689-36.985-23.982-36.985-23.982s-6.02,25.007,5.792,43.7,36.2,22.734,36.985,23.982C954.06,4039.521,960.08,4014.513,948.267,3995.823Z" transform="translate(-829.683 -3888.738)"/><path class="d" d="M863.484,3949.983c22.109,0,40.033,18.45,40.033,18.45s-17.924,18.451-40.033,18.451-38.556-18.451-40.033-18.451C823.451,3968.433,841.374,3949.983,863.484,3949.983Z" transform="translate(-823.45 -3887.159)"/><path class="b" d="M880.5,3930.037c18.689,11.813,23.983,36.985,23.983,36.985s-25.008,6.02-43.7-5.792-22.734-36.2-23.983-36.985C836.8,3924.245,861.808,3918.224,880.5,3930.037Z" transform="translate(-824.414 -3885.19)"/><path class="c" d="M880.5,4008.389c18.689-11.812,23.983-36.985,23.983-36.985s-25.008-6.02-43.7,5.792-22.734,36.2-23.983,36.984C836.8,4014.18,861.808,4020.2,880.5,4008.389Z" transform="translate(-824.414 -3888.596)"/></g></g></svg>