<svg xmlns="http://www.w3.org/2000/svg" width="569.786" height="533.446" viewBox="0 0 569.786 533.446"><defs><style>.a{fill:#f7b09e;}.b{fill:#d3792f;stroke:#773c0b;}.b,.h,.m,.v{stroke-miterlimit:10;}.c{fill:#577885;}.d,.h,.i,.s,.v,.w{fill:none;}.e{fill:#eaa89b;}.f{fill:#db8572;}.g{fill:#2b1100;}.h,.i,.s{stroke:#db8572;}.i,.k,.s,.w{stroke-linecap:round;stroke-linejoin:round;}.j,.m{fill:#fff;}.k{fill:#e4dbd7;}.k,.v,.w{stroke:#fff;}.l{fill:#264e69;}.m{stroke:#192230;}.m,.s{stroke-width:0.25px;}.n{fill:#20486c;}.o{fill:#cd5016;}.p{fill:#f98658;}.q{fill:#ffbbb0;}.r{fill:#f28268;}.t{fill:#0c060e;}.u{fill:#f58f70;}</style></defs><g transform="translate(-50.764 -3897.804)"><g transform="translate(142.374 3924.948)"><g transform="translate(0 0)"><g transform="translate(182.285 158.234)"><path class="a" d="M1463.994,996.935s-15.177,33.289-29.948,62.8c0,0,12.343,10.986,12.492,22.384,0,0,1.512,5.543-3.094,2.628a20.592,20.592,0,0,1-5.111-7.854c-1.106-3.611-4.777-1.709-4.1,1.7a25.205,25.205,0,0,0,8.236,13.623c4.639,3.377,5.309,7.906-1.547,8.186s-6.7.811-9.957-1.818l-11.149-6.35a16.791,16.791,0,0,1-2.73-13.134l-.576-22.27s4.665-21.541,9.524-33.054c4.765-9.683,4.176-12.185,13.679-23.961" transform="translate(-1416.509 -996.935)"/><path class="a" d="M1537.938,1154.658" transform="translate(-1446.808 -1036.291)"/></g><path class="a" d="M1585.934,1304.3l-.982,10.9s-7,11.089-21.841,5.622c0,0,6.491-9.915-.523-10.78l1.33-7.735Z" transform="translate(-1270.674 -914.897)"/><path class="b" d="M1554.818,1318.282s5.821-15-2.435-11.055c0,0,.319,17.6-14.684,21.507s-17.114,10.294-17.338,12.793c0,0,24.784,3.26,61.488-5.8,0,0-3.749-27.448-9.149-20.087C1570.016,1319.275,1566.688,1322.392,1554.818,1318.282Z" transform="translate(-1260.137 -915.961)"/><path class="a" d="M1494.668,1298.748v10.943s-4.559,11.167-19.828,7.058c0,0,3.871-11.624-3.193-11.852l.913-6.156Z" transform="translate(-1247.982 -914.009)"/><path class="b" d="M1463.74,1311.294s4.444-15.463-3.42-10.788a25.388,25.388,0,0,1-16.869,17.75c-14.587,5.244-17.094,9.114-17.094,11.624,0,0,51.056,1.14,65.876-3.646,0,0-6.2-26.989-10.93-19.182C1478.965,1310.915,1475.934,1314.324,1463.74,1311.294Z" transform="translate(-1236.681 -914.229)"/><path class="c" d="M1563.507,1082.1l3.754,168.813h-30.773l-20.736-99.458-17.606,99.458h-31.408l1.03-168.2Z" transform="translate(-1246.757 -859.952)"/><line class="d" x1="1.359" y1="39.567" transform="translate(267.632 253.752)"/><path class="d" d="M1527.771,1144a22.118,22.118,0,0,1-10.1-19.783" transform="translate(-1259.458 -870.46)"/><path class="e" d="M1444.333,936.8c12.11-40.205,41.994-41.465,42.032-41.444h0c-.084.3-.167.591-.261.888h.261l20.952,40.14h0l24.8-40.139h.753l-.261-.887v0c.057-.018,40.406-1.836,47.966,45.383,2.677,14.547,7.783,64.356-8.937,58.493h0s-1.16-.855-2.35-1.548h0v21.464a29.6,29.6,0,0,1-29.6,29.6h-61.253c-16.795,0-21.072-9.758-21.072-26.557l-.769-35.821h0c-1.283,1.105-13.5-6.258-13.509-6.267h0C1439.777,967.012,1440.193,949.661,1444.333,936.8Z" transform="translate(-1240.305 -813.353)"/><path class="d" d="M1549.866,907.386l-27.971,44.37-25.358-44.37" transform="translate(-1254.193 -816.357)"/><path class="f" d="M1506.349,827.205s-6.229-2.737-4.253,8.66,4.253,8.967,4.253,8.967Z" transform="translate(-1255.484 -796.278)"/><path class="a" d="M1500.652,874.821l2.8-34.1.758-18.386s2.486-3.2,1.876-13.232c0,0,17.284,10.007,26.251-1.088,0,0,6.823,6.42,15.335,15.993l1.1,50.863s-20.151,37.426-25.238,47.95C1523.531,922.821,1507.025,890.85,1500.652,874.821Z" transform="translate(-1255.219 -791.562)"/><path class="g" d="M1543.68,828.958a26.159,26.159,0,0,0-9.118-1.948s-3.04-2.28.758-4.407a13.9,13.9,0,0,1,9.728,4.1S1545.711,829.688,1543.68,828.958Z" transform="translate(-1263.393 -795.202)"/><path class="g" d="M1507.772,828.958a26.127,26.127,0,0,1,9.118-1.948s3.035-2.28-.763-4.407a13.9,13.9,0,0,0-9.728,4.1S1505.736,829.688,1507.772,828.958Z" transform="translate(-1256.628 -795.202)"/><path class="h" d="M1524.735,828.275v18.168s.763,3.106,4.1.309" transform="translate(-1261.229 -796.616)"/><path class="i" d="M1529.268,864.948a5.751,5.751,0,0,1-8-1.455c-.073-.1-.142-.21-.206-.32" transform="translate(-1260.312 -805.324)"/><circle class="g" cx="1.859" cy="1.859" r="1.859" transform="translate(273.401 36.722)"/><circle class="g" cx="1.859" cy="1.859" r="1.859" transform="translate(253.683 36.722)"/><path class="g" d="M1504.366,816.867s-6.655-8.1-.442-19.605c0,0,3.053-11.17,19.062-11.17,13.954,0,17.58,1.568,21.3,4.656,4.87,4.041,7.648,15.914,6.917,25.061-3.921,49.077-2.909,8.626-6.917,1.929,0,0-8.378-5.712-10.935-13.159,0,0-14.692,9.34-27.013,0C1506.333,804.587,1507.688,816.485,1504.366,816.867Z" transform="translate(-1255.375 -786.091)"/><path class="f" d="M1557.6,827.205s6.231-2.737,4.255,8.66-4.255,8.967-4.255,8.967Z" transform="translate(-1269.429 -796.278)"/><path class="f" d="M1503.029,860.851l6.687,11.058a4.678,4.678,0,0,0,3.4,1.464h15.248a4.941,4.941,0,0,0,2.5-.679l8.321-4.879s-9.718,18.743-37.922,15.76Z" transform="translate(-1255.373 -804.745)"/><path class="d" d="M1461.618,994.289s7.025-23.7,5.553-36.739" transform="translate(-1245.48 -828.874)"/><path class="d" d="M1620.529,1017.872s-12.642,5.864-22.763,0" transform="translate(-1279.452 -843.925)"/><g transform="translate(247.054 153.695)"><path class="j" d="M1525.49,1010.968h18.477v.479a20.578,20.578,0,1,1-.262-3.253h-20.957v8.481h2.742Z" transform="translate(-1502.813 -990.887)"/></g><path class="k" d="M1446.476,1363.335l-199.721-89.641-5.068-201.283,202.265,55.647Z" transform="translate(-1190.602 -857.534)"/><path class="k" d="M1603.414,1357.285l-89.688,20.02-2.523-235.276,96.563-13.634Z" transform="translate(-1257.852 -871.503)"/><path class="k" d="M1241.688,1068.829l87.956-10.773,210.872,52.786-96.563,13.635Z" transform="translate(-1190.602 -853.952)"/><path class="l" d="M1280.9,1187.211l24.365,18.484s5.041-32.767,28.566-36.128v12.6l26.045-22.685-29.406-24.365,1.68,15.123S1303.583,1140.161,1280.9,1187.211Z" transform="translate(-1200.386 -873.182)"/><path class="l" d="M1422.241,1174.455l-28.3,11.593s25.66,20.992,16.6,42.961l-10.854-6.4,6.3,33.959,35.928-12.945-13.879-6.238S1451.236,1217.9,1422.241,1174.455Z" transform="translate(-1228.592 -882.996)"/><path class="l" d="M1371.657,1299.394l1.4-30.551s-29.843,14.439-45.958-3.027l10.379-7.15-33.457-8.578-3.381,38.039,11.5-9.963S1320.042,1307.407,1371.657,1299.394Z" transform="translate(-1205.311 -901.869)"/><path d="M1468.021,1041.16s3.9-49.654,16.84-41.419,0,51.243,0,51.243l3.666,2.138s12.021-50.635-1.705-57.3-23.092,42.836-23.092,42.836Z" transform="translate(-1246.007 -838.269)"/><g transform="translate(221.697 162.925)"><path class="a" d="M1576.313,1024.595s-9.846-3.534-3.569-20.782c0,0-31.962,7.64-63.5,17.367,0,0-8.816-13.976-20.039-15.99,0,0-5.219-2.4-3.1,2.62a20.554,20.554,0,0,0,6.91,6.332c3.38,1.681.909,5-2.354,3.759a25.224,25.224,0,0,1-12.091-10.356c-2.57-5.128-6.927-6.529-8.325.188s-1.9,6.478.156,10.129l4.438,12.027a16.772,16.772,0,0,0,12.509,4.829l21.868,4.207s21.1,3.392,33.255.481a104.592,104.592,0,0,0,40.939-13.344" transform="translate(-1469.026 -1003.186)"/><path class="a" d="M1564.767,1150.573" transform="translate(-1492.915 -1039.962)"/></g><path class="e" d="M1610.612,1014.727s-9.442,32.815-51.519-6.678l33.188-25.535a97.254,97.254,0,0,1,11.942,25.078A11.158,11.158,0,0,0,1610.612,1014.727Z" transform="translate(-1269.802 -835.103)"/><g transform="translate(186.63 179.397)"><path class="m" d="M1438.221,1025.135H1422.3l60.052,35.03,15.468-2.275Z" transform="translate(-1422.299 -1025.135)"/><path class="m" d="M1422.3,1025.135v46.4l59.6,36.85.455-48.223Z" transform="translate(-1422.299 -1025.135)"/><path class="m" d="M1517.633,1068.782v50.5h-15.923l.455-48.223Z" transform="translate(-1442.114 -1036.026)"/><g transform="translate(16.193 26.895)"><path d="M1459.12,1074.473h12.421v.321a13.834,13.834,0,1,1-.176-2.186h-14.088v5.7h1.843Z" transform="translate(-1443.876 -1060.973)"/></g></g><path d="M1458.032,1035.164s3.292-36.41,14.216-30.371-.317,38.714-.317,38.714l3.054,1.782s10.5-38.483-1.082-43.372-19.494,31.411-19.494,31.411Z" transform="translate(-1243.681 -839.831)"/><path class="n" d="M1224.25,1080.246,1200.582,1289.8h-18.474s3.719-113.822-2.309-146.631c-3.443-18.741-14.432-37.523,5.2-62.924Z" transform="translate(-1173.617 -859.49)"/><g transform="translate(6.264 429.525)"><rect class="a" width="10.482" height="15.85" transform="translate(3.686 10.48) rotate(-89.181)"/><path class="o" d="M1225.983,1399.558l-42.944-.615s-3.013-21.775,2.681-26.551l15.849.227s9,14.191,8.972,16.235C1210.54,1388.854,1225.818,1393.163,1225.983,1399.558Z" transform="translate(-1182.033 -1361.911)"/><path class="p" d="M1226.064,1408.533s4.233,2.288-.055,3.844c-6.921,2.513-42.522-.2-42.522-.2s-3.166-1.953-.368-4.263Z" transform="translate(-1181.964 -1370.776)"/></g><path class="n" d="M1250.7,1091.773l-23.669,209.555h-18.474s3.719-113.822-2.309-146.63c-3.443-18.742-14.432-37.524,5.2-62.924Z" transform="translate(-1180.216 -862.366)"/><path d="M1261.555,922.515s18.135,46.822-16.118,44.28c0,0-36.972,27.483-50.751-29.356,0,0-20.432-15.457-15.65-45.518.427-2.686-5.836-17.222-1.279-28.87,2.474-6.322.71-11.238,10.3-19.646,0,0,6.586-9.713,17.3-12.859,0,0,11.758-4.171,21.916,10.075,0,0,15.693,12.464,17.732,22.207,0,0,3.228,9.045-1.363,16.307,0,0-4.275,21.627,8.061,25.647,0,0,20.745,7.371,25.845,24.054,0,0,2.49,7.76-1.8,2.008s-10.36-10.02-14.534-8.4" transform="translate(-1174.233 -797.041)"/><path class="a" d="M1317.109,1029.946l39.462,17.306,11.167,6.73s4.552,3.523,13.326,1.543c0,0,2.983-.51-6.436-3.762,0,0,15.107,2.484,15.4-.094,0,0,3.348-1.57-12.672-3.122,0,0,13-.571,12.669-3.423s-.039-.258-.039-.258,1.043-1.8-14.358-.013c0,0-5.656-1.084-3.216-3.412s8.654,1.363,8.654,1.363,4.058.644,2.083-2.589l-7.789-4.663-13.792,2.645-32.331-30.1Z" transform="translate(-1209.421 -841.487)"/><path class="q" d="M1213.479,903.5l-2.609,11.816s20.742,3.64,21.909,5.459l-.407-11.939S1226.71,911.316,1213.479,903.5Z" transform="translate(-1182.912 -815.387)"/><path class="q" d="M1206.416,876.414c-13.324-16.768,11.875-39.667,26.511-22.882,2.4,2.756,5.822,11.858,8.562,15.572,1.177,1.6,1.543,3.888-2.409,4.414,0,0,5.448,11.842-4.076,18.325-8.932,6.081-12.411,5.6-24.338-1.38,0,0,1.016-3.219-2.578-6.82,0,0-8.828-1.366-7.589-7.039S1206.416,876.414,1206.416,876.414Z" transform="translate(-1180.295 -801.456)"/><path class="f" d="M1213.516,904.693s6.006,5.486,18.245,5.289c0,0-11.627,4.682-19.96,2.471Z" transform="translate(-1183.145 -815.685)"/><path class="r" d="M1203.673,918.856s-23.808,13-16.6,56.173c0,0,6.424,42.188-5.476,89.279,0,0-.6,9.113,8.357,8.3,0,0,42.549,8.72,55.794-19.125a227.468,227.468,0,0,0-7.907-38.936s-3.459-14.854,3.418-23.058c0,0,23.44,27.074,48.2,19.538,0,0-2.262-22.451,4.4-28.622,0,0-2.778-3.738-12.564-3.616l-22.352-20.649s-22.882-28.57-30.514-32.779C1228.432,925.356,1220.235,919.992,1203.673,918.856Z" transform="translate(-1175.607 -819.219)"/><path class="s" d="M1245.543,890.449s2.478,4.05,6.02.18" transform="translate(-1191.564 -812.131)"/><circle class="t" cx="1.821" cy="1.821" r="1.821" transform="translate(47.344 63.625)"/><path class="t" d="M1234.7,866.346a7.974,7.974,0,0,1,2.787-.606s.927-.7-.238-1.348a4.253,4.253,0,0,0-2.97,1.268S1234.075,866.572,1234.7,866.346Z" transform="translate(-1188.745 -805.629)"/><path d="M1224.032,846.4s2.8,7.274-15.609,41.781c-13.228,24.791-17.033-10.288-17.033-10.288l3.73-25.539,21.58-13.845Z" transform="translate(-1178.052 -799.169)"/><g transform="translate(26.114 438.176)"><rect class="a" width="10.482" height="15.85" transform="translate(3.686 10.48) rotate(-89.181)"/><path class="o" d="M1252.432,1411.084l-42.944-.614s-3.012-21.776,2.681-26.552l15.849.227s9,14.191,8.972,16.236C1236.989,1400.381,1252.268,1404.691,1252.432,1411.084Z" transform="translate(-1208.483 -1373.438)"/><path class="p" d="M1252.514,1420.06s4.233,2.287-.055,3.845c-6.921,2.512-42.522-.2-42.522-.2s-3.166-1.953-.368-4.263Z" transform="translate(-1208.414 -1382.303)"/></g><path class="a" d="M1320.607,1033.085l48.241,4.631,14.262,3.249s6.073,2.149,14.858-2.985c0,0,3.04-1.574-8.182-1.749,0,0,17.088-2.607,16.542-5.434,0,0,3.081-2.819-14.679,1.089,0,0,13.8-5.108,12.5-8.008s-.129-.259-.129-.259.526-2.262-15.458,4.96c0,0-6.45.812-4.6-2.494s9.769-1.557,9.769-1.557,4.582-.724,1.38-3.46l-9.937-2.233-13.964,7.574-44.827-20.63Z" transform="translate(-1210.294 -840.909)"/><path class="u" d="M1199.162,922.55s-23.029,12.513-15.472,55.145c0,0,1.879,38.911-9.132,85.165,0,0-6.366,11.942,14.025,13.22,14.793.927,42.623,5.595,55.18-21.679a164.117,164.117,0,0,0-6.988-35.838s-4.1-18.156,2.5-26.156c0,0,24.231,27.42,48.2,19.538,0,0-1.333-21.15,2.889-26.988a34.857,34.857,0,0,0-12.844-2.335l-24.032-20.685s-22.64-28.433-30.125-32.674C1223.357,929.261,1215.307,923.874,1199.162,922.55Z" transform="translate(-1173.617 -820.141)"/></g></g><g transform="translate(533.316 3950.982) rotate(-23)"><path class="v" d="M0,68.453S56.3,17.835,64.061,0" transform="translate(0 2.438)"/><ellipse class="j" cx="2.866" cy="2.866" rx="2.866" ry="2.866" transform="translate(61.356 0)"/><ellipse class="j" cx="2.4" cy="2.4" rx="2.4" ry="2.4" transform="translate(69.529 10.281)"/><ellipse class="j" cx="2.526" cy="2.526" rx="2.526" ry="2.526" transform="translate(44.874 2.522)"/><path class="w" d="M0,0S5.884,12.167.882,21.072" transform="translate(46.484 3.368)"/><ellipse class="j" cx="2.526" cy="2.526" rx="2.526" ry="2.526" transform="translate(34.134 13.736)"/><path class="w" d="M0,0S5.884,12.168.882,21.072" transform="translate(35.743 14.582)"/><ellipse class="j" cx="2.526" cy="2.526" rx="2.526" ry="2.526" transform="translate(24.048 23.903)"/><path class="w" d="M0,0S5.884,12.167.882,21.074" transform="translate(25.658 24.749)"/><ellipse class="j" cx="2.526" cy="2.526" rx="2.526" ry="2.526" transform="translate(13.403 34.14)"/><path class="w" d="M0,0S5.885,12.17.882,21.074" transform="translate(15.013 34.985)"/><ellipse class="j" cx="2.526" cy="2.526" rx="2.526" ry="2.526" transform="translate(2.178 44.627)"/><path class="w" d="M0,0S5.884,12.17.882,21.074" transform="translate(3.789 45.473)"/><ellipse class="j" cx="2.39" cy="2.39" rx="2.39" ry="2.39" transform="translate(59.682 20.573)"/><path class="w" d="M20.3,0S8.641,1.906,0,7.03" transform="translate(51.634 12.681)"/><path class="w" d="M20.3,0S8.641,1.9,0,7.03" transform="translate(42.197 23.124)"/><ellipse class="j" cx="2.39" cy="2.39" rx="2.39" ry="2.39" transform="translate(49.212 31.173)"/><path class="w" d="M20.3,0S8.643,1.9,0,7.03" transform="translate(31.726 33.723)"/><ellipse class="j" cx="2.39" cy="2.39" rx="2.39" ry="2.39" transform="translate(39.229 40.983)"/><path class="w" d="M20.293,0S8.641,1.9,0,7.03" transform="translate(21.745 43.533)"/><ellipse class="j" cx="2.39" cy="2.39" rx="2.39" ry="2.39" transform="translate(26.73 52.802)"/><path class="w" d="M20.3,0S8.643,1.9,0,7.029" transform="translate(9.244 55.352)"/></g><g transform="translate(548.364 4264.305) rotate(56)"><path class="v" d="M51.685,104.242S17.356,16.777,0,0" transform="translate(7.35 7.665)"/><ellipse class="j" cx="3.557" cy="3.557" rx="3.557" ry="3.557" transform="translate(4.362 4.109)"/><ellipse class="j" cx="2.979" cy="2.979" rx="2.979" ry="2.979" transform="translate(19.702 0)"/><ellipse class="j" cx="3.135" cy="3.135" rx="3.135" ry="3.135" transform="translate(0 25.031)"/><path class="w" d="M0,.09S16.7-1.453,24.876,8.237" transform="translate(0.784 28.409)"/><ellipse class="j" cx="3.135" cy="3.135" rx="3.135" ry="3.135" transform="translate(8.36 42.394)"/><path class="w" d="M0,.09S16.7-1.453,24.878,8.235" transform="translate(9.142 45.772)"/><ellipse class="j" cx="3.135" cy="3.135" rx="3.135" ry="3.135" transform="translate(15.788 58.54)"/><path class="w" d="M0,.09S16.7-1.453,24.876,8.235" transform="translate(16.572 61.919)"/><ellipse class="j" cx="3.135" cy="3.135" rx="3.135" ry="3.135" transform="translate(23.053 75.367)"/><path class="w" d="M0,.09S16.7-1.452,24.878,8.237" transform="translate(23.836 78.744)"/><ellipse class="j" cx="3.135" cy="3.135" rx="3.135" ry="3.135" transform="translate(30.357 92.976)"/><path class="w" d="M0,.09S16.7-1.455,24.876,8.235" transform="translate(31.141 96.355)"/><ellipse class="j" cx="2.966" cy="2.966" rx="2.966" ry="2.966" transform="translate(27.375 15.944)"/><path class="w" d="M1.492,0S-1.366,14.373.829,26.646" transform="translate(21.19 2.979)"/><path class="w" d="M1.491,0S-1.367,14.373.83,26.649" transform="translate(29.22 18.49)"/><ellipse class="j" cx="2.966" cy="2.966" rx="2.966" ry="2.966" transform="translate(35.139 32.724)"/><path class="w" d="M1.491,0S-1.367,14.373.83,26.646" transform="translate(36.982 35.271)"/><ellipse class="j" cx="2.966" cy="2.966" rx="2.966" ry="2.966" transform="translate(42.196 48.596)"/><path class="w" d="M1.491,0S-1.367,14.373.83,26.646" transform="translate(44.04 51.143)"/><ellipse class="j" cx="2.966" cy="2.966" rx="2.966" ry="2.966" transform="translate(50.493 68.266)"/><path class="w" d="M1.491,0S-1.367,14.373.83,26.646" transform="translate(52.337 70.814)"/></g><g transform="translate(139.775 3891.89) rotate(56)"><path class="v" d="M51.685,104.242S17.356,16.777,0,0" transform="translate(7.35 7.665)"/><ellipse class="j" cx="3.557" cy="3.557" rx="3.557" ry="3.557" transform="translate(4.362 4.109)"/><ellipse class="j" cx="2.979" cy="2.979" rx="2.979" ry="2.979" transform="translate(19.702 0)"/><ellipse class="j" cx="3.135" cy="3.135" rx="3.135" ry="3.135" transform="translate(0 25.031)"/><path class="w" d="M0,.09S16.7-1.453,24.876,8.237" transform="translate(0.784 28.409)"/><ellipse class="j" cx="3.135" cy="3.135" rx="3.135" ry="3.135" transform="translate(8.36 42.394)"/><path class="w" d="M0,.09S16.7-1.453,24.878,8.235" transform="translate(9.142 45.772)"/><ellipse class="j" cx="3.135" cy="3.135" rx="3.135" ry="3.135" transform="translate(15.788 58.54)"/><path class="w" d="M0,.09S16.7-1.453,24.876,8.235" transform="translate(16.572 61.919)"/><ellipse class="j" cx="3.135" cy="3.135" rx="3.135" ry="3.135" transform="translate(23.053 75.367)"/><path class="w" d="M0,.09S16.7-1.452,24.878,8.237" transform="translate(23.836 78.744)"/><ellipse class="j" cx="3.135" cy="3.135" rx="3.135" ry="3.135" transform="translate(30.357 92.976)"/><path class="w" d="M0,.09S16.7-1.455,24.876,8.235" transform="translate(31.141 96.355)"/><ellipse class="j" cx="2.966" cy="2.966" rx="2.966" ry="2.966" transform="translate(27.375 15.944)"/><path class="w" d="M1.492,0S-1.366,14.373.829,26.646" transform="translate(21.19 2.979)"/><path class="w" d="M1.491,0S-1.367,14.373.83,26.649" transform="translate(29.22 18.49)"/><ellipse class="j" cx="2.966" cy="2.966" rx="2.966" ry="2.966" transform="translate(35.139 32.724)"/><path class="w" d="M1.491,0S-1.367,14.373.83,26.646" transform="translate(36.982 35.271)"/><ellipse class="j" cx="2.966" cy="2.966" rx="2.966" ry="2.966" transform="translate(42.196 48.596)"/><path class="w" d="M1.491,0S-1.367,14.373.83,26.646" transform="translate(44.04 51.143)"/><ellipse class="j" cx="2.966" cy="2.966" rx="2.966" ry="2.966" transform="translate(50.493 68.266)"/><path class="w" d="M1.491,0S-1.367,14.373.83,26.646" transform="translate(52.337 70.814)"/></g><path class="j" d="M-609.9,1989l11.346-7.991-7.991,11.346,7.991,11.346-11.346-7.991-11.346,7.991,7.992-11.346-7.992-11.346Z" transform="translate(697.041 2201.765)"/><path class="j" d="M-549.562,1993.487l11.346-7.992-7.992,11.346,7.992,11.346-11.346-7.992-11.346,7.992,7.992-11.346-7.992-11.346Z" transform="translate(1122.526 2185.933)"/></g></svg>