<svg xmlns="http://www.w3.org/2000/svg" width="72.598" height="102.508" viewBox="0 0 72.598 102.508"><defs><style>.a{fill:#5faf42;}</style></defs><g transform="translate(-13332.191 -7262.064)"><path class="a" d="M13402.436,7301.553h-67.508a2.336,2.336,0,0,0-2.329,2.526l5.355,66.146a15.6,15.6,0,0,0,15.552,14.343h29.816a15.6,15.6,0,0,0,15.539-14.218l5.9-66.252A2.338,2.338,0,0,0,13402.436,7301.553Zm-9.153,63.752a12.718,12.718,0,0,1-12.668,11.589h-24.3a12.716,12.716,0,0,1-12.675-11.691l-4.366-53.917a1.905,1.905,0,0,1,1.9-2.059h55.026a1.905,1.905,0,0,1,1.9,2.074Z" transform="translate(-0.202 -19.996)"/><g transform="translate(13332.192 7269.458)"><path class="a" d="M13399.747,7277.043h-23.863a7.394,7.394,0,1,1-14.788,0h-23.862a5.041,5.041,0,0,0,0,10.083h62.514a5.041,5.041,0,0,0,0-10.083Z" transform="translate(-13332.192 -7277.043)"/></g><path class="a" d="M13398.139,7262.063a7.394,7.394,0,1,0,7.394,7.395A7.394,7.394,0,0,0,13398.139,7262.063Zm0,12.477a5.083,5.083,0,1,1,5.083-5.083A5.083,5.083,0,0,1,13398.139,7274.541Z" transform="translate(-29.649 0)"/></g></svg>