<svg xmlns="http://www.w3.org/2000/svg" width="433" height="360.079" viewBox="0 0 433 360.079">
  <g id="Shop_Illustration" data-name="Shop Illustration" transform="translate(10457.2 -9092.208)">
    <ellipse id="Ellipse_27" data-name="Ellipse 27" cx="216.5" cy="14" rx="216.5" ry="14" transform="translate(-10457.2 9424.287)" fill="#b2b421"/>
    <g id="Group_4162" data-name="Group 4162" transform="translate(-10407.966 9092.208)">
      <g id="Group_570" data-name="Group 570" transform="translate(265.133 317.284)">
        <rect id="Rectangle_13" data-name="Rectangle 13" width="7.027" height="10.627" transform="translate(2.471 7.027) rotate(-89.181)" fill="#f7b09e"/>
        <path id="Path_620" data-name="Path 620" d="M8515.482,5952.781l-28.793-.412s-2.02-14.6,1.8-17.8l10.627.152s6.035,9.515,6.014,10.885C8505.127,5945.6,8515.369,5948.493,8515.482,5952.781Z" transform="translate(-8486.016 -5927.54)" fill="#cd5016"/>
        <path id="Path_621" data-name="Path 621" d="M8514.927,6036.922s2.837,1.533-.037,2.578c-4.641,1.685-28.508-.131-28.508-.131s-2.122-1.31-.249-2.857Z" transform="translate(-8485.36 -6011.608)" fill="#f98658"/>
      </g>
      <g id="Group_571" data-name="Group 571" transform="translate(227.235 314.053)">
        <rect id="Rectangle_14" data-name="Rectangle 14" width="7.824" height="11.831" transform="translate(2.751 7.823) rotate(-89.181)" fill="#f7b09e"/>
        <path id="Path_622" data-name="Path 622" d="M8302.771,5940.962l-32.056-.459s-2.248-16.253,2-19.819l11.831.169s6.718,10.594,6.7,12.118C8291.243,5932.971,8302.647,5936.19,8302.771,5940.962Z" transform="translate(-8269.966 -5912.861)" fill="#cd5016"/>
        <path id="Path_623" data-name="Path 623" d="M8302.151,6034.643s3.161,1.707-.041,2.87c-5.166,1.875-31.74-.146-31.74-.146s-2.362-1.458-.274-3.182Z" transform="translate(-8269.234 -6006.458)" fill="#f98658"/>
      </g>
      <g id="Group_573" data-name="Group 573" transform="translate(7.749 169.843)">
        <path id="Path_624" data-name="Path 624" d="M7017.972,5713s29.625,11.772,44.858-1.659c0,0-1.537,43.8-25.4,59.911C7037.431,5771.251,7014.024,5754.169,7017.972,5713Z" transform="translate(-7017.523 -5596.016)" fill="#8c7a6c"/>
        <path id="Path_625" data-name="Path 625" d="M7136.071,5249.826l-3.459,31.651-.831-31.828,4.788-116.585,4.292.177Z" transform="translate(-7111.747 -5119.142)" fill="#a75c36"/>
        <g id="Group_572" data-name="Group 572" transform="translate(15.492 0)">
          <path id="Path_626" data-name="Path 626" d="M7117.056,5091.016a11.679,11.679,0,0,1-11.177-12.135l4.407.18a7.179,7.179,0,0,0,6.951,7.548c4.985.2,7.432-4.178,7.547-6.951l4.406.181A11.679,11.679,0,0,1,7117.056,5091.016Z" transform="translate(-7105.87 -5074.459)" fill="#753e01"/>
          <rect id="Rectangle_15" data-name="Rectangle 15" width="23.33" height="4.426" transform="matrix(0.999, 0.041, -0.041, 0.999, 0.192, 0)" fill="#753e01"/>
        </g>
        <path id="Path_627" data-name="Path 627" d="M7017.972,5713s29.625,11.772,44.858-1.659c0,0-1.537,43.8-25.4,59.911C7037.431,5771.251,7014.024,5754.169,7017.972,5713Z" transform="translate(-7017.523 -5596.016)" fill="#9a857c" opacity="0.5"/>
      </g>
      <g id="Group_574" data-name="Group 574" transform="translate(0 129.267)">
        <path id="Path_628" data-name="Path 628" d="M7183.906,4842.457s-24.952,9.253-50.564,16.891c0,0,.357,13.378-6.292,19.784,0,0-2.435,3.964-3.267-.371-.354-1.863,1.125-6.182,1.8-7.371,1.52-2.656-1.637-3.768-3.274-1.476s-4.057,7.8-3.478,12.415-1.727,7.517-5.69,3.624-4.192-3.507-4.452-6.888l-2.432-10.1a13.592,13.592,0,0,1,6.242-8.887l12.828-12.682s12.678-11.782,22.168-15.3c0,0,16.012-8.786,35.047-9.835" transform="translate(-7082.953 -4822.265)" fill="#f7b09e"/>
        <path id="Path_629" data-name="Path 629" d="M6973.343,5091.432" transform="translate(-6973.343 -5044.234)" fill="#f7b09e"/>
      </g>
      <path id="Path_630" data-name="Path 630" d="M7875.532,5875.789l-.8,8.823s-5.669,8.979-17.687,4.556c0,0,5.256-8.03-.426-8.729l1.078-6.263Z" transform="translate(-7701.737 -5560.454)" fill="#f7b09e"/>
      <path id="Path_631" data-name="Path 631" d="M7738.181,5898.426s4.713-12.147-1.971-8.953c0,0,.258,14.251-11.891,17.415s-13.859,8.337-14.041,10.359c0,0,20.071,2.638,49.793-4.7,0,0-3.035-22.217-7.416-16.267C7750.489,5899.229,7747.8,5901.755,7738.181,5898.426Z" transform="translate(-7581.054 -5572.628)" fill="#cd5016"/>
      <path id="Path_633" data-name="Path 633" d="M7560.082,5861.848v8.861s-3.691,9.044-16.058,5.723c0,0,3.137-9.416-2.585-9.6l.737-4.986Z" transform="translate(-7441.822 -5550.289)" fill="#f7b09e"/>
      <path id="Path_634" data-name="Path 634" d="M7414.765,5874.345s3.6-12.521-2.769-8.737c0,0-1.846,10.127-13.66,14.373s-13.843,7.383-13.843,9.414c0,0,41.347.923,53.345-2.952,0,0-5.023-21.854-8.851-15.535C7427.095,5874.037,7424.641,5876.8,7414.765,5874.345Z" transform="translate(-7312.397 -5552.801)" fill="#cd5016"/>
      <path id="Path_636" data-name="Path 636" d="M7602.794,5110.98l3.041,136.705h-24.921l-16.792-80.542-14.258,80.542H7524.43l.833-136.212Z" transform="translate(-7427.795 -4931.087)" fill="#6b5343"/>
      <line id="Line_1" data-name="Line 1" x1="1.101" y1="32.042" transform="translate(135.225 205.485)" fill="none"/>
      <path id="Path_637" data-name="Path 637" d="M7709.087,5272.946a17.916,17.916,0,0,1-8.179-16.021" transform="translate(-7573.313 -5051.439)" fill="none"/>
      <path id="Path_638" data-name="Path 638" d="M7437.551,4490.65c11.9-45.532,34.038-33.562,34.038-33.562-.068.245-.136.479-.2.721h.2l16.967,32.508,20.088-32.508h.609l-.2-.721s30.323-9.534,38.842,36.751c2.169,11.781,6.3,52.115-7.237,47.368,0,0-.94-.691-1.9-1.256v17.386a23.972,23.972,0,0,1-23.972,23.972h-49.6c-13.6,0-17.064-7.9-17.064-21.506l-.756-35.171c-1.032.9-10.832-1.819-10.832-1.819C7432.953,4507.416,7435.517,4498.433,7437.551,4490.65Z" transform="translate(-7353.836 -4390.684)" fill="#8cc63f"/>
      <path id="Path_639" data-name="Path 639" d="M7670.867,4505.427l-22.66,35.93-20.533-35.93" transform="translate(-7512.934 -4431.718)" fill="none"/>
      <path id="Path_640" data-name="Path 640" d="M8019.35,4895.689s-9.04,1.528-10.523-5.821" transform="translate(-7827.253 -4748.747)" fill="none"/>
      <path id="Path_641" data-name="Path 641" d="M7649.411,4226.768s-5.045-2.216-3.444,7.014,3.444,7.261,3.444,7.261Z" transform="translate(-7527.764 -4201.729)" fill="#db8572"/>
      <path id="Path_642" data-name="Path 642" d="M7641.984,4215.127l2.269-27.613.614-14.889s2.013-2.6,1.52-10.717c0,0,14,8.1,21.257-.88,0,0,5.525,5.2,12.419,12.951l.886,41.187s-16.576,23.987-20.7,32.51C7660.251,4247.677,7647.144,4228.11,7641.984,4215.127Z" transform="translate(-7524.736 -4147.71)" fill="#f7b09e"/>
      <path id="Path_643" data-name="Path 643" d="M7763.847,4216.745a21.148,21.148,0,0,0-7.384-1.577s-2.461-1.846.614-3.569c0,0,5.168,0,7.877,3.323C7764.955,4214.922,7765.493,4217.336,7763.847,4216.745Z" transform="translate(-7618.373 -4189.414)" fill="#2b1100"/>
      <path id="Path_644" data-name="Path 644" d="M7662.742,4216.745a21.128,21.128,0,0,1,7.384-1.577s2.459-1.846-.616-3.569c0,0-5.169,0-7.876,3.323C7661.634,4214.922,7661.095,4217.336,7662.742,4216.745Z" transform="translate(-7540.872 -4189.414)" fill="#2b1100"/>
      <path id="Path_645" data-name="Path 645" d="M7725.446,4231.237v14.714s.615,2.514,3.322.249" transform="translate(-7593.562 -4205.607)" fill="none" stroke="#db8572" stroke-miterlimit="10" stroke-width="1"/>
      <path id="Path_646" data-name="Path 646" d="M7719.391,4353.641s-3.445,2.6-6.646-1.437" transform="translate(-7583.092 -4305.363)" fill="none" stroke="#db8572" stroke-linecap="round" stroke-linejoin="round" stroke-width="1"/>
      <ellipse id="Ellipse_1" data-name="Ellipse 1" cx="1.504" cy="1.504" rx="1.504" ry="1.504" transform="translate(139.897 29.731)" fill="#2b1100"/>
      <ellipse id="Ellipse_2" data-name="Ellipse 2" cx="1.504" cy="1.504" rx="1.504" ry="1.504" transform="translate(123.928 29.731)" fill="#2b1100"/>
      <path id="Path_647" data-name="Path 647" d="M7646.633,4109.991s-5.392-6.57-.359-15.868c0,0,2.472-9.047,15.436-9.047,11.3,0,14.235,1.268,17.249,3.77,3.946,3.274,6.2,12.888,5.6,20.3-3.175,39.743-2.355,6.975-5.6,1.563,0,0-6.784-4.626-8.854-10.656,0,0-11.9,7.564-21.876,0C7648.228,4100.049,7649.322,4109.682,7646.633,4109.991Z" transform="translate(-7526.504 -4085.076)" fill="#2b1100"/>
      <path id="Path_648" data-name="Path 648" d="M7839.351,4226.768s5.046-2.216,3.446,7.014-3.446,7.261-3.446,7.261Z" transform="translate(-7687.495 -4201.729)" fill="#db8572"/>
      <path id="Path_649" data-name="Path 649" d="M7966.571,4791.089s-15.78,6.528-21.126-11.952l18.167-19.8,6.286,19.978Z" transform="translate(-7774.984 -4641.104)" fill="#015472"/>
      <path id="Path_650" data-name="Path 650" d="M7645.556,4344.167l5.415,8.957a3.786,3.786,0,0,0,2.75,1.184h12.351a4,4,0,0,0,2.029-.552l6.736-3.949s-7.87,15.178-30.71,12.763Z" transform="translate(-7526.502 -4298.736)" fill="#db8572"/>
      <path id="Path_651" data-name="Path 651" d="M8307.423,5072.812s9.595,48.7,9.65,65.174c.066,19.608-2.325,56.976-6.812,79.05h-14.367l-11.862-116.52-5.613,116.52-22.68-.615s-.008-47.68.7-74.347c.335-12.618-3.357-27.7-.116-67.617Z" transform="translate(-8030.246 -4899.611)" fill="#6b5343"/>
      <path id="Path_652" data-name="Path 652" d="M8700.335,4973.413l14.263,22.46,5.153,6.186s2.577,2.447,2.188,7.988c0,0-.031,1.868-2.9-3.577,0,0,2.931,8.988,1.386,9.407,0,0-.646,2.189-3.095-7.441,0,0,.872,7.989-.9,8.052s-.161,0-.161,0-1,.806-1.351-8.76c0,0-1.2-3.35-2.388-1.643s1.646,5.154,1.646,5.154.771,2.415-1.387,1.512l-3.573-4.315.32-8.665-21.4-16.91Z" transform="translate(-8387.447 -4817.642)" fill="#f7b09e"/>
      <path id="Path_653" data-name="Path 653" d="M8242.922,4173.53s13.605,2.93,20.254-5.514a10.708,10.708,0,0,0,6.166,4.042c.4.1,1.412-.149,1.254.267-9.643,25.286-16.895,33.21-25.9,40.528A30.862,30.862,0,0,0,8276.234,4198c15.932-25.747-1.393-48.075-10.049-50.832s-32.078-5.519-39.652,12.4-4.637,33.259-2.008,38.429,11.6,12.922,17.469,13.784l10.115,3.992C8249.945,4205.438,8242.922,4173.53,8242.922,4173.53Z" transform="translate(-8002.795 -4134.62)" fill="#2b1100"/>
      <path id="Path_654" data-name="Path 654" d="M8298.855,4244.259s12.031-6.758,12.2,16.089a54.511,54.511,0,0,1-.682,8.01c-1.395,6.705-9.424,20.949-18.223,20.479-2.842-.151-15.459-2.318-16.49-19.326,0,0-10.555,1.506-7.223-10.193.342-1.2,6.189-4.881,5.807,1.561,0,0,2.447-15.975,9.4-18.553C8283.652,4242.326,8290.738,4237.817,8298.855,4244.259Z" transform="translate(-8040.805 -4213.487)" fill="#f7b09e"/>
      <path id="Path_655" data-name="Path 655" d="M8472.957,4336.593a6.239,6.239,0,0,0-2.18-.465s-.724-.544.183-1.053a3.317,3.317,0,0,1,2.322.98S8473.441,4336.768,8472.957,4336.593Z" transform="translate(-8207.975 -4291.238)" fill="#0c060e"/>
      <path id="Path_656" data-name="Path 656" d="M8425.018,4356.827v10.9s-.58,1.862-3.139.185" transform="translate(-8167.879 -4308.302)" fill="none" stroke="#db8572" stroke-miterlimit="10" stroke-width="1"/>
      <path id="Path_657" data-name="Path 657" d="M8418.893,4447.886s3.258,2.454,6.281-1.358" transform="translate(-8165.414 -4383.146)" fill="none" stroke="#db8572" stroke-linecap="round" stroke-linejoin="round" stroke-width="1"/>
      <circle id="Ellipse_3" data-name="Ellipse 3" cx="1.422" cy="1.422" r="1.422" transform="translate(245.45 47.651)" fill="#0c060e"/>
      <circle id="Ellipse_4" data-name="Ellipse 4" cx="1.422" cy="1.422" r="1.422" transform="translate(261.967 47.651)" fill="#0c060e"/>
      <path id="Path_658" data-name="Path 658" d="M8373.565,4335.384a6.228,6.228,0,0,1,2.179-.464s.726-.545-.181-1.053a3.323,3.323,0,0,0-2.324.979S8373.08,4335.559,8373.565,4335.384Z" transform="translate(-8127.745 -4290.241)" fill="#0c060e"/>
      <circle id="Ellipse_5" data-name="Ellipse 5" cx="9.378" cy="9.378" r="9.378" transform="translate(230.857 71.517)" fill="#2b1100"/>
      <path id="Path_659" data-name="Path 659" d="M8249.313,4267.2s-18.162-11.084-9.378-31.61c0,0,14.341-5.379,22.232-12.662,0,0,7.892,9.712,9.953,9.733l4-7.574-25.423-9.368-12.9,3.237-16.571,24.351,15.511,21.124Z" transform="translate(-8002.408 -4192.809)" fill="#2b1100"/>
      <path id="Path_660" data-name="Path 660" d="M8346.49,4508.548s-.718,12.7.484,14.07l2.037.1s9.9,15.809-8.174,16.56c-4.964.206-15.787-1.8-12.18-16.226l7.236-.06,1.415-14.316S8342.207,4510.112,8346.49,4508.548Z" transform="translate(-8090.408 -4434.292)" fill="#f7b09e"/>
      <path id="Path_661" data-name="Path 661" d="M8215.952,4595.8s8.249-6.977,23.713-6.119c0,0-1.23,16.269,8.881,15.024,0,0,10.178,1.506,8.117-15.33l8.5.9s4.512-.514,10.95,9.148,23.321,40.628,23.321,40.628l11.511,16.663-12.2,9.448s-4.509-2.488-9.534-14.86a13.163,13.163,0,0,0-2.282-3.7l-21-24.042s-2.405-3.091-2.405.859c0,1.363-.163,4.052-.378,6.992a50.8,50.8,0,0,0,3.931,23.624l8.15,19.11c1.75,4.1-.8,10.447-5.26,10.447h-36.684c-4.447,0-9.254-4.365-9.043-8.8.221-4.6-.659-12.529-.339-17.883.48-8.074,2.189-18.109,1.564-26.173l-.595-7.656s.171-4.122-2.407-.515" transform="translate(-7998.059 -4500.949)" fill="#8cc63f"/>
      <circle id="Ellipse_6" data-name="Ellipse 6" cx="9.378" cy="9.378" r="9.378" transform="translate(226.882 83.269)" fill="#2b1100"/>
      <path id="Path_662" data-name="Path 662" d="M8395.84,4507.228s-4.486,1-8.061-.281a12.112,12.112,0,0,0,7.94,2.952Z" transform="translate(-8139.756 -4432.971)" fill="#db8572"/>
      <path id="Path_663" data-name="Path 663" d="M7506.713,4709.043s5.688-19.191,4.5-29.751" transform="translate(-7413.187 -4575.095)" fill="none"/>
      <path id="Path_664" data-name="Path 664" d="M8277.392,4343.887s-5.977,6.6,0,12.392Z" transform="translate(-8046.533 -4298.504)" fill="#f7b09e"/>
      <g id="Group_576" data-name="Group 576" transform="translate(287.851 95.406)">
        <g id="Group_575" data-name="Group 575" transform="translate(0 0)">
          <path id="Path_665" data-name="Path 665" d="M8637.365,4653.812s-3.761,4.512-11.071,1.919-8.565-4.445-9.526-7.851-4.872-9.183,2.743-15.522,17.068-1.291,17.068-1.291S8651.736,4642.514,8637.365,4653.812Z" transform="translate(-8614.909 -4629.161)" fill="#f20c43"/>
          <path id="Path_666" data-name="Path 666" d="M8684.943,4685.681s-3.761-5.442-8.055-2.98.566-1.015.566-1.015,2.069,4,1.959,6.591c0,0-3.984-.732-4.676-3.818,0,0-2.039,5.961-3.655,6.139,0,0-1.963-4,1.5-6.6,0,0-4.614-.43-5.716-3,0,0,6.248-1.742,8.585-1.765,0,0-.454-5.219,2.673-7.669a23.619,23.619,0,0,1,.289,7.578s7.3-1.388,8.082-.654c0,0-.493,2.982-5.392,3.168a18.173,18.173,0,0,1,4.535,2.9Z" transform="translate(-8657.756 -4664.126)" fill="#6a7939"/>
        </g>
      </g>
      <g id="Group_578" data-name="Group 578" transform="translate(292.267 113.624)">
        <g id="Group_577" data-name="Group 577" transform="translate(0 0)">
          <path id="Path_667" data-name="Path 667" d="M8657.52,4752.184s-2.919,3.5-8.593,1.491-6.649-3.451-7.4-6.1-3.78-7.127,2.131-12.05,13.248-1,13.248-1S8668.677,4743.415,8657.52,4752.184Z" transform="translate(-8640.089 -4733.05)" fill="#ddbc19"/>
          <path id="Path_668" data-name="Path 668" d="M8694.449,4776.922s-2.916-4.223-6.252-2.312.439-.788.439-.788,1.605,3.109,1.521,5.116c0,0-3.094-.568-3.627-2.963,0,0-1.584,4.628-2.84,4.766,0,0-1.523-3.1,1.162-5.127,0,0-3.582-.335-4.436-2.33a42.872,42.872,0,0,1,6.664-1.369s-.354-4.05,2.074-5.952a18.287,18.287,0,0,1,.221,5.882s5.67-1.077,6.275-.507c0,0-.381,2.313-4.182,2.459a14.133,14.133,0,0,1,3.52,2.249Z" transform="translate(-8673.345 -4760.191)" fill="#6a7939"/>
        </g>
        <path id="Path_669" data-name="Path 669" d="M8760.44,4824.342s4.562.289,5.09,8.927c0,0,2.708-3.7-4.549-9.8" transform="translate(-8739.337 -4807.61)" fill="#8a8b4a"/>
      </g>
      <g id="Group_580" data-name="Group 580" transform="translate(274.506 109.4)">
        <g id="Group_579" data-name="Group 579" transform="translate(0 0)">
          <path id="Path_670" data-name="Path 670" d="M8554.453,4726.141s-2.623,3.144-7.717,1.338-5.971-3.1-6.641-5.472-3.4-6.4,1.913-10.819,11.9-.9,11.9-.9S8564.47,4718.267,8554.453,4726.141Z" transform="translate(-8538.801 -4708.961)" fill="#c95c45"/>
          <path id="Path_671" data-name="Path 671" d="M8587.61,4748.352s-2.62-3.791-5.613-2.075.395-.708.395-.708,1.443,2.791,1.368,4.595c0,0-2.779-.51-3.261-2.662,0,0-1.421,4.155-2.548,4.279a3.762,3.762,0,0,1,1.046-4.6s-3.218-.3-3.986-2.091a38.308,38.308,0,0,1,5.987-1.229s-.321-3.637,1.858-5.345a16.461,16.461,0,0,1,.2,5.282s5.087-.967,5.632-.456c0,0-.341,2.078-3.755,2.208a12.7,12.7,0,0,1,3.158,2.02Z" transform="translate(-8568.66 -4733.331)" fill="#6a7939"/>
        </g>
        <path id="Path_672" data-name="Path 672" d="M8646.862,4790.929s4.094.259,4.567,8.015c0,0,2.433-3.323-4.083-8.8" transform="translate(-8627.914 -4775.905)" fill="#8a8b4a"/>
      </g>
      <g id="Group_582" data-name="Group 582" transform="translate(247.695 109.231)">
        <g id="Group_581" data-name="Group 581" transform="translate(0 0)">
          <path id="Path_673" data-name="Path 673" d="M8408.366,4732.655s-3.762,4.51-11.07,1.918-8.566-4.445-9.529-7.85-4.87-9.184,2.746-15.523,17.067-1.291,17.067-1.291S8422.737,4721.358,8408.366,4732.655Z" transform="translate(-8385.91 -4708.004)" fill="#f20c43"/>
          <path id="Path_674" data-name="Path 674" d="M8455.943,4764.522s-3.759-5.441-8.055-2.979.567-1.015.567-1.015,2.068,4,1.961,6.591c0,0-3.987-.732-4.677-3.816,0,0-2.039,5.961-3.656,6.138,0,0-1.963-4,1.5-6.6,0,0-4.611-.43-5.716-3,0,0,6.247-1.74,8.586-1.763,0,0-.455-5.219,2.671-7.67a23.65,23.65,0,0,1,.289,7.577s7.3-1.386,8.082-.653c0,0-.492,2.982-5.388,3.168a18.237,18.237,0,0,1,4.532,2.9Z" transform="translate(-8428.757 -4742.969)" fill="#6a7939"/>
        </g>
        <path id="Path_675" data-name="Path 675" d="M8540.958,4825.61s5.876.373,6.556,11.5c0,0,3.485-4.768-5.86-12.631" transform="translate(-8513.77 -4804.057)" fill="#8a8b4a"/>
      </g>
      <g id="Group_584" data-name="Group 584" transform="translate(269.55 95.915)">
        <g id="Group_583" data-name="Group 583">
          <path id="Path_676" data-name="Path 676" d="M8526.906,4650.025s-2.741,3.288-8.063,1.4-6.245-3.237-6.943-5.719-3.548-6.69,2-11.309,12.435-.941,12.435-.941S8537.378,4641.793,8526.906,4650.025Z" transform="translate(-8510.547 -4632.065)" fill="#ddbc19"/>
          <path id="Path_677" data-name="Path 677" d="M8561.573,4673.246s-2.738-3.964-5.871-2.171.415-.739.415-.739,1.507,2.918,1.427,4.8c0,0-2.9-.533-3.406-2.782,0,0-1.485,4.343-2.664,4.474a3.939,3.939,0,0,1,1.09-4.812s-3.358-.313-4.163-2.187a40.288,40.288,0,0,1,6.259-1.285s-.334-3.8,1.943-5.588a17.176,17.176,0,0,1,.211,5.521s5.319-1.011,5.889-.475c0,0-.359,2.171-3.926,2.307a13.278,13.278,0,0,1,3.3,2.111Z" transform="translate(-8541.762 -4657.541)" fill="#6a7939"/>
        </g>
      </g>
      <g id="Group_586" data-name="Group 586" transform="translate(277.965 80.606)">
        <g id="Group_585" data-name="Group 585" transform="translate(0)">
          <path id="Path_678" data-name="Path 678" d="M8574.894,4562.713s-2.739,3.286-8.064,1.4-6.242-3.238-6.941-5.72-3.55-6.69,2-11.31,12.437-.939,12.437-.939S8585.366,4554.482,8574.894,4562.713Z" transform="translate(-8558.533 -4544.753)" fill="#c95c45"/>
          <path id="Path_679" data-name="Path 679" d="M8609.561,4585.932s-2.739-3.964-5.87-2.17.412-.739.412-.739,1.512,2.917,1.431,4.8c0,0-2.907-.534-3.407-2.781,0,0-1.483,4.342-2.665,4.472a3.933,3.933,0,0,1,1.092-4.812s-3.36-.313-4.165-2.188a40.07,40.07,0,0,1,6.259-1.284s-.334-3.8,1.943-5.588a17.157,17.157,0,0,1,.21,5.521s5.32-1.01,5.889-.476c0,0-.357,2.172-3.924,2.309a13.248,13.248,0,0,1,3.3,2.11Z" transform="translate(-8589.749 -4570.228)" fill="#6a7939"/>
        </g>
      </g>
      <g id="Group_588" data-name="Group 588" transform="translate(307.873 105.004)">
        <g id="Group_587" data-name="Group 587" transform="translate(0)">
          <path id="Path_680" data-name="Path 680" d="M8702.039,4572.15s-2.738,3.288-8.066,1.4-6.242-3.237-6.942-5.72-3.55-6.691,2-11.31,12.436-.941,12.436-.941S8712.512,4563.919,8702.039,4572.15Z" transform="translate(-8685.677 -4554.189)" fill="#6a751f"/>
          <path id="Path_681" data-name="Path 681" d="M8736.7,4595.37s-2.736-3.963-5.866-2.169.412-.741.412-.741,1.51,2.917,1.431,4.8c0,0-2.906-.534-3.409-2.783,0,0-1.485,4.344-2.665,4.474a3.936,3.936,0,0,1,1.091-4.812s-3.359-.312-4.163-2.188a40.056,40.056,0,0,1,6.259-1.284s-.334-3.8,1.943-5.587a17.153,17.153,0,0,1,.21,5.521s5.317-1.01,5.891-.476c0,0-.361,2.172-3.928,2.308a13.258,13.258,0,0,1,3.3,2.11Z" transform="translate(-8716.893 -4579.666)" fill="#3a4702"/>
        </g>
      </g>
      <g id="Group_4161" data-name="Group 4161" transform="translate(295.14 88.431)">
        <g id="Group_587-2" data-name="Group 587" transform="translate(0)">
          <path id="Path_680-2" data-name="Path 680" d="M8702.039,4572.15s-2.738,3.288-8.066,1.4-6.242-3.237-6.942-5.72-3.55-6.691,2-11.31,12.436-.941,12.436-.941S8712.512,4563.919,8702.039,4572.15Z" transform="translate(-8685.677 -4554.189)" fill="#6a751f"/>
          <path id="Path_681-2" data-name="Path 681" d="M8736.7,4595.37s-2.736-3.963-5.866-2.169.412-.741.412-.741,1.51,2.917,1.431,4.8c0,0-2.906-.534-3.409-2.783,0,0-1.485,4.344-2.665,4.474a3.936,3.936,0,0,1,1.091-4.812s-3.359-.312-4.163-2.188a40.056,40.056,0,0,1,6.259-1.284s-.334-3.8,1.943-5.587a17.153,17.153,0,0,1,.21,5.521s5.317-1.01,5.891-.476c0,0-.361,2.172-3.928,2.308a13.258,13.258,0,0,1,3.3,2.11Z" transform="translate(-8716.893 -4579.666)" fill="#3a4702"/>
        </g>
      </g>
      <g id="Group_592" data-name="Group 592" transform="translate(258.017 99.142)">
        <g id="Group_591" data-name="Group 591" transform="translate(0 0)">
          <path id="Path_684" data-name="Path 684" d="M8457.041,4663.937s-2.057,2.463-6.048,1.048-4.677-2.427-5.2-4.288-2.662-5.015,1.5-8.477,9.322-.7,9.322-.7S8464.89,4657.766,8457.041,4663.937Z" transform="translate(-8444.777 -4650.475)" fill="#6a751f"/>
          <path id="Path_685" data-name="Path 685" d="M8483.025,4681.339s-2.053-2.971-4.4-1.625.311-.557.311-.557a9.577,9.577,0,0,1,1.07,3.6s-2.176-.4-2.553-2.084c0,0-1.113,3.256-2,3.352a2.947,2.947,0,0,1,.816-3.605s-2.52-.236-3.121-1.64a30.105,30.105,0,0,1,4.689-.962s-.25-2.85,1.457-4.189a12.9,12.9,0,0,1,.158,4.14s3.986-.759,4.414-.358c0,0-.268,1.628-2.943,1.729a9.917,9.917,0,0,1,2.477,1.584Z" transform="translate(-8468.177 -4669.567)" fill="#3a4702"/>
        </g>
      </g>
      <g id="Group_593" data-name="Group 593" transform="translate(247.573 122.288)">
        <path id="Rectangle_16" data-name="Rectangle 16" d="M0,0H80.556a0,0,0,0,1,0,0V66.889a17,17,0,0,1-17,17H17a17,17,0,0,1-17-17V0A0,0,0,0,1,0,0Z" fill="#ffa766"/>
        <path id="Rectangle_17" data-name="Rectangle 17" d="M0,0H15.344a0,0,0,0,1,0,0V68.546A15.344,15.344,0,0,1,0,83.889H0a0,0,0,0,1,0,0V0A0,0,0,0,1,0,0Z" transform="translate(65.212)" fill="#e88c4d"/>
      </g>
      <path id="Path_686" data-name="Path 686" d="M8215.033,5008.106l28.221,8.165,3.666,2.921a11.248,11.248,0,0,0,2.661,1.2c7.687,1.662,9.658.14,9.658.14s2-2.193-.324-2.247l-1.485.6s.589-2.191-1.591-1.919-4.734.614-4.734.614l-1.941-2.515s5.771,2.273,3.543-.891-2.969-3.568-2.969-3.568-1.049-.748-4.97-.395c0,0-17.125-14.45-23.17-16.943Z" transform="translate(-7997.299 -4834.021)" fill="#f7b09e"/>
      <path id="Path_687" data-name="Path 687" d="M8169.031,4622.864c-1.26-.038-10.166,7.722-10.456,23.666-.108,5.984-4,30.835,8.77,56.894l16.43-11.149a66.371,66.371,0,0,1-7.572-43.864S8183.338,4627.292,8169.031,4622.864Z" transform="translate(-7950.213 -4528.563)" fill="#8cc63f"/>
      <g id="Group_594" data-name="Group 594" transform="translate(224.182 94.301)">
        <circle id="Ellipse_7" data-name="Ellipse 7" cx="9.378" cy="9.378" r="9.378" transform="translate(0 0)" fill="#2b1100"/>
        <circle id="Ellipse_8" data-name="Ellipse 8" cx="7.517" cy="7.517" r="7.517" transform="translate(14.303 57.087)" fill="#2b1100"/>
        <circle id="Ellipse_9" data-name="Ellipse 9" cx="7.517" cy="7.517" r="7.517" transform="translate(7.977 32.731)" fill="#2b1100"/>
        <circle id="Ellipse_10" data-name="Ellipse 10" cx="7.517" cy="7.517" r="7.517" transform="translate(11.309 45.557)" fill="#2b1100"/>
        <circle id="Ellipse_11" data-name="Ellipse 11" cx="7.517" cy="7.517" r="7.517" transform="translate(1.861 11.58)" fill="#2b1100"/>
        <circle id="Ellipse_12" data-name="Ellipse 12" cx="7.517" cy="7.517" r="7.517" transform="translate(4.534 21.873)" fill="#2b1100"/>
        <circle id="Ellipse_13" data-name="Ellipse 13" cx="6.928" cy="6.928" r="6.928" transform="translate(17.94 69.412)" fill="#2b1100"/>
        <path id="Path_688" data-name="Path 688" d="M8385.417,5082.454l9.607,14.4a5.88,5.88,0,0,1-3.234,8.906l-7.536,2.211a5.88,5.88,0,0,1-7.49-4.914l-2.073-16.608a5.881,5.881,0,0,1,3.2-5.985h0A5.881,5.881,0,0,1,8385.417,5082.454Z" transform="translate(-8353.107 -4999.706)" fill="#2b1100"/>
      </g>
      <g id="Group_595" data-name="Group 595" transform="translate(144.352 134.082)">
        <path id="Path_689" data-name="Path 689" d="M7847.12,4853.849s-8.2,8.509-19.144-1.55c0,0-4.242,26.272-6.771,52.88,0,0-13.191,2.24-18.189,10.007,0,0-3.416,3.155,1,3.13,1.9-.012,5.847-2.3,6.884-3.2,2.311-2.006,4.013.875,2.079,2.927s-6.866,5.49-11.5,5.818-7.038,3.15-2.449,6.284,4.253,3.434,7.619,3.033l10.383.428a13.578,13.578,0,0,0,7.5-7.848l9.958-15.042s9.1-14.722,10.707-24.712c0,0,5.515-17.411,2.856-36.289" transform="translate(-7796.558 -4849.72)" fill="#f7b09e"/>
        <path id="Path_690" data-name="Path 690" d="M7936.232,5459.085" transform="translate(-7911.739 -5352.232)" fill="#f7b09e"/>
      </g>
      <path id="Path_691" data-name="Path 691" d="M7928.3,4764.842s-19.338,12.127-35.3-17.6l32.259-14.687a78.76,78.76,0,0,1,3.045,22.287C7928.289,4759.572,7928.3,4764.842,7928.3,4764.842Z" transform="translate(-7731.733 -4618.143)" fill="#8cc63f"/>
      <path id="Path_692" data-name="Path 692" d="M7996.993,4888.37s-10.238,4.747-18.436,0" transform="translate(-7802.291 -4747.511)" fill="none"/>
      <g id="Group_558" data-name="Group 558" transform="translate(270.715 147.895)">
        <path id="Path_619" data-name="Path 619" d="M8529.708,4942.751H8528.2v-4.683h.153v-.007h11.422a11.371,11.371,0,1,0,.141,1.8c0-.088,0-.176-.006-.264h-10.2Z" transform="translate(-8517.195 -4928.496)" fill="#fff"/>
      </g>
      <g id="Group_558-2" data-name="Group 558" transform="translate(118.554 118.015)">
        <path id="Path_619-2" data-name="Path 619" d="M7667.778,4779h-2.22v-6.867h.229v-.008h16.743a16.66,16.66,0,1,0,.207,2.633c0-.131,0-.257-.009-.388h-14.95Z" transform="translate(-7649.435 -4758.103)" fill="#fff"/>
      </g>
    </g>
  </g>
</svg>
