<svg xmlns="http://www.w3.org/2000/svg" width="275.337" height="350.019" viewBox="0 0 275.337 350.019"><defs><style>.a{fill:#db8572;}.b{fill:#f7b09e;}.c{fill:#2b1100;}.d{fill:#a72d27;}.e{fill:#f98658;}.f{fill:#ea916e;}.g{fill:#ca362d;}.h{fill:#8cc63f;}.i{fill:#689325;}.j{fill:#f20c43;}.k{fill:#6a7939;}.l{fill:#ddbc19;}.m{fill:#8a8b4a;}.n{fill:#c95c45;}.o{fill:#6a751f;}.p{fill:#3a4702;}.q{fill:#ffa766;}.r{fill:#e88c4d;}.s{fill:#fff;}.t{fill:#8c7a6c;}.u{fill:#a75c36;}.v{fill:#753e01;}.w{fill:#9a857c;opacity:0.5;}.x,.y{fill:none;stroke:#db8572;stroke-miterlimit:10;}.x{stroke-width:0.25px;}.y{stroke-width:0.15px;}.z{fill:#d00;}</style></defs><g transform="translate(280.855 1349.578)"><path class="a" d="M-161.065-1312.227s-4.566-2-3.119,6.348,3.119,6.571,3.119,6.571Z" transform="translate(-46.04 -14.692)"/><path class="b" d="M-162.683-1281.333l.391-24.333.557-13.476s1.821-2.349,1.376-9.7c0,0,12.666,7.334,19.237-.8,0,0,5,4.7,11.239,11.72l-1.438,37.079s-12.762,21.9-16.492,29.618C-147.813-1251.219-158.014-1269.583-162.683-1281.333Z" transform="translate(-46.745 -7.888)"/><path class="c" d="M-127.365-1311.819a19.127,19.127,0,0,0-6.682-1.426s-2.227-1.671.557-3.229c0,0,4.678,0,7.128,3.007C-126.362-1313.468-125.875-1311.284-127.365-1311.819Z" transform="translate(-57.739 -13.095)"/><path class="c" d="M-156.963-1311.819a19.132,19.132,0,0,1,6.683-1.426s2.227-1.671-.557-3.229c0,0-4.678,0-7.128,3.007C-157.965-1313.468-158.452-1311.284-156.963-1311.819Z" transform="translate(-48.582 -13.095)"/><circle class="c" cx="1.361" cy="1.361" r="1.361" transform="translate(-190.15 -1322.741)"/><circle class="c" cx="1.361" cy="1.361" r="1.361" transform="translate(-203.682 -1322.741)"/><path class="c" d="M-162.6-1327.03s-4.88-5.946-.326-14.361c0,0,2.236-8.187,13.969-8.187,10.228,0,12.883,1.146,15.612,3.411,3.571,2.963,5.831,11.685,5.069,18.368-4.1,35.991-3.038,6.329-5.069,1.416,0,0-6.14-4.186-8.014-9.645,0,0-10.768,6.846-19.8,0C-161.156-1336.028-160.166-1327.31-162.6-1327.03Z" transform="translate(-45.881 0)"/><path class="a" d="M-113.61-1312.227s4.566-2,3.118,6.348-3.118,6.571-3.118,6.571Z" transform="translate(-66.157 -14.692)"/><path class="a" d="M-162.383-1280.656l4.573,7.564a3.423,3.423,0,0,0,2.488,1.072h11.179a3.631,3.631,0,0,0,1.837-.5l6.1-3.575s-3.717,13.314-26.473,14.136Z" transform="translate(-46.745 -27.264)"/><g transform="translate(-75.75 -1032.827)"><rect class="b" width="7.631" height="11.54" transform="translate(2.909 7.629) rotate(-88.56)"/><path class="d" d="M90.659-792.812,59.4-793.6s-2.021-15.877,2.161-19.309l11.537.289s6.441,10.4,6.4,11.891C79.5-800.726,90.59-797.468,90.659-792.812Z" transform="translate(-58.652 820.535)"/><path class="e" d="M90.6-780.04s3.064,1.7-.07,2.8c-5.058,1.775-30.955-.477-30.955-.477s-2.29-1.447-.234-3.106Z" transform="translate(-58.482 807.845)"/></g><g transform="translate(-112.939 -1031.943)"><rect class="b" width="7.631" height="11.54" transform="translate(2.909 7.629) rotate(-88.56)"/><path class="d" d="M29.131-791.349l-31.26-.786S-4.15-808.011.033-811.444l11.536.29s6.441,10.4,6.4,11.89C17.973-799.264,29.062-796.006,29.131-791.349Z" transform="translate(2.876 819.073)"/><path class="e" d="M29.07-778.577s3.064,1.7-.07,2.8c-5.058,1.775-30.955-.477-30.955-.477s-2.29-1.447-.234-3.107Z" transform="translate(3.046 806.382)"/></g><g transform="translate(-236.968 -1025.993)"><path class="b" d="M-155.4-814.222v7.136s-2.973,7.285-12.934,4.609c0,0,2.527-7.582-2.082-7.731l.595-4.014Z" transform="translate(193.282 814.222)"/><path class="d" d="M-182.682-800.919s2.9-10.085-2.23-7.037c0,0-1.486,8.156-11,11.575s-11.149,5.947-11.149,7.582c0,0,33.3.743,42.963-2.378,0,0-4.046-17.6-7.127-12.51C-172.753-801.167-174.729-798.946-182.682-800.919Z" transform="translate(207.778 811.971)"/><path class="f" d="M-207.593-777.915s-1.627,2.212.255,3.488l42.7-3.125s1.961-1.712-.212-2.895A214.676,214.676,0,0,1-207.593-777.915Z" transform="translate(208.246 800.862)"/></g><g transform="translate(-195.247 -1026.875)"><path class="b" d="M-86.375-815.681v7.136s-2.973,7.285-12.934,4.608c0,0,2.527-7.581-2.081-7.73l.595-4.014Z" transform="translate(124.256 815.681)"/><path class="d" d="M-113.657-802.378s2.9-10.085-2.23-7.037c0,0-1.487,8.156-11,11.575s-11.15,5.947-11.15,7.582c0,0,33.3.743,42.964-2.378,0,0-4.047-17.6-7.128-12.51C-103.728-802.626-105.7-800.405-113.657-802.378Z" transform="translate(138.753 813.43)"/><path class="f" d="M-138.567-779.374s-1.627,2.212.255,3.487l42.7-3.126s1.962-1.712-.212-2.894A214.682,214.682,0,0,1-138.567-779.374Z" transform="translate(139.221 802.321)"/></g><path class="g" d="M-179.918-1051.129s.382,7.642,18.913,6.114,19.1-6.114,19.1-6.114,7.642,10.316,16.048,7.642l2.675-3.6s2.675,23.659,1.147,39.516-2.1,22.161-2.1,22.161,1.529,1.528.573,6.3l.382,13.182s4,9.934,1.618,26.747a89.811,89.811,0,0,0-2,24.836l.574,6.687s-7.833,4.776-15.284,0l-3.248-27.32s-1.337-14.87-1.528-24.916c0,0-3.439-14.44-4.012-21.891l-11.08-46.233-2.675-.765-3.439,45.278s-.191,13.947-.191,14.138,1.911,16.43.382,29.039l.191,33.433s-.764,5.2-16.048,1.359c0,0-5.923-51.222-5.923-58.291,0,0-4.2-5.158-2.292-15.093,0,0-5.35-23.5-6.3-63.427C-194.438-1042.341-185.841-1040.239-179.918-1051.129Z" transform="translate(-34.184 -118.058)"/><path class="h" d="M-206.659-1121.219l.241-40.072v-38.782s-5.54-4.776-18.914-4.2c0,0,5.158-24.262,9.17-32.669,0,0,1.911-5.54,10.7-8.024l18.3-5.565s3.211,9.168,16.391,9.409c4.283.078,10.578-2.961,14.668-8.859l19.413,4.919a14.611,14.611,0,0,1,10.7,10.794s7.26,19.1,7.642,29.039l-18.531,4.2,2.675,32.669s-.956,20.442-7.069,36.107l-6.687,4.776-2.675,4.394s-.732,7.539-21.015,7.642c-20.425.1-19.476.69-23.7-.791" transform="translate(-21.963 -39.179)"/><path class="i" d="M-167.591-1250.534l-8.275,2.318s20.824,28.465,47.188,0l-7.855-1.767S-153.717-1231.764-167.591-1250.534Z" transform="translate(-41.531 -39.179)"/><path class="i" d="M-225.332-1187.722l1.017-4.571a179.569,179.569,0,0,1,17.706,4.05s2.675-4.776,0-20.442c0,0,5.922,19.869,4.585,26.937s-4.394,20.824-4.394,20.824-2.293-13.947-.191-22.734C-206.609-1183.658-212.277-1188.168-225.332-1187.722Z" transform="translate(-21.963 -55.733)"/><path class="i" d="M-62.878-1187.184l-.469-4.528s-14.624,2.426-18.445,4.528v-18.341s-4.776,17.194-2.866,27.7l5.281,19.441-2.033-24.217S-78.925-1184.128-62.878-1187.184Z" transform="translate(-77.432 -56.983)"/><path class="b" d="M-89.683-1170.181a107.835,107.835,0,0,0,2.293,17.958l-4.967,29.23s-3.534,11.69-4.394,15.666c-.4,1.83-.764,4.967-4.585,5.923s-5.578,4.352-6.3,6.5c-1.42,4.188,9.994,11.165,15.666,8.215,3.206-1.667,5.731-6.113,7.069-12.609s12.991-38.209,12.991-38.209,2.866-5.54,1.337-14.9A200.7,200.7,0,0,1-72.489-1174S-78.221-1174.958-89.683-1170.181Z" transform="translate(-68.47 -69.422)"/><path class="g" d="M44.351-1059s9.676,49.124,9.731,65.737c.066,19.779-2.345,57.472-6.872,79.736H32.719L20.754-1031.059,15.091-913.528l-22.876-.621s-.007-48.093.708-74.992c.338-12.726-3.385-27.94-.116-68.2Z" transform="translate(-107.717 -114.944)"/><path class="b" d="M130.511-1088.088l14.382,22.656,5.2,6.238s2.6,2.469,2.209,8.057c0,0-.033,1.885-2.924-3.606,0,0,2.957,9.065,1.4,9.487,0,0-.65,2.209-3.119-7.505,0,0,.878,8.057-.91,8.122s-.163,0-.163,0-1.007.812-1.364-8.837c0,0-1.2-3.379-2.4-1.657s1.657,5.2,1.657,5.2.78,2.437-1.4,1.527l-3.606-4.354.325-8.739-21.584-17.057Z" transform="translate(-157.858 -103.438)"/><path class="c" d="M3.124-1301.836s13.724,2.955,20.429-5.562a10.8,10.8,0,0,0,6.221,4.076c.4.106,1.425-.151,1.264.269-9.728,25.506-17.039,33.5-26.12,40.881a31.126,31.126,0,0,0,31.807-14.981c16.07-25.97-1.4-48.491-10.137-51.272s-32.353-5.567-39.994,12.509-4.677,33.548-2.026,38.762,11.694,13.034,17.62,13.9l10.2,4.027C10.207-1269.651,3.124-1301.836,3.124-1301.836Z" transform="translate(-103.864 -7.564)"/><path class="b" d="M26.535-1298.974s12.136-6.816,12.309,16.23a54.971,54.971,0,0,1-.687,8.078c-1.405,6.764-9.506,21.131-18.38,20.658-2.866-.153-15.595-2.339-16.634-19.494,0,0-10.645,1.519-7.284-10.283.343-1.206,6.244-4.922,5.854,1.576,0,0,2.469-16.115,9.487-18.714C11.2-1300.923,18.348-1305.472,26.535-1298.974Z" transform="translate(-109.2 -18.634)"/><path class="c" d="M56.995-1273.35a6.293,6.293,0,0,0-2.2-.469s-.733-.549.183-1.061a3.349,3.349,0,0,1,2.343.988S57.485-1273.175,56.995-1273.35Z" transform="translate(-132.665 -29.548)"/><circle class="c" cx="1.434" cy="1.434" r="1.434" transform="translate(-95.371 -1300.582)"/><circle class="c" cx="1.434" cy="1.434" r="1.434" transform="translate(-78.71 -1300.582)"/><path class="c" d="M26.406-1273.7a6.289,6.289,0,0,1,2.2-.469s.733-.549-.183-1.062a3.349,3.349,0,0,0-2.343.988S25.916-1273.529,26.406-1273.7Z" transform="translate(-121.403 -29.408)"/><circle class="c" cx="9.459" cy="9.459" r="9.459" transform="translate(-110.091 -1276.51)"/><path class="c" d="M10.709-1257.883s-18.319-11.18-9.456-31.884c0,0,14.465-5.426,22.424-12.772,0,0,7.962,9.794,10.041,9.817l4.032-7.639-25.64-9.449L-.9-1306.544l-15.49,24.562,14.42,21.307Z" transform="translate(-104.613 -15.731)"/><path class="b" d="M31.517-1224.119s-.723,12.806.49,14.192l2.053.1s9.989,15.945-8.244,16.7c-5.006.208-15.923-1.811-12.284-16.367l7.3-.058,1.428-14.442S27.195-1222.542,31.517-1224.119Z" transform="translate(-116.162 -49.628)"/><path class="h" d="M-19.967-1193.985s8.322-7.037,23.917-6.171c0,0-1.24,16.407,8.958,15.155,0,0,10.269,1.517,8.189-15.464l8.577.91s4.549-.52,11.047,9.227,23.523,40.98,23.523,40.98l11.609,16.807-12.3,9.531S59-1125.521,53.934-1138a13.266,13.266,0,0,0-2.3-3.733l-21.179-24.251s-2.426-3.119-2.426.867c0,1.374-.165,4.087-.381,7.052a51.228,51.228,0,0,0,3.963,23.828l8.223,19.277c1.764,4.134-.812,10.537-5.306,10.537h-37c-4.483,0-9.332-4.4-9.118-8.88.222-4.641-.666-12.639-.343-18.039.487-8.144,2.209-18.266,1.578-26.4l-.6-7.722s.173-4.158-2.426-.52" transform="translate(-103.2 -58.984)"/><circle class="c" cx="9.459" cy="9.459" r="9.459" transform="translate(-114.1 -1264.656)"/><path class="a" d="M38.444-1224.3s-4.522,1.005-8.13-.284a12.217,12.217,0,0,0,8.01,2.977Z" transform="translate(-123.089 -49.442)"/><path class="b" d="M-.086-1272.3s-6.028,6.658,0,12.5Z" transform="translate(-110.004 -30.568)"/><g transform="translate(-52.603 -1252.414)"><path class="j" d="M119.428-1163.96s-3.793,4.55-11.166,1.935-8.642-4.482-9.609-7.919-4.915-9.262,2.766-15.656,17.217-1.3,17.217-1.3S133.925-1175.356,119.428-1163.96Z" transform="translate(-96.778 1188.824)"/><path class="k" d="M130.215-1162.175s-3.792-5.488-8.124-3,.572-1.025.572-1.025,2.087,4.039,1.978,6.649c0,0-4.02-.739-4.716-3.851,0,0-2.056,6.013-3.689,6.192,0,0-1.978-4.034,1.512-6.661,0,0-4.653-.433-5.765-3.028,0,0,6.3-1.755,8.662-1.779,0,0-.461-5.263,2.693-7.735a23.825,23.825,0,0,1,.291,7.644s7.363-1.4,8.153-.66c0,0-.5,3.007-5.436,3.2a18.37,18.37,0,0,1,4.573,2.922Z" transform="translate(-102.792 1183.916)"/></g><g transform="translate(-48.149 -1234.039)"><path class="l" d="M121.728-1139.123s-2.945,3.532-8.668,1.5-6.707-3.48-7.459-6.147-3.815-7.19,2.148-12.153,13.365-1.011,13.365-1.011S132.981-1147.968,121.728-1139.123Z" transform="translate(-104.145 1158.423)"/><path class="k" d="M130.1-1137.737s-2.943-4.26-6.307-2.332.444-.795.444-.795,1.62,3.135,1.535,5.161c0,0-3.121-.574-3.662-2.99,0,0-1.6,4.667-2.863,4.807,0,0-1.536-3.131,1.173-5.171,0,0-3.612-.336-4.475-2.35a43.131,43.131,0,0,1,6.724-1.38s-.357-4.086,2.09-6.005a18.5,18.5,0,0,1,.227,5.934s5.715-1.086,6.328-.512c0,0-.385,2.334-4.219,2.481a14.269,14.269,0,0,1,3.549,2.268Z" transform="translate(-108.814 1154.614)"/><path class="m" d="M139.364-1131.081s4.6.291,5.133,9c0,0,2.73-3.732-4.588-9.889" transform="translate(-118.077 1147.958)"/></g><g transform="translate(-66.064 -1238.299)"><path class="n" d="M90.293-1148.144s-2.644,3.171-7.783,1.349-6.023-3.124-6.7-5.519-3.426-6.455,1.928-10.912,12-.907,12-.907S100.4-1156.085,90.293-1148.144Z" transform="translate(-74.507 1165.472)"/><path class="k" d="M97.811-1146.9s-2.643-3.826-5.662-2.094.4-.714.4-.714,1.455,2.815,1.379,4.634c0,0-2.8-.515-3.287-2.684,0,0-1.432,4.191-2.571,4.316a3.8,3.8,0,0,1,1.054-4.643s-3.243-.3-4.018-2.11a38.729,38.729,0,0,1,6.037-1.24s-.321-3.668,1.876-5.391a16.6,16.6,0,0,1,.2,5.328s5.131-.976,5.682-.46c0,0-.346,2.1-3.789,2.227a12.807,12.807,0,0,1,3.187,2.036Z" transform="translate(-78.698 1162.052)"/><path class="m" d="M106.128-1140.923s4.131.262,4.608,8.085c0,0,2.451-3.352-4.119-8.88" transform="translate(-87.015 1156.076)"/></g><g transform="translate(-93.106 -1238.469)"><g transform="translate(0 0)"><path class="j" d="M52.418-1140.889s-3.793,4.55-11.167,1.936-8.641-4.483-9.609-7.919-4.915-9.262,2.767-15.656,17.217-1.3,17.217-1.3S66.914-1152.284,52.418-1140.889Z" transform="translate(-29.767 1165.753)"/><path class="k" d="M63.2-1139.1s-3.792-5.488-8.125-3,.572-1.025.572-1.025,2.088,4.039,1.978,6.649c0,0-4.02-.739-4.716-3.851,0,0-2.056,6.012-3.689,6.192,0,0-1.979-4.034,1.512-6.661,0,0-4.653-.433-5.765-3.028,0,0,6.3-1.755,8.661-1.778,0,0-.461-5.264,2.693-7.736a23.826,23.826,0,0,1,.291,7.644s7.363-1.4,8.153-.659c0,0-.5,3.006-5.436,3.195a18.388,18.388,0,0,1,4.573,2.922Z" transform="translate(-35.781 1160.845)"/></g><path class="m" d="M75.138-1130.529s5.926.375,6.612,11.6c0,0,3.517-4.809-5.911-12.74" transform="translate(-47.714 1152.27)"/></g><g transform="translate(-71.062 -1251.9)"><g transform="translate(0 0)"><path class="l" d="M82.742-1169.858s-2.764,3.315-8.136,1.41-6.3-3.266-7-5.77-3.581-6.749,2.016-11.407,12.544-.949,12.544-.949S93.3-1178.161,82.742-1169.858Z" transform="translate(-66.238 1187.975)"/><path class="k" d="M90.6-1168.558s-2.763-4-5.92-2.189.416-.746.416-.746,1.521,2.943,1.442,4.844c0,0-2.93-.539-3.437-2.806,0,0-1.5,4.38-2.688,4.511a3.969,3.969,0,0,1,1.1-4.854s-3.39-.316-4.2-2.205a40.391,40.391,0,0,1,6.311-1.3s-.335-3.836,1.962-5.637a17.357,17.357,0,0,1,.213,5.57s5.364-1.02,5.94-.48c0,0-.362,2.19-3.961,2.328a13.382,13.382,0,0,1,3.332,2.129Z" transform="translate(-70.62 1184.399)"/></g></g><g transform="translate(-62.574 -1267.343)"><g transform="translate(0 0)"><path class="n" d="M96.784-1195.408s-2.764,3.315-8.136,1.41-6.3-3.266-7-5.77-3.581-6.748,2.016-11.407,12.545-.949,12.545-.949S107.347-1203.711,96.784-1195.408Z" transform="translate(-80.281 1213.524)"/><path class="k" d="M104.643-1194.107s-2.763-4-5.919-2.189.416-.746.416-.746,1.521,2.943,1.441,4.844c0,0-2.929-.539-3.437-2.806,0,0-1.5,4.381-2.688,4.511a3.968,3.968,0,0,1,1.1-4.854s-3.391-.315-4.2-2.206a40.493,40.493,0,0,1,6.311-1.3s-.335-3.835,1.962-5.637a17.356,17.356,0,0,1,.213,5.57s5.364-1.02,5.94-.48c0,0-.361,2.191-3.96,2.328a13.384,13.384,0,0,1,3.332,2.129Z" transform="translate(-84.663 1209.949)"/></g></g><g transform="translate(-40.086 -1265.674)"><g transform="translate(0 0)"><path class="o" d="M133.99-1192.647s-2.764,3.315-8.136,1.411-6.3-3.266-7-5.771-3.581-6.748,2.016-11.407,12.544-.948,12.544-.948S144.552-1200.949,133.99-1192.647Z" transform="translate(-117.486 1210.763)"/><path class="p" d="M141.849-1191.346s-2.763-4-5.92-2.189.416-.746.416-.746,1.521,2.943,1.442,4.845c0,0-2.93-.538-3.437-2.806,0,0-1.5,4.381-2.688,4.511a3.969,3.969,0,0,1,1.1-4.854s-3.39-.316-4.2-2.206a40.464,40.464,0,0,1,6.311-1.3s-.335-3.835,1.962-5.636a17.343,17.343,0,0,1,.212,5.569s5.364-1.02,5.94-.48c0,0-.361,2.191-3.96,2.328a13.386,13.386,0,0,1,3.332,2.13Z" transform="translate(-121.868 1207.187)"/></g></g><g transform="translate(-27.63 -1238.423)"><path class="o" d="M150.464-1152.1s-2.071,2.485-6.1,1.057-4.719-2.448-5.248-4.325-2.684-5.059,1.511-8.551,9.4-.711,9.4-.711S158.382-1158.321,150.464-1152.1Z" transform="translate(-138.094 1165.677)"/><path class="p" d="M156.356-1151.123s-2.071-3-4.437-1.641.312-.559.312-.559a9.688,9.688,0,0,1,1.081,3.631s-2.2-.4-2.576-2.1c0,0-1.122,3.283-2.015,3.382a2.976,2.976,0,0,1,.826-3.638s-2.541-.237-3.148-1.654a30.345,30.345,0,0,1,4.731-.971s-.251-2.875,1.471-4.225a13.006,13.006,0,0,1,.159,4.175s4.021-.764,4.452-.36c0,0-.271,1.642-2.968,1.745a10.033,10.033,0,0,1,2.5,1.6Z" transform="translate(-141.378 1162.996)"/></g><g transform="translate(-82.694 -1248.644)"><g transform="translate(0)"><path class="o" d="M59.363-1169.009s-2.071,2.485-6.1,1.057-4.719-2.448-5.248-4.325-2.684-5.058,1.511-8.55,9.4-.711,9.4-.711S67.28-1175.232,59.363-1169.009Z" transform="translate(-46.993 1182.588)"/><path class="p" d="M65.254-1168.034s-2.071-3-4.437-1.64.312-.56.312-.56a9.683,9.683,0,0,1,1.08,3.631s-2.2-.4-2.576-2.1c0,0-1.122,3.284-2.015,3.382a2.974,2.974,0,0,1,.826-3.638s-2.541-.236-3.148-1.653a30.346,30.346,0,0,1,4.73-.971s-.251-2.875,1.471-4.225a13.016,13.016,0,0,1,.16,4.175s4.021-.765,4.452-.36c0,0-.271,1.642-2.968,1.745a10.045,10.045,0,0,1,2.5,1.6Z" transform="translate(-50.277 1179.908)"/></g></g><g transform="translate(-93.23 -1225.3)"><path class="q" d="M0,0H81.254a0,0,0,0,1,0,0V60.324A24.293,24.293,0,0,1,56.961,84.617H23.711A23.711,23.711,0,0,1,0,60.906V0A0,0,0,0,1,0,0Z" transform="translate(0 0)"/><path class="r" d="M0,0H15.477a0,0,0,0,1,0,0V69.14A15.477,15.477,0,0,1,0,84.617H0a0,0,0,0,1,0,0V0A0,0,0,0,1,0,0Z" transform="translate(65.777 0)"/></g><path class="b" d="M-20.236-1067.315l28.465,8.234,3.7,2.947a11.336,11.336,0,0,0,2.685,1.21c7.752,1.677,9.741.142,9.741.142s2.014-2.212-.326-2.266l-1.5.61s.593-2.209-1.6-1.936-4.774.621-4.774.621l-1.959-2.537s5.82,2.293,3.575-.9-3-3.6-3-3.6-1.058-.754-5.014-.4c0,0-17.272-14.576-23.373-17.09Z" transform="translate(-103.093 -105.737)"/><path class="h" d="M-25.75-1190.667c-1.271-.038-10.255,7.79-10.547,23.871-.11,6.038-4.039,31.1,8.846,57.386l16.571-11.246a66.957,66.957,0,0,1-7.638-44.244S-11.32-1186.2-25.75-1190.667Z" transform="translate(-96.484 -62.86)"/><g transform="translate(-116.823 -1253.528)"><circle class="c" cx="9.459" cy="9.459" r="9.459" transform="translate(0 0)"/><circle class="c" cx="7.582" cy="7.582" r="7.582" transform="translate(14.427 57.581)"/><circle class="c" cx="7.582" cy="7.582" r="7.582" transform="translate(8.047 33.014)"/><circle class="c" cx="7.582" cy="7.582" r="7.582" transform="translate(11.407 45.952)"/><circle class="c" cx="7.582" cy="7.582" r="7.582" transform="translate(1.877 11.681)"/><circle class="c" cx="7.582" cy="7.582" r="7.582" transform="translate(4.573 22.062)"/><circle class="c" cx="6.988" cy="6.988" r="6.988" transform="translate(18.095 70.014)"/><path class="c" d="M37.334-1054.305l9.691,14.521a5.931,5.931,0,0,1-3.263,8.983l-7.6,2.231a5.93,5.93,0,0,1-7.555-4.956l-2.091-16.753a5.931,5.931,0,0,1,3.23-6.038h0A5.93,5.93,0,0,1,37.334-1054.305Z" transform="translate(-4.746 1137.771)"/></g><g transform="translate(-69.885 -1199.47)"><path class="s" d="M80.8-1086.852H79.278v-4.724h.157v-.005h11.52a11.456,11.456,0,0,0-13.12-9.5,11.455,11.455,0,0,0-9.5,13.12,11.457,11.457,0,0,0,13.12,9.5A11.456,11.456,0,0,0,91.1-1089.77c0-.089,0-.177-.006-.267H80.8Z" transform="translate(-68.185 1101.231)"/></g><g transform="translate(-208.101 -1237.14)"><path class="s" d="M-143.883-1144.635h-2.009v-6.215h.207v-.008h15.155a15.072,15.072,0,0,0-17.261-12.5,15.072,15.072,0,0,0-12.5,17.262,15.072,15.072,0,0,0,17.261,12.5,15.072,15.072,0,0,0,12.694-14.878c0-.118-.006-.233-.008-.351h-13.534Z" transform="translate(160.487 1163.554)"/></g><g transform="translate(-280.855 -1223.45)"><path class="t" d="M-270.765-906.378s32.521,27.567,57.559,17.048c0,0-20.646,54.859-57.767,65.087C-270.973-824.242-293.345-855.888-270.765-906.378Z" transform="translate(280.855 1048.133)"/><path class="u" d="M-235.486-957.49l-17.9,38.636,12.535-40.691,55.843-145.71,5.363,2.055Z" transform="translate(269.988 1126.803)"/><g transform="translate(76.187 0)"><path class="v" d="M-144.788-1111.613a15.618,15.618,0,0,1-8.985-20.15l5.507,2.111c-1.329,3.467-.96,10.023,5.588,12.533,6.231,2.388,11.2-2.121,12.533-5.588l5.507,2.11A15.617,15.617,0,0,1-144.788-1111.613Z" transform="translate(154.806 1137.289)"/><rect class="v" width="31.201" height="5.918" transform="translate(3.152 0) rotate(20.969)"/></g><path class="w" d="M-270.765-906.378s32.521,27.567,57.559,17.048c0,0-20.646,54.859-57.767,65.087C-270.973-824.242-293.345-855.888-270.765-906.378Z" transform="translate(280.855 1048.133)"/></g><path class="b" d="M-207.624-1169.816l-3.6,13.107s-.976,3.459,1.735,4.881l22.155,18.946s4.149,1.847,5.92-1.411,10.18-.509,10.18-.509l4.529.5s3.407,2.021.665,4.505c0,0,5.148,2.671.939,4.681,0,0,4.948,3.466-.38,5.3,0,0,3.4,5.406-1.823,4.3,0,0,3.875,5.63-2.148,5.174l-10.226-1.831s-5-2.421-6.889-4.166-33.772-23.807-33.772-23.807-7.587-3.072-8.046-13.451l1.842-20.431S-216.438-1174.633-207.624-1169.816Z" transform="translate(-20.757 -69.436)"/><path class="a" d="M-143.748-1274.278l4.582-.549S-141.224-1271.357-143.748-1274.278Z" transform="translate(-54.235 -29.569)"/><path class="a" d="M38.315-1235.95l2.887.242S39.5-1233.835,38.315-1235.95Z" transform="translate(-126.254 -44.948)"/><g transform="translate(-198.72 -1320.905)"><path class="a" d="M-143.636-1290.572c.1-.06.228-.083.427.216a1.5,1.5,0,0,0,.96.688c.068,0,.517.124,1.13-.755a.375.375,0,0,1,.537-.081l.208.257s.131.176-.175.366.2.189.2.189.618.108.739-.785a2.411,2.411,0,0,0-.3-1.529s-.121-.46.076-.244a3.915,3.915,0,0,1,.343.707c.238.961.026,1.693-.386,1.923a.836.836,0,0,1-.926.032c-.062-.026-.151-.1-.246-.051a.772.772,0,0,1-.745.014.812.812,0,0,1-.864,0s-.5.275-.82-.035c-.1-.1-.828.639-1.321-.227s.2-2.309.2-2.309.186-.3.065.23a2.834,2.834,0,0,0-.153,2.016.558.558,0,0,0,.908.2s.152-.025-.12-.23C-144.1-1290.136-143.759-1290.5-143.636-1290.572Z" transform="translate(144.967 1298.251)"/><path class="x" d="M-143.844-1302.14s.525,3.9-.664,6.524" transform="translate(144.785 1302.14)"/></g><g transform="translate(-88.182 -1297.694)"><path class="a" d="M41.58-1248.68c-.09-.052-.2-.071-.368.187a1.3,1.3,0,0,1-.828.593c-.059,0-.446.107-.974-.652a.324.324,0,0,0-.463-.069l-.179.221s-.114.152.151.315-.175.164-.175.164-.533.093-.636-.677a2.079,2.079,0,0,1,.254-1.318s.1-.4-.066-.21a3.392,3.392,0,0,0-.3.609c-.2.829-.022,1.46.332,1.658a.721.721,0,0,0,.8.028c.054-.022.13-.084.212-.043a.667.667,0,0,0,.642.011.7.7,0,0,0,.746,0s.432.237.707-.03c.086-.084.714.551,1.138-.2s-.174-1.991-.174-1.991-.16-.256-.057.2a2.443,2.443,0,0,1,.132,1.738.481.481,0,0,1-.783.175s-.131-.021.1-.2C41.981-1248.3,41.686-1248.619,41.58-1248.68Z" transform="translate(-37.914 1258.374)"/><path class="y" d="M45.99-1263.739a31.159,31.159,0,0,0-.575,8.7" transform="translate(-40.84 1263.739)"/></g><g transform="translate(-90.684 -1284.12)"><path class="c" d="M33.774-1241.281s5.5.285,8.377.52C42.151-1240.761,38.111-1235.645,33.774-1241.281Z" transform="translate(-33.774 1241.281)"/><path class="s" d="M36.419-1241.138s.126.647.4.793a12.3,12.3,0,0,0,4.308.323c.39-.011.557-.791.557-.791S39.783-1240.967,36.419-1241.138Z" transform="translate(-34.82 1241.224)"/><path class="z" d="M38.784-1237.687s.328-.957,1.682-.438a.991.991,0,0,1,1.419.26A3.652,3.652,0,0,1,38.784-1237.687Z" transform="translate(-35.756 1240.109)"/></g><g transform="translate(-200.431 -1308.438)"><path class="c" d="M-147.8-1281.514s6.6.126,10.05.274C-137.748-1281.24-142.738-1276.229-147.8-1281.514Z" transform="translate(147.798 1281.514)"/><path class="s" d="M-144.625-1281.448s.134.617.456.75a18.2,18.2,0,0,0,5.167.195c.469-.021.69-.774.69-.774S-140.587-1281.374-144.625-1281.448Z" transform="translate(146.543 1281.488)"/><path class="z" d="M-141.886-1278.245s.42-.926,2.033-.465a1.389,1.389,0,0,1,1.7.212A5.441,5.441,0,0,1-141.886-1278.245Z" transform="translate(145.459 1280.484)"/></g></g></svg>