<svg xmlns="http://www.w3.org/2000/svg" width="486.417" height="293.131" viewBox="0 0 486.417 293.131">
  <g id="Support_Illustration" data-name="Support Illustration" transform="translate(10150.422 -9091.42)">
    <g id="Gollaa_Support_Illustration" data-name="Gollaa Support Illustration" transform="translate(-10150.422 9091.42)">
      <g id="Group_597" data-name="Group 597" transform="translate(93.84 0)">
        <path id="Path_693" data-name="Path 693" d="M3800.985,1498.35H3781.6v-59.973h2v-.076h146.245a145.42,145.42,0,1,0,1.828,23c0-1.134-.059-2.253-.086-3.381h-130.6Z" transform="translate(-3640.861 -1315.898)" fill="#e0e1e3"/>
      </g>
      <path id="Path_694" data-name="Path 694" d="M3988.428,1536.8c-5.049-3.689-15.366-1.2-22.982,1.467a34.685,34.685,0,0,0-4.185-4.857c16.4-10.567,39.062-33.1,27.053-35.011-10.439-1.658-24.527,18.626-32.056,30.975-7.818-5.259-19.8-9.125-38.089-7.784-47.47,3.48-84.553-27.139-111.889-16.927-21.734,8.12-41.653,12.669-60.862,11.115.827-14.033,1.006-41.586-10.013-44.444-11.188-2.9-.215,28.389,5.886,44.013q-2.148-.276-4.284-.657c-3.949-7.786-10.458-17.977-17.6-18.325-6.728-.328,1.578,8.833,9.75,16.594-23.491-4.932-51.357,14.163-51.819,36.743h293.277a27.207,27.207,0,0,0-2.821-7.641C3979.125,1541.834,3993.912,1540.8,3988.428,1536.8Z" transform="translate(-3533.082 -1256.566)" fill="#8abb2a"/>
      <g id="Group_600" data-name="Group 600" transform="translate(135.895 185.708)">
        <path id="Path_695" data-name="Path 695" d="M3756.27,1483.256s-10.764,8-12.862,7.519,7.866-8.64,7.866-8.64c-3.75-1.8-15.407-.672-15.407-.672s-3.883,12.52-5.8,11.533,4-10.911,4-10.911c-4.176-.252-9.3,2.849-9.3,2.849-7.014,5.539.46,14.257.46,14.257a21.3,21.3,0,0,1-5.867,8.235,18.506,18.506,0,0,0-6.765,13.036l1.149.1s1.818-7.783,5.126-11.465c.128-.132.315-.325.545-.557.541-.5.916-.874,1.17-1.152,1.646-1.582,3.921-3.6,5.017-3.791a2.108,2.108,0,0,1-.047-.552c.015.176.03.358.047.552.375,4.406,8.925,8.254,14.184,9.046s3.634-1.371,1.821-4.576-7.547-4.64-8.854-6.116,1.4-1.48,4.565-.032,3.6,5.306,8.686,7.74,12.733-6,12.733-6c-4.051-.2-9.837-4.605-9.627-5.952s9.82,2.323,11.464,2.5,5.381-1.867,5.958-8.487S3756.27,1483.256,3756.27,1483.256Z" transform="translate(-3655.497 -1438.463)" fill="#70a56a"/>
        <g id="Group_598" data-name="Group 598" transform="translate(0 18.978)">
          <path id="Path_696" data-name="Path 696" d="M3714.895,1494.773s11.89-6.658,6.342-15.693c0,0-4.438-5.547-9.2-6.975,0,0,2.537,13.475,0,13.792s-1.742-15.218-1.742-15.218-12.522-6.023-17.438-5.548c0,0,7.769,13.157,5.232,12.84s-11.255-13.633-11.255-13.633-12.839-2.377-14.9,5.23,1.27,11.414,3.171,11.89,14.108.316,13.79,1.9-8.561,4.122-13.156,2.7c0,0,5.071,12.522,11.73,11.888s8.719-4.755,12.84-5.072,7.133.792,5.072,1.9-9.035.363-12.364,3.194-6.023,4.573.159,5.841,17.278.475,19.5-4.279Z" transform="translate(-3671.288 -1463.987)" fill="#93c98e"/>
          <path id="Path_697" data-name="Path 697" d="M3716.264,1504.143a25.29,25.29,0,0,1-3.171-11.572c-3.8-12.047-37.093-22.826-37.093-22.826,42.324,17.12,34.874,27.582,34.874,27.582,1.14.665,2.85,3.837,4.037,6.271.169.414.437.988.835,1.766h0c.16.351.289.64.379.841,2.178,5.452,1.023,14.868,1.023,14.868l1.322.355A21.96,21.96,0,0,0,3716.264,1504.143Z" transform="translate(-3669.486 -1461.785)" fill="#70a56a"/>
        </g>
        <g id="Group_599" data-name="Group 599" transform="translate(52.219)">
          <path id="Path_698" data-name="Path 698" d="M3719.369,1490.838s-15.671-8.775-8.358-20.685c0,0,5.851-7.313,12.119-9.195,0,0-3.341,17.761,0,18.18s2.3-20.06,2.3-20.06,16.508-7.941,22.985-7.313c0,0-10.238,17.343-6.894,16.925s14.835-17.969,14.835-17.969,16.925-3.135,19.641,6.9-1.672,15.043-4.18,15.671-18.6.417-18.178,2.508,11.283,5.432,17.343,3.552c0,0-6.687,16.506-15.464,15.671s-11.491-6.268-16.924-6.687-9.4,1.045-6.685,2.507,11.909.48,16.3,4.21,7.94,6.029-.209,7.7-22.776.628-25.7-5.642Z" transform="translate(-3709.067 -1450.256)" fill="#93c98e"/>
          <path id="Path_699" data-name="Path 699" d="M3767.7,1457.848s-43.88,14.209-48.9,30.088a33.335,33.335,0,0,1-4.178,15.254s-6.767,10.275-2.909,22.785l1.741-.468s-1.522-12.411,1.35-19.6c.118-.265.288-.646.5-1.108h0c.526-1.025.878-1.782,1.1-2.328,1.564-3.209,3.818-7.391,5.322-8.268C3721.735,1494.2,3711.915,1480.415,3767.7,1457.848Z" transform="translate(-3708.508 -1447.355)" fill="#70a56a"/>
        </g>
        <path id="Path_700" data-name="Path 700" d="M3724.626,1535.251a30.7,30.7,0,0,0,30.7-30.7h-61.4A30.7,30.7,0,0,0,3724.626,1535.251Z" transform="translate(-3662.635 -1429.505)" fill="#96999c"/>
        <path id="Path_701" data-name="Path 701" d="M3731.146,1535.016a30.718,30.718,0,0,1-34.509-30.463h7.626A30.7,30.7,0,0,0,3731.146,1535.016Z" transform="translate(-3661.6 -1429.505)" fill="#aeb0b3"/>
        <path id="Path_702" data-name="Path 702" d="M3752.078,1525.235H3697.41a3.788,3.788,0,0,0-3.788,3.787h62.243A3.786,3.786,0,0,0,3752.078,1525.235Z" transform="translate(-3662.751 -1421.6)" fill="#96999c"/>
        <path id="Path_703" data-name="Path 703" d="M3755.832,1504.553h-62.161a.471.471,0,1,0,0,.941h62.161a.471.471,0,1,0,0-.941Z" transform="translate(-3662.914 -1429.505)" fill="#5a5b5e"/>
      </g>
      <g id="Group_603" data-name="Group 603" transform="translate(220.887 212.682)">
        <g id="Group_602" data-name="Group 602" transform="translate(0 0)">
          <g id="Group_601" data-name="Group 601">
            <rect id="Rectangle_18" data-name="Rectangle 18" width="57.556" height="80.449" transform="translate(75.303 80.449) rotate(180)" fill="#4e2a0e"/>
            <rect id="Rectangle_19" data-name="Rectangle 19" width="57.556" height="80.449" transform="translate(57.556 80.449) rotate(180)" fill="#9a673d"/>
          </g>
        </g>
        <path id="Path_704" data-name="Path 704" d="M3774.42,1469.772l17.747,12.08v-12.08Z" transform="translate(-3716.864 -1469.772)" fill="#2d1a10"/>
      </g>
      <g id="Group_606" data-name="Group 606" transform="translate(0 185.708)">
        <path id="Path_705" data-name="Path 705" d="M3657.95,1483.256s-10.764,8-12.862,7.519,7.866-8.64,7.866-8.64c-3.75-1.8-15.407-.672-15.407-.672s-3.882,12.52-5.8,11.533,4-10.911,4-10.911c-4.177-.252-9.3,2.849-9.3,2.849-7.013,5.539.46,14.257.46,14.257a21.3,21.3,0,0,1-5.868,8.235,18.506,18.506,0,0,0-6.765,13.036l1.148.1s1.819-7.783,5.127-11.465c.128-.132.315-.325.546-.557.539-.5.916-.874,1.17-1.152,1.645-1.582,3.92-3.6,5.017-3.791a2.113,2.113,0,0,1-.048-.552c.016.176.031.358.048.552.374,4.406,8.924,8.254,14.184,9.046s3.634-1.371,1.821-4.576-7.548-4.64-8.854-6.116,1.4-1.48,4.564-.032,3.6,5.306,8.686,7.74,12.733-6,12.733-6c-4.052-.2-9.837-4.605-9.626-5.952s9.82,2.323,11.463,2.5,5.38-1.867,5.958-8.487S3657.95,1483.256,3657.95,1483.256Z" transform="translate(-3557.177 -1438.463)" fill="#70a56a"/>
        <g id="Group_604" data-name="Group 604" transform="translate(0 18.978)">
          <path id="Path_706" data-name="Path 706" d="M3616.576,1494.773s11.889-6.658,6.341-15.693c0,0-4.438-5.547-9.194-6.975,0,0,2.537,13.475,0,13.792s-1.743-15.218-1.743-15.218-12.523-6.023-17.437-5.548c0,0,7.767,13.157,5.231,12.84s-11.255-13.633-11.255-13.633-12.839-2.377-14.9,5.23,1.268,11.414,3.17,11.89,14.108.316,13.791,1.9-8.561,4.122-13.156,2.7c0,0,5.072,12.522,11.729,11.888s8.719-4.755,12.841-5.072,7.133.792,5.071,1.9-9.035.363-12.364,3.194-6.023,4.573.159,5.841,17.277.475,19.5-4.279Z" transform="translate(-3572.969 -1463.987)" fill="#93c98e"/>
          <path id="Path_707" data-name="Path 707" d="M3617.944,1504.143a25.3,25.3,0,0,1-3.17-11.572c-3.8-12.047-37.091-22.826-37.091-22.826,42.323,17.12,34.873,27.582,34.873,27.582,1.141.665,2.85,3.837,4.037,6.271.168.414.437.988.834,1.766h0c.161.351.289.64.379.841,2.179,5.452,1.025,14.868,1.025,14.868l1.321.355A21.959,21.959,0,0,0,3617.944,1504.143Z" transform="translate(-3571.166 -1461.785)" fill="#70a56a"/>
        </g>
        <g id="Group_605" data-name="Group 605" transform="translate(52.219)">
          <path id="Path_708" data-name="Path 708" d="M3621.051,1490.838s-15.672-8.775-8.359-20.685c0,0,5.851-7.313,12.119-9.195,0,0-3.342,17.761,0,18.18s2.3-20.06,2.3-20.06,16.507-7.941,22.985-7.313c0,0-10.238,17.343-6.9,16.925s14.835-17.969,14.835-17.969,16.924-3.135,19.642,6.9-1.671,15.043-4.179,15.671-18.6.417-18.178,2.508,11.282,5.432,17.342,3.552c0,0-6.686,16.506-15.463,15.671s-11.491-6.268-16.924-6.687-9.4,1.045-6.686,2.507,11.91.48,16.3,4.21,7.941,6.029-.208,7.7-22.776.628-25.7-5.642Z" transform="translate(-3610.748 -1450.256)" fill="#93c98e"/>
          <path id="Path_709" data-name="Path 709" d="M3669.385,1457.848s-43.88,14.209-48.895,30.088a33.314,33.314,0,0,1-4.179,15.254s-6.767,10.275-2.909,22.785l1.741-.468s-1.521-12.411,1.351-19.6c.117-.265.289-.646.5-1.108h0c.526-1.025.878-1.782,1.1-2.328,1.564-3.209,3.819-7.391,5.323-8.268C3623.417,1494.2,3613.6,1480.415,3669.385,1457.848Z" transform="translate(-3610.188 -1447.355)" fill="#70a56a"/>
        </g>
        <path id="Path_710" data-name="Path 710" d="M3626.308,1535.251a30.7,30.7,0,0,0,30.7-30.7h-61.4A30.7,30.7,0,0,0,3626.308,1535.251Z" transform="translate(-3564.315 -1429.505)" fill="#96999c"/>
        <path id="Path_711" data-name="Path 711" d="M3632.827,1535.016a30.717,30.717,0,0,1-34.509-30.463h7.625A30.7,30.7,0,0,0,3632.827,1535.016Z" transform="translate(-3563.28 -1429.505)" fill="#aeb0b3"/>
        <path id="Path_712" data-name="Path 712" d="M3653.76,1525.235h-54.668a3.788,3.788,0,0,0-3.788,3.787h62.244A3.786,3.786,0,0,0,3653.76,1525.235Z" transform="translate(-3564.432 -1421.6)" fill="#96999c"/>
        <path id="Path_713" data-name="Path 713" d="M3657.511,1504.553h-62.161a.471.471,0,1,0,0,.941h62.161a.471.471,0,1,0,0-.941Z" transform="translate(-3564.593 -1429.505)" fill="#5a5b5e"/>
      </g>
      <g id="Group_609" data-name="Group 609" transform="translate(366.414 185.708)">
        <path id="Path_714" data-name="Path 714" d="M3923.048,1483.256s-10.765,8-12.862,7.519,7.865-8.64,7.865-8.64c-3.75-1.8-15.406-.672-15.406-.672s-3.883,12.52-5.8,11.533,4-10.911,4-10.911c-4.177-.252-9.3,2.849-9.3,2.849-7.013,5.539.46,14.257.46,14.257a21.292,21.292,0,0,1-5.867,8.235,18.506,18.506,0,0,0-6.765,13.036l1.149.1s1.82-7.783,5.126-11.465c.129-.132.315-.325.546-.557.54-.5.917-.874,1.171-1.152,1.644-1.582,3.919-3.6,5.016-3.791a2.066,2.066,0,0,1-.047-.552c.015.176.031.358.047.552.374,4.406,8.924,8.254,14.184,9.046s3.634-1.371,1.822-4.576-7.548-4.64-8.855-6.116,1.4-1.48,4.565-.032,3.6,5.306,8.685,7.74,12.733-6,12.733-6c-4.051-.2-9.837-4.605-9.626-5.952s9.82,2.323,11.463,2.5,5.381-1.867,5.959-8.487S3923.048,1483.256,3923.048,1483.256Z" transform="translate(-3822.274 -1438.463)" fill="#70a56a"/>
        <g id="Group_607" data-name="Group 607" transform="translate(0 18.978)">
          <path id="Path_715" data-name="Path 715" d="M3881.672,1494.773s11.89-6.658,6.342-15.693c0,0-4.438-5.547-9.194-6.975,0,0,2.536,13.475,0,13.792s-1.743-15.218-1.743-15.218-12.523-6.023-17.438-5.548c0,0,7.768,13.157,5.231,12.84s-11.253-13.633-11.253-13.633-12.841-2.377-14.9,5.23,1.269,11.414,3.171,11.89,14.108.316,13.79,1.9-8.559,4.122-13.156,2.7c0,0,5.073,12.522,11.729,11.888s8.719-4.755,12.841-5.072,7.132.792,5.072,1.9-9.036.363-12.364,3.194-6.024,4.573.16,5.841,17.277.475,19.5-4.279Z" transform="translate(-3838.065 -1463.987)" fill="#93c98e"/>
          <path id="Path_716" data-name="Path 716" d="M3883.041,1504.143a25.3,25.3,0,0,1-3.17-11.572c-3.8-12.047-37.091-22.826-37.091-22.826,42.322,17.12,34.873,27.582,34.873,27.582,1.14.665,2.851,3.837,4.037,6.271.168.414.438.988.835,1.766h0c.161.351.289.64.379.841,2.178,5.452,1.024,14.868,1.024,14.868l1.322.355A21.957,21.957,0,0,0,3883.041,1504.143Z" transform="translate(-3836.264 -1461.785)" fill="#70a56a"/>
        </g>
        <g id="Group_608" data-name="Group 608" transform="translate(52.218)">
          <path id="Path_717" data-name="Path 717" d="M3886.148,1490.838s-15.672-8.775-8.357-20.685c0,0,5.85-7.313,12.118-9.195,0,0-3.342,17.761,0,18.18s2.3-20.06,2.3-20.06,16.508-7.941,22.986-7.313c0,0-10.239,17.343-6.9,16.925s14.835-17.969,14.835-17.969,16.925-3.135,19.641,6.9-1.671,15.043-4.179,15.671-18.6.417-18.177,2.508,11.282,5.432,17.342,3.552c0,0-6.686,16.506-15.463,15.671s-11.491-6.268-16.925-6.687-9.4,1.045-6.686,2.507,11.911.48,16.3,4.21,7.941,6.029-.209,7.7-22.776.628-25.7-5.642Z" transform="translate(-3875.845 -1450.256)" fill="#93c98e"/>
          <path id="Path_718" data-name="Path 718" d="M3934.482,1457.848s-43.879,14.209-48.894,30.088a33.326,33.326,0,0,1-4.179,15.254s-6.767,10.275-2.909,22.785l1.741-.468s-1.521-12.411,1.351-19.6c.118-.265.287-.646.5-1.108h0c.525-1.025.877-1.782,1.1-2.328,1.564-3.209,3.819-7.391,5.323-8.268C3888.514,1494.2,3878.694,1480.415,3934.482,1457.848Z" transform="translate(-3875.286 -1447.355)" fill="#70a56a"/>
        </g>
        <path id="Path_719" data-name="Path 719" d="M3891.4,1535.251a30.7,30.7,0,0,0,30.7-30.7h-61.4A30.7,30.7,0,0,0,3891.4,1535.251Z" transform="translate(-3829.413 -1429.505)" fill="#96999c"/>
        <path id="Path_720" data-name="Path 720" d="M3897.925,1535.016a30.719,30.719,0,0,1-34.51-30.463h7.625A30.7,30.7,0,0,0,3897.925,1535.016Z" transform="translate(-3828.378 -1429.505)" fill="#aeb0b3"/>
        <path id="Path_721" data-name="Path 721" d="M3918.856,1525.235h-54.668a3.788,3.788,0,0,0-3.788,3.787h62.243A3.786,3.786,0,0,0,3918.856,1525.235Z" transform="translate(-3829.529 -1421.6)" fill="#96999c"/>
        <path id="Path_722" data-name="Path 722" d="M3922.609,1504.553h-62.162a.471.471,0,0,0,0,.941h62.162a.471.471,0,1,0,0-.941Z" transform="translate(-3829.691 -1429.505)" fill="#5a5b5e"/>
      </g>
      <g id="Group_610" data-name="Group 610" transform="translate(222.28 67.592)">
        <path id="Path_723" data-name="Path 723" d="M3825.926,1388.833c-.889-.135-3.571,2.343-3.571,2.343h0c-5.725.662-14.1,2.183-17.109,2.763-2.137.41-7.881-1.548-13.492-3.8-6.673-2.675-13.16-5.761-13.16-5.761-3.7-.19-7.909,6.567-.4,10.862,1.146.657,5.453,1.775,10.414,2.8h0c6.844,1.41,14.926,2.634,17.679,2.2,3.2-.5,12.242-3.811,17.625-6.344h0l.013-.007.061-.029a6.6,6.6,0,0,1,2.52-.686c1.008.061,3.253-1.785,3.322-2.278S3826.815,1388.967,3825.926,1388.833Z" transform="translate(-3718.408 -1357.318)" fill="#ea804e"/>
        <path id="Path_724" data-name="Path 724" d="M3822.143,1465.214l-3.153.64s-14.425-16.208-16.651-23.028c-1.192-3.645-8.808-5.221-16.766-7.277-6.928-1.791-14.115-3.949-17.547-8.159-7.378-9.046,4.634-20.163,4.634-20.163s12.771,7.591,23.788,15.432c7.7,5.48,14.545,11.082,15.577,14.3C3814.529,1444.789,3819.84,1459.673,3822.143,1465.214Z" transform="translate(-3721.616 -1348.586)" fill="#004182"/>
        <path id="Path_725" data-name="Path 725" d="M3803.863,1454.825h1.773c.594-.092,1.032-.265,1.642-.344a1.64,1.64,0,0,1,1.434.344l.017.018h7.532c.189-.271.007-.9-.169-1.359a1.072,1.072,0,0,0-.707-.643,8.137,8.137,0,0,1-3.816-1.744c-.81-.734-3.918-2.7-3.918-2.7l-.016,0c-.068,0-.393.1-1.806,1.294-.731.615-1.976-.87-1.976-.87a1.778,1.778,0,0,0-.408.554,1.872,1.872,0,0,0-.162,1.156,7.486,7.486,0,0,1-.539,2.793c-.176.517-.323.884-.323.884S3802.338,1454.634,3803.863,1454.825Z" transform="translate(-3707.555 -1332.849)" fill="#0c2f54"/>
        <path id="Path_726" data-name="Path 726" d="M3796.448,1422.658l-10.875,12.89c-6.928-1.791-14.115-3.949-17.547-8.159-7.378-9.046,4.634-20.163,4.634-20.163S3785.431,1414.817,3796.448,1422.658Z" transform="translate(-3721.616 -1348.586)" fill="#003563"/>
        <path id="Path_727" data-name="Path 727" d="M3790.465,1414.874s-.876,2.764-2.3,6.923c-1.806,5.26-4.493,12.748-7.409,19.692-.64,1.526-1.292,3.027-1.948,4.47-2.424,5.345-4.907,9.926-7.092,12.253-3.927,4.185-13.474,31.089-13.474,31.089l-2.379-.658s-3.316-22.973,8.432-36.047a.835.835,0,0,0,.238-.488l0,0c.155-1.938.715-10.6,1.931-19.384.3-2.155.637-4.315,1.019-6.384.023-.133.048-.264.073-.394,1.787-9.571,3.5-13.826,5.707-15.967l16.243,4.623Z" transform="translate(-3725.515 -1347.534)" fill="#004182"/>
        <path id="Path_728" data-name="Path 728" d="M3755.947,1471.536h1.772c.595-.094,1.033-.265,1.642-.345a1.639,1.639,0,0,1,1.435.345l.017.018h7.533c.189-.271.006-.9-.171-1.359a1.073,1.073,0,0,0-.705-.645,8.11,8.11,0,0,1-3.814-1.742c-.812-.734-3.919-2.7-3.919-2.7l-.017,0c-.068,0-.393.1-1.805,1.294-.731.615-1.976-.869-1.976-.869a1.8,1.8,0,0,0-.408.553,1.881,1.881,0,0,0-.162,1.157,7.483,7.483,0,0,1-.54,2.793c-.174.517-.323.883-.323.883S3754.421,1471.345,3755.947,1471.536Z" transform="translate(-3725.868 -1326.464)" fill="#0c2f54"/>
        <path id="Path_729" data-name="Path 729" d="M3767.349,1391.206s-2.718,6.648-5.852,13.12c-2.636,5.442-5.563,10.756-7.421,11.891-2.618,1.6-9.83,6.111-14.509,9.476,0,0-3.652-.028-4.218.672s-1.877,3.84-1.494,4.157,3.284.17,3.988-.553a6.593,6.593,0,0,1,2.326-1.189l.063-.019.016,0h0c5.685-1.749,14.6-5.392,17.3-7.175,2.323-1.534,7.478-7.881,11.586-13.53l0,0c2.979-4.094,5.41-7.821,5.817-9.079C3777.617,1390.74,3769.96,1388.575,3767.349,1391.206Z" transform="translate(-3733.786 -1355.112)" fill="#f99967"/>
        <path id="Path_730" data-name="Path 730" d="M3772.645,1374.823a14.014,14.014,0,0,0-.974-1.258,3.055,3.055,0,0,0,1.2-.181c.954-.394,1.39-3.422,1.245-4.321s-1.467-3.5-3.1-3.756-3.323,1.556-3.323,1.556c.3-1.31,3.068-2.065,3.068-2.065-5.7,1.049-5.406,4.847-5.367,5.2-5.213-1.856-8.274,7.96-8.274,7.96l13.5,7.957s.035-2.169,1.323-2.029C3773.955,1384.1,3775.628,1379.172,3772.645,1374.823Z" transform="translate(-3724.868 -1364.8)" fill="#1a1818"/>
        <path id="Path_731" data-name="Path 731" d="M3771.7,1389.94c-3.1,1.461-7.209-.642-7.188-.665.266-.266.173-1.062-.071-2.1a15.29,15.29,0,0,0-1.881-4.338c-.221-.377-.442-.753-.708-1.151l.354-.133,6.02-2.412s.974,1.748,1.991,3.341c.863,1.328,1.771,2.524,2.169,2.48C3772.4,1384.939,3776.388,1387.683,3771.7,1389.94Z" transform="translate(-3723.06 -1359.319)" fill="#f99967"/>
        <path id="Path_732" data-name="Path 732" d="M3768.027,1379.573c-.155,2.146-.884,6.019-3.785,7.436a15.3,15.3,0,0,0-1.881-4.337Z" transform="translate(-3722.865 -1359.154)" fill="#ea804e"/>
        <path id="Path_733" data-name="Path 733" d="M3763.953,1387.768s7.837-3.089,5.838-7.939-2.333-8.517-7.421-6.749-5.291,4.017-5.019,5.8S3761.862,1388.447,3763.953,1387.768Z" transform="translate(-3724.809 -1361.808)" fill="#f99967"/>
        <path id="Path_734" data-name="Path 734" d="M3767.142,1378.863c3.619-.511,4.674-1.974,4.674-1.974a10.022,10.022,0,0,1-5.291-4.22s-4.066-1.372-7.081.92a2.052,2.052,0,0,0-.381.85c-.69-.225-1.73-.167-2.329,1.786-.9,2.933,2.3,6.135,2.3,6.135.777-.219-.1-2.833-.223-4.229a6.618,6.618,0,0,1,.763-2.964c.384.5,4.2,5.3,8.861,5.486a19.671,19.671,0,0,1-4.7-2.525A6.016,6.016,0,0,0,3767.142,1378.863Z" transform="translate(-3725.076 -1361.948)" fill="#313133"/>
        <path id="Path_735" data-name="Path 735" d="M3789.177,1398.549c-.066-.234-.139-.477-.212-.726a18.387,18.387,0,0,0,1.978-5.927,11.886,11.886,0,0,0-.376-5.8s-5.436-2.883-7.835-3.249a.179.179,0,0,0-.031-.01.94.94,0,0,0-.1-.008c-2.423-.334-7.669.737-7.669.737a3.8,3.8,0,0,1-1.843,4.489c-2.854,1.8-5.9-.46-5.9-.46-.092.063-.191.13-.292.2h0s-7.511,4.956-8.186,6.089-3.562,6.741-3.562,6.741.915,4.708,11.063,5.1a23.39,23.39,0,0,1,1.681,5.642c.8,6.39-.128,11.431.81,15.161s17.869,1.6,20.934.885,2.377-3.992,2.613-7.172C3792.548,1416.248,3790.176,1402.074,3789.177,1398.549Z" transform="translate(-3725.621 -1357.934)" fill="#45a735"/>
        <path id="Path_736" data-name="Path 736" d="M3782.453,1389.776a18.369,18.369,0,0,1-1.992,5.953c-.266-1.173-1.35-5.466-3.1-7.414A14.978,14.978,0,0,1,3782.453,1389.776Z" transform="translate(-3717.131 -1355.813)" fill="#248332"/>
      </g>
      <g id="Group_614" data-name="Group 614" transform="translate(128.995 107.004)">
        <path id="Path_737" data-name="Path 737" d="M3731.183,1421.159a53.428,53.428,0,0,1,3.832-4.274,11.666,11.666,0,0,1,3.829-1.084c.17.16.177.391-.192.717s-1.778,1.147-1.577,1.24,4.452-2.023,5.066-1.312-.349,3.65-1.986,5.059-6.527,2.01-6.833,2.206C3730.713,1425.378,3731.183,1421.159,3731.183,1421.159Z" transform="translate(-3641.509 -1384.728)" fill="#ea804e"/>
        <path id="Path_738" data-name="Path 738" d="M3691,1416.084s4.53,5.375,10.3,3.126a17.5,17.5,0,0,0,1.259-5.215c0-.272.005-.536.009-.788.03-2.492.115-3.891.115-3.891h-.006c-.262-.109-8.821-3.623-8.813-3.331C3694.008,1412.726,3691,1416.084,3691,1416.084Z" transform="translate(-3656.854 -1388.478)" fill="#f99967"/>
        <path id="Path_739" data-name="Path 739" d="M3693.693,1407.16a13.392,13.392,0,0,0,7.846,5.616c.031-2.493.115-3.891.115-3.891h-.005C3701.411,1408.82,3693.448,1406.71,3693.693,1407.16Z" transform="translate(-3655.826 -1388.046)" fill="#ea804e"/>
        <path id="Path_740" data-name="Path 740" d="M3704.177,1412.59s-9.626,2.263-10.943-3.752-3.447-9.776,2.644-11.475,7.789.334,8.717,2.234S3706.646,1411.847,3704.177,1412.59Z" transform="translate(-3656.557 -1392.01)" fill="#f99967"/>
        <path id="Path_741" data-name="Path 741" d="M3694.922,1411.78c-.134.084-2.2.721-6.126-7.092a6.808,6.808,0,0,1,.4-6.225c1.434-2.344,6.524-4.186,10.752-4.99s5.242,1.577,6.239,3.968c1.045,2.51,4.064,4.576,4.064,4.576-3.646,2.038-8.038-.876-9.56-.4s-2.058,2.876-2.172,3.645-.289,1.407-2.2.72-.866,2.712-.561,3.361C3695.757,1409.347,3696.017,1411.078,3694.922,1411.78Z" transform="translate(-3657.914 -1393.314)" fill="#1a1818"/>
        <g id="Group_611" data-name="Group 611" transform="translate(0 73.895)">
          <path id="Path_742" data-name="Path 742" d="M3678.507,1519.385h-5.828c-1.22,0-2.58-1.24-2.92-3.509s-2.85-3.51-3.394-5.367,2.241-4.474,2.241-4.474l.466-.607.484-.631,4.617,1.1s.113,1.114.185,2.533c.05,1.024.077,2.209.02,3.247-.137,2.479.684,5.146,2.856,5.628S3678.507,1519.385,3678.507,1519.385Z" transform="translate(-3666.295 -1424.603)" fill="#163056"/>
          <path id="Path_743" data-name="Path 743" d="M3709.05,1517.785H3693.6a1.281,1.281,0,0,1-.327-.1c-1.033-.531-.709-4.6-.586-5.854.023-.232.04-.369.04-.369s5.432-4.472,6.18-1.047c.025.106.051.211.08.315h0c.943,3.206,5.158,4.661,7.594,5.068A2.679,2.679,0,0,1,3709.05,1517.785Z" transform="translate(-3656.264 -1422.948)" fill="#163056"/>
          <path id="Path_744" data-name="Path 744" d="M3708.606,1451.151s-.826,10.293-1.795,22.665c-1.318,16.809-2.9,37.455-3.06,41.365-.271,6.792-1.358,17.656-1.358,17.656s-2.579,2.581-7.741,1.493a177.817,177.817,0,0,1-5.914-31.916c-.021-.269-.04-.54-.061-.811-1.222-16.7-3.122-51.877-3.122-51.877Z" transform="translate(-3658.935 -1445.651)" fill="#5f5346"/>
          <path id="Path_745" data-name="Path 745" d="M3708.606,1451.151s-.826,10.293-1.795,22.665l-18.073,28.6c-.021-.269-.04-.54-.061-.811-1.222-16.7-3.122-51.877-3.122-51.877Z" transform="translate(-3658.935 -1445.651)" fill="#483932"/>
          <path id="Path_746" data-name="Path 746" d="M3711.56,1453.5s-14.869,37.278-24.648,54.8-12.833,22.408-12.833,22.408-5.6-2.24-6.112-3.769c0,0,3.738-33.821,10.287-42.065,3.7-4.658,8.046-18.639,8.25-23.528s1.324-14.565,1.324-14.565Z" transform="translate(-3665.656 -1446.777)" fill="#5f5346"/>
        </g>
        <g id="Group_612" data-name="Group 612" transform="translate(4.57 28.202)">
          <path id="Path_747" data-name="Path 747" d="M3676.888,1447.657a50.326,50.326,0,0,1-.667,5.371,11.016,11.016,0,0,1-2.38,2.9c-.218-.031-.347-.206-.237-.656s.758-1.845.553-1.809-2.358,3.961-3.214,3.74-1.7-3.012-1.186-4.983,3.971-5.067,4.1-5.385C3674.982,1444.141,3676.888,1447.657,3676.888,1447.657Z" transform="translate(-3669.602 -1401.449)" fill="#ea804e"/>
          <path id="Path_748" data-name="Path 748" d="M3674.285,1461.107c1.646.528,1.911.409,1.911.409s8.01-14.586,8.822-15.921,17.01-16.356,17.01-16.356l-4.164-15.521s-18.424,23.856-20.413,27.28c-3.288,5.656-5.213,18.795-5.213,18.795A4.826,4.826,0,0,0,3674.285,1461.107Z" transform="translate(-3668.595 -1413.718)" fill="#003563"/>
        </g>
        <path id="Path_749" data-name="Path 749" d="M3713.307,1436.294c-.058,3.187-.242,6.771-.493,10.41-.016.216-.03.432-.046.647-.16,2.256-.333,4.516-.532,6.719q-.121,1.327-.253,2.615l-.014.116c-.007.321-.045.669-.082.987-.812,8.255-1.664,14.776-1.821,14.877a.93.93,0,0,1-.634.162c-2.166-.272-8.623.219-13.911-.932a40.078,40.078,0,0,1-12.375-5.132c-.541-.32-1.772-1.166-1.673-1.8.1-.7.28-1.7.512-2.962a160.357,160.357,0,0,0,2.66-20.783c.09-1.646.226-3.271.4-4.871a73.982,73.982,0,0,1,2.156-11.635c1.813-6.528,4.478-11.527,7.82-13.482.437-.245,2.786,1.25,4.945,2.635a9.526,9.526,0,0,0,6.132,1.452l1.8,1.986a20.069,20.069,0,0,1,5.123,10.68c.048.354.088.728.123,1.128A70.833,70.833,0,0,1,3713.307,1436.294Z" transform="translate(-3660.496 -1386.476)" fill="#00478e"/>
        <path id="Path_750" data-name="Path 750" d="M3708.6,1432.356c-.057,3.187-.242,6.771-.492,10.411l-.045.647c-12.366-7.738-14.27-21.9-14.27-21.9a33.827,33.827,0,0,1,14.641,3.665A70.568,70.568,0,0,1,3708.6,1432.356Z" transform="translate(-3655.786 -1382.538)" fill="#003563"/>
        <g id="Group_613" data-name="Group 613" transform="translate(36.901 31.383)">
          <path id="Path_751" data-name="Path 751" d="M3747.643,1421.451c-.638-1.725-1.628-1.613-1.628-1.613s-18.384,4.582-20.035,4.778-19.8-7.085-19.8-7.085-7.143-3.207-10.489-.279c-2.908,2.543-3.039,5.767-2.358,8.471a8.087,8.087,0,0,0,6.836,6.028c7.4.943,22.176,2.717,25.272,2.288,6.89-.961,22.5-9.973,22.5-9.973A5.8,5.8,0,0,0,3747.643,1421.451Z" transform="translate(-3692.994 -1416.019)" fill="#00478e"/>
        </g>
      </g>
      <g id="man" transform="translate(310.898 36.727)">
        <g id="Group_615" data-name="Group 615" transform="translate(44.587 65.9)">
          <path id="Path_752" data-name="Path 752" d="M3866.246,1444.638s2.554,2.368,2.057,4.05-2.805,2.8-3.116,4.86-1.558,3.176-2.679,3.176h-5.346s-.825-1.446,1.167-1.882,2.745-2.852,2.621-5.095a40.288,40.288,0,0,1,.187-5.233l4.236-1Z" transform="translate(-3819.904 -1369.751)" fill="#163056"/>
          <path id="Path_753" data-name="Path 753" d="M3844.668,1454.979a9.849,9.849,0,0,1-2.419.279h-12.09c.04-.36.322-1.641,2.3-1.96,2.233-.364,6.1-1.661,6.965-4.518.028-.091.053-.185.074-.28.686-3.052,5.668.933,5.668.933s.015.123.036.33C3845.319,1450.887,3845.614,1454.507,3844.668,1454.979Z" transform="translate(-3830.159 -1368.286)" fill="#163056"/>
          <path id="Path_754" data-name="Path 754" d="M3832.25,1394.16s.757,9.443,1.646,20.8c1.209,15.421,2.664,34.363,2.807,37.951.249,6.231,1.246,16.2,1.246,16.2s2.366,2.369,7.1,1.37a162.962,162.962,0,0,0,5.425-29.281c.018-.247.037-.495.056-.744,1.122-15.326,2.865-47.6,2.865-47.6Z" transform="translate(-3829.361 -1389.114)" fill="#164181"/>
          <path id="Path_755" data-name="Path 755" d="M3832.25,1394.16s.757,9.443,1.646,20.8l16.581,26.237c.018-.247.037-.495.056-.744,1.122-15.326,2.865-47.6,2.865-47.6Z" transform="translate(-3829.361 -1389.114)" fill="#163056"/>
          <path id="Path_756" data-name="Path 756" d="M3834.751,1396.317s13.644,34.2,22.614,50.273,11.775,20.559,11.775,20.559,5.138-2.056,5.606-3.458c0,0-3.431-31.029-9.438-38.592-3.395-4.275-7.382-17.1-7.569-21.587s-1.215-13.363-1.215-13.363Z" transform="translate(-3828.404 -1390.148)" fill="#164181"/>
        </g>
        <g id="Group_616" data-name="Group 616" transform="translate(0 26.245)">
          <path id="Path_757" data-name="Path 757" d="M3806.754,1381.412a40.9,40.9,0,0,0-4.324-.8,8.924,8.924,0,0,0-2.831,1.131c-.029.175.076.319.452.345s1.615-.134,1.537.016-3.648.852-3.687,1.57,1.917,2.053,3.568,2.143,4.9-1.83,5.18-1.855C3809.009,1383.754,3806.754,1381.412,3806.754,1381.412Z" transform="translate(-3797.9 -1354.139)" fill="#f99967"/>
          <path id="Path_758" data-name="Path 758" d="M3803.276,1389.671c-.531-1.691-.407-1.96-.407-1.96s15-8.111,16.375-8.933,16.876-17.32,16.876-17.32l15.878,4.37s-24.572,18.717-28.093,20.734c-5.818,3.33-19.3,5.215-19.3,5.215A4.927,4.927,0,0,1,3803.276,1389.671Z" transform="translate(-3796.006 -1361.458)" fill="#e07230"/>
        </g>
        <path id="Path_759" data-name="Path 759" d="M3833.971,1357.7s-5.565,9.794-11.007,11.073a14.862,14.862,0,0,1,1.551-5.541c-.542-.64-1.019-1.227-1.431-1.754a33.123,33.123,0,0,1-2.021-2.829l1.847-4.965,1.253-3.367a16.234,16.234,0,0,0,1.958,2.821A13.32,13.32,0,0,0,3833.971,1357.7Z" transform="translate(-3789.047 -1339.472)" fill="#f99967"/>
        <path id="Path_760" data-name="Path 760" d="M3826.121,1352.355a10.332,10.332,0,0,1-3.037,8.34,33.029,33.029,0,0,1-2.021-2.829l1.847-4.965A10.559,10.559,0,0,1,3826.121,1352.355Z" transform="translate(-3789.047 -1338.693)" fill="#ea804e"/>
        <path id="Path_761" data-name="Path 761" d="M3821.948,1361.3s8.317-3.242,6.218-8.391-2.438-9.034-7.837-7.182-5.624,4.235-5.342,6.125S3819.731,1362.012,3821.948,1361.3Z" transform="translate(-3791.399 -1341.404)" fill="#f99967"/>
        <path id="Path_762" data-name="Path 762" d="M3862.188,1406.294c-3.355,4.824-28.439,11.269-28.142,7.93a36.186,36.186,0,0,0,0-6.586q-.092-1.073-.265-2.275a52.475,52.475,0,0,0-5.528-16.558c-.254-.489-.517-.981-.79-1.482a51.01,51.01,0,0,1-3.479-7.814c-1.737-5.022-2.438-9.827-1.561-12.969a.364.364,0,0,1,.015-.044c5.243-2.425,7.274-11.828,7.274-11.828s17.891,3.21,27.911,27.056C3857.618,1381.723,3865.107,1402.1,3862.188,1406.294Z" transform="translate(-3788.674 -1337.808)" fill="#ed833e"/>
        <path id="Path_763" data-name="Path 763" d="M3832.325,1402.052q-.093-1.074-.265-2.275a52.461,52.461,0,0,0-5.528-16.559c.58-3.513,1.38-6.437,2.258-7.751,3.569-5.347,5.646-6.184,5.646-6.184S3839.789,1391.849,3832.325,1402.052Z" transform="translate(-3786.959 -1332.222)" fill="#e07230"/>
        <g id="Group_617" data-name="Group 617" transform="translate(6.851 21.546)">
          <path id="Path_764" data-name="Path 764" d="M3813.174,1389.107a53.441,53.441,0,0,0-5.715.536,11.655,11.655,0,0,0-3.151,2.431c.028.232.208.375.689.272s1.981-.745,1.936-.528-4.276,2.372-4.068,3.288,3.14,1.894,5.247,1.416,5.5-4.049,5.84-4.178C3816.843,1391.241,3813.174,1389.107,3813.174,1389.107Z" transform="translate(-3802.857 -1346.192)" fill="#f99967"/>
          <path id="Path_765" data-name="Path 765" d="M3809.791,1402.85c-.992-1.6-.277-2.333-.277-2.333s15.288-11.97,16.487-13.179,6.749-20.463,6.749-20.463,1.91-7.793,6.384-8.653c3.888-.746,6.575,1.176,8.334,3.432a8.293,8.293,0,0,1,.562,9.324c-3.9,6.576-11.778,19.632-14.078,21.863-5.116,4.965-22.24,11.9-22.24,11.9A5.921,5.921,0,0,1,3809.791,1402.85Z" transform="translate(-3800.408 -1358.058)" fill="#ed833e"/>
        </g>
        <path id="Path_766" data-name="Path 766" d="M3830.218,1344.413c.058-.115.228-.238.642-.365a1.728,1.728,0,0,0-.838-.031,2.2,2.2,0,0,0-1.866-1.548,1.317,1.317,0,0,1,.836.77c-1.46-.925-4.163-1.193-10.915,1.056-8.9,2.964-4.452,8.129-3.1,8.542s3.831-2.243,6.063-2.605,3.44,2.746,4.292,3,.368-.449,1.257-1.158,1.4.958,1.385,2.13,1.719,2.281,1.719,2.281l1.021-1.87c1.018-1.871.741-8.657-.232-9.878C3830.392,1344.633,3830.307,1344.522,3830.218,1344.413Z" transform="translate(-3792.257 -1342.47)" fill="#1a1818"/>
      </g>
      <rect id="Rectangle_20" data-name="Rectangle 20" width="78.823" height="103.53" transform="translate(333.376 189.6)" fill="#464749"/>
      <rect id="Rectangle_21" data-name="Rectangle 21" width="78.824" height="103.53" transform="translate(309.072 189.601)" fill="#818386"/>
      <path id="Path_767" data-name="Path 767" d="M3877.912,1453.072v15.481l-24.3-15.481Z" transform="translate(-3465.711 -1263.472)" fill="#313133"/>
      <g id="Group_618" data-name="Group 618" transform="translate(271.678 110.913)">
        <path id="Path_768" data-name="Path 768" d="M3774.161,1397.971h-.662v-2.049h.069v0h4.994a4.966,4.966,0,1,0,.063.785c0-.039,0-.076,0-.115h-4.461Z" transform="translate(-3768.693 -1391.74)" fill="#fff"/>
      </g>
    </g>
    <g id="Group_4159" data-name="Group 4159" transform="translate(-10027.004 9366.168)">
      <path id="Path_6884" data-name="Path 6884" d="M0,0H67.786V18.383H0Z" transform="translate(0)" fill="#70a56a"/>
      <rect id="Rectangle_202" data-name="Rectangle 202" width="12.638" height="18.383" transform="translate(55.148)" fill="#43753e"/>
      <path id="Path_6883" data-name="Path 6883" d="M-9217,9417l12.638,9.535V9417Z" transform="translate(9272.147 -9417)" fill="#275922"/>
    </g>
  </g>
</svg>
