<svg xmlns="http://www.w3.org/2000/svg" width="414.844" height="251.049" viewBox="0 0 414.844 251.049"><defs><style>.a{fill:#e0e1e3;}.b{fill:#8abb2a;}.c{fill:#70a56a;}.d{fill:#93c98e;}.e{fill:#96999c;}.f{fill:#aeb0b3;}.g{fill:#5a5b5e;}.h{fill:#4e2a0e;}.i{fill:#9a673d;}.j{fill:#2d1a10;}.k{fill:#ea804e;}.l{fill:#fcb95e;}.m{fill:#f7ad54;}.n{fill:#f99967;}.o{fill:#8cc63f;}.p{fill:#5f5346;}.q{fill:#483932;}.r{fill:#689325;}.s{fill:#c95c45;}.t{fill:#b74b39;}.u{fill:#464749;}.v{fill:#818386;}.w{fill:#313133;}.x{fill:#fff;}.y{fill:#43753e;}.z{fill:#275922;}.aa{fill:#2b1100;}.ab{fill:#f7b09e;}.ac{fill:#cd5016;}.ad{fill:#f98658;}.ae{fill:#0c060e;}.af{fill:none;stroke:#ea804e;stroke-linecap:round;stroke-linejoin:round;stroke-width:0.25px;}.ag{fill:#ea916e;}</style></defs><g transform="translate(-3016.358 -489.587)"><path class="a" d="M3232.955,645.237h-16.536V594.09h1.706v-.065h124.727a124.024,124.024,0,1,0,1.559,19.617c0-.968-.051-1.922-.073-2.885H3232.955Z"/><path class="b" d="M3404.706,728.632c-4.306-3.146-13.1-1.022-19.6,1.251a29.63,29.63,0,0,0-3.569-4.142c13.991-9.012,33.314-28.232,23.072-29.859-8.9-1.414-20.918,15.885-27.339,26.417-6.668-4.485-16.885-7.782-32.485-6.639-40.485,2.968-72.112-23.146-95.426-14.437-18.536,6.925-35.524,10.8-51.907,9.48.705-11.969.858-35.467-8.54-37.9-9.542-2.475-.183,24.212,5.02,37.537q-1.833-.236-3.654-.56c-3.368-6.64-8.918-15.332-15.014-15.629-5.738-.279,1.346,7.534,8.315,14.153-20.034-4.206-43.8,12.079-44.2,31.337h250.125a23.228,23.228,0,0,0-2.406-6.517C3396.772,732.928,3409.384,732.05,3404.706,728.632Z"/><path class="c" d="M3218.205,686.221s-9.18,6.827-10.969,6.413,6.709-7.369,6.709-7.369c-3.2-1.537-13.14-.573-13.14-.573s-3.312,10.678-4.945,9.836,3.415-9.306,3.415-9.306c-3.562-.215-7.931,2.429-7.931,2.429-5.982,4.724.393,12.159.393,12.159a18.163,18.163,0,0,1-5,7.023,15.787,15.787,0,0,0-5.769,11.118l.98.087s1.551-6.637,4.372-9.778c.109-.113.269-.276.466-.474.46-.427.781-.745,1-.983,1.4-1.35,3.344-3.067,4.279-3.233a1.777,1.777,0,0,1-.04-.47c.012.15.025.306.04.47.319,3.758,7.612,7.04,12.1,7.715s3.1-1.169,1.553-3.9-6.436-3.957-7.552-5.216,1.19-1.263,3.893-.027,3.072,4.525,7.407,6.6,10.859-5.118,10.859-5.118c-3.456-.175-8.389-3.928-8.21-5.076s8.375,1.981,9.777,2.131,4.59-1.592,5.081-7.238S3218.205,686.221,3218.205,686.221Z"/><path class="d" d="M3169.449,690.46s10.14-5.679,5.409-13.384c0,0-3.785-4.731-7.842-5.948,0,0,2.164,11.492,0,11.762s-1.486-12.979-1.486-12.979-10.68-5.137-14.872-4.731c0,0,6.625,11.221,4.462,10.951s-9.6-11.627-9.6-11.627-10.95-2.027-12.708,4.462,1.083,9.734,2.7,10.14,12.032.27,11.761,1.621-7.3,3.515-11.22,2.3c0,0,4.325,10.68,10,10.139s7.436-4.056,10.951-4.326,6.083.675,4.324,1.621-7.706.311-10.544,2.724-5.137,3.9.136,4.983,14.736.4,16.627-3.651Z"/><path class="c" d="M3172.154,700.329a21.567,21.567,0,0,1-2.7-9.869c-3.244-10.274-31.635-19.467-31.635-19.467,36.1,14.6,29.743,23.524,29.743,23.524.972.567,2.431,3.272,3.443,5.349.145.353.373.843.713,1.506h0c.136.3.247.546.323.717,1.857,4.65.873,12.681.873,12.681l1.127.3A18.729,18.729,0,0,0,3172.154,700.329Z"/><path class="d" d="M3185.58,682.63s-13.365-7.484-7.128-17.642c0,0,4.99-6.237,10.335-7.842,0,0-2.85,15.148,0,15.505s1.96-17.108,1.96-17.108,14.079-6.772,19.6-6.237c0,0-8.732,14.791-5.879,14.434s12.653-15.325,12.653-15.325,14.435-2.674,16.751,5.881-1.426,12.83-3.565,13.365-15.859.356-15.5,2.139,9.623,4.632,14.791,3.029c0,0-5.7,14.077-13.189,13.365s-9.8-5.346-14.434-5.7-8.019.891-5.7,2.138,10.157.409,13.9,3.591,6.771,5.142-.178,6.567-19.426.535-21.919-4.812Z"/><path class="c" d="M3227.28,656.968s-37.424,12.118-41.7,25.661a28.43,28.43,0,0,1-3.563,13.009,24.682,24.682,0,0,0-2.481,19.432l1.485-.4s-1.3-10.585,1.153-16.714c.1-.226.245-.551.426-.945h0c.448-.875.749-1.52.939-1.985,1.334-2.737,3.257-6.3,4.539-7.052C3188.075,687.975,3179.7,676.214,3227.28,656.968Z"/><path class="e" d="M3185.129,738.206a26.182,26.182,0,0,0,26.182-26.181H3158.95A26.181,26.181,0,0,0,3185.129,738.206Z"/><path class="f" d="M3191.572,738.006a26.208,26.208,0,0,1-29.432-25.98h6.5A26.185,26.185,0,0,0,3191.572,738.006Z"/><path class="e" d="M3208.443,736.405h-46.624a3.23,3.23,0,0,0-3.23,3.23h53.084a3.229,3.229,0,0,0-3.228-3.23Z"/><path class="g" d="M3211.5,712.025h-53.016a.4.4,0,0,0,0,.8H3211.5a.4.4,0,1,0,0-.8Z"/><rect class="h" width="49.087" height="68.612" transform="translate(3219.881 671.023)"/><rect class="i" width="49.087" height="68.612" transform="translate(3204.745 671.023)"/><path class="j" d="M3253.832,671.023l15.136,10.3v-10.3Z"/><path class="c" d="M3102.3,686.221s-9.18,6.827-10.969,6.413,6.708-7.369,6.708-7.369c-3.2-1.537-13.14-.573-13.14-.573s-3.311,10.678-4.944,9.836,3.414-9.306,3.414-9.306c-3.563-.215-7.931,2.429-7.931,2.429-5.981,4.724.393,12.159.393,12.159a18.16,18.16,0,0,1-5,7.023,15.784,15.784,0,0,0-5.769,11.118l.979.087s1.552-6.637,4.373-9.778c.109-.113.269-.276.466-.474.459-.427.781-.745,1-.983,1.4-1.35,3.344-3.067,4.279-3.233a1.8,1.8,0,0,1-.041-.47c.013.15.027.306.041.47.319,3.758,7.611,7.04,12.1,7.715s3.1-1.169,1.553-3.9-6.437-3.957-7.552-5.216,1.19-1.263,3.893-.027,3.073,4.525,7.408,6.6,10.859-5.118,10.859-5.118c-3.456-.175-8.39-3.928-8.21-5.076s8.375,1.981,9.777,2.131,4.59-1.592,5.082-7.238S3102.3,686.221,3102.3,686.221Z"/><path class="d" d="M3053.549,690.46s10.14-5.679,5.409-13.384c0,0-3.785-4.731-7.842-5.948,0,0,2.164,11.492,0,11.762s-1.486-12.979-1.486-12.979-10.68-5.137-14.872-4.731c0,0,6.624,11.221,4.461,10.951s-9.6-11.627-9.6-11.627-10.95-2.027-12.707,4.462,1.081,9.734,2.7,10.14,12.032.27,11.761,1.621-7.3,3.515-11.22,2.3c0,0,4.326,10.68,10,10.139s7.437-4.056,10.952-4.326,6.083.675,4.324,1.621-7.706.311-10.544,2.724-5.137,3.9.136,4.983,14.735.4,16.627-3.651Z"/><path class="c" d="M3056.254,700.329a21.579,21.579,0,0,1-2.7-9.869c-3.244-10.274-31.634-19.467-31.634-19.467,36.1,14.6,29.742,23.524,29.742,23.524.973.567,2.431,3.272,3.443,5.349.144.353.372.843.712,1.506h0c.137.3.247.546.323.717,1.858,4.65.874,12.681.874,12.681l1.126.3A18.728,18.728,0,0,0,3056.254,700.329Z"/><path class="d" d="M3069.681,682.63s-13.366-7.484-7.129-17.642c0,0,4.99-6.237,10.336-7.842,0,0-2.85,15.148,0,15.505s1.96-17.108,1.96-17.108,14.078-6.772,19.6-6.237c0,0-8.732,14.791-5.88,14.434s12.652-15.325,12.652-15.325,14.434-2.674,16.751,5.881-1.425,12.83-3.564,13.365-15.861.356-15.5,2.139,9.622,4.632,14.791,3.029c0,0-5.7,14.077-13.188,13.365s-9.8-5.346-14.434-5.7-8.02.891-5.7,2.138,10.158.409,13.9,3.591,6.772,5.142-.177,6.567-19.425.535-21.919-4.812Z"/><path class="c" d="M3111.38,656.968s-37.423,12.118-41.7,25.661a28.4,28.4,0,0,1-3.564,13.009,24.683,24.683,0,0,0-2.481,19.432l1.485-.4s-1.3-10.585,1.152-16.714c.1-.226.246-.551.426-.945h0c.448-.875.749-1.52.938-1.985,1.334-2.737,3.257-6.3,4.54-7.052C3072.176,687.975,3063.8,676.214,3111.38,656.968Z"/><path class="e" d="M3069.23,738.206a26.181,26.181,0,0,0,26.181-26.181H3043.05A26.181,26.181,0,0,0,3069.23,738.206Z"/><path class="f" d="M3075.672,738.006a26.2,26.2,0,0,1-29.431-25.98h6.5A26.186,26.186,0,0,0,3075.672,738.006Z"/><path class="e" d="M3092.543,736.405h-46.624a3.231,3.231,0,0,0-3.231,3.23h53.085a3.23,3.23,0,0,0-3.228-3.23Z"/><path class="g" d="M3095.61,712.025H3042.6a.4.4,0,0,0,0,.8h53.014a.4.4,0,0,0,0-.8Z"/><path class="c" d="M3414.8,686.221s-9.181,6.827-10.97,6.413,6.708-7.369,6.708-7.369c-3.2-1.537-13.139-.573-13.139-.573s-3.312,10.678-4.945,9.836,3.415-9.306,3.415-9.306c-3.562-.215-7.931,2.429-7.931,2.429-5.981,4.724.392,12.159.392,12.159a18.133,18.133,0,0,1-5,7.023,15.788,15.788,0,0,0-5.769,11.118l.98.087s1.552-6.637,4.372-9.778c.111-.113.27-.276.466-.474.46-.427.782-.745,1-.983,1.4-1.35,3.343-3.067,4.278-3.233a1.718,1.718,0,0,1-.041-.47c.013.15.027.306.041.47.319,3.758,7.611,7.04,12.1,7.715s3.1-1.169,1.554-3.9-6.437-3.957-7.552-5.216,1.19-1.263,3.894-.027,3.071,4.525,7.407,6.6,10.859-5.118,10.859-5.118c-3.455-.175-8.39-3.928-8.21-5.076s8.375,1.981,9.777,2.131,4.589-1.592,5.082-7.238S3414.8,686.221,3414.8,686.221Z"/><path class="d" d="M3366.05,690.46s10.141-5.679,5.409-13.384c0,0-3.785-4.731-7.841-5.948,0,0,2.163,11.492,0,11.762s-1.486-12.979-1.486-12.979-10.681-5.137-14.872-4.731c0,0,6.625,11.221,4.462,10.951s-9.6-11.627-9.6-11.627-10.951-2.027-12.709,4.462,1.082,9.734,2.7,10.14,12.032.27,11.761,1.621-7.3,3.515-11.22,2.3c0,0,4.326,10.68,10,10.139s7.436-4.056,10.951-4.326,6.083.675,4.326,1.621-7.706.311-10.545,2.724-5.137,3.9.136,4.983,14.735.4,16.628-3.651Z"/><path class="c" d="M3368.754,700.329a21.579,21.579,0,0,1-2.7-9.869c-3.245-10.274-31.634-19.467-31.634-19.467,36.095,14.6,29.741,23.524,29.741,23.524.972.567,2.431,3.272,3.443,5.349.144.353.374.843.712,1.506h0c.137.3.246.546.323.717,1.858,4.65.873,12.681.873,12.681l1.127.3A18.724,18.724,0,0,0,3368.754,700.329Z"/><path class="d" d="M3382.181,682.63s-13.366-7.484-7.128-17.642c0,0,4.99-6.237,10.335-7.842,0,0-2.85,15.148,0,15.505s1.96-17.108,1.96-17.108,14.079-6.772,19.6-6.237c0,0-8.733,14.791-5.881,14.434s12.652-15.325,12.652-15.325,14.434-2.674,16.751,5.881-1.425,12.83-3.564,13.365-15.86.356-15.5,2.139,9.622,4.632,14.79,3.029c0,0-5.7,14.077-13.188,13.365s-9.8-5.346-14.435-5.7-8.019.891-5.7,2.138,10.158.409,13.9,3.591,6.772,5.142-.178,6.567-19.425.535-21.919-4.812Z"/><path class="c" d="M3423.88,656.968s-37.423,12.118-41.7,25.661a28.413,28.413,0,0,1-3.564,13.009,24.687,24.687,0,0,0-2.481,19.432l1.485-.4s-1.3-10.585,1.153-16.714c.1-.226.245-.551.426-.945h0c.448-.875.748-1.52.938-1.985,1.334-2.737,3.257-6.3,4.54-7.052C3384.675,687.975,3376.3,676.214,3423.88,656.968Z"/><path class="e" d="M3381.73,738.206a26.183,26.183,0,0,0,26.182-26.181h-52.361a26.179,26.179,0,0,0,26.179,26.181Z"/><path class="f" d="M3388.174,738.006a26.2,26.2,0,0,1-29.433-25.98h6.5A26.185,26.185,0,0,0,3388.174,738.006Z"/><path class="e" d="M3405.042,736.405h-46.624a3.23,3.23,0,0,0-3.23,3.23h53.085a3.23,3.23,0,0,0-3.228-3.23Z"/><path class="g" d="M3408.1,712.025H3355.09a.4.4,0,1,0,0,.8H3408.1a.4.4,0,0,0,0-.8Z"/><path class="k" d="M3297.63,574.159c-.758-.115-3.045,2-3.045,2h0c-4.882.565-12.023,1.861-14.591,2.358-1.822.349-6.721-1.322-11.507-3.239-5.691-2.281-11.224-4.912-11.224-4.912-3.158-.162-6.745,5.6-.34,9.264.978.56,4.651,1.514,8.882,2.386h0c5.837,1.2,12.73,2.246,15.078,1.88,2.726-.427,10.441-3.25,15.032-5.411h0l.011-.006.051-.025a5.615,5.615,0,0,1,2.149-.585,4.8,4.8,0,0,0,2.833-1.943C3301.017,575.5,3298.388,574.274,3297.63,574.159Z"/><path class="l" d="M3287.915,640.245l-3.557,1.617s-7.678-8.39-9.578-14.207c-1.017-3.109-7.512-4.453-14.3-6.207-5.909-1.528-12.038-3.368-14.966-6.959-6.292-7.715,3.952-17.2,3.952-17.2s10.892,6.474,20.288,13.161c6.568,4.674,12.405,9.452,13.285,12.2C3285.175,629.329,3285.951,635.519,3287.915,640.245Z"/><path class="m" d="M3269.754,610.455l-9.274,10.993c-5.909-1.528-12.038-3.368-14.966-6.959-6.292-7.715,3.952-17.2,3.952-17.2S3260.358,603.767,3269.754,610.455Z"/><path class="l" d="M3261.327,604.712s-.747,2.358-1.965,5.9c-1.54,4.486-3.832,10.872-6.319,16.795-.546,1.3-1.1,2.582-1.662,3.812-2.068,4.558-4.186,8.465-6.049,10.45-3.35,3.569-9.774,19.181-9.774,19.181l-3.88-.1A29.09,29.09,0,0,1,3239,636.879a.711.711,0,0,0,.2-.416h0c.133-1.653.61-9.043,1.647-16.532.255-1.838.543-3.68.869-5.445.02-.113.041-.225.062-.336,1.523-8.163,2.982-11.792,4.867-13.618l13.853,3.943Z"/><path class="n" d="M3234.558,578.065s-2.318,5.671-4.99,11.189c-2.249,4.641-4.745,9.173-6.329,10.141-2.233,1.364-8.384,5.212-12.374,8.082,0,0-3.115-.024-3.6.573s-1.6,3.275-1.274,3.546a4.8,4.8,0,0,0,3.4-.472,5.631,5.631,0,0,1,1.983-1.014l.054-.016h.013c4.848-1.492,12.455-4.6,14.758-6.119,1.981-1.308,6.377-6.721,9.882-11.539h0c2.541-3.491,4.614-6.671,4.961-7.743C3243.315,577.666,3236.785,575.82,3234.558,578.065Z"/><path class="o" d="M3260.138,581.921c-.056-.2-.118-.407-.181-.619a15.675,15.675,0,0,0,1.687-5.055,10.142,10.142,0,0,0-.321-4.945s-4.636-2.459-6.682-2.771l-.026-.009c-.027,0-.054-.006-.082-.007-2.066-.285-6.541.628-6.541.628a3.234,3.234,0,0,1-1.572,3.829c-2.434,1.531-5.034-.392-5.034-.392-.079.053-.163.111-.249.172h0s-6.406,4.228-6.981,5.193-3.038,5.749-3.038,5.749.781,4.016,9.435,4.351a19.939,19.939,0,0,1,1.433,4.812c.686,5.449-.11,9.749.69,12.931s15.24,1.365,17.854.754,2.028-3.4,2.229-6.117C3263.012,597.015,3260.989,584.927,3260.138,581.921Z"/><path class="k" d="M3202.858,612.035a51.4,51.4,0,0,1,3.682-4.108,11.208,11.208,0,0,1,3.681-1.042c.163.154.17.375-.185.689s-1.708,1.1-1.516,1.192,4.283-1.945,4.87-1.261-.338,3.508-1.909,4.861-6.274,1.931-6.568,2.121C3202.406,616.089,3202.858,612.035,3202.858,612.035Z"/><path class="n" d="M3155.5,604.442s3.864,4.584,8.786,2.666a14.9,14.9,0,0,0,1.074-4.448c0-.232,0-.457.008-.672.026-2.125.1-3.318.1-3.318h-.005c-.224-.093-7.523-3.09-7.517-2.841C3158.061,601.573,3155.5,604.442,3155.5,604.442Z"/><path class="k" d="M3158.669,597.2a11.42,11.42,0,0,0,6.692,4.79c.027-2.126.1-3.319.1-3.319h0C3165.251,598.612,3158.46,596.812,3158.669,597.2Z"/><path class="n" d="M3166.988,598.446c-2.382.639-8.21,1.93-9.333-3.2s-2.94-8.338,2.255-9.787,6.643.285,7.435,1.906S3169.112,597.878,3166.988,598.446Z"/><path class="p" d="M3168.736,648.609s-.7,8.779-1.531,19.33c-1.124,14.335-2.477,31.944-2.61,35.279a65.19,65.19,0,0,1-1.987,12.277s-1.373.6-5.481.371c-2.508-8.9-4.487-14.328-5.335-23.537-.018-.23-.034-.461-.052-.692-1.042-14.246-2.662-44.244-2.662-44.244Z"/><path class="q" d="M3168.736,648.609s-.7,8.779-1.531,19.33l-15.414,24.39c-.018-.23-.034-.461-.052-.692-1.042-14.246-2.662-44.244-2.662-44.244Z"/><path class="p" d="M3165.523,649.65s-12.681,31.793-21.021,46.734-9.614,15.679-9.614,15.679-4.444-1.223-4.878-2.527c0,0,1.523-26.1,7.108-33.132,3.157-3.973,6.863-15.9,7.037-20.066s1.129-12.422,1.129-12.422Z"/><path class="k" d="M3136.883,644.272a49.028,49.028,0,0,1-.647,5.219,10.713,10.713,0,0,1-2.313,2.817c-.212-.031-.342-.2-.228-.639s.736-1.793.538-1.758-2.291,3.849-3.123,3.635-1.647-2.927-1.152-4.842,3.859-4.925,3.988-5.233C3135.031,640.855,3136.883,644.272,3136.883,644.272Z"/><path class="k" d="M3135.125,645.363c1.4.451,1.629.349,1.629.349s6.831-12.44,7.524-13.579,14.507-13.949,14.507-13.949l-3.551-13.238s-15.713,20.346-17.409,23.266c-2.8,4.824-4.446,16.029-4.446,16.029A4.108,4.108,0,0,0,3135.125,645.363Z"/><path class="o" d="M3171.415,623.379c-.049,2.718-.207,5.775-.42,8.879-.014.184-.026.368-.039.552-.137,1.924-.284,3.851-.454,5.73q-.1,1.133-.216,2.231l-.012.1c-.006.274-.039.571-.069.842-.693,7.04-1.419,12.6-1.553,12.688a.8.8,0,0,1-.541.138c-1.847-.232-7.354.186-11.864-.794a34.163,34.163,0,0,1-10.554-4.377c-.461-.273-1.512-.994-1.427-1.533.083-.593.239-1.45.436-2.526a136.675,136.675,0,0,0,2.269-17.725q.116-2.106.34-4.154a63.1,63.1,0,0,1,1.838-9.923,19.174,19.174,0,0,1,7.5-10.963c.374-.208.936,1.221,2.777,2.4,1.552.995,3.573.784,5.406.592l1.967,1.649a17.127,17.127,0,0,1,4.369,9.109c.041.3.075.621.1.962A60.106,60.106,0,0,1,3171.415,623.379Z"/><path class="r" d="M3171.414,623.382c-.049,2.718-.207,5.775-.42,8.879-.012.185-.025.368-.039.552-10.546-6.6-12.17-18.678-12.17-18.678a28.839,28.839,0,0,1,12.486,3.125A59.841,59.841,0,0,1,3171.414,623.382Z"/><path class="o" d="M3204.452,612.292c-.544-1.471-1.389-1.376-1.389-1.376s-15.679,3.908-17.086,4.075-16.885-6.042-16.885-6.042-6.093-2.735-8.947-.238a6.817,6.817,0,0,0-2.011,7.225,6.9,6.9,0,0,0,5.832,5.141c6.313.8,18.913,2.317,21.553,1.951,5.875-.819,19.191-8.505,19.191-8.505A4.932,4.932,0,0,0,3204.452,612.292Z"/><path class="s" d="M3322,581.465s.646,8.054,1.4,17.735c1.031,13.152,2.272,29.307,2.394,32.367a67.459,67.459,0,0,0,2.052,10.285s1.442,1.411,5.482.558c2.3-8.166,3.437-12.386,4.213-20.834.015-.211.032-.422.048-.635.957-13.071,2.443-40.592,2.443-40.592Z"/><path class="t" d="M3322,581.465s.646,8.054,1.4,17.735l14.141,22.376c.015-.211.032-.422.048-.635.957-13.071,2.443-40.592,2.443-40.592Z"/><path class="s" d="M3324.951,582.423s11.636,29.168,19.287,42.875,8.683,13.308,8.683,13.308,4.424-1.493,4.823-2.689c0,0-1.812-16.341-5.725-23.379a150.673,150.673,0,0,1-4.469-18.1c-.632-3.776-4.03-17.284-4.03-17.284Z"/><path class="n" d="M3288.6,565.963a52.167,52.167,0,0,0-5.521-1.026,11.4,11.4,0,0,0-3.615,1.443c-.037.223.1.407.577.442s2.061-.171,1.962.021-4.657,1.088-4.708,2,2.448,2.621,4.555,2.735,6.257-2.337,6.614-2.368C3291.48,568.952,3288.6,565.963,3288.6,565.963Z"/><path class="n" d="M3287.712,567.4c-.453-1.442-.347-1.672-.347-1.672s12.793-6.917,13.965-7.619,14.394-14.771,14.394-14.771l13.542,3.727s-20.957,15.963-23.96,17.683c-4.962,2.84-16.457,4.448-16.457,4.448A4.193,4.193,0,0,1,3287.712,567.4Z"/><path class="n" d="M3319.825,536.5s-4.746,8.353-9.388,9.443a12.7,12.7,0,0,1,1.323-4.726q-.693-.819-1.22-1.5a28.268,28.268,0,0,1-1.724-2.413l1.575-4.234,1.069-2.872a13.821,13.821,0,0,0,1.67,2.406A11.359,11.359,0,0,0,3319.825,536.5Z"/><path class="k" d="M3313.13,532.61a8.809,8.809,0,0,1-2.59,7.113,28.054,28.054,0,0,1-1.724-2.413l1.575-4.234A9.012,9.012,0,0,1,3313.13,532.61Z"/><path class="n" d="M3307.564,537.928s7.094-2.765,5.3-7.156-2.079-7.7-6.684-6.125-4.8,3.613-4.556,5.224S3305.673,538.534,3307.564,537.928Z"/><path class="o" d="M3344.208,579.369c-2.862,4.114-24.254,9.611-24,6.763a30.834,30.834,0,0,0,0-5.617q-.078-.915-.226-1.94a44.754,44.754,0,0,0-4.715-14.121q-.324-.625-.673-1.265a43.391,43.391,0,0,1-2.967-6.665c-1.481-4.283-2.08-8.381-1.332-11.061a.277.277,0,0,1,.013-.037c4.471-2.068,6.2-10.087,6.2-10.087s10.628-1.351,19.17,18.986C3335.682,554.322,3342.78,570.362,3344.208,579.369Z"/><path class="r" d="M3320.2,580.513q-.079-.915-.226-1.94a44.76,44.76,0,0,0-4.715-14.123c.5-3,1.177-5.49,1.926-6.611,3.044-4.561,4.816-5.274,4.816-5.274S3326.567,571.811,3320.2,580.513Z"/><path class="n" d="M3295.357,577.535c-.846-1.366-.237-1.99-.237-1.99s13.039-10.208,14.061-11.24,5.756-17.452,5.756-17.452,1.629-6.646,5.445-7.38a6.987,6.987,0,0,1,7.107,2.927,7.072,7.072,0,0,1,.479,7.952c-3.329,5.609-10.045,16.744-12.006,18.646-4.363,4.235-18.968,10.151-18.968,10.151A5.05,5.05,0,0,1,3295.357,577.535Z"/><rect class="u" width="67.225" height="88.297" transform="translate(3300.683 651.338)"/><rect class="v" width="67.226" height="88.297" transform="translate(3279.954 651.338)"/><path class="w" d="M3367.909,651.338v13.2l-20.729-13.2Z"/><path class="x" d="M3251.961,589.8h-.564v-1.747h4.318a4.233,4.233,0,1,0,.053.67v-.1h-3.8Z"/><path class="c" d="M3121.618,724.958h57.812v15.678h-57.812Z"/><rect class="y" width="10.778" height="15.678" transform="translate(3168.651 724.958)"/><path class="z" d="M3168.651,724.958l10.778,8.132v-8.132Z"/><path class="o" d="M3287.361,581.047a3.373,3.373,0,0,0,.2.83l-4.22,1.416a12.11,12.11,0,0,1-5.87.566c-3.627-.428-17.53-2.535-17.53-2.535s1.577-9.921,1.384-10.022c0,0,9.706,4.9,15.031,6.728a12.432,12.432,0,0,0,3.64.487c1.086-.206,7.192-1.28,7.192-1.28"/><path class="o" d="M3231.118,583.694l-6.34,14.1a29.267,29.267,0,0,1-4.065,3.174c-2.237,1.418-4.294,2.746-4.294,2.746l1.83,3.951a57.433,57.433,0,0,0,7.95-3.685c4.206-2.849,7.444-4.894,14.354-15.93Z"/><path class="n" d="M3247.437,573.57c-2.643,1.246-6.149-.548-6.13-.567.227-.226.147-.906-.061-1.792a13.032,13.032,0,0,0-1.6-3.7c-.188-.322-.377-.642-.6-.982l.3-.113,5.134-2.057s.831,1.491,1.7,2.849c.736,1.133,1.51,2.152,1.85,2.115C3248.04,569.3,3251.438,571.645,3247.437,573.57Z"/><path class="k" d="M3244.472,564.87c-.132,1.831-.753,5.134-3.228,6.342a13.025,13.025,0,0,0-1.6-3.7Z"/><path class="n" d="M3239.34,569.595c2.093.188,6.684-2.635,4.979-6.771s-1.99-7.264-6.329-5.756-4.512,3.426-4.281,4.944S3234.786,569.184,3239.34,569.595Z"/><path class="aa" d="M3234.925,558.668c.413-.169,3.162,1.741,6.59-.428,0,0,2.957,1.532,2.7,8.423-.057,1.536,3.084,2.092,3.084,2.092s5.011-7.889-.35-13.579-11.769-3.842-14.842.426.442,9.905,3.592,11.914C3235.7,567.516,3232.87,559.511,3234.925,558.668Z"/><circle class="aa" cx="2.862" cy="2.862" r="2.862" transform="translate(3244.652 563.97)"/><circle class="aa" cx="2.862" cy="2.862" r="2.862" transform="translate(3246.355 567.351)"/><g transform="matrix(0.996, -0.087, 0.087, 0.996, -38.422, 285.363)"><circle class="aa" cx="2.862" cy="2.862" r="2.862" transform="translate(3247.642 570.569)"/><circle class="aa" cx="2.294" cy="2.294" r="2.294" transform="translate(3246.811 588.354)"/><circle class="aa" cx="2.294" cy="2.294" r="2.294" transform="translate(3247.681 580.725)"/><circle class="aa" cx="2.294" cy="2.294" r="2.294" transform="translate(3247.222 584.743)"/><circle class="aa" cx="2.294" cy="2.294" r="2.294" transform="translate(3248.625 574.073)"/><circle class="aa" cx="2.294" cy="2.294" r="2.294" transform="translate(3248.257 577.297)"/><circle class="aa" cx="2.114" cy="2.114" r="2.114" transform="translate(3246.571 592.21)"/><path class="aa" d="M3246.711,596.578l-2.288,4.761a1.794,1.794,0,0,0,1.358,2.552l2.372.346a1.794,1.794,0,0,0,2.053-1.8l-.084-5.107a1.8,1.8,0,0,0-1.223-1.672h0A1.8,1.8,0,0,0,3246.711,596.578Z"/></g><rect class="ab" width="3.908" height="2.584" transform="translate(3284.358 641.862) rotate(-24.44)"/><path class="ac" d="M3297.263,646.036l-9.64,4.381s-2.963-4.538-2.2-6.2l3.557-1.617s3.5,2.217,3.709,2.676C3292.693,645.274,3296.553,644.628,3297.263,646.036Z"/><path class="ad" d="M3297.308,646.045s1.184.065.392.863c-1.279,1.288-9.5,4.43-9.5,4.43s-.911-.1-.53-.912Z"/><rect class="ab" width="2.567" height="3.882" transform="translate(3231.613 663.319) rotate(-88.56)"/><path class="ac" d="M3241.4,670.078l-10.515-.264s-.68-5.341.727-6.5l3.881.1a27.635,27.635,0,0,1,2.154,4S3241.378,668.512,3241.4,670.078Z"/><path class="ad" d="M3241.438,670.1s1.03.572-.024.942c-1.7.6-10.413-.161-10.413-.161s-.77-.487-.078-1.045Z"/><path class="ae" d="M3240.909,561.9a1.836,1.836,0,0,0-.663,0s-.245-.115-.012-.318a.988.988,0,0,1,.737.144S3241.061,561.925,3240.909,561.9Z"/><circle class="ae" cx="0.437" cy="0.437" r="0.437" transform="translate(3240.234 562.668)"/><circle class="ae" cx="0.423" cy="0.423" r="0.423" transform="translate(3236.439 563.546)"/><path class="ae" d="M3236.116,562.9a1.916,1.916,0,0,1,.669-.143s.223-.167-.055-.323a1.02,1.02,0,0,0-.714.3S3235.967,562.951,3236.116,562.9Z"/><path class="af" d="M3238.347,562.668v3.466s.185.592,1,.059"/><path class="af" d="M3240.671,567.276a1.71,1.71,0,0,1-2.2.586"/><path class="k" d="M3203.063,610.916l-17.086,4.075-9.861-3.3-4.076,10.356s11.024,1.562,13.479.978c0,0,4.452.941,17.307-7.086l2.872-1.807-1.39-3.887Z"/><path class="o" d="M3144.261,619.325l2.673,10.054a125.1,125.1,0,0,0,2.527-16.909Z"/><path class="r" d="M3144.261,619.325l1.311-1.729,2.109,8.1-.747,3.681Z"/><path class="r" d="M3176.116,611.694l-4.076,10.356-2.483-.287,4.424-10.89Z"/><path class="r" d="M3156.646,602.544s4.312,4.505,8.183,2.994l1.967,1.649a11.512,11.512,0,0,1-12.186-2.943Z"/><path class="n" d="M3297.029,575.382a53.376,53.376,0,0,0-5.716.536,11.682,11.682,0,0,0-3.15,2.43c.028.235.209.374.689.272s1.98-.744,1.936-.527-4.276,2.372-4.068,3.283,3.139,1.893,5.246,1.416,5.5-4.048,5.84-4.178C3300.7,577.516,3297.029,575.382,3297.029,575.382Z"/><path class="o" d="M3312.494,554.706l8.5,7.118,7.367-10.818s2.631-7.486-2.1-10.736-8.118-.919-9.36,1.572a26.72,26.72,0,0,0-3.057,8.408Z"/><path class="o" d="M3309.973,549.411l-3.365,3.5,2.209,9.433,1.683-1.219,1.729-5.249Z"/><path class="r" d="M3312.494,554.706l.752-2.14,9.028,7.377-1.282,1.882Z"/><path class="r" d="M3306.607,552.915l1.421-1.479,2.471,9.693-1.683,1.219Z"/><path class="r" d="M3316.508,535.339a22.217,22.217,0,0,1-6.213,10.124L3310,547.3s5.377-2.8,8.251-11.482Z"/><path class="ab" d="M3333.33,642.222l-.183,2.713s-1.318,2.692-5.035,1.419c0,0,1.155-2.817-.593-2.992l.329-1.51Z"/><path class="ac" d="M3328.186,646.095s1.361-3.759-.667-2.733a6.3,6.3,0,0,1-4.479,4.118c-3.7,1.055-4.391,1.974-4.433,2.6,0,0,12.639,1.137,16.393.2,0,0-1.086-6.794-2.388-4.939C3331.967,646.255,3331.159,647.049,3328.186,646.095Z"/><path class="ag" d="M3318.589,649.989s-.675.8.008,1.332l16.312-.092s.789-.6-.007-1.106A81.808,81.808,0,0,1,3318.589,649.989Z"/><path class="ab" d="M3357.744,635.917l1.25,2.414s.271,2.986-3.567,3.826c0,0-.474-3.008-2.059-2.251l-.5-1.462Z"/><path class="ac" d="M3355.355,641.9s-.786-3.92-1.987-1.99a6.308,6.308,0,0,1-1.693,5.844c-2.62,2.824-2.73,3.965-2.444,4.519,0,0,11.4-5.584,14.118-8.334,0,0-4.453-5.245-4.6-2.983C3358.671,640.072,3358.392,641.17,3355.355,641.9Z"/><path class="ag" d="M3349.171,650.2s-.163,1.034.7,1.135l13.9-8.539s.364-.923-.579-.942A81.781,81.781,0,0,1,3349.171,650.2Z"/><path class="ab" d="M3157.127,715.866l.183,2.712s1.317,2.693,5.034,1.42c0,0-1.155-2.817.593-2.992l-.329-1.511Z"/><path class="ac" d="M3162.27,719.738s-1.361-3.759.667-2.732a6.308,6.308,0,0,0,4.479,4.118c3.7,1.055,4.391,1.974,4.433,2.595,0,0-12.639,1.138-16.392.2,0,0,1.086-6.794,2.388-4.938C3158.489,719.9,3159.3,720.692,3162.27,719.738Z"/><path class="ag" d="M3171.867,723.632s.675.8-.008,1.332l-16.311-.091s-.79-.6.006-1.106A81.772,81.772,0,0,0,3171.867,723.632Z"/><path class="ab" d="M3130.01,709.536l-1.251,2.415s-.27,2.985,3.568,3.825c0,0,.474-3.008,2.059-2.251l.5-1.462Z"/><path class="ac" d="M3132.4,715.515s.786-3.919,1.987-1.99a6.308,6.308,0,0,0,1.693,5.844c2.62,2.824,2.73,3.966,2.444,4.519,0,0-11.4-5.584-14.118-8.333,0,0,4.453-5.245,4.6-2.983C3129.083,713.692,3129.362,714.789,3132.4,715.515Z"/><path class="ag" d="M3138.583,723.823s.163,1.033-.7,1.135l-13.9-8.54s-.364-.923.579-.942A81.835,81.835,0,0,0,3138.583,723.823Z"/><path class="aa" d="M3304.1,526.079s-1.319,2.714-2.345,2.519c-.65-.124-1.009-.928-.749-1.974.558-2.244,4.778-6.387,9.074-4.426,2.37,1.082,2.916,5.406,3.075,7.4.064.8.153,3.211.153,3.211l-2.816-2.375a14.463,14.463,0,0,1-1.549.791c-.772-1.49-.834-2.7-1.617-2.67A3.125,3.125,0,0,1,3304.1,526.079Z"/><path class="aa" d="M3164.414,585.933s2.016,2.245,2.948,1.775c.591-.3.714-1.17.176-2.1-1.154-2-6.353-4.822-9.942-1.753-1.98,1.693-1.313,6-.915,7.964.159.788.907,3.13.907,3.13l1.884-3.06a14.529,14.529,0,0,0,1.706.334c.331-1.645.057-2.83.819-3.013A3.125,3.125,0,0,0,3164.414,585.933Z"/><path class="aa" d="M3304.884,530.416a4.651,4.651,0,0,0-1.485.749s-.678.023-.388-.7a2.48,2.48,0,0,1,1.812-.517S3305.249,530.29,3304.884,530.416Z"/><circle class="aa" cx="0.331" cy="0.331" r="0.331" transform="translate(3304.393 531.317)"/><path class="n" d="M3302.8,532.374l1.4,3.767s.52.189.966-.459"/><path class="aa" d="M3164.768,590.073a4.659,4.659,0,0,1,1.607-.434s.519-.436-.178-.778a2.479,2.479,0,0,0-1.694.824S3164.413,590.223,3164.768,590.073Z"/><circle class="aa" cx="0.331" cy="0.331" r="0.331" transform="translate(3165.379 590.552)"/><path class="n" d="M3167.625,590.141l1.474,3.738a.858.858,0,0,1-1.025.3"/><path class="a" d="M3305.41,536.666l1.2-1.022a1.655,1.655,0,0,1-.474,1.733A5.98,5.98,0,0,1,3305.41,536.666Z"/><path class="a" d="M3166.654,595.734s.516,1.095,1.69.277Z"/></g></svg>