<svg id="Group_7619" data-name="Group 7619" xmlns="http://www.w3.org/2000/svg" width="149.299" height="149.323" viewBox="0 0 149.299 149.323">
  <g id="Group_7618" data-name="Group 7618">
    <path id="Path_7286" data-name="Path 7286" d="M1986.984,2607.637a74.649,74.649,0,0,1-59.377,73.051v0a74.788,74.788,0,0,1-62.577-15.39l-.006,0a75.072,75.072,0,0,1-12.453-13.044,74.7,74.7,0,0,1-8.07-75.633q.483-1.05.993-2.082l.006-.012.03-.061c.021-.04.04-.082.061-.121l.01-.019.015-.029.029-.063.012-.021a74.918,74.918,0,0,1,24.313-27.966v0a74.643,74.643,0,0,1,109.886,29.526q1.471,3.107,2.657,6.366A74.429,74.429,0,0,1,1986.984,2607.637Z" transform="translate(-1837.766 -2532.922)" fill="#fff"/>
    <path id="Path_7287" data-name="Path 7287" d="M1971.133,2607.589s-3.208-5.061-12.574-1.831c-.213.075-.422.142-.625.209-4.968,1.588-7.27.749-9.6-1.256-1.775-1.53-3.568-3.738-6.571-6.058-7.106-5.491-11.305-9.368-22.609-4.2s-14.535-.324-19.38-5.815-7.428,5.815-20.347,5.815-2.905-14.211-11.3-12.6-8.074-6.458-12.6-8.72,6.137-7.75,0-13.886c-6.076-6.078-1.494-12.923-1.409-13.055h0A74.638,74.638,0,0,1,1964,2575.72q1.47,3.107,2.657,6.367A74.451,74.451,0,0,1,1971.133,2607.589Z" transform="translate(-1821.833 -2532.979)" fill="#a1d8d8"/>
    <path id="Path_7288" data-name="Path 7288" d="M1862.81,2583.825c.957-2.811-.293-14.526,7.46-11.943s12.888-2.92,17.733-2.31,9.264,3.773,13.686,6.136c7.025,3.756,2.717,13.469,6.176,16.837,6.348,6.176,1.131,17.076-7.589,17.076s-5.844-3.145-13.243-1.7c-12.353,2.423-11.95.565-17.44-6.54s-8.083-5.3-10.342-10.3S1861.9,2586.486,1862.81,2583.825Z" transform="translate(-1814.987 -2493.135)" fill="#a1d8d8"/>
    <path id="Path_7289" data-name="Path 7289" d="M1931.462,2577.867a74.465,74.465,0,0,1-23.186,42.549c-.843-.186-3.048,2.91-7.408,2.615-9.04-.61-11.966-6.224-12.959-13.807a10.617,10.617,0,0,1,.38-5.5,4.086,4.086,0,0,1,3.031-2.445c3.79-.892,9.212,1.484,9.063-2.232-.1-2.5-.322-4.4-.5-5.928-.575-4.83-.734-5.855,4.743-10.3a6.529,6.529,0,0,1,4.665-1.461c4.112.174,8.02,2.732,10.837-4.715C1924,2566.4,1931.462,2577.867,1931.462,2577.867Z" transform="translate(-1783.282 -2490.016)" fill="#a1d8d8"/>
    <path id="Path_7290" data-name="Path 7290" d="M1927.613,2657.918v0a75.01,75.01,0,0,1-62.592-15.319l.009-.075a71.885,71.885,0,0,1-12.495-12.44,76.056,76.056,0,0,1-14.761-45.218,74.282,74.282,0,0,1,6.734-31.018c-.721,1.722-1.31,3.883-.094,4.721,7.263,5,4.947,11.695,5.815,13.808,2.744,6.7,3.309,4.091,6.54,12.489s-9.987,12.637.727,18.277c9.2,4.842,11.772,7.955,12.334,15.705s6.444,2.7,12.9,8.513c1.2,1.076,2.247,2,3.181,2.822,4.1,3.628,5.911,5.422,7.752,10.677a8.612,8.612,0,0,0,.9,1.853c2.914,4.469,9.125,4.116,12.052,6.452,5.758,4.6,4.828,1.51,13.611,3.15S1927.613,2657.918,1927.613,2657.918Z" transform="translate(-1837.757 -2510.224)" fill="#a1d8d8"/>
  </g>
  <ellipse id="Ellipse_79" data-name="Ellipse 79" cx="7.127" cy="7.127" rx="7.127" ry="7.127" transform="translate(36.547 44.431)" fill="#3b3b3b"/>
  <ellipse id="Ellipse_80" data-name="Ellipse 80" cx="7.127" cy="7.127" rx="7.127" ry="7.127" transform="translate(91.217 44.431)" fill="#3b3b3b"/>
  <path id="Path_7291" data-name="Path 7291" d="M1855.251,2582.064s31.461,43.76,68.923,0C1924.174,2582.064,1888.33,2608.748,1855.251,2582.064Z" transform="translate(-1818.704 -2479.467)" fill="#3b3b3b"/>
</svg>
