<svg xmlns="http://www.w3.org/2000/svg" width="381" height="381" viewBox="0 0 381 381"><defs><style>.a{fill:#f0e584;}.b{fill:#fff;}.c{fill:#a1d8d8;}.d{fill:#3b3b3b;}.e{fill:#1a1818;font-size:24px;font-family:Poppins-Light, Poppins;font-weight:300;}</style></defs><g transform="translate(0 -0.271)"><rect class="a" width="381" height="381" rx="60" transform="translate(0 0.271)"/><g transform="translate(91.164 52.985)"><path class="b" d="M2036.386,2632.338a99.363,99.363,0,0,1-79.035,97.236v0a99.547,99.547,0,0,1-83.295-20.485l-.008-.005a99.909,99.909,0,0,1-16.576-17.363,99.425,99.425,0,0,1-10.742-100.673q.642-1.4,1.322-2.771l.008-.016.039-.081c.028-.053.053-.109.081-.162l.014-.025.02-.038.039-.084.017-.028a99.72,99.72,0,0,1,32.362-37.225v0a99.356,99.356,0,0,1,146.266,39.3q1.958,4.135,3.536,8.474A99.071,99.071,0,0,1,2036.386,2632.338Z" transform="translate(-1837.766 -2532.887)"/><path class="c" d="M2010.448,2632.29s-4.27-6.736-16.737-2.437c-.284.1-.562.189-.832.278-6.613,2.114-9.676,1-12.776-1.672-2.362-2.037-4.749-4.975-8.747-8.063-9.459-7.309-15.048-12.469-30.094-5.589s-19.347-.431-25.8-7.741-9.888,7.741-27.084,7.741-3.867-18.916-15.046-16.768-10.747-8.6-16.768-11.607,8.168-10.316,0-18.484c-8.088-8.091-1.989-17.2-1.875-17.377h0a99.348,99.348,0,0,1,146.263,39.3q1.957,4.136,3.536,8.475A99.1,99.1,0,0,1,2010.448,2632.29Z" transform="translate(-1811.72 -2532.979)"/><path class="c" d="M1864.183,2588.56c1.274-3.742-.39-19.335,9.93-15.9s17.155-3.886,23.6-3.074,12.331,5.022,18.218,8.168c9.351,5,3.617,17.928,8.221,22.411,8.449,8.22,1.505,22.729-10.1,22.729s-7.779-4.187-17.628-2.257c-16.443,3.225-15.906.751-23.214-8.7s-10.759-7.05-13.766-13.705S1862.976,2592.1,1864.183,2588.56Z" transform="translate(-1800.527 -2467.845)"/><path class="c" d="M1945.935,2579.681a99.119,99.119,0,0,1-30.862,56.636c-1.122-.247-4.057,3.874-9.86,3.48-12.033-.812-15.927-8.285-17.249-18.379-.44-3.361-.195-5.7.506-7.326a5.438,5.438,0,0,1,4.034-3.255c5.044-1.188,12.261,1.975,12.063-2.971-.133-3.333-.429-5.862-.668-7.89-.765-6.429-.976-7.793,6.313-13.7a8.69,8.69,0,0,1,6.21-1.945c5.473.231,10.675,3.637,14.425-6.276C1936.006,2564.418,1945.935,2579.681,1945.935,2579.681Z" transform="translate(-1748.698 -2462.745)"/><path class="c" d="M1957.356,2692.372v0a99.842,99.842,0,0,1-83.314-20.391l.011-.1c-6.2-5.1-11.821-10.124-16.632-16.559a101.235,101.235,0,0,1-19.647-60.189,98.878,98.878,0,0,1,8.964-41.287c-.959,2.293-1.744,5.169-.125,6.284,9.668,6.652,6.585,15.567,7.74,18.379,3.653,8.919,4.4,5.445,8.705,16.623s-13.293,16.821.968,24.327c12.25,6.446,15.669,10.589,16.418,20.9s8.577,3.592,17.177,11.331c1.592,1.433,2.991,2.66,4.235,3.756,5.455,4.83,7.868,7.217,10.319,14.212a11.468,11.468,0,0,0,1.2,2.467c3.879,5.949,12.147,5.479,16.042,8.588,7.664,6.127,6.427,2.01,18.117,4.193S1957.356,2692.372,1957.356,2692.372Z" transform="translate(-1837.752 -2495.781)"/><ellipse class="d" cx="9.486" cy="9.486" rx="9.486" ry="9.486" transform="translate(48.647 59.141)"/><ellipse class="d" cx="9.486" cy="9.486" rx="9.486" ry="9.486" transform="translate(121.416 59.141)"/><path class="d" d="M1855.251,2582.064s41.877,58.247,91.741,0C1946.992,2582.064,1899.281,2617.582,1855.251,2582.064Z" transform="translate(-1806.604 -2445.5)"/></g></g><text class="e" transform="translate(112 346)"><tspan x="0" y="0">Sustainability</tspan></text></svg>