<svg xmlns="http://www.w3.org/2000/svg" width="334.738" height="338.595" viewBox="0 0 334.738 338.595"><defs><style>.a{fill:#5dbc58;}.b,.d{fill:none;stroke:#fff;}.b{stroke-miterlimit:10;}.c{fill:#fff;}.d{stroke-linecap:round;stroke-linejoin:round;}.e{fill:#cfd136;}.f,.g{fill:#9d9f26;}.g{font-size:35px;font-family:BritannicBold, Britannic;}.h{fill:#ece6da;font-size:29px;font-family:MyriadPro-Regular, Myriad Pro;}.i{fill:#f3f3f4;}.j{fill:#6b6e82;}.k{fill:#fee2b4;}.l{fill:#ad9d86;}.m{fill:#ccb999;}.n{fill:#c5ad31;}.o{fill:#8cc63f;}.p{fill:#6b5343;}.q{fill:#fdc676;}</style></defs><g transform="translate(-1096.627 -3026.705)"><path class="a" d="M-563.224,1826.292s54.062-77.305,107.62-36.378c0,0,29.306,21.141,21.221,56.8,0,0-8.589,34.144-67.705,44.755,0,0-50.526,3.537-61.136,40.421,0,0-13.643-43.453-48-38.4,0,0-94.99,1.01-78.821-71.242,0,0,12.126-46.99,65.684-41.938C-624.362,1780.312-580.4,1794.966-563.224,1826.292Z" transform="translate(1827.753 1248.744)"/><g transform="translate(1143.23 3073.731) rotate(-23)"><path class="b" d="M36.346,73.305S12.2,11.8,0,0" transform="translate(5.169 5.39)"/><ellipse class="c" cx="2.501" cy="2.501" rx="2.501" ry="2.501" transform="translate(3.068 2.889)"/><ellipse class="c" cx="2.095" cy="2.095" rx="2.095" ry="2.095" transform="translate(13.855 0)"/><ellipse class="c" cx="2.204" cy="2.204" rx="2.204" ry="2.204" transform="translate(0 17.602)"/><path class="d" d="M0,.063S11.746-1.022,17.493,5.792" transform="translate(0.552 19.977)"/><ellipse class="c" cx="2.204" cy="2.204" rx="2.204" ry="2.204" transform="translate(5.879 29.812)"/><path class="d" d="M0,.063S11.746-1.022,17.494,5.791" transform="translate(6.429 32.188)"/><ellipse class="c" cx="2.204" cy="2.204" rx="2.204" ry="2.204" transform="translate(11.102 41.166)"/><path class="d" d="M0,.063S11.746-1.022,17.493,5.791" transform="translate(11.653 43.542)"/><ellipse class="c" cx="2.204" cy="2.204" rx="2.204" ry="2.204" transform="translate(16.212 52.999)"/><path class="d" d="M0,.063S11.746-1.021,17.494,5.792" transform="translate(16.762 55.374)"/><ellipse class="c" cx="2.204" cy="2.204" rx="2.204" ry="2.204" transform="translate(21.348 65.382)"/><path class="d" d="M0,.064S11.746-1.023,17.493,5.791" transform="translate(21.899 67.758)"/><ellipse class="c" cx="2.086" cy="2.086" rx="2.086" ry="2.086" transform="translate(19.251 11.212)"/><path class="d" d="M1.049,0S-.961,10.107.583,18.738" transform="translate(14.901 2.095)"/><path class="d" d="M1.049,0S-.961,10.108.584,18.74" transform="translate(20.548 13.002)"/><ellipse class="c" cx="2.086" cy="2.086" rx="2.086" ry="2.086" transform="translate(24.71 23.012)"/><path class="d" d="M1.049,0S-.961,10.108.584,18.738" transform="translate(26.007 24.803)"/><ellipse class="c" cx="2.086" cy="2.086" rx="2.086" ry="2.086" transform="translate(29.673 34.173)"/><path class="d" d="M1.048,0S-.961,10.107.584,18.738" transform="translate(30.97 35.965)"/><ellipse class="c" cx="2.086" cy="2.086" rx="2.086" ry="2.086" transform="translate(35.508 48.006)"/><path class="d" d="M1.048,0S-.961,10.108.584,18.738" transform="translate(36.804 49.798)"/></g><g transform="translate(1192.715 3084.06) rotate(-23)"><path class="b" d="M0,48.137S39.594,12.542,45.049,0" transform="translate(0 1.714)"/><ellipse class="c" cx="2.016" cy="2.016" rx="2.016" ry="2.016" transform="translate(43.146 0)"/><ellipse class="c" cx="1.688" cy="1.688" rx="1.688" ry="1.688" transform="translate(48.894 7.23)"/><ellipse class="c" cx="1.776" cy="1.776" rx="1.776" ry="1.776" transform="translate(31.556 1.773)"/><path class="d" d="M0,0S4.138,8.556.62,14.818" transform="translate(32.688 2.369)"/><ellipse class="c" cx="1.776" cy="1.776" rx="1.776" ry="1.776" transform="translate(24.004 9.659)"/><path class="d" d="M0,0S4.138,8.557.62,14.818" transform="translate(25.135 10.254)"/><ellipse class="c" cx="1.776" cy="1.776" rx="1.776" ry="1.776" transform="translate(16.911 16.809)"/><path class="d" d="M0,0S4.138,8.556.62,14.82" transform="translate(18.044 17.404)"/><ellipse class="c" cx="1.776" cy="1.776" rx="1.776" ry="1.776" transform="translate(9.425 24.008)"/><path class="d" d="M0,0S4.138,8.558.62,14.82" transform="translate(10.557 24.602)"/><ellipse class="c" cx="1.776" cy="1.776" rx="1.776" ry="1.776" transform="translate(1.532 31.383)"/><path class="d" d="M0,0S4.138,8.558.62,14.82" transform="translate(2.664 31.977)"/><ellipse class="c" cx="1.681" cy="1.681" rx="1.681" ry="1.681" transform="translate(41.969 14.467)"/><path class="d" d="M14.272,0S6.076,1.34,0,4.944" transform="translate(36.31 8.917)"/><path class="d" d="M14.272,0S6.076,1.339,0,4.944" transform="translate(29.674 16.261)"/><ellipse class="c" cx="1.681" cy="1.681" rx="1.681" ry="1.681" transform="translate(34.607 21.921)"/><path class="d" d="M14.272,0S6.078,1.339,0,4.944" transform="translate(22.311 23.715)"/><ellipse class="c" cx="1.681" cy="1.681" rx="1.681" ry="1.681" transform="translate(27.587 28.82)"/><path class="d" d="M14.271,0S6.076,1.339,0,4.944" transform="translate(15.292 30.613)"/><ellipse class="c" cx="1.681" cy="1.681" rx="1.681" ry="1.681" transform="translate(18.797 37.131)"/><path class="d" d="M14.272,0S6.078,1.339,0,4.943" transform="translate(6.501 38.925)"/></g><g transform="translate(1167.111 3122.839)"><path class="e" d="M-659.486,1881.673h162.434l12.385,181.964H-671.395Z" transform="translate(671.395 -1821.177)"/><g transform="translate(54.033 0)"><rect class="f" width="14.29" height="45.729" transform="translate(0 14.767)"/><rect class="f" width="14.29" height="45.729" transform="translate(64.783 14.767)"/><path class="e" d="M-632.927,1853.206h79.073l-14.29-14.767h-50.492Z" transform="translate(632.927 -1838.439)"/></g><text class="g" transform="translate(48.123 137.18)"><tspan x="0" y="0">SHOP</tspan></text><text class="h" transform="translate(49.389 176.504)"><tspan x="0" y="0">LOCAL</tspan></text><path class="c" d="M-613.265,1986.629l7.979-5.62-5.62,7.979,5.62,7.979-7.979-5.62-7.979,5.62,5.62-7.979-5.62-7.979Z" transform="translate(691.585 -1781.516)"/><path class="c" d="M-552.929,1991.116l7.979-5.62-5.62,7.979,5.62,7.979-7.979-5.62-7.979,5.62,5.62-7.979-5.62-7.979Z" transform="translate(715.675 -1779.725)"/><path class="c" d="M-572.033,1903.051l3.989-2.81-2.81,3.989,2.81,3.99-3.989-2.81-3.989,2.81,2.81-3.99-2.81-3.989Z" transform="translate(709.64 -1813.764)"/></g><path class="i" d="M-833.339,1881.921s5.89-26.015,39.759-10.308c0,0,17.179-9.949,26.505,2.633,0,0,12.762-7.542,20.125,7.675Z" transform="translate(1936.784 1263.378)"/><path class="j" d="M-843.129,1885.443s2.789-12.315,18.821-4.88c0,0,8.132-4.71,12.547,1.247,0,0,6.041-3.57,9.527,3.633Z" transform="translate(1939.756 1259.855)"/><path class="c" d="M-486.173,1814.135s-5.447-24.055-36.764-9.532c0,0-15.886-9.2-24.51,2.436,0,0-11.8-6.973-18.609,7.1Z" transform="translate(1917.537 1277.978)"/><path class="k" d="M-543.279,1832.6s-3.568-15.76-24.085-6.244c0,0-10.408-6.028-16.058,1.595,0,0-7.731-4.569-12.191,4.649Z" transform="translate(1866.658 1249.969)"/><path class="j" d="M-438.152,1885.558s2.945-13.007,19.879-5.154c0,0,8.59-4.974,13.253,1.317,0,0,6.381-3.771,10.062,3.837Z" transform="translate(1826.323 1237.281)"/><g transform="translate(1308.511 3299.581)"><path class="l" d="M-509.081,2051.153s6.182-14.028,19.259-6.42c0,0,8.8-11.894,24.728-2.262a26.7,26.7,0,0,1,25.679-3.764s11.175,4.6,12.126,12.445Z" transform="translate(536.796 -1985.434)"/><path class="m" d="M-555.206,2051.153s4.19-14.028,13.052-6.42c0,0,5.962-11.894,16.758-2.262,0,0,7.412-9.314,17.4-3.764,0,0,7.573,4.6,8.218,12.445Z" transform="translate(555.206 -1985.434)"/><g transform="translate(68.612 12.557)"><path class="n" d="M-399.9,1978.313a15.356,15.356,0,0,1-5.274,4.254,15.353,15.353,0,0,1,2.742-6.2,15.358,15.358,0,0,1,5.274-4.254A15.358,15.358,0,0,1-399.9,1978.313Z" transform="translate(426.712 -1972.118)"/><path class="n" d="M-403.1,1993.713a15.353,15.353,0,0,1-6.559-1.7,15.356,15.356,0,0,1,6.61-1.488,15.357,15.357,0,0,1,6.559,1.7A15.36,15.36,0,0,1-403.1,1993.713Z" transform="translate(428.502 -1979.463)"/><path class="n" d="M-408.631,2003.308a15.352,15.352,0,0,1-6.158-2.826,15.349,15.349,0,0,1,6.769-.305,15.353,15.353,0,0,1,6.158,2.826A15.36,15.36,0,0,1-408.631,2003.308Z" transform="translate(430.551 -1983.219)"/><path class="n" d="M-414.087,2012.039a15.362,15.362,0,0,1-6.158-2.826,15.353,15.353,0,0,1,6.769-.306,15.359,15.359,0,0,1,6.158,2.826A15.358,15.358,0,0,1-414.087,2012.039Z" transform="translate(432.728 -1986.703)"/><path class="n" d="M-417.9,2020.966a15.362,15.362,0,0,1-6.367-2.317,15.364,15.364,0,0,1,6.722-.854,15.359,15.359,0,0,1,6.367,2.317A15.359,15.359,0,0,1-417.9,2020.966Z" transform="translate(434.335 -1990.317)"/><path class="n" d="M-423.818,2031.266a15.359,15.359,0,0,1-6.438-2.112,15.349,15.349,0,0,1,6.691-1.068,15.351,15.351,0,0,1,6.438,2.111A15.357,15.357,0,0,1-423.818,2031.266Z" transform="translate(436.724 -1994.44)"/><path class="n" d="M-412.525,1979.62a15.356,15.356,0,0,0,2.092,6.444,15.348,15.348,0,0,0,1.089-6.687,15.355,15.355,0,0,0-2.091-6.445A15.358,15.358,0,0,0-412.525,1979.62Z" transform="translate(429.661 -1972.443)"/><path class="n" d="M-422.849,1987.461a15.351,15.351,0,0,0,4.609,4.966,15.352,15.352,0,0,0-1.826-6.525,15.352,15.352,0,0,0-4.609-4.966A15.361,15.361,0,0,0-422.849,1987.461Z" transform="translate(434.496 -1975.638)"/><path class="n" d="M-428.1,1998.728a15.346,15.346,0,0,0,5.019,4.552,15.36,15.36,0,0,0-2.379-6.344,15.353,15.353,0,0,0-5.018-4.553A15.362,15.362,0,0,0-428.1,1998.728Z" transform="translate(436.812 -1980.206)"/><path class="n" d="M-435.129,2008.256a15.349,15.349,0,0,0,5.374,4.127,15.347,15.347,0,0,0-2.89-6.128,15.357,15.357,0,0,0-5.374-4.127A15.358,15.358,0,0,0-435.129,2008.256Z" transform="translate(439.822 -1984.096)"/><path class="n" d="M-438.779,2018.851a15.352,15.352,0,0,0,4.919,4.66,15.349,15.349,0,0,0-2.241-6.394,15.348,15.348,0,0,0-4.919-4.66A15.361,15.361,0,0,0-438.779,2018.851Z" transform="translate(441.02 -1988.218)"/><path class="n" d="M-417.061,1988.168s-13.4,13.343-19.84,38.639" transform="translate(439.376 -1978.524)"/></g><g transform="translate(27.452 0)"><path class="n" d="M-501.751,1958.265a17.462,17.462,0,0,0,6,4.836,17.457,17.457,0,0,0-3.119-7.044,17.451,17.451,0,0,0-6-4.836A17.457,17.457,0,0,0-501.751,1958.265Z" transform="translate(507.663 -1951.221)"/><path class="n" d="M-502,1975.772a17.461,17.461,0,0,0,7.457-1.935,17.463,17.463,0,0,0-7.515-1.692,17.456,17.456,0,0,0-7.457,1.934A17.459,17.459,0,0,0-502,1975.772Z" transform="translate(509.519 -1959.572)"/><path class="n" d="M-495.532,1986.682a17.458,17.458,0,0,0,7-3.213,17.454,17.454,0,0,0-7.7-.347,17.457,17.457,0,0,0-7,3.213A17.457,17.457,0,0,0-495.532,1986.682Z" transform="translate(507.008 -1963.842)"/><path class="n" d="M-489.329,1996.609a17.459,17.459,0,0,0,7-3.213,17.457,17.457,0,0,0-7.7-.347,17.46,17.46,0,0,0-7,3.213A17.455,17.455,0,0,0-489.329,1996.609Z" transform="translate(504.532 -1967.804)"/><path class="n" d="M-485.11,2006.757a17.457,17.457,0,0,0,7.239-2.634,17.45,17.45,0,0,0-7.642-.97,17.452,17.452,0,0,0-7.239,2.634A17.465,17.465,0,0,0-485.11,2006.757Z" transform="translate(502.827 -1971.912)"/><path class="n" d="M-478.417,2018.467a17.452,17.452,0,0,0,7.32-2.4,17.463,17.463,0,0,0-7.607-1.215,17.466,17.466,0,0,0-7.32,2.4A17.457,17.457,0,0,0-478.417,2018.467Z" transform="translate(500.142 -1976.599)"/><path class="n" d="M-483.8,1959.75a17.457,17.457,0,0,1-2.378,7.327,17.456,17.456,0,0,1-1.238-7.6,17.455,17.455,0,0,1,2.378-7.327A17.459,17.459,0,0,1-483.8,1959.75Z" transform="translate(500.714 -1951.591)"/><path class="n" d="M-474.464,1968.665a17.449,17.449,0,0,1-5.24,5.646,17.455,17.455,0,0,1,2.075-7.418,17.455,17.455,0,0,1,5.241-5.646A17.466,17.466,0,0,1-474.464,1968.665Z" transform="translate(497.619 -1955.222)"/><path class="n" d="M-469.223,1981.474a17.455,17.455,0,0,1-5.705,5.176,17.457,17.457,0,0,1,2.7-7.213,17.456,17.456,0,0,1,5.705-5.176A17.455,17.455,0,0,1-469.223,1981.474Z" transform="translate(495.713 -1960.417)"/><path class="n" d="M-461.883,1992.307a17.46,17.46,0,0,1-6.11,4.692,17.454,17.454,0,0,1,3.286-6.968,17.455,17.455,0,0,1,6.11-4.692A17.454,17.454,0,0,1-461.883,1992.307Z" transform="translate(492.945 -1964.839)"/><path class="n" d="M-456.9,2004.352a17.456,17.456,0,0,1-5.592,5.3,17.452,17.452,0,0,1,2.548-7.269,17.463,17.463,0,0,1,5.592-5.3A17.456,17.456,0,0,1-456.9,2004.352Z" transform="translate(490.749 -1969.525)"/><path class="n" d="M-491.167,1969.468s15.235,15.17,22.556,43.93" transform="translate(502.194 -1958.504)"/></g></g><g transform="translate(1135.08 3303.96)"><g transform="translate(38.466 27.279)"><path class="o" d="M-769.908,2035.83s-6.524-17.805-21.326-25.161l-.446.624s12.125,5.431,21.332,24.8Z" transform="translate(799.54 -2006.292)"/><path class="o" d="M-796.455,2007.762s-2.719-5.439-8.307-4.19c0,0,.743,4.993,7.861,4.815Z" transform="translate(804.762 -2003.385)"/><path class="o" d="M-782.223,2011.162s-1.916-5.526,1.71-7.777c0,0,4.054,4.27-.826,8.469Z" transform="translate(795.968 -2003.385)"/><path class="o" d="M-769.348,2024.749s-.72-5.8,3.3-7.248c0,0,3.073,5.021-2.577,8.11Z" transform="translate(790.648 -2009.019)"/><path class="o" d="M-787.685,2017.932s-6.222-1.229-8.264,2.649a6.533,6.533,0,0,0,9.116-1.855Z" transform="translate(801.244 -2009.117)"/><path class="o" d="M-775.5,2031.17s-6.549-1.192-8.725,2.7a7.15,7.15,0,0,0,9.618-1.912Z" transform="translate(796.564 -2014.406)"/></g><g transform="translate(62.56 0)"><path class="o" d="M-747.036,2022.888s7.459-25.245-2.954-45.69l-1.013.327s9.021,16.086,3.261,45.292Z" transform="translate(759.212 -1965.654)"/><path class="o" d="M-753.609,1969.53s1.468-8.312-5.793-11.544c0,0-3.3,6.181,4.779,11.871Z" transform="translate(762.83 -1957.986)"/><path class="o" d="M-743.911,1986.16s2.436-7.745,8.34-7.254c0,0,.987,8.114-7.928,8.757Z" transform="translate(756.381 -1966.327)"/><path class="o" d="M-740.849,2012.415s4-7.065,9.671-5.353c0,0-.729,8.141-9.582,6.909Z" transform="translate(755.159 -1977.467)"/><path class="o" d="M-753.26,1989.667s-5.919-6.517-11.4-3.885a9.069,9.069,0,0,0,11.7,5.474Z" transform="translate(764.664 -1968.831)"/><path class="o" d="M-750.646,2014.573s-6.314-6.747-11.96-4.208a9.926,9.926,0,0,0,12.3,5.826Z" transform="translate(763.842 -1978.664)"/></g><path class="p" d="M-822.654,2050.631s6.182-14.028,19.26-6.42c0,0,8.8-11.894,24.728-2.262a26.694,26.694,0,0,1,25.679-3.764s11.175,4.6,12.126,12.445Z" transform="translate(850.369 -1989.291)"/><path class="q" d="M-868.779,2050.631s4.19-14.028,13.052-6.42c0,0,5.962-11.894,16.758-2.262,0,0,7.412-9.315,17.4-3.764,0,0,7.573,4.6,8.218,12.445Z" transform="translate(868.779 -1989.291)"/></g></g></svg>