<svg xmlns="http://www.w3.org/2000/svg" width="294.974" height="393.286" viewBox="0 0 294.974 393.286"><defs><style>.a{fill:#8cc63f;}.b{fill:#cfd136;}.c{fill:#5dbc58;}.d,.e{fill:#cec41d;}.e{stroke:#ffa4a1;stroke-miterlimit:10;}</style></defs><g transform="translate(-10944.529 -10619.219)"><path class="a" d="M571.73,1562.226s27.967-31.507,69.033-18.763c0,0,46.731,12.625,53.1,62.069,0,0,5.311,33.515-21.948,59.358L571.73,1764.368l-100.894-100.54s-35.756-30.8-18.055-80.007c0,0,24.073-54.164,83.548-41.42C536.329,1542.4,553.676,1545.941,571.73,1562.226Z" transform="translate(10499.921 9199.149)"/><g transform="translate(11098.737 10893.266)"><g transform="translate(18.905)"><path class="b" d="M612.481,1709.833s42.678,15.939,79.239.442l-.441-1.789s-28.865,13.624-78.588.135Z" transform="translate(-612.481 -1689.614)"/><path class="b" d="M688.695,1710.6s14.173,3.544,20.633-8.6c0,0-10.27-6.453-21.074,6.81Z" transform="translate(-609.456 -1689.935)"/><path class="b" d="M684.671,1711.645s13.075,5.145,11.511,15.279c0,0-14.126.719-14.156-14.749Z" transform="translate(-609.705 -1689.488)"/><path class="b" d="M669.831,1715.491s11.712,7.761,8.068,17.345c0,0-13.966-2.246-10.765-17.38Z" transform="translate(-610.319 -1689.336)"/><path class="b" d="M683.011,1712.534s11.97-9.427,8.089-19.217c0,0-14.363,3.809-10.869,19.53Z" transform="translate(-609.799 -1690.219)"/><path class="b" d="M668.368,1714.3s12.416-10.082,8.716-20.139c0,0-14.707,4.317-11.55,20.534Z" transform="translate(-610.381 -1690.185)"/><path class="b" d="M653.252,1715.88s11.713,7.761,8.068,17.345c0,0-13.965-2.246-10.765-17.38Z" transform="translate(-610.98 -1689.32)"/><path class="b" d="M651.79,1714.691s12.414-10.082,8.715-20.139c0,0-14.708,4.316-11.551,20.534Z" transform="translate(-611.043 -1690.17)"/><path class="b" d="M636.952,1714.734s11.713,7.761,8.068,17.345c0,0-13.966-2.246-10.765-17.38Z" transform="translate(-611.631 -1689.366)"/><path class="b" d="M635.489,1713.546s12.416-10.083,8.716-20.139c0,0-14.707,4.316-11.55,20.534Z" transform="translate(-611.694 -1690.216)"/><path class="b" d="M620.511,1710.734s11.713,7.762,8.068,17.346c0,0-13.966-2.247-10.765-17.38Z" transform="translate(-612.287 -1689.526)"/><path class="b" d="M618.983,1710.477s12.415-10.082,8.716-20.139c0,0-14.706,4.316-11.55,20.534Z" transform="translate(-612.352 -1690.338)"/></g><g transform="translate(0 19.474)"><path class="b" d="M614.01,1709.065s15.421,42.867-.517,79.238l-1.784-.463s13.972-28.7,1.087-78.579Z" transform="translate(-593.607 -1709.065)"/><path class="b" d="M613.822,1785.279s3.372,14.216-8.849,20.527c0,0-6.328-10.346,7.065-20.989Z" transform="translate(-593.936 -1706.042)"/><path class="b" d="M614.913,1781.271s4.986,13.136,15.138,11.7c0,0,.89-14.117-14.576-14.334Z" transform="translate(-593.479 -1706.288)"/><path class="b" d="M618.937,1766.477s7.618,11.806,17.246,8.278c0,0-2.077-13.992-17.248-10.975Z" transform="translate(-593.319 -1706.898)"/><path class="b" d="M615.826,1779.616s-9.571,11.855-19.313,7.857c0,0,3.983-14.316,19.66-10.632Z" transform="translate(-594.214 -1706.384)"/><path class="b" d="M617.772,1765s-10.232,12.292-20.243,8.471c0,0,4.493-14.653,20.673-11.3Z" transform="translate(-594.173 -1706.965)"/><path class="b" d="M619.526,1749.905s7.62,11.805,17.246,8.277c0,0-2.077-13.992-17.248-10.975Z" transform="translate(-593.295 -1707.56)"/><path class="b" d="M618.362,1748.423s-10.233,12.292-20.243,8.47c0,0,4.493-14.653,20.672-11.3Z" transform="translate(-594.15 -1707.627)"/><path class="b" d="M618.578,1733.592s7.619,11.805,17.246,8.277c0,0-2.077-13.992-17.248-10.975Z" transform="translate(-593.333 -1708.211)"/><path class="b" d="M617.414,1732.11s-10.232,12.292-20.243,8.47c0,0,4.494-14.653,20.672-11.3Z" transform="translate(-594.188 -1708.278)"/><path class="b" d="M614.778,1717.1s7.618,11.806,17.246,8.278c0,0-2.077-13.992-17.248-10.975Z" transform="translate(-593.485 -1708.869)"/><path class="b" d="M614.545,1715.567s-10.232,12.292-20.243,8.471c0,0,4.494-14.653,20.673-11.3Z" transform="translate(-594.302 -1708.938)"/></g></g><rect class="a" width="58.14" height="31.861" rx="15.931" transform="matrix(0.684, -0.729, 0.729, 0.684, 11039.483, 10946.097)"/><rect class="a" width="58.14" height="31.861" rx="15.931" transform="matrix(0.684, -0.729, 0.729, 0.684, 10988.239, 10895.6)"/><rect class="a" width="58.14" height="31.861" rx="15.931" transform="matrix(0.684, -0.729, 0.729, 0.684, 11013.162, 10921.111)"/><rect class="a" width="58.14" height="31.861" rx="15.931" transform="matrix(0.684, -0.729, 0.729, 0.684, 10962.618, 10870.087)"/><path class="c" d="M467.015,1561.488s46.731-49.875,104.435.357l100.186,102.6s3.895,23.156-21.064,21.2l-37.7-36.872s-4.337-5.7-7.258-3.161c0,0-3.318,1.87,2.921,7.348l37.193,37.562s6.394,24.2-21.44,21.575l-40.047-38.7s-2.655-3.34-5.045-1.069c0,0-2.523,2.405.53,5.21l39.03,39.009s3.049,28.523-21.8,23.157l-40.862-42.26s-2.921-2.405-4.779,0c0,0-2.655,1.736.4,4.408l40.426,42.541s3.932,25.807-22.088,21.8l-100.2-101.746S418.162,1615.639,467.015,1561.488Z" transform="translate(10498.516 9196.903)"/><path class="a" d="M518.1,1613.553l51.682-52.041s46.657-49.528,103,3.23c0,0,47.376,50.6-3.589,101.21l-75.728-77.882-28.129,27.994S543.582,1643.342,518.1,1613.553Z" transform="translate(10501.394 9196.944)"/><g transform="translate(11101.241 10619.219)"><path class="d" d="M635.869,1459.837a31.041,31.041,0,0,1-11.779,8.026,28.919,28.919,0,0,1,18.292-20.7A31.042,31.042,0,0,1,635.869,1459.837Z" transform="translate(-595.617 -1425.998)"/><path class="d" d="M616.595,1441.545A49.034,49.034,0,0,1,620.8,1459.2,46.891,46.891,0,0,1,606,1426.81,49.019,49.019,0,0,1,616.595,1441.545Z" transform="translate(-596.339 -1426.81)"/><path class="d" d="M610.523,1469.33a31.04,31.04,0,0,1-13.813-3.513,28.924,28.924,0,0,1,27.627,0A31.041,31.041,0,0,1,610.523,1469.33Z" transform="translate(-596.71 -1425.393)"/><path class="d" d="M641.279,1473.7a31.046,31.046,0,0,1-12.615,6.635,28.919,28.919,0,0,1,20.529-18.489A31.041,31.041,0,0,1,641.279,1473.7Z" transform="translate(-595.435 -1425.412)"/><path class="d" d="M614.779,1479.89a31.046,31.046,0,0,1-13.814-3.513,28.926,28.926,0,0,1,27.629,0A31.046,31.046,0,0,1,614.779,1479.89Z" transform="translate(-596.54 -1424.972)"/><path class="d" d="M645.963,1486.134a31.049,31.049,0,0,1-13.078,5.67,28.916,28.916,0,0,1,21.859-16.9A31.053,31.053,0,0,1,645.963,1486.134Z" transform="translate(-595.266 -1424.89)"/><path class="d" d="M619.811,1491.988A31.046,31.046,0,0,1,606,1488.476a28.919,28.919,0,0,1,27.628,0A31.044,31.044,0,0,1,619.811,1491.988Z" transform="translate(-596.339 -1424.489)"/><path class="d" d="M650.552,1498.329a31.039,31.039,0,0,1-12.633,6.6A28.924,28.924,0,0,1,658.5,1486.5,31.048,31.048,0,0,1,650.552,1498.329Z" transform="translate(-595.065 -1424.428)"/><path class="d" d="M624.62,1504.986a31.048,31.048,0,0,1-13.814-3.513,28.918,28.918,0,0,1,27.629,0A31.048,31.048,0,0,1,624.62,1504.986Z" transform="translate(-596.147 -1423.97)"/><path class="d" d="M655.278,1511.274a31.039,31.039,0,0,1-12.753,6.365,28.924,28.924,0,0,1,20.916-18.05A31.031,31.031,0,0,1,655.278,1511.274Z" transform="translate(-594.881 -1423.905)"/><path class="d" d="M629.194,1518.546a31.047,31.047,0,0,1-13.814-3.512,28.916,28.916,0,0,1,27.627,0A31.046,31.046,0,0,1,629.194,1518.546Z" transform="translate(-595.965 -1423.429)"/><path class="d" d="M659.353,1524.175A31.044,31.044,0,0,1,646,1529.154a28.92,28.92,0,0,1,22.71-15.733A31.047,31.047,0,0,1,659.353,1524.175Z" transform="translate(-594.743 -1423.353)"/><path class="d" d="M632.582,1528.82a31.04,31.04,0,0,1-13.813-3.513,28.924,28.924,0,0,1,27.627,0A31.042,31.042,0,0,1,632.582,1528.82Z" transform="translate(-595.83 -1423.019)"/><path class="e" d="M619.772,1457.113s28.3,66.283,35.3,104.268" transform="translate(-595.79 -1425.6)"/><g transform="translate(58.489 68.314)"><path class="d" d="M699.335,1503.358a22.708,22.708,0,0,0,4.712,9.3,21.165,21.165,0,0,0-4.406-19.729A22.714,22.714,0,0,0,699.335,1503.358Z" transform="translate(-651.121 -1492.485)"/><path class="d" d="M718.472,1498.2a35.872,35.872,0,0,0-8.935,9.826,34.321,34.321,0,0,0,20.932-15.523A35.862,35.862,0,0,0,718.472,1498.2Z" transform="translate(-650.695 -1492.502)"/><path class="d" d="M712.468,1518.436a22.716,22.716,0,0,0,10.092,2.63,21.159,21.159,0,0,0-17.7-9.762A22.712,22.712,0,0,0,712.468,1518.436Z" transform="translate(-650.882 -1491.752)"/><path class="d" d="M691.006,1510.357a22.722,22.722,0,0,0,5.739,8.708,21.158,21.158,0,0,0-6.621-19.1A22.714,22.714,0,0,0,691.006,1510.357Z" transform="translate(-651.48 -1492.204)"/><path class="d" d="M706.01,1523.7a22.717,22.717,0,0,0,10.092,2.63,21.158,21.158,0,0,0-17.7-9.762A22.724,22.724,0,0,0,706.01,1523.7Z" transform="translate(-651.14 -1491.542)"/><path class="d" d="M683.636,1516.69a22.709,22.709,0,0,0,6.377,8.253,21.158,21.158,0,0,0-8.036-18.549A22.712,22.712,0,0,0,683.636,1516.69Z" transform="translate(-651.798 -1491.948)"/><path class="d" d="M698.512,1529.673a22.716,22.716,0,0,0,10.092,2.63,21.159,21.159,0,0,0-17.7-9.762A22.709,22.709,0,0,0,698.512,1529.673Z" transform="translate(-651.439 -1491.303)"/><path class="d" d="M676.362,1522.865a22.728,22.728,0,0,0,5.762,8.694,21.163,21.163,0,0,0-6.672-19.084A22.711,22.711,0,0,0,676.362,1522.865Z" transform="translate(-652.065 -1491.705)"/><path class="d" d="M690.838,1536.3a22.715,22.715,0,0,0,10.092,2.63,21.158,21.158,0,0,0-17.7-9.762A22.707,22.707,0,0,0,690.838,1536.3Z" transform="translate(-651.746 -1491.038)"/><path class="d" d="M668.766,1529.494a22.713,22.713,0,0,0,5.923,8.585,21.16,21.16,0,0,0-7.026-18.956A22.721,22.721,0,0,0,668.766,1529.494Z" transform="translate(-652.374 -1491.439)"/><path class="d" d="M683.116,1543.375a22.716,22.716,0,0,0,10.092,2.63,21.158,21.158,0,0,0-17.7-9.762A22.722,22.722,0,0,0,683.116,1543.375Z" transform="translate(-652.054 -1490.756)"/><path class="d" d="M661.636,1536.345a22.718,22.718,0,0,0,6.8,7.91,21.155,21.155,0,0,0-8.993-18.105A22.719,22.719,0,0,0,661.636,1536.345Z" transform="translate(-652.696 -1491.159)"/><path class="d" d="M677.315,1548.761a22.717,22.717,0,0,0,10.092,2.63,21.159,21.159,0,0,0-17.7-9.762A22.71,22.71,0,0,0,677.315,1548.761Z" transform="translate(-652.285 -1490.541)"/><path class="e" d="M712.414,1507.052s-41.55,32.474-59.461,54.338" transform="translate(-652.954 -1491.921)"/></g></g></g></svg>