<svg xmlns="http://www.w3.org/2000/svg" width="62.348" height="15.568" viewBox="0 0 62.348 15.568"><defs><style>.a{fill:#fff;}</style></defs><path class="a" d="M6061.916,1365.442l-.021-.133-.135-.006h-.019c-.114,0-.213-.013-.323-.013l-2.347,0c-.741,0-2.811,0-3.551,0h-.166v2.275l.165,0c.369,0,2.066.007,2.434.007h1.488c.04,0,.083,0,.126.008h0a5.153,5.153,0,0,1-1.2,2.458,5.356,5.356,0,0,1-3.041,1.769,5.793,5.793,0,0,1-1.105.108h0a5.441,5.441,0,0,1-5-3.233,5.455,5.455,0,0,1,1.712-6.638,5.418,5.418,0,0,1,3.292-1.1,5.6,5.6,0,0,1,3.862,1.567l.012.012.091.084.186-.109,0,0,0,0,.013-.008.014-.013-.036-.039.039.036c.342-.337.683-.676,1.026-1.012.068-.069.121-.119.167-.175l0,0,.06-.092a.309.309,0,0,0,.032-.128v-.024l-.021-.082-.006-.022-.011-.019a.53.53,0,0,0-.107-.134c-.039-.038-.083-.074-.14-.124l-.047-.041h0a7.742,7.742,0,0,0-5.032-1.969h-.009a8.184,8.184,0,0,0-2.585.439,7.684,7.684,0,0,0-5.284,7.328,7.986,7.986,0,0,0,.552,2.906,7.789,7.789,0,0,0,7.255,4.894,7.53,7.53,0,0,0,3.643-.933,7.656,7.656,0,0,0,3.994-5.615,6.726,6.726,0,0,0,.1-1.166,6.345,6.345,0,0,0-.084-1.034Z" transform="translate(-6046.456 -1358.641)"/><path class="a" d="M6069.776,1363.7a5.387,5.387,0,0,0-3.85,1.548,5.146,5.146,0,0,0-1.513,3.649v.007h0a5.126,5.126,0,0,0,1.472,3.648,5.722,5.722,0,0,0,7.78,0,5.126,5.126,0,0,0,1.47-3.612v-.033l0,0v0a5.149,5.149,0,0,0-1.514-3.65A5.391,5.391,0,0,0,6069.776,1363.7Zm2.279,7.4v0l-.047.048a3.055,3.055,0,0,1-4.464,0,3.234,3.234,0,0,1-.952-2.252,3.185,3.185,0,1,1,6.369,0A3.239,3.239,0,0,1,6072.055,1371.1Z" transform="translate(-6047.583 -1358.958)"/><path class="a" d="M6079.9,1371.621a.731.731,0,0,1-.565-.244l0,0a1.458,1.458,0,0,1-.278-.985v-11.115h-2.068v11.248a3.253,3.253,0,0,0,.75,2.312,2.629,2.629,0,0,0,1.972.744h.9v-1.959h-.708Z" transform="translate(-6048.372 -1358.681)"/><path class="a" d="M6097.609,1363.618h-.006a2.646,2.646,0,0,0-1.924.7v.095h-.087a2.352,2.352,0,0,0-.305.445l-.1.176-.156-.127a5.549,5.549,0,0,0-7.309.335,5.143,5.143,0,0,0-1.515,3.649v0h0a5.125,5.125,0,0,0,1.474,3.65,5.393,5.393,0,0,0,3.89,1.526,5.574,5.574,0,0,0,3.053-.862l.257-.165v1.015h2.068v-7.252a1.452,1.452,0,0,1,.278-.984v0a.729.729,0,0,1,.564-.244h.708v-1.959h-.895Zm-3.757,7.473v0l-.047.049a3.055,3.055,0,0,1-4.464,0,3.243,3.243,0,0,1-.953-2.252,3.185,3.185,0,1,1,5.464,2.2Z" transform="translate(-6048.951 -1358.953)"/><path class="a" d="M6111.269,1363.618h-.014a2.625,2.625,0,0,0-1.971.744,2.3,2.3,0,0,0-.348.5l-.1.176-.154-.127a5.55,5.55,0,0,0-7.31.335,5.139,5.139,0,0,0-1.515,3.649v.009h0a5.13,5.13,0,0,0,1.473,3.646,5.4,5.4,0,0,0,3.891,1.526,5.576,5.576,0,0,0,3.053-.862l.256-.165v1.015h2.068v-7.252a1.449,1.449,0,0,1,.278-.984l0,0a.731.731,0,0,1,.565-.244h.708v-1.959Zm-3.765,7.473v0l-.048.049a3.055,3.055,0,0,1-4.464,0,3.235,3.235,0,0,1-.952-2.252,3.184,3.184,0,1,1,5.464,2.2Z" transform="translate(-6049.808 -1358.953)"/><path class="a" d="M6084.576,1371.621a.732.732,0,0,1-.566-.244l0,0a1.461,1.461,0,0,1-.277-.985v-11.115h-2.068v11.247a3.251,3.251,0,0,0,.749,2.313,2.632,2.632,0,0,0,1.972.744h.9v-1.959h-.707Z" transform="translate(-6048.666 -1358.681)"/></svg>