<svg xmlns="http://www.w3.org/2000/svg" width="428.976" height="362.515" viewBox="0 0 428.976 362.515"><defs><style>.a{fill:#0e4720;}.b{fill:#f7b09e;}.c{fill:#2b1100;}.d{fill:#8cc63f;}.e{fill:#6b5343;}.f{fill:#db8572;}.g{fill:#0c060e;}.h,.i,.r{fill:none;}.h,.i{stroke:#db8572;}.h,.p,.q{stroke-miterlimit:10;}.i{stroke-linecap:round;stroke-linejoin:round;}.j{fill:#cd5016;}.k{fill:#f98658;}.l{fill:#fff;}.m{fill:#577885;}.n{fill:#ad9d86;}.o{fill:#c5ad31;}.p{fill:#ea9447;}.p,.q{stroke:#773c0b;}.q{fill:#d3792f;}.s{fill:#eaa89b;}</style></defs><g transform="translate(3155.561 -1789.633)"><ellipse class="a" cx="214.488" cy="21.243" rx="214.488" ry="21.243" transform="translate(-3155.561 2109.662)"/><g transform="translate(-3013.966 1801.683)"><path class="b" d="M-2826.957,2125.213l3.9,33.214-.793,4.418a10.787,10.787,0,0,0,.2,2.79c2.1,7.232,4.275,8.2,4.275,8.2s2.756.685,1.746-1.295l-1.186-.977s2.113-.5.893-2.213-2.672-3.708-2.672-3.708l1.236-2.781s.71,5.9,2.364,2.58,1.653-4.125,1.653-4.125.153-1.224-1.929-4.367c0,0,4.385-21,3.734-27.233Z" transform="translate(2844.057 -1975.199)"/><path class="c" d="M-2849.2,1863.516s-21.96,30.1,13.448,50.337c0,0,51.323,17.025,68.966-21.1,0,0,10.445-9.006,2.139-36.971,0,0-6.909-17.93-5.593-23.77,0,0-.741-9.294-12.585-5.511,0,0-3.893-12.4-18.57-11.905,0,0-18.77,2.2-14.411,18.814,0,0-11.186-1.974-13.982,4.606,0,0-3.537,5.922-1.316,11.679,0,0,2.509,4.195-6.744,5.305,0,0-17.581-.309-23.5,10.733,0,0-2.837,5.12.987,1.666s8.7-5.614,11.412-3.886" transform="translate(2862.365 -1814.584)"/><path class="b" d="M-2744.329,1859.726s10.034-6.415,10.2,15.463c0,0,2.8-6.26,6.251.823,1.065,2.187.329,8.266-6.457,7.279,0,0-3.578,19.177-16.409,19.123-2.724-.011-14.8-2.22-15.792-18.506,0,0-10.106,1.443-6.915-9.762.326-1.145,5.928-4.673,5.558,1.5,0,0,2.344-15.3,9.006-17.766C-2758.887,1857.875-2752.1,1853.557-2744.329,1859.726Z" transform="translate(2816.713 -1836.209)"/><path class="b" d="M-2735.821,1948.946s.285,12.666,1.436,13.982l5.655.419s5.778,14.818-11.532,15.537c-4.753.2-15.116-1.72-11.662-15.537l6.929-.056,2.1-14.345S-2740.427,1951.084-2735.821,1948.946Z" transform="translate(2805.618 -1884.058)"/><path class="d" d="M-2767.365,1978.706l8.143.864s4.318-.494,10.487,8.76,22.331,38.9,22.331,38.9l11.022,15.956-11.679,9.047s-4.771-2.632-9.87-16.121l-21.55-24.675s-2.3-2.961-2.3.823-1.316,18.259-1.316,18.259l8.061,24.511h-50.5l8.225-24.017-1.481-19.082s.165-3.948-2.3-.494-10.53,29.186-10.53,29.186l-3.032,17.682-13.008-1.478s-1.087-12.2-.483-16.2c2.133-14.155,18.5-54.189,18.5-54.189s3.29-8.554,18.1-7.731c0,0-3.351,14.654,11.453,15.147C-2779.106,1993.853-2765.392,1994.827-2767.365,1978.706Z" transform="translate(2844.252 -1899.417)"/><path class="e" d="M-2739.4,2136.814s11.021,37.012,3.126,73.2c0,0,14.969,23.852-.823,69.747h-8.883l-18.753-124.525-18.424,123.208-9.87.494s-13.489-47.868,0-68.76c0,0-7.567-38.328,3.126-73.366Z" transform="translate(2829.614 -1981.198)"/><path class="b" d="M-2608.026,2112.289l13.653,21.508,4.935,5.922s2.467,2.344,2.1,7.649c0,0-.031,1.789-2.776-3.423,0,0,2.807,8.605,1.326,9.006,0,0-.617,2.1-2.961-7.125,0,0,.833,7.649-.863,7.71s-.155,0-.155,0-.956.771-1.3-8.389c0,0-1.141-3.208-2.282-1.573s1.573,4.935,1.573,4.935.74,2.313-1.326,1.449l-3.423-4.133.308-8.3-20.49-16.193Z" transform="translate(2736.895 -1968.516)"/><path class="b" d="M-2784.948,2430.087l-1.645,14.106a4.3,4.3,0,0,0,.823,2.22c1.892,1.976.822,5.3.822,5.3s-4.976,3.208-14.6,3.208,7.475-8.389,7.475-8.389l-2.746-15.957Z" transform="translate(2831.404 -2132.838)"/><path class="b" d="M-2689.269,2432.812l1.645,14.106a4.3,4.3,0,0,1-.823,2.22c-1.892,1.976-.823,5.305-.823,5.305s4.976,3.207,14.6,3.207-7.475-8.389-7.475-8.389l1.64-16.45Z" transform="translate(2773.019 -2134.247)"/><path class="f" d="M-2725.511,1950.408s-1.8,1.306-7.2.039c0,0,3.474,3.579,7.287,2.3Z" transform="translate(2795.327 -1884.814)"/><path class="g" d="M-2709.779,1890.236a5.966,5.966,0,0,0-2.086-.445s-.7-.522.174-1.008a3.177,3.177,0,0,1,2.224.938S-2709.314,1890.4-2709.779,1890.236Z" transform="translate(2784.683 -1852.95)"/><path class="h" d="M-2726.026,1896.346v10.437s-.557,1.782-3.007.176" transform="translate(2793.425 -1856.86)"/><path class="i" d="M-2730.072,1928.834s3.119,2.349,6.015-1.3" transform="translate(2793.961 -1872.986)"/><circle class="g" cx="1.361" cy="1.361" r="1.361" transform="translate(56.201 39.486)"/><circle class="g" cx="1.361" cy="1.361" r="1.361" transform="translate(72.018 39.486)"/><path class="g" d="M-2745.617,1889.815a5.978,5.978,0,0,1,2.085-.445s.7-.521-.174-1.008a3.178,3.178,0,0,0-2.225.939S-2746.082,1889.982-2745.617,1889.815Z" transform="translate(2802.173 -1852.732)"/><g transform="translate(20.955 303.044)"><path class="j" d="M-2806.7,2452.8c-.019-1.329,5.617-10.562,5.617-10.562l8.278-.148c3.565,3.1,3.33,17.274,3.33,17.274l-26.893.411C-2816.255,2455.613-2806.69,2452.808-2806.7,2452.8Z" transform="translate(2817.625 -2442.087)"/><path class="k" d="M-2790.909,2478.03c1.746,1.5-.232,2.773-.232,2.773s-22.3,1.76-26.631.127c-2.686-1.014-.037-2.5-.037-2.5Z" transform="translate(2818.975 -2460.672)"/></g><g transform="translate(80.14 303.044)"><path class="j" d="M-2668.225,2459.772l-26.893-.411s-.235-14.173,3.33-17.274l8.278.148s5.637,9.234,5.617,10.563C-2677.9,2452.808-2668.333,2455.613-2668.225,2459.772Z" transform="translate(2695.749 -2442.087)"/><path class="k" d="M-2668.8,2478.429s2.649,1.488-.037,2.5c-4.335,1.633-26.631-.127-26.631-.127s-1.978-1.271-.232-2.773Z" transform="translate(2696.422 -2460.672)"/></g><g transform="translate(55.103 107.355)"><path class="l" d="M-2737.169,2049.5h-1.342v-4.15h10.255a10.067,10.067,0,0,0-11.54-8.339,10.068,10.068,0,0,0-8.34,11.54,10.068,10.068,0,0,0,11.541,8.339,10.068,10.068,0,0,0,8.468-9.949v-.234h-9.042Z" transform="translate(2748.266 -2036.882)"/></g></g><rect class="b" width="6.963" height="10.528" transform="translate(-3051.815 2120.792) rotate(-89.181)"/><path class="m" d="M-2916.459,2493.385l-28.522-.42s-2-14.471,1.78-17.636l10.531.151s5.979,9.427,5.958,10.784C-2926.718,2486.276-2916.573,2489.138-2916.459,2493.385Z" transform="translate(-108.61 -354.548)"/><path class="n" d="M-2916.509,2512.434s2.81,1.518-.039,2.553c-4.6,1.667-28.243-.13-28.243-.13s-2.1-1.3-.246-2.831Z" transform="translate(-108.46 -373.523)"/><rect class="b" width="7.751" height="11.722" transform="translate(-3089.081 2118.383) rotate(-89.181)"/><path class="m" d="M-2990.883,2490.455l-31.758-.453s-2.23-16.1,1.98-19.636l11.721.168s6.656,10.487,6.636,12.007C-3002.3,2482.537-2991.008,2485.725-2990.883,2490.455Z" transform="translate(-68.423 -351.982)"/><path class="n" d="M-2990.936,2511.653s3.134,1.69-.039,2.842c-5.12,1.86-31.447-.142-31.447-.142s-2.341-1.443-.272-3.146Z" transform="translate(-68.259 -373.099)"/><path class="n" d="M-2977.459,2165.361s3.28,58.56,3.336,74.879c.065,19.427,1.607,44.39-.523,68.005h-14.236l-14.98-99.571-4.757,99.5-15.519-.421s-6.519-41.591-5.823-68.011c.334-12.5-1.325-33.212,1.886-72.756Z" transform="translate(-64.871 -194.275)"/><path class="b" d="M-2860.779,2129.6l14.128,22.251,5.106,6.13a10.06,10.06,0,0,1,2.169,7.912s-.031,1.852-2.869-3.544c0,0,2.9,8.905,1.372,9.32,0,0-.641,2.171-3.066-7.372,0,0,.864,7.915-.891,7.969s-.162,0-.162,0-.989.8-1.337-8.679c0,0-1.184-3.318-2.367-1.627s1.632,5.106,1.632,5.106.761,2.394-1.375,1.5l-3.537-4.274.317-8.584-21.2-16.752Z" transform="translate(-146.176 -175.786)"/><path class="c" d="M-3019.614,1859.789s13.479,2.9,20.066-5.453a10.615,10.615,0,0,0,6.109,4c.391.1,1.4-.146,1.241.264-9.55,25.049-16.737,32.9-25.658,40.152a30.578,30.578,0,0,0,31.25-14.715c15.783-25.507-1.38-47.626-9.956-50.358s-31.782-5.469-39.284,12.286-4.594,32.95-1.989,38.071,11.488,12.793,17.307,13.656l10.021,3.956C-3012.657,1891.4-3019.614,1859.789-3019.614,1859.789Z" transform="translate(-59.422 -21.745)"/><path class="b" d="M-2993.283,1869.5s11.92-6.694,12.092,15.939a54.159,54.159,0,0,1-.676,7.937c-1.382,6.642-9.337,20.762-18.054,20.289-2.816-.151-15.309-2.307-16.337-19.146,0,0-10.458,1.491-7.156-10.1.338-1.183,6.131-4.834,5.755,1.545,0,0,2.423-15.825,9.315-18.379C-3008.344,1867.587-3001.321,1863.121-2993.283,1869.5Z" transform="translate(-67.995 -39.521)"/><path class="g" d="M-2948.717,1901.475a6.166,6.166,0,0,0-2.161-.462s-.717-.539.182-1.049a3.288,3.288,0,0,1,2.306.969S-2948.238,1901.648-2948.717,1901.475Z" transform="translate(-105.694 -57.048)"/><path class="h" d="M-2965.535,1909.6v10.8s-.574,1.844-3.107.182" transform="translate(-96.649 -62.03)"/><path class="i" d="M-2969.711,1941.423a4.37,4.37,0,0,0,6.077-1.118c.051-.074.1-.15.145-.226" transform="translate(-96.096 -77.79)"/><circle class="g" cx="1.409" cy="1.409" r="1.409" transform="translate(-3073.763 1846.704)"/><circle class="g" cx="1.409" cy="1.409" r="1.409" transform="translate(-3057.4 1846.704)"/><path class="g" d="M-2985.8,1901.044a6.167,6.167,0,0,1,2.156-.46s.719-.539-.175-1.049a3.3,3.3,0,0,0-2.307.969S-2986.283,1901.219-2985.8,1901.044Z" transform="translate(-87.596 -56.827)"/><circle class="c" cx="9.291" cy="9.291" r="9.291" transform="translate(-3088.219 1870.349)"/><path class="c" d="M-3013,1908.056s-17.992-10.981-9.29-31.317c0,0,14.205-5.331,22.021-12.546,0,0,7.82,9.622,9.858,9.648l3.963-7.5-25.184-9.28-12.792,3.206-16.416,24.118,15.366,20.929Z" transform="translate(-59.317 -34.863)"/><path class="b" d="M-2984.052,1962.382s-.711,12.583.483,13.939l2.015.1s9.813,15.662-8.1,16.4c-4.917.21-15.64-1.779-12.067-16.076l7.17-.058,1.4-14.182A16.6,16.6,0,0,0-2984.052,1962.382Z" transform="translate(-79.176 -89.322)"/><path class="o" d="M-3042.712,1997.832s8.18-6.921,23.49-6.063c0,0-1.219,16.119,8.809,14.89,0,0,10.081,1.5,8.041-15.184l8.426.891s4.469-.508,10.849,9.064,23.1,40.248,23.1,40.248l11.406,16.51-12.084,9.361s-4.467-2.466-9.437-14.724a13.025,13.025,0,0,0-2.261-3.668l-20.8-23.816s-2.382-3.062-2.382.848c0,1.353,4.6,24.23,6.612,31.994,1.21,4.661,4.981,17.262,4.981,17.262,1.735,4.062-2.464,8.3-6.875,8.3l-34.679,2.051c-4.4,0-9.167-4.324-8.958-8.723.208-4.56-.652-12.413-.334-17.718.473-8,2.169-17.94,1.548-25.93l-.587-7.584s.17-4.081-2.386-.51" transform="translate(-58.35 -104.365)"/><circle class="c" cx="9.291" cy="9.291" r="9.291" transform="translate(-3092.157 1881.991)"/><path class="f" d="M-2972.919,1962.091a16.814,16.814,0,0,1-7.983-.279,12,12,0,0,0,7.869,2.924Z" transform="translate(-90.31 -89.027)"/><path class="b" d="M-3018.935,1903.153s-5.921,6.54,0,12.278Z" transform="translate(-69.284 -58.697)"/><path class="b" d="M-3043.042,2151.452l27.958,8.089,3.632,2.894a11.169,11.169,0,0,0,2.636,1.187c7.617,1.647,9.57.138,9.57.138s1.979-2.173-.321-2.225l-1.469.6s.584-2.169-1.575-1.9-4.69.611-4.69.611l-1.926-2.491s5.718,2.253,3.509-.881a13.949,13.949,0,0,0-2.937-3.536s-1.049-.743-4.924-.393c0,0-16.964-14.314-22.953-16.778Z" transform="translate(-58.18 -179.489)"/><path class="o" d="M-3052.4,2003.5c-1.258-.037-10.066,7.651-10.358,23.446-.106,5.93-3.37,29.783,9.285,55.6l14.291-10.274c-7.429-13.191-8.687-28.545-6.112-43.462C-3045.291,2028.811-3038.223,2007.894-3052.4,2003.5Z" transform="translate(-47.752 -110.585)"/><g transform="translate(-3094.834 1892.922)"><circle class="c" cx="9.291" cy="9.291" r="9.291"/><circle class="c" cx="7.447" cy="7.447" r="7.447" transform="translate(14.171 56.557)"/><circle class="c" cx="7.447" cy="7.447" r="7.447" transform="translate(7.903 32.426)"/><circle class="c" cx="7.447" cy="7.447" r="7.447" transform="translate(11.204 45.133)"/><circle class="c" cx="7.447" cy="7.447" r="7.447" transform="translate(1.844 11.472)"/><circle class="c" cx="7.447" cy="7.447" r="7.447" transform="translate(4.492 21.669)"/><circle class="c" cx="6.864" cy="6.864" r="6.864" transform="translate(17.774 68.767)"/><path class="c" d="M-2974.953,2170.487l9.516,14.261a5.823,5.823,0,0,1-1.606,8.079,5.8,5.8,0,0,1-1.6.746l-7.463,2.189a5.827,5.827,0,0,1-7.232-3.949,5.826,5.826,0,0,1-.19-.918l-2.052-16.456a5.832,5.832,0,0,1,3.172-5.929h0A5.828,5.828,0,0,1-2974.953,2170.487Z" transform="translate(3006.965 -2088.507)"/></g><path class="p" d="M-3004.063,2049.363l-36.555-19.218,6.981,40.7-29.573,28.827,40.869,5.939,18.277,37.034,18.277-37.034,40.869-5.939-29.573-28.827,6.981-40.7Z" transform="translate(-47.752 -124.36)"/><g transform="translate(-2879.649 1916.582)"><path class="b" d="M-2546.142,2052.5s-12.176,26.708-24.027,50.384c0,0,9.9,8.814,10.022,17.959,0,0,1.213,4.447-2.482,2.109a16.517,16.517,0,0,1-4.1-6.3c-.887-2.9-3.833-1.371-3.292,1.36a20.227,20.227,0,0,0,6.608,10.929c3.722,2.71,4.26,6.344-1.242,6.567s-5.373.651-7.988-1.458l-8.944-5.094a13.473,13.473,0,0,1-2.19-10.537l-.462-17.866s3.743-17.282,7.641-26.519c3.823-7.768,3.351-9.776,10.975-19.224" transform="translate(2584.239 -2052.501)"/><path class="b" d="M-2432.848,2249.141" transform="translate(2505.96 -2154.176)"/></g><path class="b" d="M-2383.385,2434.818l-.789,8.741s-5.616,8.9-17.522,4.511c0,0,5.208-7.955-.419-8.65l1.067-6.206Z" transform="translate(-389.579 -332.773)"/><path class="q" d="M-2427.118,2447.931s4.67-12.036-1.953-8.869c0,0,.256,14.118-11.781,17.254s-13.73,8.259-13.91,10.264c0,0,19.884,2.615,49.332-4.655,0,0-3.008-22.021-7.341-16.115C-2414.925,2448.728-2417.594,2451.229-2427.118,2447.931Z" transform="translate(-362.357 -335.521)"/><path class="b" d="M-2497.025,2428.781v8.779s-3.658,8.96-15.907,5.663c0,0,3.106-9.326-2.561-9.509l.732-4.939Z" transform="translate(-330.955 -330.477)"/><path class="q" d="M-2541.969,2439.24s3.566-12.405-2.743-8.655a20.368,20.368,0,0,1-13.534,14.24c-11.7,4.207-13.714,7.313-13.714,9.326,0,0,40.961.914,52.851-2.926,0,0-4.977-21.652-8.769-15.389C-2529.754,2438.936-2532.185,2441.672-2541.969,2439.24Z" transform="translate(-301.759 -331.047)"/><path class="m" d="M-2443.98,2158.683l3.012,135.437h-24.689l-16.636-79.794-14.125,79.794h-25.2l.826-134.948Z" transform="translate(-327.79 -190.822)"/><line class="r" x1="1.091" y1="31.744" transform="translate(-2811.176 1993.215)"/><path class="r" d="M-2450.026,2227.056a17.747,17.747,0,0,1-8.1-15.872" transform="translate(-360.604 -217.968)"/><path class="s" d="M-2551.084,1959.108c9.716-32.256,33.691-33.266,33.722-33.25h0c-.067.244-.134.473-.21.712h.21l16.809,32.2h0l19.9-32.2h.6l-.21-.712h0c.046-.015,32.418-1.473,38.483,36.41,2.147,11.671,6.243,51.632-7.171,46.928h0s-.931-.686-1.886-1.242h0v17.221a23.749,23.749,0,0,1-23.749,23.75h-49.143c-13.475,0-16.906-7.829-16.906-21.306l-.618-28.74h0c-1.03.886-10.827-5.021-10.838-5.028h0C-2554.738,1983.343-2554.406,1969.423-2551.084,1959.108Z" transform="translate(-311.121 -70.431)"/><path class="r" d="M-2441.679,1940.857l-22.441,35.6-20.344-35.6" transform="translate(-347 -78.193)"/><path class="f" d="M-2474.293,1840.763s-5-2.2-3.412,6.948,3.412,7.194,3.412,7.194Z" transform="translate(-350.334 -26.318)"/><path class="b" d="M-2479.334,1870.564l2.248-27.357.608-14.75s1.995-2.571,1.505-10.616c0,0,13.866,8.029,21.06-.872,0,0,5.474,5.151,12.3,12.831l.878,40.806s-16.167,30.027-20.248,38.47C-2460.979,1909.075-2474.221,1883.425-2479.334,1870.564Z" transform="translate(-349.652 -14.134)"/><path class="c" d="M-2430.254,1840.253a20.981,20.981,0,0,0-7.315-1.562s-2.439-1.829.608-3.536a11.152,11.152,0,0,1,7.8,3.29S-2428.625,1840.838-2430.254,1840.253Z" transform="translate(-370.769 -23.537)"/><path class="c" d="M-2471.113,1840.253a20.955,20.955,0,0,1,7.314-1.562s2.435-1.829-.612-3.536a11.147,11.147,0,0,0-7.8,3.29S-2472.747,1840.838-2471.113,1840.253Z" transform="translate(-353.29 -23.537)"/><path class="h" d="M-2449.308,1842.225V1856.8s.612,2.491,3.292.248" transform="translate(-365.177 -27.193)"/><path class="i" d="M-2447.305,1887.158a4.614,4.614,0,0,1-6.42-1.168c-.058-.084-.114-.169-.166-.257" transform="translate(-362.808 -49.69)"/><circle class="c" cx="1.491" cy="1.491" r="1.491" transform="translate(-2806.547 1819.094)"/><circle class="c" cx="1.491" cy="1.491" r="1.491" transform="translate(-2822.367 1819.094)"/><path class="c" d="M-2476.079,1814.324s-5.339-6.5-.354-15.729c0,0,2.45-8.961,15.293-8.961,11.195,0,14.1,1.259,17.088,3.735,3.907,3.242,6.136,12.768,5.549,20.107-3.146,39.374-2.334,6.921-5.549,1.547,0,0-6.722-4.583-8.773-10.557,0,0-11.786,7.494-21.672,0C-2474.5,1804.472-2473.414,1814.017-2476.079,1814.324Z" transform="translate(-350.052)"/><path class="f" d="M-2408.335,1840.763s5-2.2,3.414,6.948-3.414,7.194-3.414,7.194Z" transform="translate(-386.363 -26.318)"/><path class="f" d="M-2477.154,1882.839l5.365,8.871a3.752,3.752,0,0,0,2.726,1.175h12.233a3.962,3.962,0,0,0,2.009-.545l6.676-3.914s-7.8,15.037-30.425,12.644Z" transform="translate(-350.048 -48.193)"/><path class="r" d="M-2528,2032.873s5.635-19.012,4.455-29.476" transform="translate(-324.489 -110.529)"/><path class="r" d="M-2339.995,2078.6s-10.143,4.7-18.264,0" transform="translate(-412.256 -149.416)"/><g transform="translate(-2827.685 1912.94)"><path class="l" d="M-2461.815,2061.072h-14.824v.384a16.506,16.506,0,0,0,13.883,16.312,16.508,16.508,0,0,0,18.923-13.673,16.508,16.508,0,0,0-13.674-18.921,16.507,16.507,0,0,0-18.921,13.673h16.814v6.8h-2.2Z" transform="translate(2476.639 -2044.961)"/></g><g transform="translate(-2866.389 1856.348)"><path class="p" d="M-2545.124,2010.116s15.092,2.448,14.582,8.872c0,0,.408,1.734-3.875,4.793,0,0-1.3,5.3,3.888,4.181,0,0,5.6-3.569,6.82-8.056,0,0-.612-4.691,2.345-.408,0,0,6.731,9.79,18.56,11.422,0,0-.917,3.671,1.122,4.894a7.146,7.146,0,0,0,4.912.524s2.94,14.365-1.649,20.075c0,0-7.75-.408-4.589,5.2,0,0,20.7,3.57,35.59-9.79a2.485,2.485,0,0,0,0-3.161s-1.631-1.938-4.793.2c0,0-1.224,1.836-4.08-1.121-2.228-2.308-12.34-15.5-8.805-14.408.634.2,3.911.743,4.523-3.744.232-1.7-1.387-4.1-1.387-4.1s8.668-23.621,7.607-25.884c0,0,.408-1.53,3.263,2.345,0,0,9.28,6.323,11.014.408,0,0,1.019-3.569-3.468-3.569,0,0-6.221-1.734-1.836-7.138s10.4-12.747,9.994-20.192c0,0,1.122-10.3-8.464-11.013,0,0-6.424-.306-9.585,2.04,0,0-3.161,2.04-1.836-2.958,0,0,8.385-12.411-.192-15.792,0,0,10.88,6.852-34.592,21.775,0,0-39.736,11.857-43.878,2.479,0,0-2.2,7.141,6.463,9.078,0,0,5-1.019,6.833,6.323,0,0-15.093-.51-16.01,13.359C-2556.647,1996.757-2558.891,2007.057-2545.124,2010.116Zm72.94-42.694s9.523-4.25,11.965,1.032c.654,1.416.553,4.949-1.013,7.941-2.311,4.419-8.226,12.688-10.2,14.481Zm-65.915,22.727,11.816,20.274c-2.623-.472-13.947-4.524-18.253-7.042-2.915-1.7-4.878-4.645-5.075-6.191C-2550.347,1991.418-2538.1,1990.149-2538.1,1990.149Z" transform="translate(2556.783 -1936.033)"/><ellipse class="q" cx="41.4" cy="9.501" rx="41.4" ry="9.501" transform="translate(0.259 23.339) rotate(-16.372)"/></g><g transform="translate(-2848.028 1920.345)"><path class="b" d="M-2432.688,2077.47s-7.9-2.835-2.864-16.673c0,0-25.643,6.129-50.947,13.934,0,0-7.073-11.214-16.078-12.829,0,0-4.187-1.923-2.485,2.1a16.494,16.494,0,0,0,5.544,5.08c2.713,1.349.73,4.012-1.888,3.017a20.243,20.243,0,0,1-9.7-8.309c-2.062-4.115-5.558-5.239-6.679.151s-1.524,5.2.125,8.127l3.561,9.648a13.457,13.457,0,0,0,10.036,3.874l17.545,3.375s16.93,2.721,26.679.386a83.914,83.914,0,0,0,32.846-10.706" transform="translate(2518.764 -2060.294)"/><path class="b" d="M-2399.4,2244.048" transform="translate(2457.044 -2155.307)"/></g><path class="s" d="M-2365.139,2060.366s-7.575,26.327-41.333-5.358l26.627-20.486a78.009,78.009,0,0,1,9.581,20.119A8.954,8.954,0,0,0-2365.139,2060.366Z" transform="translate(-387.326 -126.623)"/></g></svg>